<svg width="492" height="297" viewBox="0 0 492 297" fill="none" xmlns="http://www.w3.org/2000/svg">
<path d="M69.9297 68.1612H402.244" stroke="#636363" stroke-width="1.44" stroke-miterlimit="10"/>
<path d="M397.904 46.3732H74.2702C71.873 46.3732 69.9297 48.3164 69.9297 50.7136V247.64C69.9297 250.037 71.873 251.98 74.2702 251.98H397.904C400.301 251.98 402.244 250.037 402.244 247.64V50.7136C402.244 48.3164 400.301 46.3732 397.904 46.3732Z" stroke="#636363" stroke-width="1.44" stroke-miterlimit="10"/>
<path d="M91.8282 57.4854C91.8282 58.0865 91.65 58.6741 91.316 59.1739C90.9821 59.6736 90.5075 60.0632 89.9521 60.2932C89.3968 60.5232 88.7857 60.5834 88.1962 60.4661C87.6067 60.3489 87.0652 60.0594 86.6401 59.6344C86.2151 59.2094 85.9257 58.6679 85.8084 58.0783C85.6911 57.4888 85.7513 56.8777 85.9813 56.3224C86.2114 55.7671 86.6009 55.2924 87.1007 54.9585C87.6004 54.6246 88.188 54.4463 88.7891 54.4463C89.1885 54.4453 89.5842 54.5232 89.9533 54.6756C90.3225 54.8279 90.658 55.0518 90.9404 55.3342C91.2228 55.6166 91.4466 55.952 91.599 56.3212C91.7513 56.6904 91.8292 57.086 91.8282 57.4854Z" stroke="#636363" stroke-width="1.44" stroke-miterlimit="10"/>
<path d="M103.641 57.4854C103.641 58.0865 103.462 58.6741 103.129 59.1739C102.795 59.6736 102.32 60.0632 101.765 60.2932C101.209 60.5232 100.598 60.5834 100.009 60.4661C99.4192 60.3489 98.8777 60.0594 98.4526 59.6344C98.0276 59.2094 97.7382 58.6679 97.6209 58.0783C97.5036 57.4888 97.5638 56.8777 97.7938 56.3224C98.0239 55.7671 98.4134 55.2924 98.9132 54.9585C99.4129 54.6246 100.001 54.4463 100.602 54.4463C101.001 54.4453 101.397 54.5232 101.766 54.6756C102.135 54.8279 102.47 55.0518 102.753 55.3342C103.035 55.6166 103.259 55.952 103.411 56.3212C103.564 56.6904 103.642 57.086 103.641 57.4854V57.4854Z" stroke="#636363" stroke-width="1.44" stroke-miterlimit="10"/>
<path d="M115.453 57.4854C115.453 58.0865 115.275 58.6741 114.941 59.1739C114.607 59.6736 114.132 60.0632 113.577 60.2932C113.022 60.5232 112.411 60.5834 111.821 60.4661C111.232 60.3489 110.69 60.0594 110.265 59.6344C109.84 59.2094 109.551 58.6679 109.433 58.0783C109.316 57.4888 109.376 56.8777 109.606 56.3224C109.836 55.7671 110.226 55.2924 110.726 54.9585C111.225 54.6246 111.813 54.4463 112.414 54.4463C112.813 54.4453 113.209 54.5232 113.578 54.6756C113.948 54.8279 114.283 55.0518 114.565 55.3342C114.848 55.6166 115.072 55.952 115.224 56.3212C115.376 56.6904 115.454 57.086 115.453 57.4854Z" stroke="#636363" stroke-width="1.44" stroke-miterlimit="10"/>
<path d="M76.999 141.669H11.5179C9.47794 141.669 7.82422 143.322 7.82422 145.362V182.307C7.82422 184.347 9.47794 186.001 11.5179 186.001H76.999C79.0389 186.001 80.6926 184.347 80.6926 182.307V145.362C80.6926 143.322 79.0389 141.669 76.999 141.669Z" fill="#F2F2F2"/>
<path d="M76.999 141.669H11.5179C9.47794 141.669 7.82422 143.322 7.82422 145.362V182.307C7.82422 184.347 9.47794 186.001 11.5179 186.001H76.999C79.0389 186.001 80.6926 184.347 80.6926 182.307V145.362C80.6926 143.322 79.0389 141.669 76.999 141.669Z" stroke="#636363" stroke-width="1.44" stroke-miterlimit="10"/>
<path d="M462.66 102.168H373.209C371.005 102.168 369.219 103.954 369.219 106.158V168.865C369.219 171.068 371.005 172.855 373.209 172.855H462.66C464.863 172.855 466.649 171.068 466.649 168.865V106.158C466.649 103.954 464.863 102.168 462.66 102.168Z" fill="#F2F2F2"/>
<path d="M462.66 102.168H373.209C371.005 102.168 369.219 103.954 369.219 106.158V168.865C369.219 171.068 371.005 172.855 373.209 172.855H462.66C464.863 172.855 466.649 171.068 466.649 168.865V106.158C466.649 103.954 464.863 102.168 462.66 102.168Z" stroke="#636363" stroke-width="1.44" stroke-miterlimit="10"/>
<path d="M315.729 80.9645H263.207C262.316 80.9645 261.594 81.6867 261.594 82.5775V95.6379C261.594 96.5288 262.316 97.251 263.207 97.251H315.729C316.62 97.251 317.342 96.5288 317.342 95.6379V82.5775C317.342 81.6867 316.62 80.9645 315.729 80.9645Z" fill="#32CD32"/>
<path d="M269.328 86.7699H306.818" stroke="#636363" stroke-width="0.81" stroke-miterlimit="10"/>
<path d="M269.328 90.6818H284.835" stroke="#636363" stroke-width="0.81" stroke-miterlimit="10"/>
<path d="M267.777 95.4119V101.763L275.765 95.4119H267.777Z" fill="#32CD32"/>
<path d="M86.188 27.6165H15.6729C15.326 27.6165 14.9825 27.5481 14.662 27.4154C14.3415 27.2826 14.0503 27.088 13.805 26.8427C13.5597 26.5974 13.3651 26.3062 13.2323 25.9857C13.0996 25.6652 13.0313 25.3217 13.0313 24.9748C13.0312 24.6282 13.0996 24.2851 13.2325 23.965C13.3653 23.645 13.56 23.3543 13.8055 23.1096C14.0509 22.8649 14.3421 22.6711 14.6626 22.5391C14.9831 22.4072 15.3264 22.3399 15.6729 22.3409H86.188C86.8866 22.3409 87.5565 22.6184 88.0505 23.1123C88.5444 23.6063 88.8219 24.2762 88.8219 24.9748C88.8219 25.6741 88.5447 26.3448 88.0509 26.84C87.5572 27.3352 86.8873 27.6144 86.188 27.6165Z" fill="#DADADA"/>
<path d="M489.36 232H434.103C433.756 232.001 433.413 231.934 433.092 231.802C432.772 231.67 432.481 231.476 432.235 231.232C431.99 230.987 431.795 230.696 431.662 230.376C431.529 230.056 431.461 229.713 431.461 229.366C431.461 228.666 431.739 227.994 432.235 227.498C432.73 227.003 433.402 226.725 434.103 226.725H489.36C489.709 226.724 490.055 226.792 490.377 226.926C490.7 227.06 490.993 227.256 491.238 227.504C491.484 227.752 491.678 228.047 491.809 228.37C491.94 228.694 492.006 229.041 492.002 229.39C491.995 230.086 491.714 230.751 491.219 231.24C490.724 231.729 490.056 232.002 489.36 232Z" fill="#FCEEEF"/>
<path d="M247.961 0.771008H241.789C240.167 0.771008 238.852 2.08631 238.852 3.70881V9.50649C238.852 11.129 240.167 12.4443 241.789 12.4443H247.961C249.584 12.4443 250.899 11.129 250.899 9.50649V3.70881C250.899 2.08631 249.584 0.771008 247.961 0.771008Z" fill="#DADADA"/>
<path d="M13.3639 219.384H5.25184C3.11719 219.384 1.38672 221.115 1.38672 223.249V230.863C1.38672 232.997 3.11719 234.728 5.25184 234.728H13.3639C15.4986 234.728 17.229 232.997 17.229 230.863V223.249C17.229 221.115 15.4986 219.384 13.3639 219.384Z" fill="#FCEEEF"/>
<path d="M437.607 54.0255H431.802C430.274 54.0255 429.035 55.2641 429.035 56.7919V62.2467C429.035 63.7745 430.274 65.0131 431.802 65.0131H437.607C439.135 65.0131 440.373 63.7745 440.373 62.2467V56.7919C440.373 55.2641 439.135 54.0255 437.607 54.0255Z" fill="#FCEEEF"/>
<path d="M377.185 155.477C377.392 152.16 376.272 148.897 374.073 146.405C371.874 143.913 368.775 142.397 365.457 142.191C362.14 141.984 358.877 143.104 356.385 145.303C353.894 147.502 352.378 150.602 352.171 153.919C351.743 158.96 352.226 167.641 352.833 176.868L378.463 173.751L377.185 155.477Z" fill="#DC685D"/>
<path d="M378.462 173.821L352.832 176.938C353.611 189.149 354.671 196.147 354.102 203.105C353.949 204.962 354.183 206.831 354.788 208.593C355.393 210.355 356.357 211.973 357.618 213.344C358.88 214.716 360.412 215.811 362.117 216.56C363.823 217.31 365.666 217.699 367.529 217.701C371.028 217.707 374.392 216.355 376.913 213.928C379.434 211.502 380.914 208.192 381.041 204.695L378.462 173.821Z" fill="#FFB1A5"/>
<path d="M312.088 168.989L370.961 198.438C377.491 202.061 379.33 209.246 375.932 214.685C375.118 215.988 374.046 217.111 372.782 217.984C371.517 218.857 370.087 219.461 368.58 219.76C367.073 220.058 365.521 220.045 364.019 219.72C362.517 219.396 361.098 218.767 359.848 217.872L306.625 179.517L312.088 168.989Z" fill="#FFB1A5"/>
<path d="M302.881 183.024C305.045 183.754 307.377 183.826 309.582 183.232C311.787 182.637 313.766 181.402 315.269 179.682C316.772 177.963 317.731 175.836 318.026 173.572C318.321 171.307 317.937 169.006 316.924 166.959C315.911 164.912 314.314 163.212 312.335 162.072C310.355 160.933 308.082 160.406 305.804 160.559C303.525 160.711 301.343 161.536 299.533 162.928C297.722 164.32 296.366 166.218 295.634 168.382C294.654 171.284 294.868 174.457 296.227 177.203C297.585 179.949 299.979 182.042 302.881 183.024Z" fill="#FFB1A5"/>
<path d="M303.949 161.485C303.949 161.485 303.373 156.966 309.24 158.462C315.108 159.958 320.368 164.509 317.524 175.777L303.949 161.485Z" fill="#FFB1A5"/>
<path d="M312.954 139.611L300.486 136.705C300.319 136.67 300.147 136.671 299.98 136.707C299.814 136.743 299.657 136.814 299.519 136.914C299.382 137.015 299.267 137.143 299.183 137.291C299.098 137.439 299.045 137.603 299.028 137.772L294.251 170.104C294.19 170.461 294.264 170.827 294.459 171.133C294.653 171.438 294.954 171.66 295.303 171.756L307.772 174.662C307.938 174.698 308.11 174.699 308.277 174.663C308.443 174.627 308.6 174.557 308.737 174.456C308.874 174.355 308.988 174.226 309.072 174.077C309.155 173.929 309.206 173.764 309.221 173.595L314.006 141.263C314.063 140.907 313.988 140.542 313.794 140.237C313.6 139.933 313.301 139.71 312.954 139.611Z" fill="#37305E"/>
<path d="M314.151 139.869L301.683 136.962C301.516 136.927 301.344 136.928 301.177 136.965C301.011 137.001 300.854 137.073 300.717 137.174C300.58 137.276 300.466 137.405 300.383 137.554C300.299 137.703 300.249 137.867 300.233 138.037L295.449 170.361C295.391 170.718 295.466 171.085 295.66 171.391C295.854 171.696 296.153 171.921 296.501 172.021L308.969 174.92C309.136 174.956 309.308 174.956 309.475 174.92C309.642 174.885 309.8 174.814 309.937 174.713C310.075 174.612 310.19 174.483 310.274 174.335C310.358 174.187 310.41 174.022 310.426 173.852L315.203 141.521C315.262 141.164 315.188 140.798 314.994 140.493C314.799 140.188 314.499 139.966 314.151 139.869Z" fill="#261C42"/>
<path d="M313.462 143.009L302.529 140.461L298.633 166.808L309.566 169.356L313.462 143.009Z" fill="#E7E7E7"/>
<path d="M302.531 140.461L309.568 169.356L313.464 143.009L302.531 140.461Z" fill="#636363"/>
<path d="M312.515 159.693C310.9 158.963 309.189 158.467 307.434 158.22C306.859 158.145 306.274 158.261 305.77 158.549C305.267 158.838 304.871 159.283 304.644 159.818C304.442 160.309 304.393 160.85 304.502 161.37C304.612 161.89 304.876 162.365 305.26 162.732L309.694 166.979C309.694 166.979 308.985 173.275 311.954 176.252L314.627 166.27L312.515 159.693Z" fill="#FFB1A5"/>
<path d="M386.271 195.936L359.129 201.898C359.129 201.898 351.89 217.981 339.858 289.759C339.671 290.865 339.492 291.964 339.312 293.055C352.279 293.234 365.246 293.593 378.221 294.037L395.489 209.402L386.271 195.936Z" fill="#0070C0"/>
<path d="M418.047 253.43C417.127 218.691 399.532 199.918 399.532 199.918L366.117 200.962L375.016 293.928C389.417 294.395 403.849 294.972 418.226 295.486C418.343 279.029 418.327 263.973 418.047 253.43Z" fill="#0070C0"/>
<path d="M360.102 231.385L370.349 239.863L375.017 293.928" stroke="#121E35" stroke-width="1.14" stroke-linecap="round" stroke-linejoin="round"/>
<path d="M368.458 140.017L358.982 144.014C358.24 144.333 357.613 144.871 357.184 145.556C356.755 146.241 356.545 147.041 356.582 147.848L359.131 201.898L402.278 201.375L404.826 145.503C404.904 142.518 402.488 138.949 399.551 138.723L381.994 138.404L368.458 140.017Z" fill="#DC685D"/>
<path d="M357.897 159.693C357.897 159.693 353.471 165.311 357.897 176.299" stroke="#121E35" stroke-width="1.14" stroke-linecap="round" stroke-linejoin="round"/>
<path d="M421.676 163.628L398.992 175.956C404.252 187.006 410.065 198.858 412.107 205.568C412.654 207.347 413.564 208.994 414.779 210.404C415.994 211.815 417.487 212.959 419.166 213.764C420.844 214.569 422.671 215.018 424.531 215.083C426.392 215.147 428.245 214.826 429.976 214.14C433.237 212.862 435.874 210.367 437.328 207.18C438.782 203.994 438.94 200.367 437.768 197.066L421.676 163.628Z" fill="#FFB1A5"/>
<path d="M413.71 147.053C412.652 144.079 410.511 141.613 407.714 140.148C404.918 138.683 401.671 138.328 398.624 139.152C391.805 140.999 391.977 156.864 394.026 163.628C395.491 168.475 395.024 167.61 398.99 175.956L421.674 163.628L413.71 147.053Z" fill="#DC685D"/>
<path d="M398.769 175.956L393.797 163.628" stroke="#121E35" stroke-width="1.14" stroke-linecap="round" stroke-linejoin="round"/>
<path d="M366.012 191.206L426.396 192.515C427.915 192.593 429.403 192.979 430.768 193.649C432.134 194.318 433.35 195.258 434.341 196.412C435.333 197.565 436.08 198.908 436.537 200.358C436.995 201.809 437.153 203.337 437.002 204.851C436.85 206.38 436.386 207.861 435.639 209.203C434.892 210.546 433.878 211.721 432.659 212.656C431.441 213.592 430.043 214.268 428.553 214.642C427.063 215.016 425.512 215.081 423.996 214.833L366.596 204.921L366.012 191.206Z" fill="#FFB1A5"/>
<path d="M367.015 208.584C369.282 208.287 371.409 207.325 373.129 205.818C374.848 204.312 376.081 202.329 376.673 200.121C377.264 197.913 377.187 195.579 376.451 193.415C375.715 191.251 374.354 189.353 372.539 187.964C370.724 186.574 368.538 185.754 366.256 185.608C363.975 185.461 361.702 185.995 359.725 187.142C357.747 188.288 356.154 189.996 355.148 192.049C354.142 194.101 353.767 196.406 354.072 198.671C354.481 201.699 356.072 204.441 358.498 206.299C360.923 208.156 363.986 208.978 367.015 208.584Z" fill="#FFB1A5"/>
<path d="M358.425 188.806C358.425 188.806 355.9 185.011 361.83 183.749C367.76 182.486 374.485 184.24 376.924 195.601L358.425 188.806Z" fill="#FFB1A5"/>
<path d="M403.798 120.754C403.901 113.168 397.835 106.933 390.248 106.83C382.661 106.727 376.427 112.793 376.324 120.38C376.22 127.967 382.287 134.201 389.874 134.304C397.461 134.408 403.695 128.341 403.798 120.754Z" fill="#121E35"/>
<path d="M347.406 86.6218C347.406 86.6218 369.6 73.5614 384.811 87.1595C394.068 95.4508 390.554 108.979 378.14 117.403C366.311 125.398 361.932 88.0401 361.932 88.0401L347.406 86.6218Z" fill="#121E35"/>
<path d="M359.575 83.24C359.575 83.24 337.99 84.4011 339.502 100.727C340.507 111.574 357.425 111.223 357.425 111.223L359.575 83.24Z" fill="#121E35"/>
<path d="M355.723 112.828C356.056 113.9 356.064 115.046 355.746 116.122C355.428 117.198 354.798 118.156 353.935 118.874C353.073 119.592 352.017 120.038 350.901 120.155C349.785 120.273 348.659 120.057 347.666 119.535C346.672 119.013 345.856 118.207 345.321 117.221C344.785 116.235 344.554 115.113 344.657 113.995C344.759 112.878 345.191 111.816 345.897 110.944C346.603 110.072 347.552 109.428 348.624 109.096C350.06 108.652 351.614 108.796 352.944 109.495C354.275 110.195 355.274 111.393 355.723 112.828Z" fill="#EA8C8C"/>
<path d="M362.941 129.037L367.064 142.565C368.497 147.318 371.046 149.274 375.713 147.817C379.703 146.578 383.958 143.064 383.225 138.957L375.713 117.956L362.941 129.037Z" fill="#FFB1A5"/>
<path d="M368.769 139.588L363.961 141.676C363.961 141.676 356.496 154.145 370.756 154.62C387.954 155.173 389.357 145.269 392.1 138.591L383.31 137.749L368.769 139.588Z" fill="#FFB1A5"/>
<path d="M365.114 136.19C365.114 136.19 377.053 134.445 377.053 118.501L362.488 127.658L365.114 136.19Z" fill="#121E35"/>
<path d="M367.647 130.268C359.535 132.208 351.321 127.4 349.514 120.831L345.337 105.301C344.256 101.343 344.753 97.1211 346.722 93.5225C348.692 89.9239 351.98 87.2295 355.896 86.0062C364.249 83.4113 374.598 87.6193 377.185 95.9729L380.403 108.496C382.905 118.151 377.201 127.307 367.647 130.268Z" fill="#FFB1A5"/>
<path d="M366.539 93.7365C366.594 103.672 376.038 108.979 376.038 108.979L382.771 95.3574C382.771 95.3574 366.539 85.5699 366.539 93.7365Z" fill="#121E35"/>
<path d="M369.306 95.4976C369.306 95.4976 349.559 93.6976 343.255 103.15C343.255 103.15 342.71 83.8244 363.898 82.7022C385.086 81.5801 378.93 96.5341 378.93 96.5341L369.306 95.4976Z" fill="#121E35"/>
<path d="M356.828 114.286L357.171 117.309L359.189 116.904" stroke="#121E35" stroke-width="1.1" stroke-linecap="round" stroke-linejoin="round"/>
<path d="M353.365 112.54C353.443 112.823 353.435 113.123 353.343 113.401C353.25 113.679 353.077 113.924 352.845 114.104C352.613 114.284 352.333 114.391 352.041 114.411C351.748 114.432 351.456 114.365 351.201 114.219C350.947 114.073 350.741 113.855 350.611 113.592C350.481 113.329 350.431 113.033 350.47 112.742C350.508 112.451 350.631 112.178 350.825 111.958C351.019 111.737 351.273 111.579 351.557 111.504C351.744 111.453 351.939 111.439 352.131 111.464C352.322 111.489 352.508 111.551 352.676 111.647C352.843 111.743 352.991 111.872 353.109 112.025C353.227 112.178 353.314 112.353 353.365 112.54Z" fill="#121E35"/>
<path d="M365.316 109.298C365.392 109.579 365.383 109.877 365.291 110.153C365.198 110.429 365.025 110.671 364.795 110.849C364.564 111.027 364.286 111.133 363.995 111.152C363.705 111.172 363.415 111.106 363.162 110.961C362.91 110.816 362.706 110.6 362.576 110.339C362.446 110.078 362.397 109.785 362.434 109.496C362.471 109.207 362.593 108.935 362.784 108.716C362.975 108.496 363.227 108.338 363.508 108.262C363.695 108.21 363.89 108.196 364.083 108.22C364.275 108.244 364.461 108.306 364.629 108.403C364.797 108.499 364.944 108.628 365.062 108.782C365.18 108.935 365.267 109.111 365.316 109.298Z" fill="#121E35"/>
<path d="M358.059 105.644L366.778 104.755C366.778 104.755 365.407 102.417 361.854 102.807C358.3 103.197 358.059 105.644 358.059 105.644Z" fill="#121E35"/>
<path d="M353.66 106.992L347.52 108.979C347.614 108.255 347.918 107.574 348.394 107.02C348.871 106.466 349.498 106.064 350.2 105.862C350.816 105.596 351.507 105.565 352.144 105.773C352.781 105.981 353.32 106.414 353.66 106.992Z" fill="#121E35"/>
<path d="M356.734 120.566L365.634 118.501C365.383 119.742 364.704 120.854 363.715 121.644C362.726 122.433 361.49 122.849 360.225 122.818C356.96 122.873 356.734 120.566 356.734 120.566Z" fill="#636363"/>
<path d="M384.589 106.922C384.662 107.958 384.426 108.993 383.911 109.895C383.396 110.797 382.624 111.527 381.695 111.991C380.765 112.454 379.719 112.632 378.688 112.501C377.657 112.37 376.688 111.936 375.904 111.255C375.12 110.573 374.556 109.674 374.282 108.672C374.009 107.669 374.04 106.608 374.37 105.623C374.699 104.638 375.314 103.772 376.136 103.137C376.958 102.501 377.95 102.123 378.986 102.051C380.375 101.955 381.745 102.414 382.796 103.327C383.846 104.24 384.491 105.533 384.589 106.922Z" fill="#FFB1A5"/>
<path d="M377.625 108.971C377.625 108.971 377.36 105.176 381.031 105.519" stroke="#121E35" stroke-width="0.98" stroke-linecap="round" stroke-linejoin="round"/>
<path d="M86.6914 252.339V291.972L122.483 292.892V264.495L130.213 263.147L135.411 291.972L167.789 294.037L155.18 234.525L86.6914 252.339Z" fill="#171D5F"/>
<path d="M57.3928 187.076L44.4727 274.111L58.4448 275.615L81.5653 186.336L57.3928 187.076Z" fill="#F29891"/>
<path d="M44.4713 274.111C44.4713 274.111 21.3273 279.434 22.2702 285.605H50.4716C50.4716 285.605 61.1474 284.787 58.4512 275.623L44.4713 274.111Z" fill="#F29891"/>
<path d="M91.753 148.924C91.753 148.924 63.0296 146.586 47.0938 189.445L82.5344 202.186L91.753 148.924Z" fill="#0070C0"/>
<path d="M193.272 118.299L180.672 160.379L195.376 177.016C195.376 177.016 204.533 139.884 204.821 118.392L193.272 118.299Z" fill="#FFB1A5"/>
<path d="M192.766 119.514C192.766 119.514 204.05 121.011 205.632 118.19C208.39 113.265 206.933 99.8848 206.933 99.8848C206.933 99.8848 187.14 100.321 187.405 100.516C187.67 100.711 192.766 119.514 192.766 119.514Z" fill="#FFB1A5"/>
<path d="M192.766 119.514C192.555 118.525 184.973 109.976 182.238 106.727C182.085 106.53 181.975 106.303 181.915 106.061C181.855 105.819 181.847 105.567 181.891 105.321C181.935 105.076 182.031 104.842 182.171 104.636C182.311 104.43 182.493 104.255 182.706 104.124C183.062 103.854 183.497 103.707 183.945 103.707C184.392 103.707 184.827 103.854 185.184 104.124L192.462 109.758L192.766 119.514Z" fill="#FFB1A5"/>
<path d="M188.751 108.605L185.751 92.6611C185.652 92.1449 185.76 91.6105 186.051 91.1731C186.343 90.7357 186.795 90.4305 187.309 90.3234C187.742 90.2307 188.195 90.3085 188.572 90.5407C188.949 90.7729 189.223 91.1416 189.335 91.5702L192.452 103.049L188.751 108.605Z" fill="#FFB1A5"/>
<path d="M192.454 100.812L192.243 88.6791C192.228 88.1687 192.409 87.6719 192.75 87.2917C193.091 86.9116 193.565 86.6773 194.074 86.6375C194.504 86.6075 194.929 86.741 195.264 87.0112C195.6 87.2815 195.82 87.6685 195.882 88.0947L197.791 101.451L192.454 100.812Z" fill="#FFB1A5"/>
<path d="M198.016 102.145L198.943 89.7623C198.984 89.2103 199.233 88.6945 199.639 88.3186C200.046 87.9427 200.579 87.7346 201.133 87.7362C201.382 87.7422 201.628 87.7978 201.856 87.8996C202.084 88.0015 202.29 88.1477 202.461 88.3297C202.632 88.5116 202.765 88.7258 202.853 88.9597C202.941 89.1935 202.981 89.4425 202.972 89.6921L202.847 101.085L198.016 102.145Z" fill="#FFB1A5"/>
<path d="M206.95 99.8693L208.392 91.9364C208.411 91.5268 208.268 91.1262 207.994 90.8213C207.72 90.5164 207.336 90.3319 206.927 90.3078C206.519 90.2981 206.121 90.4303 205.799 90.6819C205.478 90.9335 205.254 91.2887 205.166 91.6871L202.828 101.085L206.95 99.8693Z" fill="#FFB1A5"/>
<path d="M189.113 107.148C189.113 107.148 194.856 104.108 198.683 111.823" stroke="#282828" stroke-width="1.18" stroke-linecap="round" stroke-linejoin="round"/>
<path d="M196.299 166.122C196.299 166.122 197.959 182.486 188.732 183.936C179.506 185.385 159.12 172.652 159.12 172.652L149.676 140.702L185.101 160.332L196.299 166.122Z" fill="#FFB1A5"/>
<path d="M124.973 143.001C124.973 143.001 144.587 129.988 175.087 150.389L157.164 178.699L139.358 177.055L124.973 143.001Z" fill="#0070C0"/>
<path d="M78.6523 196.427L83.1253 253.516L162.095 242.271L149.877 159.147L124.971 143.001L91.7517 148.924L78.6523 196.427Z" fill="#0070C0"/>
<path d="M79.0063 200.916L76.9023 181.707" stroke="#121E35" stroke-width="1.14" stroke-linecap="round" stroke-linejoin="round"/>
<path d="M152.688 178.286L149.648 161.696" stroke="#121E35" stroke-width="1.14" stroke-linecap="round" stroke-linejoin="round"/>
<path d="M97.8477 144.591L94.193 122.304L114.734 118.938L118.389 141.217L124.966 143.001C124.966 143.001 125.044 152.469 109.911 155.165C94.7774 157.862 91.7461 148.931 91.7461 148.931L97.8477 144.591Z" fill="#FFB1A5"/>
<path d="M115.893 125.974C115.893 125.974 115.55 134.733 108.1 136.962C99.4349 139.526 95.3594 129.567 95.3594 129.567C95.3594 129.567 100.035 133.619 106.175 132.621C108.185 132.299 110.099 131.536 111.779 130.387C113.459 129.238 114.864 127.731 115.893 125.974Z" fill="#121E35"/>
<path d="M91.2852 86.2869C91.2852 86.2869 94.9399 77.2319 107.237 78.7203C115.918 79.7723 118.816 86.8479 120.344 90.0663C120.942 91.2961 121.21 92.6601 121.123 94.0249L119.432 109.197L105.016 89.9026L93.1554 92.0378L91.2852 86.2869Z" fill="#121E35"/>
<path d="M119.417 109.197C119.871 108.408 120.587 107.802 121.441 107.486C122.296 107.17 123.233 107.163 124.092 107.467C127.427 108.363 126.749 116.319 122.027 117.792C121.495 117.941 120.937 117.974 120.391 117.887C119.845 117.801 119.324 117.599 118.863 117.293C118.863 117.293 119.448 111.41 119.417 109.197Z" fill="#FFB1A5"/>
<path d="M123.7 110.28C123.7 110.28 120.918 109.649 119.398 113.81" stroke="#131313" stroke-width="0.7" stroke-linecap="round" stroke-linejoin="round"/>
<path d="M86.5131 112.501C85.9145 111.824 85.0989 111.375 84.2061 111.233C83.3133 111.091 82.3988 111.264 81.6194 111.722C78.5023 113.28 80.7544 120.917 85.6715 121.431C86.2231 121.475 86.7776 121.399 87.2969 121.208C87.8162 121.017 88.2879 120.716 88.6794 120.325C88.6794 120.325 86.9183 114.644 86.5131 112.501Z" fill="#FFB1A5"/>
<path d="M82.5312 114.379C82.5312 114.379 85.134 113.21 87.4328 116.99" stroke="#131313" stroke-width="0.7" stroke-linecap="round" stroke-linejoin="round"/>
<path d="M119 101.763C119.467 106.438 119.989 116.358 117.675 122.491C115.509 128.242 112.08 131.063 106.204 131.842C100.329 132.622 94.9519 131.351 90.7283 124.58C86.5048 117.808 85.4138 105.207 85.4138 105.207C85.4138 105.207 83.7462 88.3986 100.36 86.7388C117.854 84.9855 119 101.763 119 101.763Z" fill="#FFB1A5"/>
<path d="M86.5127 112.501L82.0631 98.0381C81.7672 96.8533 81.8213 95.6081 82.2189 94.4535C83.2086 91.5702 86.2633 85.1024 91.2895 86.318L93.1597 92.0378C93.1597 92.0378 87.1127 93.8924 85.4451 102.207L86.5127 112.501Z" fill="#121E35"/>
<path d="M89.3594 91.2196C89.3594 91.2196 100.472 102.238 120.093 99.0901C120.093 99.0901 116.805 85.0634 107.578 84.9309C101.774 84.9801 96.0908 86.5954 91.1283 89.6065L89.3594 91.2196Z" fill="#121E35"/>
<path d="M93.1608 92.0066C91.5874 96.6666 88.8957 100.87 85.3215 104.249C85.3215 104.249 82.6564 90.9857 93.1608 92.0066Z" fill="#121E35"/>
<path d="M108.498 108.901C108.543 109.192 108.674 109.463 108.873 109.68C109.073 109.896 109.332 110.049 109.618 110.119C109.904 110.188 110.205 110.171 110.481 110.07C110.758 109.968 110.998 109.787 111.171 109.549C111.345 109.311 111.444 109.027 111.456 108.733C111.468 108.439 111.392 108.148 111.239 107.896C111.085 107.645 110.861 107.445 110.593 107.321C110.326 107.198 110.028 107.156 109.737 107.202C109.348 107.263 108.999 107.477 108.766 107.795C108.534 108.114 108.438 108.511 108.498 108.901Z" fill="#121E35"/>
<path d="M94.7324 111.059C94.7762 111.351 94.9056 111.623 95.1042 111.841C95.3029 112.059 95.5618 112.213 95.8481 112.284C96.1344 112.354 96.4352 112.338 96.7124 112.237C96.9896 112.137 97.2306 111.956 97.4049 111.718C97.5792 111.48 97.6789 111.196 97.6914 110.901C97.7038 110.607 97.6285 110.315 97.4749 110.063C97.3213 109.812 97.0965 109.611 96.8288 109.487C96.5611 109.364 96.2627 109.322 95.9714 109.368C95.779 109.398 95.5942 109.465 95.4277 109.566C95.2612 109.667 95.1162 109.8 95.0011 109.957C94.886 110.114 94.8031 110.292 94.7569 110.481C94.7108 110.671 94.7025 110.867 94.7324 111.059Z" fill="#121E35"/>
<path d="M98.007 103.742L88.5391 107.826C88.5391 107.826 88.5391 104.981 92.4354 103.345C96.3316 101.708 98.007 103.742 98.007 103.742Z" fill="#121E35"/>
<path d="M104.945 102.784L115.216 103.781C115.216 103.781 114.335 101.085 110.135 100.711C105.935 100.337 104.945 102.784 104.945 102.784Z" fill="#121E35"/>
<path d="M102.371 113.475L102.8 115.564C102.822 115.685 102.871 115.8 102.943 115.9C103.015 116 103.109 116.083 103.217 116.142C103.326 116.201 103.446 116.235 103.569 116.241C103.692 116.248 103.816 116.227 103.93 116.179L104.997 115.719" stroke="#121E35" stroke-width="1.03" stroke-linecap="round" stroke-linejoin="round"/>
<path d="M99.2578 120.348L109.941 117.932C109.941 117.932 110.822 122.086 105.562 123.107C100.302 124.128 99.2578 120.348 99.2578 120.348Z" fill="#636363"/>
<path d="M467.391 284.663H0V296.336H467.391V284.663Z" fill="#DADADA"/>
<path d="M205.689 262.485H182.358C179.417 262.485 176.597 263.653 174.517 265.733C172.438 267.812 171.27 270.633 171.27 273.574C171.27 276.515 172.438 279.335 174.517 281.415C176.597 283.494 179.417 284.663 182.358 284.663H209.804L205.689 262.485Z" fill="#FFB1A5"/>
<path d="M173.836 266.482L188.315 242.77L209.806 245.668L206.619 273.574L173.836 266.482Z" fill="#FFB1A5"/>
<path d="M199.92 262.485H182.363" stroke="#121E35" stroke-width="1.14" stroke-linecap="round" stroke-linejoin="round"/>
<path d="M278.716 262.485H302.047C303.503 262.485 304.945 262.772 306.291 263.329C307.636 263.886 308.858 264.703 309.888 265.733C310.918 266.762 311.734 267.985 312.292 269.33C312.849 270.676 313.136 272.118 313.136 273.574C313.136 275.03 312.849 276.472 312.292 277.817C311.734 279.163 310.918 280.385 309.888 281.415C308.858 282.444 307.636 283.261 306.291 283.818C304.945 284.376 303.503 284.663 302.047 284.663H274.586L278.716 262.485Z" fill="#FFB1A5"/>
<path d="M310.334 266.194L292.1 238.102L274.605 245.668L277.793 273.574L310.334 266.194Z" fill="#FFB1A5"/>
<path d="M280.043 262.485H302.049" stroke="#121E35" stroke-width="1.14" stroke-linecap="round" stroke-linejoin="round"/>
<path d="M240.248 201.173C240.248 201.173 217.027 201.173 199.922 217.989V265.111C199.922 265.111 281.744 266.358 281.744 265.111C281.744 263.864 281.744 214.872 281.744 214.872C281.744 214.872 265.037 201.173 240.248 201.173Z" fill="#32CD32"/>
<path d="M203.379 214.872C203.379 214.872 190.755 225.065 177.445 247.507C177.445 247.507 180.321 260.498 205.109 262.485L203.379 214.872Z" fill="#32CD32"/>
<path d="M281.773 214.872C281.773 214.872 294.397 225.065 307.707 247.507C307.707 247.507 304.831 260.498 280.043 262.485L281.773 214.872Z" fill="#32CD32"/>
<path d="M278.043 230.27H203.631C201.583 230.27 199.922 231.931 199.922 233.98V280.961C199.922 283.01 201.583 284.67 203.631 284.67H278.043C280.091 284.67 281.752 283.01 281.752 280.961V233.98C281.752 231.931 280.091 230.27 278.043 230.27Z" fill="#FFE6E9"/>
<path d="M240.835 262.485C243.606 262.485 245.853 260.238 245.853 257.466C245.853 254.695 243.606 252.448 240.835 252.448C238.063 252.448 235.816 254.695 235.816 257.466C235.816 260.238 238.063 262.485 240.835 262.485Z" fill="#636363"/>
<path d="M248.67 191.245H232.617V209.223H248.67V191.245Z" fill="#FFB1A5"/>
<path d="M231.828 190.279C231.828 190.279 233.246 199.209 239.971 199.373C248.808 199.583 248.66 190.676 248.66 190.676C248.66 190.676 247.46 193.295 240.626 193.302C233.005 193.318 231.828 190.279 231.828 190.279Z" fill="#121E35"/>
<path d="M240.673 183.975C253.004 183.975 262.999 173.724 262.999 161.08C262.999 148.436 253.004 138.185 240.673 138.185C228.343 138.185 218.348 148.436 218.348 161.08C218.348 173.724 228.343 183.975 240.673 183.975Z" fill="#121E35"/>
<path d="M259.965 169.434C260.502 168.675 261.289 168.129 262.188 167.891C263.086 167.653 264.04 167.739 264.882 168.132C268.202 169.395 266.698 177.444 261.726 178.473C261.167 178.57 260.594 178.546 260.046 178.402C259.497 178.258 258.986 177.998 258.547 177.639C258.547 177.639 259.778 171.725 259.965 169.434Z" fill="#FFB1A5"/>
<path d="M264.226 170.945C264.226 170.945 261.452 170.018 259.48 174.109" stroke="#131313" stroke-width="0.78" stroke-linecap="round" stroke-linejoin="round"/>
<path d="M221.898 169.434C221.358 168.675 220.57 168.13 219.671 167.892C218.771 167.655 217.816 167.74 216.973 168.132C213.661 169.395 215.157 177.444 220.129 178.473C220.688 178.57 221.261 178.546 221.809 178.402C222.358 178.258 222.869 177.998 223.308 177.639C223.308 177.639 222.085 171.725 221.898 169.434Z" fill="#FFB1A5"/>
<path d="M217.633 170.945C217.633 170.945 220.415 170.018 222.386 174.109" stroke="#131313" stroke-width="0.78" stroke-linecap="round" stroke-linejoin="round"/>
<path d="M260.277 162.498C260.277 167.657 259.747 178.45 256.381 184.855C253.264 190.871 248.05 194.113 241.24 194.3C234.429 194.487 229.387 191.985 225.312 184.193C221.236 176.4 221.415 162.584 221.415 162.584C221.415 162.584 221.415 144.154 240.624 144.154C260.877 144.162 260.277 162.498 260.277 162.498Z" fill="#FFB1A5"/>
<path d="M221.9 169.434C221.9 169.434 225.999 160.441 222.384 153.965C222.376 153.965 219.103 164.384 221.9 169.434Z" fill="#121E35"/>
<path d="M259.903 169.434C259.903 169.434 255.805 160.441 259.42 153.965C259.42 153.965 262.693 164.384 259.903 169.434Z" fill="#121E35"/>
<path d="M250.624 145.23C250.624 145.23 248.731 156.14 259.975 161.088C260.006 161.057 259.547 148.292 250.624 145.23Z" fill="#121E35"/>
<path d="M253.158 146.562C253.158 146.562 251.474 157.472 236.684 155.017C225.174 153.124 221.66 161.929 221.66 161.929C221.66 161.929 219.618 145.565 238.204 142.222C238.204 142.222 247.711 142.175 253.158 146.562Z" fill="#121E35"/>
<path d="M234.065 171.374C234.065 171.721 233.962 172.06 233.77 172.348C233.577 172.636 233.303 172.861 232.983 172.994C232.663 173.127 232.31 173.161 231.97 173.094C231.63 173.026 231.317 172.859 231.072 172.614C230.827 172.369 230.66 172.056 230.592 171.716C230.525 171.376 230.559 171.023 230.692 170.703C230.825 170.383 231.049 170.109 231.338 169.916C231.626 169.723 231.965 169.621 232.312 169.621C232.777 169.621 233.223 169.805 233.552 170.134C233.881 170.463 234.065 170.909 234.065 171.374Z" fill="#121E35"/>
<path d="M248.538 173.127C249.507 173.127 250.292 172.342 250.292 171.374C250.292 170.406 249.507 169.621 248.538 169.621C247.57 169.621 246.785 170.406 246.785 171.374C246.785 172.342 247.57 173.127 248.538 173.127Z" fill="#121E35"/>
<path d="M239.52 175.2V177.538C239.517 177.676 239.546 177.812 239.603 177.937C239.659 178.063 239.744 178.174 239.849 178.263C239.954 178.351 240.078 178.416 240.211 178.451C240.344 178.486 240.483 178.491 240.618 178.465L241.881 178.2" stroke="#121E35" stroke-width="1.14" stroke-linecap="round" stroke-linejoin="round"/>
<path d="M237.496 165.935L226.859 167.213C226.859 167.213 227.709 164.392 232.057 163.909C236.405 163.426 237.496 165.935 237.496 165.935Z" fill="#121E35"/>
<path d="M243.633 165.935L254.27 167.213C254.27 167.213 253.42 164.392 249.072 163.909C244.724 163.426 243.633 165.935 243.633 165.935Z" fill="#121E35"/>
<path d="M235.692 176.456C238.528 173.619 238.528 169.021 235.692 166.185C232.855 163.348 228.257 163.348 225.421 166.185C222.584 169.021 222.584 173.619 225.421 176.456C228.257 179.292 232.855 179.292 235.692 176.456Z" stroke="#636363" stroke-width="1.25" stroke-miterlimit="10"/>
<path d="M258.185 172.986C259.103 169.081 256.682 165.172 252.777 164.254C248.872 163.336 244.963 165.757 244.045 169.662C243.127 173.566 245.548 177.476 249.453 178.394C253.357 179.312 257.267 176.891 258.185 172.986Z" stroke="#636363" stroke-width="1.25" stroke-miterlimit="10"/>
<path d="M237.816 171.927C237.816 171.927 240.38 167.984 243.856 171.927" stroke="#636363" stroke-width="1.25" stroke-miterlimit="10"/>
<path d="M234.598 181.707C234.598 181.707 235.665 183.086 240.411 183.086C244.728 183.086 246.684 181.707 246.684 181.707" stroke="#121E35" stroke-width="1.14" stroke-linecap="round" stroke-linejoin="round"/>
<path d="M240.247 201.173C240.247 201.173 230.444 200.643 217.649 206.308C217.649 206.308 217.384 217.358 239.468 217.358C261.552 217.358 263.547 205.233 263.547 205.233C263.547 205.233 249.505 200.238 240.247 201.173Z" fill="#FFB1A5"/>
<path d="M248.658 145.962C256.706 145.962 263.23 139.438 263.23 131.39C263.23 123.342 256.706 116.818 248.658 116.818C240.61 116.818 234.086 123.342 234.086 131.39C234.086 139.438 240.61 145.962 248.658 145.962Z" fill="#121E35"/>
</svg>
