<svg width="563" height="385" viewBox="0 0 563 385" fill="none" xmlns="http://www.w3.org/2000/svg">
<path opacity="0.3" d="M483.52 366.752C483.523 360.768 484.877 354.861 487.483 349.473C490.088 344.084 493.877 339.354 498.566 335.635C503.255 331.916 508.724 329.305 514.563 327.995C520.403 326.685 526.463 326.711 532.292 328.071C538.12 329.431 543.566 332.09 548.223 335.85C552.88 339.609 556.627 344.371 559.186 349.782C561.745 355.192 563.049 361.11 563 367.095C562.951 373.08 561.552 378.976 558.905 384.344H487.616C484.912 378.875 483.511 372.854 483.52 366.752Z" fill="white"/>
<path d="M275.211 190.491C274.679 189.829 274.005 189.295 273.24 188.929C272.474 188.562 271.636 188.371 270.786 188.372L154.672 188.82L103.363 189.018C102.296 189.022 101.252 189.328 100.352 189.901C99.4514 190.474 98.7318 191.291 98.2763 192.256C97.8208 193.221 97.648 194.295 97.7779 195.354C97.9079 196.414 98.3352 197.414 99.0105 198.241L126.675 232.082C127.463 233.047 127.837 234.285 127.717 235.525C127.597 236.765 126.992 237.908 126.034 238.705L0 343.197V344.413L126.641 239.423C127.788 238.47 128.511 237.103 128.655 235.619C128.799 234.135 128.351 232.654 127.409 231.499L99.7337 197.663C99.1702 196.973 98.8136 196.138 98.7052 195.253C98.5969 194.369 98.7413 193.472 99.1216 192.667C99.502 191.861 100.103 191.18 100.854 190.701C101.606 190.223 102.478 189.967 103.369 189.964L155.437 189.763L270.789 189.315H270.808C271.515 189.315 272.212 189.475 272.849 189.781C273.487 190.087 274.047 190.533 274.488 191.085C274.93 191.637 275.242 192.281 275.401 192.97C275.56 193.659 275.562 194.374 275.407 195.064L255.415 283.962L250.458 305.997L239.174 356.182C238.98 357.044 238.547 357.834 237.925 358.462C237.304 359.09 236.518 359.531 235.658 359.735C234.798 359.938 233.898 359.895 233.061 359.612C232.224 359.329 231.483 358.816 230.924 358.132L204.488 325.793L196.768 316.353C196.297 315.776 195.716 315.297 195.059 314.945C194.401 314.593 193.681 314.375 192.939 314.303C192.197 314.231 191.448 314.307 190.736 314.526C190.023 314.745 189.361 315.103 188.788 315.58L105.846 384.345H107.3L189.376 316.298C189.855 315.901 190.407 315.602 191.002 315.42C191.596 315.238 192.221 315.175 192.84 315.235C193.459 315.296 194.06 315.478 194.608 315.772C195.156 316.065 195.641 316.465 196.034 316.947L203.754 326.395L230.187 358.717C230.858 359.537 231.746 360.152 232.749 360.491C233.753 360.831 234.831 360.882 235.862 360.638C236.893 360.395 237.835 359.866 238.58 359.114C239.325 358.361 239.844 357.414 240.077 356.38L251.205 306.908L256.371 283.954L276.332 195.274C276.518 194.443 276.513 193.582 276.319 192.754C276.125 191.926 275.746 191.152 275.211 190.491Z" fill="#30262A"/>
<path d="M386.966 164.008L353.692 311.947C353.492 312.814 353.054 313.608 352.426 314.239C351.799 314.87 351.007 315.313 350.141 315.518C349.275 315.722 348.369 315.68 347.525 315.397C346.682 315.113 345.934 314.599 345.368 313.913L322.472 285.909L319.857 282.711L319.165 281.869L314.004 275.555C313.606 275.07 313.116 274.669 312.563 274.374C312.009 274.078 311.403 273.895 310.779 273.835C310.154 273.774 309.524 273.837 308.924 274.021C308.324 274.204 307.767 274.504 307.283 274.903L276.955 300.046L276.29 300.597L175.279 384.344H32.2891L249.669 204.313C250.636 203.512 251.247 202.361 251.368 201.111C251.489 199.861 251.111 198.614 250.316 197.642L231.923 175.14L231.221 174.285L224.916 166.564C224.352 165.867 223.996 165.025 223.889 164.135C223.782 163.244 223.928 162.342 224.31 161.531C224.693 160.72 225.296 160.033 226.052 159.549C226.807 159.065 227.683 158.805 228.58 158.796L285.518 158.576L299.544 158.521L321.102 158.436H324.771L333.726 158.402L339.534 158.38L355.178 158.319L368.298 158.269L382.292 158.213C383.007 158.211 383.713 158.369 384.358 158.677C385.004 158.984 385.572 159.432 386.02 159.988C386.469 160.545 386.787 161.195 386.951 161.89C387.114 162.586 387.12 163.31 386.966 164.008Z" fill="url(#paint0_linear_170_15703)"/>
<path d="M181.409 45.0209L166.239 112.469C166.137 112.925 165.909 113.344 165.58 113.676C165.252 114.009 164.836 114.242 164.381 114.35C163.926 114.457 163.45 114.435 163.007 114.284C162.565 114.134 162.173 113.862 161.878 113.5L147.945 96.4562C147.737 96.2018 147.481 95.991 147.192 95.836C146.902 95.681 146.585 95.5848 146.258 95.5531C145.931 95.5213 145.601 95.5545 145.287 95.6509C144.973 95.7472 144.682 95.9048 144.429 96.1145L0 217.571V154.833L117.797 63.4845C118.304 63.0649 118.624 62.4619 118.687 61.8072C118.751 61.1524 118.553 60.4992 118.136 59.99L106.961 46.3244C106.663 45.9594 106.474 45.5173 106.417 45.0493C106.36 44.5813 106.437 44.1068 106.639 43.6808C106.841 43.2549 107.16 42.895 107.558 42.6431C107.957 42.3911 108.419 42.2574 108.89 42.2576L178.977 41.9926C179.35 41.9926 179.718 42.0762 180.054 42.2373C180.39 42.3984 180.686 42.633 180.919 42.9236C181.153 43.2142 181.318 43.5536 181.403 43.9165C181.488 44.2795 181.49 44.6569 181.409 45.0209Z" fill="url(#paint1_linear_170_15703)"/>
<path d="M132.207 384.344H214.301L281.736 328.442C281.966 328.251 282.232 328.107 282.518 328.019C282.804 327.931 283.104 327.901 283.402 327.93C283.7 327.958 283.989 328.046 284.253 328.187C284.517 328.328 284.75 328.52 284.939 328.752L303.88 351.919C304.149 352.248 304.506 352.496 304.909 352.633C305.312 352.77 305.746 352.79 306.16 352.692C306.575 352.595 306.953 352.382 307.253 352.08C307.552 351.777 307.76 351.396 307.854 350.981L322.484 285.917L327.322 264.404C327.397 264.071 327.396 263.726 327.32 263.394C327.243 263.062 327.093 262.752 326.88 262.486C326.667 262.22 326.396 262.006 326.089 261.859C325.781 261.712 325.445 261.637 325.104 261.638H323.729L235.136 261.98C234.706 261.98 234.286 262.103 233.923 262.333C233.56 262.563 233.27 262.892 233.087 263.28C232.904 263.669 232.835 264.102 232.888 264.528C232.941 264.954 233.114 265.357 233.387 265.689L248.91 284.677C249.289 285.14 249.469 285.735 249.411 286.331C249.353 286.926 249.061 287.475 248.6 287.856L132.207 384.344Z" fill="url(#paint2_linear_170_15703)"/>
<path d="M455.879 281.172C455.224 280.398 454.803 279.454 454.667 278.45C454.53 277.445 454.684 276.423 455.108 275.503C455.533 274.583 456.211 273.803 457.064 273.255C457.917 272.707 458.908 272.414 459.922 272.41L527.447 272.145L548.496 272.069H548.515C549.316 272.068 550.108 272.249 550.83 272.598C551.552 272.947 552.186 273.454 552.684 274.082C553.183 274.71 553.533 275.442 553.709 276.224C553.885 277.007 553.881 277.819 553.699 278.599L534.528 360.911C534.305 361.872 533.818 362.753 533.123 363.453C532.428 364.154 531.552 364.648 530.592 364.879C529.633 365.111 528.627 365.071 527.689 364.764C526.751 364.457 525.917 363.895 525.279 363.142L510.422 345.589C509.386 344.353 507.905 343.573 506.299 343.418C504.694 343.263 503.091 343.745 501.838 344.76L452.416 384.345H453.791L502.378 345.444C503.458 344.571 504.837 344.157 506.219 344.291C507.601 344.425 508.875 345.095 509.767 346.159L524.628 363.714C525.369 364.588 526.338 365.24 527.428 365.595C528.517 365.95 529.684 365.996 530.798 365.727C531.912 365.457 532.93 364.884 533.737 364.07C534.544 363.256 535.109 362.234 535.368 361.117L554.539 278.806C554.75 277.899 554.753 276.957 554.549 276.049C554.344 275.141 553.937 274.29 553.358 273.561C552.779 272.832 552.043 272.244 551.205 271.839C550.367 271.434 549.448 271.224 548.517 271.223H548.493L527.64 271.3L459.919 271.565C458.742 271.569 457.591 271.909 456.6 272.545C455.61 273.181 454.822 274.087 454.328 275.155C453.835 276.224 453.657 277.411 453.815 278.577C453.973 279.744 454.461 280.84 455.222 281.739L465.554 293.95C466.014 294.493 466.361 295.122 466.573 295.801C466.786 296.48 466.86 297.195 466.791 297.904C466.723 298.612 466.513 299.299 466.174 299.925C465.835 300.55 465.373 301.102 464.818 301.546L361.391 384.345H362.763L465.361 302.213C466.006 301.697 466.54 301.056 466.934 300.33C467.327 299.603 467.57 298.805 467.65 297.982C467.729 297.16 467.643 296.33 467.397 295.541C467.15 294.753 466.748 294.021 466.214 293.391L455.879 281.172Z" fill="#30262A"/>
<path d="M249.04 109.494C249.04 109.494 251.955 102.974 259.347 103.793C266.738 104.611 265.853 111.145 269.372 110.53C272.89 109.915 277.815 110.53 278.87 114.615C279.924 118.701 284.675 116.454 284.85 119.914C285.024 123.374 279.397 125.836 272.89 122.773C266.383 119.71 263.217 125.157 254.08 124.166C244.942 123.176 243.8 121.957 238.387 122.577C232.974 123.197 233.102 118.886 235.563 116.028C238.024 113.169 247.981 113.442 249.04 109.494Z" fill="#FFE4EF"/>
<path d="M229.804 17.6369C229.804 17.6369 233.601 9.15884 243.202 10.2186C252.803 11.2784 251.659 19.7882 256.232 18.9934C260.805 18.1986 267.206 18.9934 268.575 24.2922C269.945 29.591 276.121 26.6766 276.349 31.1806C276.576 35.6846 269.262 38.8797 260.805 34.8897C252.348 30.8998 248.231 37.9816 236.343 36.7019C224.455 35.4223 222.982 33.8273 215.942 34.6248C208.903 35.4223 209.078 29.8559 212.278 26.1308C215.479 22.4058 228.434 22.7688 229.804 17.6369Z" fill="#FFE4EF"/>
<path d="M515.339 160.232C515.339 160.232 508.914 147.181 492.652 148.819C476.39 150.456 478.324 163.536 470.58 162.309C462.836 161.083 451.995 162.309 449.671 170.485C447.348 178.661 436.896 174.165 436.509 181.115C436.122 188.064 448.511 192.971 462.836 186.838C477.161 180.704 484.132 191.606 504.267 189.63C524.402 187.654 526.896 185.203 538.812 186.429C550.729 187.656 550.446 179.04 545.025 173.318C539.605 167.595 517.662 168.138 515.339 160.232Z" fill="#FFE4EF"/>
<path d="M447.68 123.952C447.68 123.952 444.525 117.62 436.553 118.412C428.581 119.204 429.521 125.565 425.722 124.958C421.923 124.352 416.598 124.958 415.458 128.933C414.319 132.907 409.185 130.718 408.996 134.091C408.808 137.464 414.889 139.843 421.92 136.867C428.952 133.892 432.372 139.178 442.257 138.221C452.142 137.265 453.363 136.073 459.213 136.669C465.063 137.265 464.925 133.084 462.262 130.31C459.6 127.536 448.822 127.785 447.68 123.952Z" fill="#FFE4EF"/>
<path d="M501.163 77.2269C501.163 77.2269 497.401 69.6762 487.881 70.622C478.362 71.5678 479.493 79.1371 474.96 78.4271C470.427 77.7171 464.082 78.4271 462.72 83.1589C461.358 87.8907 455.241 85.2784 455.013 89.3108C454.785 93.3432 462.042 96.1701 470.427 92.6225C478.813 89.075 482.895 95.3779 494.682 94.236C506.47 93.0941 507.929 91.6741 514.905 92.3815C521.881 93.0888 521.717 88.108 518.543 84.7936C515.369 81.4792 502.525 81.7998 501.163 77.2269Z" fill="#FFE4EF"/>
<path d="M360.052 13.2707C360.052 13.2707 357.667 18.6119 349.157 16.8209C340.647 15.0299 329.425 21.2507 333.436 26.6634C337.447 32.0761 321.084 29.485 321.725 40.0269C322.367 50.5689 329.907 59.1026 345.305 53.4647C360.703 47.8267 368.731 20.1353 368.731 20.1353L360.052 13.2707Z" fill="#30262A"/>
<path d="M373.993 28.3298C380.129 30.2956 392.142 33.6869 392.142 33.6869C392.672 33.2126 391.548 13.1488 391.548 13.1488L398.227 13.4587C398.227 13.4587 404.655 37.9206 398.023 42.8511C391.217 47.9141 375.103 41.084 375.103 41.084C375.103 41.084 370.04 27.066 373.993 28.3298Z" fill="#EA9A81"/>
<path d="M392.946 38.4134C392.922 38.4134 392.898 38.4073 392.878 38.3957C392.857 38.3841 392.839 38.3674 392.827 38.3471C391.849 36.8794 391.992 33.8087 392 33.6789C392.003 33.641 392.02 33.6055 392.048 33.5799C392.076 33.5542 392.113 33.5404 392.151 33.5411C392.17 33.5422 392.188 33.5469 392.205 33.555C392.222 33.5632 392.237 33.5746 392.25 33.5886C392.262 33.6026 392.272 33.619 392.278 33.6368C392.285 33.6545 392.287 33.6734 392.286 33.6922C392.286 33.7239 392.14 36.7972 393.065 38.1961C393.08 38.2177 393.089 38.2431 393.091 38.2694C393.092 38.2957 393.087 38.3219 393.074 38.3452C393.062 38.3685 393.043 38.3879 393.021 38.4014C392.998 38.4148 392.972 38.4217 392.946 38.4213V38.4134Z" fill="#E47E6A"/>
<path d="M338.382 75.579C338.954 77.9184 348.588 80.2472 360.195 77.6031C371.802 74.959 379.04 73.8251 380.129 70.6114C380.129 70.6114 369.727 66.4863 358.12 69.133C346.513 71.7798 337.81 73.2396 338.382 75.579Z" fill="#30262A"/>
<path d="M380.857 44.0831C386.755 40.374 385.531 31.7926 385.531 31.7926C380.004 30.0017 374.371 28.5585 368.665 27.4714C365.4 26.87 364.108 26.6766 362.465 26.6766C341.365 26.6766 338.435 74.2862 338.355 75.1923C360.594 69.8935 380.131 70.6247 380.131 70.6247C382.171 53.6156 381.05 44.9283 380.857 44.0831Z" fill="#FF0066"/>
<path d="M377.328 43.2805C377.328 43.2805 383.628 35.8358 385.541 31.7928C380.767 29.6029 375.764 27.9518 370.625 26.8702L377.328 43.2805Z" fill="#FF0066"/>
<path d="M368.491 27.0235C368.491 27.0235 350.806 24.9676 341.66 31.1328L353.074 40.0268L368.491 27.0235Z" fill="#FF0066"/>
<path d="M352.989 39.799C351.873 41.3092 348.337 40.6839 345.091 38.4028C341.846 36.1217 340.118 33.0483 341.234 31.5382C342.349 30.028 345.883 30.6507 349.129 32.9344C352.374 35.2182 354.102 38.2889 352.989 39.799Z" fill="#30262A"/>
<path d="M326.044 76.75C330.233 66.5896 337.055 54.4951 345.915 44.2578C347.968 41.8734 348.787 41.0097 350.191 39.8016C351.322 38.8319 350.763 35.7586 348.996 33.8298C347.337 32.0203 344.132 31.2467 343.453 31.6812C342.304 32.4204 340.804 34.0656 338.486 36.662C330.381 45.7177 324.653 55.939 318.109 73.1627L326.044 76.75Z" fill="#EA9A81"/>
<path d="M316.185 75.6904C317.01 74.2377 318.006 72.8893 319.152 71.6739C319.152 71.6739 325.59 73.3086 325.776 73.9285C326.197 75.3645 326.369 78.353 326.761 79.7943C326.931 80.4196 327.352 82.555 326.737 82.7828C326.207 82.9815 325.034 81.4131 324.57 80.6077C323.068 84.5394 319.033 89.5759 321.552 81.0978H321.537C321.2 81.9297 319.187 87.2153 318.198 86.3118C317.327 85.517 318.662 81.4873 319.202 80.1096L319.163 80.091C318.487 81.4396 316.492 85.3289 315.912 84.3301C315.181 83.0636 317.011 78.9253 317.011 78.9253C317.011 78.9253 315.514 82.6954 314.489 81.3283C313.79 80.3957 315.26 77.4681 315.888 76.1779C315.966 76.0036 316.066 75.8399 316.185 75.6904Z" fill="#EA9A81"/>
<path d="M370.563 30.3855C368.134 31.493 363.863 28.7323 362.051 26.6764C362.051 26.6764 364.377 26.2551 364.761 25.4656C365.315 24.329 366.263 20.9934 366.263 20.9934V20.2357L368.245 13.3208L368.735 20.1456L368.857 21.8121V21.8969L368.984 23.6322V23.664L369.024 24.2442L369.109 25.4152C369.18 26.3664 369.472 26.6499 370.619 26.8804C370.619 26.8698 372.632 29.4344 370.563 30.3855Z" fill="#EA9A81"/>
<path d="M360.581 151.081C360.581 151.081 360.658 153.956 362.701 154.767C364.744 155.577 370.665 156.309 368.453 158.158C367.184 159.218 361.199 158.532 359.511 158.532C357.823 158.532 356.236 159.234 354.981 158.155C353.6 156.974 354.981 151.079 354.981 151.079C354.981 151.079 356.438 151.802 357.749 151.77C359.649 151.728 360.581 151.081 360.581 151.081Z" fill="#30262A"/>
<path d="M326.3 151.079C326.3 151.079 326.377 153.953 328.42 154.764C330.462 155.575 336.384 156.309 334.172 158.155C332.903 159.215 326.92 158.532 325.23 158.532C323.54 158.532 321.955 159.231 320.699 158.155C319.319 156.971 320.699 151.079 320.699 151.079C320.699 151.079 322.159 151.802 323.468 151.77C325.352 151.728 326.3 151.079 326.3 151.079Z" fill="#30262A"/>
<path d="M374.116 72.246C374.567 72.2536 374.997 72.4398 375.31 72.7636C375.624 73.0874 375.797 73.5224 375.791 73.9734C375.743 78.0243 375.29 89.3239 372.129 107.401C369.215 124.065 365.771 140.857 364.091 148.909C363.779 150.324 363.003 151.595 361.887 152.519C360.77 153.443 359.377 153.967 357.928 154.009L356.307 154.072C353.048 154.197 350.401 151.529 350.64 148.36L354.733 93.8942C354.733 93.8942 347.943 74.9828 352.497 73.8197C358.938 72.1665 369.943 72.1665 374.116 72.246Z" fill="#A74C3B"/>
<path d="M368.426 72.2142L331.441 149.966C330.015 153.145 315.648 154.918 319.084 146.485L339.601 76.6705C339.908 75.8253 347.793 74.4927 348.609 74.2569C353.07 72.9825 368.426 72.2142 368.426 72.2142Z" fill="#A74C3B"/>
<path d="M354.093 102.534C354.07 102.533 354.046 102.529 354.024 102.521C353.979 102.502 353.942 102.467 353.922 102.422C353.902 102.377 353.901 102.326 353.918 102.28L358.867 89.5625C360.666 85.0373 363.146 82.4091 364.911 81.0155C366.834 79.4895 368.313 79.0444 368.373 79.0259C368.397 79.0189 368.422 79.0166 368.446 79.0192C368.47 79.0217 368.494 79.0291 368.515 79.0408C368.537 79.0524 368.556 79.0683 368.571 79.0873C368.587 79.1063 368.598 79.1282 368.605 79.1517C368.612 79.1752 368.615 79.1998 368.612 79.2242C368.609 79.2485 368.602 79.2721 368.59 79.2937C368.579 79.3152 368.563 79.3342 368.544 79.3496C368.525 79.365 368.503 79.3766 368.479 79.3835C368.421 79.3994 362.587 81.2116 359.207 89.7003L354.258 102.417C354.245 102.451 354.222 102.48 354.193 102.5C354.164 102.521 354.129 102.533 354.093 102.534Z" fill="#020202"/>
<path d="M379.292 17.7957L395.74 15.0192C396.142 14.9498 396.501 14.7239 396.737 14.3907C396.974 14.0575 397.068 13.6443 397.001 13.2414L396.701 11.461C396.634 11.0584 396.409 10.6991 396.077 10.4621C395.745 10.2251 395.332 10.1298 394.929 10.1973L378.484 12.9739C378.081 13.0426 377.722 13.2683 377.485 13.6015C377.248 13.9348 377.153 14.3483 377.22 14.7516L377.52 16.532C377.587 16.9346 377.812 17.2939 378.144 17.5309C378.477 17.7679 378.89 17.8632 379.292 17.7957Z" fill="#A74C3B"/>
<path d="M389.788 17.7588L405.66 15.0802C406.187 14.9895 406.657 14.6938 406.966 14.2579C407.275 13.8219 407.399 13.2812 407.311 12.7541L406.641 8.77997C406.597 8.51905 406.503 8.26926 406.363 8.04488C406.223 7.82051 406.04 7.62596 405.825 7.4724C405.609 7.31883 405.366 7.20925 405.108 7.14994C404.85 7.09062 404.583 7.08275 404.322 7.12675L388.453 9.80793C388.192 9.8519 387.942 9.94691 387.717 10.0875C387.493 10.2281 387.299 10.4116 387.145 10.6274C386.992 10.8432 386.883 11.0871 386.824 11.3452C386.765 11.6033 386.758 11.8705 386.802 12.1314L387.47 16.1055C387.558 16.6322 387.852 17.1022 388.286 17.4122C388.721 17.7222 389.261 17.8469 389.788 17.7588Z" fill="#FF0066"/>
<path d="M402.906 16.6858L428.075 12.4467C428.289 12.4105 428.494 12.3324 428.677 12.2171C428.861 12.1017 429.02 11.9512 429.146 11.7743C429.271 11.5974 429.361 11.3975 429.409 11.186C429.457 10.9745 429.463 10.7556 429.426 10.5418L428.269 3.62691C428.196 3.19491 427.955 2.80941 427.598 2.55507C427.242 2.30074 426.799 2.19836 426.366 2.27042L401.197 6.50945C400.765 6.5827 400.38 6.8245 400.126 7.18169C399.872 7.53889 399.77 7.98225 399.843 8.41436L401.006 15.3266C401.042 15.5407 401.119 15.7456 401.234 15.9298C401.348 16.114 401.498 16.2737 401.674 16.4C401.851 16.5262 402.051 16.6164 402.262 16.6655C402.473 16.7145 402.692 16.7214 402.906 16.6858Z" fill="#A74C3B"/>
<path d="M429.607 12.9766L430.855 12.7673C431.186 12.7102 431.481 12.5244 431.676 12.2503C431.871 11.9763 431.949 11.6363 431.893 11.3048L430.304 1.90741C430.277 1.74321 430.218 1.58595 430.13 1.44467C430.042 1.30339 429.927 1.18087 429.792 1.08413C429.656 0.987387 429.503 0.918327 429.341 0.880929C429.179 0.843531 429.011 0.838529 428.847 0.866198L427.599 1.07815C427.268 1.13456 426.973 1.31987 426.778 1.59349C426.583 1.86711 426.505 2.20674 426.56 2.53796L428.15 11.938C428.177 12.1021 428.236 12.2593 428.324 12.4004C428.412 12.5416 428.527 12.664 428.662 12.7605C428.798 12.857 428.951 12.9258 429.113 12.9629C429.275 13 429.443 13.0046 429.607 12.9766Z" fill="#FF0066"/>
<path d="M394.814 7.16113C394.814 7.16113 396.515 6.43784 397.162 7.99833C397.985 9.98272 397.111 13.2494 396.571 11.9989C396.26 11.2355 396.03 10.4416 395.885 9.63035C395.885 9.63035 396.499 13.5833 395.53 13.4163C394.56 13.2494 394.033 10.0304 394.033 10.0304C394.033 10.0304 394.298 13.8085 393.423 13.3528C392.549 12.8971 392.152 10.6477 392.152 10.6477C392.152 10.6477 392.541 13.6998 391.547 13.1487C390.554 12.5977 390.753 10.3351 390.602 9.36012C390.469 8.44078 391.018 8.05661 391.926 7.99037C391.926 7.99037 392.779 7.40751 393.376 7.51348C393.603 7.55323 393.792 7.31479 393.948 7.2724C394.233 7.21412 394.523 7.17694 394.814 7.16113Z" fill="#EA9A81"/>
<path d="M368.98 23.6216C367.459 23.0918 366.262 21.4094 366.262 21.4094H366.476L368.861 21.8863L368.98 23.6216Z" fill="#30262A"/>
<path d="M360.051 13.2707C360.051 13.2707 360.491 14.3305 360.159 16.7149C359.675 20.1591 363.869 21.0281 364.753 19.9419C364.862 19.8068 363.853 14.1742 363.853 14.1742L362.47 13.6204L360.051 13.2707Z" fill="#30262A"/>
<path d="M375.385 13.4585C374.741 9.13203 371.233 6.02165 367.55 6.51444C363.868 7.00723 361.404 10.9124 362.048 15.2389C362.691 19.5653 366.199 22.6757 369.882 22.1829C373.564 21.6902 376.028 17.7849 375.385 13.4585Z" fill="#EA9A81"/>
<path d="M370.463 7.98224C370.312 8.24718 371.962 12.1391 364.263 14.1474C356.564 16.1556 359.926 6.46414 365.683 5.49181C373.994 4.07968 376.016 9.26721 375.486 11.2993C374.956 13.3314 370.463 7.98224 370.463 7.98224Z" fill="#30262A"/>
<path d="M364.929 12.7486C364.929 12.7486 362.203 16.3942 363.803 19.5337C363.803 19.5337 361.657 17.8487 361.509 17.1307C361.36 16.4127 361.466 13.7421 361.466 13.7421L364.929 12.7486Z" fill="#30262A"/>
<path d="M363.112 16.3015C363.971 16.887 365.036 16.8181 365.497 16.1451C365.958 15.4722 365.632 14.4495 364.774 13.864C363.915 13.2785 362.85 13.35 362.389 14.023C361.928 14.6959 362.254 15.7159 363.112 16.3015Z" fill="#EA9A81"/>
<path d="M369.368 14.3381C369.389 14.3298 369.408 14.3165 369.423 14.2995C369.438 14.2825 369.449 14.2621 369.455 14.2401C369.46 14.2211 369.461 14.2014 369.458 14.1821C369.454 14.1628 369.447 14.1443 369.437 14.1277C369.427 14.1112 369.413 14.0969 369.397 14.0857C369.381 14.0745 369.363 14.0666 369.344 14.0626C368.996 13.9584 368.624 13.968 368.282 14.09C367.939 14.212 367.645 14.44 367.442 14.7408C367.43 14.7565 367.422 14.7743 367.418 14.7932C367.413 14.8121 367.413 14.8317 367.416 14.8508C367.42 14.8699 367.427 14.888 367.438 14.9042C367.449 14.9204 367.462 14.9342 367.479 14.9448C367.512 14.9649 367.552 14.9725 367.591 14.9662C367.63 14.9599 367.665 14.9402 367.691 14.9104C368.147 14.5573 368.704 14.3596 369.28 14.3461C369.31 14.352 369.34 14.3492 369.368 14.3381Z" fill="#080435"/>
<path d="M374.228 14.0522C374.251 14.0524 374.274 14.0473 374.295 14.0372C374.316 14.0271 374.335 14.0123 374.349 13.994C374.361 13.9786 374.37 13.9609 374.375 13.9421C374.38 13.9232 374.38 13.9036 374.377 13.8844C374.374 13.8652 374.367 13.8469 374.356 13.8307C374.345 13.8144 374.331 13.8005 374.315 13.79C374.027 13.5649 373.676 13.4374 373.311 13.426C372.946 13.4145 372.587 13.5198 372.286 13.7264C372.269 13.7361 372.254 13.7492 372.243 13.7648C372.231 13.7803 372.223 13.798 372.219 13.8168C372.214 13.8357 372.214 13.8552 372.217 13.8742C372.22 13.8933 372.227 13.9115 372.238 13.9277C372.262 13.9582 372.296 13.9795 372.334 13.9882C372.372 13.9968 372.412 13.9923 372.447 13.9754C373.001 13.815 373.591 13.8317 374.135 14.0231C374.162 14.0426 374.194 14.0528 374.228 14.0522Z" fill="#080435"/>
<path d="M372.808 15.6258C372.748 15.7585 372.742 15.9095 372.791 16.0466C372.841 16.1837 372.942 16.296 373.073 16.3597C373.221 16.3763 373.37 16.3364 373.489 16.248C373.609 16.1596 373.691 16.0291 373.719 15.8828C373.778 15.7484 373.783 15.5961 373.731 15.4588C373.678 15.3215 373.574 15.2101 373.441 15.1489C373.295 15.1363 373.15 15.1781 373.033 15.2661C372.916 15.3541 372.836 15.4822 372.808 15.6258Z" fill="#080435"/>
<path d="M372.834 17.8885C372.834 17.8885 372.569 19.9842 370.934 20.0955C369.18 20.212 368.77 18.384 368.77 18.384C368.77 18.384 371.122 18.837 372.834 17.8885Z" fill="white"/>
<path d="M367.534 16.3889C367.52 16.389 367.507 16.3857 367.496 16.3791C367.484 16.3726 367.474 16.3632 367.468 16.3519C367.462 16.343 367.459 16.3332 367.458 16.3231C367.456 16.3129 367.457 16.3026 367.46 16.2927C367.462 16.2828 367.467 16.2736 367.473 16.2656C367.48 16.2575 367.488 16.2508 367.497 16.2459C368.09 15.9065 368.789 15.7989 369.457 15.9438C369.467 15.9463 369.476 15.9507 369.484 15.9567C369.492 15.9627 369.498 15.9703 369.503 15.9789C369.508 15.9876 369.512 15.9972 369.513 16.0071C369.514 16.017 369.513 16.027 369.51 16.0366C369.505 16.0562 369.493 16.0731 369.475 16.0835C369.458 16.0939 369.437 16.097 369.417 16.0922C368.785 15.9599 368.126 16.0615 367.563 16.3783C367.554 16.3839 367.544 16.3875 367.534 16.3889Z" fill="#020202"/>
<path d="M310.535 384.345H392.642L489.022 304.436C489.252 304.245 489.518 304.102 489.804 304.014C490.09 303.926 490.39 303.896 490.688 303.925C490.986 303.954 491.275 304.041 491.539 304.182C491.803 304.323 492.036 304.515 492.225 304.746L511.166 327.913C511.434 328.243 511.791 328.492 512.194 328.629C512.597 328.767 513.031 328.788 513.446 328.691C513.861 328.593 514.24 328.381 514.539 328.078C514.839 327.775 515.047 327.393 515.14 326.977L527.467 272.159L527.658 271.3L534.608 240.4C534.683 240.068 534.682 239.722 534.606 239.39C534.529 239.058 534.378 238.747 534.165 238.481C533.952 238.215 533.681 238 533.373 237.853C533.065 237.706 532.728 237.631 532.387 237.632L442.422 237.982C441.992 237.982 441.572 238.104 441.209 238.335C440.846 238.565 440.556 238.894 440.373 239.282C440.19 239.671 440.121 240.104 440.174 240.53C440.227 240.956 440.4 241.359 440.673 241.691L456.193 260.676C456.573 261.139 456.754 261.733 456.697 262.329C456.639 262.925 456.348 263.474 455.886 263.856L310.535 384.345Z" fill="url(#paint3_linear_170_15703)"/>
<defs>
<linearGradient id="paint0_linear_170_15703" x1="380" y1="158" x2="87.5" y2="367.5" gradientUnits="userSpaceOnUse">
<stop stop-color="#FF0066"/>
<stop offset="1" stop-color="#FF0066" stop-opacity="0"/>
</linearGradient>
<linearGradient id="paint1_linear_170_15703" x1="181" y1="42" x2="13.5" y2="171" gradientUnits="userSpaceOnUse">
<stop stop-color="#FF9DB2"/>
<stop offset="1" stop-color="#FF9DB2" stop-opacity="0"/>
</linearGradient>
<linearGradient id="paint2_linear_170_15703" x1="327" y1="251" x2="136.5" y2="393" gradientUnits="userSpaceOnUse">
<stop stop-color="#FFE4EF"/>
<stop offset="1" stop-color="#FFE4EF" stop-opacity="0"/>
</linearGradient>
<linearGradient id="paint3_linear_170_15703" x1="529" y1="238" x2="358.5" y2="367" gradientUnits="userSpaceOnUse">
<stop stop-color="#FF9DB2"/>
<stop offset="1" stop-color="#FF9DB2" stop-opacity="0"/>
</linearGradient>
</defs>
</svg>
