<svg width="463" height="288" viewBox="0 0 463 288" fill="none" xmlns="http://www.w3.org/2000/svg">
<path d="M383.256 189.727C383.256 102.356 312.437 31.5659 225.095 31.5659C137.753 31.5659 66.9338 102.385 66.9338 189.727C66.8728 224.959 78.6241 259.195 100.31 286.963H349.822C371.531 259.205 383.304 224.967 383.256 189.727Z" fill="#E6F5FA"/>
<path d="M441.63 223.184H400.758C400.042 223.184 399.356 222.899 398.849 222.393C398.343 221.887 398.059 221.2 398.059 220.484C398.059 219.768 398.343 219.081 398.849 218.575C399.356 218.069 400.042 217.784 400.758 217.784H441.63C442.346 217.784 443.033 218.069 443.539 218.575C444.045 219.081 444.33 219.768 444.33 220.484C444.33 221.2 444.045 221.887 443.539 222.393C443.033 222.899 442.346 223.184 441.63 223.184Z" fill="#E6F5FA"/>
<path d="M48.4519 194.803H3.57822C3.22307 194.804 2.87121 194.735 2.54281 194.6C2.21441 194.464 1.91592 194.266 1.66444 194.015C1.41296 193.764 1.21344 193.466 1.0773 193.138C0.941167 192.81 0.871092 192.458 0.871094 192.103C0.871092 191.748 0.941167 191.396 1.0773 191.068C1.21344 190.74 1.41296 190.442 1.66444 190.192C1.91592 189.941 2.21441 189.742 2.54281 189.607C2.87121 189.472 3.22307 189.403 3.57822 189.404H48.4519C49.1679 189.404 49.8546 189.688 50.3609 190.194C50.8672 190.701 51.1516 191.387 51.1516 192.103C51.1516 192.819 50.8672 193.506 50.3609 194.012C49.8546 194.519 49.1679 194.803 48.4519 194.803Z" fill="#E6F5FA"/>
<path d="M450.373 248.166H446.085C444.959 248.166 444.047 249.078 444.047 250.204V254.228C444.047 255.353 444.959 256.265 446.085 256.265H450.373C451.499 256.265 452.411 255.353 452.411 254.228V250.204C452.411 249.078 451.499 248.166 450.373 248.166Z" fill="#90D3ED"/>
<path d="M37.0043 225.266H31.3326C29.8415 225.266 28.6328 226.474 28.6328 227.965V233.291C28.6328 234.782 29.8415 235.991 31.3326 235.991H37.0043C38.4954 235.991 39.7041 234.782 39.7041 233.291V227.965C39.7041 226.474 38.4954 225.266 37.0043 225.266Z" fill="#90D3ED"/>
<path d="M307.013 12.5058H326.441C326.68 12.5077 326.916 12.5566 327.136 12.6497C327.355 12.7428 327.554 12.8783 327.722 13.0484C327.889 13.2185 328.021 13.4199 328.111 13.6411C328.201 13.8622 328.246 14.0989 328.244 14.3375V23.864C328.246 24.1022 328.2 24.3385 328.111 24.5593C328.021 24.7801 327.889 24.981 327.721 25.1505C327.554 25.32 327.355 25.4548 327.135 25.5471C326.915 25.6394 326.68 25.6874 326.441 25.6883H316.422L310.471 30.7936V25.9605L306.976 25.8575C306.502 25.8441 306.052 25.6457 305.722 25.3049C305.392 24.964 305.209 24.5076 305.211 24.0332V14.3375C305.209 13.8562 305.397 13.3936 305.735 13.0505C306.072 12.7074 306.532 12.5116 307.013 12.5058V12.5058Z" stroke="white" stroke-width="1.29" stroke-linecap="round" stroke-linejoin="round"/>
<path d="M435.691 100.738C435.674 101.898 435.314 103.027 434.657 103.983C434 104.939 433.075 105.68 431.998 106.111C430.921 106.543 429.741 106.647 428.605 106.41C427.469 106.173 426.429 105.606 425.615 104.78C424.8 103.953 424.249 102.905 424.029 101.765C423.809 100.626 423.93 99.4476 424.378 98.3774C424.826 97.3072 425.58 96.3932 426.546 95.7504C427.512 95.1075 428.646 94.7645 429.806 94.7643C430.585 94.7692 431.355 94.9276 432.073 95.2306C432.791 95.5335 433.441 95.9751 433.988 96.53C434.535 97.0849 434.967 97.7421 435.259 98.4642C435.551 99.1862 435.698 99.9588 435.691 100.738V100.738Z" stroke="white" stroke-width="1.26" stroke-miterlimit="10"/>
<path d="M13.2421 150.481C13.2247 151.641 12.8648 152.77 12.2077 153.726C11.5505 154.682 10.6255 155.423 9.54869 155.855C8.47192 156.287 7.2915 156.391 6.15579 156.154C5.02007 155.917 3.97973 155.35 3.16549 154.523C2.35126 153.697 1.79946 152.648 1.57945 151.509C1.35944 150.37 1.48102 149.191 1.92893 148.121C2.37683 147.051 3.13107 146.137 4.09686 145.494C5.06264 144.851 6.1969 144.508 7.35706 144.508C8.13598 144.513 8.9063 144.671 9.6239 144.974C10.3415 145.277 10.9923 145.719 11.5389 146.273C12.0856 146.828 12.5175 147.486 12.8097 148.208C13.102 148.93 13.2489 149.702 13.2421 150.481V150.481Z" stroke="white" stroke-width="1.26" stroke-miterlimit="10"/>
<path d="M173.361 21.5908C173.411 21.647 173.477 21.6867 173.551 21.7049C173.624 21.723 173.701 21.7187 173.771 21.6925C173.842 21.6663 173.903 21.6194 173.947 21.558C173.99 21.4966 174.014 21.4234 174.016 21.3481V14.1757V2.57472C174.016 1.89313 173.746 1.23936 173.264 0.756714C172.783 0.274072 172.13 0.00194738 171.449 0H140.177C139.495 0.00194738 138.842 0.274072 138.361 0.756714C137.88 1.23936 137.609 1.89313 137.609 2.57472V15.1614C137.609 15.843 137.88 16.4968 138.361 16.9794C138.842 17.4621 139.495 17.7342 140.177 17.7361H170.058L173.361 21.5908Z" fill="#0083C8"/>
<path d="M149.92 8.96732C149.923 9.27607 149.834 9.57873 149.665 9.83696C149.495 10.0952 149.253 10.2974 148.969 10.4179C148.685 10.5384 148.371 10.5718 148.068 10.5139C147.765 10.456 147.485 10.3093 147.265 10.0926C147.046 9.8758 146.895 9.59865 146.833 9.29622C146.771 8.99379 146.8 8.67971 146.916 8.39376C147.032 8.10781 147.231 7.86286 147.487 7.68995C147.743 7.51705 148.044 7.42396 148.353 7.42249C148.557 7.42055 148.76 7.45903 148.95 7.5357C149.139 7.61238 149.312 7.72574 149.457 7.86929C149.603 8.01284 149.719 8.18374 149.798 8.37217C149.877 8.56061 149.919 8.76286 149.92 8.96732Z" fill="white"/>
<path d="M156.59 8.94527C156.599 9.25814 156.514 9.56648 156.346 9.83052C156.178 10.0946 155.934 10.3022 155.647 10.4267C155.36 10.5512 155.042 10.5869 154.735 10.5291C154.427 10.4713 154.144 10.3227 153.921 10.1024C153.699 9.88216 153.548 9.60035 153.487 9.2933C153.426 8.98626 153.459 8.66805 153.58 8.3797C153.702 8.09135 153.907 7.84606 154.17 7.67546C154.432 7.50485 154.74 7.41675 155.053 7.42251C155.456 7.42992 155.84 7.59228 156.127 7.87586C156.413 8.15944 156.579 8.54244 156.59 8.94527Z" fill="white"/>
<path d="M163.314 8.89393C163.321 9.20321 163.236 9.50767 163.07 9.76858C162.904 10.0295 162.664 10.2351 162.38 10.3592C162.097 10.4833 161.783 10.5203 161.479 10.4655C161.174 10.4108 160.893 10.2667 160.671 10.0516C160.448 9.83649 160.295 9.56013 160.23 9.25764C160.165 8.95515 160.192 8.6402 160.306 8.35285C160.421 8.0655 160.618 7.81873 160.874 7.64392C161.129 7.46911 161.43 7.37417 161.74 7.37117C162.15 7.36719 162.545 7.52472 162.839 7.80969C163.134 8.09466 163.304 8.48416 163.314 8.89393Z" fill="white"/>
<path d="M377.956 5.99536H416.054C417.346 5.99536 418.585 6.50844 419.498 7.42172C420.411 8.335 420.924 9.57368 420.924 10.8653V46.4111C420.924 47.7026 420.411 48.9413 419.498 49.8546C418.585 50.7679 417.346 51.281 416.054 51.281H379.515C377.81 51.281 376.175 50.6036 374.969 49.3978C373.763 48.1921 373.086 46.5567 373.086 44.8515V10.8653C373.086 10.2257 373.212 9.59247 373.457 9.00163C373.701 8.41078 374.06 7.87393 374.512 7.42172C374.965 6.96951 375.501 6.6108 376.092 6.36606C376.683 6.12132 377.316 5.99536 377.956 5.99536Z" fill="#0083C8"/>
<path d="M407.93 32.3311L405.09 29.4916C404.863 29.2286 404.584 29.0161 404.269 28.8679C403.955 28.7196 403.613 28.6389 403.266 28.6309C402.575 28.6492 401.919 28.9401 401.442 29.4401L399.816 31.0658L399.514 30.9113C399.338 30.8428 399.168 30.7591 399.007 30.6612C397.402 29.6167 395.98 28.3142 394.799 26.8065C394.266 26.175 393.821 25.4748 393.475 24.7246C393.887 24.3715 394.21 23.989 394.593 23.6138L395.049 23.1577C395.32 22.925 395.537 22.6366 395.686 22.3122C395.835 21.9878 395.912 21.6351 395.912 21.2782C395.912 20.9213 395.835 20.5686 395.686 20.2442C395.537 19.9198 395.32 19.6314 395.049 19.3987L393.629 17.9789C393.465 17.8241 393.312 17.6568 393.173 17.4787C392.872 17.1697 392.511 16.8166 392.21 16.515C391.732 16.0143 391.077 15.7211 390.385 15.6984C390.041 15.7022 389.702 15.7767 389.388 15.9171C389.074 16.0576 388.793 16.2611 388.561 16.515L386.781 18.2879C386.119 18.9584 385.708 19.8365 385.618 20.7743C385.561 22.0911 385.784 23.4051 386.273 24.629C387.17 27.0621 388.512 29.3072 390.231 31.2497C392.454 33.905 395.211 36.063 398.323 37.5835C399.751 38.3104 401.298 38.7739 402.891 38.9518H403.244C403.815 38.9604 404.381 38.8474 404.905 38.6204C405.429 38.3934 405.898 38.0575 406.282 37.635L406.334 37.5835C406.615 37.2577 406.92 36.9529 407.246 36.6713L407.908 36.0166C408.159 35.7804 408.359 35.4957 408.497 35.1797C408.634 34.8638 408.706 34.5232 408.709 34.1786C408.711 33.834 408.643 33.4925 408.509 33.175C408.375 32.8574 408.178 32.5703 407.93 32.3311ZM406.76 34.972L406.157 35.5752C405.797 35.8842 405.495 36.2373 405.142 36.5904C404.907 36.8343 404.622 37.0258 404.308 37.1526C403.994 37.2793 403.656 37.3384 403.318 37.326H403.06C401.677 37.1836 400.335 36.7712 399.11 36.1123C396.207 34.6983 393.631 32.6939 391.547 30.2272C389.996 28.3958 388.754 26.3235 387.869 24.092C387.401 23.1117 387.19 22.0279 387.259 20.9435C387.301 20.3753 387.565 19.8466 387.994 19.4722L389.672 17.7214C389.861 17.5115 390.125 17.3847 390.407 17.3683C390.548 17.3687 390.688 17.4007 390.815 17.4618C390.942 17.5228 391.054 17.6116 391.143 17.7214C391.452 18.023 391.753 18.332 392.055 18.6336C392.213 18.8137 392.383 18.9832 392.563 19.1412L393.982 20.561C394.186 20.7559 394.313 21.0165 394.343 21.2966C394.335 21.437 394.299 21.5744 394.237 21.7007C394.175 21.827 394.088 21.9397 393.982 22.0322L393.526 22.4883L392.261 23.7536L392.21 23.8051C392.031 23.958 391.906 24.1637 391.852 24.3923C391.797 24.621 391.817 24.861 391.908 25.0778C392.337 26.0618 392.899 26.9826 393.578 27.8143C394.873 29.4645 396.434 30.8867 398.198 32.0221C398.405 32.1595 398.624 32.2777 398.852 32.3752C399.027 32.4505 399.196 32.5365 399.36 32.6327L399.411 32.6842C399.64 32.8034 399.902 32.8435 400.156 32.7983C400.411 32.753 400.643 32.625 400.816 32.4341L402.589 30.6612C402.682 30.5563 402.795 30.4711 402.922 30.4104C403.048 30.3498 403.185 30.315 403.325 30.3081C403.58 30.3401 403.813 30.466 403.98 30.6612L406.819 33.5008C406.923 33.5954 407.004 33.7115 407.058 33.8409C407.112 33.9703 407.137 34.11 407.131 34.25C407.126 34.3901 407.09 34.5273 407.026 34.652C406.962 34.7767 406.871 34.8859 406.76 34.972Z" fill="white"/>
<path d="M20.7982 35.634H63.465C64.9126 35.634 66.301 36.2091 67.3247 37.2328C68.3483 38.2564 68.9234 39.6448 68.9234 41.0924V80.9123C68.9234 82.3599 68.3483 83.7483 67.3247 84.7719C66.301 85.7956 64.9126 86.3707 63.465 86.3707H22.5417C20.6316 86.3707 18.7998 85.6119 17.4492 84.2613C16.0986 82.9107 15.3398 81.0789 15.3398 79.1688V41.0924C15.3398 39.6448 15.9149 38.2564 16.9386 37.2328C17.9622 36.2091 19.3506 35.634 20.7982 35.634Z" fill="#FFBF00"/>
<path d="M31.945 50.5086C29.9268 52.5272 28.5525 55.0989 27.9958 57.8986C27.4392 60.6983 27.7252 63.6001 28.8177 66.2372C29.9102 68.8744 31.7602 71.1283 34.1336 72.7141C36.5071 74.2999 39.2974 75.1463 42.1519 75.1463C45.0063 75.1463 47.7967 74.2999 50.1702 72.7141C52.5436 71.1283 54.3935 68.8744 55.486 66.2372C56.5786 63.6001 56.8646 60.6983 56.3079 57.8986C55.7513 55.0989 54.377 52.5272 52.3588 50.5086C49.6444 47.8155 45.9756 46.3043 42.1519 46.3043C38.3282 46.3043 34.6594 47.8155 31.945 50.5086ZM52.322 52.5904H47.717C47.2384 51.0981 46.6407 49.6466 45.9294 48.2502C48.4503 49.0168 50.6794 50.5302 52.322 52.5904ZM36.8737 59.8732C36.8726 57.9862 37.1024 56.1062 37.5579 54.275H46.7901C47.2455 56.1062 47.4753 57.9862 47.4742 59.8732H36.8737ZM47.4153 61.5578C47.2813 63.4535 46.9485 65.3298 46.4222 67.1559H37.8962C37.3759 65.3288 37.0455 63.4528 36.9105 61.5578H47.4153ZM42.1703 47.6911C42.8551 47.6926 43.5388 47.7467 44.2153 47.8529C45.0641 49.3604 45.7638 50.9471 46.3045 52.5904H38.0213C38.562 50.9471 39.2617 49.3604 40.1105 47.8529C40.7846 47.747 41.4658 47.6929 42.1482 47.6911H42.1703ZM38.3891 48.2502C37.6778 49.6466 37.08 51.0981 36.6015 52.5904H32.0038C33.6387 50.535 35.8568 49.0221 38.3671 48.2502H38.3891ZM30.8562 54.275H36.1234C35.6656 56.1069 35.4188 57.9852 35.3877 59.8732H29.179C29.2963 57.9053 29.8625 55.9903 30.8342 54.275H30.8562ZM30.8562 67.1559C29.8768 65.4425 29.3031 63.5275 29.179 61.5578H35.4098C35.5058 63.4497 35.8017 65.3262 36.2926 67.1559H30.8562ZM32.0038 68.8405H36.7854C37.2793 70.35 37.8741 71.8246 38.5657 73.2543C35.9652 72.504 33.6637 70.961 31.9818 68.8405H32.0038ZM42.1703 73.7399C41.602 73.7404 41.0344 73.7036 40.471 73.6295C39.6882 72.0812 39.0122 70.4812 38.448 68.8405H45.8779C45.3104 70.4799 44.6346 72.0798 43.8549 73.6295C43.289 73.7036 42.7189 73.7405 42.1482 73.7399H42.1703ZM45.7822 73.2323C46.4739 71.8026 47.0686 70.328 47.5625 68.8185H52.3441C50.6622 70.939 48.3606 72.4819 45.7602 73.2323H45.7822ZM53.4917 67.1559H48.0553C48.5462 65.3262 48.8421 63.4497 48.9381 61.5578H55.1689C55.0381 63.5292 54.4567 65.4444 53.4696 67.1559H53.4917ZM55.1689 59.8732H48.9602C48.9291 57.9852 48.6823 56.1069 48.2245 54.275H53.4917C54.4634 55.9903 55.0295 57.9053 55.1469 59.8732H55.1689Z" fill="white"/>
<path d="M416.638 140.344H457.326C458.706 140.344 460.029 140.892 461.004 141.867C461.979 142.843 462.527 144.166 462.527 145.545V183.489C462.527 184.868 461.979 186.191 461.004 187.167C460.029 188.142 458.706 188.69 457.326 188.69H418.301C417.4 188.69 416.507 188.512 415.674 188.168C414.842 187.823 414.085 187.317 413.448 186.68C412.81 186.042 412.305 185.286 411.96 184.453C411.615 183.62 411.438 182.728 411.438 181.827V145.545C411.438 144.166 411.985 142.843 412.961 141.867C413.936 140.892 415.259 140.344 416.638 140.344Z" fill="#6FC7BF"/>
<path d="M442.964 160.567C442.964 159.339 442.6 158.138 441.918 157.117C441.236 156.096 440.266 155.301 439.132 154.831C437.997 154.361 436.749 154.238 435.544 154.477C434.34 154.717 433.234 155.308 432.365 156.177C431.497 157.045 430.906 158.151 430.666 159.356C430.427 160.56 430.55 161.808 431.019 162.943C431.489 164.077 432.285 165.047 433.306 165.729C434.327 166.411 435.528 166.776 436.756 166.776C437.571 166.776 438.379 166.617 439.133 166.305C439.887 165.993 440.571 165.536 441.148 164.959C441.725 164.382 442.182 163.698 442.494 162.944C442.805 162.19 442.965 161.382 442.964 160.567ZM432.106 160.567C432.106 159.645 432.38 158.745 432.892 157.979C433.404 157.213 434.131 156.616 434.983 156.264C435.834 155.912 436.771 155.82 437.674 156C438.578 156.181 439.407 156.625 440.058 157.277C440.709 157.929 441.152 158.759 441.331 159.663C441.51 160.567 441.417 161.503 441.063 162.354C440.709 163.205 440.111 163.931 439.345 164.442C438.578 164.953 437.677 165.225 436.756 165.223C436.144 165.223 435.539 165.103 434.975 164.869C434.41 164.635 433.897 164.292 433.466 163.859C433.034 163.427 432.691 162.913 432.458 162.348C432.225 161.783 432.105 161.178 432.106 160.567Z" fill="white"/>
<path d="M436.129 178.862C436.252 179.027 436.435 179.137 436.638 179.169C436.842 179.2 437.05 179.151 437.217 179.031C437.281 178.982 437.338 178.925 437.387 178.862C437.445 178.781 437.74 178.376 438.188 177.736L442.771 170.652C444.897 167.025 446.839 163.038 446.839 160.567C446.769 157.94 445.675 155.445 443.792 153.612C441.909 151.779 439.385 150.753 436.758 150.753C434.13 150.753 431.606 151.779 429.723 153.612C427.84 155.445 426.747 157.94 426.676 160.567C426.676 162.965 428.507 166.797 430.567 170.343L435.327 177.699C435.776 178.376 436.07 178.781 436.129 178.862ZM436.754 152.041C437.874 152.04 438.984 152.259 440.019 152.687C441.054 153.116 441.995 153.743 442.787 154.535C443.58 155.327 444.209 156.267 444.638 157.302C445.067 158.337 445.287 159.446 445.287 160.567C445.287 164.282 439.616 173.072 436.754 177.074C433.9 173.043 428.228 164.282 428.228 160.567C428.228 158.305 429.126 156.137 430.725 154.538C432.324 152.939 434.493 152.041 436.754 152.041Z" fill="white"/>
<path d="M76.7901 148.311L73.6562 155.837C73.6562 155.837 91.694 168.754 106.62 176.177C111.328 178.516 116.794 174.706 116.507 169.416V169.255C116.429 167.864 115.938 166.528 115.095 165.419C114.252 164.31 113.096 163.478 111.777 163.031C96.505 157.86 93.5184 155.8 76.7901 148.311Z" fill="#D97F48"/>
<path d="M76.0404 156.506C76.0404 156.506 60.4376 163.384 54.707 153.409L78.365 147.524L76.0404 156.506Z" fill="#D97F48"/>
<path d="M124.667 121.519C117.208 134.29 108.211 152.578 103.267 166.518C101.995 170.115 103.267 174.139 106.776 175.721L106.901 175.78C108.533 176.533 110.388 176.645 112.098 176.091C113.808 175.538 115.246 174.36 116.126 172.793C127.403 152.445 137.46 136.585 137.46 136.585L124.667 121.519Z" fill="#D97F48"/>
<path d="M124.957 117.996C124.957 117.996 113.746 120.372 104.359 148.046L125.465 160.552L133.24 145.104L124.957 117.996Z" fill="#6FC7BF"/>
<path d="M114.607 153.6H90.25V149.701H114.607C115.124 149.701 115.62 149.907 115.985 150.272C116.351 150.638 116.556 151.134 116.556 151.651C116.556 152.168 116.351 152.664 115.985 153.029C115.62 153.395 115.124 153.6 114.607 153.6Z" fill="#08101C"/>
<path d="M99.946 153.585H44.4498C43.8166 153.589 43.199 153.389 42.6887 153.014C42.1785 152.639 41.8029 152.109 41.6176 151.504L31.7822 118.636C31.6843 118.32 31.6619 117.985 31.7169 117.659C31.7719 117.333 31.9027 117.024 32.0989 116.758C32.295 116.492 32.5509 116.275 32.846 116.126C33.1411 115.977 33.4672 115.899 33.7979 115.899H86.4104C87.0436 115.895 87.6612 116.095 88.1715 116.471C88.6817 116.846 89.0573 117.375 89.2425 117.981L99.946 153.585Z" fill="#111D36"/>
<path d="M67.917 133.437C68.0636 134.254 67.9647 135.096 67.6327 135.858C67.3007 136.619 66.7505 137.264 66.0517 137.713C65.3529 138.162 64.5368 138.393 63.7065 138.378C62.8763 138.363 62.0691 138.102 61.387 137.629C60.7048 137.155 60.1784 136.49 59.8741 135.717C59.5699 134.945 59.5015 134.099 59.6775 133.288C59.8536 132.476 60.2663 131.735 60.8634 131.158C61.4605 130.581 62.2153 130.194 63.0324 130.045C63.5758 129.947 64.1334 129.956 64.6732 130.073C65.213 130.19 65.7243 130.413 66.178 130.728C66.6318 131.043 67.0189 131.444 67.3173 131.909C67.6157 132.374 67.8195 132.893 67.917 133.437Z" fill="#E6F5FA"/>
<path d="M174.781 157.396C174.781 157.396 188.17 205.735 193.636 247.791L202.824 246.047C202.824 246.047 199.991 184.431 190.7 146.31L174.781 157.396Z" fill="#D97F48"/>
<path d="M202.749 243.936C202.749 243.936 216.587 264.365 199.983 273.545C199.451 273.842 198.832 273.944 198.233 273.836C197.633 273.727 197.09 273.414 196.695 272.949L196.592 272.824C196.166 272.316 195.947 271.665 195.98 271.002C196.012 270.339 196.294 269.713 196.769 269.249C199.123 266.866 202.301 261.893 197.239 255.434C197.239 255.434 194.591 256.111 195.033 261.385C195.057 261.703 195.012 262.021 194.902 262.32C194.791 262.618 194.618 262.889 194.393 263.114C194.168 263.339 193.897 263.513 193.598 263.623C193.3 263.734 192.981 263.778 192.664 263.754C192.215 263.706 191.792 263.522 191.451 263.226C191.111 262.93 190.869 262.536 190.759 262.099C189.89 258.627 188.449 250.012 194.003 245.385L202.749 243.936Z" fill="#D97F48"/>
<path d="M176.517 117.996C176.517 117.996 185.087 120.489 194.216 149.414L173.119 161.92L168.227 145.104L176.517 117.996Z" fill="#6FC7BF"/>
<path d="M175.23 117.208L159.332 110.882L142.994 111.103L126.597 117.113C125.11 117.656 123.878 118.732 123.138 120.132C122.399 121.531 122.205 123.156 122.595 124.69L134.637 172.204H166.887L178.01 122.52C178.257 121.448 178.113 120.324 177.603 119.35C177.093 118.375 176.251 117.616 175.23 117.208Z" fill="#6FC7BF"/>
<path d="M166.898 172.182H134.641V177.347H166.898V172.182Z" fill="#111D36"/>
<path d="M129.821 153.174L124.289 131.34" stroke="#51A99F" stroke-width="1.37" stroke-miterlimit="10"/>
<path d="M170.898 154.306L176.041 131.34" stroke="#51A99F" stroke-width="1.37" stroke-miterlimit="10"/>
<path d="M166.886 177.354H134.636C134.636 177.354 119.004 181.319 108.543 254.537C106.954 265.689 105.601 276.569 104.387 287H134.857L148.311 219.425L151.254 220.197L156.227 286.963H184.843L185.446 250.873C185.446 250.873 182.864 192.17 166.886 177.354Z" fill="#006AB8"/>
<path d="M151.254 220.19L141.234 216.276" stroke="#005A94" stroke-width="1.37" stroke-miterlimit="10"/>
<path d="M177.684 83.1927C176.257 77.7785 175.735 78.7789 170.938 67.9798C168.069 61.5431 165.848 58.961 164.523 57.9164C160.901 54.6017 156.182 52.742 151.273 52.6945C146.363 52.647 141.609 54.4149 137.923 57.6589C136.665 58.4975 134.296 60.9251 131.155 67.9578C126.351 78.7274 125.836 77.7564 124.409 83.1707C122.982 88.5849 124.792 98.619 135.951 100.524C134.989 99.4609 134.32 98.1654 134.009 96.7652C134.009 96.7652 138.681 103.121 145.044 102.731H157.057C163.42 103.121 168.091 96.7652 168.091 96.7652C167.777 98.1654 167.105 99.4603 166.142 100.524C177.294 98.5895 179.111 88.5923 177.684 83.1927Z" fill="#111D36"/>
<path d="M165.911 113.501L159.335 110.882L157.326 93.5725C156.001 94.8523 154.354 95.7497 152.559 96.1693C150.69 96.3967 148.797 96.0093 147.167 95.0658L144.96 93.2267L142.989 111.103L135.816 113.729C135.816 113.729 136.28 118.385 151.441 118.385C166.603 118.385 165.911 113.501 165.911 113.501Z" fill="#D97F48"/>
<path d="M143.715 93.8448C143.715 93.8448 147.879 101.885 152.837 100.73C157.986 99.5312 157.986 92.7266 157.986 92.7266L143.715 93.8448Z" fill="#111D36"/>
<path d="M168.877 70.7311C168.877 80.5812 161.212 88.5628 151.759 88.5628C142.306 88.5628 134.641 80.5812 134.641 70.7311C134.641 60.8809 142.306 54.1793 151.759 54.1793C161.212 54.1793 168.877 60.8809 168.877 70.7311Z" fill="#111D36"/>
<path d="M165.902 71.6507C165.896 76.7716 165.324 81.8761 164.195 86.871C163.356 90.5492 161.01 93.1239 157.692 95.1984L157.089 95.5735C155.346 96.6496 153.343 97.2305 151.296 97.2538C149.248 97.2772 147.232 96.742 145.466 95.7059C141.868 93.5726 139.353 90.7625 138.58 86.8121C137.678 81.8122 137.155 76.7514 137.013 71.6728C137.013 71.6728 135.674 56.173 151.248 56.4746C166.821 56.7762 165.902 71.6507 165.902 71.6507Z" fill="#D97F48"/>
<path d="M138.716 86.2089C135.972 88.5776 130.19 79.1909 132.831 76.6456C135.471 74.1004 137.369 78.2346 137.369 78.2346L137.914 81.1771L138.716 85.1643L138.936 86.1353L138.716 86.2089Z" fill="#D97F48"/>
<path d="M134.047 79.8235C134.047 79.8235 135.165 77.3886 137.784 81.6626" stroke="#111D36" stroke-linecap="round" stroke-linejoin="round"/>
<path d="M164.188 86.2603C166.976 88.5849 172.589 79.1026 169.889 76.6161C167.189 74.1297 165.38 78.2787 165.38 78.2787L164.894 81.258L164.159 85.2598L163.945 86.1352L164.188 86.2603Z" fill="#D97F48"/>
<path d="M168.752 79.8015C168.752 79.8015 167.59 77.3886 165.074 81.6994" stroke="#111D36" stroke-linecap="round" stroke-linejoin="round"/>
<path d="M137.211 76.4764C137.211 76.4764 143.442 68.0535 142.007 59.5569C140.496 60.4474 139.194 61.6514 138.187 63.0879C137.181 64.5244 136.494 66.1599 136.174 67.8843C134.975 73.865 137.211 76.4764 137.211 76.4764Z" fill="#111D36"/>
<path d="M166.155 76.6382C166.155 76.6382 158.666 67.4796 160.101 58.983C163.269 61.0121 165.506 64.2119 166.324 67.8842C167.545 73.8649 166.155 76.6382 166.155 76.6382Z" fill="#111D36"/>
<path d="M132.594 70.4222H170.302C170.302 70.4222 166.058 54.4442 150.153 53.5026C134.249 52.561 132.594 70.4222 132.594 70.4222Z" fill="#111D36"/>
<path d="M145.994 77.6682C145.986 77.9503 145.896 78.2239 145.734 78.4549C145.572 78.6859 145.346 78.864 145.083 78.967C144.82 79.07 144.533 79.0932 144.257 79.0337C143.982 78.9743 143.729 78.8349 143.532 78.6329C143.335 78.4309 143.202 78.1753 143.15 77.898C143.098 77.6208 143.128 77.3343 143.238 77.0743C143.347 76.8143 143.531 76.5924 143.766 76.4364C144.001 76.2803 144.277 76.1971 144.559 76.197C144.751 76.1969 144.94 76.2352 145.117 76.3096C145.293 76.3839 145.453 76.4929 145.587 76.63C145.72 76.7672 145.825 76.9297 145.895 77.108C145.965 77.2863 145.998 77.4768 145.994 77.6682Z" fill="#111D36"/>
<path d="M159.286 77.6682C159.279 77.9503 159.189 78.2239 159.027 78.4549C158.865 78.6859 158.639 78.864 158.376 78.967C158.113 79.07 157.826 79.0932 157.55 79.0337C157.274 78.9743 157.022 78.8349 156.825 78.6329C156.628 78.4309 156.495 78.1753 156.443 77.898C156.391 77.6208 156.421 77.3343 156.531 77.0743C156.64 76.8143 156.824 76.5924 157.059 76.4364C157.294 76.2803 157.57 76.1971 157.852 76.197C158.043 76.1969 158.233 76.2352 158.41 76.3096C158.586 76.3839 158.746 76.4929 158.88 76.63C159.013 76.7672 159.118 76.9297 159.188 77.108C159.258 77.2863 159.291 77.4768 159.286 77.6682Z" fill="#111D36"/>
<path d="M150.485 80.7947V82.7367C150.482 82.8486 150.505 82.9596 150.551 83.0614C150.598 83.1631 150.667 83.2528 150.754 83.3238C150.84 83.3947 150.942 83.4449 151.051 83.4707C151.16 83.4965 151.273 83.497 151.382 83.4724L152.412 83.259" stroke="#111D36" stroke-width="0.99" stroke-linecap="round" stroke-linejoin="round"/>
<path d="M148.82 73.2176L140.117 74.2622C140.117 74.2622 140.816 71.9597 144.369 71.5624C147.922 71.1652 148.82 73.2176 148.82 73.2176Z" fill="#111D36"/>
<path d="M153.84 73.2176L162.55 74.2622C162.55 74.2622 161.814 71.9597 158.29 71.5624C154.767 71.1652 153.84 73.2176 153.84 73.2176Z" fill="#111D36"/>
<path d="M143.14 83.5606C146.418 83.5606 149.076 80.9027 149.076 77.624C149.076 74.3453 146.418 71.6874 143.14 71.6874C139.861 71.6874 137.203 74.3453 137.203 77.624C137.203 80.9027 139.861 83.5606 143.14 83.5606Z" stroke="#6FC7BF" stroke-width="1.08" stroke-miterlimit="10"/>
<path d="M159.964 83.5606C163.243 83.5606 165.9 80.9027 165.9 77.624C165.9 74.3453 163.243 71.6874 159.964 71.6874C156.685 71.6874 154.027 74.3453 154.027 77.624C154.027 80.9027 156.685 83.5606 159.964 83.5606Z" stroke="#6FC7BF" stroke-width="1.08" stroke-miterlimit="10"/>
<path d="M149.078 78.117C149.078 78.117 151.175 74.8949 154.022 78.117" stroke="#6FC7BF" stroke-width="1.08" stroke-miterlimit="10"/>
<path d="M146.812 86.2088H156.287C156.287 86.2088 151.852 91.5054 146.812 86.2088Z" fill="white"/>
<path d="M352.526 133.429L374.154 152.144C376.121 153.846 377.342 156.252 377.554 158.845C377.766 161.439 376.952 164.011 375.286 166.01C373.616 168.018 371.221 169.287 368.621 169.541C366.022 169.796 363.427 169.016 361.398 167.371L339.969 150.003L352.526 133.429Z" fill="#F7A771"/>
<path d="M324.96 115.09C340.695 117.635 357.96 133.429 357.96 133.429L343.682 153.85L324.879 138.453L324.96 115.09Z" fill="#0083C8"/>
<path d="M375.36 112.898L359.816 157.323C359.405 158.485 359.235 159.72 359.317 160.951C359.399 162.182 359.732 163.383 360.295 164.481C360.857 165.578 361.638 166.55 362.589 167.335C363.541 168.121 364.642 168.704 365.826 169.049C367.069 169.411 368.374 169.504 369.655 169.321C370.936 169.138 372.163 168.682 373.254 167.985C374.344 167.289 375.273 166.366 375.978 165.281C376.682 164.196 377.147 162.972 377.339 161.692L385.313 114.516L375.36 112.898Z" fill="#F7A771"/>
<path d="M375.36 112.898C375.36 112.898 372.308 108.955 371.682 97.6994C371.664 97.354 371.749 97.0109 371.927 96.7145C372.106 96.4181 372.369 96.1821 372.683 96.0368C372.903 95.9324 373.143 95.8757 373.387 95.8702C373.631 95.8647 373.873 95.9107 374.098 96.0051C374.323 96.0995 374.525 96.2402 374.692 96.418C374.859 96.5959 374.986 96.8069 375.066 97.0373L376.618 101.731L385.291 114.538L375.36 112.898Z" fill="#F7A771"/>
<path d="M376.637 101.731L377.012 86.1133C377.012 85.4439 377.483 84.5096 378.329 84.4802C378.521 84.4469 378.719 84.4538 378.909 84.5004C379.099 84.5471 379.277 84.6325 379.433 84.7513C379.588 84.8701 379.717 85.0197 379.812 85.1908C379.907 85.3619 379.965 85.5507 379.984 85.7455L380.337 96.8241L382.397 83.8696C382.444 83.5668 382.607 83.2942 382.851 83.109C383.095 82.9238 383.402 82.8405 383.706 82.8765C384.006 82.9099 384.282 83.0563 384.477 83.2859C384.673 83.5156 384.773 83.8112 384.758 84.1124L384.089 98.1703L386.906 86.6209C386.98 86.3178 387.158 86.0504 387.41 85.866C387.662 85.6817 387.971 85.5921 388.282 85.6131C388.461 85.6249 388.636 85.6729 388.796 85.754C388.956 85.8351 389.098 85.9478 389.213 86.0852C389.329 86.2227 389.415 86.382 389.468 86.5537C389.52 86.7254 389.537 86.9059 389.518 87.0843L388.046 99.7666L393.645 91.8733C393.758 91.7382 393.899 91.6286 394.058 91.5519C394.217 91.4751 394.391 91.4329 394.567 91.4281C394.744 91.4232 394.919 91.4558 395.082 91.5236C395.245 91.5915 395.392 91.6931 395.513 91.8218C395.694 92.0173 395.808 92.2658 395.837 92.5307C395.866 92.7956 395.809 93.0629 395.675 93.2931L390.967 102.856C390.967 102.856 390.673 108.8 385.288 114.523L376.96 109.573L376.637 101.731Z" fill="#F7A771"/>
<path d="M376.637 101.731C376.637 101.731 382.522 101.731 382.632 107.049" stroke="#111D36" stroke-width="1.02" stroke-linecap="round" stroke-linejoin="round"/>
<path d="M323.362 113.869L335.132 118.327C338.207 119.46 338.987 122.873 338.185 126.051L332.749 193.354H286.338L282.762 123.859C282.525 122.79 282.675 121.671 283.185 120.702C283.696 119.733 284.534 118.978 285.55 118.569L301.447 112.243L323.362 113.869Z" fill="#0083C8"/>
<path d="M336.422 147.906L337.511 134.474" stroke="#00678D" stroke-width="1.46" stroke-miterlimit="10"/>
<path d="M283.855 160.199C283.855 160.199 271.247 209.207 268.091 251.491L258.844 250.255C258.844 250.255 260.205 188.572 267.377 150.003L283.855 160.199Z" fill="#F7A771"/>
<path d="M284.27 119.357C284.27 119.357 273.817 121.85 264.688 150.783L287.669 163.289L292.568 146.457L284.27 119.357Z" fill="#0083C8"/>
<path d="M318.06 112.272L317.148 95.5955C317.148 95.5955 314.066 97.7436 311.263 98.2659C308.46 98.7882 305.753 97.1477 305.717 97.1256L302.465 95.235L301.509 112.243L296.609 114.192C296.609 114.192 299.684 119.437 309.954 118.908C320.223 118.378 323.423 113.869 323.423 113.869L318.06 112.272Z" fill="#F7A771"/>
<path d="M301.797 95.8678C301.797 95.8678 306.336 104.151 311.735 102.967C317.378 101.723 317.62 94.5068 317.62 94.5068L301.797 95.8678Z" fill="#111D36"/>
<path d="M324.983 73.0263C324.978 78.2885 324.388 83.5338 323.225 88.6659C322.364 92.4617 319.951 95.11 316.531 97.2433L315.913 97.6259C314.12 98.7335 312.059 99.3317 309.951 99.3563C307.844 99.381 305.77 98.8311 303.951 97.7656C300.273 95.5587 297.654 92.6824 296.852 88.6144C295.928 83.4659 295.392 78.2552 295.249 73.0263C295.249 73.0263 293.866 57.0704 309.903 57.3794C325.939 57.6883 324.983 73.0263 324.983 73.0263Z" fill="#F7A771"/>
<path d="M296.993 88.0112C294.168 90.4461 288.224 80.7872 290.953 78.1831C293.683 75.579 295.632 79.8162 295.632 79.8162L296.184 82.8691L297.008 86.9813L297.221 87.9008L296.993 88.0112Z" fill="#F7A771"/>
<path d="M292.191 81.4345C292.191 81.4345 293.346 78.9334 296.031 83.3325" stroke="#111D36" stroke-width="1.03" stroke-linecap="round" stroke-linejoin="round"/>
<path d="M323.219 88.0626C326.088 90.4534 331.87 80.7063 329.104 78.1389C326.338 75.5716 324.462 79.8529 324.462 79.8529L323.962 82.9132L323.226 87.0327L323.027 87.9596L323.219 88.0626Z" fill="#F7A771"/>
<path d="M327.916 81.4125C327.916 81.4125 326.717 78.9334 324.098 83.3693" stroke="#111D36" stroke-width="1.03" stroke-linecap="round" stroke-linejoin="round"/>
<path d="M304.489 78.2494C304.489 78.5404 304.403 78.8249 304.241 79.0668C304.08 79.3087 303.85 79.4973 303.581 79.6087C303.312 79.72 303.017 79.7492 302.731 79.6924C302.446 79.6356 302.184 79.4955 301.978 79.2897C301.772 79.084 301.632 78.8218 301.575 78.5364C301.518 78.251 301.548 77.9552 301.659 77.6864C301.77 77.4175 301.959 77.1878 302.201 77.0261C302.443 76.8644 302.727 76.7781 303.018 76.7781C303.408 76.7781 303.783 76.9331 304.058 77.2091C304.334 77.485 304.489 77.8592 304.489 78.2494Z" fill="#111D36"/>
<path d="M318.177 78.2494C318.177 78.5404 318.091 78.8249 317.929 79.0668C317.767 79.3087 317.538 79.4973 317.269 79.6087C317 79.72 316.704 79.7492 316.419 79.6924C316.133 79.6356 315.871 79.4955 315.665 79.2897C315.46 79.084 315.319 78.8218 315.263 78.5364C315.206 78.251 315.235 77.9552 315.346 77.6864C315.458 77.4175 315.646 77.1878 315.888 77.0261C316.13 76.8644 316.415 76.7781 316.706 76.7781C317.096 76.7781 317.47 76.9331 317.746 77.2091C318.022 77.485 318.177 77.8592 318.177 78.2494Z" fill="#111D36"/>
<path d="M309.113 80.5003V83.4428C309.112 83.5581 309.135 83.6724 309.183 83.7775C309.23 83.8825 309.301 83.9756 309.389 84.0502C309.477 84.1248 309.58 84.1789 309.691 84.2088C309.803 84.2386 309.919 84.2433 310.033 84.2226L311.1 84.0019" stroke="#111D36" stroke-width="1.02" stroke-linecap="round" stroke-linejoin="round"/>
<path d="M312.148 72.8277L320.682 75.0346C320.682 75.0346 320.292 72.6438 316.798 71.7757C313.303 70.9077 312.148 72.8277 312.148 72.8277Z" fill="#111D36"/>
<path d="M306.842 72.8277L298.309 75.0346C298.309 75.0346 298.698 72.6438 302.185 71.7757C305.672 70.9077 306.842 72.8277 306.842 72.8277Z" fill="#111D36"/>
<path d="M309.147 88.5923C309.462 88.3871 309.69 88.0727 309.787 87.7095C309.985 86.9739 310.074 85.8042 308.661 85.6718C306.579 85.4732 303.092 89.475 300.047 87.1431C300.04 87.1798 302.982 92.5941 309.147 88.5923Z" fill="#111D36"/>
<path d="M310.337 88.5923C310.022 88.3871 309.795 88.0727 309.697 87.7095C309.499 86.9739 309.411 85.8042 310.823 85.6718C312.897 85.4732 316.362 89.475 319.4 87.1431C319.371 87.1798 316.465 92.5941 310.337 88.5923Z" fill="#111D36"/>
<path d="M324.615 54.1132C319.37 50.4351 309.388 53.8558 303.87 56.2613C303.922 55.749 303.869 55.2317 303.716 54.7401C303.563 54.2485 303.313 53.7926 302.98 53.3997C293.498 56.3422 294.69 61.7123 295.352 63.4337C293.498 65.3905 290.938 70.2677 295.786 80.5004C295.786 80.5004 298.493 71.7611 297.345 64.8093C301.84 66.847 314.044 71.7169 321.798 68.6126C322.086 72.6775 322.953 76.6805 324.373 80.5004C327.315 72.9969 326.896 68.4801 325.734 65.7877C327.036 64.2282 330.971 58.6153 324.615 54.1132Z" fill="#111D36"/>
<path d="M323.947 286.963H353.777C342.742 239.883 334.113 207.353 334.113 207.353L332.752 193.324H310.109L311.132 242.612L323.947 286.963Z" fill="#006AB8"/>
<path d="M311.133 242.627L310.11 193.339H286.342C268.554 219.962 278.625 267.27 278.625 267.27L281.332 286.963H311.133V242.627Z" fill="#006AB8"/>
<path d="M311.137 242.627V228.664L317.868 218.233" stroke="#005A94" stroke-width="1.37" stroke-miterlimit="10"/>
<path d="M219.58 270.625C219.58 270.625 227.591 230.856 232.306 220.013C232.403 219.799 232.564 219.62 232.767 219.5C232.97 219.381 233.204 219.328 233.439 219.347C233.673 219.366 233.896 219.458 234.077 219.608C234.257 219.759 234.386 219.962 234.447 220.19C235.58 224.324 237.073 236.499 236.411 272.339V286.993H264.534L268.676 251.734C268.676 251.734 274.944 202.593 254.537 174.691H213.643C213.643 174.691 192.788 205.028 190.044 246.93C189.434 256.251 188.382 270.47 187.102 286.993H216.078L219.58 270.625Z" fill="#0083C8"/>
<path d="M225.305 216.276L234.883 220.19" stroke="#00678D" stroke-width="1.46" stroke-miterlimit="10"/>
<path d="M225.186 97.1256L205.516 102.533L213.652 169.681H254.928L263.072 102.238L241.26 96.8314L225.186 97.1256Z" fill="#FFBF00"/>
<path d="M254.554 169.681H213.652V174.683H254.554V169.681Z" fill="#111D36"/>
<path d="M244.204 145.486C244.204 145.486 261.057 138.726 270.091 143.441L270.944 154.292L243.395 157.757L244.204 145.486Z" fill="#F7A771"/>
<path d="M280.225 167.364C280.225 167.364 252.859 170.652 230.68 159.015L249.468 153.321L272.677 149.4L280.225 167.364Z" fill="#FFBF00"/>
<path d="M261.736 102.032C261.736 102.032 272.366 102.709 279.141 123.756C286.343 146.119 286.865 163.73 281.87 166.68C276.875 169.63 270.674 163.112 264.318 145.104C257.962 127.095 255.02 117.4 255.02 117.4L261.736 102.032Z" fill="#FFBF00"/>
<path d="M259.555 131.34L261.195 117.775" stroke="#FFBF00" stroke-width="1.46" stroke-miterlimit="10"/>
<path d="M205.52 102.532C205.52 102.532 194.89 103.209 188.115 124.256C180.92 146.619 180.398 164.23 185.393 167.18C190.388 170.13 197.332 163.612 203.696 145.604C210.059 127.596 212.236 117.9 212.236 117.9L205.52 102.532Z" fill="#FFBF00"/>
<path d="M208.85 130.045L207.379 117.775" stroke="#FFBF00" stroke-width="1.46" stroke-miterlimit="10"/>
<path d="M214.328 145.567C208.559 140.112 201.652 136.005 194.105 133.54C193.833 133.451 193.543 133.435 193.263 133.493C192.983 133.551 192.723 133.681 192.509 133.871C192.305 134.051 192.149 134.279 192.055 134.534C191.962 134.789 191.933 135.064 191.971 135.333C192.01 135.602 192.115 135.858 192.277 136.076C192.439 136.295 192.652 136.47 192.899 136.585L200.498 140.138L190.523 140.8C190.132 140.824 189.75 140.926 189.401 141.103C189.051 141.279 188.742 141.525 188.491 141.825C188.24 142.126 188.053 142.474 187.942 142.85C187.831 143.225 187.798 143.619 187.845 144.008C188.051 145.479 189.022 147.318 191.788 149.488L214.328 145.567Z" fill="#F7A771"/>
<path d="M191.769 149.488C191.769 149.488 227.91 142.36 245.058 142.433L251.899 159.353C251.899 159.353 198.404 172.771 185.391 167.187L191.769 149.488Z" fill="#FFBF00"/>
<path d="M214.332 145.567C214.332 145.567 237.048 142.021 245.059 142.433L246.023 144.824" stroke="#FFBF00" stroke-width="1.46" stroke-miterlimit="10"/>
<path d="M213.32 166.989L251.897 159.346L246.027 144.824" stroke="#FFBF00" stroke-width="1.46" stroke-miterlimit="10"/>
<path d="M215.303 68.1196L207.211 78.6539C207.211 78.6539 236.239 100.951 260.11 77.0723L251.599 66.6851L215.303 68.1196Z" fill="#111D36"/>
<path d="M241.19 96.309L239.152 80.1251C237.793 81.4407 236.102 82.3613 234.26 82.7881C232.342 83.0263 230.398 82.6284 228.728 81.6552C228.691 81.6552 226.448 79.7646 226.448 79.7646L225.212 96.5297C225.209 96.7269 225.192 96.9236 225.16 97.1182L233.988 116.333L241.219 96.824C241.199 96.6531 241.189 96.4811 241.19 96.309Z" fill="#F7A771"/>
<path d="M225.188 80.4121C225.188 80.4121 229.462 89.4383 234.552 88.2539C239.863 87.0254 239.841 79.2645 239.841 79.2645L225.188 80.4121Z" fill="#111D36"/>
<path d="M251.005 56.71C251.005 66.8176 243.141 75.0126 233.438 75.0126C223.735 75.0126 215.871 66.7955 215.871 56.71C215.871 46.6245 223.735 39.7316 233.438 39.7316C243.141 39.7316 251.005 46.5803 251.005 56.71Z" fill="#111D36"/>
<path d="M247.964 57.6296C247.955 62.8794 247.366 68.1122 246.206 73.2324C245.353 77.0062 242.94 79.6471 239.534 81.7731L238.916 82.163C237.128 83.2678 235.073 83.864 232.972 83.8873C230.871 83.9106 228.803 83.3602 226.991 82.2954C223.313 80.0885 220.716 77.2269 219.915 73.1735C218.994 68.0394 218.458 62.8436 218.311 57.6296C218.311 57.6296 216.935 41.7252 232.928 42.0342C248.921 42.3431 247.964 57.6296 247.964 57.6296Z" fill="#F7A771"/>
<path d="M220.05 72.5702C217.233 75.0052 211.304 65.3757 214.033 62.7716C216.762 60.1675 218.689 64.4047 218.689 64.4047L219.241 67.4502L220.065 71.5477L220.278 72.4599L220.05 72.5702Z" fill="#F7A771"/>
<path d="M215.258 66.023C215.258 66.023 216.413 63.5292 219.098 67.9062" stroke="#111D36" stroke-width="1.03" stroke-linecap="round" stroke-linejoin="round"/>
<path d="M246.196 72.629C249.058 75.0125 254.825 65.2727 252.081 62.7274C249.337 60.1821 247.454 64.4414 247.454 64.4414L246.954 67.4943L246.218 71.5992L246.02 72.5261L246.196 72.629Z" fill="#F7A771"/>
<path d="M250.881 65.9937C250.881 65.9937 249.682 63.5219 247.078 67.9505" stroke="#111D36" stroke-width="1.03" stroke-linecap="round" stroke-linejoin="round"/>
<path d="M248.403 53.7675C247.635 50.2753 245.608 47.1881 242.71 45.0944C240.743 43.1158 238.167 41.8587 235.397 41.5266C235.397 41.5266 225.415 39.2755 221.281 46.8231C219.307 48.6785 217.969 51.1083 217.455 53.7675C216.219 59.9321 218.515 62.5951 218.515 62.5951C220.985 59.0546 222.661 55.022 223.429 50.7735C226.452 53.2746 232.587 56.4084 244.218 56.2466C245.314 58.558 246.658 60.7434 248.227 62.7643C248.227 62.7643 249.639 59.9027 248.403 53.7675Z" fill="#111D36"/>
<path d="M227.525 63.8089C227.525 64.0998 227.438 64.3843 227.277 64.6262C227.115 64.8682 226.885 65.0568 226.616 65.1681C226.348 65.2795 226.052 65.3086 225.766 65.2519C225.481 65.1951 225.219 65.055 225.013 64.8492C224.807 64.6434 224.667 64.3813 224.61 64.0959C224.554 63.8105 224.583 63.5147 224.694 63.2458C224.805 62.977 224.994 62.7472 225.236 62.5855C225.478 62.4239 225.762 62.3376 226.053 62.3376C226.444 62.3376 226.818 62.4926 227.094 62.7685C227.37 63.0444 227.525 63.4186 227.525 63.8089Z" fill="#111D36"/>
<path d="M241.189 63.8089C241.189 64.0998 241.102 64.3843 240.941 64.6262C240.779 64.8682 240.549 65.0568 240.28 65.1681C240.012 65.2795 239.716 65.3086 239.43 65.2519C239.145 65.1951 238.883 65.055 238.677 64.8492C238.471 64.6434 238.331 64.3813 238.274 64.0959C238.218 63.8105 238.247 63.5147 238.358 63.2458C238.469 62.977 238.658 62.7472 238.9 62.5855C239.142 62.4239 239.426 62.3376 239.717 62.3376C240.108 62.3376 240.482 62.4926 240.758 62.7685C241.034 63.0444 241.189 63.4186 241.189 63.8089Z" fill="#111D36"/>
<path d="M231.785 67.0089V68.9951C231.783 69.1104 231.807 69.2247 231.855 69.3297C231.902 69.4347 231.973 69.5279 232.061 69.6025C232.149 69.6771 232.252 69.7312 232.363 69.761C232.475 69.7908 232.591 69.7956 232.705 69.7749L233.764 69.5542" stroke="#111D36" stroke-width="1.01" stroke-linecap="round" stroke-linejoin="round"/>
<path d="M239.042 56.9896C239.042 56.9896 234.724 56.6365 234.688 58.3946C234.688 58.3946 234.687 59.579 238.454 59.8218C242.22 60.0645 243.199 59.7776 243.545 58.6595C243.89 57.5413 241.065 57.0043 239.042 56.9896Z" fill="#111D36"/>
<path d="M226.14 56.9896C226.14 56.9896 230.451 56.6365 230.495 58.3946C230.495 58.3946 230.495 59.579 226.729 59.8218C222.962 60.0645 221.984 59.7776 221.638 58.6595C221.293 57.5413 224.117 57.0043 226.14 56.9896Z" fill="#111D36"/>
<path d="M236.773 71.3196C236.773 71.3196 235.221 73.8134 231.227 73.1072" stroke="#111D36" stroke-width="1.01" stroke-linecap="round" stroke-linejoin="round"/>
<path d="M36.1523 286.993H415.217" stroke="#111D36" stroke-width="0.98" stroke-linecap="round" stroke-linejoin="round"/>
</svg>
