<svg width="401" height="247" viewBox="0 0 401 247" fill="none" xmlns="http://www.w3.org/2000/svg">
<path opacity="0.6" d="M0 76.5889L104.946 76.5888L137.158 44.2432L206.794 44.2432" stroke="#FFBF00" stroke-miterlimit="10"/>
<path opacity="0.6" d="M206.659 40.3672C207.168 40.3672 207.672 40.4675 208.142 40.6623C208.612 40.8571 209.04 41.1426 209.399 41.5025C209.759 41.8625 210.045 42.2898 210.24 42.76C210.435 43.2303 210.535 43.7343 210.535 44.2434C210.642 44.8219 210.62 45.4169 210.471 45.9861C210.323 46.5553 210.05 47.0848 209.674 47.5371C209.298 47.9893 208.827 48.3532 208.294 48.603C207.761 48.8527 207.18 48.9822 206.592 48.9822C206.003 48.9822 205.422 48.8527 204.89 48.603C204.357 48.3532 203.886 47.9893 203.509 47.5371C203.133 47.0848 202.861 46.5553 202.712 45.9861C202.564 45.4169 202.542 44.8219 202.649 44.2434C202.649 43.7229 202.753 43.2077 202.956 42.7285C203.159 42.2493 203.457 41.8159 203.831 41.4542C204.205 41.0925 204.648 40.8098 205.134 40.623C205.62 40.4363 206.138 40.3493 206.659 40.3672Z" fill="#FFBF00"/>
<path opacity="0.6" d="M-1.18017e-05 93.9624L135.287 93.9624L168.167 126.709L238.472 126.709L273.223 161.46L324.147 161.46" stroke="#FFBF00" stroke-miterlimit="10"/>
<path opacity="0.6" d="M323.882 157.453C324.461 157.346 325.056 157.368 325.625 157.516C326.194 157.665 326.724 157.937 327.176 158.314C327.628 158.69 327.992 159.161 328.242 159.694C328.492 160.227 328.621 160.808 328.621 161.396C328.621 161.984 328.492 162.565 328.242 163.098C327.992 163.631 327.628 164.102 327.176 164.478C326.724 164.855 326.194 165.127 325.625 165.276C325.056 165.424 324.461 165.446 323.882 165.339C322.961 165.169 322.128 164.681 321.529 163.961C320.93 163.24 320.602 162.333 320.602 161.396C320.602 160.459 320.93 159.552 321.529 158.831C322.128 158.111 322.961 157.623 323.882 157.453Z" fill="#FFBF00"/>
<path opacity="0.6" d="M0.499997 114.947L129.137 114.947L159.077 144.887L396.991 144.887" stroke="#FFBF00" stroke-miterlimit="10"/>
<path opacity="0.6" d="M396.859 141.01C397.663 140.984 398.456 141.2 399.135 141.63C399.815 142.06 400.349 142.685 400.669 143.423C400.989 144.161 401.08 144.978 400.929 145.768C400.779 146.558 400.394 147.285 399.826 147.853C399.257 148.422 398.53 148.807 397.74 148.957C396.95 149.107 396.133 149.017 395.395 148.697C394.657 148.377 394.033 147.843 393.602 147.163C393.172 146.484 392.956 145.69 392.983 144.887C392.983 143.859 393.391 142.873 394.118 142.146C394.845 141.419 395.831 141.01 396.859 141.01Z" fill="#FFBF00"/>
<path opacity="0.6" d="M169.902 93.9651L290.597 93.9651" stroke="#FFBF00" stroke-miterlimit="10"/>
<path opacity="0.6" d="M170.173 90.0861C172.314 90.0861 174.049 91.8215 174.049 93.9623C174.049 96.103 172.314 97.8384 170.173 97.8384C168.032 97.8384 166.297 96.103 166.297 93.9623C166.297 91.8215 168.032 90.0861 170.173 90.0861Z" fill="#FFBF00"/>
<path opacity="0.6" d="M-1.43724e-05 131.924L109.356 131.924L191.557 214.125L243.417 214.125" stroke="#FFBF00" stroke-miterlimit="10"/>
<path opacity="0.6" d="M243.15 210.116C244.202 210.149 245.203 210.582 245.948 211.327C246.693 212.072 247.126 213.072 247.159 214.125C247.125 215.165 246.687 216.151 245.939 216.875C245.19 217.598 244.19 218.002 243.15 218.001C242.122 218.001 241.136 217.593 240.409 216.866C239.682 216.139 239.273 215.153 239.273 214.125C239.273 213.085 239.677 212.084 240.4 211.336C241.124 210.588 242.109 210.15 243.15 210.116Z" fill="#FFBF00"/>
<path opacity="0.6" d="M-3.45873e-06 155.179L90.9115 155.179L110.56 174.96L214.012 174.96" stroke="#FFBF00" stroke-miterlimit="10"/>
<path opacity="0.6" d="M213.743 171.085C214.51 171.085 215.259 171.312 215.897 171.738C216.534 172.164 217.031 172.769 217.324 173.477C217.618 174.186 217.695 174.965 217.545 175.717C217.395 176.469 217.026 177.16 216.484 177.702C215.942 178.244 215.251 178.613 214.5 178.762C213.748 178.912 212.968 178.835 212.26 178.542C211.552 178.248 210.946 177.752 210.52 177.114C210.095 176.477 209.867 175.727 209.867 174.961C209.867 173.933 210.276 172.947 211.003 172.22C211.729 171.493 212.715 171.085 213.743 171.085Z" fill="#FFBF00"/>
<path opacity="0.6" d="M-1.08669e-05 180.307L62.4422 180.307L124.594 242.459L179.261 242.459" stroke="#FFBF00" stroke-miterlimit="10"/>
<path opacity="0.6" d="M178.595 238.584C179.636 238.583 180.636 238.987 181.384 239.71C182.132 240.434 182.57 241.42 182.605 242.46C182.571 243.513 182.138 244.513 181.393 245.258C180.648 246.003 179.648 246.436 178.595 246.469C177.555 246.435 176.569 245.997 175.846 245.249C175.122 244.501 174.718 243.5 174.719 242.46C174.719 241.432 175.127 240.446 175.854 239.719C176.581 238.992 177.567 238.584 178.595 238.584Z" fill="#FFBF00"/>
<path opacity="0.6" d="M0.691406 40.0999L80.3525 40.0998L116.574 3.87808L141.702 3.87808" stroke="#FFBF00" stroke-miterlimit="10"/>
<path opacity="0.6" d="M141.437 0.00212254C142.241 -0.0242533 143.034 0.19168 143.713 0.621921C144.393 1.05216 144.927 1.67683 145.247 2.41473C145.567 3.15263 145.658 3.96966 145.507 4.75973C145.357 5.5498 144.972 6.2764 144.404 6.8451C143.835 7.4138 143.108 7.79834 142.318 7.94877C141.528 8.0992 140.711 8.00855 139.973 7.68863C139.235 7.36871 138.611 6.8343 138.181 6.15479C137.75 5.47527 137.534 4.68205 137.561 3.87821C137.561 3.36919 137.661 2.86517 137.856 2.3949C138.051 1.92462 138.336 1.49733 138.696 1.1374C139.056 0.77747 139.483 0.491928 139.954 0.297134C140.424 0.10234 140.928 0.00212258 141.437 0.00212254Z" fill="#FFBF00"/>
</svg>
