<svg width="342" height="272" viewBox="0 0 342 272" fill="none" xmlns="http://www.w3.org/2000/svg">
<path fill-rule="evenodd" clip-rule="evenodd" d="M246.733 36.3743C240.652 42.4017 230.979 51.9553 227.31 63.0913C223.208 75.569 224.324 90.0065 231.147 102.552C252.133 141.145 279.478 158.498 285.052 204.794C285.685 210.058 286.475 222.905 285.231 226.558C277.896 248.107 243.011 271.625 243.035 271.6C245.262 268.918 269.412 239.86 258.94 198.817C247.885 155.529 198.12 116.628 217.695 68.6388C219.16 65.0496 221.514 60.3389 224.467 56.5721C235.044 43.0829 246.733 36.3743 246.733 36.3743Z" fill="#B4DDFB"/>
<path fill-rule="evenodd" clip-rule="evenodd" d="M295.269 114.269C294.014 109.777 269.669 103.762 266.185 104.617C254.673 107.441 237.671 112.773 221.697 118.113C212.4 121.222 203.461 124.439 196.12 126.889C190.073 128.907 135.541 147.734 133.329 148.615C133.274 148.637 101.758 161.183 100.967 161.31C95.241 162.215 92.9915 162.575 79.7855 165.298C72.4054 166.82 65.8025 168.598 58.23 170.448C49.8441 172.503 43.7698 174.427 35.4763 176.795C32.6361 177.604 27.4176 179.971 24.9228 181.474C22.4521 182.961 17.7744 197.105 17.2882 211.714C17.2231 213.644 17.1367 221.181 17.1367 221.181C17.6351 221.457 30.6835 210.962 31.0213 210.663L33.7479 215.124L35.4324 218.647C29.0324 227.455 24.3577 239.345 25.0288 240.667C25.1636 240.934 32.7224 241.812 38.6135 241.682C44.2652 241.559 48.9792 241.32 48.9792 241.32C50.2675 243.582 51.3814 245.934 52.3117 248.356C52.3117 248.356 33.8494 256.452 33.9373 256.916C34.0312 257.418 43.7744 259.479 45.5012 259.888C51.3074 261.271 71.2694 266.923 75.7774 265.075C77.5664 264.341 80.7762 261.642 85.5069 257.641C90.5966 253.334 95.3879 249.344 101.524 244.331C105.646 240.963 110.754 236.404 116.269 232.072C116.297 232.051 138.275 211.908 138.275 211.908C144.976 208.546 219.165 172.484 226.178 169.062C247.128 158.845 261.29 151.899 284.002 141.041C284.499 140.795 296.478 118.598 295.269 114.269Z" fill="#A0CAE8"/>
<path fill-rule="evenodd" clip-rule="evenodd" d="M295.419 113.794C295.161 113.291 294.583 112.74 293.739 112.18C292.55 111.387 290.823 110.552 288.799 109.73C283.346 107.514 275.705 105.404 270.752 104.529C268.574 104.146 266.9 104.008 266.124 104.181C244.202 109.103 145.698 143.709 132.934 148.66C120.763 153.383 100.821 160.877 100.821 160.877C85.2685 163.372 47.7365 171.942 31.6478 177.877C29.2151 178.776 27.2686 179.614 25.9552 180.362C25.0267 180.892 24.4056 181.39 24.1223 181.83C17.7148 191.676 16.4726 210.729 16.8862 221.223C16.8844 221.3 16.9095 221.375 16.9574 221.436C17.0053 221.497 17.0731 221.541 17.1497 221.56C17.3199 221.586 17.4941 221.552 17.6405 221.464C18.3055 221.128 20.1703 219.713 22.3167 218.016C25.6917 215.346 29.7786 211.975 30.9389 211.097L31.0056 211.2C31.5872 212.103 33.1914 214.482 34.9986 218.687C34.9264 218.861 34.8435 219.03 34.7501 219.195C33.8534 220.74 31.1373 224.407 29.0212 228.619C26.8899 232.863 24.9312 237.05 24.4556 240.19C24.441 240.284 24.4504 240.38 24.4828 240.47C24.5153 240.56 24.5699 240.641 24.6419 240.706C24.857 240.892 25.1122 241.028 25.3887 241.106C27.3413 241.756 32.9627 242.035 38.3266 242.048C42.568 242.06 46.7761 241.627 48.3651 241.593C48.5166 241.593 48.6847 241.593 48.7801 241.603C49.7723 243.512 51.3841 246.678 51.8097 247.965C51.8363 248.046 51.8585 248.129 51.8764 248.212C42.9391 251.845 35.1061 255.781 33.8049 256.579C33.7207 256.628 33.6415 256.684 33.5686 256.747C33.5317 256.781 33.5028 256.823 33.4838 256.869C33.4644 256.914 33.4555 256.962 33.4577 257.011C33.4598 257.06 33.473 257.107 33.4962 257.151C33.5195 257.194 33.5523 257.232 33.5923 257.261C33.6323 257.291 33.6785 257.312 33.7276 257.322C42.7013 259.301 58.0067 263.662 67.756 265.148C70.2887 265.534 72.4518 265.726 74.0378 265.637C75.1648 265.572 76.0161 265.359 76.5342 265C84.7974 259.25 129.051 222.213 138.724 211.927C155.572 203.412 277.247 144.776 283.917 141.438C284.13 141.331 284.523 140.886 285.015 140.152C286.778 137.499 290.196 130.893 292.68 124.93C294.134 121.435 295.267 118.157 295.569 116.02C295.71 115.023 295.655 114.257 295.419 113.794ZM258.015 106.983C260.691 109.026 263.666 112.121 264.506 115.759L264.396 115.817C264.02 116.001 263.335 116.278 262.413 116.626C256.516 118.852 241.094 123.901 234.938 125.747C234.837 125.642 234.743 125.532 234.656 125.416C233.653 124.063 231.929 120.644 227.736 116.325C239.636 112.491 250.302 109.17 258.015 106.983ZM239.129 161.988C239.141 162.094 239.161 162.2 239.19 162.303C201.186 181.143 138.857 211.018 138.448 211.407C136.063 200.826 120.543 166.176 111.602 157.549C119.804 154.319 129.596 150.771 133.219 149.212C143.812 145.199 181.812 131.95 216.792 120.047C229.362 130.338 236.234 148.177 239.129 161.988ZM21.882 217.504C20.2157 218.825 18.7312 219.962 17.8541 220.551C17.7375 220.629 17.6345 220.698 17.5421 220.752C17.1831 210.275 18.4343 191.792 24.6889 182.178C24.9358 181.8 25.4887 181.387 26.2945 180.929C27.5821 180.195 29.4938 179.372 31.8826 178.491C47.5486 172.713 83.5795 164.439 99.7453 161.721C87.3528 168.501 44.722 196.576 30.9238 210.31C30.8462 210.343 30.7729 210.385 30.7056 210.435C29.8543 211.043 25.4705 214.667 21.882 217.504ZM29.6256 228.908C31.7327 224.711 34.4411 221.059 35.3348 219.513C35.4551 219.319 35.5565 219.114 35.6378 218.901C52.3369 212.002 72.4124 203.646 109.363 191.215C94.283 200.211 47.0472 226.477 25.2115 239.787C25.7992 236.766 27.6382 232.866 29.6256 228.908ZM48.3439 240.937C46.7579 240.972 42.5513 241.405 38.322 241.393C33.6989 241.38 28.8742 241.177 26.4506 240.697C26.1065 240.637 25.7689 240.546 25.4417 240.426C47.232 227.133 94.6678 200.761 109.744 191.761C84.8019 215.236 68.5012 226.377 48.9649 240.875C48.9351 240.897 48.9095 240.924 48.8892 240.954C48.708 240.937 48.5259 240.931 48.3439 240.937ZM49.4042 241.377C69.4874 226.476 86.1592 215.109 112.308 190.258C112.358 190.197 112.387 190.122 112.391 190.044C112.394 189.965 112.372 189.888 112.328 189.823C112.283 189.757 112.218 189.707 112.142 189.68C112.067 189.653 111.984 189.65 111.906 189.671C73.2789 202.589 52.6156 211.175 35.5257 218.238C33.7292 214.101 32.1477 211.752 31.566 210.852C31.5327 210.801 31.4994 210.748 31.4721 210.705C46.0066 196.288 92.0638 166.202 101.683 161.454C101.736 161.428 101.781 161.388 101.813 161.339C103.74 160.524 107.743 158.91 110.902 157.835C119.791 166.101 135.523 201.268 137.801 211.687C114.242 220.755 68.7542 241.522 52.4929 247.962C52.4778 247.904 52.4596 247.842 52.4369 247.775C52.0218 246.474 50.4207 243.313 49.4118 241.37L49.4042 241.377ZM76.1252 264.473C75.6829 264.779 74.9482 264.932 73.9848 264.986C72.4352 265.073 70.322 264.882 67.8468 264.503C58.3885 263.063 43.6904 258.909 34.6426 256.861C36.8481 255.653 44.1373 252.065 52.3172 248.748C52.336 248.74 52.3542 248.73 52.3717 248.72L52.399 248.711C68.1528 242.516 113.207 221.943 137.179 212.637C123.158 226.069 83.6764 259.216 76.1328 264.465L76.1252 264.473ZM283.599 140.849C281.096 142.103 262.74 151.085 239.835 162.007C236.933 148.198 229.857 130.099 217.378 119.687C220.656 118.614 223.883 117.566 227.026 116.551C231.341 120.943 233.093 124.431 234.106 125.8C234.244 126.008 234.417 126.193 234.616 126.349C234.673 126.387 234.737 126.413 234.805 126.425C234.873 126.436 234.943 126.432 235.009 126.413C241.854 124.368 260.778 118.147 264.414 116.537C264.664 116.441 264.897 116.311 265.108 116.149C265.153 116.107 265.186 116.055 265.204 115.997C265.223 115.939 265.225 115.878 265.212 115.819C264.438 112.12 261.54 108.919 258.809 106.76C261.412 106.026 263.657 105.439 265.458 105.01C268.704 107.105 272.089 111.107 275.08 115.955C279.6 123.295 283.203 132.56 284 140.177C284 140.236 284.014 140.3 284.023 140.381C283.994 140.419 284.005 140.41 283.978 140.445C283.876 140.6 283.748 140.737 283.599 140.849ZM294.89 115.926C294.587 118.028 293.474 121.244 292.044 124.681C289.887 129.863 287.019 135.535 285.162 138.637C284.965 138.967 284.78 139.264 284.609 139.531C283.688 131.941 280.119 122.846 275.661 115.616C272.768 110.919 269.501 107.018 266.344 104.805C267.101 104.658 268.639 104.821 270.631 105.172C275.545 106.038 283.12 108.134 288.537 110.332C290.506 111.133 292.195 111.946 293.354 112.717C294.077 113.198 294.59 113.652 294.81 114.084C295.007 114.47 295.007 115.105 294.89 115.929V115.926ZM236.874 118.109C236.797 118.104 236.725 118.074 236.67 118.024C236.614 117.974 236.578 117.906 236.568 117.833C236.559 117.759 236.576 117.685 236.617 117.623C236.657 117.56 236.719 117.514 236.792 117.491C236.943 117.441 252.711 112.479 256.302 111.518C256.386 111.495 256.475 111.506 256.55 111.547C256.625 111.588 256.681 111.657 256.704 111.738C256.727 111.819 256.716 111.905 256.673 111.978C256.631 112.051 256.56 112.104 256.476 112.127C252.898 113.085 237.152 118.043 236.993 118.093C236.955 118.106 236.914 118.113 236.874 118.112V118.109Z" fill="#0F043A"/>
<path d="M192.524 162.428C190.881 162.319 189.309 161.739 188.006 160.764C186.703 159.788 185.728 158.46 185.204 156.947C184.68 155.434 184.631 153.805 185.063 152.265C185.495 150.725 186.388 149.344 187.63 148.297C188.872 147.249 190.407 146.582 192.04 146.38C193.674 146.177 195.332 146.449 196.806 147.16C198.28 147.872 199.503 148.991 200.321 150.376C201.138 151.761 201.513 153.35 201.399 154.942C201.244 157.074 200.222 159.059 198.558 160.463C196.895 161.866 194.724 162.573 192.524 162.428ZM193.622 146.955C192.106 146.853 190.594 147.19 189.276 147.922C187.957 148.654 186.893 149.749 186.216 151.067C185.54 152.385 185.282 153.868 185.476 155.329C185.669 156.789 186.305 158.161 187.303 159.271C188.301 160.381 189.616 161.179 191.083 161.565C192.549 161.951 194.1 161.906 195.54 161.438C196.981 160.969 198.245 160.097 199.174 158.932C200.103 157.766 200.654 156.361 200.758 154.892C200.896 152.923 200.221 150.981 198.884 149.493C197.546 148.005 195.654 147.092 193.622 146.955Z" fill="#0F043A"/>
<path d="M153.512 177.255C151.868 177.146 150.293 176.568 148.988 175.592C147.683 174.616 146.706 173.287 146.181 171.773C145.655 170.259 145.605 168.628 146.037 167.087C146.468 165.545 147.362 164.162 148.604 163.113C149.847 162.063 151.383 161.395 153.018 161.192C154.653 160.988 156.313 161.26 157.789 161.971C159.265 162.683 160.489 163.803 161.308 165.189C162.127 166.575 162.503 168.166 162.389 169.759C162.236 171.894 161.215 173.882 159.551 175.287C157.886 176.692 155.714 177.4 153.512 177.255ZM154.61 161.78C153.095 161.679 151.582 162.016 150.264 162.748C148.946 163.48 147.882 164.575 147.206 165.893C146.53 167.212 146.272 168.695 146.466 170.155C146.659 171.615 147.295 172.987 148.294 174.097C149.292 175.207 150.607 176.005 152.073 176.39C153.539 176.776 155.091 176.731 156.531 176.263C157.971 175.794 159.235 174.922 160.164 173.757C161.093 172.591 161.644 171.186 161.748 169.717C161.886 167.747 161.212 165.805 159.873 164.317C158.535 162.829 156.642 161.916 154.61 161.778V161.78Z" fill="#0F043A"/>
<path fill-rule="evenodd" clip-rule="evenodd" d="M21.0265 39.0998C21.1628 39.1292 21.3007 39.1541 21.437 39.1761C24.2197 39.6165 27.2175 38.7357 29.6563 36.6366C36.8 30.4829 39.3191 20.6461 40.9097 11.9103C40.9257 11.8219 40.9774 11.7433 41.0532 11.6918C41.1291 11.6403 41.2229 11.6202 41.3141 11.6358C41.4053 11.6513 41.4864 11.7014 41.5395 11.7749C41.5927 11.8484 41.6135 11.9393 41.5974 12.0277C39.9796 20.9059 37.3802 30.8866 30.1183 37.1415C27.5113 39.3875 24.3 40.3197 21.3234 39.844C21.1189 39.8103 20.9159 39.7707 20.7175 39.7237C17.7697 45.5206 13.9888 50.9917 11.5893 54.346C9.52468 57.2291 7.31157 59.9932 5.12421 62.7868C4.34864 63.7791 3.60942 64.7876 2.78689 65.7477C2.55512 66.0192 2.01737 66.5594 1.72653 66.9015C1.7451 66.9758 1.73708 67.054 1.70378 67.1234C1.67048 67.1927 1.61388 67.249 1.54324 67.2831C1.22362 67.4299 1.04033 67.2831 0.985797 67.2259C0.945345 67.1801 0.9177 67.125 0.9055 67.0659C0.8933 67.0068 0.89695 66.9456 0.916114 66.8882C0.990424 66.7214 1.0928 66.5676 1.21907 66.4332C1.52203 66.0853 2.01888 65.5788 2.24004 65.3175C3.05197 64.3648 3.78968 63.3637 4.5607 62.3816C6.74201 59.5925 8.95361 56.8386 11.0077 53.9629C13.3783 50.6526 17.1062 45.2638 20.0267 39.5446C17.5561 38.7812 15.3415 36.9786 13.913 34.0544C10.4911 27.0567 13.495 20.1749 17.2456 18.0272C18.5634 17.2727 19.9722 17.0863 21.2583 17.6236C22.508 18.1491 23.6547 19.3763 24.4393 21.5136C25.8026 25.2114 24.8438 30.1041 22.8306 35.0981C22.2944 36.434 21.6809 37.7757 21.0235 39.1027L21.0265 39.0998ZM20.3388 38.9266C21.0129 37.5761 21.637 36.2094 22.1838 34.8501C24.1273 30.0278 25.1104 25.3083 23.7865 21.7382C23.0791 19.8299 22.0929 18.7098 20.978 18.2416C19.895 17.788 18.7059 17.97 17.597 18.6056C14.0585 20.6343 11.3137 27.1521 14.5447 33.7623C15.8974 36.5294 17.9954 38.2322 20.3388 38.9266Z" fill="black"/>
<path fill-rule="evenodd" clip-rule="evenodd" d="M322.562 190.479C324.274 185.092 322.562 178.772 319.337 174.028C317.744 171.679 316.085 169.33 313.807 167.554C312.713 166.7 311.55 165.793 310.262 165.216C310.248 165.216 310.061 165.129 309.97 165.069C309.915 165.037 309.867 164.995 309.829 164.946C309.782 164.884 309.758 164.809 309.761 164.733C309.762 164.65 309.796 164.571 309.855 164.511C309.885 164.478 309.923 164.452 309.964 164.433C310.006 164.414 310.051 164.404 310.096 164.402C310.142 164.4 310.188 164.407 310.231 164.422C310.274 164.437 310.313 164.461 310.347 164.49L310.367 164.508L310.553 164.596C311.892 165.183 313.105 166.133 314.244 167.021C316.579 168.84 318.286 171.249 319.919 173.651C323.262 178.571 324.998 185.121 323.21 190.711C325.895 191.739 328.181 193.11 329.467 194.72C333.132 199.309 333.579 204.692 332.416 209.754C331.908 211.904 331.155 213.993 330.171 215.982C334.355 216.569 338.502 218.347 341.42 221.842C341.478 221.912 341.505 222.001 341.495 222.09C341.485 222.179 341.439 222.261 341.368 222.317C341.296 222.373 341.204 222.4 341.112 222.39C341.02 222.381 340.936 222.336 340.877 222.267C338.03 218.849 333.949 217.148 329.856 216.608C328.737 218.787 327.385 220.846 325.822 222.751C323.942 225.025 320.402 226.212 317.738 225.7C315.888 225.343 314.446 224.197 314.184 222.077C314.093 221.336 314.31 220.609 314.79 219.925C315.464 218.968 316.674 218.093 318.247 217.396C321.14 216.114 325.272 215.432 329.442 215.89C330.451 213.887 331.22 211.779 331.734 209.607C332.852 204.735 332.443 199.551 328.914 195.134C327.702 193.61 325.527 192.326 322.986 191.353C322.312 193.162 321.25 194.813 319.87 196.197C317.344 198.744 314.741 199.72 312.422 199.653C308.917 199.548 306.031 197.048 304.957 193.812C304.622 192.802 304.68 191.953 305.028 191.251C305.539 190.224 306.695 189.505 308.287 189.091C311.771 188.183 317.376 188.729 322.082 190.303C322.243 190.356 322.403 190.412 322.561 190.468L322.562 190.479ZM329.12 216.53C325.171 216.141 321.278 216.803 318.537 218.015C317.335 218.55 316.356 219.19 315.706 219.896C315.1 220.553 314.787 221.265 314.878 222.002C315.097 223.786 316.318 224.743 317.874 225.042C320.314 225.511 323.554 224.419 325.278 222.333C326.758 220.529 328.045 218.585 329.12 216.53ZM322.341 191.121C322.179 191.064 322.018 191.008 321.856 190.953C317.288 189.427 311.851 188.875 308.469 189.756C307.113 190.108 306.095 190.682 305.659 191.557C305.377 192.122 305.356 192.806 305.622 193.612C306.605 196.577 309.233 198.897 312.439 198.985C314.599 199.049 317.009 198.104 319.363 195.736C320.678 194.416 321.691 192.842 322.335 191.116L322.341 191.121ZM310.46 164.747C310.459 164.825 310.431 164.9 310.38 164.96C310.433 164.901 310.462 164.826 310.46 164.747Z" fill="black"/>
<path fill-rule="evenodd" clip-rule="evenodd" d="M107.278 78.5175C106.427 81.1965 99.6797 97.9504 100.776 98.3864C109.882 102.015 114.082 103.72 117.4 109.724C118.469 111.655 120.102 116.696 121.762 121.247C123.777 126.767 126.03 132.484 126.398 132.612C126.398 132.612 138.951 130.039 147.209 128.029C149.218 127.539 162.898 123.502 162.898 123.502C162.06 118.277 161.91 114.53 161.91 111.824C161.91 107.834 162.401 104.9 162.647 100.961C163.074 94.0618 161.682 87.9917 163.527 81.0644C164.493 77.4356 166.652 71.4096 165.853 70.8899C164.863 70.247 162.227 68.4839 157.801 67.0424C154.152 65.8533 151.095 64.5468 148.989 64.3824C148.667 64.3589 147.064 68.2916 145.166 71.2819C143.629 73.6745 141.812 75.8864 139.749 77.873C136.368 81.0142 132.186 83.2264 127.631 84.2822C124.94 84.9134 119.689 84.313 116.724 83.2135C112.431 81.6178 111.035 80.8648 107.266 78.516L107.278 78.5175Z" fill="#0070C0"/>
<path fill-rule="evenodd" clip-rule="evenodd" d="M189.623 200.155C190.05 204.412 191.763 204.294 191.271 206.628C190.43 210.614 189.95 215.379 191.263 216.247C192.324 216.945 210.366 213.127 210.613 212.465C211.652 209.676 213.001 186.225 213.081 181.862C213.126 179.417 213.535 175.518 213.502 175.522L210.472 176.99L199.636 182.221C199.689 182.006 203.188 176.134 203.241 175.924C203.982 173.01 204.189 170.628 201.435 166.933C196.973 160.945 191.277 157.589 185.124 153.763C179.649 150.357 173.274 146.66 166.836 142.9C165.577 142.166 161.598 140.049 160.084 138.907C160.024 138.861 175.894 133.681 175.608 133.427C173.969 131.971 171.357 129.951 169.864 128.891C167.631 127.304 165.416 125.039 163.118 123.562C163.118 123.562 159.374 124.805 145.121 128.511C134.596 131.247 126.641 131.539 126.395 133.048C125.859 136.297 125.524 140.561 125.435 143.601C125.177 152.283 128.736 160.025 134.908 164.609C139.907 168.322 146.219 170.707 152.377 172.613C154.375 173.231 167.723 176.852 167.796 177.332C168.085 179.266 163.48 185.629 161.975 187.046C160.387 188.54 159.181 191.009 158.653 193.314C158.059 195.846 157.196 198.312 156.078 200.671C155.226 202.484 151.341 205.106 151.246 207.073C151.065 210.784 150.019 210.45 148.746 212.373C147.73 213.912 142.95 218.641 142.847 219.15C142.696 219.922 158.418 226.104 164.083 227.402C165.082 227.631 170.597 218.807 173.257 215.476C179.242 207.989 182.923 202.724 189.597 194.507C189.592 194.51 189.277 196.727 189.623 200.155Z" fill="#484660"/>
<path fill-rule="evenodd" clip-rule="evenodd" d="M148.927 64.4046C148.943 64.4207 150.609 59.5148 151.502 53.8499C152.215 49.2757 152.841 44.2347 153.048 41.6584C153.322 38.244 153.351 27.0801 152.556 24.1177C151.208 19.0708 146.015 15.4053 146.935 13.2107C147.297 12.3446 148.558 12.7483 149.248 13.0713C149.681 13.2768 150.955 13.8361 150.976 13.1359C151.041 11.0029 149.54 5.97658 150.352 3.63371C151.287 0.934116 153.162 2.08353 153.621 2.60613C153.892 2.91294 153.671 0.160498 155.893 0.257383C157.537 0.33225 157.64 2.27731 158.236 1.9749C158.702 1.73856 159.014 0.351333 160.331 0.495193C162.987 0.788787 162.381 3.26231 162.72 3.72472C162.999 4.10639 164.093 3.69389 164.777 4.31191C166.786 6.11457 165.848 11.5255 165.838 13.8816C165.776 28.4981 167.19 41.1681 166.274 55.0184C166.023 58.8351 163.731 69.0742 162.728 68.7028C159.939 67.6752 150.458 64.4765 148.927 64.4061V64.4046Z" fill="#FFB1A5"/>
<path fill-rule="evenodd" clip-rule="evenodd" d="M107.118 79.0573C106.674 79.9087 104.432 86.544 104.27 86.9623C103.815 88.1485 101.361 95.8876 101.099 95.6307C100.31 94.8542 95.2598 91.4734 88.3584 85.1421C84.3669 81.4795 81.154 76.3783 79.2408 73.0049C75.7341 66.8203 73.883 60.2174 70.6686 53.9389C66.9801 46.7355 62.1933 42.9129 60.7376 40.664C59.5122 38.7703 64.979 35.5966 66.9483 34.4985C68.9417 33.3902 71.3109 31.8371 72.0865 31.6037C73.2862 31.2411 71.4321 28.2273 73.6012 27.0838C74.7873 26.4584 79.106 33.719 79.6756 34.6967C82.6855 39.8757 79.8831 41.0853 80.5405 43.5867C81.5357 47.3682 84.223 51.2525 85.962 54.7433C89.5157 61.8732 93.4859 68.438 99.9314 73.4262C101.075 74.307 105.807 77.4499 107.11 79.0544L107.118 79.0573Z" fill="#FFB1A5"/>
<path fill-rule="evenodd" clip-rule="evenodd" d="M149.544 224.294C148.24 225.469 146.571 226.596 146.666 227.729C146.83 229.719 148.484 232.318 151.132 233.617C154.29 235.17 158.544 235.148 159.036 233.804C160.151 230.756 163.038 227.226 162.838 226.944C162.77 226.847 151.618 224.035 149.546 224.302L149.544 224.294Z" fill="#FFB1A5"/>
<path fill-rule="evenodd" clip-rule="evenodd" d="M198.307 215.35C199.065 215.967 197.398 220.901 197.995 221.416C201.987 224.837 211.816 222.36 211.056 219.518C210.138 216.083 210.985 212.447 210.582 212.566C204.538 214.349 201.453 215.192 198.312 215.355L198.307 215.35Z" fill="#FFB1A5"/>
<path fill-rule="evenodd" clip-rule="evenodd" d="M125.947 51.0437C125.582 52.5117 125.686 54.0707 125.768 54.9001C126.062 57.8962 125.56 60.0762 124.606 63.0004C123.985 64.9088 124.152 68.589 122.084 69.1087C120.721 69.4507 117.791 67.2972 116.523 72.2325C115.993 74.2877 117.39 76.3077 119.412 76.6013C121.274 76.8699 123.309 75.3931 124.131 76.0669C125.968 77.576 128.069 80.901 129.796 83.5463C130.25 84.2304 140.162 78.2615 139.815 77.8623C138.685 76.5704 136.971 74.3905 137.1 74.2099C138.129 72.7566 138.813 72.2135 139.025 69.0294C139.384 63.6463 131.791 51.6265 125.947 51.0437Z" fill="#FFB1A5"/>
<path fill-rule="evenodd" clip-rule="evenodd" d="M197.535 221.566C197.007 222.447 196.626 225.661 196.536 226.825C196.284 229.985 196.522 232.466 196.819 235.605C196.885 236.318 196.54 239.065 197.225 239.551C197.831 239.991 204.344 239.856 206.086 239.775C212.817 239.466 218.674 239.253 225.359 238.334C227.351 238.061 233.716 237.453 233.984 236.82C234.439 235.746 233.639 230.517 233.153 229.535C230.591 224.37 223.338 223.369 218.349 221.967C216.955 221.575 212.373 220.176 211.735 220.179C211.018 220.179 208.38 222.961 204.553 223.353C201.937 223.62 199.82 222.716 197.535 221.566Z" fill="#B4DDFB"/>
<path d="M201.79 239.871C199.67 239.871 197.549 239.802 197.214 239.562C196.705 239.2 196.76 237.653 196.796 236.521C196.81 236.131 196.822 235.787 196.796 235.607V235.553C196.501 232.432 196.267 229.967 196.519 226.825C196.627 225.475 197.013 222.411 197.52 221.56C197.523 221.558 197.526 221.557 197.529 221.557C197.532 221.557 197.535 221.558 197.537 221.56C199.714 222.656 201.889 223.615 204.547 223.346C207.148 223.079 209.23 221.689 210.472 220.851C211.067 220.453 211.497 220.165 211.731 220.164C212.226 220.164 215.075 220.999 216.961 221.551C217.531 221.718 218.021 221.862 218.346 221.953C219.111 222.168 219.921 222.37 220.777 222.586C223.069 223.161 225.667 223.813 227.905 224.854C230.473 226.047 232.191 227.577 233.159 229.528C233.394 230.004 233.719 231.523 233.931 233.139C234.171 234.974 234.193 236.351 233.99 236.824C233.772 237.333 229.673 237.821 226.962 238.145C226.309 238.223 225.75 238.292 225.355 238.343C219.203 239.189 213.86 239.432 207.675 239.713L206.08 239.786C205.34 239.823 203.563 239.871 201.79 239.871ZM197.538 221.588C197.035 222.449 196.652 225.488 196.545 226.831C196.295 229.971 196.528 232.436 196.823 235.555V235.608C196.84 235.798 196.823 236.135 196.816 236.526C196.779 237.587 196.725 239.192 197.223 239.545C197.838 239.986 204.443 239.839 206.076 239.769L207.671 239.695C213.856 239.415 219.197 239.171 225.349 238.326C225.741 238.273 226.303 238.205 226.956 238.127C229.497 237.825 233.751 237.317 233.965 236.821C234.165 236.353 234.142 234.98 233.903 233.151C233.69 231.536 233.368 230.021 233.133 229.547C232.168 227.602 230.453 226.077 227.892 224.886C225.654 223.845 223.058 223.194 220.772 222.618C219.915 222.404 219.106 222.2 218.34 221.986C218.018 221.895 217.526 221.751 216.955 221.583C215.071 221.031 212.224 220.198 211.732 220.198C211.508 220.198 211.079 220.491 210.488 220.88C209.243 221.713 207.156 223.106 204.552 223.376C201.889 223.643 199.715 222.678 197.538 221.588Z" fill="black"/>
<path fill-rule="evenodd" clip-rule="evenodd" d="M146.266 227.515C145.799 227.817 141.547 231.238 140.823 232.189C138.854 234.77 137.075 236.593 135.638 239.454C135.312 240.106 134.5 241.712 134.881 242.513C135.215 243.232 142.264 248.253 143.851 249.295C149.847 253.228 153.164 255.01 159.881 258.423C161.838 259.418 167.967 262.339 168.559 261.946C169.578 261.278 172.337 254.429 172.417 253.311C172.611 250.625 169.25 247.743 166.193 243.85C162.557 239.223 159.304 234.759 158.979 234.567C158.305 234.169 155.621 235.32 150.443 233.379C147.747 232.369 147.444 229.947 146.27 227.508L146.266 227.515Z" fill="#B4DDFB"/>
<path fill-rule="evenodd" clip-rule="evenodd" d="M165.888 181.612C165.772 181.68 172.452 181.885 177.425 181.781C180.152 181.724 182.504 181.7 182.628 181.213C182.675 181.031 167.757 176.689 167.761 176.956C167.783 178.497 166.409 180.608 165.888 181.608V181.612Z" fill="#0F043A"/>
<path fill-rule="evenodd" clip-rule="evenodd" d="M148.232 225.135C149.362 225.307 160.486 226.258 160.002 226.081C157.536 225.166 150.308 222.241 150.143 222.515C149.37 223.769 148.551 224.206 148.232 225.135Z" fill="#0F043A"/>
<path fill-rule="evenodd" clip-rule="evenodd" d="M125.972 50.7616C126.461 50.9084 127.074 55.6513 126.358 59.8893C125.938 62.3731 124.933 67.7003 122.762 70.0388C122.415 70.4131 121.218 69.2388 119.24 69.892C118.028 70.2898 117.495 70.8535 116.88 71.6066C116.372 72.229 113.469 70.3221 112.311 68.0512C110.28 64.0686 110.871 60.4662 113.025 58.1542C113.376 57.7769 111.072 58.0074 108.894 56.1225C106.12 53.7136 107.04 48.0003 111.923 46.9229C117.601 45.6663 118.554 51.5719 118.839 51.4574C120.756 50.6808 123.919 50.17 125.979 50.7645L125.972 50.7616Z" fill="#0F043A"/>
<path fill-rule="evenodd" clip-rule="evenodd" d="M132.658 58.9881C132.24 57.9179 135.9 56.6554 136.542 58.0442C137.05 59.1378 133.143 60.2344 132.658 58.9881Z" fill="#0F043A"/>
<path fill-rule="evenodd" clip-rule="evenodd" d="M127.193 62.9838C126.436 61.8402 129.989 59.5957 130.747 60.7554C131.366 61.7037 127.976 64.1553 127.193 62.9838Z" fill="#0F043A"/>
<path fill-rule="evenodd" clip-rule="evenodd" d="M136.785 68.646C136.112 67.8723 135.079 68.8207 134.117 68.7928C132.78 68.7649 131.744 68.1542 131.239 68.9396C130.545 70.0069 132.866 71.4192 134.572 71.1021C136.88 70.672 137.212 69.1305 136.788 68.6431L136.785 68.646Z" fill="#B4DDFB"/>
<path fill-rule="evenodd" clip-rule="evenodd" d="M137.052 68.4272C136.687 68.0088 136.249 67.9472 135.765 68.0411C135.464 68.1125 135.168 68.2022 134.878 68.3098C134.637 68.4009 134.38 68.4506 134.121 68.4566C133.318 68.439 132.623 68.2129 132.087 68.2041C131.597 68.1953 131.213 68.3318 130.935 68.7576C130.57 69.3198 130.784 69.9687 131.378 70.5002C132.135 71.1682 133.498 71.6424 134.63 71.4324C136.461 71.0903 137.16 70.0891 137.272 69.3551C137.304 69.1931 137.301 69.0264 137.262 68.8658C137.223 68.7052 137.15 68.5542 137.048 68.4228L137.052 68.4272ZM136.52 68.8677C136.629 68.9924 136.625 69.2288 136.528 69.4843C136.33 70.0025 135.718 70.5501 134.503 70.7747C133.854 70.8662 133.193 70.7637 132.606 70.4811C132.217 70.3202 131.876 70.0679 131.612 69.747C131.461 69.543 131.4 69.3257 131.529 69.1246C131.706 68.8544 131.984 68.8633 132.323 68.9029C132.823 68.9631 133.429 69.1231 134.11 69.1393C134.625 69.1495 135.171 68.9132 135.663 68.7649C135.984 68.6695 136.286 68.5975 136.52 68.8662V68.8677Z" fill="#0F043A"/>
<path fill-rule="evenodd" clip-rule="evenodd" d="M134.459 60.8586C134.356 60.9273 134.275 61.0243 134.228 61.1374C134.181 61.2504 134.169 61.3745 134.195 61.4939C134.221 61.6132 134.282 61.7226 134.372 61.808C134.462 61.8935 134.575 61.9512 134.699 61.974C134.823 61.9968 134.95 61.9835 135.066 61.9359C135.182 61.8883 135.281 61.8085 135.35 61.7066C135.419 61.6047 135.455 61.4852 135.454 61.3633C135.453 61.2414 135.415 61.1225 135.344 61.0216C135.297 60.9545 135.237 60.8971 135.167 60.8526C135.097 60.8081 135.019 60.7774 134.937 60.7623C134.854 60.7472 134.77 60.7479 134.688 60.7644C134.606 60.7809 134.529 60.8129 134.459 60.8586Z" fill="#0F043A"/>
<path fill-rule="evenodd" clip-rule="evenodd" d="M130.317 63.5647C130.213 63.6333 130.132 63.7303 130.085 63.8434C130.038 63.9564 130.027 64.0804 130.052 64.1998C130.078 64.3191 130.14 64.4284 130.229 64.5139C130.319 64.5993 130.433 64.6571 130.556 64.6798C130.68 64.7026 130.808 64.6893 130.924 64.6418C131.039 64.5942 131.138 64.5144 131.207 64.4125C131.276 64.3106 131.312 64.1911 131.311 64.0692C131.31 63.9473 131.272 63.8284 131.202 63.7276C131.155 63.6606 131.094 63.6032 131.024 63.5587C130.955 63.5142 130.876 63.4835 130.794 63.4684C130.712 63.4532 130.627 63.4539 130.546 63.4705C130.464 63.487 130.386 63.519 130.317 63.5647Z" fill="#0F043A"/>
<path d="M160.132 15.8521C160.089 15.8353 160.044 15.8269 159.998 15.8274C159.951 15.8279 159.906 15.8373 159.864 15.8551C159.821 15.8729 159.783 15.8986 159.751 15.9309C159.719 15.9632 159.694 16.0013 159.678 16.043C159.416 16.6859 158.948 17.6768 158.477 18.6558C157.524 17.7529 156.473 16.9535 155.341 16.272C155.302 16.2491 155.258 16.234 155.213 16.2275C155.167 16.2209 155.121 16.2231 155.077 16.2339C155.032 16.2446 154.991 16.2638 154.954 16.2902C154.917 16.3167 154.886 16.3499 154.862 16.3879C154.839 16.426 154.823 16.4682 154.816 16.5121C154.81 16.556 154.812 16.6008 154.823 16.6439C154.834 16.6869 154.854 16.7275 154.881 16.7631C154.908 16.7988 154.943 16.8289 154.982 16.8518C156.183 17.5769 157.291 18.4383 158.281 19.4177C158.309 19.4602 158.346 19.4963 158.39 19.5234C158.819 19.9447 159.235 20.3924 159.629 20.8592C159.658 20.8936 159.694 20.9221 159.734 20.9432C159.775 20.9643 159.819 20.9774 159.864 20.9819C159.91 20.9864 159.956 20.9822 160 20.9694C160.044 20.9567 160.085 20.9357 160.12 20.9076C160.156 20.8796 160.185 20.845 160.207 20.8059C160.228 20.7669 160.242 20.724 160.247 20.6799C160.251 20.6357 160.247 20.5911 160.234 20.5485C160.221 20.506 160.199 20.4664 160.17 20.432C159.797 19.9916 159.413 19.566 159.002 19.1623C159.514 18.0995 160.04 16.9912 160.326 16.291C160.36 16.2079 160.359 16.115 160.323 16.0327C160.287 15.9504 160.218 15.8854 160.132 15.8521Z" fill="#0F043A"/>
<path d="M119.201 74.5727C119.288 74.5397 119.357 74.4748 119.394 74.3922C119.432 74.3097 119.433 74.2163 119.4 74.1324C119.018 73.1827 119.439 72.1772 120.006 71.7662C120.08 71.7129 120.129 71.6331 120.143 71.5445C120.157 71.4558 120.133 71.3656 120.078 71.2935C120.023 71.2215 119.941 71.1736 119.85 71.1604C119.758 71.1472 119.665 71.1698 119.591 71.2231C118.833 71.7721 118.236 73.1093 118.747 74.3775C118.763 74.4195 118.788 74.4579 118.82 74.4905C118.851 74.5231 118.89 74.5493 118.932 74.5675C118.974 74.5856 119.02 74.5955 119.066 74.5964C119.112 74.5973 119.158 74.5892 119.201 74.5727Z" fill="#0F043A"/>
<path d="M125.238 51.3474C126.459 51.4862 127.652 51.8044 128.775 52.2913C131.189 53.3791 132.887 55.6544 134.228 57.7755C134.277 57.8518 134.354 57.9063 134.445 57.9269C134.535 57.9476 134.629 57.9327 134.708 57.8856C134.787 57.8385 134.843 57.763 134.864 57.6758C134.886 57.5885 134.87 57.4966 134.822 57.4203C133.405 55.192 131.598 52.8213 129.066 51.6777C127.87 51.1607 126.6 50.8226 125.3 50.6751C125.254 50.6709 125.208 50.6754 125.164 50.6884C125.121 50.7013 125.08 50.7225 125.045 50.7508C125.009 50.779 124.98 50.8137 124.959 50.8528C124.937 50.892 124.924 50.9348 124.92 50.979C124.915 51.0231 124.92 51.0677 124.933 51.1101C124.947 51.1525 124.968 51.1919 124.998 51.2262C125.027 51.2604 125.062 51.2887 125.103 51.3095C125.143 51.3303 125.188 51.3432 125.233 51.3474H125.238Z" fill="#0F043A"/>
<path d="M134.041 66.3654C134.002 66.3883 133.968 66.4185 133.941 66.4542C133.914 66.49 133.894 66.5305 133.883 66.5736C133.872 66.6167 133.87 66.6614 133.877 66.7053C133.884 66.7492 133.899 66.7913 133.923 66.8293C133.947 66.8672 133.978 66.9003 134.015 66.9266C134.052 66.9529 134.093 66.972 134.138 66.9826C134.182 66.9932 134.228 66.9953 134.274 66.9886C134.319 66.9819 134.362 66.9667 134.402 66.9438C135.276 66.43 135.779 65.9866 136.019 65.4758C136.091 65.3054 136.091 65.1148 136.019 64.9444C135.917 64.7001 135.772 64.475 135.589 64.2794C134.88 63.4676 133.469 62.462 133.113 62.233C133.035 62.1834 132.941 62.1654 132.85 62.1832C132.76 62.201 132.68 62.2529 132.629 62.3277C132.577 62.4024 132.559 62.4938 132.577 62.5818C132.596 62.6698 132.649 62.7471 132.726 62.7967C133.06 63.011 134.393 63.952 135.058 64.7168C135.168 64.8364 135.262 64.9691 135.338 65.1117C135.352 65.144 135.362 65.1774 135.37 65.2115C135.177 65.6196 134.744 65.9529 134.041 66.3654Z" fill="#0F043A"/>
</svg>
