<svg width="304" height="224" viewBox="0 0 304 224" fill="none" xmlns="http://www.w3.org/2000/svg">
<path fill-rule="evenodd" clip-rule="evenodd" d="M68.1573 163.501C68.7193 162.372 81.3082 162.596 79.1007 160.906C76.7834 159.135 57.6619 159.383 50.95 159.44C44.2381 159.497 27.7028 159.383 27.1408 161.753C26.5787 164.124 40.0228 162.951 40.4546 166.099C40.8863 169.247 21.0765 167.846 20.7873 170.897C20.38 174.998 77.7486 174.069 80.2493 172.416C82.5951 170.856 73.9324 170.331 73.8184 169.031C73.7044 167.732 90.146 169.178 89.9749 166.995C89.8039 164.812 66.3327 167.154 68.1573 163.501Z" fill="#CFEDFF"/>
<path fill-rule="evenodd" clip-rule="evenodd" d="M275.903 38.1609C283.364 36.2508 271.757 33.5669 265.449 33.6565C259.14 33.7461 258.118 35.2856 249.316 35.8191C243.549 36.1775 243.46 34.3774 233.025 34.8294C222.591 35.2815 227.861 38.4216 223.772 39.0773C218.303 39.9407 200.651 39.342 199.478 42.1359C198.305 44.9298 221.561 45.7403 230.211 46.3716C234.691 46.7015 232.826 49.7967 226.493 50.6642C222.062 51.2711 223.019 53.8654 235.168 54.4845C247.317 55.1035 272.836 55.299 275.081 53.1323C277.325 50.9656 267.224 49.2428 268.678 48.7134C272.022 47.4916 303.647 47.8988 303.378 44.0297C303.109 40.1606 268.511 40.0548 275.903 38.1609Z" fill="#CFEDFF"/>
<path fill-rule="evenodd" clip-rule="evenodd" d="M259.105 132.75C258.889 132.013 266.195 132.595 265.943 130.758C265.674 128.84 252.727 127.5 248.699 127.7C244.671 127.899 250.075 129.842 246.402 129.736C242.728 129.63 230.82 129.373 230.082 130.217C228.722 131.768 237.373 132.978 240.012 133.336C240.378 133.389 245.176 133.817 242.37 135.348C239.564 136.88 219.261 134.481 218.85 137.287C218.438 140.093 238.969 140.781 245.025 140.138C249.485 139.669 253.822 138.448 258.315 138.867C263.821 139.384 270.736 140.545 275.689 139.221C280.641 137.898 276.451 136.057 270.688 135.189C264.925 134.322 259.463 133.972 259.105 132.75Z" fill="#CFEDFF"/>
<path fill-rule="evenodd" clip-rule="evenodd" d="M128.659 0.016131C114.237 -0.264888 124.684 3.20916 117.108 3.94225C109.134 4.71607 81.3375 3.82007 80.9628 6.88276C80.5881 9.94546 107.896 9.73368 109.619 11.9004C110.682 13.224 106.768 13.9367 107.757 16.2134C108.747 18.4901 138.71 17.256 143.288 17.256C154.036 17.256 162.768 15.2197 153.291 13C152.952 12.9226 140.6 11.1347 140.665 9.64408C140.73 8.15346 162.308 7.85208 162.385 5.61207C162.462 3.37207 145.516 5.16407 141.785 2.92406C138.054 0.68406 136.348 0.16275 128.659 0.016131Z" fill="#CFEDFF"/>
<path fill-rule="evenodd" clip-rule="evenodd" d="M30.4562 50.0002C29.3118 48.5788 17.3583 49.9228 18.8286 51.002C21.9646 53.3031 15.5704 52.5619 10.903 53.0873C6.23569 53.6127 0.313932 53.629 0.00440444 55.4739C-0.305123 57.3189 15.7944 56.3618 18.401 56.5206C19.3092 56.5776 21.5858 56.3984 22.4289 56.7446C23.4796 57.1804 20.7346 57.889 21.8058 58.2719C22.8769 58.6547 29.2141 58.4796 33.8896 58.2719C38.8542 58.0357 42.5523 57.8442 42.7722 57.0501C43.1591 55.649 32.9976 54.973 31.1201 54.8182C30.664 54.7815 28.9045 54.8182 28.6765 54.0484C28.5828 53.7226 30.4929 52.8714 33.4293 52.8918C36.3658 52.9122 36.3658 51.4826 35.9585 51.0998C34.5738 49.7802 31.4663 51.2342 30.4562 50.0002Z" fill="#CFEDFF"/>
<path fill-rule="evenodd" clip-rule="evenodd" d="M86.9828 41.905C86.9828 41.905 103.086 47.8675 124.012 55.3003C135.416 59.373 148.803 63.7227 160.561 68.0968C162.683 68.8869 165.171 69.8073 167.265 70.5975C183.014 76.5518 197.623 82.4084 208.126 86.7255C218.125 90.8227 224.417 93.5066 224.417 93.5066C224.417 93.5066 226.242 94.0971 225.696 94.7081C225.484 94.9443 224.214 95.3393 222.124 95.5552C218.781 95.9014 213.979 96.0236 213.087 96.0887C211.613 96.1905 161.363 97.4653 160.638 97.4653L149.235 97.3716C148.396 97.3716 90.7664 97.7341 90.7664 97.7341L87.9399 69.0702L67.5273 56.4447L84.2256 50.6696L87.7525 51.6674L86.9828 41.905Z" fill="#0070C0"/>
<path fill-rule="evenodd" clip-rule="evenodd" d="M118.4 133.567C119.376 134.455 120.258 135.442 121.031 136.512C121.458 137.196 122.375 140.316 124.032 142.087C125.69 143.859 132.585 149.96 136.185 153.841C139.912 157.833 142.502 161.384 143.019 166.874C143.142 169.174 142.973 171.48 142.514 173.737C141.61 178.375 139.484 182.42 136.495 188.431C135.208 191.021 133.237 195.432 131.888 198.096C128.333 205.084 125.401 210.782 122.684 216.203C121.157 219.254 119.715 222.023 118.677 223.99H164.116C165.745 219.127 169.048 207.675 172.575 195.681C174.88 187.828 176.847 181.096 178.305 174.054C179.197 169.725 180.207 164.687 180.069 160.94C179.902 156.273 177.845 153.239 176.057 148.412C174.783 144.963 173.996 138.927 173.439 136.194C173.017 134.052 172.326 131.972 171.382 130.004C169.272 125.78 166.332 122.95 164.487 119.48C164.226 118.991 168.478 120.253 170.066 119.105C171.655 117.956 170.616 115.207 170.616 115.207C170.616 115.207 172.323 115.057 172.245 112.947C172.168 110.837 170.241 106.773 170.241 106.773C170.241 106.773 171.541 105.958 171.956 105.042C172.425 104.129 172.527 103.071 172.241 102.085C171.463 99.7635 169.125 97.3199 169.125 97.3199L165.163 97.271C165.163 97.271 168.063 95.2346 168.559 91.6954C169.056 88.1562 166.364 87.3254 164.943 87.4598C163.139 87.6268 159.139 90.0215 155.197 92.4692C152.99 93.7939 150.966 95.3998 149.173 97.2466L126.688 97.4828C126.688 97.4828 124.427 98.3625 123.079 100.089C121.646 101.922 120.762 104.569 120.13 107.196C119.23 110.955 118.045 115.317 117.072 118.95C116.143 122.392 115.545 126.029 115.561 128.102C115.577 128.11 115.496 130.985 118.4 133.567Z" fill="#FFCDA9"/>
<path d="M169.595 115.723C167.998 115.676 166.484 115.003 165.379 113.849C164.53 113.004 163.762 112.083 163.082 111.096C162.333 110.045 162.129 109.764 161.018 109.846C160.968 109.85 160.918 109.844 160.87 109.828C160.823 109.813 160.779 109.788 160.741 109.755C160.703 109.723 160.672 109.683 160.65 109.639C160.627 109.594 160.614 109.545 160.61 109.496C160.603 109.395 160.636 109.296 160.702 109.22C160.767 109.144 160.86 109.097 160.96 109.088C162.492 108.962 162.928 109.569 163.701 110.656C164.357 111.607 165.099 112.496 165.917 113.312C167.644 115.039 169.949 115.316 171.098 114.582C171.892 114.077 172.091 113.157 171.664 111.992C171.134 110.546 170.849 109.691 170.629 109.141C170.387 108.396 170.086 107.672 169.729 106.975L170.047 106.763L170.393 106.6L170.047 106.763L170.413 106.649C170.782 107.37 171.094 108.119 171.346 108.889C171.546 109.455 171.847 110.31 172.376 111.74C172.93 113.251 172.617 114.525 171.509 115.234C170.929 115.572 170.266 115.742 169.595 115.723Z" fill="black"/>
<path d="M163.662 111.691C163.598 111.692 163.535 111.677 163.479 111.646C162.588 111.167 161.729 110.63 160.909 110.038C160.828 109.978 160.774 109.889 160.758 109.79C160.743 109.691 160.768 109.589 160.827 109.508C160.887 109.427 160.976 109.373 161.075 109.358C161.174 109.343 161.276 109.367 161.357 109.427C162.154 109.997 162.986 110.515 163.849 110.979C163.924 111.019 163.984 111.083 164.018 111.161C164.052 111.239 164.059 111.327 164.037 111.409C164.015 111.491 163.967 111.564 163.898 111.615C163.83 111.666 163.747 111.693 163.662 111.691Z" fill="black"/>
<path d="M167.239 120.028C166.267 120.013 165.3 119.888 164.356 119.653C164.307 119.642 164.262 119.621 164.221 119.592C164.181 119.563 164.147 119.526 164.121 119.483C164.095 119.441 164.077 119.394 164.069 119.345C164.061 119.296 164.063 119.246 164.075 119.197C164.085 119.148 164.106 119.102 164.134 119.061C164.163 119.02 164.2 118.985 164.242 118.958C164.285 118.931 164.332 118.914 164.382 118.906C164.432 118.898 164.482 118.9 164.531 118.912C169.105 119.987 170.253 118.383 170.534 117.645C170.635 117.304 170.66 116.946 170.608 116.594C170.556 116.242 170.428 115.906 170.233 115.609C170.18 115.523 170.163 115.42 170.186 115.321C170.208 115.223 170.269 115.137 170.355 115.084C170.44 115.031 170.543 115.014 170.641 115.037C170.739 115.06 170.823 115.121 170.876 115.206C171.131 115.6 171.297 116.045 171.361 116.511C171.425 116.976 171.386 117.449 171.247 117.898C170.966 118.639 170.07 120.028 167.239 120.028Z" fill="black"/>
<path d="M87.1135 111.935C86.0016 111.935 84.9142 111.935 83.8553 111.878C83.761 111.865 83.6747 111.818 83.6134 111.745C83.5521 111.672 83.5201 111.579 83.5237 111.484C83.5273 111.389 83.5661 111.299 83.6327 111.231C83.6993 111.163 83.7888 111.122 83.8838 111.117C96.7618 111.597 113.924 109.129 126.574 104.938C126.622 104.922 126.672 104.915 126.722 104.918C126.772 104.921 126.82 104.934 126.865 104.957C126.91 104.979 126.95 105.01 126.982 105.048C127.015 105.087 127.04 105.131 127.055 105.178C127.086 105.275 127.077 105.379 127.032 105.469C126.986 105.559 126.906 105.627 126.81 105.659C115.126 109.536 99.6045 111.935 87.1135 111.935Z" fill="black"/>
<path d="M90.1832 117.94C90.089 117.93 90.0018 117.886 89.9384 117.815C89.8749 117.745 89.8398 117.654 89.8398 117.559C89.8398 117.464 89.8749 117.373 89.9384 117.302C90.0018 117.232 90.089 117.188 90.1832 117.178C95.5796 117.072 103.66 116.364 111.512 113.513C111.607 113.478 111.711 113.482 111.802 113.525C111.894 113.567 111.964 113.644 111.999 113.739C112.033 113.833 112.029 113.938 111.987 114.029C111.944 114.12 111.867 114.191 111.773 114.225C103.819 117.105 95.6529 117.838 90.1873 117.944L90.1832 117.94Z" fill="black"/>
<path d="M137.877 51.46C137.804 51.4605 137.731 51.4392 137.67 51.3989C124.026 42.39 107.271 33.4422 92.8411 27.4634C92.748 27.4246 92.674 27.3507 92.6351 27.2577C92.5962 27.1646 92.5956 27.06 92.6334 26.9665C92.6525 26.9205 92.6806 26.8786 92.716 26.8434C92.7513 26.8082 92.7933 26.7804 92.8395 26.7614C92.8857 26.7425 92.9351 26.7329 92.985 26.7332C93.0349 26.7334 93.0843 26.7435 93.1302 26.7629C107.601 32.758 124.409 41.7302 138.085 50.7635C138.154 50.8081 138.206 50.8736 138.234 50.9504C138.263 51.0272 138.265 51.1111 138.242 51.1895C138.218 51.2679 138.17 51.3366 138.105 51.3853C138.039 51.4341 137.959 51.4603 137.877 51.46Z" fill="black"/>
<path d="M128.777 39.7017C128.692 39.7012 128.609 39.6741 128.54 39.6243C122.024 34.5293 113.728 29.1248 107.448 25.8503C107.403 25.8273 107.364 25.7958 107.332 25.7576C107.3 25.7194 107.275 25.6751 107.26 25.6275C107.245 25.5798 107.239 25.5297 107.244 25.4799C107.248 25.4301 107.262 25.3816 107.285 25.3372C107.308 25.2928 107.339 25.2534 107.378 25.2211C107.416 25.1889 107.46 25.1646 107.508 25.1494C107.555 25.1343 107.606 25.1287 107.655 25.133C107.705 25.1372 107.754 25.1513 107.798 25.1743C114.119 28.4691 122.46 33.9021 129.009 39.0216C129.048 39.0522 129.081 39.0904 129.106 39.1338C129.131 39.1773 129.146 39.2252 129.152 39.2748C129.159 39.3244 129.155 39.3747 129.141 39.4228C129.128 39.4709 129.105 39.5158 129.074 39.5551C129.039 39.6009 128.994 39.638 128.943 39.6635C128.891 39.6889 128.834 39.702 128.777 39.7017Z" fill="black"/>
<path d="M132.576 112.958C132.524 112.957 132.473 112.946 132.425 112.926C132.379 112.906 132.338 112.877 132.303 112.841C132.269 112.805 132.241 112.763 132.223 112.716C132.205 112.67 132.196 112.62 132.197 112.57C132.198 112.52 132.21 112.471 132.23 112.425C132.499 111.822 132.816 110.995 133.183 110.038C134.058 107.754 135.15 104.911 136.368 103.029C137.797 100.818 140.241 99.9257 143.071 98.8953C144.605 98.3707 146.101 97.7448 147.551 97.0219C147.596 96.9986 147.644 96.9843 147.693 96.9797C147.743 96.975 147.793 96.9803 147.841 96.995C147.889 97.0098 147.933 97.0338 147.971 97.0656C148.01 97.0975 148.041 97.1366 148.065 97.1807C148.088 97.2248 148.102 97.2731 148.107 97.3228C148.111 97.3724 148.106 97.4225 148.091 97.4702C148.077 97.5178 148.053 97.5621 148.021 97.6005C147.989 97.6389 147.95 97.6706 147.906 97.6939C146.422 98.4342 144.89 99.0737 143.32 99.6081C140.62 100.594 138.286 101.445 136.991 103.445C135.822 105.257 134.747 108.059 133.879 110.311C133.509 111.276 133.187 112.111 132.914 112.73C132.883 112.795 132.835 112.85 132.776 112.89C132.716 112.93 132.647 112.954 132.576 112.958Z" fill="black"/>
<path d="M139.117 121.495C139.046 121.492 138.978 121.471 138.918 121.434C138.858 121.397 138.808 121.345 138.775 121.283C137.675 119.084 133.224 114.644 130.222 113.736C130.174 113.722 130.13 113.698 130.092 113.666C130.053 113.635 130.021 113.596 129.998 113.552C129.974 113.508 129.96 113.46 129.955 113.411C129.95 113.361 129.955 113.311 129.969 113.264C129.984 113.216 130.008 113.172 130.039 113.133C130.071 113.095 130.109 113.063 130.153 113.04C130.197 113.016 130.245 113.002 130.295 112.997C130.344 112.992 130.394 112.997 130.442 113.011C133.663 113.985 138.27 118.575 139.451 120.945C139.48 121.003 139.494 121.067 139.491 121.132C139.489 121.196 139.469 121.259 139.435 121.314C139.402 121.369 139.354 121.415 139.298 121.447C139.241 121.478 139.177 121.495 139.113 121.495H139.117Z" fill="black"/>
<path d="M137.568 124.827C137.518 124.827 137.468 124.817 137.422 124.797C137.376 124.778 137.334 124.749 137.299 124.713C137.263 124.678 137.235 124.636 137.215 124.59C137.196 124.543 137.186 124.494 137.186 124.444C137.186 124.394 137.196 124.344 137.215 124.298C137.235 124.252 137.263 124.21 137.299 124.175C142.671 118.799 144.667 112.564 146.544 105.558C146.923 104.149 147.216 102.964 147.461 101.954C148.568 97.4455 148.866 96.2319 152.466 93.9145C153.114 93.5072 153.835 93.0063 154.604 92.4849C159.129 89.4182 164.766 85.5979 167.384 87.8665C167.422 87.8992 167.454 87.9391 167.476 87.9839C167.498 88.0288 167.512 88.0776 167.515 88.1276C167.519 88.1776 167.512 88.2278 167.496 88.2752C167.48 88.3227 167.454 88.3665 167.421 88.4041C167.389 88.4419 167.349 88.4729 167.305 88.4953C167.26 88.5176 167.212 88.5309 167.162 88.5343C167.112 88.5377 167.063 88.5312 167.015 88.5152C166.968 88.4991 166.925 88.4738 166.888 88.4407C164.705 86.555 159.113 90.3467 155.032 93.1162C154.258 93.6375 153.529 94.1303 152.877 94.5539C149.534 96.7084 149.302 97.6451 148.202 102.137C147.953 103.151 147.66 104.341 147.281 105.754C145.371 112.869 143.343 119.194 137.837 124.713C137.802 124.749 137.76 124.777 137.714 124.797C137.668 124.816 137.618 124.826 137.568 124.827Z" fill="black"/>
<path d="M160.522 109.537C160.88 115.239 163.731 119.226 166.749 123.466C168.17 125.382 169.479 127.378 170.671 129.445C172.622 132.955 173.172 136.429 173.754 140.103C174.043 142.16 174.444 144.199 174.956 146.212C175.513 148.061 176.193 149.871 176.992 151.629C178.214 154.48 179.46 157.416 179.631 160.471C180.226 171.264 169.539 205.422 163.633 223.981H164.448C170.37 205.328 180.991 171.312 180.389 160.446C180.214 157.257 178.931 154.252 177.688 151.344C176.905 149.617 176.238 147.84 175.693 146.025C175.188 144.039 174.793 142.026 174.508 139.997C173.942 136.417 173.355 132.715 171.343 129.086C170.133 126.996 168.808 124.976 167.372 123.034C164.419 118.888 161.63 114.974 161.288 109.5C161.255 108.983 161.202 108.49 161.153 108.006C160.933 105.88 160.746 104.043 162.326 101.257C163.088 100.064 163.98 98.9588 164.986 97.9624C166.207 96.6592 167.429 95.3152 168.203 93.8245C169.185 91.9022 169.457 89.3038 167.279 87.7928C167.196 87.7356 167.094 87.7135 166.995 87.7314C166.896 87.7494 166.808 87.8059 166.751 87.8885C166.694 87.9712 166.672 88.0731 166.69 88.1721C166.708 88.271 166.764 88.3587 166.847 88.4159C169.083 89.9677 167.93 92.6842 167.527 93.4784C166.814 94.8753 165.601 96.1826 164.428 97.4452C163.38 98.4842 162.453 99.6371 161.662 100.883C159.96 103.88 160.172 105.925 160.396 108.087C160.44 108.556 160.489 109.04 160.522 109.537Z" fill="black"/>
<path d="M118.598 134.38C119.239 135.002 119.844 135.66 120.41 136.351C120.962 137.092 121.393 137.917 121.685 138.795C122.053 139.901 122.634 140.925 123.395 141.808C125.252 143.845 127.631 146.085 129.932 148.264C132.6 150.789 135.361 153.403 137.43 155.77C139.092 157.672 141.604 160.539 142.48 165.573C143.339 170.501 141.824 175.278 141.095 177.571C140.036 180.911 125.542 210.153 118.15 224H119.009C126.23 210.442 140.647 181.501 141.816 177.803C142.562 175.449 144.113 170.554 143.225 165.442C142.313 160.201 139.719 157.232 138 155.261C135.903 152.866 133.113 150.243 130.449 147.702C128.16 145.535 125.79 143.291 123.933 141.283C123.236 140.469 122.706 139.527 122.373 138.509C122.053 137.563 121.584 136.674 120.984 135.874C120.401 135.161 119.779 134.481 119.119 133.838C117.73 132.433 116.529 131.219 116.113 128.877C115.706 126.466 116.321 123.925 116.928 121.465C117.042 121.013 117.152 120.565 117.254 120.125C118.044 116.741 119.86 109.842 120.952 105.94C122.316 101.077 123.542 99.4235 126.922 97.7944C126.967 97.7732 127.008 97.7434 127.042 97.7066C127.075 97.6698 127.101 97.6267 127.118 97.5798C127.135 97.5329 127.143 97.4831 127.141 97.4333C127.139 97.3834 127.127 97.3345 127.105 97.2893C127.084 97.2441 127.055 97.2035 127.018 97.1699C126.981 97.1362 126.938 97.1101 126.891 97.0931C126.844 97.0761 126.794 97.0685 126.744 97.0707C126.695 97.0729 126.646 97.0849 126.6 97.1061C123.012 98.8003 121.64 100.649 120.218 105.716C119.123 109.63 117.306 116.541 116.512 119.938C116.41 120.374 116.301 120.818 116.191 121.266C115.563 123.803 114.912 126.426 115.376 129.004C115.84 131.582 117.18 132.934 118.598 134.38Z" fill="black"/>
<path d="M138.489 120.317H138.412C138.313 120.296 138.227 120.238 138.171 120.154C138.116 120.07 138.095 119.968 138.115 119.869C138.632 117.291 140.391 111.931 141.507 109.215C142.22 107.476 143.075 106.975 144.154 106.343C145.182 105.787 146.12 105.079 146.936 104.242C146.971 104.206 147.012 104.177 147.058 104.158C147.104 104.138 147.153 104.127 147.203 104.127C147.253 104.126 147.303 104.135 147.349 104.153C147.395 104.172 147.438 104.199 147.474 104.234C147.509 104.269 147.538 104.31 147.558 104.356C147.578 104.402 147.588 104.451 147.589 104.501C147.59 104.551 147.581 104.6 147.562 104.647C147.544 104.693 147.517 104.736 147.482 104.771C146.622 105.656 145.637 106.41 144.558 107.007C143.527 107.61 142.843 108.009 142.228 109.512C141.124 112.2 139.377 117.486 138.876 120.028C138.855 120.114 138.805 120.189 138.735 120.242C138.664 120.295 138.577 120.321 138.489 120.317Z" fill="black"/>
<path d="M169.469 107.094C167.73 107.094 165.779 105.566 163.877 104.076C163.062 103.448 162.248 102.805 161.478 102.296C161.432 102.272 161.391 102.238 161.358 102.197C161.325 102.156 161.301 102.108 161.288 102.057C161.275 102.007 161.272 101.954 161.28 101.902C161.288 101.85 161.307 101.8 161.335 101.756C161.364 101.712 161.401 101.674 161.445 101.645C161.488 101.616 161.538 101.596 161.589 101.587C161.641 101.578 161.694 101.58 161.745 101.593C161.796 101.605 161.844 101.629 161.885 101.661C162.7 102.186 163.515 102.842 164.329 103.477C166.773 105.407 169.115 107.228 170.764 105.835C171.125 105.55 171.421 105.191 171.632 104.782C171.842 104.373 171.963 103.924 171.986 103.465C172.051 101.799 170.935 99.7667 168.752 97.5838C168.681 97.5125 168.641 97.4158 168.641 97.315C168.641 97.2141 168.681 97.1174 168.752 97.0462C168.823 96.9749 168.92 96.9348 169.021 96.9348C169.122 96.9348 169.218 96.9749 169.29 97.0462C171.627 99.3839 172.821 101.616 172.743 103.497C172.719 104.062 172.573 104.615 172.316 105.118C172.059 105.621 171.696 106.063 171.253 106.413C170.761 106.849 170.126 107.091 169.469 107.094Z" fill="black"/>
<path d="M90.734 98.1085C90.6396 98.1089 90.5484 98.0741 90.4784 98.0108C90.4083 97.9475 90.3644 97.8603 90.3553 97.7664L87.5369 69.1513C87.5272 69.0509 87.5578 68.9507 87.622 68.8728C87.6861 68.7949 87.7786 68.7456 87.879 68.7359C87.9795 68.7262 88.0797 68.7568 88.1576 68.8209C88.2355 68.8851 88.2847 68.9776 88.2945 69.078L91.0761 97.3469L149.214 96.9111C149.309 96.9208 149.396 96.9652 149.459 97.0355C149.523 97.1058 149.558 97.1972 149.558 97.2919C149.558 97.3866 149.523 97.4779 149.459 97.5483C149.396 97.6186 149.309 97.6629 149.214 97.6727L90.734 98.1085Z" fill="black"/>
<path d="M165.155 97.7262C165.055 97.7262 164.959 97.6862 164.887 97.6152C164.816 97.5442 164.777 97.4478 164.777 97.3474C164.777 97.2469 164.816 97.1506 164.887 97.0796C164.959 97.0085 165.055 96.9686 165.155 96.9686C165.469 96.9686 196.723 96.3455 211.409 95.7957C217.278 95.5758 221.155 95.2051 223.562 94.9445C225.025 94.7856 225.363 94.5168 225.42 94.4517C225.293 94.3546 225.157 94.2714 225.012 94.2032C224.585 94.02 180.505 74.9433 145.545 63.2912C123.007 55.777 91.9479 44.1493 87.419 42.4347L88.1032 51.6309C88.1071 51.6807 88.1011 51.7307 88.0856 51.7782C88.0701 51.8256 88.0453 51.8696 88.0128 51.9074C87.9802 51.9452 87.9405 51.9763 87.8959 51.9987C87.8514 52.0212 87.8028 52.0346 87.753 52.0382C87.703 52.0432 87.6525 52.0381 87.6046 52.023C87.5567 52.0079 87.5123 51.9832 87.4742 51.9504C87.4361 51.9177 87.4051 51.8775 87.383 51.8324C87.3609 51.7873 87.3482 51.7381 87.3457 51.688L86.6167 41.9134C86.611 41.8501 86.622 41.7863 86.6484 41.7285C86.6748 41.6707 86.7158 41.6207 86.7674 41.5835C86.8186 41.5451 86.8786 41.5201 86.9419 41.5109C87.0052 41.5016 87.0698 41.5084 87.1299 41.5305C87.472 41.6609 121.557 54.5104 145.777 62.5866C180.77 74.2509 224.882 93.3357 225.322 93.5394C226.104 93.9181 226.21 94.3336 226.161 94.6146C226.059 95.197 225.253 95.5513 223.628 95.7264C221.212 95.9912 217.315 96.3618 211.409 96.5817C196.739 97.099 165.477 97.7262 165.163 97.7262H165.155Z" fill="black"/>
<path d="M225.328 94.7C225.292 94.7059 225.255 94.7059 225.218 94.7L224.139 94.366L217.668 94.4149L98.2875 75.8351C98.2369 75.8272 98.1885 75.8092 98.145 75.7821L67.2207 56.6891C67.159 56.6515 67.1093 56.597 67.0775 56.5321C67.0458 56.4671 67.0333 56.3944 67.0415 56.3226C67.05 56.2508 67.0785 56.1829 67.1239 56.1267C67.1693 56.0705 67.2297 56.0283 67.2981 56.0049L84.0656 50.2827C84.1421 50.2563 84.2252 50.2563 84.3018 50.2827L224.253 93.5881C224.339 93.5871 224.422 93.6159 224.489 93.6696L225.422 93.9547C225.507 93.9835 225.58 94.0415 225.626 94.1184C225.673 94.1953 225.691 94.2862 225.678 94.3752C225.664 94.4641 225.619 94.5454 225.552 94.6048C225.484 94.6642 225.398 94.6979 225.308 94.7H225.328ZM98.4708 75.0979L217.725 93.6533L221.744 93.6207L84.2162 51.0403L68.3326 56.4651L98.4708 75.0979Z" fill="black"/>
</svg>
