<svg width="401" height="247" viewBox="0 0 401 247" fill="none" xmlns="http://www.w3.org/2000/svg">
<path opacity="0.6" d="M0 76.5889L104.946 76.5888L137.158 44.2432L206.794 44.2432" stroke="#FF0066" stroke-miterlimit="10"/>
<path opacity="0.6" d="M206.659 40.3675C207.168 40.3675 207.672 40.4678 208.142 40.6626C208.612 40.8573 209.04 41.1428 209.399 41.5028C209.759 41.8627 210.045 42.29 210.24 42.7603C210.435 43.2306 210.535 43.7346 210.535 44.2436C210.642 44.8221 210.62 45.4171 210.471 45.9863C210.323 46.5556 210.05 47.0851 209.674 47.5373C209.298 47.9896 208.827 48.3535 208.294 48.6032C207.761 48.853 207.18 48.9824 206.592 48.9824C206.003 48.9824 205.422 48.853 204.89 48.6032C204.357 48.3535 203.886 47.9896 203.509 47.5373C203.133 47.0851 202.861 46.5556 202.712 45.9863C202.564 45.4171 202.542 44.8221 202.649 44.2436C202.649 43.7231 202.753 43.208 202.956 42.7288C203.159 42.2496 203.457 41.8162 203.831 41.4544C204.205 41.0927 204.648 40.81 205.134 40.6233C205.62 40.4365 206.138 40.3495 206.659 40.3675Z" fill="#FF0066"/>
<path opacity="0.6" d="M-1.18017e-05 93.9629L135.287 93.9628L168.167 126.709L238.472 126.709L273.223 161.461L324.147 161.461" stroke="#FF0066" stroke-miterlimit="10"/>
<path opacity="0.6" d="M323.882 157.454C324.461 157.347 325.056 157.368 325.625 157.517C326.194 157.666 326.724 157.938 327.176 158.314C327.628 158.69 327.992 159.162 328.242 159.694C328.492 160.227 328.621 160.808 328.621 161.396C328.621 161.985 328.492 162.566 328.242 163.099C327.992 163.631 327.628 164.102 327.176 164.479C326.724 164.855 326.194 165.127 325.625 165.276C325.056 165.425 324.461 165.446 323.882 165.339C322.961 165.169 322.128 164.681 321.529 163.961C320.93 163.241 320.602 162.333 320.602 161.396C320.602 160.459 320.93 159.552 321.529 158.832C322.128 158.112 322.961 157.624 323.882 157.454Z" fill="#FF0066"/>
<path opacity="0.6" d="M0.499997 114.947L129.137 114.947L159.077 144.887L396.991 144.887" stroke="#FF0066" stroke-miterlimit="10"/>
<path opacity="0.6" d="M396.859 141.011C397.663 140.985 398.456 141.2 399.135 141.631C399.815 142.061 400.349 142.686 400.669 143.423C400.989 144.161 401.08 144.978 400.929 145.769C400.779 146.559 400.394 147.285 399.826 147.854C399.257 148.423 398.53 148.807 397.74 148.958C396.95 149.108 396.133 149.017 395.395 148.697C394.657 148.377 394.033 147.843 393.602 147.164C393.172 146.484 392.956 145.691 392.983 144.887C392.983 143.859 393.391 142.873 394.118 142.146C394.845 141.419 395.831 141.011 396.859 141.011Z" fill="#FF0066"/>
<path opacity="0.6" d="M169.902 93.9648L290.597 93.9648" stroke="#FF0066" stroke-miterlimit="10"/>
<path opacity="0.6" d="M170.173 90.0866C172.314 90.0866 174.049 91.822 174.049 93.9628C174.049 96.1035 172.314 97.8389 170.173 97.8389C168.032 97.8389 166.297 96.1035 166.297 93.9628C166.297 91.822 168.032 90.0866 170.173 90.0866Z" fill="#FF0066"/>
<path opacity="0.6" d="M-1.43724e-05 131.924L109.356 131.924L191.557 214.125L243.417 214.125" stroke="#FF0066" stroke-miterlimit="10"/>
<path opacity="0.6" d="M243.15 210.116C244.202 210.15 245.203 210.583 245.948 211.328C246.693 212.072 247.126 213.073 247.159 214.126C247.125 215.166 246.687 216.152 245.939 216.875C245.19 217.598 244.19 218.003 243.15 218.002C242.122 218.002 241.136 217.594 240.409 216.867C239.682 216.14 239.273 215.154 239.273 214.126C239.273 213.085 239.677 212.085 240.4 211.337C241.124 210.588 242.109 210.151 243.15 210.116Z" fill="#FF0066"/>
<path opacity="0.6" d="M-3.45873e-06 155.179L90.9115 155.179L110.56 174.961L214.012 174.961" stroke="#FF0066" stroke-miterlimit="10"/>
<path opacity="0.6" d="M213.743 171.085C214.51 171.085 215.259 171.312 215.897 171.738C216.534 172.164 217.031 172.769 217.324 173.477C217.618 174.186 217.695 174.965 217.545 175.717C217.395 176.469 217.026 177.16 216.484 177.702C215.942 178.244 215.251 178.613 214.5 178.762C213.748 178.912 212.968 178.835 212.26 178.542C211.552 178.248 210.946 177.752 210.52 177.114C210.095 176.477 209.867 175.727 209.867 174.961C209.867 173.933 210.276 172.947 211.003 172.22C211.729 171.493 212.715 171.085 213.743 171.085Z" fill="#FF0066"/>
<path opacity="0.6" d="M-1.08669e-05 180.307L62.4422 180.307L124.594 242.459L179.261 242.459" stroke="#FF0066" stroke-miterlimit="10"/>
<path opacity="0.6" d="M178.595 238.584C179.636 238.583 180.636 238.987 181.384 239.711C182.132 240.434 182.57 241.42 182.605 242.46C182.571 243.513 182.138 244.513 181.393 245.258C180.648 246.003 179.648 246.436 178.595 246.47C177.555 246.435 176.569 245.997 175.846 245.249C175.122 244.501 174.718 243.501 174.719 242.46C174.719 241.432 175.127 240.446 175.854 239.719C176.581 238.992 177.567 238.584 178.595 238.584Z" fill="#FF0066"/>
<path opacity="0.6" d="M0.691406 40.1006L80.3525 40.1006L116.574 3.87881L141.702 3.87881" stroke="#FF0066" stroke-miterlimit="10"/>
<path opacity="0.6" d="M141.437 0.0030991C142.241 -0.0232767 143.034 0.192657 143.713 0.622898C144.393 1.05314 144.927 1.67781 145.247 2.41571C145.567 3.1536 145.658 3.97063 145.507 4.7607C145.357 5.55078 144.972 6.27737 144.404 6.84608C143.835 7.41478 143.108 7.79931 142.318 7.94974C141.528 8.10017 140.711 8.00953 139.973 7.68961C139.235 7.36968 138.611 6.83527 138.181 6.15576C137.75 5.47625 137.534 4.68302 137.561 3.87919C137.561 3.37017 137.661 2.86615 137.856 2.39587C138.051 1.9256 138.336 1.49831 138.696 1.13838C139.056 0.778447 139.483 0.492904 139.954 0.298111C140.424 0.103317 140.928 0.00309915 141.437 0.0030991Z" fill="#FF0066"/>
</svg>
