<svg width="400" height="247" viewBox="0 0 400 247" fill="none" xmlns="http://www.w3.org/2000/svg">
<path opacity="0.6" d="M400 76.7051L295.316 76.7051L263.184 44.4401L193.721 44.4401" stroke="#7030A0" stroke-miterlimit="10"/>
<path opacity="0.6" d="M193.855 40.5738C193.348 40.5738 192.845 40.6738 192.376 40.8681C191.907 41.0624 191.48 41.3472 191.121 41.7062C190.762 42.0653 190.478 42.4915 190.283 42.9606C190.089 43.4297 189.989 43.9325 189.989 44.4402C189.882 45.0173 189.904 45.6108 190.052 46.1786C190.201 46.7464 190.472 47.2746 190.847 47.7257C191.223 48.1769 191.693 48.5399 192.224 48.789C192.756 49.0381 193.335 49.1672 193.922 49.1672C194.509 49.1672 195.089 49.0381 195.62 48.789C196.151 48.5399 196.621 48.1769 196.997 47.7257C197.372 47.2746 197.644 46.7464 197.792 46.1786C197.94 45.6108 197.962 45.0173 197.855 44.4402C197.856 43.9211 197.751 43.4072 197.549 42.9292C197.346 42.4512 197.049 42.0189 196.676 41.658C196.303 41.2972 195.861 41.0152 195.376 40.8289C194.891 40.6427 194.374 40.5559 193.855 40.5738Z" fill="#7030A0"/>
<path opacity="0.6" d="M400 94.0355L265.051 94.0355L232.253 126.7L162.123 126.7L127.458 161.365L76.661 161.365" stroke="#7030A0" stroke-miterlimit="10"/>
<path opacity="0.6" d="M76.9266 157.368C76.3495 157.261 75.7561 157.283 75.1883 157.431C74.6205 157.579 74.0923 157.851 73.6411 158.226C73.19 158.601 72.827 159.071 72.5779 159.603C72.3287 160.134 72.1997 160.714 72.1997 161.301C72.1997 161.888 72.3287 162.467 72.5779 162.999C72.827 163.53 73.19 164 73.6411 164.375C74.0923 164.751 74.6205 165.022 75.1883 165.171C75.7561 165.319 76.3495 165.341 76.9266 165.234C77.8457 165.064 78.6763 164.578 79.2741 163.859C79.8719 163.141 80.1992 162.235 80.1992 161.301C80.1992 160.366 79.8719 159.461 79.2741 158.742C78.6763 158.024 77.8457 157.538 76.9266 157.368Z" fill="#7030A0"/>
<path opacity="0.6" d="M399.5 114.968L271.184 114.968L241.319 144.833L3.99777 144.833" stroke="#7030A0" stroke-miterlimit="10"/>
<path opacity="0.6" d="M4.13137 140.966C3.32954 140.94 2.53839 141.155 1.86058 141.584C1.18276 142.014 0.649633 142.637 0.330507 143.373C0.0113807 144.109 -0.0790361 144.924 0.0710194 145.712C0.221075 146.5 0.60465 147.225 1.17193 147.792C1.73922 148.359 2.464 148.743 3.25211 148.893C4.04021 149.043 4.8552 148.953 5.59126 148.634C6.32731 148.314 6.95043 147.781 7.37959 147.104C7.80876 146.426 8.02416 145.634 7.99785 144.833C7.99785 143.807 7.5905 142.824 6.8654 142.099C6.1403 141.374 5.15682 140.966 4.13137 140.966Z" fill="#7030A0"/>
<path opacity="0.6" d="M230.52 94.0381L110.126 94.0381" stroke="#7030A0" stroke-miterlimit="10"/>
<path opacity="0.6" d="M230.251 90.1687C228.115 90.1687 226.384 91.8998 226.384 94.0352C226.384 96.1706 228.115 97.9016 230.251 97.9016C232.386 97.9016 234.117 96.1706 234.117 94.0352C234.117 91.8998 232.386 90.1687 230.251 90.1687Z" fill="#7030A0"/>
<path opacity="0.6" d="M400 131.903L290.916 131.903L208.921 213.898L157.19 213.898" stroke="#7030A0" stroke-miterlimit="10"/>
<path opacity="0.6" d="M157.458 209.899C156.408 209.932 155.409 210.364 154.666 211.107C153.923 211.85 153.491 212.848 153.458 213.899C153.493 214.936 153.929 215.92 154.676 216.641C155.422 217.363 156.42 217.766 157.458 217.765C158.483 217.765 159.467 217.358 160.192 216.633C160.917 215.908 161.324 214.924 161.324 213.899C161.325 212.861 160.922 211.863 160.2 211.117C159.479 210.37 158.495 209.934 157.458 209.899Z" fill="#7030A0"/>
<path opacity="0.6" d="M400 155.099L309.315 155.099L289.716 174.831L186.522 174.831" stroke="#7030A0" stroke-miterlimit="10"/>
<path opacity="0.6" d="M186.79 170.965C186.025 170.965 185.277 171.192 184.642 171.617C184.006 172.042 183.51 172.646 183.218 173.352C182.925 174.059 182.848 174.836 182.998 175.586C183.147 176.336 183.515 177.025 184.056 177.566C184.596 178.107 185.285 178.475 186.035 178.624C186.785 178.773 187.563 178.697 188.269 178.404C188.976 178.111 189.58 177.616 190.005 176.98C190.429 176.344 190.656 175.596 190.656 174.832C190.656 173.806 190.249 172.823 189.524 172.098C188.799 171.373 187.815 170.965 186.79 170.965Z" fill="#7030A0"/>
<path opacity="0.6" d="M400 180.165L337.713 180.165L275.717 242.162L221.186 242.162" stroke="#7030A0" stroke-miterlimit="10"/>
<path opacity="0.6" d="M221.852 238.296C220.814 238.295 219.817 238.698 219.07 239.42C218.324 240.141 217.887 241.125 217.852 242.162C217.886 243.213 218.318 244.211 219.061 244.954C219.804 245.697 220.802 246.129 221.852 246.162C222.89 246.128 223.873 245.691 224.595 244.944C225.316 244.198 225.719 243.2 225.719 242.162C225.719 241.137 225.311 240.153 224.586 239.428C223.861 238.703 222.878 238.296 221.852 238.296Z" fill="#7030A0"/>
<path opacity="0.6" d="M399.309 40.3071L319.846 40.3071L283.715 4.1757L258.649 4.1757" stroke="#7030A0" stroke-miterlimit="10"/>
<path opacity="0.6" d="M258.917 0.30947C258.115 0.28316 257.324 0.498555 256.646 0.927723C255.968 1.35689 255.435 1.98 255.116 2.71606C254.797 3.45212 254.706 4.26711 254.856 5.05521C255.006 5.84331 255.39 6.5681 255.957 7.13538C256.524 7.70267 257.249 8.08624 258.037 8.2363C258.825 8.38635 259.64 8.29594 260.376 7.97681C261.112 7.65768 261.736 7.12461 262.165 6.44679C262.594 5.76897 262.809 4.97772 262.783 4.17589C262.783 3.66814 262.683 3.16538 262.489 2.69628C262.294 2.22718 262.01 1.80095 261.651 1.44192C261.292 1.08288 260.865 0.798053 260.396 0.603745C259.927 0.409437 259.424 0.30947 258.917 0.30947Z" fill="#7030A0"/>
</svg>
