<svg width="660" height="403" viewBox="0 0 660 403" fill="none" xmlns="http://www.w3.org/2000/svg">
<path d="M86.6915 90.8283C86.538 89.3074 85.825 87.8979 84.6908 86.873C83.5567 85.8482 82.0823 85.2812 80.5537 85.2821C79.9276 85.279 79.3045 85.3693 78.705 85.5501C78.565 83.549 77.8937 81.6214 76.7604 79.9661C75.6272 78.3109 74.0729 76.9879 72.2578 76.1336C70.4428 75.2793 68.4327 74.9246 66.4349 75.1061C64.4371 75.2876 62.5238 75.9987 60.8924 77.1661C59.5411 75.0101 57.6022 73.285 55.3036 72.1936C53.0051 71.1023 50.4427 70.6901 47.9179 71.0057C45.393 71.3213 43.0109 72.3515 41.0517 73.9751C39.0926 75.5987 37.6379 77.748 36.8589 80.1703C35.5462 79.2249 34.0163 78.6257 32.4107 78.4281C30.8051 78.2305 29.1756 78.4408 27.6729 79.0397C26.1701 79.6386 24.8426 80.6067 23.813 81.8545C22.7834 83.1023 22.0851 84.5895 21.7825 86.1787C20.8939 85.6478 19.8863 85.3484 18.8521 85.308C17.8178 85.2676 16.7899 85.4875 15.8626 85.9474C14.9354 86.4074 14.1384 87.0927 13.5448 87.9406C12.9511 88.7885 12.5798 89.7719 12.4648 90.8005L86.6915 90.8283Z" fill="#B4DDFB"/>
<path d="M406.217 44.4344C405.369 43.1504 404.216 42.0967 402.861 41.3676C401.506 40.6385 399.991 40.2566 398.452 40.2562C397.27 40.2549 396.099 40.4842 395.004 40.931C394.642 37.6632 393.291 34.5837 391.133 32.1037C388.974 29.6237 386.111 27.8612 382.924 27.0515C379.738 26.2418 376.38 26.4234 373.299 27.5722C370.219 28.721 367.562 30.7822 365.683 33.4806C363.941 32.4708 361.995 31.8637 359.988 31.7038C357.98 31.5438 355.963 31.8351 354.083 32.5562C353.296 29.4391 351.81 26.5419 349.738 24.084C347.666 21.6261 345.061 19.6721 342.122 18.3698C339.183 17.0676 335.986 16.4514 332.773 16.5679C329.56 16.6843 326.416 17.5304 323.579 19.042C321.148 12.6002 316.536 7.21436 310.545 3.82157C304.554 0.428777 297.563 -0.756242 290.788 0.472691C284.014 1.70162 277.884 5.26673 273.467 10.5477C269.049 15.8287 266.623 22.4913 266.61 29.3764C263.902 27.5305 260.698 26.5509 257.421 26.5674C254.144 26.5839 250.95 27.5958 248.261 29.4689C246.334 25.7388 243.292 22.7028 239.557 20.7836C235.823 18.8644 231.584 18.1578 227.429 18.762C223.274 19.3663 219.412 21.2515 216.379 24.1548C213.346 27.0582 211.295 30.8352 210.51 34.9596C208.836 34.1598 207.004 33.746 205.149 33.7487C202.14 33.7491 199.232 34.8301 196.953 36.7947C194.675 38.7594 193.177 41.4771 192.734 44.4529L406.217 44.4344Z" fill="#B4DDFB"/>
<path d="M446.449 125.575C447.627 123.787 449.387 122.461 451.43 121.821C453.473 121.181 455.674 121.266 457.662 122.063C458.024 118.795 459.375 115.715 461.533 113.235C463.692 110.755 466.555 108.993 469.742 108.183C472.929 107.373 476.286 107.555 479.367 108.704C482.448 109.853 485.104 111.914 486.983 114.612C488.724 113.599 490.67 112.99 492.678 112.83C494.686 112.67 496.704 112.963 498.584 113.688C499.369 110.57 500.854 107.672 502.926 105.213C504.998 102.754 507.602 100.799 510.541 99.4955C513.481 98.1923 516.678 97.5753 519.892 97.6912C523.105 97.8071 526.25 98.6529 529.088 100.164C531.519 93.7219 536.131 88.3356 542.123 84.9429C548.115 81.5501 555.107 80.3658 561.883 81.596C568.658 82.8261 574.787 86.3928 579.204 91.6755C583.621 96.9581 586.046 103.622 586.056 110.508C588.761 108.656 591.967 107.673 595.245 107.689C598.523 107.706 601.719 108.721 604.405 110.6C606.328 106.866 609.368 103.824 613.103 101.901C616.837 99.9774 621.079 99.268 625.236 99.8716C629.394 100.475 633.258 102.362 636.292 105.268C639.325 108.174 641.375 111.955 642.156 116.082C643.928 115.232 645.876 114.811 647.841 114.853C649.806 114.895 651.733 115.398 653.468 116.322C655.202 117.246 656.695 118.565 657.826 120.172C658.957 121.78 659.694 123.63 659.978 125.575H446.449Z" fill="#B4DDFB"/>
<path d="M639.356 241.62C618.53 234.956 589.376 267.882 574.235 315.181C562.735 351.093 562.634 384.943 572.386 402.072H613.622C627.441 389.214 640.891 366.659 649.672 339.298C664.776 292.026 660.173 248.285 639.356 241.62Z" fill="#9BD0F5"/>
<path d="M588.455 402.091L636.716 251.354L635.838 251.077L587.484 402.091H588.455Z" fill="#B4DDFB"/>
<path d="M650.036 279.683L624.238 287.931L624.52 288.812L650.317 280.564L650.036 279.683Z" fill="#B4DDFB"/>
<path d="M625.774 355.424L599.977 363.672L600.258 364.552L626.056 356.304L625.774 355.424Z" fill="#B4DDFB"/>
<path d="M587.554 304.49L586.812 305.042L609.164 335.029L609.905 334.476L587.554 304.49Z" fill="#B4DDFB"/>
<path d="M577.499 379.257L576.758 379.809L589.397 396.766L590.138 396.214L577.499 379.257Z" fill="#B4DDFB"/>
<path d="M64.4805 401.924H103.443H103.572C115.45 385.452 112.973 345.39 102.176 302.897C88.9578 250.883 60.4318 213.64 38.4596 219.704C16.4874 225.768 9.37899 272.855 22.5974 324.897C31.6932 360.633 48.0453 389.408 64.4805 401.924Z" fill="#DDDDDD"/>
<path d="M41.7108 230.126L40.582 230.413L84.2124 402.083L85.3413 401.796L41.7108 230.126Z" fill="#B3B3B3"/>
<path d="M25.4034 260.215L24.9766 261.299L51.3198 271.676L51.7467 270.592L25.4034 260.215Z" fill="#B3B3B3"/>
<path d="M46.5675 343.467L46.1406 344.551L72.4839 354.928L72.9107 353.844L46.5675 343.467Z" fill="#B4DDFB"/>
<path d="M88.8439 290.555L64.0312 321.749L64.9428 322.474L89.7554 291.28L88.8439 290.555Z" fill="#B4DDFB"/>
<path d="M95.2977 372.034L81.2656 389.669L82.177 390.394L96.2091 372.76L95.2977 372.034Z" fill="#B4DDFB"/>
<path d="M179.547 195.162L191.979 197.796C200.095 194.468 200.437 176.406 196.25 156.847C191.859 136.27 180.952 121.166 171.893 123.107C162.834 125.048 159.063 143.286 163.463 163.853C166.559 178.366 172.9 190.152 179.547 195.162Z" fill="#DDDDDD"/>
<path d="M173.236 127.16L172.332 127.354L187.177 196.776L188.081 196.582L173.236 127.16Z" fill="#B4B4B4"/>
<path d="M165.911 138.458L165.543 139.306L176.065 143.876L176.433 143.028L165.911 138.458Z" fill="#B4B4B4"/>
<path d="M172.95 171.386L172.582 172.234L183.104 176.805L183.472 175.957L172.95 171.386Z" fill="#B4DDFB"/>
<path d="M190.886 151.575L180.207 163.278L180.89 163.901L191.569 152.198L190.886 151.575Z" fill="#B4B4B4"/>
<path d="M191.983 183.502L185.945 190.119L186.628 190.742L192.666 184.125L191.983 183.502Z" fill="#B4DDFB"/>
<path d="M405.618 167.81C410.637 151.171 406.256 135.124 395.838 131.889C385.42 128.653 372.895 139.496 367.876 156.098C364.326 167.81 365.473 179.253 370.104 186.121L381.936 194.265C392.02 196.049 400.848 183.589 405.618 167.81Z" fill="#DDDDDD"/>
<path d="M394.516 135.177L377.312 191.132L378.196 191.403L395.399 135.448L394.516 135.177Z" fill="#C4C4C4"/>
<path d="M385.559 140.556L384.824 141.117L390.566 148.631L391.301 148.069L385.559 140.556Z" fill="#C4C4C4"/>
<path d="M377.418 167.102L376.684 167.664L382.426 175.177L383.16 174.616L377.418 167.102Z" fill="#B4DDFB"/>
<path d="M398.188 160.017L385.797 164.146L386.089 165.023L398.481 160.894L398.188 160.017Z" fill="#C4C4C4"/>
<path d="M386.147 183.462L379.145 185.809L379.438 186.686L386.441 184.339L386.147 183.462Z" fill="#B4DDFB"/>
<path d="M185.903 245.974C179.376 235.991 178.341 215.405 184.229 193.193C191.929 164.131 208.55 143.277 221.343 146.706C234.136 150.136 238.268 176.406 230.586 205.468C226.889 219.417 221.139 231.443 214.743 239.827L185.903 245.974Z" fill="#B4DDFB"/>
<path d="M219.313 152.481L195.047 243.552L195.94 243.79L220.206 152.719L219.313 152.481Z" fill="#DEDEDE"/>
<path d="M228.906 169.222L213.566 175.018L213.893 175.883L229.233 170.087L228.906 169.222Z" fill="#DEDEDE"/>
<path d="M216.578 215.742L201.238 221.538L201.565 222.403L216.905 216.607L216.578 215.742Z" fill="#DEDEDE"/>
<path d="M192.513 185.62L191.801 186.212L206.295 203.65L207.007 203.058L192.513 185.62Z" fill="#DEDEDE"/>
<path d="M188.31 231.727L187.598 232.316L195.76 242.179L196.472 241.59L188.31 231.727Z" fill="#DEDEDE"/>
<path d="M578.504 290.344C571.978 280.351 570.943 259.766 576.831 237.553C584.531 208.491 601.142 187.684 613.935 191.076C626.728 194.468 630.86 220.767 623.179 249.829C619.481 263.777 613.732 275.803 607.335 284.187L578.504 290.344Z" fill="#B4DDFB"/>
<path d="M611.895 196.845L587.629 287.917L588.522 288.155L612.788 197.083L611.895 196.845Z" fill="#DEDEDE"/>
<path d="M621.488 213.562L606.148 219.358L606.475 220.223L621.815 214.426L621.488 213.562Z" fill="#DEDEDE"/>
<path d="M609.16 260.082L593.82 265.878L594.147 266.743L609.487 260.946L609.16 260.082Z" fill="#DEDEDE"/>
<path d="M584.685 230.519L583.973 231.108L598.414 248.553L599.127 247.963L584.685 230.519Z" fill="#DEDEDE"/>
<path d="M580.923 276.104L580.211 276.693L588.373 286.556L589.085 285.967L580.923 276.104Z" fill="#DEDEDE"/>
<path d="M68.7597 402.072C73.3815 389.981 69.8597 367.87 58.5917 345.639C43.8018 316.522 21.4691 298.192 8.67582 304.69C-4.11742 311.188 -2.60146 340.056 12.1607 369.174C19.2413 383.132 28.0783 394.612 36.7673 402.072H68.7597Z" fill="#B4DDFB"/>
<path d="M12.1277 310.352L11.0898 310.88L57.5338 402.071L58.5717 401.543L12.1277 310.352Z" fill="white"/>
<path d="M5.72225 330.229L5.54688 331.381L23.1472 334.062L23.3226 332.91L5.72225 330.229Z" fill="white"/>
<path d="M29.3551 376.858L29.1797 378.009L46.78 380.69L46.9554 379.538L29.3551 376.858Z" fill="white"/>
<path d="M48.5716 339.97L37.1914 361.766L38.2239 362.305L49.604 340.509L48.5716 339.97Z" fill="white"/>
<path d="M62.8876 387.448L56.4531 399.772L57.4856 400.311L63.9201 387.987L62.8876 387.448Z" fill="#DEDEDE"/>
<path d="M189.953 402.035C190.21 402.035 190.466 402.053 190.72 402.091C195.129 387.088 194.362 364.469 187.531 340.537C176.439 301.658 153.561 274.093 136.441 278.983C119.322 283.873 114.441 319.35 125.534 358.239C130.553 375.802 137.976 391.035 146.184 402.035H189.953Z" fill="#B4DDFB"/>
<path d="M172.549 402.035L139.383 286.674L137.996 287.072L171.042 402.035H172.549Z" fill="#DEDEDE"/>
<path d="M126.879 309.378L126.395 310.736L147.169 318.142L147.654 316.784L126.879 309.378Z" fill="#DEDEDE"/>
<path d="M144.64 371.579L144.156 372.938L164.932 380.34L165.416 378.981L144.64 371.579Z" fill="#DEDEDE"/>
<path d="M176.711 331.244L157.742 355.074L158.87 355.972L177.839 332.142L176.711 331.244Z" fill="#DEDEDE"/>
<path d="M177.103 402.035L184.072 393.281L182.935 392.385L175.254 402.035H177.103Z" fill="#DEDEDE"/>
<path d="M437.887 151.532H418.91V104.786H437.887V151.532ZM419.64 150.838H437.203V105.48H419.64V150.838Z" fill="#512944"/>
<path d="M592.589 66.009H437.046C428.648 66.009 421.84 72.8169 421.84 81.2149V386.885C421.84 395.283 428.648 402.09 437.046 402.09H592.589C600.987 402.09 607.795 395.283 607.795 386.885V81.2149C607.795 72.8169 600.987 66.009 592.589 66.009Z" fill="#0070C0"/>
<path d="M596.01 98.1494H433.645V360.42H596.01V98.1494Z" fill="white"/>
<path d="M526.165 82.9435H503.481C502.962 82.9085 502.475 82.6777 502.12 82.2975C501.764 81.9174 501.566 81.4164 501.566 80.896C501.566 80.3756 501.764 79.8746 502.12 79.4944C502.475 79.1143 502.962 78.8834 503.481 78.8485H526.165C526.684 78.8834 527.171 79.1143 527.526 79.4944C527.882 79.8746 528.079 80.3756 528.079 80.896C528.079 81.4164 527.882 81.9174 527.526 82.2975C527.171 82.6777 526.684 82.9085 526.165 82.9435ZM503.481 79.5418C503.141 79.5699 502.824 79.7247 502.593 79.9756C502.362 80.2265 502.234 80.555 502.234 80.896C502.234 81.237 502.362 81.5655 502.593 81.8164C502.824 82.0672 503.141 82.2221 503.481 82.2502H526.165C526.505 82.2221 526.822 82.0672 527.053 81.8164C527.283 81.5655 527.412 81.237 527.412 80.896C527.412 80.555 527.283 80.2265 527.053 79.9756C526.822 79.7247 526.505 79.5699 526.165 79.5418H503.481Z" fill="#512944"/>
<path d="M519.259 392.662H510.311C508.681 392.662 507.117 392.014 505.965 390.862C504.812 389.709 504.164 388.145 504.164 386.515V377.586C504.164 375.955 504.812 374.392 505.965 373.239C507.117 372.086 508.681 371.438 510.311 371.438H519.259C520.889 371.438 522.453 372.086 523.606 373.239C524.758 374.392 525.406 375.955 525.406 377.586V386.533C525.401 388.16 524.751 389.719 523.599 390.868C522.447 392.017 520.886 392.662 519.259 392.662ZM510.311 372.113C508.865 372.116 507.48 372.691 506.457 373.713C505.435 374.736 504.86 376.121 504.857 377.567V386.515C504.86 387.961 505.435 389.346 506.457 390.369C507.48 391.391 508.865 391.966 510.311 391.969H519.259C520.705 391.966 522.09 391.391 523.113 390.369C524.135 389.346 524.71 387.961 524.713 386.515V377.586C524.71 376.14 524.135 374.754 523.113 373.732C522.09 372.71 520.705 372.134 519.259 372.132L510.311 372.113Z" fill="#512944"/>
<path d="M517.94 388.364H511.645C510.801 388.364 509.992 388.029 509.396 387.432C508.8 386.836 508.465 386.027 508.465 385.184V378.889C508.467 378.047 508.803 377.241 509.399 376.646C509.995 376.052 510.803 375.718 511.645 375.718H517.94C518.78 375.721 519.585 376.056 520.179 376.65C520.773 377.244 521.108 378.049 521.11 378.889V385.184C521.11 386.026 520.776 386.833 520.182 387.429C519.588 388.025 518.781 388.361 517.94 388.364ZM511.645 376.412C510.987 376.412 510.356 376.672 509.89 377.137C509.424 377.601 509.161 378.231 509.158 378.889V385.184C509.161 385.843 509.423 386.474 509.889 386.939C510.355 387.405 510.986 387.668 511.645 387.67H517.94C518.597 387.668 519.228 387.405 519.692 386.939C520.156 386.473 520.417 385.842 520.417 385.184V378.889C520.417 378.232 520.156 377.602 519.691 377.137C519.227 376.673 518.597 376.412 517.94 376.412H511.645Z" fill="#512944"/>
<path d="M596.01 97.7981H433.645V98.4914H596.01V97.7981Z" fill="#512944"/>
<path d="M487.828 252.472H541.137V184.282H487.828V252.472Z" fill="#F69571"/>
<path d="M596 360.411V229.419C572.235 216.792 543.413 214.629 543.413 214.629L514.979 236.352L485.788 214.629C485.788 214.629 443.027 217.901 418.938 239.725V360.411H596Z" fill="#FFB1A5"/>
<path d="M481.664 169.982V176.073C481.664 187.11 489.983 196.049 500.364 196.049H528.187C538.744 196.049 547.294 186.907 547.294 175.639V169.973L481.664 169.982Z" fill="#512944"/>
<path d="M550.254 169.122V145.301C550.254 126.019 534.161 110.24 514.481 110.24C494.802 110.24 478.699 126.019 478.699 145.301V169.122H550.254Z" fill="#512944"/>
<path d="M487.82 202.584C505.966 220.443 532.504 209.619 541.129 192.37V177.201H487.82V202.584Z" fill="#E57553"/>
<path d="M545.335 176.184C552.186 176.184 557.74 170.63 557.74 163.779C557.74 156.928 552.186 151.374 545.335 151.374C538.484 151.374 532.93 156.928 532.93 163.779C532.93 170.63 538.484 176.184 545.335 176.184Z" fill="#F69571"/>
<path d="M483.397 176.184C490.248 176.184 495.802 170.63 495.802 163.779C495.802 156.928 490.248 151.374 483.397 151.374C476.546 151.374 470.992 156.928 470.992 163.779C470.992 170.63 476.546 176.184 483.397 176.184Z" fill="#F69571"/>
<path d="M545.115 142.223V176.166C545.093 184.284 541.858 192.063 536.118 197.803C530.378 203.543 522.599 206.778 514.481 206.8C506.363 206.778 498.584 203.543 492.844 197.803C487.104 192.063 483.87 184.284 483.848 176.166V142.223C483.848 137.921 485.555 133.794 488.595 130.749C491.635 127.704 495.758 125.989 500.061 125.982H528.846C530.981 125.978 533.096 126.396 535.07 127.21C537.043 128.025 538.837 129.221 540.348 130.729C541.859 132.238 543.058 134.029 543.876 136.002C544.694 137.974 545.115 140.088 545.115 142.223Z" fill="#F69571"/>
<path d="M545.113 176.175V167.8L547.295 176.027C546.574 176.145 545.843 176.195 545.113 176.175Z" fill="#E57553"/>
<path d="M483.846 176.175V167.8L481.664 176.073C482.386 176.176 483.117 176.21 483.846 176.175Z" fill="#E57553"/>
<path d="M473.789 156.44H475.73V146.984C475.73 126.204 493.108 109.297 514.47 109.297C535.833 109.297 553.211 126.204 553.211 146.984V156.44H555.152V146.984C555.152 125.169 536.905 107.411 514.48 107.411C492.055 107.411 473.808 125.169 473.808 146.984L473.789 156.44Z" fill="#80C7A7"/>
<path d="M536.51 117.191L538.775 114.132C531.65 109.15 523.167 106.479 514.474 106.479C505.78 106.479 497.297 109.15 490.172 114.132L492.446 117.182C498.903 112.661 506.595 110.236 514.478 110.236C522.361 110.236 530.053 112.661 536.51 117.182V117.191Z" fill="#80C7A7"/>
<path d="M561.327 174.631H562.353C564.829 174.631 566.836 172.624 566.836 170.148V157.346C566.836 154.87 564.829 152.863 562.353 152.863H561.327C558.851 152.863 556.844 154.87 556.844 157.346V170.148C556.844 172.624 558.851 174.631 561.327 174.631Z" fill="#FABE7E"/>
<path d="M556.918 178.782H549.523C548.925 178.782 548.351 178.544 547.928 178.121C547.505 177.698 547.267 177.125 547.267 176.526V150.931C547.267 150.345 547.5 149.783 547.915 149.369C548.329 148.954 548.891 148.721 549.477 148.721H556.872C557.975 148.721 559.033 149.16 559.813 149.94C560.593 150.72 561.031 151.778 561.031 152.881V174.622C561.031 175.717 560.599 176.769 559.829 177.547C559.059 178.326 558.013 178.77 556.918 178.782Z" fill="#80C7A7"/>
<path d="M467.607 152.872H466.581C464.105 152.872 462.098 154.879 462.098 157.355V170.158C462.098 172.633 464.105 174.641 466.581 174.641H467.607C470.083 174.641 472.09 172.633 472.09 170.158V157.355C472.09 154.879 470.083 152.872 467.607 152.872Z" fill="#FABE7E"/>
<path d="M472.013 148.721H479.408C479.994 148.721 480.556 148.954 480.97 149.369C481.384 149.783 481.617 150.345 481.617 150.931V176.379C481.617 177.018 481.363 177.632 480.911 178.085C480.458 178.537 479.844 178.791 479.205 178.791H471.976C470.873 178.791 469.815 178.353 469.035 177.573C468.255 176.793 467.816 175.735 467.816 174.631V152.881C467.816 152.332 467.925 151.788 468.137 151.281C468.348 150.774 468.658 150.313 469.048 149.927C469.438 149.54 469.901 149.234 470.41 149.027C470.919 148.821 471.464 148.717 472.013 148.721Z" fill="#80C7A7"/>
<path d="M557.193 148.721H556.5V178.782H557.193V148.721Z" fill="#512944"/>
<path d="M472.439 148.74H471.746V178.8H472.439V148.74Z" fill="#512944"/>
<path d="M548.682 187.24H522.477V186.547H548.682C549.763 186.574 550.81 186.172 551.595 185.429C552.38 184.685 552.838 183.661 552.87 182.581V178.782H553.563V182.544C553.552 183.173 553.417 183.794 553.166 184.371C552.914 184.948 552.552 185.469 552.098 185.906C551.645 186.342 551.109 186.685 550.523 186.913C549.937 187.142 549.311 187.253 548.682 187.24Z" fill="#512944"/>
<path d="M518.925 189.523H527.642C529.087 189.523 530.258 188.352 530.258 186.907V186.889C530.258 185.444 529.087 184.273 527.642 184.273H518.925C517.48 184.273 516.309 185.444 516.309 186.889V186.907C516.309 188.352 517.48 189.523 518.925 189.523Z" fill="#FABE7E"/>
<path d="M527.644 189.865H518.927C518.142 189.865 517.39 189.553 516.835 188.999C516.28 188.444 515.969 187.692 515.969 186.907H516.699C516.699 187.508 516.938 188.084 517.362 188.508C517.787 188.933 518.363 189.172 518.964 189.172H527.68C528.282 189.172 528.859 188.933 529.285 188.509C529.711 188.085 529.952 187.509 529.954 186.907H530.648C530.647 187.299 530.568 187.687 530.416 188.048C530.264 188.41 530.042 188.737 529.762 189.012C529.483 189.287 529.152 189.504 528.788 189.651C528.425 189.797 528.035 189.87 527.644 189.865Z" fill="#512944"/>
<path d="M540.918 207.983L549.2 215.359L531.646 250.91L514.832 235.64L540.918 207.983Z" fill="white"/>
<path d="M487.776 207.983L477.82 215.664L497.047 250.91L514.832 235.64L487.776 207.983Z" fill="white"/>
<path d="M482.754 147.742C482.754 147.742 493.652 142.889 495.797 135.401C498.44 142.565 505.114 146.697 516.613 147.963C515.754 146.031 512.463 142.889 512.435 140.92C518.823 149.341 530.692 149.784 530.692 149.784C530.692 149.784 527.438 147.631 526.772 144.765C532.198 149.193 539.177 150.441 546.184 149.452L545.786 138.073L537.828 125.612L525.94 119.927L508.377 121.6L489.64 126.703L483.419 137.99L482.782 142.926L482.754 147.742Z" fill="#512944"/>
<path d="M596 286.424C536.286 286.267 478.365 286.267 418.938 286.424V285.731C478.365 285.574 536.332 285.574 596 285.731V286.424Z" fill="#512944"/>
<path d="M507.224 329.86C477.894 329.86 448.61 329.86 418.938 329.768V329.075C478.273 329.195 536.101 329.195 595.723 329.075V329.768C565.912 329.833 536.545 329.86 507.224 329.86Z" fill="#512944"/>
<path d="M527.645 161.108C527.645 161.536 527.771 161.954 528.009 162.31C528.247 162.665 528.585 162.943 528.98 163.106C529.375 163.27 529.81 163.313 530.23 163.229C530.649 163.146 531.035 162.94 531.337 162.637C531.64 162.335 531.846 161.95 531.929 161.53C532.012 161.11 531.97 160.675 531.806 160.28C531.642 159.885 531.365 159.547 531.009 159.309C530.654 159.072 530.235 158.945 529.808 158.945C529.234 158.945 528.684 159.173 528.278 159.578C527.872 159.984 527.645 160.534 527.645 161.108Z" fill="#512944"/>
<path d="M496.98 161.108C496.979 161.538 497.105 161.96 497.343 162.318C497.581 162.677 497.92 162.957 498.317 163.122C498.715 163.288 499.152 163.332 499.574 163.248C499.997 163.165 500.384 162.958 500.689 162.653C500.993 162.349 501.2 161.961 501.284 161.539C501.367 161.117 501.323 160.679 501.158 160.282C500.992 159.884 500.712 159.545 500.354 159.307C499.995 159.069 499.574 158.943 499.144 158.945C498.859 158.945 498.578 159.001 498.316 159.11C498.053 159.218 497.815 159.378 497.614 159.578C497.413 159.779 497.254 160.018 497.145 160.28C497.036 160.543 496.98 160.824 496.98 161.108Z" fill="#512944"/>
<path d="M516.612 170.527C515.047 170.525 513.547 169.901 512.442 168.794C511.336 167.687 510.715 166.186 510.715 164.621V156.301H511.408V164.621C511.408 166.002 511.956 167.326 512.932 168.304C513.908 169.281 515.231 169.832 516.612 169.834V170.527Z" fill="#512944"/>
<path d="M525.48 152.641C525.48 153.38 527.422 153.981 529.807 153.981C532.191 153.981 534.142 153.38 534.142 152.641C534.142 151.901 532.201 151.3 529.807 151.3C527.412 151.3 525.48 151.901 525.48 152.641Z" fill="#512944"/>
<path d="M494.816 152.641C494.816 153.38 496.758 153.981 499.142 153.981C501.527 153.981 503.478 153.38 503.478 152.641C503.478 151.901 501.537 151.3 499.142 151.3C496.748 151.3 494.816 151.901 494.816 152.641Z" fill="#512944"/>
<path d="M517.197 181.962H511.484V182.655H517.197V181.962Z" fill="#512944"/>
<path d="M517.199 178.847H507.816V178.153H517.19C519.611 178.153 520.97 177.377 521.358 175.815L522.024 175.981C521.562 177.922 519.935 178.847 517.199 178.847Z" fill="#512944"/>
<path d="M534.039 167.671C534.039 168.679 535.453 169.52 537.21 169.52C538.966 169.52 540.371 168.706 540.371 167.671C540.371 166.636 538.957 165.822 537.21 165.822C535.463 165.822 534.039 166.673 534.039 167.671Z" fill="#E57553"/>
<path d="M488.301 167.671C488.301 168.679 489.715 169.52 491.471 169.52C493.228 169.52 494.642 168.706 494.642 167.671C494.642 166.636 493.218 165.822 491.471 165.822C489.724 165.822 488.301 166.673 488.301 167.671Z" fill="#E57553"/>
<path d="M535.435 174.105C532.434 174.105 529.501 173.215 527.006 171.548C524.511 169.88 522.567 167.511 521.419 164.738C520.272 161.966 519.972 158.916 520.558 155.973C521.144 153.03 522.589 150.327 524.712 148.206C526.834 146.085 529.538 144.641 532.481 144.057C535.424 143.473 538.474 143.775 541.246 144.924C544.017 146.074 546.386 148.019 548.051 150.515C549.717 153.011 550.605 155.944 550.603 158.945C550.598 162.966 548.998 166.82 546.155 169.662C543.311 172.504 539.455 174.102 535.435 174.105ZM535.435 144.469C532.572 144.469 529.773 145.318 527.392 146.909C525.012 148.5 523.156 150.76 522.061 153.405C520.965 156.05 520.679 158.961 521.237 161.769C521.796 164.577 523.174 167.156 525.199 169.181C527.223 171.205 529.802 172.584 532.61 173.142C535.418 173.701 538.329 173.414 540.974 172.319C543.619 171.223 545.88 169.368 547.471 166.987C549.061 164.607 549.91 161.808 549.91 158.945C549.905 155.107 548.379 151.428 545.665 148.715C542.951 146.001 539.272 144.474 535.435 144.469Z" fill="white"/>
<path d="M493.513 174.105C490.512 174.105 487.579 173.215 485.084 171.548C482.59 169.88 480.645 167.511 479.498 164.738C478.35 161.966 478.05 158.916 478.636 155.973C479.222 153.03 480.668 150.327 482.79 148.206C484.912 146.085 487.616 144.641 490.559 144.057C493.502 143.473 496.552 143.775 499.324 144.924C502.096 146.074 504.464 148.019 506.13 150.515C507.795 153.011 508.683 155.944 508.682 158.945C508.677 162.966 507.077 166.82 504.233 169.662C501.389 172.504 497.533 174.102 493.513 174.105ZM493.513 144.469C490.65 144.469 487.851 145.318 485.47 146.909C483.09 148.5 481.235 150.76 480.139 153.405C479.043 156.05 478.757 158.961 479.315 161.769C479.874 164.577 481.252 167.156 483.277 169.181C485.301 171.205 487.881 172.584 490.689 173.142C493.497 173.701 496.407 173.414 499.052 172.319C501.697 171.223 503.958 169.368 505.549 166.987C507.139 164.607 507.988 161.808 507.988 158.945C507.983 155.107 506.457 151.428 503.743 148.715C501.029 146.001 497.35 144.474 493.513 144.469Z" fill="white"/>
<path d="M508.052 155.294L507.562 154.804C509.966 152.41 512.767 151.199 515.42 151.393C516.592 151.499 517.728 151.86 518.746 152.451C519.765 153.042 520.642 153.848 521.317 154.813L520.762 155.229C520.146 154.334 519.341 153.587 518.403 153.039C517.465 152.491 516.418 152.156 515.336 152.058C512.915 151.911 510.308 153.047 508.052 155.294Z" fill="white"/>
<path d="M595.721 360.069H452.805V360.762H595.721V360.069Z" fill="#512944"/>
<path d="M500.126 389.806C498.453 393.461 495.768 396.561 492.389 398.738C489.009 400.915 485.076 402.079 481.056 402.091H122.596C118.573 402.082 114.636 400.921 111.253 398.743C107.87 396.566 105.182 393.464 103.508 389.806H500.126Z" fill="white"/>
<path d="M280.985 390.009H336.041C335.267 391.697 334.026 393.128 332.465 394.134C330.904 395.139 329.088 395.677 327.231 395.685H276.391C274.534 395.678 272.718 395.141 271.157 394.135C269.596 393.129 268.355 391.697 267.582 390.009H280.985Z" fill="#D3B7A2"/>
<path d="M153.107 389.796L450.531 389.796C455.672 389.796 459.84 385.629 459.84 380.488V181.093C459.84 175.952 455.672 171.784 450.531 171.784L153.107 171.784C147.966 171.784 143.799 175.952 143.799 181.093V380.488C143.799 385.629 147.966 389.796 153.107 389.796Z" fill="white"/>
<path d="M450.543 389.454H153.109V390.148H450.543V389.454Z" fill="#512944"/>
<path d="M161.622 372.585L442.02 372.585V189.615L161.622 189.615V372.585Z" fill="#9BD0F5"/>
<path d="M442.019 189.615H161.621V190.309H442.019V189.615Z" fill="#512944"/>
<path d="M307.174 182.766H296.47C295.879 182.766 295.312 182.531 294.895 182.113C294.477 181.696 294.242 181.129 294.242 180.538C294.242 179.947 294.477 179.381 294.895 178.963C295.312 178.545 295.879 178.31 296.47 178.31H307.174C307.765 178.31 308.332 178.545 308.749 178.963C309.167 179.381 309.402 179.947 309.402 180.538C309.402 181.129 309.167 181.696 308.749 182.113C308.332 182.531 307.765 182.766 307.174 182.766ZM296.47 179.004C296.063 179.004 295.673 179.165 295.385 179.453C295.097 179.741 294.935 180.131 294.935 180.538C294.935 180.945 295.097 181.335 295.385 181.623C295.673 181.911 296.063 182.073 296.47 182.073H307.174C307.581 182.073 307.971 181.911 308.259 181.623C308.547 181.335 308.709 180.945 308.709 180.538C308.709 180.131 308.547 179.741 308.259 179.453C307.971 179.165 307.581 179.004 307.174 179.004H296.47Z" fill="#512944"/>
<path d="M266.938 175.842V143.49C266.938 123.2 282.467 106.598 301.453 106.598C320.449 106.598 335.978 123.237 335.978 143.49V175.408C335.978 187.268 326.984 196.881 315.883 196.881H286.608C275.737 196.863 266.938 187.453 266.938 175.842Z" fill="#512944"/>
<path d="M273.415 252.556H329.496V180.815H273.415V252.556Z" fill="#F69571"/>
<path d="M273.414 204.285C292.502 223.068 320.418 211.68 329.495 193.544V177.58H273.414V204.285Z" fill="#E57553"/>
<path d="M194.378 262.04C217.395 237.636 271.165 212.752 271.165 212.752L301.817 234.854L331.683 212.752C331.683 212.752 386.221 237.636 409.266 262.04C432.31 286.443 439.973 372.723 439.973 372.723H163.68C163.68 372.723 171.352 286.415 194.378 262.04Z" fill="white"/>
<path d="M333.915 175.953C341.124 175.953 346.967 170.11 346.967 162.901C346.967 155.693 341.124 149.849 333.915 149.849C326.707 149.849 320.863 155.693 320.863 162.901C320.863 170.11 326.707 175.953 333.915 175.953Z" fill="#F69571"/>
<path d="M268.755 175.953C275.964 175.953 281.807 170.11 281.807 162.901C281.807 155.693 275.964 149.849 268.755 149.849C261.547 149.849 255.703 155.693 255.703 162.901C255.703 170.11 261.547 175.953 268.755 175.953Z" fill="#F69571"/>
<path d="M333.675 140.227V175.935C333.643 184.474 330.237 192.654 324.199 198.692C318.161 204.73 309.981 208.136 301.442 208.168C292.905 208.133 284.727 204.726 278.691 198.689C272.655 192.651 269.25 184.472 269.219 175.935V140.227C269.219 137.983 269.661 135.76 270.52 133.687C271.379 131.614 272.638 129.731 274.225 128.144C275.813 126.558 277.697 125.3 279.77 124.442C281.844 123.584 284.066 123.143 286.31 123.144H316.583C318.827 123.143 321.05 123.584 323.123 124.442C325.197 125.3 327.081 126.558 328.668 128.144C330.256 129.731 331.515 131.614 332.374 133.687C333.233 135.76 333.675 137.983 333.675 140.227Z" fill="#F69571"/>
<path d="M306.01 237.146H305.316V372.723H306.01V237.146Z" fill="#512944"/>
<path d="M297.283 238.662H296.59V372.714H297.283V238.662Z" fill="#512944"/>
<path d="M299.473 241.972C299.473 242.337 299.581 242.695 299.784 242.999C299.987 243.303 300.276 243.54 300.614 243.68C300.952 243.82 301.323 243.856 301.682 243.785C302.041 243.714 302.37 243.537 302.629 243.279C302.887 243.02 303.063 242.691 303.135 242.332C303.206 241.974 303.169 241.602 303.029 241.264C302.889 240.926 302.653 240.638 302.348 240.434C302.044 240.231 301.687 240.123 301.321 240.123C300.831 240.123 300.361 240.318 300.014 240.664C299.667 241.011 299.473 241.481 299.473 241.972Z" fill="#FABE7E"/>
<path d="M299.473 302.915C299.473 303.281 299.581 303.638 299.784 303.942C299.987 304.246 300.276 304.483 300.614 304.623C300.952 304.763 301.323 304.8 301.682 304.728C302.041 304.657 302.37 304.481 302.629 304.222C302.887 303.964 303.063 303.634 303.135 303.276C303.206 302.917 303.169 302.545 303.029 302.208C302.889 301.87 302.653 301.581 302.348 301.378C302.044 301.175 301.687 301.066 301.321 301.066C300.831 301.066 300.361 301.261 300.014 301.608C299.667 301.955 299.473 302.425 299.473 302.915Z" fill="#FABE7E"/>
<path d="M299.473 363.868C299.473 364.234 299.581 364.591 299.784 364.895C299.987 365.199 300.276 365.436 300.614 365.576C300.952 365.716 301.323 365.752 301.682 365.681C302.041 365.61 302.37 365.434 302.629 365.175C302.887 364.917 303.063 364.587 303.135 364.229C303.206 363.87 303.169 363.498 303.029 363.16C302.889 362.823 302.653 362.534 302.348 362.331C302.044 362.128 301.687 362.019 301.321 362.019C300.831 362.019 300.361 362.214 300.014 362.561C299.667 362.907 299.473 363.378 299.473 363.868Z" fill="#FABE7E"/>
<path d="M333.676 175.944V167.135L335.968 175.787C335.211 175.912 334.443 175.965 333.676 175.944Z" fill="#E57553"/>
<path d="M269.23 175.944V167.135L266.938 175.787C267.695 175.912 268.463 175.965 269.23 175.944Z" fill="#E57553"/>
<path d="M301.329 132.231C313.485 132.231 323.339 128.382 323.339 123.634C323.339 118.886 313.485 115.038 301.329 115.038C289.174 115.038 279.32 118.886 279.32 123.634C279.32 128.382 289.174 132.231 301.329 132.231Z" fill="#512944"/>
<path d="M333.674 143.185V159.823C330.504 159.823 328.553 158.206 328.498 154.111V143.018C328.359 135.05 326.871 128.524 323.238 124.29C327.296 123.828 328.895 127.156 332.482 132.61C333.629 135.662 334.105 138.925 333.878 142.177L333.674 143.185Z" fill="#512944"/>
<path d="M269.128 149.858V159.795C272.299 159.795 274.249 158.178 274.304 154.083V142.99C274.443 135.022 275.931 128.496 279.564 124.263C275.506 123.801 272.372 127.443 268.758 132.906L267.52 144.737L269.128 149.858Z" fill="#512944"/>
<path d="M258.654 155.183H260.651V145.237C260.651 123.375 278.935 105.59 301.406 105.59C323.878 105.59 342.171 123.375 342.171 145.237V155.183H344.204V145.237C344.204 122.285 325.005 103.64 301.406 103.64C277.807 103.64 258.617 122.312 258.617 145.237L258.654 155.183Z" fill="#FFB1A5"/>
<path d="M324.625 113.891L327.01 110.675C319.515 105.434 310.591 102.624 301.446 102.624C292.301 102.624 283.377 105.434 275.883 110.675L278.268 113.891C285.06 109.133 293.153 106.58 301.446 106.58C309.74 106.58 317.832 109.133 324.625 113.891Z" fill="#FFB1A5"/>
<path d="M350.756 174.326H351.819C354.428 174.326 356.543 172.212 356.543 169.603V156.144C356.543 153.535 354.428 151.421 351.819 151.421H350.756C348.148 151.421 346.033 153.535 346.033 156.144V169.603C346.033 172.212 348.148 174.326 350.756 174.326Z" fill="#FFB1A5"/>
<path d="M346.108 178.689H338.344C337.713 178.689 337.109 178.439 336.664 177.994C336.218 177.548 335.968 176.944 335.968 176.314V149.387C335.968 148.772 336.212 148.182 336.647 147.746C337.083 147.311 337.673 147.067 338.288 147.067H346.108C347.268 147.067 348.38 147.527 349.2 148.347C350.02 149.167 350.48 150.28 350.48 151.439V174.317C350.48 175.477 350.02 176.589 349.2 177.409C348.38 178.229 347.268 178.689 346.108 178.689Z" fill="#0070C0"/>
<path d="M252.134 151.43H251.071C248.462 151.43 246.348 153.545 246.348 156.153V169.612C246.348 172.221 248.462 174.336 251.071 174.336H252.134C254.743 174.336 256.858 172.221 256.858 169.612V156.153C256.858 153.545 254.743 151.43 252.134 151.43Z" fill="#FFB1A5"/>
<path d="M256.786 147.067H264.606C265.222 147.067 265.812 147.311 266.247 147.746C266.682 148.182 266.927 148.772 266.927 149.387V176.194C266.927 176.865 266.66 177.51 266.185 177.985C265.71 178.46 265.066 178.726 264.394 178.726H256.786C255.627 178.726 254.515 178.266 253.695 177.446C252.875 176.626 252.414 175.514 252.414 174.354V151.439C252.414 150.865 252.527 150.296 252.747 149.766C252.967 149.235 253.289 148.754 253.695 148.348C254.101 147.942 254.583 147.619 255.113 147.4C255.644 147.18 256.212 147.067 256.786 147.067Z" fill="#0070C0"/>
<path d="M346.373 147.067H345.68V178.699H346.373V147.067Z" fill="#512944"/>
<path d="M257.209 147.076H256.516V178.708H257.209V147.076Z" fill="#512944"/>
<path d="M337.436 187.573H309.871V186.879H337.436C338.578 186.907 339.686 186.481 340.515 185.694C341.345 184.908 341.83 183.825 341.863 182.683V178.689H342.557V182.683C342.523 184.009 341.965 185.268 341.005 186.185C340.046 187.101 338.762 187.6 337.436 187.573Z" fill="#512944"/>
<path d="M306.147 189.985H315.308C316.829 189.985 318.062 188.752 318.062 187.231V187.212C318.062 185.691 316.829 184.458 315.308 184.458H306.147C304.626 184.458 303.393 185.691 303.393 187.212V187.231C303.393 188.752 304.626 189.985 306.147 189.985Z" fill="#FABE7E"/>
<path d="M315.305 190.336H306.136C305.314 190.334 304.526 190.006 303.945 189.424C303.365 188.841 303.039 188.053 303.039 187.231H303.732C303.732 187.869 303.985 188.481 304.436 188.933C304.886 189.385 305.497 189.641 306.136 189.643H315.305C315.944 189.641 316.555 189.385 317.005 188.933C317.456 188.481 317.709 187.869 317.709 187.231H318.402C318.402 188.053 318.076 188.841 317.496 189.424C316.915 190.006 316.128 190.334 315.305 190.336Z" fill="#512944"/>
<path d="M322.027 167.005C322.027 168.059 323.525 168.91 325.364 168.91C327.204 168.91 328.701 168.059 328.701 167.005C328.701 165.952 327.204 165.092 325.364 165.092C323.525 165.092 322.027 165.905 322.027 167.005Z" fill="#E57553"/>
<path d="M273.914 167.005C273.914 168.059 275.412 168.91 277.251 168.91C279.091 168.91 280.588 168.059 280.588 167.005C280.588 165.952 279.091 165.092 277.251 165.092C275.412 165.092 273.914 165.905 273.914 167.005Z" fill="#E57553"/>
<path d="M446.973 372.234H156.676V372.927H446.973V372.234Z" fill="#512944"/>
<path d="M391.857 290.109L384.512 372.578L385.202 372.64L392.548 290.171L391.857 290.109Z" fill="#512944"/>
<path d="M210.8 290.085L210.109 290.146L217.441 372.616L218.131 372.555L210.8 290.085Z" fill="#512944"/>
<path d="M326.223 327.577H372.617V318.251H326.223V327.577Z" fill="#FABE7E"/>
<path d="M389.71 321.356L389.109 321.005C398.103 305.781 399.841 287.229 399.851 287.044L400.544 287.108C400.525 287.293 398.778 305.993 389.71 321.356Z" fill="#512944"/>
<path d="M212.498 321.356C203.43 305.993 201.673 287.293 201.664 287.108L202.348 287.044C202.348 287.229 204.104 305.781 213.098 321.005L212.498 321.356Z" fill="#512944"/>
<path d="M329.265 205.736L337.982 215.812L319.513 250.901L301.82 234.836L329.265 205.736Z" fill="#FABE7E"/>
<path d="M273.368 205.736L264.836 215.757L283.12 250.901L301.82 234.836L273.368 205.736Z" fill="#FABE7E"/>
<path d="M315.114 160.091C316.37 160.091 317.388 159.073 317.388 157.817C317.388 156.561 316.37 155.543 315.114 155.543C313.858 155.543 312.84 156.561 312.84 157.817C312.84 159.073 313.858 160.091 315.114 160.091Z" fill="#512944"/>
<path d="M282.864 160.091C284.12 160.091 285.138 159.073 285.138 157.817C285.138 156.561 284.12 155.543 282.864 155.543C281.608 155.543 280.59 156.561 280.59 157.817C280.59 159.073 281.608 160.091 282.864 160.091Z" fill="#512944"/>
<path d="M304.739 172.709C303.099 172.706 301.528 172.054 300.369 170.895C299.209 169.736 298.557 168.164 298.555 166.525V157.817H299.248V166.525C299.262 167.976 299.846 169.365 300.872 170.391C301.899 171.418 303.287 172.001 304.739 172.015V172.709Z" fill="#512944"/>
<path d="M310.473 151.19C310.473 151.966 312.516 152.604 315.03 152.604C317.544 152.604 319.587 151.966 319.587 151.19C319.587 150.413 317.544 149.775 315.03 149.775C312.516 149.775 310.473 150.404 310.473 151.19Z" fill="#512944"/>
<path d="M278.211 151.19C278.211 151.966 280.245 152.604 282.768 152.604C285.292 152.604 287.316 151.966 287.316 151.19C287.316 150.413 285.282 149.775 282.768 149.775C280.254 149.775 278.211 150.404 278.211 151.19Z" fill="#512944"/>
<path d="M301.321 184.864C300.244 184.859 299.179 184.639 298.188 184.217L298.456 183.579C299.363 183.968 300.339 184.169 301.326 184.169C302.313 184.169 303.289 183.968 304.196 183.579L304.464 184.217C303.47 184.639 302.401 184.859 301.321 184.864Z" fill="#512944"/>
<path d="M289.621 177.284C297.377 183.755 305.169 183.755 312.998 177.284H289.621Z" fill="white"/>
<path d="M319.134 172.145C316.592 172.145 314.108 171.391 311.995 169.979C309.881 168.567 308.235 166.559 307.262 164.211C306.29 161.863 306.036 159.279 306.533 156.786C307.029 154.294 308.254 152.004 310.052 150.208C311.85 148.411 314.14 147.188 316.633 146.693C319.126 146.199 321.71 146.454 324.057 147.428C326.405 148.402 328.411 150.05 329.822 152.165C331.232 154.279 331.984 156.764 331.983 159.305C331.98 162.712 330.625 165.977 328.216 168.385C325.807 170.793 322.54 172.145 319.134 172.145ZM319.134 147.187C316.73 147.187 314.38 147.9 312.381 149.236C310.382 150.571 308.824 152.47 307.904 154.691C306.984 156.912 306.743 159.356 307.212 161.714C307.681 164.072 308.839 166.238 310.539 167.938C312.239 169.638 314.405 170.795 316.762 171.264C319.12 171.733 321.564 171.493 323.786 170.573C326.007 169.653 327.905 168.095 329.241 166.096C330.576 164.097 331.289 161.747 331.289 159.342C331.293 157.743 330.981 156.159 330.372 154.681C329.763 153.202 328.868 151.858 327.739 150.726C326.61 149.594 325.269 148.695 323.793 148.081C322.316 147.468 320.733 147.151 319.134 147.15V147.187Z" fill="white"/>
<path d="M283.76 172.145C281.218 172.147 278.733 171.395 276.618 169.983C274.504 168.572 272.856 166.566 271.882 164.217C270.909 161.869 270.653 159.285 271.149 156.792C271.644 154.299 272.868 152.008 274.666 150.211C276.463 148.413 278.753 147.189 281.247 146.694C283.74 146.198 286.324 146.454 288.672 147.427C291.02 148.401 293.027 150.049 294.438 152.164C295.849 154.278 296.602 156.763 296.6 159.305C296.595 162.709 295.241 165.972 292.834 168.379C290.427 170.786 287.164 172.14 283.76 172.145ZM283.76 147.187C281.356 147.185 279.005 147.897 277.005 149.231C275.004 150.566 273.445 152.463 272.524 154.684C271.602 156.905 271.36 159.35 271.828 161.708C272.296 164.067 273.453 166.233 275.153 167.934C276.852 169.635 279.018 170.794 281.376 171.264C283.734 171.733 286.179 171.493 288.401 170.573C290.622 169.654 292.521 168.096 293.857 166.097C295.193 164.097 295.906 161.747 295.906 159.342C295.911 156.115 294.635 153.018 292.357 150.732C290.08 148.446 286.987 147.157 283.76 147.15V147.187Z" fill="white"/>
<path d="M296.08 156.264L295.59 155.774C296.427 154.84 297.455 154.098 298.606 153.599C299.756 153.099 301.001 152.854 302.255 152.881C303.258 152.971 304.229 153.28 305.099 153.786C305.97 154.293 306.718 154.984 307.292 155.811L306.738 156.227C306.224 155.48 305.551 154.855 304.768 154.396C303.986 153.938 303.112 153.657 302.208 153.574C301.053 153.554 299.907 153.784 298.849 154.248C297.792 154.712 296.847 155.4 296.08 156.264Z" fill="white"/>
<path d="M317.578 178.458C316.839 176.549 315.555 174.899 313.885 173.716C312.214 172.532 310.232 171.867 308.186 171.803H293.239C291.194 171.869 289.213 172.535 287.543 173.719C285.873 174.902 284.588 176.55 283.848 178.458H317.578Z" fill="#512944"/>
<path d="M460.194 368.601H459.5V181.093C459.495 178.717 458.549 176.44 456.868 174.761C455.187 173.082 452.91 172.138 450.534 172.136H374.449V171.452H450.534C453.093 171.454 455.548 172.471 457.358 174.28C459.169 176.089 460.189 178.543 460.194 181.102V368.601Z" fill="#512944"/>
<path d="M83.2718 8.86475H136.885C140.562 8.86475 144.089 10.3256 146.689 12.9259C149.29 15.5261 150.751 19.0529 150.751 22.7303C150.751 26.4076 149.29 29.9344 146.689 32.5346C144.089 35.1349 140.562 36.5958 136.885 36.5958H103.331L90.1675 48.5109C89.842 48.8052 89.4383 48.9991 89.005 49.0691C88.5717 49.1391 88.1275 49.0823 87.7258 48.9054C87.3241 48.7285 86.9823 48.4392 86.7414 48.0723C86.5005 47.7054 86.371 47.2766 86.3684 46.8377V36.4941H83.2718C79.5944 36.4941 76.0676 35.0333 73.4674 32.433C70.8671 29.8327 69.4062 26.3059 69.4062 22.6286C69.4331 18.9689 70.9058 15.4682 73.5031 12.8898C76.1005 10.3115 79.6119 8.86465 83.2718 8.86475Z" fill="#0070C0"/>
<path d="M95.8341 22.2126C95.8341 22.8726 95.6384 23.5177 95.2717 24.0665C94.905 24.6153 94.3839 25.043 93.7741 25.2955C93.1644 25.5481 92.4934 25.6142 91.8461 25.4854C91.1988 25.3567 90.6042 25.0389 90.1375 24.5722C89.6709 24.1055 89.353 23.5109 89.2243 22.8636C89.0955 22.2163 89.1616 21.5453 89.4142 20.9356C89.6667 20.3258 90.0944 19.8047 90.6432 19.438C91.192 19.0713 91.8371 18.8756 92.4971 18.8756C92.9357 18.8744 93.3702 18.9599 93.7756 19.1272C94.181 19.2944 94.5493 19.5402 94.8594 19.8503C95.1695 20.1604 95.4153 20.5287 95.5826 20.9341C95.7498 21.3396 95.8353 21.774 95.8341 22.2126Z" fill="white"/>
<path d="M111.752 22.2126C111.752 22.8726 111.556 23.5177 111.19 24.0665C110.823 24.6153 110.302 25.043 109.692 25.2955C109.082 25.5481 108.411 25.6142 107.764 25.4854C107.117 25.3567 106.522 25.0389 106.055 24.5722C105.589 24.1055 105.271 23.5109 105.142 22.8636C105.013 22.2163 105.08 21.5453 105.332 20.9356C105.585 20.3258 106.012 19.8047 106.561 19.438C107.11 19.0713 107.755 18.8756 108.415 18.8756C108.854 18.8744 109.288 18.9599 109.694 19.1272C110.099 19.2944 110.467 19.5402 110.777 19.8503C111.088 20.1604 111.333 20.5287 111.501 20.9341C111.668 21.3396 111.753 21.774 111.752 22.2126Z" fill="white"/>
<path d="M127.67 22.2126C127.67 22.8726 127.474 23.5177 127.108 24.0665C126.741 24.6153 126.22 25.043 125.61 25.2955C125 25.5481 124.329 25.6142 123.682 25.4854C123.035 25.3567 122.44 25.0389 121.973 24.5722C121.507 24.1055 121.189 23.5109 121.06 22.8636C120.931 22.2163 120.998 21.5453 121.25 20.9356C121.503 20.3258 121.93 19.8047 122.479 19.438C123.028 19.0713 123.673 18.8756 124.333 18.8756C125.218 18.8756 126.067 19.2272 126.693 19.853C127.318 20.4788 127.67 21.3276 127.67 22.2126Z" fill="white"/>
<path d="M306.71 35.1907H233.842C228.859 35.2029 224.082 37.1874 220.558 40.7105C217.033 44.2335 215.046 49.0087 215.031 53.9923C215.046 58.9768 217.032 63.7529 220.557 67.2774C224.082 70.802 228.858 72.7885 233.842 72.8032H279.45L297.328 89.183C297.769 89.5857 298.319 89.8515 298.909 89.9481C299.499 90.0447 300.104 89.9679 300.651 89.7271C301.198 89.4863 301.664 89.0918 301.991 88.5916C302.318 88.0913 302.493 87.5068 302.495 86.909V72.8032H306.71C311.694 72.7885 316.471 70.802 319.995 67.2774C323.52 63.7529 325.506 58.9768 325.521 53.9923C325.506 49.0087 323.519 44.2335 319.995 40.7105C316.47 37.1874 311.694 35.2029 306.71 35.1907Z" fill="#0070C0"/>
<path d="M248.632 58.2998C251.139 58.2998 253.171 56.2678 253.171 53.7612C253.171 51.2546 251.139 49.2225 248.632 49.2225C246.126 49.2225 244.094 51.2546 244.094 53.7612C244.094 56.2678 246.126 58.2998 248.632 58.2998Z" fill="white"/>
<path d="M270.273 58.2998C272.78 58.2998 274.812 56.2678 274.812 53.7612C274.812 51.2546 272.78 49.2225 270.273 49.2225C267.766 49.2225 265.734 51.2546 265.734 53.7612C265.734 56.2678 267.766 58.2998 270.273 58.2998Z" fill="white"/>
<path d="M296.452 53.7612C296.452 54.6588 296.186 55.5363 295.687 56.2827C295.189 57.0291 294.48 57.6108 293.651 57.9543C292.821 58.2979 291.909 58.3877 291.028 58.2126C290.148 58.0375 289.339 57.6052 288.704 56.9705C288.07 56.3357 287.637 55.527 287.462 54.6466C287.287 53.7662 287.377 52.8536 287.72 52.0243C288.064 51.195 288.646 50.4861 289.392 49.9874C290.139 49.4887 291.016 49.2225 291.914 49.2225C293.117 49.2225 294.272 49.7007 295.123 50.5519C295.974 51.403 296.452 52.5575 296.452 53.7612Z" fill="white"/>
<path d="M519.814 12.368H460.525C456.47 12.3802 452.584 13.9972 449.718 16.8655C446.851 19.7339 445.236 23.6204 445.227 27.6756C445.241 31.7276 446.858 35.6093 449.724 38.4736C452.59 41.338 456.473 42.9524 460.525 42.9646H497.629L512.188 56.2478C512.546 56.576 512.993 56.7929 513.472 56.8719C513.952 56.9509 514.444 56.8886 514.889 56.6926C515.334 56.4966 515.712 56.1754 515.978 55.7681C516.243 55.3609 516.385 54.8852 516.384 54.399V42.9646H519.814C523.867 42.9524 527.751 41.3367 530.618 38.4704C533.484 35.604 535.1 31.7199 535.112 27.6663C535.1 23.6127 533.484 19.7286 530.618 16.8623C527.751 13.9959 523.867 12.3802 519.814 12.368Z" fill="#0070C0"/>
<path d="M476.258 27.4814C476.258 28.2127 476.041 28.9276 475.635 29.5356C475.229 30.1437 474.651 30.6176 473.976 30.8974C473.3 31.1773 472.557 31.2505 471.839 31.1078C471.122 30.9652 470.463 30.613 469.946 30.0959C469.429 29.5788 469.077 28.92 468.934 28.2027C468.792 27.4855 468.865 26.7421 469.145 26.0664C469.425 25.3908 469.898 24.8134 470.507 24.4071C471.115 24.0008 471.829 23.7839 472.561 23.7839C473.541 23.7839 474.482 24.1735 475.175 24.8669C475.869 25.5603 476.258 26.5008 476.258 27.4814Z" fill="white"/>
<path d="M493.868 27.4814C493.868 28.2127 493.651 28.9276 493.244 29.5356C492.838 30.1437 492.261 30.6176 491.585 30.8974C490.909 31.1773 490.166 31.2505 489.449 31.1078C488.732 30.9652 488.073 30.613 487.556 30.0959C487.039 29.5788 486.686 28.92 486.544 28.2027C486.401 27.4855 486.474 26.7421 486.754 26.0664C487.034 25.3908 487.508 24.8134 488.116 24.4071C488.724 24.0008 489.439 23.7839 490.17 23.7839C491.151 23.7839 492.091 24.1735 492.785 24.8669C493.478 25.5603 493.868 26.5008 493.868 27.4814Z" fill="white"/>
<path d="M511.469 27.4814C511.469 28.2127 511.252 28.9276 510.846 29.5356C510.44 30.1437 509.862 30.6176 509.187 30.8974C508.511 31.1773 507.768 31.2505 507.05 31.1078C506.333 30.9652 505.674 30.613 505.157 30.0959C504.64 29.5788 504.288 28.92 504.145 28.2027C504.003 27.4855 504.076 26.7421 504.356 26.0664C504.636 25.3908 505.109 24.8134 505.717 24.4071C506.326 24.0008 507.04 23.7839 507.772 23.7839C508.752 23.7839 509.693 24.1735 510.386 24.8669C511.08 25.5603 511.469 26.5008 511.469 27.4814Z" fill="white"/>
<path d="M100.816 101.819C102.622 104.333 105.126 106.261 108.017 107.365C110.476 108.401 114.867 108.04 115.865 103.668C115.113 89.8763 111.801 82.5368 105.928 81.6494L100.816 101.819Z" fill="#F69571"/>
<path d="M103.962 73.2909L92.9258 76.3183C91.5818 76.6869 90.7911 78.0754 91.1598 79.4195L96.882 100.279C97.2507 101.623 98.6391 102.414 99.9832 102.045L111.019 99.0177C112.363 98.649 113.154 97.2605 112.785 95.9165L107.063 75.0569C106.694 73.7129 105.306 72.9222 103.962 73.2909Z" fill="#69B792"/>
<path d="M105.915 76.6459L92.9531 80.2015L98.0248 98.6898L110.986 95.1342L105.915 76.6459Z" fill="white"/>
<path d="M100.279 75.8507L97.3906 76.642L97.5738 77.3106L100.462 76.5193L100.279 75.8507Z" fill="#512944"/>
<path d="M105.956 98.4267C106.007 98.6133 106.002 98.8108 105.941 98.9945C105.88 99.1781 105.766 99.3396 105.613 99.4585C105.461 99.5774 105.276 99.6485 105.083 99.6628C104.891 99.6771 104.698 99.634 104.529 99.5388C104.361 99.4436 104.224 99.3007 104.137 99.1281C104.049 98.9555 104.015 98.7608 104.038 98.5687C104.061 98.3766 104.141 98.1956 104.267 98.0486C104.392 97.9016 104.559 97.7951 104.745 97.7426C104.87 97.7062 105 97.6952 105.129 97.71C105.258 97.7249 105.382 97.7654 105.495 97.8291C105.608 97.8929 105.707 97.9786 105.786 98.0812C105.865 98.1839 105.923 98.3013 105.956 98.4267Z" fill="#512944"/>
<path d="M154.956 133.553L118.296 96.4762L104.199 108.123L134.528 148.916C145.574 163.705 166.862 148.814 154.956 133.553Z" fill="#FFB1A5"/>
<path d="M110.07 111.858C109.137 111.5 108.155 111.285 107.158 111.22C100.299 110.795 93.4869 117.025 91.9247 125.15C90.7323 131.362 92.9693 136.871 97.1474 139.311H97.2121C98.0348 139.792 139.437 154.471 139.437 154.471C139.437 154.471 152.804 159.019 157.333 148.398C161.252 138.008 149.42 132.018 149.42 132.018L112.104 112.884C111.511 112.474 110.872 112.136 110.199 111.876L110.079 111.811L110.07 111.858Z" fill="#FFB1A5"/>
<path d="M91.6827 78.8394H73.75V123.93H91.6827V78.8394Z" fill="#F69571"/>
<path d="M91.6831 106.006C89.0707 105.662 86.5249 104.927 84.1311 103.825L80.4336 78.8671H91.7016L91.6831 106.006Z" fill="#E57553"/>
<path d="M64.3531 383.705H48.9531L51.643 353.256H67.043L64.3531 383.705Z" fill="#F69571"/>
<path d="M119.184 383.705H103.784L103.137 353.256H118.537L119.184 383.705Z" fill="#F69571"/>
<path d="M48.9401 373.435L47.9141 383.705H65.2737L66.2905 373.435H48.9401Z" fill="white"/>
<path d="M102.656 373.435L102.897 383.705H120.09L119.849 373.435H102.656Z" fill="white"/>
<path d="M119.378 202.335H57.8895C54.3769 258.462 45.6324 312.88 42.3047 366.068H73.3449L93.0617 287.987L95.6407 366.068H126.986C132.846 308.785 131.238 253.905 119.378 202.335Z" fill="#0070C0"/>
<path d="M93.4053 288.051L92.7305 287.913L105.607 223.567L105.829 223.521C109.005 222.894 111.994 221.543 114.564 219.574L114.98 220.12C112.395 222.11 109.393 223.488 106.199 224.15L93.4053 288.051Z" fill="#512944"/>
<path d="M45.8644 380.414C42.5761 387.229 40.4991 394.564 39.7266 402.09H94.1718C95.4474 395.093 86.0189 389.759 68.8441 385.628L68.9643 380.414H45.8644Z" fill="#FFB1A5"/>
<path d="M48.5156 402.146L47.8316 402.035C48.2931 399.856 47.933 397.583 46.8206 395.653C45.7081 393.724 43.9217 392.273 41.8047 391.58L41.9988 390.915C44.2792 391.653 46.2061 393.209 47.4091 395.282C48.6121 397.355 49.0062 399.8 48.5156 402.146Z" fill="#512944"/>
<path d="M101.924 380.414C99.4366 387.352 98.5209 394.756 99.2438 402.09H153.689C154.965 395.093 145.536 389.759 128.361 385.628L125.061 380.414H101.924Z" fill="#FFB1A5"/>
<path d="M100.393 110.185C109.165 110.407 115.968 115.851 116.847 128.238L124.87 205.237L52.5753 210.543L50.3475 131.704C49.4786 119.133 57.7425 110.194 71.608 110.194H73.7525C82.6542 115.934 88.1819 115.038 91.6852 110.194L100.393 110.185Z" fill="#FFB1A5"/>
<path d="M118.472 147.205L116.503 128.274C115.967 120.676 113.092 115.232 108.184 112.56L108.526 111.959C113.637 114.788 116.623 120.427 117.178 128.265L119.156 147.178L118.472 147.205Z" fill="#512944"/>
<path d="M79.9534 206.273L84.5752 212.956C82.755 215.078 80.5056 216.789 77.9753 217.978C75.445 219.167 72.6914 219.805 69.8963 219.852L66.8828 215.359L79.9534 206.273Z" fill="#F69571"/>
<path d="M127.567 359.745H95.4453V360.439H127.567V359.745Z" fill="#512944"/>
<path d="M74.8991 359.745H42.7773V360.439H74.8991V359.745Z" fill="#512944"/>
<path d="M95.2779 78.941C95.093 75.2436 95.6014 72.11 97.3854 69.9377C100.193 69.0097 103.253 69.2187 105.908 70.5201V80.5494C105.908 80.5494 105.622 86.0956 101.332 86.0956V83.1746C101.36 79.9948 97.0342 78.5898 95.2779 78.941Z" fill="#512944"/>
<path d="M89.0575 103.825H73.75V76.2418C73.75 68.2461 80.6365 61.7015 89.0575 61.7015C97.4785 61.7015 104.365 68.2461 104.365 76.2418V89.3124C104.365 97.2804 97.4785 103.825 89.0575 103.825Z" fill="#F69571"/>
<path d="M77.9381 85.0604C77.9381 86.2911 77.573 87.4943 76.889 88.5175C76.205 89.5407 75.2329 90.3381 74.0956 90.8087C72.9583 91.2793 71.707 91.4019 70.5 91.1611C69.293 90.9203 68.1846 90.3269 67.3149 89.456C66.4453 88.585 65.8535 87.4757 65.6145 86.2683C65.3755 85.061 65.5 83.8098 65.9723 82.6733C66.4446 81.5367 67.2434 80.5658 68.2676 79.8833C69.2919 79.2008 70.4955 78.8375 71.7263 78.8394C72.5429 78.8394 73.3514 79.0003 74.1056 79.3131C74.8599 79.6258 75.545 80.0842 76.122 80.662C76.6989 81.2398 77.1563 81.9257 77.4679 82.6804C77.7795 83.4351 77.9393 84.2438 77.9381 85.0604Z" fill="#F69571"/>
<path d="M70.6802 78.941C70.4954 75.2436 71.0038 72.11 72.7878 69.9377C75.5955 69.0097 78.6551 69.2187 81.3105 70.5201V80.5494C81.3105 80.5494 81.0239 86.0956 76.7348 86.0956V83.1746C76.7626 79.9948 72.4458 78.5898 70.6802 78.941Z" fill="#512944"/>
<path d="M99.4778 75.7705H79.6871C77.7435 75.7559 75.8837 74.9767 74.5102 73.6015C73.1366 72.2262 72.3598 70.3654 72.3477 68.4218C72.3622 66.4797 73.1401 64.6213 74.5134 63.248C75.8867 61.8747 77.7451 61.0968 79.6871 61.0823H99.4778C101.43 61.0822 103.302 61.8537 104.687 63.2286C106.073 64.6034 106.858 66.4701 106.873 68.4218C106.861 70.375 106.076 72.2441 104.691 73.6209C103.305 74.9977 101.431 75.7705 99.4778 75.7705Z" fill="#512944"/>
<path d="M99.9941 75.7705C105.324 75.7705 109.645 71.4499 109.645 66.1201C109.645 60.7904 105.324 56.4697 99.9941 56.4697C94.6644 56.4697 90.3438 60.7904 90.3438 66.1201C90.3438 71.4499 94.6644 75.7705 99.9941 75.7705Z" fill="#512944"/>
<path d="M71.5682 88.5266C70.6685 88.5266 69.8056 88.1692 69.1694 87.533C68.5332 86.8968 68.1758 86.0339 68.1758 85.1342C68.1739 84.6234 68.2887 84.1188 68.5113 83.6591C68.734 83.1993 69.0587 82.7965 69.4607 82.4813L69.8859 83.0266C69.5676 83.2777 69.3106 83.598 69.1344 83.9632C68.9583 84.3283 68.8675 84.7288 68.8691 85.1342C68.8691 85.8501 69.1535 86.5366 69.6596 87.0428C70.1658 87.549 70.8524 87.8333 71.5682 87.8333C72.1287 87.8368 72.6758 87.662 73.1304 87.3342L73.5279 87.9073C72.9555 88.3136 72.2701 88.5302 71.5682 88.5266Z" fill="#512944"/>
<path d="M70.2284 87.6762H69.5352C69.5516 87.3888 69.6248 87.1074 69.7506 86.8483C69.8763 86.5893 70.0521 86.3577 70.2678 86.1669C70.4835 85.9762 70.7348 85.83 71.0073 85.7368C71.2798 85.6437 71.568 85.6054 71.8553 85.6241V86.3174C70.2931 86.4099 70.2284 87.5376 70.2284 87.6762Z" fill="#512944"/>
<path d="M92.4143 86.0864C92.4143 86.2915 92.3534 86.492 92.2392 86.6625C92.125 86.8329 91.9628 86.9656 91.7731 87.0437C91.5834 87.1218 91.3747 87.1417 91.1736 87.101C90.9726 87.0603 90.7881 86.9608 90.6437 86.8151C90.4993 86.6694 90.4014 86.484 90.3625 86.2826C90.3236 86.0812 90.3455 85.8727 90.4252 85.6837C90.505 85.4947 90.6391 85.3337 90.8106 85.221C90.9821 85.1084 91.1831 85.0492 91.3883 85.0511C91.5238 85.0511 91.658 85.0779 91.7831 85.13C91.9082 85.1822 92.0217 85.2586 92.1171 85.3549C92.2125 85.4511 92.2879 85.5653 92.3389 85.6909C92.3899 85.8164 92.4156 85.9508 92.4143 86.0864Z" fill="#512944"/>
<path d="M103.008 86.0863C103.008 86.2911 102.947 86.4912 102.834 86.6615C102.72 86.8317 102.558 86.9644 102.369 87.0428C102.18 87.1212 101.972 87.1417 101.771 87.1017C101.57 87.0618 101.386 86.9632 101.241 86.8184C101.096 86.6736 100.997 86.4891 100.957 86.2883C100.917 86.0875 100.938 85.8793 101.016 85.6901C101.095 85.501 101.227 85.3393 101.398 85.2255C101.568 85.1117 101.768 85.051 101.973 85.051C102.247 85.051 102.511 85.1601 102.705 85.3543C102.899 85.5484 103.008 85.8117 103.008 86.0863Z" fill="#512944"/>
<path d="M95.2422 89.4972V88.804C95.8522 88.8559 96.4583 88.6676 96.9315 88.2791C97.4046 87.8905 97.7073 87.3326 97.775 86.7241V82.9435H98.4682V86.7241C98.4021 87.5173 98.0268 88.2526 97.4232 88.7714C96.8196 89.2903 96.0363 89.551 95.2422 89.4972Z" fill="#512944"/>
<path d="M92.4169 81.9821C92.4169 82.4073 91.6127 82.7493 90.6144 82.7493C89.616 82.7493 88.7656 82.4073 88.7656 81.9821C88.7656 81.5569 89.5791 81.2148 90.6144 81.2148C91.6497 81.2148 92.4169 81.5569 92.4169 81.9821Z" fill="#512944"/>
<path d="M102.964 81.9821C102.964 82.4073 102.16 82.7493 101.161 82.7493C100.163 82.7493 99.3125 82.4073 99.3125 81.9821C99.3125 81.5569 100.117 81.2148 101.161 81.2148C102.206 81.2148 102.964 81.5569 102.964 81.9821Z" fill="#512944"/>
<path d="M98.9678 94.0267H94.8359C94.1943 94.0243 93.5797 93.7683 93.1261 93.3147C92.6724 92.861 92.4165 92.2464 92.4141 91.6049H93.1073C93.1073 92.0633 93.2895 92.503 93.6136 92.8271C93.9378 93.1513 94.3775 93.3334 94.8359 93.3334H98.9678V94.0267Z" fill="#512944"/>
<path d="M68.6602 220.193V219.519C68.7988 219.519 82.424 219.251 86.482 209.027L87.129 209.277C82.8862 219.925 68.7988 220.193 68.6602 220.193Z" fill="#512944"/>
<path d="M105.992 402.146L105.299 402.035C105.763 399.857 105.405 397.584 104.294 395.654C103.183 393.724 101.398 392.273 99.2812 391.58L99.4754 390.915C101.755 391.655 103.68 393.211 104.883 395.283C106.086 397.356 106.481 399.8 105.992 402.146Z" fill="#512944"/>
<path d="M116.652 124.527L116.098 124.943L131.915 146.033L132.47 145.617L116.652 124.527Z" fill="#512944"/>
<path d="M68.3869 155.479L119.162 150.542L122.231 179.965L65.3734 185.363L55.6953 167.301L68.3869 155.479Z" fill="white"/>
<path d="M68.2053 112.292C61.9566 111.229 56.3734 113.706 53.8591 118.143L51.844 121.739L35.8617 160.359C33.0331 165.905 30.7869 173.014 36.5919 181.712L63.7036 217.541L81.5439 205.163L60.2834 170.037L80.3515 132.998C80.7703 132.365 81.1205 131.69 81.396 130.983L81.4607 130.853C81.8344 129.872 82.0647 128.841 82.1447 127.794C82.5977 120.611 76.3859 113.697 68.2053 112.292Z" fill="#FFB1A5"/>
<path d="M81.2468 205.357L59.8477 170.065L74.0275 143.896L74.6283 144.229L60.6426 170.047L81.8384 204.997L81.2468 205.357Z" fill="#512944"/>
<path d="M49.1326 172.302L48.6797 171.775C53.7914 167.338 60.299 169.714 60.3637 169.732L60.1234 170.389C60.0586 170.361 53.9208 168.142 49.1326 172.302Z" fill="#512944"/>
<path d="M634.582 401.739H23.5195V402.433H634.582V401.739Z" fill="#512944"/>
<path d="M633.193 308.965C638.917 285.232 624.318 261.353 600.586 255.629C576.854 249.906 552.975 264.504 547.251 288.236C541.527 311.969 556.126 335.848 579.858 341.572C603.59 347.295 627.469 332.697 633.193 308.965Z" fill="white"/>
<path d="M590.268 343.199C579.306 343.197 568.729 339.153 560.561 331.842C552.393 324.531 547.207 314.465 545.996 303.569C544.784 292.674 547.632 281.715 553.993 272.788C560.355 263.86 569.785 257.592 580.479 255.181L580.627 255.856C572.013 257.806 564.189 262.314 558.181 268.788C552.174 275.263 548.264 283.402 546.963 292.138C545.663 300.874 547.033 309.799 550.894 317.742C554.754 325.686 560.926 332.277 568.598 336.652C576.271 341.027 585.087 342.981 593.889 342.257C602.692 341.534 611.07 338.167 617.926 332.598C624.781 327.03 629.794 319.519 632.306 311.052C634.818 302.584 634.713 293.555 632.003 285.149L632.66 284.936C634.816 291.622 635.363 298.723 634.255 305.66C633.147 312.597 630.415 319.174 626.283 324.856C622.15 330.537 616.734 335.161 610.476 338.352C604.217 341.543 597.293 343.21 590.268 343.218V343.199Z" fill="#512944"/>
<path d="M558.008 308.341C558.008 300.364 569.036 299.19 569.036 293.912C569.036 291.721 567.353 290.214 564.968 290.214C564.032 290.268 563.125 290.558 562.331 291.057C561.537 291.557 560.883 292.25 560.43 293.071L558.109 291.518C558.796 290.227 559.821 289.148 561.076 288.397C562.33 287.646 563.765 287.252 565.227 287.256C569.322 287.256 572.28 289.826 572.28 293.727C572.28 301.122 561.567 302.24 561.446 307.361H572.631V310.088H558.174C558.069 309.512 558.014 308.927 558.008 308.341Z" fill="#512944"/>
<path d="M575.109 301.944L585.499 287.238H589.058V301.26H592.109V303.941H589.058V310.051H586.026V303.941H575.109V301.944ZM585.98 301.26V292.941C585.98 291.878 586.1 290.649 586.1 290.649H586.026C585.712 291.316 585.338 291.954 584.908 292.553L578.557 301.214V301.279L585.98 301.26Z" fill="#512944"/>
<path d="M602.184 287.238H604.958L596.879 310.051H594.105L602.184 287.238Z" fill="#512944"/>
<path d="M618.379 292.119C618.737 291.381 619.164 290.678 619.654 290.02V289.956C619.126 290.01 618.595 290.032 618.065 290.02H608.035V287.247H623.001V289.447L612.897 310.061H609.625L618.379 292.119Z" fill="#512944"/>
</svg>
