<svg width="496" height="475" viewBox="0 0 496 475" fill="none" xmlns="http://www.w3.org/2000/svg">
<path fill-rule="evenodd" clip-rule="evenodd" d="M89.7363 239.116C89.7363 150.37 163.246 78.4269 253.925 78.4269C344.603 78.4269 418.112 150.37 418.112 239.116C418.112 327.862 344.603 399.804 253.925 399.804C163.246 399.804 89.7363 327.862 89.7363 239.116Z" fill="#D6D6FF"/>
<path opacity="0.2" fill-rule="evenodd" clip-rule="evenodd" d="M67.043 239.116C67.043 138.106 150.711 56.2208 253.922 56.2208C357.131 56.2208 440.8 138.106 440.8 239.116C440.8 340.126 357.131 422.011 253.922 422.011C150.711 422.011 67.043 340.126 67.043 239.116Z" stroke="#FFBF00" stroke-width="1.3" stroke-linecap="round" stroke-linejoin="round"/>
<path opacity="0.5" fill-rule="evenodd" clip-rule="evenodd" d="M37.9238 239.116C37.9238 122.366 134.629 27.722 253.922 27.722C373.213 27.722 469.919 122.366 469.919 239.116C469.919 355.865 373.213 450.51 253.922 450.51C134.629 450.51 37.9238 355.865 37.9238 239.116Z" stroke="#FFBF00" stroke-width="1.3" stroke-linecap="round" stroke-linejoin="round"/>
<path fill-rule="evenodd" clip-rule="evenodd" d="M13.8281 239.116C13.8281 109.341 121.322 4.13766 253.924 4.13766C386.523 4.13766 494.018 109.341 494.018 239.116C494.018 368.891 386.523 474.094 253.924 474.094C121.322 474.094 13.8281 368.891 13.8281 239.116Z" stroke="#FFBF00" stroke-width="1.3" stroke-linecap="round" stroke-linejoin="round"/>
<path fill-rule="evenodd" clip-rule="evenodd" d="M37.0684 146.808C37.0684 102.776 73.4812 67.0818 118.399 67.0818C163.317 67.0818 199.731 102.776 199.731 146.808C199.731 190.839 163.317 226.534 118.399 226.534C73.4812 226.534 37.0684 190.839 37.0684 146.808Z" fill="#FFBF00"/>
<path fill-rule="evenodd" clip-rule="evenodd" d="M330.717 395.969C330.717 358.849 361.588 328.758 399.667 328.758C437.748 328.758 468.618 358.849 468.618 395.969C468.618 433.089 437.748 463.182 399.667 463.182C361.588 463.182 330.717 433.089 330.717 395.969Z" fill="#FFBE00"/>
<path fill-rule="evenodd" clip-rule="evenodd" d="M98.6031 83.6833C101.321 81.5928 103.915 81.046 107.265 80.0957C111.347 78.9377 116.259 77.6924 120.207 78.7682C124.88 80.0415 128.96 83.9149 131.857 87.2273C134.872 90.6765 143.972 104.936 141.915 112.639C141.322 114.862 139.322 117.582 137.951 119.305C137.227 120.214 137.513 123.197 137.513 123.197C137.513 123.197 136.755 123.816 135.896 123.859C135.039 123.902 134.081 123.372 134.081 123.372C134.081 123.372 132.572 125.988 129.944 127.245C127.314 128.502 123.563 128.399 123.563 128.399L88.1972 117.163C88.1972 117.163 85.7768 113.918 86.462 109.541C87.1771 104.97 91.0405 99.1503 93.0523 93.8435C94.5393 89.9219 95.8749 85.7809 98.6031 83.6833Z" fill="#C18A75"/>
<path fill-rule="evenodd" clip-rule="evenodd" d="M74.6356 147.934C77.453 145.363 88.8195 140.349 88.8195 140.349L104.476 132.961L123.55 130.733L125.977 131.832L126.895 136.587L128.925 138.518C128.925 138.518 131.75 139.832 134.912 140.937C141.128 143.112 150.166 146.443 152.227 151.12C155.853 159.342 157.303 174.159 159.182 185.855C161.517 200.392 164.042 212.184 164.042 212.184C164.042 212.184 159.17 215.613 152.643 218.954C152.385 219.088 148.303 220.864 148.303 220.864C148.303 220.864 145.796 206.852 145.511 206.969C143.952 207.609 147.111 220.962 145.467 221.558C139.751 223.635 133.984 225.234 126.666 226.057C115.432 227.319 104.907 225.549 96.5127 223.526C90.0323 221.964 84.1299 218.781 84.1299 218.781L84.9406 210.738L84.3807 205.286C84.3807 205.286 80.7113 209.565 76.8039 210.023C73.4913 210.412 70.03 207.481 68.2625 202.89C65.4942 195.703 66.5196 184.824 67.9186 173.422C69.2167 162.837 70.639 151.581 74.6356 147.934Z" fill="#FFF4ED"/>
<path fill-rule="evenodd" clip-rule="evenodd" d="M97.9054 107.87L99.7039 108.415C99.7039 108.415 101.51 106.232 102.6 103.674C104.152 100.033 105.521 95.4049 109.029 93.2874C111.149 92.0075 115.602 91.6969 117.085 92.9663C117.653 93.4521 119.083 94.5999 119.998 96.494C121.215 99.0118 122.062 102.612 124.031 105.426C125.941 108.155 127.852 109.761 129.555 111.328C131.056 112.71 132.474 114.219 132.474 114.219L129.079 116.689C129.079 116.689 128.451 120.007 126.962 122.818C125.474 125.629 123.126 127.933 123.126 127.933L123.438 133.94C123.438 133.94 118.558 136.435 113.823 136.134C109.088 135.831 104.498 132.732 104.498 132.732L100.238 137.695C100.238 137.695 101.345 141.91 100.595 144.643C99.3819 149.069 97.9312 155.902 97.9312 155.902C97.9312 155.902 94.8798 154.424 92.7024 152.007C90.5237 149.589 89.042 147.157 89.042 147.157C89.042 147.157 89.4583 141.76 88.0128 137.514C86.8297 134.042 83.7149 131.248 85.1178 126.786C85.8199 124.555 89.3808 115.823 90.8573 113.674C92.1529 111.79 94.819 108.663 94.819 108.663L97.9054 107.87Z" fill="#FFDDC0"/>
<path fill-rule="evenodd" clip-rule="evenodd" d="M96.9935 108.57L98.9187 108.9L99.5523 113.44L94.957 116.301L96.9935 108.57Z" fill="#9AA6BE"/>
<path fill-rule="evenodd" clip-rule="evenodd" d="M97.9022 118.914L100.214 117.264L101.369 120.731L96.3066 123.261L97.9022 118.914Z" fill="#9AA6BE"/>
<path fill-rule="evenodd" clip-rule="evenodd" d="M98.1754 128.379C98.8568 125.408 102.467 123.922 102.467 123.922L104.613 131.377L99.7438 135.807C99.7438 135.807 97.494 131.35 98.1754 128.379Z" fill="#9AA6BE"/>
<path fill-rule="evenodd" clip-rule="evenodd" d="M406.796 334.393C407.076 334.536 407.699 335.604 407.699 335.604C407.699 335.604 409.84 334.562 409.84 336.421C409.84 338.282 411.865 336.783 412.612 337.465C413.367 338.154 413.08 339.437 413.08 339.437C413.08 339.437 414.567 339.51 414.788 339.892C415.118 340.461 414.856 341.607 414.856 341.607L417.538 342.75L416.895 344.475L418.547 350.497L418.172 352.903L417.976 356.914L413.872 360.106L408.657 360.684L382.675 364.686C382.675 364.686 380.034 363.222 379.044 362.291C378.054 361.36 377.061 361.127 376.502 360.091C376.343 359.796 377.542 358.279 377.393 357.964C377.181 357.514 375.699 356.819 375.545 356.332C375.402 355.873 376.293 354.727 376.194 354.249C376.109 353.831 374.782 353.49 374.753 353.057C374.725 352.675 375.593 351.558 375.61 351.172C375.628 350.736 375.31 349.4 375.391 348.967C375.465 348.57 377.226 347.33 377.351 346.942C377.496 346.491 376.693 343.014 376.918 342.603C377.658 341.254 379.931 339.95 381.22 338.908C381.639 338.569 381.854 336.865 382.311 336.558C382.823 336.214 383.951 337.277 384.505 336.984C385.076 336.682 385.886 334.484 386.486 334.221C386.917 334.031 388.284 335.435 388.723 335.277C389.014 335.172 392.461 333.382 392.753 333.285C393.149 333.153 393.902 334.528 394.278 334.422C394.879 334.253 395.536 333.255 396.082 333.119C396.64 332.981 399.284 332.955 399.79 332.869C400.222 332.796 401.486 334.065 401.842 334.027C402.254 333.981 403.533 332.891 403.834 332.845C405.714 332.553 404.808 333.367 406.796 334.393Z" fill="#9F7A63"/>
<path fill-rule="evenodd" clip-rule="evenodd" d="M358.971 398.44C363.94 388.501 373.833 388.58 373.833 388.58L378.683 386.867L381.759 386.406L388.562 380.068L416.874 384.511C416.874 384.511 423.042 387.381 425.924 388.069C428.596 388.705 434.131 390.438 436.374 392.04C451.321 402.715 453.791 437.663 453.791 437.663L444.436 446.937C444.436 446.937 441.639 445.927 439.009 444.296C436.381 442.663 433.918 440.409 433.918 440.409L431.555 455.966C431.555 455.966 422.21 460.966 409.136 462.721C401.279 463.774 391.403 462.935 383.291 461.161C372.978 458.906 363.739 454.144 356.976 448.915C349.569 443.189 345.117 437.067 345.117 437.067C345.117 437.067 352.671 411.042 358.971 398.44Z" fill="#8EAF9E"/>
<path fill-rule="evenodd" clip-rule="evenodd" d="M386.879 386.75L405.61 387.257C405.61 387.257 402.066 400.116 399.434 421.935C398.281 431.495 396.679 440.47 394.018 450.033C391.9 457.637 391.132 462.487 391.132 462.487C391.132 462.487 386.853 462.435 382.171 461.271C377.488 460.106 372.4 457.828 372.4 457.828C372.4 457.828 372.911 454.023 374.902 448.037C377.152 441.278 381.01 431.765 382.93 422.34C384.693 413.687 385.271 406.287 385.814 399.674C386.388 392.706 386.879 386.75 386.879 386.75Z" fill="white"/>
<path fill-rule="evenodd" clip-rule="evenodd" d="M382.774 362.581L381.426 353.433L384.051 349.196L386.692 349.363L389.204 347.189L390.845 348.602L393.095 346.337L396.925 348.742L399.252 347.862L400.112 350.352L401.904 350.362L402.783 352.215L404.591 351.739L404.327 354.837L406.052 355.23L407.646 360.696L414.67 359.703C414.67 359.703 413.914 355.371 415.355 355.215C417.211 355.013 417.033 358.093 418.404 361.381C419.773 364.67 420.829 366.579 421.658 368.712C423.423 373.258 420.346 378.733 419.379 383.073C418.589 386.615 420.007 389.529 420.007 389.529L413.179 396.322L409.448 386.971L407.187 383.902L405.522 387.52C405.522 387.52 400.23 390.61 396.581 390.774C389.01 391.117 386.842 387.555 386.842 387.555L388.178 383.464L389.738 379.382C389.738 379.382 386.092 376.886 384.351 372.687C382.61 368.486 382.774 362.581 382.774 362.581Z" fill="#DBA480"/>
<path fill-rule="evenodd" clip-rule="evenodd" d="M420.952 389.079L422.319 390.8C422.319 390.8 419.964 392.763 417.964 395.559C415.965 398.356 414.319 401.988 414.319 401.988L412.193 398.85C412.193 398.85 412.788 396.382 414.977 393.939C417.167 391.497 420.952 389.079 420.952 389.079Z" fill="white"/>
<path fill-rule="evenodd" clip-rule="evenodd" d="M403.422 372.653L405.912 369.223L410.96 369.959C410.96 369.959 413.689 373.002 413.621 375.381C413.552 377.762 411.881 381.488 411.881 381.488L408.505 385.888L403.422 372.653Z" fill="#FFB1A5"/>
<path fill-rule="evenodd" clip-rule="evenodd" d="M214.862 271.951C215.996 260.443 222.87 263.076 222.87 263.076C222.87 263.076 223.578 261.136 225.489 259.679C227.547 258.11 230.948 256.964 234.793 255.476C241.872 252.737 251.21 248.636 251.21 248.636L273.064 246.053C273.064 246.053 277.065 247.819 285.701 250.689C294.337 253.56 307.609 257.534 307.609 257.534L311.371 262.089C311.371 262.089 315.79 258.614 317.858 263.738C320.189 269.515 319.818 278.081 320.794 289.1C321.557 297.706 323.818 308.794 324.378 314.728C325.147 322.881 325.499 325.215 324.719 327.336C323.769 329.919 321.55 331.293 321.55 331.293C321.55 331.293 331.581 341.181 320.182 346.424C313.552 349.473 301.024 352.377 289.836 354.716C277.39 357.317 266.563 359.191 266.563 359.191L265.681 346.029C265.681 346.029 279.275 340.847 289.4 335.144C300.077 329.132 307.701 326.146 307.701 326.146L302.675 301.795C302.675 301.795 302.065 304.331 301.271 309.968C300.673 314.221 300.477 322.38 298.177 324.101C295.772 325.902 291.019 328.537 286.746 328.868C283.881 329.089 279.548 328.401 275.928 326.714C272.298 325.024 269.384 322.334 269.384 322.334L211.584 319.71C211.584 319.71 213.077 305.968 213.973 292.641C214.524 284.462 214.431 276.328 214.862 271.951Z" fill="white"/>
<path fill-rule="evenodd" clip-rule="evenodd" d="M160.188 320.964L162.046 318.973L260.405 320.14L263.304 322.411L266.986 361.334L283.66 361.297L285.267 362.091L285.275 363.901L268.999 380.31C268.999 380.31 269.312 382.644 268.161 384.043C267.011 385.441 264.398 385.902 264.398 385.902L170.278 383.651L167.788 382.023L160.188 320.964Z" fill="#B0BBCF"/>
<path fill-rule="evenodd" clip-rule="evenodd" d="M242.32 232.422L242.898 191.322C242.898 191.322 247.879 184.676 255.994 183.426C263.402 182.284 271.436 182.875 276.183 188.303C278.646 191.119 280.29 195.514 281.366 200.535C281.805 202.585 281.699 207.399 281.699 207.399C281.699 207.399 285.026 209.769 284.707 215.695C284.523 219.112 282.833 223.195 281.08 224.634C279.062 226.289 276.959 225.038 276.959 225.038C276.959 225.038 275.931 230.698 272.254 234.493C268.054 238.826 260.884 241.419 256.266 242.403C252.563 243.193 249.842 241.39 247.522 239.173C244.416 236.205 242.32 232.422 242.32 232.422Z" fill="white"/>
<path fill-rule="evenodd" clip-rule="evenodd" d="M249.384 306.032C258.053 300.823 267.072 304.639 269.227 311.044C273.364 323.332 263.621 328.78 263.621 328.78L263.378 322.861L260.747 319.975L244.014 319.951C244.014 319.951 243.654 309.476 249.384 306.032Z" fill="#93FBF9"/>
<path fill-rule="evenodd" clip-rule="evenodd" d="M321.557 331.368L324.881 327.635C324.881 327.635 326.47 329.589 326.572 331.719C326.674 333.847 325.289 336.151 325.289 336.151L321.557 331.368Z" fill="#93FBF9"/>
<path fill-rule="evenodd" clip-rule="evenodd" d="M251.922 242.453C251.922 242.453 257.112 242.55 261.53 241.051C265.948 239.551 269.593 236.456 269.593 236.456L272.45 235.656L273.199 248.719C273.199 248.719 271.578 251.998 268.936 254.681C265.524 258.146 260.686 261.135 258.329 260.182C254.145 258.492 251.922 252.824 251.922 252.824V242.453Z" fill="#7282A1"/>
<path fill-rule="evenodd" clip-rule="evenodd" d="M263.967 328.8C263.967 328.8 265.626 327.433 266.948 325.974C268.271 324.514 269.255 322.964 269.255 322.964C269.255 322.964 276.483 327.907 282.73 328.904C288.978 329.901 294.246 326.95 294.246 326.95L294.453 332.554C294.453 332.554 286.947 336.975 279.647 340.265C272.347 343.556 265.252 345.714 265.252 345.714L263.967 328.8Z" fill="#7282A1"/>
<path fill-rule="evenodd" clip-rule="evenodd" d="M302.937 263.422C308.672 256.012 311.186 262.005 311.186 262.005C311.186 262.005 305.536 267.394 302.679 273.283C299.823 279.17 299.76 285.557 299.76 285.557L301.004 294.676C301.004 294.676 296.235 294.096 296.686 284.688C297.059 276.919 299.027 268.477 302.937 263.422Z" fill="#7282A1"/>
<path fill-rule="evenodd" clip-rule="evenodd" d="M274.115 211.387C274.96 209.635 277.107 208.145 277.107 208.145L277.356 209.99C277.356 209.99 281.994 203.559 284.387 212.333C285.13 215.06 284.13 220.993 282.306 223.684C281.988 224.155 280.765 225.302 280.765 225.302C280.765 225.302 281.429 230.824 276.505 233.719C269.099 238.074 255.573 239.628 255.566 237.514C255.565 237.019 255.163 235.854 255.938 235.192C256.806 234.449 257.603 234.756 259.454 234.671C263.499 234.482 269.846 234.564 273.691 232.867C279.295 230.393 278.354 225.296 278.354 225.296C278.354 225.296 275.67 225.727 274.307 222.81C272.978 219.963 272.954 213.797 274.115 211.387Z" fill="#93FBF9"/>
<path fill-rule="evenodd" clip-rule="evenodd" d="M243.106 190.745C243.106 190.745 242.644 194.295 244.329 195.316C246.369 196.555 250.312 195.995 253.576 195.182C256.826 194.374 259.395 191.136 261.921 188.767C264.026 186.793 266.39 185.559 266.39 185.559C266.39 185.559 269.987 186.697 271.824 188.801C273.663 190.903 274.766 193.587 274.766 193.587C274.766 193.587 270.119 197.503 269.524 200.796C268.144 208.428 269.781 220.342 267.387 226.942C266.271 230.018 263.739 232.845 261.358 234.302C259.584 235.387 257.758 234.894 256.585 235.114C255.662 235.287 255.181 236.275 255.181 236.275C255.181 236.275 251.989 236.525 250.535 236.364C247.502 236.032 244.676 234.658 242.812 232.577C240.963 230.512 240.065 227.74 240.065 227.74C240.065 227.74 239.655 223.882 238.582 217.898C237.805 213.564 235.826 210.286 236.126 206.2C236.84 196.476 243.106 190.745 243.106 190.745Z" fill="#FFBF00"/>
<path fill-rule="evenodd" clip-rule="evenodd" d="M234.052 213.78C234.875 210.443 236.748 210.28 236.748 210.28L238.559 217.1L239.537 225.271C239.537 225.271 236.558 224.786 235.187 221.913C233.815 219.04 233.228 217.117 234.052 213.78Z" fill="#93FBF9"/>
<path fill-rule="evenodd" clip-rule="evenodd" d="M160.566 323.145C160.566 323.145 160.185 320.973 160.875 319.972C161.559 318.979 163.284 319.163 163.284 319.163L259.487 320.127C259.487 320.127 261.122 320.103 262.063 321.004C263.003 321.905 263.249 323.733 263.249 323.733L268.846 380.845C268.846 380.845 269.073 383.38 267.727 384.613C266.337 385.887 263.144 385.774 263.144 385.774L171.221 383.729C171.221 383.729 169.704 383.687 168.859 382.908C168.015 382.129 167.843 380.614 167.843 380.614L160.566 323.145Z" stroke="black" stroke-width="1.3" stroke-linecap="round" stroke-linejoin="round"/>
<path d="M272.811 246.231C280.415 249.549 293.312 252.82 299.543 254.971C302.21 255.892 306.269 257.179 308.305 258.452C309.541 259.224 310.443 260.61 310.961 261.581" stroke="black" stroke-width="1.3" stroke-linecap="round" stroke-linejoin="round"/>
<path d="M251.887 242.286C251.887 242.286 252.566 249.276 251.869 251.592" stroke="black" stroke-width="1.3" stroke-linecap="round" stroke-linejoin="round"/>
<path d="M223.317 262.989C217.852 261.844 215.325 266.01 214.767 274.449C214.485 278.716 214.343 287.346 213.549 296.515C212.755 305.682 212.123 311.207 211.682 319.494" stroke="black" stroke-width="1.3" stroke-linecap="round" stroke-linejoin="round"/>
<path d="M251.679 248.761C246.514 250.964 236.111 255.147 232.573 256.483C229.855 257.508 223.886 258.457 223.359 263.199C222.833 267.939 224.761 297.103 229.756 319.559" stroke="black" stroke-width="1.3" stroke-linecap="round" stroke-linejoin="round"/>
<path d="M282.006 207.929C283.216 201.023 281.197 193.402 276.971 189.721" stroke="black" stroke-width="1.3" stroke-linecap="round" stroke-linejoin="round"/>
<path d="M263.809 184.328C254.495 183.229 246.273 187.3 242.868 190.841C239.67 194.169 237.857 197.634 237.05 200.924C234.855 209.862 237.907 210.554 238.92 218.848C239.46 223.277 239.366 224.213 240.191 228.025C240.816 230.917 243.128 234.202 246.678 238.081C248.383 239.944 250.364 241.524 252.28 242.168C253.709 242.648 259.002 243.238 267.333 238.441C268.454 237.794 269.523 237.038 270.527 236.16" stroke="black" stroke-width="1.3" stroke-linecap="round" stroke-linejoin="round"/>
<path d="M273.613 232.766C275.046 230.785 276.237 228.418 277.116 225.611" stroke="black" stroke-width="1.3" stroke-linecap="round" stroke-linejoin="round"/>
<path d="M309.464 259.639C304.179 257.98 298.943 269.773 297.428 277.615C296.109 284.449 296.626 294.724 301.35 294.992" stroke="black" stroke-width="1.3" stroke-linecap="round" stroke-linejoin="round"/>
<path d="M268.88 380.772L284.957 364.179C284.957 364.179 285.719 363.23 285.379 362.313C285.038 361.395 283.673 361.341 283.673 361.341L267.248 361.179" stroke="black" stroke-width="1.3" stroke-linecap="round" stroke-linejoin="round"/>
<path d="M132.865 348.117H133.001H133.592H158.352H162.971H163.541" stroke="black" stroke-width="1.3" stroke-linecap="round" stroke-linejoin="round"/>
<path d="M315.516 348.117H315.517H316.448H351.272" stroke="black" stroke-width="1.3" stroke-linecap="round" stroke-linejoin="round"/>
<path d="M265.719 345.868C272.044 343.456 279.715 339.982 286.119 336.8C305.201 327.319 305.328 325.836 311.956 326.344C319.372 326.911 330.631 338.505 323.439 344.538C317.222 349.753 272.848 357.993 267.058 358.925" stroke="black" stroke-width="1.3" stroke-linecap="round" stroke-linejoin="round"/>
<path d="M239.125 215.871C239.125 215.871 241.088 212.788 242.175 212.753C243.263 212.72 245.439 215.825 245.439 215.825" stroke="#26B4B5" stroke-width="4" stroke-linecap="round" stroke-linejoin="round"/>
<path d="M255.75 215.446C255.75 215.446 257.714 212.363 258.8 212.329C259.887 212.295 262.064 215.401 262.064 215.401" stroke="#26B4B5" stroke-width="4" stroke-linecap="round" stroke-linejoin="round"/>
<path d="M239.125 215.871C239.125 215.871 241.088 212.788 242.175 212.753C243.263 212.72 245.439 215.825 245.439 215.825" stroke="#A6FEFF" stroke-width="1.3" stroke-linecap="round" stroke-linejoin="round"/>
<path d="M255.75 215.446C255.75 215.446 257.714 212.363 258.8 212.329C259.887 212.295 262.064 215.401 262.064 215.401" stroke="#A6FEFF" stroke-width="1.3" stroke-linecap="round" stroke-linejoin="round"/>
<path d="M239.629 225.171C240.136 228.568 242.126 231.772 242.873 232.581C245.631 235.574 250.556 236.629 255.31 236.125" stroke="black" stroke-width="1.3" stroke-linecap="round" stroke-linejoin="round"/>
<path d="M260.314 234.973C261.062 234.698 261.778 234.381 262.452 234.023" stroke="black" stroke-width="1.3" stroke-linecap="round" stroke-linejoin="round"/>
<path d="M262.312 234.116C269.191 229.858 268.735 218.74 268.961 214.283C269.355 206.539 267.447 198.445 274.746 193.621" stroke="black" stroke-width="1.3" stroke-linecap="round" stroke-linejoin="round"/>
<path d="M277.102 208.007C275.988 208.625 275.02 209.667 274.442 211.027C273.241 213.852 272.901 217.859 273.696 221.419C274.527 225.131 278.673 226.668 281.177 224.769C283.612 222.922 285.59 215.911 283.874 211C283.203 209.078 282.045 207.985 280.749 207.567" stroke="black" stroke-width="1.3" stroke-linecap="round" stroke-linejoin="round"/>
<path d="M281.37 207.87C275.669 206.028 273.916 225.847 279.013 225.577" stroke="black" stroke-width="1.3" stroke-linecap="round" stroke-linejoin="round"/>
<path d="M267.485 185.718C260.064 187.456 259.757 193.786 254.2 195.299C252.674 195.716 248.473 196.204 245.242 195.532C239.752 194.389 246.634 187.98 248.797 186.815" stroke="black" stroke-width="1.3" stroke-linecap="round" stroke-linejoin="round"/>
<path d="M252.005 249.28C249.963 251.134 255.754 260.52 259.971 260.52C262.918 260.52 270.055 254.32 272.672 249.73C273.799 247.75 273.711 247.697 272.607 246.427" stroke="black" stroke-width="1.3" stroke-linecap="round" stroke-linejoin="round"/>
<path d="M252.363 244.625C252.363 244.625 257.752 248.545 272.182 243.466" stroke="black" stroke-width="1.3" stroke-linecap="round" stroke-linejoin="round"/>
<path d="M256.887 242.331C258.851 242.674 264.227 242.595 271.968 239.498" stroke="black" stroke-width="1.3" stroke-linecap="round" stroke-linejoin="round"/>
<path d="M252.41 247.899C252.41 247.899 256.822 253.416 272.119 247.285" stroke="black" stroke-width="1.3" stroke-linecap="round" stroke-linejoin="round"/>
<path d="M252.133 251.2C252.133 251.2 256.424 257.029 271.411 251.27" stroke="black" stroke-width="1.3" stroke-linecap="round" stroke-linejoin="round"/>
<path d="M254.057 256.167C256.612 257.357 261.293 258.599 267.114 256.122" stroke="black" stroke-width="1.3" stroke-linecap="round" stroke-linejoin="round"/>
<path d="M269.559 322.58C273.581 326.436 279.914 328.91 285.092 328.928C288.574 328.94 296.582 326.341 299.077 323.325C301.573 320.309 300.397 310.652 302.686 301.398" stroke="black" stroke-width="1.3" stroke-linecap="round" stroke-linejoin="round"/>
<path d="M244.23 319.627C243.94 318.076 243.912 316.445 244.19 314.791C245.427 307.415 252.266 302.415 259.464 303.622C266.662 304.829 271.495 311.787 270.257 319.164C269.562 323.309 267.097 326.704 263.794 328.67" stroke="black" stroke-width="1.3" stroke-linecap="round" stroke-linejoin="round"/>
<path d="M294.088 327.068C294.088 327.068 294.262 330.397 294.3 332.322" stroke="black" stroke-width="1.3" stroke-linecap="round" stroke-linejoin="round"/>
<path d="M307.695 326.04C306.239 320.237 304.826 310.637 303 302.558C300.313 290.668 300.095 288.385 300.052 288.087C298.451 277.089 308.721 259.692 314.969 261.267C321.217 262.842 319.384 277.821 321.161 291.989C322.936 306.156 325.035 316.529 325.165 324.609C325.207 327.158 323.888 329.425 321.937 331.017" stroke="black" stroke-width="1.3" stroke-linecap="round" stroke-linejoin="round"/>
<path d="M264.629 333.622C276.178 334.042 288.426 333.512 293.994 330.079" stroke="black" stroke-width="1.3" stroke-linecap="round" stroke-linejoin="round"/>
<path d="M265.186 339.941C270.038 340.109 275.463 339.976 280.055 339.638" stroke="black" stroke-width="1.3" stroke-linecap="round" stroke-linejoin="round"/>
<path d="M265.984 327.218C269.113 327.608 273.959 327.339 276.88 327.205" stroke="black" stroke-width="1.3" stroke-linecap="round" stroke-linejoin="round"/>
<path fill-rule="evenodd" clip-rule="evenodd" d="M232.545 275.801H246.952C247.676 275.801 248.262 276.387 248.262 277.111V277.31C248.262 278.033 247.676 278.62 246.952 278.62H232.545C231.821 278.62 231.234 278.033 231.234 277.31V277.111C231.234 276.387 231.821 275.801 232.545 275.801Z" fill="#EE005E" stroke="black" stroke-width="1.3" stroke-linecap="round" stroke-linejoin="round"/>
<path d="M239.368 225.172C238.305 224.917 237.348 224.464 236.75 223.839C234.596 221.592 232.465 215.602 235.341 210.996C235.625 210.54 235.949 210.159 236.304 209.847" stroke="black" stroke-width="1.3" stroke-linecap="round" stroke-linejoin="round"/>
<path d="M272.277 235.645L272.602 249.45" stroke="black" stroke-width="1.3" stroke-linecap="round" stroke-linejoin="round"/>
<path d="M324.971 327.22C325.966 328.674 326.546 330.411 326.546 332.277C326.546 333.728 326.116 335.313 325.145 336.609" stroke="black" stroke-width="1.3" stroke-linecap="round" stroke-linejoin="round"/>
<path fill-rule="evenodd" clip-rule="evenodd" d="M209.699 352.351C209.699 349.977 211.493 348.053 213.705 348.053C215.918 348.053 217.712 349.977 217.712 352.351C217.712 354.725 215.918 356.649 213.705 356.649C211.493 356.649 209.699 354.725 209.699 352.351Z" fill="white" stroke="black" stroke-width="1.3" stroke-linecap="round" stroke-linejoin="round"/>
<path d="M147.495 163.033C146.546 167.875 146.247 170.991 146.361 174.868C146.475 178.743 147.222 184.904 146.49 188.743C145.76 192.58 145.212 195.963 144.865 201.3C144.548 206.164 146.024 215.106 145.75 220.864" stroke="black" stroke-width="1.3" stroke-linecap="round" stroke-linejoin="round"/>
<path d="M88.6811 140.392C82.6429 144.302 73.3568 145.384 70.8471 154.726C68.9594 161.753 68.9594 169.922 66.9177 183.234C65.1619 194.677 67.0251 201.646 70.2459 206.681C72.3754 210.011 79.3575 213.194 87.4567 200.739C93.1497 191.985 93.716 185.276 97.741 173.439C99.7141 167.633 102.433 160.862 102.455 155.821C102.464 153.799 100.211 151.743 99.215 150.71" stroke="black" stroke-width="1.3" stroke-linecap="round" stroke-linejoin="round"/>
<path d="M97.9683 155.724C99.3014 148.805 101.093 143.779 100.879 140.618C100.624 136.875 97.8597 133.223 97.883 129.377C97.8908 128.128 98.0097 127.476 98.6614 126.696C99.313 125.918 101.11 124.517 101.962 123.889C102.747 123.313 103.396 123.072 104.216 122.916C105.036 122.761 105.813 121.726 105.435 121.165C105.056 120.604 103.877 120.508 102.9 120.555C102.292 120.585 101.377 120.969 100.462 121.349C99.2678 121.845 98.0989 122.316 97.8545 122.511C96.8085 123.349 93.9355 126.73 93.9355 126.73" stroke="black" stroke-width="1.3" stroke-linecap="round" stroke-linejoin="round"/>
<path d="M95.4702 124.866C96.4775 122.78 97.2532 119.867 98.8048 118.127C99.6233 117.209 100.843 116.314 101.673 115.388C102.211 114.788 103.399 113.356 102.932 112.454C102.606 111.825 101.991 111.981 101.47 112.198C100.478 112.612 99.7409 113.282 98.9057 113.926C97.8855 114.714 96.3158 115.387 95.4974 116.381C94.5212 117.569 93.9342 119.052 93.2683 120.432C92.3929 122.247 90.2246 126.298 90.2246 126.298" stroke="black" stroke-width="1.3" stroke-linecap="round" stroke-linejoin="round"/>
<path d="M94.4035 117.944C94.7629 115.587 96.1244 113.915 96.4425 110.874C96.7606 107.834 95.2284 108.503 94.8017 108.941C94.0337 109.731 93.4131 111.295 92.8946 112.523C92.3761 113.751 91.8654 114.659 91.1956 116.048C90.4935 117.502 90.0707 119.056 89.454 120.552C88.7028 122.371 88.1532 124.262 87.0801 126.265" stroke="black" stroke-width="1.3" stroke-linecap="round" stroke-linejoin="round"/>
<path d="M93.7627 110.326C91.9926 110.411 90.2225 115.161 88.6257 117.966C87.0276 120.773 84.9123 128.068 85.0429 129.364C85.1722 130.659 85.6997 131.166 87.1194 134.668C88.5391 138.17 89.1882 140.01 89.4183 142.424C89.5101 143.39 89.3446 144.854 88.9877 146.615" stroke="black" stroke-width="1.3" stroke-linecap="round" stroke-linejoin="round"/>
<path d="M89.0441 144.799C87.5456 145.871 87.7318 149.763 83.4068 160.317C81.3664 165.298 77.5793 174.335 76.0808 177.381C72.9143 183.815 70.4356 186.78 69.4297 194.185" stroke="black" stroke-width="1.3" stroke-linecap="round" stroke-linejoin="round"/>
<path d="M96.377 108.641L97.6169 107.496L99.1116 112.312L99.4025 113.33" stroke="black" stroke-width="1.3" stroke-linecap="round" stroke-linejoin="round"/>
<path d="M102.24 123.768L103.818 129.498C103.818 129.498 104.013 130.168 103.883 130.731C103.752 131.293 103.296 131.749 103.296 131.749L100.009 135.266L99.6445 135.656" stroke="black" stroke-width="1.3" stroke-linecap="round" stroke-linejoin="round"/>
<path d="M97.6406 107.472C97.6406 107.472 98.6039 106.823 99.0745 107.607C99.4702 108.266 99.9033 109.667 99.9033 109.667L100.684 112.203" stroke="black" stroke-width="1.3" stroke-linecap="round" stroke-linejoin="round"/>
<path d="M101.627 115.806L102.827 120.127" stroke="black" stroke-width="1.3" stroke-linecap="round" stroke-linejoin="round"/>
<path d="M103.613 123.253L105.504 130.026C105.504 130.026 105.699 130.694 105.568 131.258C105.438 131.821 104.981 132.277 104.981 132.277L100.606 137.027L100.258 137.406L100.205 137.463" stroke="black" stroke-width="1.3" stroke-linecap="round" stroke-linejoin="round"/>
<path d="M123.592 127.19C123.314 128.605 123.127 132.322 123.508 133.353" stroke="black" stroke-width="1.3" stroke-linecap="round" stroke-linejoin="round"/>
<path d="M123.895 130.657C128.345 132.289 124.563 135.7 128.649 138.318C133.481 141.412 144.752 142.702 150.239 148.987C155.728 155.271 156.82 170.83 159.105 185.818C161.062 198.66 163.748 212.069 163.748 212.069" stroke="black" stroke-width="1.3" stroke-linecap="round" stroke-linejoin="round"/>
<path d="M125.678 132.065C121.927 135.816 112.865 138.455 104.85 133.014" stroke="black" stroke-width="1.3" stroke-linecap="round" stroke-linejoin="round"/>
<path d="M88.6133 145.871C89.4705 149.012 97.1806 158.864 102.321 155.653" stroke="black" stroke-width="1.3" stroke-linecap="round" stroke-linejoin="round"/>
<path d="M100.297 116.928L101.36 120.733" stroke="black" stroke-width="1.3" stroke-linecap="round" stroke-linejoin="round"/>
<path d="M409.014 385.937C409.81 389.013 412.284 392.808 413.153 396.57" stroke="black" stroke-width="1.3" stroke-linecap="round" stroke-linejoin="round"/>
<path d="M411.794 383.217C411.961 380.252 413.897 376.798 413.59 374.529C413.379 372.967 412.318 371.875 411.479 370.585C410.775 369.505 406.836 369.525 405.633 369.096C405.21 368.945 404.153 368.333 404.233 367.72C404.432 366.22 407.074 366.426 408.703 366.47C409.727 366.498 411.208 366.258 412.463 366.426C413.716 366.593 414.568 367.749 415.511 368.556C417.15 369.957 418.328 371.88 418.895 373.526" stroke="black" stroke-width="1.3" stroke-linecap="round" stroke-linejoin="round"/>
<path d="M414.304 367.352C413.378 365.41 412.625 365.224 409.763 364.872C408.06 364.664 405.667 364.007 405.522 362.859C405.313 361.198 408.989 361.805 410.156 361.892C411.505 361.99 413.059 361.654 414.317 362.131C416.869 363.1 418.447 367.339 419.92 369.263" stroke="black" stroke-width="1.3" stroke-linecap="round" stroke-linejoin="round"/>
<path d="M407.258 361.497C407.228 360.063 408.991 360.302 410.864 360.163C412.193 360.065 414.085 359.616 415.352 360.123C418.033 361.195 419.296 364.424 420.7 366.903" stroke="black" stroke-width="1.3" stroke-linecap="round" stroke-linejoin="round"/>
<path d="M414.71 359.756C414.336 357.887 414.364 355.313 415.709 355.344C416.396 355.358 416.908 357.523 417.461 359.267C417.991 360.935 418.571 362.167 418.876 363.02C419.748 365.467 421.564 368 422.041 370.548C423.121 376.306 416.701 383.122 419.92 389.048" stroke="black" stroke-width="1.3" stroke-linecap="round" stroke-linejoin="round"/>
<path d="M382.246 385.972C380.83 385.972 376.207 388.011 374.701 388.416C370.672 389.498 363.002 390.643 359.264 397.703C356.486 402.953 352.646 412.73 349.492 423.027C348.031 427.801 346.614 432.423 345.494 436.403" stroke="black" stroke-width="1.3" stroke-linecap="round" stroke-linejoin="round"/>
<path d="M412.537 379.705L412.246 380.216L408.967 385.955C408.967 385.955 408.673 386.573 408.109 386.549C407.545 386.525 407.319 385.936 407.319 385.936L403.19 375.071C403.19 375.071 402.841 374.128 402.892 373.298C402.942 372.467 403.392 371.749 403.392 371.749L404.895 369.344L405.078 369.051L405.107 369.005" stroke="black" stroke-width="1.3" stroke-linecap="round" stroke-linejoin="round"/>
<path d="M406.793 366.308L406.92 366.105L407.88 364.567" stroke="black" stroke-width="1.3" stroke-linecap="round" stroke-linejoin="round"/>
<path d="M410.699 360.053L410.707 360.043L410.752 359.969L413.817 355.065C413.817 355.065 414.371 354.044 414.771 354.094C415.17 354.144 415.416 355.264 415.416 355.264L415.451 355.361" stroke="black" stroke-width="1.3" stroke-linecap="round" stroke-linejoin="round"/>
<path d="M453.401 431.064C451.164 425.249 444.598 420.099 440.124 414.014C436.683 409.333 431.912 402.461 429.835 399.518C427.757 396.577 424.455 390.879 423.027 390.835C421.6 390.792 418.96 393.56 416.538 397.628C414.115 401.695 412.557 406.194 412.76 407.316C412.993 408.605 417.364 415.338 420.651 420.39C425.299 427.532 432.038 442.377 443.198 446.589C443.648 446.759 444.078 446.898 444.493 447.009" stroke="black" stroke-width="1.3" stroke-linecap="round" stroke-linejoin="round"/>
<path d="M453.697 437.267C453.834 434.455 453.542 431.558 453.095 429.322C451.525 421.473 448.04 415.739 445.619 409.421C443.197 403.104 441.513 396.26 437.09 392.575C432.668 388.89 422.269 388.282 419.191 385.205" stroke="black" stroke-width="1.3" stroke-linecap="round" stroke-linejoin="round"/>
<path d="M362.804 409.858C363.182 415.148 364.121 424.89 363.89 431.151C363.746 435.009 363.4 438.508 362.946 441.722C362.515 444.779 361.988 447.58 361.451 450.189" stroke="black" stroke-width="1.3" stroke-linecap="round" stroke-linejoin="round"/>
<path d="M406.621 384.676C404.317 390.775 401.544 403.952 400.895 409.15C399.83 417.673 399.17 425.511 397.812 434.011C396.15 444.389 392.694 451.805 391.387 462.259" stroke="black" stroke-width="1.3" stroke-linecap="round" stroke-linejoin="round"/>
<path d="M389.271 381.666C388.18 383.244 387.573 384.018 387.351 385.164C384.542 399.707 385.592 414.026 382.67 424.249C379.572 435.095 375.16 445.601 372.539 457.277" stroke="black" stroke-width="1.3" stroke-linecap="round" stroke-linejoin="round"/>
<path d="M385.811 395.138C383.252 397.883 381.354 401.895 378.944 401.696C375.903 401.445 374.107 399.831 372.475 400.531C370.844 401.23 375.465 417.471 373.466 430.546C372.643 435.927 371.153 443.617 370.718 446.693C369.882 452.615 370.09 454.197 370.625 456.715" stroke="black" stroke-width="1.3" stroke-linecap="round" stroke-linejoin="round"/>
<path d="M389.102 379.79C385.256 382.555 384.077 384.634 380.686 387.655C377.295 390.677 374.042 391.988 373.828 393.315C373.614 394.64 379.104 398.022 379.858 401.354" stroke="black" stroke-width="1.3" stroke-linecap="round" stroke-linejoin="round"/>
<path d="M412.77 397.684C410.069 397.169 407.658 401.15 407.238 401.864" stroke="black" stroke-width="1.3" stroke-linecap="round" stroke-linejoin="round"/>
<path d="M403.826 394.525C404.608 398.149 405.17 402.307 407.768 402.424C408.138 402.441 413.433 402.803 413.802 402.784" stroke="black" stroke-width="1.3" stroke-linecap="round" stroke-linejoin="round"/>
<path d="M413.909 409.988C411.416 417.324 406.526 431.415 404.243 438.956C399.288 455.328 393.625 455.519 391.594 461.178" stroke="black" stroke-width="1.3" stroke-linecap="round" stroke-linejoin="round"/>
<path d="M408.644 386.052C408.627 386.017 408.618 385.995 408.618 385.995L404.489 375.13C404.489 375.13 404.14 374.188 404.191 373.356C404.241 372.526 404.692 371.809 404.692 371.809L406.103 369.549L406.17 369.443L406.18 369.427" stroke="black" stroke-width="1.3" stroke-linecap="round" stroke-linejoin="round"/>
<path d="M408.207 366.237L409.005 364.968" stroke="black" stroke-width="1.3" stroke-linecap="round" stroke-linejoin="round"/>
<path d="M412.088 359.987L415.271 354.899" stroke="black" stroke-width="1.3" stroke-linecap="round" stroke-linejoin="round"/>
<path d="M240.453 193.67C241.326 190.963 243.701 186.662 250.126 184.496C256.825 182.239 269.729 180.924 276.195 188.753C279.414 192.65 280.974 200.767 280.931 207.519" stroke="black" stroke-width="1.3" stroke-linecap="round" stroke-linejoin="round"/>
<path d="M242.566 189.667C248.924 181.292 265.991 181.599 272.457 189.428C275.677 193.325 277.911 202.514 277.434 210.679" stroke="black" stroke-width="1.3" stroke-linecap="round" stroke-linejoin="round"/>
<path d="M278.483 225.764C278.552 227.766 277.839 229.709 276.488 230.992C273.707 233.632 267.614 234.46 263.521 234.752C260.786 234.947 258.286 235.132 256.574 235.08C255.088 235.035 254.972 237.815 256.579 238.026C258.187 238.236 261.502 237.816 265.018 237.263C269.93 236.491 275.509 234.875 278.345 232.32C280.971 229.955 280.588 225.316 280.588 225.316" stroke="black" stroke-width="1.3" stroke-linecap="round" stroke-linejoin="round"/>
<path d="M262.295 235.217C262.295 236.208 262.196 236.329 262.636 237.21" stroke="black" stroke-width="1.3" stroke-linecap="round" stroke-linejoin="round"/>
<path fill-rule="evenodd" clip-rule="evenodd" d="M36.8672 146.691C36.8672 102.75 73.2645 67.129 118.162 67.129C163.059 67.129 199.456 102.75 199.456 146.691C199.456 190.632 163.059 226.253 118.162 226.253C73.2645 226.253 36.8672 190.632 36.8672 146.691Z" stroke="black" stroke-width="1.3" stroke-linecap="round" stroke-linejoin="round"/>
<path d="M84.4403 205.375C85.445 210.859 84.0007 213.243 84.1843 218.087" stroke="black" stroke-width="1.3" stroke-linecap="round" stroke-linejoin="round"/>
<path d="M144.826 203.362C144.826 203.362 147.357 215.477 147.95 220.228" stroke="black" stroke-width="1.3" stroke-linecap="round" stroke-linejoin="round"/>
<path d="M103.553 137.696C103.553 137.696 108.165 142.997 118.119 141.245" stroke="black" stroke-width="1.3" stroke-linecap="round" stroke-linejoin="round"/>
<path fill-rule="evenodd" clip-rule="evenodd" d="M330.857 396.048C330.857 358.841 361.676 328.68 399.692 328.68C437.708 328.68 468.527 358.841 468.527 396.048C468.527 433.254 437.708 463.416 399.692 463.416C361.676 463.416 330.857 433.254 330.857 396.048Z" stroke="black" stroke-width="1.3" stroke-linecap="round" stroke-linejoin="round"/>
<path fill-rule="evenodd" clip-rule="evenodd" d="M389.537 379.436C389.537 379.436 393.086 380.915 396.338 380.155C398.494 379.651 403.239 376.294 403.239 376.294C403.239 376.294 401.028 379.605 397.268 381.675C393.508 383.745 389.537 382.562 389.537 382.562V379.436Z" fill="black"/>
<path d="M382.12 352.084C381.595 354.47 382.022 356.813 382.122 357.614C382.327 359.253 382.707 360.755 382.796 362.433C382.955 365.41 382.941 366.042 383.25 368.859C383.523 371.359 385.113 374.655 386.928 376.832C388.931 379.236 391.178 380.667 393.388 380.64C395.598 380.613 399.137 379.076 401.624 377.27C402.246 376.819 402.801 376.315 403.288 375.801" stroke="black" stroke-width="1.3" stroke-linecap="round" stroke-linejoin="round"/>
<path d="M390.686 359.756C390.686 359.756 391.96 362.616 391.62 364.228C391.234 366.047 388.65 365.878 390.94 368.294" stroke="black" stroke-width="1.3" stroke-linecap="round" stroke-linejoin="round"/>
<path d="M399.065 356.696C399.065 356.696 396.879 355.12 394.209 356.248" stroke="black" stroke-width="1.3" stroke-linecap="round" stroke-linejoin="round"/>
<path d="M383.779 356.249C383.779 356.249 385.403 355.198 387.666 356.271" stroke="black" stroke-width="1.3" stroke-linecap="round" stroke-linejoin="round"/>
<path fill-rule="evenodd" clip-rule="evenodd" d="M398.735 361.323C398.647 360.463 398.028 359.823 397.351 359.891C396.674 359.96 396.196 360.712 396.284 361.572C396.372 362.432 396.991 363.072 397.667 363.003C398.345 362.935 398.822 362.182 398.735 361.323Z" fill="black"/>
<path fill-rule="evenodd" clip-rule="evenodd" d="M387.981 361.429C387.893 360.57 387.274 359.929 386.596 359.997C385.92 360.067 385.443 360.82 385.53 361.678C385.618 362.538 386.237 363.179 386.914 363.11C387.591 363.041 388.068 362.289 387.981 361.429Z" fill="black"/>
<path fill-rule="evenodd" clip-rule="evenodd" d="M392.445 371.082C394.604 371.055 396.729 370.663 396.729 370.663C396.729 370.663 395.79 374.656 392.461 374.869C389.296 375.072 388.455 370.873 388.455 370.873C388.455 370.873 390.286 371.109 392.445 371.082Z" fill="white" stroke="black" stroke-width="1.3" stroke-linecap="round" stroke-linejoin="round"/>
<path d="M389.181 379.11C389.181 379.11 389.649 382.768 388.939 384.895" stroke="black" stroke-width="1.3" stroke-linecap="round" stroke-linejoin="round"/>
<path d="M114.933 131.567C114.933 131.567 111.746 131.57 107.074 128.737C106.154 128.178 105.403 127.603 104.783 127.035" stroke="black" stroke-width="1.3" stroke-linecap="round" stroke-linejoin="round"/>
<path d="M115.031 131.563C115.031 131.563 117.775 131.493 122.2 128.291C125.167 126.143 126.588 123.772 127.211 122.378C128.222 120.123 128.835 117.148 129.334 114.393" stroke="black" stroke-width="1.3" stroke-linecap="round" stroke-linejoin="round"/>
<path d="M132 114.651C131.1 115.713 129.986 116.294 129.154 116.438" stroke="black" stroke-width="1.3" stroke-linecap="round" stroke-linejoin="round"/>
<path d="M114.274 107.462C114.274 107.462 112.984 110.472 113.481 112.219C114.058 114.241 116.894 113.755 114.605 116.619" stroke="black" stroke-width="1.3" stroke-linecap="round" stroke-linejoin="round"/>
<path fill-rule="evenodd" clip-rule="evenodd" d="M114.067 120.21C111.567 120.362 109.281 120.277 109.281 120.277C109.281 120.277 110.775 124.752 114.548 124.679C118.32 124.607 119.279 119.667 119.279 119.667C119.279 119.667 116.566 120.058 114.067 120.21Z" fill="white" stroke="black" stroke-width="1.3" stroke-linecap="round" stroke-linejoin="round"/>
<path d="M104.264 103.371C104.264 103.371 106.131 101.849 108.851 102.902" stroke="black" stroke-width="1.3" stroke-linecap="round" stroke-linejoin="round"/>
<path d="M122.591 102.273C122.591 102.273 120.572 100.957 117.979 102.292" stroke="black" stroke-width="1.3" stroke-linecap="round" stroke-linejoin="round"/>
<path fill-rule="evenodd" clip-rule="evenodd" d="M123.577 127.404C123.577 127.404 118.622 131.162 114.127 131.268C110.718 131.349 105.871 127.808 105.871 127.808C105.871 127.808 110.45 133.223 114.915 133.95C118.793 134.582 123.313 131.297 123.313 131.297L123.577 127.404Z" fill="black"/>
<path d="M107.925 93.9952C104.118 95.4202 105.035 101.392 100.486 107.936C100.283 108.229 100.056 108.525 99.8125 108.822" stroke="black" stroke-width="1.3" stroke-linecap="round" stroke-linejoin="round"/>
<path d="M110.521 92.9537C111.31 92.358 112.133 92.0323 112.954 91.9236C115.573 91.5769 118.18 93.4397 119.609 95.7968C121.485 98.8928 121.558 102.373 123.924 105.749C128.058 111.648 134.614 113.39 132.329 118.857" stroke="black" stroke-width="1.3" stroke-linecap="round" stroke-linejoin="round"/>
<path d="M103.302 82.0005C96.4875 82.3055 94.7705 89.7384 91.3816 97.2452C87.9914 104.752 83.775 110.833 88.069 117.59" stroke="black" stroke-width="1.3" stroke-linecap="round" stroke-linejoin="round"/>
<path d="M107.805 80.8221C111.9 78.2999 118.342 76.4682 125.564 81.0654C128.098 82.678 133.178 88.1882 137.057 95.1347C140.936 102.081 142.887 109.623 141.699 113.261C140.008 118.433 135.586 120.179 137.813 123.527" stroke="black" stroke-width="1.3" stroke-linecap="round" stroke-linejoin="round"/>
<path d="M107.45 85.0695C106.373 87.1012 106.838 89.5599 107.397 90.4343" stroke="black" stroke-width="1.3" stroke-linecap="round" stroke-linejoin="round"/>
<path d="M134.413 121.885C134.175 124.323 131.28 127.745 127.172 127.913" stroke="black" stroke-width="1.3" stroke-linecap="round" stroke-linejoin="round"/>
<path fill-rule="evenodd" clip-rule="evenodd" d="M105.346 109.968C105.307 109.018 105.883 108.221 106.632 108.191C107.381 108.16 108.019 108.906 108.058 109.858C108.097 110.808 107.522 111.605 106.772 111.635C106.023 111.666 105.384 110.92 105.346 109.968Z" fill="black"/>
<path fill-rule="evenodd" clip-rule="evenodd" d="M119.137 109.407C119.098 108.455 119.675 107.659 120.423 107.629C121.172 107.598 121.81 108.345 121.849 109.296C121.888 110.247 121.313 111.042 120.563 111.073C119.814 111.103 119.175 110.357 119.137 109.407Z" fill="black"/>
<path d="M422.208 391.003C422.208 391.003 421.533 389.362 420.889 389.332C420.243 389.304 417.214 391.527 415.247 393.805C413.408 395.937 412.156 398.593 412.537 399.442C412.917 400.292 414.148 402.138 414.148 402.138" stroke="black" stroke-width="1.3" stroke-linecap="round" stroke-linejoin="round"/>
<path d="M387.412 384.943C386.404 392.695 400.658 391.885 405.779 386.763" stroke="black" stroke-width="1.3" stroke-linecap="round" stroke-linejoin="round"/>
<path d="M352.465 444.98C355.828 444.094 358.781 444.967 359.584 446.196C360.436 447.498 361.044 449.337 361.675 451.607" stroke="black" stroke-width="1.3" stroke-linecap="round" stroke-linejoin="round"/>
<path d="M360.205 446.601C361.661 443.69 362.38 440.901 363.43 437.294" stroke="black" stroke-width="1.3" stroke-linecap="round" stroke-linejoin="round"/>
<path d="M433.811 440.214C433.811 444.312 432.483 451.535 431.5 455.462" stroke="black" stroke-width="1.3" stroke-linecap="round" stroke-linejoin="round"/>
<path fill-rule="evenodd" clip-rule="evenodd" d="M297.275 53.2201H426.566C429.57 53.2201 432.003 55.7303 432.003 58.8267L432.03 91.1532L440.831 98.3601L297.275 98.2052C294.271 98.2052 291.838 95.6951 291.838 92.5986V58.8267C291.838 55.7303 294.271 53.2201 297.275 53.2201Z" fill="#8DDCA4" stroke="black" stroke-width="1.3" stroke-linecap="round" stroke-linejoin="round"/>
<path fill-rule="evenodd" clip-rule="evenodd" d="M254.983 106.198H378.297C381.299 106.198 383.733 108.707 383.733 111.804V149.229C383.733 152.326 381.299 154.837 378.297 154.837L238.643 154.916L249.623 147.559L249.546 111.804C249.546 108.707 251.981 106.198 254.983 106.198Z" fill="#FFBE00" stroke="black" stroke-width="1.3" stroke-linecap="round" stroke-linejoin="round"/>
<path d="M372.794 125.106H259.908" stroke="white" stroke-width="1.3" stroke-linecap="round" stroke-linejoin="round"/>
<path d="M259.908 115.956H372.794" stroke="white" stroke-width="1.3" stroke-linecap="round" stroke-linejoin="round"/>
<path d="M372.558 143.711H259.672" stroke="white" stroke-width="1.3" stroke-linecap="round" stroke-linejoin="round"/>
<path d="M259.672 134.56H372.558" stroke="white" stroke-width="1.3" stroke-linecap="round" stroke-linejoin="round"/>
<path d="M422.885 70.63H301.205" stroke="white" stroke-width="1.3" stroke-linecap="round" stroke-linejoin="round"/>
<path d="M301.205 62.3329H422.885" stroke="white" stroke-width="1.3" stroke-linecap="round" stroke-linejoin="round"/>
<path d="M422.627 87.501H300.949" stroke="white" stroke-width="1.3" stroke-linecap="round" stroke-linejoin="round"/>
<path d="M300.949 79.2039H422.627" stroke="white" stroke-width="1.3" stroke-linecap="round" stroke-linejoin="round"/>
<path fill-rule="evenodd" clip-rule="evenodd" d="M26.2321 221.747H54.9013C57.2235 221.747 59.106 223.63 59.106 225.952L59.3827 239.184L64.1073 244.303L26.2321 244.038C23.9099 244.038 22.0273 242.155 22.0273 239.833V225.952C22.0273 223.63 23.9099 221.747 26.2321 221.747Z" fill="#97B1ED" stroke="black" stroke-width="1.3" stroke-linecap="round" stroke-linejoin="round"/>
<path fill-rule="evenodd" clip-rule="evenodd" d="M29.4545 250.913H7.91613C6.17191 250.913 4.75739 252.327 4.75739 254.071L4.54922 264.013L1 267.858L29.4545 267.661C31.2 267.661 32.6133 266.246 32.6133 264.501V254.071C32.6133 252.327 31.2 250.913 29.4545 250.913Z" fill="#FFBE00" stroke="black" stroke-width="1.3" stroke-linecap="round" stroke-linejoin="round"/>
<path fill-rule="evenodd" clip-rule="evenodd" d="M429.787 293.084H464.633C467.455 293.084 469.744 294.967 469.744 297.289L470.08 310.522L475.822 315.64L429.787 315.375C426.964 315.375 424.676 313.493 424.676 311.171V297.289C424.676 294.967 426.964 293.084 429.787 293.084Z" fill="#91DEFF" stroke="black" stroke-width="1.3" stroke-linecap="round" stroke-linejoin="round"/>
<path fill-rule="evenodd" clip-rule="evenodd" d="M438.732 269.345H414.641C412.689 269.345 411.108 270.928 411.108 272.879L410.875 283.999L406.904 288.3L438.732 288.078C440.685 288.078 442.266 286.495 442.266 284.544V272.879C442.266 270.928 440.685 269.345 438.732 269.345Z" fill="#FFA29E" stroke="black" stroke-width="1.3" stroke-linecap="round" stroke-linejoin="round"/>
<path fill-rule="evenodd" clip-rule="evenodd" d="M439.305 249.029H468.092C470.423 249.029 472.313 250.279 472.313 251.822L472.591 260.614L477.335 264.016L439.305 263.839C436.972 263.839 435.082 262.588 435.082 261.046V251.822C435.082 250.279 436.972 249.029 439.305 249.029Z" fill="#FFBE00" stroke="black" stroke-width="1.3" stroke-linecap="round" stroke-linejoin="round"/>
<path fill-rule="evenodd" clip-rule="evenodd" d="M86.8149 361.726H124.181C127.208 361.726 129.662 364.179 129.662 367.206L130.021 384.453L136.179 391.124L86.8149 390.779C83.7881 390.779 81.334 388.325 81.334 385.298V367.206C81.334 364.179 83.7881 361.726 86.8149 361.726Z" fill="#8DDCA4" stroke="black" stroke-width="1.3" stroke-linecap="round" stroke-linejoin="round"/>
<path fill-rule="evenodd" clip-rule="evenodd" d="M436.387 132.289C436.387 129.854 438.237 127.88 440.52 127.88C442.804 127.88 444.655 129.854 444.655 132.289C444.655 134.725 442.804 136.699 440.52 136.699C438.237 136.699 436.387 134.725 436.387 132.289Z" fill="#7A63A2"/>
<path fill-rule="evenodd" clip-rule="evenodd" d="M313.389 465.346C313.389 462.912 315.24 460.937 317.524 460.937C319.807 460.937 321.659 462.912 321.659 465.346C321.659 467.782 319.807 469.757 317.524 469.757C315.24 469.757 313.389 467.782 313.389 465.346Z" fill="#FFB1A5"/>
<path fill-rule="evenodd" clip-rule="evenodd" d="M203.707 444.906C203.707 442.471 205.559 440.497 207.842 440.497C210.125 440.497 211.977 442.471 211.977 444.906C211.977 447.342 210.125 449.316 207.842 449.316C205.559 449.316 203.707 447.342 203.707 444.906Z" fill="#7A63A2"/>
<path fill-rule="evenodd" clip-rule="evenodd" d="M68.9844 287.947C68.9844 285.512 70.8359 283.537 73.1193 283.537C75.4027 283.537 77.2542 285.512 77.2542 287.947C77.2542 290.382 75.4027 292.358 73.1193 292.358C70.8359 292.358 68.9844 290.382 68.9844 287.947Z" fill="#C0ACE5"/>
<path fill-rule="evenodd" clip-rule="evenodd" d="M188.434 66.0553C188.434 63.6195 190.285 61.6451 192.569 61.6451C194.852 61.6451 196.703 63.6195 196.703 66.0553C196.703 68.4908 194.852 70.4653 192.569 70.4653C190.285 70.4653 188.434 68.4908 188.434 66.0553Z" fill="#C0ACE5"/>
<path fill-rule="evenodd" clip-rule="evenodd" d="M275.359 5.31652C275.359 2.88081 277.211 0.906433 279.494 0.906433C281.778 0.906433 283.628 2.88081 283.628 5.31652C283.628 7.75223 281.778 9.7266 279.494 9.7266C277.211 9.7266 275.359 7.75223 275.359 5.31652Z" fill="#FFB1A5"/>
<path fill-rule="evenodd" clip-rule="evenodd" d="M14.2207 193.352C14.2207 190.916 16.0723 188.942 18.3556 188.942C20.639 188.942 22.4893 190.916 22.4893 193.352C22.4893 195.788 20.639 197.762 18.3556 197.762C16.0723 197.762 14.2207 195.788 14.2207 193.352Z" fill="#FFB1A5"/>
<path fill-rule="evenodd" clip-rule="evenodd" d="M487.068 206.336C487.068 203.901 488.92 201.926 491.203 201.926C493.487 201.926 495.337 203.901 495.337 206.336C495.337 208.772 493.487 210.746 491.203 210.746C488.92 210.746 487.068 208.772 487.068 206.336Z" fill="#FFB1A5"/>
<path fill-rule="evenodd" clip-rule="evenodd" d="M46.4453 363.438C46.4453 361.002 48.2956 359.028 50.579 359.028C52.8624 359.028 54.7139 361.002 54.7139 363.438C54.7139 365.873 52.8624 367.847 50.579 367.847C48.2956 367.847 46.4453 365.873 46.4453 363.438Z" fill="#FFB1A5"/>
<path fill-rule="evenodd" clip-rule="evenodd" d="M139.52 31.0231C139.52 28.5875 141.371 26.613 143.654 26.613C145.938 26.613 147.789 28.5875 147.789 31.0231C147.789 33.4588 145.938 35.4333 143.654 35.4333C141.371 35.4333 139.52 33.4588 139.52 31.0231Z" fill="#FFB1A5"/>
<path d="M380.059 357.392C379.393 356.059 380.914 355.829 380.914 354.878C380.914 354.475 380.447 354.008 380.411 353.571C380.392 353.338 380.373 353 380.461 352.766C380.565 352.492 380.776 351.687 381.166 351.61C381.969 351.449 382.776 352.091 383.428 351.308C383.827 350.83 383.788 349.153 384.183 348.995C385.054 348.646 385.785 349.374 386.696 349.145C387.98 348.825 387.842 346.861 389.462 347.185C390.134 347.32 389.759 348.704 390.517 348.895C391.558 349.154 392.318 346.698 393.383 346.431C394.17 346.235 393.929 347.533 394.44 347.789C394.865 348.001 395.451 347.04 395.847 347.436C396.295 347.885 396.113 348.689 396.752 348.945C397.564 349.27 398.628 347.1 399.517 347.989C400.23 348.702 399.525 349.593 400.02 350.252C400.596 351.019 401.602 349.816 402.182 350.252C402.92 350.806 401.908 351.536 402.434 352.062C403.067 352.695 404.001 351.116 404.647 351.761C405.543 352.657 403.804 354.185 404.445 354.828C404.936 355.319 405.761 354.635 406.205 355.079C407.103 355.977 405.621 356.743 405.954 357.241C406.146 357.53 407.037 357.146 407.261 357.592C407.526 358.125 406.483 358.553 406.607 359.051C406.735 359.564 407.973 359.176 407.613 360.257" stroke="black" stroke-width="1.3" stroke-linecap="round" stroke-linejoin="round"/>
<path d="M382.534 364.794C382.065 364.802 381.447 364.886 381.294 364.683C381.023 364.321 381.149 363.737 380.943 363.425C380.812 363.228 379.43 363.62 378.984 363.174C378.801 362.992 378.58 362.423 378.733 362.168C378.781 362.088 379.378 361.809 379.235 361.665C378.247 360.676 376.943 361.572 376.624 359.655C376.484 358.813 377.494 358.567 377.327 357.895C377.137 357.137 375.728 357.078 375.569 356.285C375.419 355.534 376.298 354.779 376.171 354.275C376.049 353.781 375.136 353.663 375.017 353.068C374.816 352.068 375.603 352.049 375.771 351.208C375.95 350.307 375.186 349.754 375.369 348.844C375.582 347.774 377.273 347.604 377.477 346.581C377.751 345.208 376.245 343.93 377.126 342.459C377.446 341.924 378.176 342.062 378.482 341.755C378.598 341.638 378.483 340.759 378.733 340.448C379.307 339.73 380.549 339.682 381.143 338.89C381.699 338.147 381.301 337.326 382.299 336.726C383.026 336.291 383.816 337.382 384.507 336.827C385.164 336.302 385.742 334.559 386.466 334.415C387.406 334.226 387.396 334.999 388.073 335.168C388.853 335.364 389.062 334.565 389.529 334.213C389.944 333.901 390.633 334.977 390.835 335.017C391.139 335.078 391.871 332.507 393.146 333.358C393.594 333.658 393.347 334.452 393.999 334.615C395.239 334.925 394.973 333.502 395.706 333.207C395.922 333.122 396.712 332.908 396.862 333.158C396.968 333.335 396.864 333.749 397.113 333.811C397.754 333.971 398.277 332.344 399.322 332.554C399.961 332.682 401.214 334.139 401.783 333.912C402.345 333.685 403.652 332.088 404.344 332.504C405.015 332.907 404.164 334.32 405.046 334.615C405.509 334.77 406.622 334.182 406.904 334.465C407.246 334.805 407.027 335.927 407.507 336.023C407.931 336.108 408.417 335.327 408.813 335.168C410.531 334.48 409.853 336.77 410.068 337.631C410.143 337.933 410.641 337.718 410.822 337.682C411.477 337.551 412.558 337.185 413.081 337.884C413.414 338.328 412.833 339.544 412.981 339.694C413.422 340.135 414.632 339.018 414.939 340.247C414.989 340.446 415.147 340.886 415.04 341.102C414.972 341.236 414.19 341.809 414.387 342.007C414.41 342.03 415.221 341.906 415.341 341.906C415.958 341.906 417.106 342.132 417.5 342.66C418.059 343.405 415.974 344.048 416.496 344.571C416.583 344.659 417.663 345.428 417.651 345.476C417.591 345.718 416.93 346.066 417.148 346.431C417.261 346.618 417.825 346.554 418.003 346.733C418.749 347.48 417.826 347.979 417.45 348.543C417.286 348.79 418.641 349.785 418.641 350.507C418.641 351.228 417.796 352.798 418.16 353.339C418.523 353.88 419.233 355.184 417.516 357.243" stroke="black" stroke-width="1.3" stroke-linecap="round" stroke-linejoin="round"/>
<path fill-rule="evenodd" clip-rule="evenodd" d="M149.844 427.015C149.844 418.802 156.647 412.143 165.041 412.143C173.434 412.143 180.238 418.802 180.238 427.015C180.238 435.229 173.434 441.888 165.041 441.888C156.647 441.888 149.844 435.229 149.844 427.015Z" fill="#D6D6FF"/>
<path fill-rule="evenodd" clip-rule="evenodd" d="M159.583 423.929C159.251 419.918 161.905 417.337 165.107 417.337C168.307 417.337 170.789 420.004 170.514 424.075C170.333 426.763 169.603 429.085 167.794 430.255C167.491 430.452 167.627 431.919 167.787 432.617C167.951 433.33 172.326 434.372 174.648 435.252C175.53 435.587 176.141 436.158 176.543 436.738C176.543 436.738 175.146 438.445 172.925 439.74C170.474 441.169 167.931 441.809 165.195 441.879C162.503 441.947 159.691 441.13 157.654 440.02C155.451 438.817 154.115 437.347 154.115 437.347C154.451 436.706 155.032 435.998 155.918 435.551C158.079 434.46 162.31 433.314 162.513 432.557C162.751 431.675 162.763 430.459 162.445 430.253C160.651 429.08 159.804 426.611 159.583 423.929Z" fill="#FFBF00"/>
<path fill-rule="evenodd" clip-rule="evenodd" d="M211.838 30.6129C211.838 21.4579 219.421 14.0362 228.776 14.0362C238.131 14.0362 245.714 21.4579 245.714 30.6129C245.714 39.7681 238.131 47.1898 228.776 47.1898C219.421 47.1898 211.838 39.7681 211.838 30.6129Z" fill="#D6D6FF"/>
<path fill-rule="evenodd" clip-rule="evenodd" d="M222.694 27.1727C222.326 22.7016 225.284 19.8261 228.851 19.8261C232.419 19.8261 235.184 22.7982 234.878 27.3348C234.676 30.3314 233.862 32.9196 231.847 34.2242C231.51 34.4426 231.66 36.0791 231.839 36.8572C232.022 37.6505 236.897 38.8123 239.485 39.7941C240.467 40.167 241.15 40.8029 241.599 41.4494C241.599 41.4494 240.041 43.3518 237.566 44.7955C234.833 46.3889 231.998 47.1016 228.95 47.1796C225.95 47.2564 222.814 46.3457 220.545 45.1075C218.09 43.7677 216.602 42.129 216.602 42.129C216.975 41.413 217.622 40.6259 218.611 40.1269C221.018 38.9111 225.734 37.6331 225.961 36.7888C226.225 35.806 226.239 34.4522 225.885 34.2206C223.885 32.9139 222.942 30.1635 222.694 27.1727Z" fill="#FFBF00"/>
<path fill-rule="evenodd" clip-rule="evenodd" d="M423.332 191.703C423.332 184.559 429.25 178.767 436.55 178.767C443.852 178.767 449.77 184.559 449.77 191.703C449.77 198.848 443.852 204.641 436.55 204.641C429.25 204.641 423.332 198.848 423.332 191.703Z" fill="#D6D6FF"/>
<path fill-rule="evenodd" clip-rule="evenodd" d="M431.806 189.019C431.518 185.529 433.827 183.285 436.611 183.285C439.395 183.285 441.554 185.604 441.315 189.145C441.157 191.484 440.521 193.503 438.949 194.522C438.685 194.693 438.803 195.969 438.942 196.577C439.086 197.196 442.891 198.102 444.909 198.869C445.676 199.16 446.209 199.655 446.559 200.161C446.559 200.161 445.344 201.645 443.412 202.771C441.279 204.015 439.068 204.571 436.687 204.632C434.347 204.693 431.901 203.982 430.129 203.016C428.212 201.97 427.051 200.691 427.051 200.691C427.343 200.132 427.847 199.518 428.619 199.129C430.498 198.18 434.178 197.182 434.356 196.524C434.562 195.756 434.573 194.699 434.297 194.52C432.735 193.499 431.999 191.353 431.806 189.019Z" fill="#FFBF00"/>
<path fill-rule="evenodd" clip-rule="evenodd" d="M252.973 421.564C252.973 419.129 254.824 417.155 257.108 417.155C259.391 417.155 261.241 419.129 261.241 421.564C261.241 424 259.391 425.974 257.108 425.974C254.824 425.974 252.973 424 252.973 421.564Z" fill="#C0ACE5"/>
</svg>
