<svg width="669" height="494" viewBox="0 0 669 494" fill="none" xmlns="http://www.w3.org/2000/svg">
<path d="M662.639 295.272C646.993 253.179 604.693 220.95 603.313 176.061C602.758 157.727 609.41 139.721 608.664 121.398C607.091 82.771 572.462 52.3199 535.479 41.1315C485.441 26.0476 427.845 39.3536 389.539 74.8893C371.076 91.9777 356.47 113.992 334.217 125.713C301.624 142.869 261.247 133.368 228.224 117.061C207.861 107.005 188.379 94.4124 166.33 88.9427C135.954 81.4121 102.354 88.8182 77.5894 107.968C52.8249 127.117 37.224 157.511 35.5497 188.766C34.9953 199.253 35.8891 209.932 33.287 220.112C28.8862 237.574 15.1068 250.914 6.66717 266.825C-6.21854 291.138 1.85702 314.985 11.6882 340.669C17.1748 355.038 52.8131 366.635 64.5077 364.946C176.593 348.755 93.3184 444.617 129.065 472.537C205.36 532.125 250.207 449.916 292.326 438.717C368.086 418.75 438.021 422.459 511.608 449.363C531.575 456.724 548.13 450.991 569.229 453.777C604.945 458.533 623.835 425.592 646.303 397.394C668.771 369.197 675.242 329.075 662.639 295.272Z" fill="#F0F0F0"/>
<path fill-rule="evenodd" clip-rule="evenodd" d="M307.626 175.697C307.626 175.697 312.678 171.643 318.55 169.561C327.13 166.517 331.01 167.843 339.096 169.14C344.24 169.965 350.023 174.052 352.373 177.39C353.807 179.427 355.833 183.11 356.483 188.151C357.02 192.315 356.306 198.152 356.306 198.152C356.306 198.152 351.668 216.683 350.413 220.043C349.157 223.405 347.74 226.179 345.666 229.196C342.917 233.194 336.821 236.372 333.395 238.376C328.054 241.501 322.067 242.407 316.769 239.615C313.043 237.65 309.615 232.923 307.188 229.891C303.941 225.833 303.276 219.497 303.276 219.497C303.276 219.497 300.847 207.535 301.934 196.585C303.022 185.635 307.626 175.697 307.626 175.697Z" fill="white"/>
<path fill-rule="evenodd" clip-rule="evenodd" d="M333.414 349.425L340.587 338.663L371.621 346.676L371.989 354.104L363.747 370.035L335.649 371.096L333.414 349.425Z" fill="#FF0066"/>
<path fill-rule="evenodd" clip-rule="evenodd" d="M282.464 266.803C282.464 266.803 283.648 263.726 285.847 262.25C288.6 260.403 292.699 259.425 297.925 257.362C306.627 253.931 318.632 248.765 318.632 248.765L344.688 245.768C344.688 245.768 350.503 248.154 359.13 250.919C367.926 253.738 379.594 256.956 385.841 259.149C392.457 261.472 393.1 265.99 393.1 265.99C393.1 265.99 399.701 260.848 402.62 270.383C403.95 274.727 403.905 288.766 405.651 303.897C407.738 321.972 411.446 341.518 410.299 346.763C409.62 349.862 405.795 352.866 405.795 352.866C405.795 352.866 410.817 358.212 411.435 362.649C411.847 365.607 411.354 368.178 405.102 371.344C398.299 374.787 385.636 377.587 373.565 380.231C355.151 384.265 337.295 387.368 337.295 387.368L335.478 370.835C335.478 370.835 346.722 366.363 360.038 360.257C373.355 354.152 388.745 346.413 388.745 346.413L382.336 315.054C382.336 315.054 381.629 319.312 380.801 326.557C380.27 331.195 380.474 339.25 377.888 342.707C376.98 343.921 374.551 344.722 373.336 345.53C368.654 348.648 362.665 350.507 356.384 349.18C353.11 348.488 349.55 347.291 346.942 345.96C343.79 344.35 340.772 341.941 340.772 341.941L332.006 340.367L329.505 338.781L310.195 338.194L267.99 337.879L268.573 329.718L270.862 301.475C271.606 292.059 271.906 280.973 272.987 274.967C274.974 263.929 282.464 266.803 282.464 266.803Z" fill="white"/>
<path fill-rule="evenodd" clip-rule="evenodd" d="M318.655 240.895C318.655 240.895 324.132 241.892 330.492 239.655C339.976 236.318 343.928 231.488 343.928 231.488L344.864 250.222L340.035 256.134C340.035 256.134 337.41 259.288 333.809 261.59C332.151 262.65 330.194 263.921 328.355 263.921C322.522 263.921 318.461 253.354 318.461 253.354L318.655 240.895Z" fill="#FF0066"/>
<path fill-rule="evenodd" clip-rule="evenodd" d="M316.425 320.417C320.403 318.078 324.593 317.336 328.542 317.935C331.482 318.381 334.288 319.342 336.773 322.159C338.984 324.665 342.838 330.206 341.826 336.645C340.24 346.734 333.282 349.503 333.282 349.503L332.674 341.73L330.887 339.311L328.204 338.491H309.005C309.005 338.491 308.307 334.771 309.314 330.725C310.307 326.741 312.979 322.444 316.425 320.417Z" fill="#85EDFF"/>
<path fill-rule="evenodd" clip-rule="evenodd" d="M382.06 268.476C384.478 264.455 387.77 262.332 389.917 262.681C392.073 263.029 393.077 265.858 393.077 265.858C393.077 265.858 390.901 267.431 388.797 269.965C386.414 272.835 383.969 276.918 382.06 280.99C378.464 288.658 378.694 296.527 378.694 296.527L380.665 306.904C380.665 306.904 375.549 306.741 375.224 298.334C374.816 287.758 377.212 276.536 382.06 268.476Z" fill="#FF0066"/>
<path fill-rule="evenodd" clip-rule="evenodd" d="M348.078 200.305C351.288 194.278 357.561 198.873 357.561 198.873C357.561 198.873 358.684 201.004 359.157 204.745C359.564 207.97 359.437 212.672 358.312 214.938C355.993 219.611 351.007 222.284 347.294 218.179C345.043 215.689 344.87 206.333 348.078 200.305Z" fill="#FF0066"/>
<path fill-rule="evenodd" clip-rule="evenodd" d="M296.339 204.652C296.817 200.995 299.546 200.454 299.546 200.454L301.32 206.074L303.176 219.176C303.176 219.176 300.223 219.462 297.629 215.082C295.035 210.701 295.859 208.309 296.339 204.652Z" fill="#FF0066"/>
<path fill-rule="evenodd" clip-rule="evenodd" d="M408.683 350.023L410.189 347.942C410.189 347.942 412.311 350.398 412.44 353.156C412.571 355.913 410.71 358.973 410.71 358.973L406.027 352.947L408.683 350.023Z" fill="#85EDFF"/>
<path fill-rule="evenodd" clip-rule="evenodd" d="M231.087 292.417L246.027 292.279L247.79 293.299L249.006 295.015L248.966 306.904L248.684 308.22L250.418 312.501L245.279 310.208L235.931 310.206L228.623 300.237L228.651 295.058L229.508 293.314L231.087 292.417Z" fill="#FFAC89"/>
<path fill-rule="evenodd" clip-rule="evenodd" d="M103.918 229.928L146.781 229.842L147.914 230.654L143.033 251.429L141.881 252.241L108.706 251.995L107.572 251.209L103.129 230.877L103.918 229.928Z" fill="#A2ACC1"/>
<path fill-rule="evenodd" clip-rule="evenodd" d="M117.172 191.668C118.554 187.318 126.077 183.3 131.803 189.506C134.679 192.622 134.328 199.567 135.27 204.708C135.749 207.326 137.352 209.069 138.039 210.537C138.69 211.928 138.44 213.112 138.44 213.112L130.98 210.362L130.033 208.441L119.182 209.852L112.395 212.509C112.395 212.509 113.547 210.765 114.054 209.441C114.503 208.269 113.313 206.069 113.859 203.203C114.576 199.445 116.24 194.597 117.172 191.668Z" fill="#704A3A"/>
<path fill-rule="evenodd" clip-rule="evenodd" d="M101.252 240.375C102.021 239.112 104.42 238.897 104.42 238.897L105.666 244.073L104.368 244.797L103.738 244.415C103.738 244.415 101.966 244.96 101.344 243.951C100.723 242.942 100.483 241.639 101.252 240.375Z" fill="#D6836C"/>
<path fill-rule="evenodd" clip-rule="evenodd" d="M94.88 206.062C94.88 206.062 98.6388 205.81 101.023 207.904C103.407 209.999 104.345 214.728 104.345 214.728L100.806 216.396L100.156 214.517L94.8152 210.661L94.6473 209.138L92.2673 208.09L91.8398 205.961L94.1066 207.253L94.88 206.062Z" fill="#D6836C"/>
<path fill-rule="evenodd" clip-rule="evenodd" d="M123.03 192.366C123.773 192.115 125.378 191.355 126.019 192.914C126.661 194.472 129.787 196.667 129.787 196.667L130.952 202.22L128.92 205.918L129.284 209.769L126.01 212.563L125.338 215.429L124.164 212.284L120.825 209.567L121.065 205.813L119.796 203.472L118.395 200.163C118.395 200.163 119.905 197.555 120.42 195.177C120.934 192.801 122.042 192.701 123.03 192.366Z" fill="#D6836C"/>
<path fill-rule="evenodd" clip-rule="evenodd" d="M119.291 209.906L120.338 208.588L123.832 211.941L125.456 215.647L126.35 212.127L129.967 208.384L130.95 209.838C130.95 209.838 139.617 212.608 141.044 214.822C143.567 218.737 144.393 229.919 144.393 229.919L103.498 230.05L100.32 217.045L102.928 215.203L105.189 214.895L107.57 220.065L108.972 214.735L110.769 213.359L119.291 209.906Z" fill="#F60063"/>
<path fill-rule="evenodd" clip-rule="evenodd" d="M185.744 54.1085C189.85 52.1973 192.481 54.544 192.481 54.544C192.481 54.544 195.758 54.7895 197.011 57.1284C198.264 59.4675 197.447 65.724 197.447 65.724H182.114L181.068 60.9906C181.068 60.9906 181.638 56.0196 185.744 54.1085Z" fill="#4C4E54"/>
<path fill-rule="evenodd" clip-rule="evenodd" d="M169.171 86.2406C169.171 86.2406 170.395 82.7663 174.07 81.6595C177.775 80.5441 182.744 79.059 182.744 79.059L184.91 75.5038L196.059 78.2736L205.892 81.0651L208.945 83.3461C208.945 83.3461 211.219 89.2889 213.333 95.9732C215.024 101.323 216.613 107.146 216.853 110.78C217.092 114.404 211.156 116.038 211.156 116.038L171.919 115.878C171.919 115.878 169.438 115.643 167.774 114.636C166.49 113.86 165.87 112.804 166.144 109.942C166.771 103.368 169.171 86.2406 169.171 86.2406Z" fill="#FF0066"/>
<path fill-rule="evenodd" clip-rule="evenodd" d="M170.049 101.679L212.926 101.509L213.78 102.189L209.845 120.645L199.782 124.344L179.603 123.987L173.525 122.341L169.141 102.622L170.049 101.679Z" fill="#65728B"/>
<path fill-rule="evenodd" clip-rule="evenodd" d="M181.416 66.9861C181.676 64.5229 183.435 66.0643 184.692 65.0309C186.285 63.7216 187.481 60.1462 188.333 59.6436C189.336 59.0526 190.793 58.9078 191.984 59.4068C193.347 59.9786 193.707 62.9284 194.815 64.329C196.146 66.011 198.227 65.9173 197.984 67.2534C197.74 68.5894 195.854 69.9422 195.854 69.9422L194.123 73.9075L194.558 77.4857L197.11 79.592L198.446 82.8008L196.929 85.0401L197.005 88.5351L194.272 94.5308L191.924 93.5134L190.259 92.0112L191.354 89.8033L191.178 87.1865L188.874 81.4161L184.952 77.9689L185.103 74.4299L183.02 69.6341C183.02 69.6341 181.26 68.4684 181.416 66.9861Z" fill="#FFD9B6"/>
<path fill-rule="evenodd" clip-rule="evenodd" d="M313.946 37.8953L317.02 36.0026L323.707 33.0326L337.302 34.4715L343.37 37.7597L345.434 40.3171L349.036 53.6316L347.272 57.336L342.116 59.7599L341.845 64.9125C341.845 64.9125 336.294 69.2261 328.625 67.5227C325.119 66.744 320.458 65.4198 317.203 63.4386C313.34 61.0859 311.167 58.0989 311.167 58.0989L310.109 56.6518L312.106 41.1966L313.946 37.8953Z" fill="#FC0065"/>
<path fill-rule="evenodd" clip-rule="evenodd" d="M347.613 53.8163L348.899 53.2554L378.237 52.1501L378.988 53.1085L374.828 68.3249L367.341 75.1921L342.211 76.5008L341.817 75.4346L332.408 72.0362L344.367 67.3127L347.613 53.8163Z" fill="white"/>
<path fill-rule="evenodd" clip-rule="evenodd" d="M327.931 9.55324C327.931 9.55324 331.983 8.47806 334.601 9.55324C337.221 10.6285 339.342 11.8221 339.342 11.8221C339.342 11.8221 340.951 14.3532 341.611 17.1045C342.272 19.8558 341.984 22.8272 341.984 22.8272L343.237 24.9606C343.676 26.4505 341.53 28.0678 341.53 28.0678C341.53 28.0678 339.703 29.9194 338.259 30.5139C336.815 31.1086 335.753 30.4462 335.753 30.4462C335.753 30.4462 328.417 32.4766 323.529 29.2611C321.919 28.2021 320.321 25.6616 319.628 23.4116C319.153 21.8731 320.679 19.2974 321.925 17.2292C324.389 13.138 327.931 9.55324 327.931 9.55324Z" fill="#DD976C"/>
<path fill-rule="evenodd" clip-rule="evenodd" d="M335.276 14.6901C336.989 14.2834 339.197 15.455 339.652 17.362C340.024 18.9206 339.256 22.3436 339.256 22.3436C339.256 22.3436 339.488 25.0652 338.735 26.5377C337.982 28.0101 334.418 31.1298 334.418 31.1298L334.365 33.1812L336.806 34.4667C336.806 34.4667 335.183 40.6431 331.907 40.1609C328.633 39.6787 323.703 32.538 323.703 32.538C323.703 32.538 325.249 32.2362 326.153 29.4154C326.586 28.0613 326.336 24.211 326.336 24.211C326.336 24.211 329.155 22.9121 330.901 20.7196C332.785 18.3562 333.661 15.0734 335.276 14.6901Z" fill="#FFD5B1"/>
<path fill-rule="evenodd" clip-rule="evenodd" d="M311.108 57.5292L315.816 58.7848L319.18 58.1934L318.957 63.5157C318.957 63.5157 323.638 65.3027 327.29 66.1085C330.94 66.9141 333.558 66.7384 333.558 66.7384L337.782 65.6841L341.28 65.2588L344.319 66.772L343.564 70.4035L339.01 70.7317L334.677 71.9795L330.254 71.3048C330.254 71.3048 328.367 71.0767 324.719 70.9789C320.47 70.8649 314.268 70.8034 312.607 69.561C309.52 67.2517 311.108 57.5292 311.108 57.5292Z" fill="#FFD5B1"/>
<path fill-rule="evenodd" clip-rule="evenodd" d="M342.773 57.8083L346.785 57.2502L345.762 61.1931L344.901 65.5155L342.773 57.8083Z" fill="#FFD5B1"/>
<path fill-rule="evenodd" clip-rule="evenodd" d="M482.881 87.1342L488.793 81.5185L502.643 74.2918L504.919 76.8197C504.919 76.8197 512.926 79.1494 514.873 80.6876C518.62 83.6485 517.944 90.3565 517.685 97.0648C517.357 105.542 516.808 113.944 516.808 113.944L511.995 113.929C511.995 113.929 509.801 116.591 507.804 116.703C505.805 116.815 504.001 114.375 504.001 114.375L487.535 114.044L486.927 101.442L482.916 108.396L474.209 99.5259L476.382 92.418L482.881 87.1342Z" fill="#FF0066"/>
<path fill-rule="evenodd" clip-rule="evenodd" d="M453.949 99.0806L479.976 99.4324L480.943 100.399L485.383 117.414L496.263 117.841L486.769 122.577L486.175 123.411L478.391 123.287L469.735 119.108L462.886 122.946L455.356 122.557L459.851 110.161C459.851 110.161 457.492 106.731 456.016 103.961C454.54 101.19 453.949 99.0806 453.949 99.0806Z" fill="#FF8E5E"/>
<path fill-rule="evenodd" clip-rule="evenodd" d="M487.844 56.9471C487.844 56.9471 495.297 53.47 498.429 54.9534C500.067 55.729 502.792 56.9949 503.661 59.7934C504.453 62.348 503.461 66.4883 503.461 66.4883C503.461 66.4883 489.837 65.3135 486.515 63.4503C483.192 61.5872 487.844 56.9471 487.844 56.9471Z" fill="#704A3A"/>
<path fill-rule="evenodd" clip-rule="evenodd" d="M485.286 76.342L488.181 76.1583L490.672 76.1944L488.037 72.3981L487.77 68.1282L486.904 64.6875C486.904 64.6875 487.01 62.6058 488.309 61.4365C489.231 60.6069 491.132 60.5541 492.332 60.6126C494.704 60.7285 497.257 65.1598 499.308 65.5096C499.926 65.6151 501.28 65.3719 501.713 65.5215C505.339 66.7716 501.403 69.6876 501.403 69.6876L502.151 74.8853L500.432 77.5407L496.951 80.1298L496.271 82.6346L499.623 88.0724L497.681 90.1135L495.376 91.0379L493.814 88.1724L491.122 85.6732L488.972 83.0538L485.765 86.6799L484.704 87.8575L483.467 91.5398L480.585 91.3387L478.27 89.8204L479.829 86.4647L480.846 82.1896L485.286 76.342Z" fill="#D6836C"/>
<path fill-rule="evenodd" clip-rule="evenodd" d="M491.035 86.3515L493.609 87.8452L494.906 91.353L497.615 89.8634L499.549 87.5921L496.309 82.6506L497.167 80.1344L502.341 75.2151L501.858 90.5522L500.891 90.6967C500.891 90.6967 500.01 92.8801 498.394 94.0202C496.777 95.1602 494.424 95.2569 494.424 95.2569C494.424 95.2569 495.698 98.333 497.66 102.902C499.08 106.206 501.32 110.252 501.32 110.252L501.241 114.376L491.289 113.897L491.615 109.217L490.479 105.788L491.035 86.3515Z" fill="white"/>
<path fill-rule="evenodd" clip-rule="evenodd" d="M478.152 89.763C478.152 89.763 479.837 91.1655 481.309 91.6237C482.783 92.0819 484.044 91.5955 484.044 91.5955L483.002 95.2607C483.002 95.2607 481.359 95.5355 479.871 94.8378C478.384 94.14 477.053 92.4696 477.053 92.4696L478.152 89.763Z" fill="white"/>
<path fill-rule="evenodd" clip-rule="evenodd" d="M530.45 209.344L544.179 209.98C544.179 209.98 551.343 210.988 552.551 211.621C554.031 212.396 556.003 217.951 557.719 222.612C559.984 228.766 560.393 232.125 559.597 234.817C559.149 236.326 557.547 237.824 555.938 237.191C553.312 236.158 550.393 232.012 550.393 232.012L549.698 236.736L550.167 244.061H528.622L517.508 228.4C517.508 228.4 518.842 219.402 520.738 213.964C521.743 211.085 530.45 209.344 530.45 209.344Z" fill="white"/>
<path fill-rule="evenodd" clip-rule="evenodd" d="M498.662 232.039L497.256 228.424L524.321 228.525L529.147 246.395L538.272 246.779L529.733 249.033L529.176 249.672L514.655 249.549C514.655 249.549 512.138 247.965 509.781 246.151C507.424 244.335 505.227 242.289 505.227 242.289L497.777 242.18L495.277 234.767L498.662 232.039Z" fill="#7D96C4"/>
<path fill-rule="evenodd" clip-rule="evenodd" d="M526.684 188.091C526.749 187.542 527.261 187.007 527.852 186.878C528.734 186.686 529.79 187.078 529.79 187.078L530.594 185.379L532.079 184.658L532.243 183.769L536.201 182.503L537.596 183.812L538.928 182.799L540.318 184.201L541.485 183.284L542.636 183.412L543.302 185.612L544.481 185.3L546.072 186.244L546.442 188.47L548.214 187.368L549.004 188.032L549.188 189.086L550.223 189.199L550.916 190.762L550.27 191.81L550.436 193.265L551.889 193.723L551.274 196.362L552.979 196.98L552.676 198.329L553.149 203.558L544.34 210.055L532.944 208.61L530.368 209.751L522.756 211.804L522.472 207.184L521.184 205.007L522.553 204.05C522.553 204.05 522.644 202.383 522.667 201.946C522.685 201.6 521.918 200.867 521.949 200.52C521.968 200.301 523.357 199.62 523.378 199.402C523.403 199.133 523.43 196.919 523.458 196.662C523.501 196.256 523.048 195.406 523.101 195.04C523.138 194.795 524.898 194.194 524.933 193.971C525.009 193.479 524.256 191.858 524.339 191.519C524.441 191.095 525.831 191.044 525.91 190.912C526.745 189.51 526.667 188.236 526.684 188.091Z" fill="#804C40"/>
<path fill-rule="evenodd" clip-rule="evenodd" d="M532.457 192.133C532.457 192.133 532.655 193.261 533.712 192.222C533.87 192.067 534.268 191.571 534.491 191.454C534.756 191.314 536.636 191.637 536.919 191.549C537.25 191.447 537.649 191.803 537.995 191.776C538.385 191.746 538.949 191.06 539.337 191.196C539.766 191.346 539.804 192.343 540.215 192.687C540.444 192.879 542.838 194.064 543.063 194.286C543.26 194.48 543 195.919 543.159 196.113C544.739 198.053 544.971 198.715 544.971 198.715L543.108 200.675L541.887 204.286C541.887 204.286 541.49 206.5 542.09 208.012C542.688 209.524 544.284 210.333 544.284 210.333C544.284 210.333 540.245 214.812 536.764 214.668C533.283 214.524 530.359 209.757 530.359 209.757L533.389 208.108L533.546 205.605L532.057 202.962L530.83 194.198L532.457 192.133Z" fill="#B87A5B"/>
<path fill-rule="evenodd" clip-rule="evenodd" d="M544.678 209.778C544.956 209.096 546.082 207.183 547.237 205.218C548.035 203.862 548.882 202.229 549.326 201.993C549.973 201.651 550.307 202.717 549.679 204.057C549.051 205.395 549.893 206.218 549.893 206.218L554.6 201.501L553.929 206.871C553.929 206.871 552.567 207.994 551.253 209.062C550.368 209.781 549.455 210.223 549.187 211.231C549.075 211.658 549.904 214.103 549.73 214.439C548.537 216.739 545.762 216.308 545.762 216.308C545.762 216.308 545.447 214.4 545.045 213.054C544.655 211.747 544.169 211.02 544.678 209.778Z" fill="#B87A5B"/>
<path fill-rule="evenodd" clip-rule="evenodd" d="M203.995 342.403C203.995 342.403 203.517 339.679 204.382 338.422C205.241 337.176 207.406 337.407 207.406 337.407L328.13 338.617C328.13 338.617 330.183 338.585 331.364 339.716C332.544 340.848 332.852 343.142 332.852 343.142L339.876 414.813C339.876 414.813 340.16 417.992 338.471 419.54C336.728 421.138 332.72 420.997 332.72 420.997L217.366 418.429C217.366 418.429 215.462 418.377 214.402 417.401C213.343 416.424 213.127 414.522 213.127 414.522L203.995 342.403Z" stroke="black" stroke-width="1.3" stroke-linecap="round" stroke-linejoin="round"/>
<path d="M344.854 245.884C354.395 250.047 370.58 254.153 378.399 256.853C381.745 258.007 386.839 259.622 389.395 261.22C390.947 262.188 392.077 263.929 392.727 265.147" stroke="black" stroke-width="1.3" stroke-linecap="round" stroke-linejoin="round"/>
<path d="M318.596 240.934C318.596 240.934 319.447 249.705 318.572 252.61" stroke="black" stroke-width="1.3" stroke-linecap="round" stroke-linejoin="round"/>
<path d="M282.742 266.914C275.884 265.477 272.713 270.704 272.013 281.295C271.659 286.649 271.48 297.48 270.484 308.985C269.489 320.489 268.694 327.422 268.141 337.821" stroke="black" stroke-width="1.3" stroke-linecap="round" stroke-linejoin="round"/>
<path d="M318.337 249.059C311.855 251.824 298.8 257.072 294.36 258.749C290.95 260.036 283.459 261.228 282.799 267.177C282.138 273.126 284.558 309.723 290.825 337.904" stroke="black" stroke-width="1.3" stroke-linecap="round" stroke-linejoin="round"/>
<path d="M356.391 197.82C358.017 188.539 354.998 178.232 348.905 174.064C331.769 162.344 313.373 170.035 307.28 176.375C303.264 180.551 300.99 184.9 299.976 189.028C297.222 200.244 301.052 201.112 302.324 211.521C303.001 217.078 302.883 218.253 303.918 223.037C304.703 226.666 307.604 230.789 312.058 235.657C314.199 237.995 316.684 239.979 319.089 240.786C320.882 241.388 327.525 242.129 337.979 236.107C343.351 233.014 347.786 227.889 350.252 220.007" stroke="black" stroke-width="1.3" stroke-linecap="round" stroke-linejoin="round"/>
<path d="M390.848 262.71C384.216 260.628 377.646 275.428 375.745 285.268C374.089 293.843 374.738 306.738 380.665 307.073" stroke="black" stroke-width="1.3" stroke-linecap="round" stroke-linejoin="round"/>
<path d="M339.92 414.719L360.095 393.896C360.095 393.896 361.052 392.706 360.625 391.555C360.197 390.404 358.484 390.335 358.484 390.335L337.873 390.133" stroke="black" stroke-width="1.3" stroke-linecap="round" stroke-linejoin="round"/>
<path d="M159.818 373.741H160.03H160.953H199.627H206.84H207.732" stroke="black" stroke-width="1.3" stroke-linecap="round" stroke-linejoin="round"/>
<path d="M398.445 373.741H401.073H499.291" stroke="black" stroke-width="1.3" stroke-linecap="round" stroke-linejoin="round"/>
<path d="M335.953 370.919C343.891 367.893 353.518 363.532 361.553 359.539C385.5 347.641 385.659 345.781 393.976 346.417C403.283 347.13 417.412 361.679 408.386 369.25C400.585 375.794 344.899 386.135 337.636 387.304" stroke="black" stroke-width="1.3" stroke-linecap="round" stroke-linejoin="round"/>
<path d="M302.578 207.784C302.578 207.784 305.042 203.915 306.406 203.873C307.771 203.831 310.5 207.728 310.5 207.728" stroke="#FF0066" stroke-width="4" stroke-linecap="round" stroke-linejoin="round"/>
<path d="M323.443 207.252C323.443 207.252 325.908 203.383 327.271 203.341C328.636 203.299 331.366 207.196 331.366 207.196" stroke="#FF0066" stroke-width="4" stroke-linecap="round" stroke-linejoin="round"/>
<path fill-rule="evenodd" clip-rule="evenodd" d="M302.578 207.784C302.578 207.784 305.042 203.915 306.406 203.873C307.771 203.831 310.5 207.728 310.5 207.728" fill="#FF0066"/>
<path d="M302.578 207.784C302.578 207.784 305.042 203.915 306.406 203.873C307.771 203.831 310.5 207.728 310.5 207.728" stroke="black" stroke-width="1.3" stroke-linecap="round" stroke-linejoin="round"/>
<path fill-rule="evenodd" clip-rule="evenodd" d="M323.443 207.252C323.443 207.252 325.908 203.383 327.271 203.341C328.636 203.299 331.366 207.196 331.366 207.196" fill="#FF0066"/>
<path d="M323.443 207.252C323.443 207.252 325.908 203.383 327.271 203.341C328.636 203.299 331.366 207.196 331.366 207.196" stroke="black" stroke-width="1.3" stroke-linecap="round" stroke-linejoin="round"/>
<path d="M303.211 219.456C303.847 223.719 306.345 227.738 307.282 228.755C312.599 234.526 324.338 234.557 331.854 230.564" stroke="black" stroke-width="1.3" stroke-linecap="round" stroke-linejoin="round"/>
<path d="M331.68 230.68C340.312 225.337 339.74 211.385 340.024 205.792C340.587 194.715 337.398 183.069 351.842 177.578" stroke="black" stroke-width="1.3" stroke-linecap="round" stroke-linejoin="round"/>
<path fill-rule="evenodd" clip-rule="evenodd" d="M347.207 201.965C345.702 205.511 345.365 211.414 345.807 214.866C346.414 219.602 352.209 221.335 355.352 218.951C358.408 216.634 360.889 207.834 358.737 201.673C356.371 194.904 349.497 196.576 347.207 201.965Z" stroke="black" stroke-width="1.3" stroke-linecap="round" stroke-linejoin="round"/>
<path d="M357.399 199.518C351.144 197.891 349.379 221.361 355.169 219.03" stroke="black" stroke-width="1.3" stroke-linecap="round" stroke-linejoin="round"/>
<path fill-rule="evenodd" clip-rule="evenodd" d="M339.945 169.618C328.951 171.5 328.886 179.956 321.492 181.97C319.578 182.492 314.306 183.106 310.252 182.261C303.362 180.827 312 172.784 314.715 171.322" fill="#FF0066"/>
<path d="M339.945 169.618C328.951 171.5 328.886 179.956 321.492 181.97C319.578 182.492 314.306 183.106 310.252 182.261C303.362 180.827 312 172.784 314.715 171.322" stroke="#FF0066" stroke-width="1.3" stroke-linecap="round" stroke-linejoin="round"/>
<path d="M318.746 249.71C316.183 252.036 323.45 263.814 328.741 263.814C332.438 263.814 341.397 256.035 344.68 250.275C346.096 247.791 345.984 247.724 344.599 246.131" stroke="black" stroke-width="1.3" stroke-linecap="round" stroke-linejoin="round"/>
<path d="M319.189 243.869C319.189 243.869 325.953 248.788 344.061 242.415" stroke="black" stroke-width="1.3" stroke-linecap="round" stroke-linejoin="round"/>
<path d="M324.869 240.989C327.332 241.42 334.08 241.322 343.794 237.436" stroke="black" stroke-width="1.3" stroke-linecap="round" stroke-linejoin="round"/>
<path d="M319.254 247.978C319.254 247.978 324.791 254.901 343.987 247.207" stroke="black" stroke-width="1.3" stroke-linecap="round" stroke-linejoin="round"/>
<path d="M318.904 252.119C318.904 252.119 324.289 259.434 343.096 252.206" stroke="black" stroke-width="1.3" stroke-linecap="round" stroke-linejoin="round"/>
<path d="M321.32 258.354C324.525 259.846 330.4 261.406 337.706 258.296" stroke="black" stroke-width="1.3" stroke-linecap="round" stroke-linejoin="round"/>
<path d="M340.771 341.695C345.819 346.533 353.768 349.639 360.264 349.661C364.635 349.675 374.683 346.414 377.814 342.629C380.946 338.846 379.471 326.727 382.343 315.113" stroke="black" stroke-width="1.3" stroke-linecap="round" stroke-linejoin="round"/>
<path d="M308.988 337.989C308.622 336.043 308.588 333.995 308.936 331.921C310.488 322.664 319.07 316.388 328.104 317.904C337.138 319.419 343.201 328.151 341.649 337.408C340.777 342.61 337.683 346.871 333.538 349.337" stroke="black" stroke-width="1.3" stroke-linecap="round" stroke-linejoin="round"/>
<path d="M371.551 347.327C371.551 347.327 371.77 351.504 371.817 353.92" stroke="black" stroke-width="1.3" stroke-linecap="round" stroke-linejoin="round"/>
<path d="M388.628 346.036C386.801 338.754 385.029 326.707 382.738 316.569C379.367 301.648 379.092 298.783 379.038 298.409C377.029 284.608 389.916 262.777 397.757 264.753C405.598 266.728 403.299 285.527 405.526 303.306C407.755 321.085 410.388 334.101 410.553 344.24C410.605 347.439 408.95 350.285 406.5 352.282" stroke="black" stroke-width="1.3" stroke-linecap="round" stroke-linejoin="round"/>
<path d="M334.584 355.551C349.076 356.078 364.447 355.412 371.433 351.106" stroke="black" stroke-width="1.3" stroke-linecap="round" stroke-linejoin="round"/>
<path d="M335.281 363.48C341.371 363.691 348.179 363.525 353.942 363.101" stroke="black" stroke-width="1.3" stroke-linecap="round" stroke-linejoin="round"/>
<path d="M336.283 347.514C340.209 348.005 346.291 347.667 349.957 347.499" stroke="black" stroke-width="1.3" stroke-linecap="round" stroke-linejoin="round"/>
<path fill-rule="evenodd" clip-rule="evenodd" d="M294.32 282.991H312.399C313.308 282.991 314.044 283.728 314.044 284.636V284.885C314.044 285.793 313.308 286.529 312.399 286.529H294.32C293.412 286.529 292.676 285.793 292.676 284.885V284.636C292.676 283.728 293.412 282.991 294.32 282.991Z" fill="#EE005E" stroke="black" stroke-width="1.3" stroke-linecap="round" stroke-linejoin="round"/>
<path d="M302.886 219.457C301.551 219.137 300.35 218.567 299.6 217.784C296.896 214.965 294.222 207.448 297.831 201.667C298.188 201.095 298.595 200.617 299.039 200.225" stroke="black" stroke-width="1.3" stroke-linecap="round" stroke-linejoin="round"/>
<path d="M344.094 231.285L344.589 249.923" stroke="black" stroke-width="1.3" stroke-linecap="round" stroke-linejoin="round"/>
<path d="M410.311 347.518C411.56 349.342 412.286 351.521 412.286 353.863C412.286 355.684 411.748 357.673 410.528 359.299" stroke="black" stroke-width="1.3" stroke-linecap="round" stroke-linejoin="round"/>
<path fill-rule="evenodd" clip-rule="evenodd" d="M265.652 379.055C265.652 376.075 267.903 373.661 270.68 373.661C273.457 373.661 275.708 376.075 275.708 379.055C275.708 382.033 273.457 384.447 270.68 384.447C267.903 384.447 265.652 382.033 265.652 379.055Z" fill="white" stroke="black" stroke-width="1.3" stroke-linecap="round" stroke-linejoin="round"/>
<path d="M550.62 205.853C550.22 205.882 549.443 205.86 549.487 205.227C549.545 204.414 550.046 203.814 550.171 203.101C550.257 202.625 550.3 202.026 549.954 201.74C549.48 201.348 549.204 201.806 549.005 202.227C548.631 203.022 548.179 204.132 547.704 204.988C547.212 205.874 545.815 208.083 545.193 209.056C544.571 210.029 544.598 211.219 545.058 212.516C545.517 213.814 546.004 215.922 546.004 215.922" stroke="black" stroke-width="1.3" stroke-linecap="round" stroke-linejoin="round"/>
<path d="M552.475 207.199C552.805 206.83 553.008 206.322 553.069 206.174C553.524 205.077 554.431 203.402 554.287 202.613C554.088 201.509 553.688 200.204 553.446 199.892C553.07 199.407 552.695 199.906 552.735 200.343C552.84 201.5 553.199 202.776 552.764 203.502C552.328 204.228 551.27 205.381 550.668 205.828C549.45 206.73 547.713 207.433 546.594 208.778" stroke="black" stroke-width="1.3" stroke-linecap="round" stroke-linejoin="round"/>
<path d="M549.68 213.679C549.68 213.679 548.923 211.894 549.599 210.894C550.274 209.894 553.149 207.598 553.506 206.93C554.218 205.598 554.938 204.314 555.186 203.722C555.434 203.13 555.49 202.461 555.349 201.572C555.174 200.464 555.035 199.144 554.834 198.804C554.523 198.274 554.088 198.723 554.072 199.161C554.046 199.906 554.073 200.806 554.135 201.846" stroke="black" stroke-width="1.3" stroke-linecap="round" stroke-linejoin="round"/>
<path d="M555.412 202.839C555.412 202.839 556.681 199.501 556.594 198.904C556.532 198.481 556.144 198.456 555.943 198.695C555.56 199.149 555.327 199.982 555.176 200.425" stroke="black" stroke-width="1.3" stroke-linecap="round" stroke-linejoin="round"/>
<path d="M545.498 214.35C543.794 216.273 546.161 216.337 547.951 215.715C549.563 215.156 550.465 213.028 549.494 212.553" stroke="black" stroke-width="1.3" stroke-linecap="round" stroke-linejoin="round"/>
<path d="M549.639 212.649C550.548 213.242 552.311 217.208 554.447 221.165C556.446 224.868 557.79 226.343 559.264 229.751" stroke="black" stroke-width="1.3" stroke-linecap="round" stroke-linejoin="round"/>
<path d="M544.934 215.597C545.311 216.905 547.715 224.097 550.479 231.879C551.358 234.351 555.389 238.081 557.794 237.147C560.326 236.163 560.064 231.682 559.981 230.156C559.923 229.108 558.703 226.042 557.373 222.227C555.796 217.702 555.33 214.327 553.886 212.775C552.669 211.463 550.68 210.921 549.788 210.813" stroke="black" stroke-width="1.3" stroke-linecap="round" stroke-linejoin="round"/>
<path d="M544.544 209.894C543.301 209.597 542.319 208.844 542.047 208.221C541.477 206.917 541.827 204.112 541.827 204.112" stroke="black" stroke-width="1.3" stroke-linecap="round" stroke-linejoin="round"/>
<path d="M517.639 228.6C517.639 228.6 518.414 224.873 519.132 220.897C520.066 215.722 520.657 213.931 522.223 212.415C525.121 209.609 532.294 210.498 533.59 207.531C533.856 206.919 533.672 205.241 533.672 205.241" stroke="black" stroke-width="1.3" stroke-linecap="round" stroke-linejoin="round"/>
<path d="M497.555 241.771L495.822 235.629L495.648 235.015" stroke="black" stroke-width="1.3" stroke-linecap="round" stroke-linejoin="round"/>
<path d="M497.238 228.405L498.543 228.418L523.654 228.674C523.654 228.674 524.09 228.669 524.36 228.894C524.63 229.118 524.734 229.571 524.734 229.571L529.52 248.754C529.52 248.754 529.677 249.267 529.489 249.504C529.302 249.742 528.77 249.704 528.77 249.704L515.478 249.537L514.858 249.529L514.77 249.528" stroke="black" stroke-width="1.3" stroke-linecap="round" stroke-linejoin="round"/>
<path fill-rule="evenodd" clip-rule="evenodd" d="M509.403 239.225C509.178 238.331 509.574 237.452 510.284 237.262C510.995 237.074 511.754 237.645 511.978 238.539C512.201 239.433 511.807 240.311 511.095 240.501C510.384 240.689 509.626 240.119 509.403 239.225Z" fill="white" stroke="black" stroke-width="1.3" stroke-linecap="round" stroke-linejoin="round"/>
<path d="M529.602 248.577L530.232 248.486L540.02 246.728C540.02 246.728 540.467 246.643 540.456 246.524C540.445 246.406 540.013 246.405 540.013 246.405L529.712 246.445H529.008H528.965" stroke="black" stroke-width="1.3" stroke-linecap="round" stroke-linejoin="round"/>
<path d="M529.662 249.152L530.293 249.061L539.952 247.34C539.952 247.34 540.318 247.29 540.424 247.064C540.531 246.837 540.472 246.561 540.472 246.561" stroke="black" stroke-width="1.3" stroke-linecap="round" stroke-linejoin="round"/>
<path d="M528.43 243.97H528.444H528.567H532.162H565.432H566.539H566.707" stroke="black" stroke-width="1.3" stroke-linecap="round" stroke-linejoin="round"/>
<path d="M530.586 209.527C531.616 213.371 539.083 218.22 544.085 210.083" stroke="black" stroke-width="1.3" stroke-linecap="round" stroke-linejoin="round"/>
<path d="M550.305 231.368C550.162 232.59 549.976 234.121 549.842 235.774C549.658 238.042 550.042 239.119 550.192 243.755" stroke="black" stroke-width="1.3" stroke-linecap="round" stroke-linejoin="round"/>
<path d="M523.629 217.5C524.075 219.945 523.161 223.246 522.79 225.721C522.652 226.643 522.759 227.584 522.975 228.522" stroke="black" stroke-width="1.3" stroke-linecap="round" stroke-linejoin="round"/>
<path fill-rule="evenodd" clip-rule="evenodd" d="M91.3039 204.213C91.7358 203.73 92.6076 205.822 93.3818 206.94C93.6531 207.332 94.5048 207.604 94.5048 207.604C94.5048 207.604 94.1524 205.856 95.1509 205.71C96.1493 205.563 98.4986 207.017 98.4986 207.017C98.4986 207.017 98.4164 206.207 98.6527 205.711C98.787 205.429 98.9348 204.871 99.4824 205.563C99.7428 205.893 100.196 206.643 100.549 207.221C101.191 208.275 101.95 208.673 102.607 209.91C103.076 210.793 103.239 211.82 103.572 212.684C104.005 213.804 104.298 214.901 104.298 214.901C104.298 214.901 103.539 215.027 102.713 215.401C101.886 215.774 100.994 216.397 100.994 216.397L100.246 214.696L95.8141 211.33L94.512 210.147L94.1942 209.263L92.3317 208.397C92.3317 208.397 91.6373 206.906 91.2887 205.741C91.0708 205.014 90.9791 204.576 91.3039 204.213Z" stroke="black" stroke-width="1.3" stroke-linecap="round" stroke-linejoin="round"/>
<path fill-rule="evenodd" clip-rule="evenodd" d="M100.62 240.977C101.852 239.522 104.65 238.351 104.65 238.351L105.862 243.762C105.862 243.762 104.929 244.557 104.354 244.687C103.78 244.816 103.566 244.28 103.566 244.28C103.566 244.28 102.425 245.226 101.951 245.168C101.476 245.109 101.667 244.045 101.667 244.045C101.667 244.045 100.769 244.241 100.583 243.824C100.396 243.407 100.922 242.376 100.922 242.376C100.922 242.376 99.7328 242.023 100.62 240.977Z" stroke="black" stroke-width="1.3" stroke-linecap="round" stroke-linejoin="round"/>
<path fill-rule="evenodd" clip-rule="evenodd" d="M142.739 251.747C142.121 252.265 141.157 252.276 141.157 252.276L109.306 252.046C109.306 252.046 108.462 252.133 107.923 251.534C107.385 250.936 107.151 249.651 107.151 249.651L103.196 231.796C103.196 231.796 102.898 230.826 103.275 230.356C103.651 229.885 104.703 229.915 104.703 229.915H146.359C146.359 229.915 147.193 229.889 147.512 230.294C147.832 230.698 147.638 231.534 147.638 231.534L143.962 248.649L143.629 250.201C143.629 250.201 143.358 251.228 142.739 251.747Z" stroke="black" stroke-width="1.3" stroke-linecap="round" stroke-linejoin="round"/>
<path fill-rule="evenodd" clip-rule="evenodd" d="M123.885 241.467C123.885 240.567 124.607 239.836 125.498 239.836C126.389 239.836 127.111 240.567 127.111 241.467C127.111 242.367 126.389 243.097 125.498 243.097C124.607 243.097 123.885 242.367 123.885 241.467Z" fill="white" stroke="black" stroke-width="1.3" stroke-linecap="round" stroke-linejoin="round"/>
<path d="M105.341 242.063C105.341 242.063 103.086 243.869 103.685 244.503C104.108 244.95 104.88 244.503 105.751 243.803" stroke="black" stroke-width="1.3" stroke-linecap="round" stroke-linejoin="round"/>
<path d="M105.02 240.595C104.302 240.984 103.718 241.343 103.064 242.075C102.569 242.628 101.943 243.521 101.707 244.074C101.362 244.883 101.811 245.27 102.454 245.076C102.81 244.968 103.252 244.622 103.533 244.248" stroke="black" stroke-width="1.3" stroke-linecap="round" stroke-linejoin="round"/>
<path d="M104.743 239.356C103.808 239.802 103.183 240.157 102.451 240.779C101.753 241.372 100.934 242.355 100.667 242.981C100.321 243.791 100.77 244.179 101.413 243.984C101.558 243.94 101.765 243.816 101.853 243.761" stroke="black" stroke-width="1.3" stroke-linecap="round" stroke-linejoin="round"/>
<path d="M104.586 238.342C102.606 239.109 100.899 240.543 100.421 241.362C100.238 241.677 100.206 242.351 100.938 242.302" stroke="black" stroke-width="1.3" stroke-linecap="round" stroke-linejoin="round"/>
<path d="M102.238 212.015C100.918 209.975 98.0491 210.386 97.9457 209.932C97.8396 209.466 98.1873 208.678 98.2777 208.614C98.4011 208.525 98.9208 208.689 99.0656 208.708" stroke="black" stroke-width="1.3" stroke-linecap="round" stroke-linejoin="round"/>
<path d="M98.8236 208.656C98.8236 208.656 99.3088 209.708 99.9244 209.612C100.54 209.517 100.113 208.604 99.7566 207.976C99.4202 207.383 97.8658 206.605 97.335 206.984C96.8041 207.363 96.0978 208.881 95.7067 210.541C95.4854 211.479 96.6257 211.895 99.1046 213.71C100.442 214.689 100.382 214.958 100.863 216.326" stroke="black" stroke-width="1.3" stroke-linecap="round" stroke-linejoin="round"/>
<path d="M95.7808 211.252C95.5694 211.236 95.1443 210.795 95.0698 210.583C94.8763 210.033 95.4908 207.359 95.9635 206.508C96.4362 205.659 98.0326 206.919 98.0326 206.919" stroke="black" stroke-width="1.3" stroke-linecap="round" stroke-linejoin="round"/>
<path d="M96.5728 206.156C96.5728 206.156 94.9666 205.272 94.6841 206.151C94.4016 207.028 94.3317 209.21 94.3505 209.517C94.3917 210.19 94.9766 210.313 94.9766 210.313" stroke="black" stroke-width="1.3" stroke-linecap="round" stroke-linejoin="round"/>
<path d="M94.3352 207.623C94.3352 207.623 93.4829 207.45 93.1686 206.798C92.8543 206.145 92.2982 204.846 91.8341 204.441C91.3701 204.036 90.8998 204.372 91.2042 205.194C91.5085 206.016 91.9272 208.212 92.6086 208.538C93.3602 208.899 94.2225 209.312 94.2225 209.312" stroke="black" stroke-width="1.3" stroke-linecap="round" stroke-linejoin="round"/>
<path d="M98.7287 207.082C98.651 206.695 98.2812 205.459 99.0124 205.289C99.7434 205.118 99.7399 206.713 101.234 208.145C101.857 208.743 102.73 209.701 103.048 211.137C103.366 212.574 103.426 212.345 104.223 214.687" stroke="black" stroke-width="1.3" stroke-linecap="round" stroke-linejoin="round"/>
<path d="M111.065 229.911C109.174 225.389 106.126 217.101 105.354 215.275C104.771 213.894 100.053 216.529 100.324 217.463C101.731 222.327 103.568 230.043 103.568 230.043" stroke="black" stroke-width="1.3" stroke-linecap="round" stroke-linejoin="round"/>
<path d="M119.477 209.71C116.574 211.348 110.789 212.434 109.22 214.756C107.988 216.58 107.582 220.824 107.582 220.824" stroke="black" stroke-width="1.3" stroke-linecap="round" stroke-linejoin="round"/>
<path d="M112.15 218.619C113.095 221.763 112.794 223.412 112.688 225.247C112.588 226.986 112.921 228.135 113.255 229.557" stroke="black" stroke-width="1.3" stroke-linecap="round" stroke-linejoin="round"/>
<path d="M130.725 209.964C133.632 211.592 139.213 212.766 140.908 214.967C143.114 217.83 144.329 229.761 144.329 229.761" stroke="black" stroke-width="1.3" stroke-linecap="round" stroke-linejoin="round"/>
<path d="M129.652 208.432C128.919 210.177 128.089 210.75 126.44 212.093C125.697 212.698 125.559 214.707 125.374 217.479C125.149 220.861 125.086 224.23 125.201 229.869" stroke="black" stroke-width="1.3" stroke-linecap="round" stroke-linejoin="round"/>
<path d="M120.383 208.516C121.848 211.164 124.045 211.587 124.355 212.769C124.783 214.402 125.399 216.447 125.399 216.447" stroke="black" stroke-width="1.3" stroke-linecap="round" stroke-linejoin="round"/>
<path d="M124.003 212.185C122.841 212.338 121.548 215.189 121.548 215.189C121.548 215.189 119.549 210.447 119.586 209.708C119.624 208.968 120.422 207.547 120.952 207.167" stroke="black" stroke-width="1.3" stroke-linecap="round" stroke-linejoin="round"/>
<path d="M126.387 212.163C127.548 212.316 128.842 215.167 128.842 215.167C128.842 215.167 130.526 210.717 130.667 209.904C130.754 209.4 129.692 207.319 129.085 207.167" stroke="black" stroke-width="1.3" stroke-linecap="round" stroke-linejoin="round"/>
<path d="M89.5117 240.729L100.794 240.622L100.958 240.619" stroke="black" stroke-width="1.3" stroke-linecap="round" stroke-linejoin="round"/>
<path d="M146.062 240.212L146.664 240.205L168.814 239.943" stroke="black" stroke-width="1.3" stroke-linecap="round" stroke-linejoin="round"/>
<path d="M207.505 89.3928C206.84 91.4395 206.742 95.9713 206.266 101.262" stroke="black" stroke-width="1.3" stroke-linecap="round" stroke-linejoin="round"/>
<path d="M196.203 78.2518C197.999 79.1281 201.026 79.6172 202.615 80.0238C204.203 80.4302 207.146 81.171 208.694 83.3385C210.242 85.506 211.293 87.9006 213.605 97.0679C214.567 100.887 217.34 109.591 216.43 112.308C215.784 114.235 213.326 115.311 210.923 115.928" stroke="black" stroke-width="1.3" stroke-linecap="round" stroke-linejoin="round"/>
<path d="M177.376 95.2563C177.091 97.8306 176.566 101.12 176.566 101.12" stroke="black" stroke-width="1.3" stroke-linecap="round" stroke-linejoin="round"/>
<path d="M182.802 78.743C181.435 79.4542 178.925 80.3022 176.533 80.9224C175.194 81.2696 171.672 82.2227 170.116 84.7241C168.561 87.2253 168.126 91.967 167.649 95.8761C167.157 99.9119 165.904 108.637 166.26 112.051C166.594 115.245 171.94 115.996 171.94 115.996" stroke="black" stroke-width="1.3" stroke-linecap="round" stroke-linejoin="round"/>
<path d="M178.066 101.358C180.019 100.039 182.714 97.8988 184.372 96.2469C185.038 95.5823 186.487 94.2407 187.307 93.4855C187.667 93.1551 188.068 93.1385 188.068 93.1385" stroke="black" stroke-width="1.3" stroke-linecap="round" stroke-linejoin="round"/>
<path d="M192.337 97.5098C191.85 98.3738 190.875 99.8672 189.781 101.47" stroke="black" stroke-width="1.3" stroke-linecap="round" stroke-linejoin="round"/>
<path d="M190.125 91.3005C190.397 92.2756 191.49 93.3536 192.439 93.7614C193.291 94.1275 194.328 94.3088 194.328 94.3088" stroke="black" stroke-width="1.3" stroke-linecap="round" stroke-linejoin="round"/>
<path d="M190.477 91.1107C190.146 91.0369 189.778 91.2161 189.065 92.1505C188.449 92.958 187.636 93.3666 187.564 94.0224C187.494 94.6563 188.548 96.0197 189.801 96.8189C190.973 97.5658 192.238 97.6898 192.557 97.4475C193.115 97.0219 193.325 96.293 193.497 95.9762C193.918 95.2007 194.458 94.981 194.491 94.0006" stroke="black" stroke-width="1.3" stroke-linecap="round" stroke-linejoin="round"/>
<path d="M195.577 86.5001C195.578 86.1083 195.362 84.7351 195.288 83.8667C195.239 83.3009 196.661 82.3922 196.789 82.164" stroke="black" stroke-width="1.3" stroke-linecap="round" stroke-linejoin="round"/>
<path d="M196.454 82.6941C196.436 83.0619 196.295 83.5178 196.077 84.0774C195.859 84.637 196.397 85.305 196.961 84.9526C197.525 84.6001 198.16 83.1851 198.172 82.9782C198.219 82.2184 197.733 81.1077 197.478 80.7011C197.196 80.2478 196.422 79.96 195.566 80.4644C194.71 80.9687 192.979 82.515 192.273 83.1537" stroke="black" stroke-width="1.3" stroke-linecap="round" stroke-linejoin="round"/>
<path d="M197.699 81.0683C197.749 80.047 196.816 79.1221 196.069 78.6221C195.664 78.3517 195.243 77.9698 194.716 78.2012C194.3 78.3844 194.007 78.7627 193.699 79.0812C192.758 80.0546 191.637 81.6253 191.637 81.6253" stroke="black" stroke-width="1.3" stroke-linecap="round" stroke-linejoin="round"/>
<path d="M196.36 78.8164C195.955 77.8699 194.846 76.8451 194.196 77.0685C193.543 77.2931 193.002 78.0097 192.116 79.1066C191.231 80.2034 190.204 81.6131 190.065 82.1658C189.859 82.9849 190.403 84.4872 190.728 85.5962C191.053 86.7053 191.348 88.0905 191.328 89.3325C191.313 90.2996 190.839 90.8285 190.367 91.4712" stroke="black" stroke-width="1.3" stroke-linecap="round" stroke-linejoin="round"/>
<path d="M196.569 85.1709C197.083 86.3402 197.206 88.0893 196.586 89.6624C195.982 91.2002 194.813 93.1336 194.25 94.1335" stroke="black" stroke-width="1.3" stroke-linecap="round" stroke-linejoin="round"/>
<path d="M195.251 77.3451C195.014 76.8583 194.235 76.8048 193.677 76.7773C193.201 76.7538 191.341 76.5022 191.039 77.319C190.737 78.1358 190.505 80.4385 190.459 81.3773" stroke="black" stroke-width="1.3" stroke-linecap="round" stroke-linejoin="round"/>
<path d="M196.49 82.4582C196.539 82.6321 196.922 83.0458 197.024 83.1973" stroke="black" stroke-width="1.3" stroke-linecap="round" stroke-linejoin="round"/>
<path d="M184.563 76.7231C184.554 77.6489 186.594 79.6792 187.311 80.1723C188.028 80.6655 188.382 80.8319 188.809 81.3174C189.1 81.6466 189.279 82.8575 189.412 84.2776C189.622 86.5213 189.914 88.2681 189.873 91.0849" stroke="black" stroke-width="1.3" stroke-linecap="round" stroke-linejoin="round"/>
<path d="M185.021 75.0576C184.444 75.4018 183.092 78.1485 182.965 78.6883C182.839 79.228 185.505 83.2481 186.084 83.8733C186.662 84.4986 187.328 81.8483 188.722 81.2689" stroke="black" stroke-width="1.3" stroke-linecap="round" stroke-linejoin="round"/>
<path d="M191.047 99.7451L191.116 101.524" stroke="black" stroke-width="1.3" stroke-linecap="round" stroke-linejoin="round"/>
<path d="M190.854 77.408L190.853 77.4071L190.73 77.24L189.405 75.4476C189.23 75.2113 189.28 74.8781 189.517 74.7034C189.752 74.5287 190.085 74.5787 190.261 74.815L191.607 76.6368L191.671 76.7238L191.681 76.7369" stroke="black" stroke-width="1.3" stroke-linecap="round" stroke-linejoin="round"/>
<path d="M189.313 74.8817C189.313 74.8817 188.948 74.4652 189.186 74.2775C189.495 74.0334 189.811 74.593 189.811 74.593" stroke="black" stroke-width="1.3" stroke-linecap="round" stroke-linejoin="round"/>
<path d="M189.304 75.0805C189.053 75.5264 188.756 76.0928 189.47 76.6121C189.868 76.9008 190.236 77.0549 190.479 77.2965C190.671 77.4895 190.782 77.7444 190.525 78.0308" stroke="black" stroke-width="1.3" stroke-linecap="round" stroke-linejoin="round"/>
<path d="M173.579 122.366L173.306 121.135L169.38 103.415C169.38 103.415 169.085 102.452 169.458 101.984C169.832 101.518 170.876 101.547 170.876 101.547H212.218C212.218 101.547 213.045 101.521 213.363 101.923C213.68 102.325 213.488 103.155 213.488 103.155L209.839 120.141L209.772 120.453L209.762 120.497" stroke="black" stroke-width="1.3" stroke-linecap="round" stroke-linejoin="round"/>
<path d="M199.283 124.257H198.513H180.786H180.352" stroke="black" stroke-width="1.3" stroke-linecap="round" stroke-linejoin="round"/>
<path fill-rule="evenodd" clip-rule="evenodd" d="M189.914 113.011C189.914 112.119 190.63 111.393 191.514 111.393C192.399 111.393 193.116 112.119 193.116 113.011C193.116 113.905 192.399 114.629 191.514 114.629C190.63 114.629 189.914 113.905 189.914 113.011Z" fill="white" stroke="black" stroke-width="1.3" stroke-linecap="round" stroke-linejoin="round"/>
<path d="M194.107 73.8048C194.107 73.8048 194.119 75.8798 194.119 76.4794" stroke="black" stroke-width="1.3" stroke-linecap="round" stroke-linejoin="round"/>
<path d="M194.256 75.4143C194.839 75.8514 195.767 77.6576 195.767 78.0017" stroke="black" stroke-width="1.3" stroke-linecap="round" stroke-linejoin="round"/>
<path d="M173.184 84.8195C175.52 86.631 176.712 90.3971 176.997 92.4946" stroke="black" stroke-width="1.3" stroke-linecap="round" stroke-linejoin="round"/>
<path d="M216.676 111.437H224.119" stroke="black" stroke-width="1.3" stroke-linecap="round" stroke-linejoin="round"/>
<path d="M157.49 111.437H166.139" stroke="black" stroke-width="1.3" stroke-linecap="round" stroke-linejoin="round"/>
<path d="M494.837 90.9721C494.525 90.336 494.116 88.6047 493.281 87.7478C492.447 86.8911 492.042 86.7558 491.049 85.6961C490.057 84.6363 489.389 83.4853 488.904 82.9928C488.315 82.3951 487.824 82.188 487.128 81.7709C486.795 81.5712 486.328 81.3176 485.965 81.1705C485.011 80.7845 484.108 81.7543 483.213 81.9595C482.935 82.0232 482.458 82.1962 482.214 81.956C481.756 81.5084 482.963 80.5637 483.21 80.2947C483.544 79.9298 483.965 79.4509 484.418 79.2284C484.788 79.047 485.2 78.9956 485.592 79.0285C486.195 79.0794 486.982 78.9367 487.712 79.1659" stroke="black" stroke-width="1.3" stroke-linecap="round" stroke-linejoin="round"/>
<path d="M487.127 78.9036C486.514 78.2091 486.106 78.4157 485.334 78.9575" stroke="black" stroke-width="1.3" stroke-linecap="round" stroke-linejoin="round"/>
<path d="M482.793 80.3538C482.678 79.5023 483.317 78.8682 483.768 78.2762C484.254 77.6377 484.811 76.8407 485.586 76.5314C486.302 76.2454 487.157 76.5117 487.857 76.6443C488.684 76.8009 489.571 76.9534 490.418 76.9595" stroke="black" stroke-width="1.3" stroke-linecap="round" stroke-linejoin="round"/>
<path d="M487.482 76.4984C488.878 75.9566 490.025 76.2067 491.234 76.4359C492.443 76.6651 492.831 76.8652 493.128 77.0921C494.463 78.1083 495.008 79.9531 495.66 81.4395C496.445 83.2333 498.415 86.0834 499.378 87.785" stroke="black" stroke-width="1.3" stroke-linecap="round" stroke-linejoin="round"/>
<path d="M484.301 77.5936C484.301 77.5936 481.927 80.2001 481.256 81.4232C480.18 83.3833 480.443 84.8008 479.625 86.8671C479.17 88.0181 478.475 89.7448 478.475 89.7448" stroke="black" stroke-width="1.3" stroke-linecap="round" stroke-linejoin="round"/>
<path d="M485.885 81.1833C484.47 82.0468 484.342 83.7749 483.703 84.7327" stroke="black" stroke-width="1.3" stroke-linecap="round" stroke-linejoin="round"/>
<path d="M489.098 83.4377C488.354 83.8453 488.018 84.3009 487.251 85.2603C486.484 86.2195 485.407 86.8242 485.058 87.405C484.342 88.5983 484.013 89.4571 483.582 91.3996" stroke="black" stroke-width="1.3" stroke-linecap="round" stroke-linejoin="round"/>
<path d="M499.507 87.5666C499.006 89.6723 495.899 91.2361 494.428 91.2015" stroke="black" stroke-width="1.3" stroke-linecap="round" stroke-linejoin="round"/>
<path d="M494.589 90.5662C494.002 91.2201 494.679 92.0319 495.684 94.8512" stroke="black" stroke-width="1.3" stroke-linecap="round" stroke-linejoin="round"/>
<path d="M499.258 87.3627C499.776 87.3945 500.194 88.6396 500.978 90.1715" stroke="black" stroke-width="1.3" stroke-linecap="round" stroke-linejoin="round"/>
<path d="M501.028 89.6723C501.306 90.3117 500.264 92.9384 498.505 94.0716C496.823 95.1557 495.065 95.2183 494.168 94.8222C493.714 94.6213 493.919 93.467 494.648 92.4037" stroke="black" stroke-width="1.3" stroke-linecap="round" stroke-linejoin="round"/>
<path d="M478.612 89.3485C478.213 89.5246 477.79 90.4672 476.998 92.2953" stroke="black" stroke-width="1.3" stroke-linecap="round" stroke-linejoin="round"/>
<path d="M483.818 90.9584C484.281 91.6131 483.585 93.0985 482.984 95.4722" stroke="black" stroke-width="1.3" stroke-linecap="round" stroke-linejoin="round"/>
<path d="M478.361 89.7579C479.371 91.1494 482.236 92.2406 483.845 91.4222" stroke="black" stroke-width="1.3" stroke-linecap="round" stroke-linejoin="round"/>
<path d="M477.298 91.3404C476.069 91.8314 477.359 93.3109 478.826 94.2596C480.68 95.4602 486.137 96.7152 483.545 93.9323" stroke="black" stroke-width="1.3" stroke-linecap="round" stroke-linejoin="round"/>
<path d="M476.838 91.7589C476.535 92.3659 475.639 95.575 474.105 99.221" stroke="black" stroke-width="1.3" stroke-linecap="round" stroke-linejoin="round"/>
<path d="M483.209 107.911C484.398 105.856 485.666 102.904 487.015 100.846" stroke="black" stroke-width="1.3" stroke-linecap="round" stroke-linejoin="round"/>
<path d="M484.232 95.1708C484.232 95.1708 483.82 97.752 483.355 100.071C483.167 101.014 482.576 103.604 482.238 105.108" stroke="black" stroke-width="1.3" stroke-linecap="round" stroke-linejoin="round"/>
<path d="M493.99 94.6463C495.036 97.3127 496.306 99.8973 498.301 104.324C500.296 108.75 503.715 114.72 505.773 115.931C508.64 117.617 512.108 115.048 514.414 109.46C516.722 103.872 518.209 93.7201 517.952 87.4164C517.747 82.3924 514.141 80.2708 513.338 79.9317C511.032 78.9577 506.765 77.7522 504.414 76.4621" stroke="black" stroke-width="1.3" stroke-linecap="round" stroke-linejoin="round"/>
<path d="M517.491 96.5929C517.798 102.026 516.619 113.715 516.619 113.715" stroke="black" stroke-width="1.3" stroke-linecap="round" stroke-linejoin="round"/>
<path d="M485.398 92.748C486.425 96.5416 486.815 98.4907 487.277 102.084C487.516 103.94 487.357 110.338 487.585 113.632" stroke="black" stroke-width="1.3" stroke-linecap="round" stroke-linejoin="round"/>
<path d="M500.779 89.5264C501.488 89.443 502.265 92.953 505.547 98.3358C508.827 103.719 510.571 103.719 511.801 106.795" stroke="black" stroke-width="1.3" stroke-linecap="round" stroke-linejoin="round"/>
<path d="M507.34 100.745C507.921 97.6231 508.826 93.2606 509.595 89.1082" stroke="black" stroke-width="1.3" stroke-linecap="round" stroke-linejoin="round"/>
<path d="M511.779 113.959H512.754H521.847H524.016" stroke="black" stroke-width="1.3" stroke-linecap="round" stroke-linejoin="round"/>
<path d="M484.584 114.215H484.772H489.864H503.64" stroke="black" stroke-width="1.3" stroke-linecap="round" stroke-linejoin="round"/>
<path d="M454.076 98.8224L454.771 98.8409L479.561 99.499C479.561 99.499 480.149 99.4847 480.529 99.8306C480.909 100.177 481.08 100.883 481.08 100.883L486.433 122.031C486.433 122.031 487.178 123.307 485.878 123.514C485.481 123.578 482.473 123.506 478.487 123.375" stroke="black" stroke-width="1.3" stroke-linecap="round" stroke-linejoin="round"/>
<path d="M462.516 122.769L462.344 122.763L455.365 122.475" stroke="black" stroke-width="1.3" stroke-linecap="round" stroke-linejoin="round"/>
<path d="M485.217 117.196L496.416 117.562C496.416 117.562 496.655 117.57 496.625 117.803C496.595 118.036 496.297 118.152 496.297 118.152L486.527 122.674" stroke="black" stroke-width="1.3" stroke-linecap="round" stroke-linejoin="round"/>
<path fill-rule="evenodd" clip-rule="evenodd" d="M465.559 111.069C465.335 110.099 465.726 109.18 466.432 109.016C467.14 108.853 467.895 109.506 468.119 110.476C468.344 111.447 467.954 112.365 467.246 112.529C466.54 112.693 465.785 112.04 465.559 111.069Z" fill="white" stroke="black" stroke-width="1.3" stroke-linecap="round" stroke-linejoin="round"/>
<path d="M501.915 74.2004C502.735 75.7036 502.106 79.3507 502.106 81.8953C502.106 84.4399 501.824 88.9384 501.824 90.6246" stroke="black" stroke-width="1.3" stroke-linecap="round" stroke-linejoin="round"/>
<path d="M490.957 85.6701C491.097 89.2995 491.169 97.7445 490.699 103.204C490.309 107.732 489.47 109.266 489.64 113.581" stroke="black" stroke-width="1.3" stroke-linecap="round" stroke-linejoin="round"/>
<path d="M490.549 105.155C492.162 108.997 491.21 110.414 491.535 113.698" stroke="black" stroke-width="1.3" stroke-linecap="round" stroke-linejoin="round"/>
<path d="M501.777 73.7097C503.01 74.7419 503.73 74.9714 504.587 76.8635C505.444 78.7557 507.019 80.6483 507.048 81.2396C507.048 81.2396 504.742 82.3927 504.269 84.0188" stroke="black" stroke-width="1.3" stroke-linecap="round" stroke-linejoin="round"/>
<path d="M502.17 80.9736C502.939 82.1561 503.795 83.5015 504.299 84.078C505.292 85.2127 507.551 83.3093 507.491 84.1667C507.433 85.024 505.127 91.7944 504.21 95.5493" stroke="black" stroke-width="1.3" stroke-linecap="round" stroke-linejoin="round"/>
<path d="M490.266 84.935C489.352 86.8014 487.903 85.6626 487.25 85.3188" stroke="black" stroke-width="1.3" stroke-linecap="round" stroke-linejoin="round"/>
<path d="M486.955 85.7144C487.167 87.1247 488.101 92.6438 488.499 98.0896C488.93 103.973 488.921 109.699 489.575 111.603" stroke="black" stroke-width="1.3" stroke-linecap="round" stroke-linejoin="round"/>
<path d="M501.214 110.008C501.185 110.748 501.188 113.056 501.188 113.797" stroke="black" stroke-width="1.3" stroke-linecap="round" stroke-linejoin="round"/>
<path d="M496.773 101.062C496.773 103.323 497.496 107.044 497.213 109.307C497.034 110.74 496.403 112.402 497.084 113.764" stroke="black" stroke-width="1.3" stroke-linecap="round" stroke-linejoin="round"/>
<path d="M501.978 74.6272C501.382 76.7125 499.792 77.8937 498.364 79.1437C497.772 79.6616 496.405 80.031 496.359 82.6274" stroke="black" stroke-width="1.3" stroke-linecap="round" stroke-linejoin="round"/>
<path d="M497.043 80.441C498.504 80.5223 499.565 83.2172 499.867 83.1741C500.357 83.1041 501.925 79.6489 502.293 77.9817" stroke="black" stroke-width="1.3" stroke-linecap="round" stroke-linejoin="round"/>
<path fill-rule="evenodd" clip-rule="evenodd" d="M124.967 202.928C123.967 202.93 122.98 202.764 122.98 202.764C122.98 202.764 123.442 204.606 124.986 204.683C126.453 204.755 126.982 202.755 126.982 202.755C126.982 202.755 125.968 202.926 124.967 202.928Z" fill="white" stroke="black" stroke-width="1.3" stroke-linecap="round" stroke-linejoin="round"/>
<path d="M125.109 207.339C125.109 207.339 123.85 207.289 122.05 206.094C120.843 205.293 120.418 204.446 120.148 203.905C119.712 203.03 119.423 201.865 119.182 200.784" stroke="black" stroke-width="1.3" stroke-linecap="round" stroke-linejoin="round"/>
<path d="M125.148 207.339C125.148 207.339 126.233 207.356 128.033 206.162C129.241 205.36 129.84 204.446 130.109 203.905C130.429 203.263 130.67 202.465 130.871 201.659" stroke="black" stroke-width="1.3" stroke-linecap="round" stroke-linejoin="round"/>
<path d="M117.797 200.531C118.2 201.188 118.817 201.519 119.241 201.576" stroke="black" stroke-width="1.3" stroke-linecap="round" stroke-linejoin="round"/>
<path d="M125.068 197.767C125.068 197.767 124.589 198.89 124.756 199.588C124.952 200.396 126.081 200.25 125.129 201.345" stroke="black" stroke-width="1.3" stroke-linecap="round" stroke-linejoin="round"/>
<path d="M121.297 195.873C121.297 195.873 122.06 195.302 123.117 195.762" stroke="black" stroke-width="1.3" stroke-linecap="round" stroke-linejoin="round"/>
<path d="M128.672 195.825C128.672 195.825 127.896 195.273 126.85 195.759" stroke="black" stroke-width="1.3" stroke-linecap="round" stroke-linejoin="round"/>
<path fill-rule="evenodd" clip-rule="evenodd" d="M121.074 205.457C121.074 205.457 123.242 207.259 125.194 207.305C126.674 207.34 128.764 205.633 128.764 205.633C128.764 205.633 126.616 208.177 124.676 208.494C122.992 208.768 121.189 207.148 121.189 207.148L121.074 205.457Z" fill="black"/>
<path d="M123.006 190.924C122.935 190.464 122.925 190.036 122.168 189.199" stroke="black" stroke-width="1.3" stroke-linecap="round" stroke-linejoin="round"/>
<path d="M122.447 192.593C121.01 192.449 120.391 193.972 120.078 196.256C119.898 197.567 119.366 198.645 118.689 199.461C118.184 200.069 117.599 200.529 117.02 200.83" stroke="black" stroke-width="1.3" stroke-linecap="round" stroke-linejoin="round"/>
<path d="M121.118 187.824C118.401 188.213 116.837 191.184 116.004 195.691" stroke="black" stroke-width="1.3" stroke-linecap="round" stroke-linejoin="round"/>
<path d="M122.594 187.262C123.955 185.753 127.135 186.331 128.804 187.206C132.009 188.885 133.096 191.429 133.749 193.771C134.429 196.21 134.766 199.12 134.85 200.343C134.976 202.159 134.774 203.74 135.688 206.353C136.603 208.967 138.66 210.099 138.359 212.705" stroke="black" stroke-width="1.3" stroke-linecap="round" stroke-linejoin="round"/>
<path d="M115.464 197.336C114.644 200.632 113.345 203.789 114.008 206.609C114.672 209.431 113.844 210.036 113.554 210.499C113.137 211.168 112.554 211.277 112.352 212.354" stroke="black" stroke-width="1.3" stroke-linecap="round" stroke-linejoin="round"/>
<path d="M121.032 205.466C121.032 205.466 121.173 207.69 120.947 208.723C120.928 208.808 120.902 208.891 120.871 208.971" stroke="black" stroke-width="1.3" stroke-linecap="round" stroke-linejoin="round"/>
<path d="M128.993 205.472C128.993 205.472 128.852 207.695 129.078 208.729C129.118 208.914 129.182 209.215 129.182 209.215" stroke="black" stroke-width="1.3" stroke-linecap="round" stroke-linejoin="round"/>
<path fill-rule="evenodd" clip-rule="evenodd" d="M121.686 198.617C121.686 198.202 121.951 197.864 122.279 197.864C122.607 197.864 122.873 198.202 122.873 198.617C122.873 199.034 122.607 199.371 122.279 199.371C121.951 199.371 121.686 199.034 121.686 198.617Z" fill="black"/>
<path fill-rule="evenodd" clip-rule="evenodd" d="M127.004 198.617C127.004 198.201 127.269 197.863 127.597 197.863C127.926 197.863 128.191 198.201 128.191 198.617C128.191 199.034 127.926 199.371 127.597 199.371C127.269 199.371 127.004 199.034 127.004 198.617Z" fill="black"/>
<path d="M123.799 192.328C124.711 191.609 125.354 191.997 125.79 192.424C126.226 192.85 126.53 193.607 127.105 194.421C127.627 195.157 128.534 195.591 129.147 196.256C129.701 196.858 130.323 197.772 130.427 199.498C130.532 201.222 130.924 202.503 132.571 202.999" stroke="black" stroke-width="1.3" stroke-linecap="round" stroke-linejoin="round"/>
<path d="M138.619 218.846C137.674 221.99 137.975 223.639 138.081 225.474C138.182 227.212 137.849 228.362 137.514 229.783" stroke="black" stroke-width="1.3" stroke-linecap="round" stroke-linejoin="round"/>
<path d="M333.383 70.5144C333.383 70.5144 334.168 70.2935 335.314 69.8205C336.46 69.3477 336.997 69.3229 338.158 69.3043C338.724 69.2952 340.01 69.5049 340.17 68.8831C340.33 68.2613 339.066 68.1061 338.042 67.8129C337.019 67.5198 336.747 67.2354 334.476 67.7931" stroke="black" stroke-width="1.3" stroke-linecap="round" stroke-linejoin="round"/>
<path d="M310.999 57.5105C310.999 57.5105 310.858 64.5544 311.281 66.9492C311.704 69.3441 313.191 70.0482 316.583 70.5279C319.276 70.9089 326.399 70.8955 329.041 71.1929C331.683 71.4904 332.967 72.1366 334.902 71.8165C336.838 71.4965 337.25 70.8987 339.246 70.6607C341.421 70.4012 341.733 70.4695 342.698 70.3388C344.019 70.1599 343.742 69.0986 342.55 68.8128" stroke="black" stroke-width="1.3" stroke-linecap="round" stroke-linejoin="round"/>
<path d="M326.493 26.9644C326.416 31.4736 324.391 32.4741 321.289 34.053C318.441 35.5027 315.547 36.4067 313.411 38.7413C312.345 39.9062 311.749 42.0097 311.409 44.7619C311.067 47.5256 310.24 54.1964 310.166 56.563C310.134 57.5992 313.845 58.8822 316.286 58.6832C318.176 58.5291 319.513 58.2013 320.143 57.7646C320.771 57.3277 319.961 54.3784 320.688 48.7713" stroke="black" stroke-width="1.3" stroke-linecap="round" stroke-linejoin="round"/>
<path d="M340.235 68.8349C340.235 68.8349 341.487 69.0019 341.976 68.9652C342.68 68.9121 342.693 68.3558 342.194 67.8762C341.694 67.3965 340.719 67.1652 339.386 66.6667C338.052 66.1682 337.759 65.6022 335.824 66.3686" stroke="black" stroke-width="1.3" stroke-linecap="round" stroke-linejoin="round"/>
<path d="M342.457 67.9924C342.726 68.0771 344.394 68.6291 344.115 67.666C343.974 67.1826 342.591 66.5169 342.216 66.3172C341.213 65.7804 339.861 65.1787 338.701 65.3635C337.61 65.5373 336.572 66.1558 335.512 66.4633C333.314 67.1012 330.558 67.1504 326.074 66.1041C323.921 65.6015 322.296 64.9286 320.344 64.1615C319.742 63.9251 318.139 63.1717 316.648 63.5975" stroke="black" stroke-width="1.3" stroke-linecap="round" stroke-linejoin="round"/>
<path d="M343.44 43.4091C343.168 46.0957 343.073 47.6723 343.5 50.4025C343.75 52.0057 343.534 53.3192 343.169 54.615C343.057 55.0149 341.677 60.778 341.997 64.3997" stroke="black" stroke-width="1.3" stroke-linecap="round" stroke-linejoin="round"/>
<path d="M342.719 57.8623C342.902 58.349 343.825 63.448 344.683 64.7478" stroke="black" stroke-width="1.3" stroke-linecap="round" stroke-linejoin="round"/>
<path d="M343.002 57.693C344.96 57.9773 346.621 57.1684 346.621 57.1684" stroke="black" stroke-width="1.3" stroke-linecap="round" stroke-linejoin="round"/>
<path d="M319.106 58.2888C319.065 59.106 318.911 62.6851 318.863 63.3846" stroke="black" stroke-width="1.3" stroke-linecap="round" stroke-linejoin="round"/>
<path d="M374.616 68.3328L374.868 67.4662L378.844 53.7904C378.844 53.7904 379.067 52.9504 378.776 52.5803C378.485 52.2103 377.68 52.3103 377.68 52.3103L348.779 53.3682C348.779 53.3682 348.255 53.3335 347.939 53.6072C347.622 53.881 347.512 54.4633 347.512 54.4633L342.241 75.9476C342.241 75.9476 342.183 76.2128 342.274 76.3477C342.366 76.4827 342.607 76.4878 342.607 76.4878L366.898 75.0823" stroke="black" stroke-width="1.3" stroke-linecap="round" stroke-linejoin="round"/>
<path d="M331.119 71.648L331.385 71.7453L342.179 75.691" stroke="black" stroke-width="1.3" stroke-linecap="round" stroke-linejoin="round"/>
<path d="M336.62 34.3865C336.466 36.3204 334.801 40.5404 331.724 39.9629C329.712 39.5856 327.096 37.3665 323.965 32.985" stroke="black" stroke-width="1.3" stroke-linecap="round" stroke-linejoin="round"/>
<path d="M330.432 66.8201C332.016 66.657 333.856 66.501 335.79 66.3645" stroke="black" stroke-width="1.3" stroke-linecap="round" stroke-linejoin="round"/>
<path d="M343.635 65.9524L343.653 65.9518L344.595 65.9233" stroke="black" stroke-width="1.3" stroke-linecap="round" stroke-linejoin="round"/>
<path d="M315.955 39.9603C318.031 40.8341 319.05 42.5454 320.069 45.5309" stroke="black" stroke-width="1.3" stroke-linecap="round" stroke-linejoin="round"/>
<path d="M340.279 65.3424C340.628 65.0523 341.252 64.5092 341.974 64.7592C342.307 64.8745 343.585 65.8914 344.323 66.5857C344.347 66.6088 344.371 66.6316 344.395 66.6541" stroke="black" stroke-width="1.3" stroke-linecap="round" stroke-linejoin="round"/>
<path fill-rule="evenodd" clip-rule="evenodd" d="M361.62 64.1925C361.884 63.4895 362.572 63.0977 363.155 63.3175C363.738 63.5373 363.995 64.2853 363.731 64.9882C363.466 65.6913 362.778 66.083 362.195 65.8632C361.612 65.6434 361.355 64.8954 361.62 64.1925Z" fill="white" stroke="black" stroke-width="1.3" stroke-linecap="round" stroke-linejoin="round"/>
<path d="M185.139 73.9673C185.139 73.9673 185.41 76.1292 185.14 77.2371C185.128 77.2873 185.113 77.3366 185.098 77.385" stroke="black" stroke-width="1.3" stroke-linecap="round" stroke-linejoin="round"/>
<path d="M189.56 76.3265C189.56 76.3265 188.21 76.2697 186.279 74.9151C184.984 74.0067 184.529 73.0459 184.24 72.4325C183.772 71.4401 183.44 70.2249 183.182 68.9988" stroke="black" stroke-width="1.3" stroke-linecap="round" stroke-linejoin="round"/>
<path d="M190.98 75.9626C191.449 75.7651 192.027 75.4606 192.695 74.9911C193.99 74.0827 194.633 73.0459 194.922 72.4324C195.389 71.4401 195.7 70.118 195.959 68.8919" stroke="black" stroke-width="1.3" stroke-linecap="round" stroke-linejoin="round"/>
<path d="M183.037 65.8783C181.769 65.5003 181.068 66.6204 181.39 67.8493C181.711 69.0736 182.668 69.6618 183.264 69.7404" stroke="black" stroke-width="1.3" stroke-linecap="round" stroke-linejoin="round"/>
<path d="M196.074 65.8939C197.344 65.5159 198.043 66.6361 197.721 67.8651C197.401 69.0893 196.444 69.6776 195.848 69.756" stroke="black" stroke-width="1.3" stroke-linecap="round" stroke-linejoin="round"/>
<path d="M189.724 65.7732C189.532 66.1562 189.094 67.2822 189.275 68.0308C189.484 68.898 190.695 68.7406 189.675 69.9152" stroke="black" stroke-width="1.3" stroke-linecap="round" stroke-linejoin="round"/>
<path d="M185.391 64.1815C185.391 64.1815 186.208 63.5687 187.343 64.0619" stroke="black" stroke-width="1.3" stroke-linecap="round" stroke-linejoin="round"/>
<path d="M193.461 64.1829C193.461 64.1829 192.629 63.5904 191.506 64.1114" stroke="black" stroke-width="1.3" stroke-linecap="round" stroke-linejoin="round"/>
<path fill-rule="evenodd" clip-rule="evenodd" d="M185.23 74.2033L185.356 76.1118C185.356 76.1118 187.292 77.9548 189.097 77.6436C191.178 77.2851 193.913 74.2591 193.913 74.2591C193.913 74.2591 191.238 76.327 189.65 76.2876C187.556 76.2355 185.23 74.2033 185.23 74.2033Z" fill="black"/>
<path d="M198.52 60.0724C197.838 59.46 197.917 58.7207 196.981 57.082C196.055 55.4627 194.798 54.7025 193.391 54.9472" stroke="black" stroke-width="1.3" stroke-linecap="round" stroke-linejoin="round"/>
<path d="M197.068 65.7158C197.068 65.7158 198.251 62.4437 197.682 60.8242" stroke="black" stroke-width="1.3" stroke-linecap="round" stroke-linejoin="round"/>
<path d="M192.205 54.5528C190.4 52.1871 187.293 53.1294 184.548 55.1938C183.691 55.8381 182.58 56.0058 182.182 55.9267" stroke="black" stroke-width="1.3" stroke-linecap="round" stroke-linejoin="round"/>
<path d="M196.052 64.5052C192.977 64.8382 194.259 59.1938 191.594 59.4264" stroke="black" stroke-width="1.3" stroke-linecap="round" stroke-linejoin="round"/>
<path d="M189.401 59.2996C186.855 57.7674 187.793 64.5967 183.445 64.3656" stroke="black" stroke-width="1.3" stroke-linecap="round" stroke-linejoin="round"/>
<path d="M182.854 57.3489C180.131 59.6002 181.291 63.7181 181.993 65.8359" stroke="black" stroke-width="1.3" stroke-linecap="round" stroke-linejoin="round"/>
<path fill-rule="evenodd" clip-rule="evenodd" d="M185.805 66.6126C185.805 66.1592 186.095 65.7916 186.452 65.7916C186.809 65.7916 187.098 66.1592 187.098 66.6126C187.098 67.0661 186.809 67.4337 186.452 67.4337C186.095 67.4337 185.805 67.0661 185.805 66.6126Z" fill="black"/>
<path fill-rule="evenodd" clip-rule="evenodd" d="M191.805 66.629C191.805 66.1766 192.093 65.8098 192.45 65.8098C192.806 65.8098 193.095 66.1766 193.095 66.629C193.095 67.0814 192.806 67.4482 192.45 67.4482C192.093 67.4482 191.805 67.0814 191.805 66.629Z" fill="black"/>
<path fill-rule="evenodd" clip-rule="evenodd" d="M189.516 71.3675C188.38 71.3699 187.262 71.1805 187.262 71.1805C187.262 71.1805 187.786 73.2712 189.537 73.3575C191.202 73.4396 191.801 71.1704 191.801 71.1704C191.801 71.1704 190.651 71.3649 189.516 71.3675Z" fill="white" stroke="black" stroke-width="1.3" stroke-linecap="round" stroke-linejoin="round"/>
<path d="M339.751 19.6802C339.729 19.9549 339.689 20.2426 339.625 20.5027C339.442 21.2336 339.277 21.9177 339.184 22.6781C339.065 23.6481 339.132 24.1445 338.927 25.6299C338.794 26.6009 338.09 27.8729 336.982 29.1253C336.427 29.7519 335.663 30.4195 335.044 30.676C333.876 31.1605 331.483 29.9981 329.949 28.9225C328.791 28.1109 328.447 27.5732 327.877 26.6072" stroke="black" stroke-width="1.3" stroke-linecap="round" stroke-linejoin="round"/>
<path fill-rule="evenodd" clip-rule="evenodd" d="M334.15 30.7535C334.15 30.7535 332.167 30.3012 330.757 29.5326C329.451 28.8203 328.029 26.9842 328.029 26.9842C328.029 26.9842 329.302 29.9558 330.711 31.0221C332.04 32.0276 334.108 31.9704 334.108 31.9704L334.15 30.7535Z" fill="black"/>
<path d="M334.553 30.823C334.553 30.823 333.966 32.5746 334.69 33.1352C335.972 34.1284 337.336 34.7018 339.558 35.8282C341.544 36.8347 343.748 37.6236 345.026 40.099C346.288 42.5418 348.237 51.2766 348.507 52.6664" stroke="black" stroke-width="1.3" stroke-linecap="round" stroke-linejoin="round"/>
<path d="M336.551 20.8041C336.152 21.4779 335.855 22.2777 335.952 23.048C336.064 23.9404 337.293 23.9196 336.14 24.9808" stroke="black" stroke-width="1.3" stroke-linecap="round" stroke-linejoin="round"/>
<path d="M332.533 18.7204C332.533 18.7204 333.473 18.2014 334.624 18.8271" stroke="black" stroke-width="1.3" stroke-linecap="round" stroke-linejoin="round"/>
<path d="M339.675 19.3006C339.675 19.3006 338.987 18.7257 337.967 19.1" stroke="black" stroke-width="1.3" stroke-linecap="round" stroke-linejoin="round"/>
<path fill-rule="evenodd" clip-rule="evenodd" d="M334.968 26.3107C333.995 26.2004 333.01 25.8687 333.01 25.8687C333.01 25.8687 333.193 27.8541 334.642 28.1103C336.227 28.39 336.902 26.3105 336.902 26.3105C336.902 26.3105 335.94 26.4212 334.968 26.3107Z" fill="white" stroke="black" stroke-width="1.3" stroke-linecap="round" stroke-linejoin="round"/>
<path d="M338.398 16.061C340.126 16.6593 339.078 18.8874 341.367 22.5822C342.014 23.6281 343.257 24.4973 343.077 26.0644C342.898 27.6316 340.772 27.9768 341.33 29.6215" stroke="black" stroke-width="1.3" stroke-linecap="round" stroke-linejoin="round"/>
<path d="M337.458 15.228C337.165 14.9048 336.839 14.7052 336.498 14.6067C335.412 14.2925 334.315 14.8076 333.351 16.8133C332.387 18.8189 332.081 19.5448 330.85 20.9786C328.699 23.4835 325.274 23.2834 324.896 26.1199" stroke="black" stroke-width="1.3" stroke-linecap="round" stroke-linejoin="round"/>
<path d="M334.652 9.70453C332.765 8.86478 329.912 8.44479 327.437 10.1482C325.327 11.6008 324.41 13.0986 322.51 16.2971C321.214 18.4802 319.277 21.1033 319.729 23.3011C320.197 25.5804 321.763 26.5443 320.263 27.7335" stroke="black" stroke-width="1.3" stroke-linecap="round" stroke-linejoin="round"/>
<path d="M336.307 10.996C338.331 10.8205 339.215 11.6605 340.237 13.4024C341.06 14.8074 342.564 19.8034 342.029 22.8666" stroke="black" stroke-width="1.3" stroke-linecap="round" stroke-linejoin="round"/>
<path d="M339.959 28.2341C339.752 30.2313 338.391 30.82 337.066 30.8012" stroke="black" stroke-width="1.3" stroke-linecap="round" stroke-linejoin="round"/>
<path d="M325.528 29.8576C323.782 29.8412 322.297 28.3191 322.359 26.3895" stroke="black" stroke-width="1.3" stroke-linecap="round" stroke-linejoin="round"/>
<path fill-rule="evenodd" clip-rule="evenodd" d="M338.449 22.1283C338.565 21.6798 338.394 21.2486 338.068 21.1651C337.743 21.0817 337.385 21.3775 337.27 21.826C337.156 22.2745 337.327 22.7057 337.652 22.7892C337.977 22.8727 338.335 22.5767 338.449 22.1283Z" fill="black"/>
<path fill-rule="evenodd" clip-rule="evenodd" d="M333.795 21.6645C333.918 21.2293 333.74 20.7983 333.396 20.7018C333.053 20.6053 332.677 20.88 332.555 21.3152C332.431 21.7504 332.61 22.1815 332.953 22.2779C333.295 22.3744 333.673 22.0998 333.795 21.6645Z" fill="black"/>
<path d="M303.834 67.506L311.248 67.4359" stroke="black" stroke-width="1.3" stroke-linecap="round" stroke-linejoin="round"/>
<path d="M487.622 61.8549C486.729 63.6343 487.195 65.8486 487.312 66.3978C487.479 67.1911 487.72 67.9116 487.841 68.7274C487.995 69.7684 487.938 70.3042 488.197 71.8975C488.366 72.9391 489.147 74.2901 490.359 75.6095C490.446 75.7037 490.915 76.2108 491.01 76.3052" stroke="black" stroke-width="1.3" stroke-linecap="round" stroke-linejoin="round"/>
<path d="M493.445 77.3116C494.769 77.1473 496.565 76.1448 497.807 75.2124C499.01 74.3094 499.361 73.722 499.936 72.668" stroke="black" stroke-width="1.3" stroke-linecap="round" stroke-linejoin="round"/>
<path d="M500.365 66.0769C502.048 64.8522 503.339 66.1949 503.079 67.7211C502.855 69.0389 501.918 69.5974 501.017 69.8897" stroke="black" stroke-width="1.3" stroke-linecap="round" stroke-linejoin="round"/>
<path fill-rule="evenodd" clip-rule="evenodd" d="M493.664 77.5885C493.664 77.5885 494.969 77.3259 496.443 76.4737C497.807 75.6838 499.75 73.4484 499.75 73.4484C499.75 73.4484 498.577 76.5918 497.13 77.7807C495.308 79.2761 494.198 78.9227 494.198 78.9227L493.664 77.5885Z" fill="black"/>
<path d="M501.293 70.1201C501.293 70.1201 501.525 73.4911 501.959 74.4827" stroke="black" stroke-width="1.3" stroke-linecap="round" stroke-linejoin="round"/>
<path d="M490.604 66.5173C490.604 66.5173 491.436 67.8003 491.356 68.6194C491.254 69.68 490.043 69.9267 491.21 70.6726" stroke="black" stroke-width="1.3" stroke-linecap="round" stroke-linejoin="round"/>
<path d="M494.831 64.1565C494.831 64.1565 493.685 63.6462 492.297 64.3598" stroke="black" stroke-width="1.3" stroke-linecap="round" stroke-linejoin="round"/>
<path d="M487.223 65.0845C487.223 65.0845 487.937 64.4569 489.027 64.8261" stroke="black" stroke-width="1.3" stroke-linecap="round" stroke-linejoin="round"/>
<path d="M503.223 66.7143C503.223 66.7143 504.059 65.6697 503.976 63.0375" stroke="black" stroke-width="1.3" stroke-linecap="round" stroke-linejoin="round"/>
<path d="M503.857 61.1993C504.169 58.8751 502.658 57.1682 501.27 56.6984" stroke="black" stroke-width="1.3" stroke-linecap="round" stroke-linejoin="round"/>
<path d="M492.83 54.9684C491.102 55.0125 490.248 55.508 489.385 55.9495C488.06 56.6285 487.206 58.0466 485.844 58.2356" stroke="black" stroke-width="1.3" stroke-linecap="round" stroke-linejoin="round"/>
<path d="M500.393 56.3949C499.876 55.387 498.534 54.8095 497.383 54.6933C496.027 54.5564 494.624 54.8855 493.428 54.3759" stroke="black" stroke-width="1.3" stroke-linecap="round" stroke-linejoin="round"/>
<path d="M486.263 59.297C485.016 60.7168 484.539 62.9577 486.905 64.0166" stroke="black" stroke-width="1.3" stroke-linecap="round" stroke-linejoin="round"/>
<path d="M492.037 60.5533C493.848 60.1735 494.827 61.7287 496.275 63.2506C497.335 64.3655 498.544 64.9917 499.943 64.3163" stroke="black" stroke-width="1.3" stroke-linecap="round" stroke-linejoin="round"/>
<path d="M489.977 60.4599C490.019 59.5533 490.526 58.616 491.595 58.6895" stroke="black" stroke-width="1.3" stroke-linecap="round" stroke-linejoin="round"/>
<path fill-rule="evenodd" clip-rule="evenodd" d="M488.541 67.991C488.401 67.5465 488.55 67.104 488.872 67.0026C489.195 66.9012 489.569 67.1794 489.709 67.6239C489.849 68.0684 489.7 68.511 489.378 68.6123C489.055 68.7137 488.681 68.4356 488.541 67.991Z" fill="black"/>
<path fill-rule="evenodd" clip-rule="evenodd" d="M493.216 67.4692C493.105 67.0204 493.303 66.5862 493.656 66.4994C494.009 66.4126 494.386 66.7058 494.496 67.1546C494.606 67.6033 494.409 68.0375 494.056 68.1244C493.702 68.2112 493.326 67.9179 493.216 67.4692Z" fill="black"/>
<path fill-rule="evenodd" clip-rule="evenodd" d="M492.212 72.4213C493.24 72.2783 494.275 71.9004 494.275 71.9004C494.275 71.9004 494.134 74.0093 492.605 74.3196C490.934 74.6585 490.162 72.4728 490.162 72.4728C490.162 72.4728 491.184 72.5645 492.212 72.4213Z" fill="white" stroke="black" stroke-width="1.3" stroke-linecap="round" stroke-linejoin="round"/>
<path fill-rule="evenodd" clip-rule="evenodd" d="M536.806 202.096C537.905 202.115 538.991 201.948 538.991 201.948C538.991 201.948 538.319 204.116 536.758 204.022C535.034 203.918 534.598 201.873 534.598 201.873C534.598 201.873 535.708 202.079 536.806 202.096Z" fill="white" stroke="black" stroke-width="1.3" stroke-linecap="round" stroke-linejoin="round"/>
<path d="M536.846 206.78C537.433 206.84 538.667 206.605 540.486 205.232C541.705 204.312 542.128 203.383 542.377 202.797C542.779 201.849 543.01 200.603 543.194 199.449" stroke="black" stroke-width="1.3" stroke-linecap="round" stroke-linejoin="round"/>
<path d="M536.845 206.78C536.845 206.78 535.499 206.611 534.11 205.492C533.004 204.601 532.262 203.439 531.978 202.669C531.692 201.899 531.498 200.966 531.337 199.454C531.267 198.794 531.119 196.928 531.045 196.044" stroke="black" stroke-width="1.3" stroke-linecap="round" stroke-linejoin="round"/>
<path d="M544.636 199.092C544.254 199.812 543.626 200.2 543.184 200.285" stroke="black" stroke-width="1.3" stroke-linecap="round" stroke-linejoin="round"/>
<path d="M536.43 196.897C536.43 196.897 536.966 197.88 536.832 198.626C536.679 199.49 535.481 199.408 536.552 200.499" stroke="black" stroke-width="1.3" stroke-linecap="round" stroke-linejoin="round"/>
<path d="M540.503 195.377C540.503 195.377 539.714 194.754 538.586 195.211" stroke="black" stroke-width="1.3" stroke-linecap="round" stroke-linejoin="round"/>
<path d="M533.033 195.327C533.033 195.327 533.853 194.745 534.955 195.258" stroke="black" stroke-width="1.3" stroke-linecap="round" stroke-linejoin="round"/>
<path fill-rule="evenodd" clip-rule="evenodd" d="M539.95 197.708C539.93 197.297 539.656 196.976 539.339 196.99C539.021 197.005 538.78 197.35 538.8 197.761C538.821 198.171 539.095 198.492 539.413 198.477C539.731 198.463 539.972 198.117 539.95 197.708Z" fill="black"/>
<path fill-rule="evenodd" clip-rule="evenodd" d="M541.248 204.676C541.248 204.676 539.247 206.472 537.331 206.79C535.415 207.109 533.891 205.336 533.891 205.336L534.016 207.122C534.016 207.122 536.315 208.564 538.005 207.624C539.695 206.686 541.248 204.676 541.248 204.676Z" fill="black"/>
<path fill-rule="evenodd" clip-rule="evenodd" d="M534.597 197.587C534.576 197.176 534.302 196.855 533.984 196.869C533.666 196.884 533.425 197.229 533.447 197.639C533.467 198.05 533.741 198.371 534.058 198.356C534.376 198.342 534.617 197.996 534.597 197.587Z" fill="black"/>
<path fill-rule="evenodd" clip-rule="evenodd" d="M451.998 87.7791C451.998 66.5603 470.777 49.3589 493.94 49.3589C517.105 49.3589 535.883 66.5603 535.883 87.7791C535.883 108.998 517.105 126.2 493.94 126.2C484.902 126.2 476.532 123.581 469.684 119.127L453.305 127.909L459.783 110.08C454.881 103.792 451.998 96.0941 451.998 87.7791Z" stroke="black" stroke-width="1.3" stroke-linecap="round" stroke-linejoin="round"/>
<path fill-rule="evenodd" clip-rule="evenodd" d="M495.254 217.007C495.254 195.692 514.001 178.412 537.126 178.412C560.252 178.412 578.998 195.692 578.998 217.007C578.998 238.323 560.252 255.602 537.126 255.602C524.398 255.602 512.997 250.368 505.317 242.107L486.676 242.267L498.601 232.153C496.447 227.503 495.254 222.384 495.254 217.007Z" stroke="black" stroke-width="1.3" stroke-linecap="round" stroke-linejoin="round"/>
<path fill-rule="evenodd" clip-rule="evenodd" d="M165.744 219.004C165.744 197.688 146.998 180.408 123.872 180.408C100.747 180.408 82 197.688 82 219.004C82 240.32 100.747 257.599 123.872 257.599C136.6 257.599 148.002 252.364 155.681 244.104L174.224 243.905L162.397 234.15C164.551 229.5 165.744 224.379 165.744 219.004Z" stroke="black" stroke-width="1.3" stroke-linecap="round" stroke-linejoin="round"/>
<path fill-rule="evenodd" clip-rule="evenodd" d="M231.548 86.8581C231.548 65.6391 212.769 48.4379 189.605 48.4379C166.441 48.4379 147.662 65.6391 147.662 86.8581C147.662 108.076 166.441 125.278 189.605 125.278C198.643 125.278 207.014 122.659 213.861 118.205L230.24 126.988L223.763 109.159C228.664 102.872 231.548 95.173 231.548 86.8581Z" stroke="black" stroke-width="1.3" stroke-linecap="round" stroke-linejoin="round"/>
<path fill-rule="evenodd" clip-rule="evenodd" d="M294.52 42.3783C294.52 19.5478 314.695 1.04013 339.582 1.04013C364.47 1.04013 384.645 19.5478 384.645 42.3783C384.645 57.3342 375.988 70.435 363.018 77.6931L348.758 100.755L348.799 82.851C345.824 83.4182 342.741 83.7164 339.582 83.7164C314.695 83.7164 294.52 65.2087 294.52 42.3783Z" stroke="black" stroke-width="1.3" stroke-linecap="round" stroke-linejoin="round"/>
<path d="M329.354 113.717C338.508 114.196 345.781 121.61 345.781 130.686C345.781 138.01 341.046 144.251 334.407 146.639" stroke="black" stroke-width="1.3" stroke-linecap="round" stroke-linejoin="round"/>
<path d="M327.246 147.642C318.195 147.056 311.039 139.689 311.039 130.686C311.039 123.146 316.059 116.753 323.007 114.531" stroke="black" stroke-width="1.3" stroke-linecap="round" stroke-linejoin="round"/>
<path fill-rule="evenodd" clip-rule="evenodd" d="M327.316 145.09L332.296 147.738L327.316 150.284V145.09Z" fill="black"/>
<path fill-rule="evenodd" clip-rule="evenodd" d="M330.143 111.366L325.164 114.013L330.143 116.558V111.366Z" fill="black"/>
<path fill-rule="evenodd" clip-rule="evenodd" d="M320.945 124.768C320.865 124.587 320.757 124.436 320.62 124.315C320.484 124.194 320.346 124.123 320.205 124.103C319.76 124.103 319.357 124.222 318.994 124.458C318.632 124.696 318.299 124.975 317.997 125.298C317.856 125.399 317.704 125.449 317.543 125.449C317.372 125.449 317.233 125.391 317.127 125.276C317.021 125.159 316.969 125.01 316.969 124.829C316.969 124.668 317.014 124.512 317.104 124.361C317.296 124.159 317.503 123.96 317.725 123.763C317.946 123.567 318.184 123.392 318.436 123.241C318.688 123.09 318.946 122.969 319.214 122.878C319.482 122.787 319.756 122.743 320.038 122.743C320.361 122.743 320.663 122.81 320.945 122.946C321.227 123.082 321.473 123.273 321.679 123.521C321.886 123.768 322.049 124.063 322.17 124.405C322.291 124.748 322.352 125.121 322.352 125.524C322.352 125.655 322.337 125.792 322.307 125.933C322.196 126.396 322.027 126.775 321.8 127.067C321.573 127.359 321.321 127.609 321.044 127.815C320.767 128.022 320.479 128.209 320.181 128.375C319.885 128.542 319.607 128.726 319.351 128.927C319.093 129.129 318.869 129.373 318.678 129.661C318.486 129.948 318.36 130.313 318.299 130.757H321.172C321.293 130.757 321.384 130.739 321.445 130.704C321.505 130.668 321.551 130.641 321.581 130.621C321.601 130.601 321.654 130.541 321.739 130.44C321.825 130.338 321.888 130.278 321.928 130.258C321.979 130.227 322.037 130.207 322.102 130.197C322.168 130.187 322.226 130.182 322.277 130.182C322.458 130.182 322.604 130.245 322.714 130.372C322.825 130.497 322.881 130.646 322.881 130.817C322.881 130.928 322.869 131.014 322.843 131.075C322.818 131.135 322.795 131.176 322.775 131.196C322.583 131.468 322.359 131.687 322.102 131.853C321.845 132.02 321.551 132.103 321.217 132.103H317.618C317.225 132.063 317.004 131.825 316.953 131.392C316.993 131.059 317.044 130.734 317.104 130.416C317.165 130.1 317.251 129.792 317.362 129.494C317.473 129.197 317.614 128.919 317.785 128.663C317.956 128.405 318.174 128.171 318.436 127.96C318.667 127.778 318.934 127.607 319.236 127.446C319.539 127.283 319.826 127.105 320.099 126.908C320.371 126.712 320.602 126.483 320.794 126.221C320.985 125.959 321.082 125.641 321.082 125.268C321.082 125.167 321.062 125.061 321.021 124.95C320.981 124.839 320.955 124.778 320.945 124.768Z" fill="black"/>
<path fill-rule="evenodd" clip-rule="evenodd" d="M328.674 131.77C328.664 132.002 328.595 132.179 328.469 132.3C328.343 132.421 328.199 132.481 328.038 132.481C327.897 132.481 327.768 132.428 327.653 132.322C327.536 132.216 327.463 132.047 327.433 131.815V130.137C326.859 130.126 326.292 130.12 325.732 130.114C325.172 130.11 324.646 130.102 324.152 130.092C323.718 130.041 323.502 129.824 323.502 129.441C323.502 129.391 323.512 129.326 323.532 129.245C324.086 128.246 324.646 127.266 325.21 126.304C325.775 125.341 326.339 124.365 326.903 123.378C326.984 123.246 327.078 123.15 327.183 123.09C327.29 123.029 327.398 122.999 327.509 122.999C327.65 122.999 327.784 123.055 327.909 123.166C328.036 123.277 328.098 123.428 328.098 123.619C328.098 123.71 328.068 123.815 328.008 123.936C327.534 124.754 327.062 125.57 326.594 126.386C326.125 127.204 325.654 128.02 325.18 128.836C325.523 128.847 325.883 128.854 326.262 128.859C326.639 128.864 327.03 128.871 327.433 128.881V127.204C327.483 127.001 327.562 126.853 327.667 126.757C327.773 126.662 327.897 126.614 328.038 126.614C328.179 126.614 328.308 126.656 328.424 126.742C328.539 126.828 328.622 126.966 328.674 127.158V128.897H329.565C329.767 128.967 329.913 129.058 330.004 129.169C330.095 129.28 330.14 129.401 330.14 129.532C330.14 129.673 330.087 129.802 329.982 129.918C329.875 130.034 329.722 130.116 329.52 130.167C329.389 130.167 329.253 130.167 329.112 130.167C328.971 130.167 328.825 130.162 328.674 130.152V131.77Z" fill="black"/>
<path fill-rule="evenodd" clip-rule="evenodd" d="M337.185 139.158C337.12 139.313 337.038 139.427 336.938 139.5C336.838 139.572 336.734 139.609 336.624 139.609C336.497 139.609 336.378 139.559 336.27 139.459C336.16 139.359 336.096 139.213 336.077 139.021C336.133 138.466 336.237 137.884 336.392 137.273C336.547 136.664 336.738 136.063 336.966 135.471C337.194 134.879 337.457 134.308 337.758 133.758C338.059 133.207 338.376 132.713 338.714 132.276H334.808C334.607 132.248 334.459 132.18 334.364 132.071C334.268 131.962 334.221 131.843 334.221 131.715C334.221 131.579 334.273 131.454 334.377 131.34C334.483 131.227 334.639 131.165 334.849 131.156H339.943C340.262 131.238 340.421 131.42 340.421 131.702C340.421 131.784 340.398 131.884 340.353 132.003C340.225 132.157 340.1 132.31 339.976 132.461C339.854 132.611 339.733 132.767 339.614 132.931C339.306 133.378 339.014 133.851 338.74 134.352C338.467 134.853 338.224 135.367 338.011 135.894C337.797 136.423 337.619 136.963 337.478 137.513C337.337 138.064 337.239 138.613 337.185 139.158Z" fill="black"/>
<path fill-rule="evenodd" clip-rule="evenodd" d="M331.304 136.136C331.292 136.15 331.28 136.166 331.269 136.186C331.257 136.206 331.244 136.222 331.232 136.235C331.105 136.376 330.968 136.449 330.821 136.456C330.675 136.463 330.551 136.421 330.452 136.33C330.298 136.19 330.237 135.995 330.271 135.744C330.809 134.147 331.334 132.562 331.849 130.985C332.363 129.409 332.885 127.82 333.417 126.216C333.451 126.139 333.495 126.07 333.551 126.01C333.665 125.882 333.795 125.818 333.939 125.814C334.083 125.81 334.204 125.854 334.304 125.945C334.378 126.012 334.432 126.104 334.466 126.221C334.5 126.337 334.495 126.466 334.45 126.609C334.389 126.797 334.277 127.138 334.115 127.631C333.953 128.124 333.765 128.692 333.553 129.333C333.34 129.976 333.116 130.656 332.878 131.372C332.639 132.09 332.415 132.769 332.202 133.411C331.99 134.054 331.802 134.622 331.64 135.115C331.478 135.608 331.365 135.949 331.304 136.136Z" fill="black"/>
<path d="M405.179 198.532L415.758 198.455C418.093 196.361 421.242 195.076 424.709 195.076C431.908 195.076 437.743 200.617 437.743 207.452C437.743 214.287 431.908 219.828 424.709 219.828C420.792 219.828 417.278 218.187 414.889 215.591L404.002 215.599" stroke="black" stroke-width="1.3" stroke-linecap="round" stroke-linejoin="round"/>
<path d="M420.213 205.483L424.568 211.03L430.962 202.839" stroke="black" stroke-width="1.3" stroke-linecap="round" stroke-linejoin="round"/>
<path d="M423.143 194.765V194.571V192.042H426.352V194.343V194.646" stroke="black" stroke-width="1.3" stroke-linecap="round" stroke-linejoin="round"/>
<path d="M421.691 191.778H427.69" stroke="black" stroke-width="1.3" stroke-linecap="round" stroke-linejoin="round"/>
<path d="M412.608 211.185H400.727" stroke="black" stroke-width="1.3" stroke-linecap="round" stroke-linejoin="round"/>
<path d="M400.727 202.321H412.608" stroke="black" stroke-width="1.3" stroke-linecap="round" stroke-linejoin="round"/>
<path d="M394.521 206.697H411.799" stroke="black" stroke-width="1.3" stroke-linecap="round" stroke-linejoin="round"/>
<path d="M435.275 199.728L436.524 198.753" stroke="black" stroke-width="1.3" stroke-linecap="round" stroke-linejoin="round"/>
<path d="M436.174 197.387L437.827 199.333" stroke="black" stroke-width="1.3" stroke-linecap="round" stroke-linejoin="round"/>
<path d="M252.195 201.148C249.886 192.275 241.163 186.639 232.271 188.463C225.098 189.933 219.935 195.827 218.928 202.809" stroke="black" stroke-width="1.3" stroke-linecap="round" stroke-linejoin="round"/>
<path d="M219.383 210.024C221.775 218.774 230.429 224.303 239.248 222.495C246.634 220.981 251.889 214.78 252.671 207.527" stroke="black" stroke-width="1.3" stroke-linecap="round" stroke-linejoin="round"/>
<path fill-rule="evenodd" clip-rule="evenodd" d="M221.868 209.442L218.274 205.097L216.779 210.485L221.868 209.442Z" fill="black"/>
<path fill-rule="evenodd" clip-rule="evenodd" d="M254.337 199.901L252.744 205.31L249.25 200.944L254.337 199.901Z" fill="black"/>
<path fill-rule="evenodd" clip-rule="evenodd" d="M226.872 208.127C228.622 205.586 234.377 204.415 234.377 204.415L236.88 204.353C236.88 204.353 238.442 204.635 240.173 205.265C241.712 205.825 243.385 206.66 244.209 207.816C245.96 210.273 245.677 215.638 245.677 215.638L225.77 215.497C225.77 215.497 225.591 209.984 226.872 208.127Z" fill="black"/>
<path fill-rule="evenodd" clip-rule="evenodd" d="M231.843 200.316C231.373 196.538 233.863 195.576 235.66 195.576C237.457 195.576 239.696 196.351 239.352 199.972C239.118 202.437 237.457 204.542 235.66 204.542C233.863 204.542 232.147 202.774 231.843 200.316Z" stroke="black" stroke-width="1.3" stroke-linecap="round" stroke-linejoin="round"/>
<path fill-rule="evenodd" clip-rule="evenodd" d="M230.653 195.936C230.759 195.572 230.902 195.231 231.115 194.945C232.781 192.713 237.94 191.757 240.102 195.154C241.636 197.563 239.946 201.411 239.257 201.787C238.969 201.945 239.468 198.495 238.54 197.169C237.774 196.076 236.13 195.691 235.237 195.759C234.518 195.813 232.803 196.196 232.179 197.481C231.514 198.853 232.342 201.881 231.905 201.943C231.466 202.006 229.75 199.032 230.653 195.936Z" fill="black"/>
<path fill-rule="evenodd" clip-rule="evenodd" d="M218.961 300.392H232.201C234.109 300.392 235.656 301.939 235.656 303.848V314.951C235.656 316.859 234.109 318.407 232.201 318.407H218.961L213.828 321.028L215.827 316.408C215.62 315.965 215.505 315.472 215.505 314.951V303.848C215.505 301.939 217.053 300.392 218.961 300.392Z" fill="#FF0066" stroke="black" stroke-width="1.3" stroke-linecap="round" stroke-linejoin="round"/>
<path d="M231.492 312.778H219.738" stroke="black" stroke-width="1.3" stroke-linecap="round" stroke-linejoin="round"/>
<path d="M219.738 305.349H231.492" stroke="black" stroke-width="1.3" stroke-linecap="round" stroke-linejoin="round"/>
<path d="M219.688 308.911H231.44" stroke="black" stroke-width="1.3" stroke-linecap="round" stroke-linejoin="round"/>
<path d="M235.755 310.215H235.822H245.482L250.614 312.836L248.616 308.216C248.823 307.773 248.937 307.28 248.937 306.759V295.655C248.937 293.748 247.39 292.201 245.482 292.201H232.242C230.334 292.201 228.787 293.748 228.787 295.655V299.746V300.278V300.331" stroke="black" stroke-width="1.3" stroke-linecap="round" stroke-linejoin="round"/>
<path d="M236.08 304.586H236.69H244.705" stroke="black" stroke-width="1.3" stroke-linecap="round" stroke-linejoin="round"/>
<path d="M244.705 297.158H232.953" stroke="black" stroke-width="1.3" stroke-linecap="round" stroke-linejoin="round"/>
<path d="M244.757 300.719H234.867H233.842" stroke="black" stroke-width="1.3" stroke-linecap="round" stroke-linejoin="round"/>
<path d="M529.736 197.499C530.595 197.929 530.224 196.724 530.347 196.539C530.545 196.242 530.913 196.002 530.987 195.638C531.101 195.061 530.499 194.635 530.841 193.951C531.136 193.361 531.522 194.026 531.83 193.718C532.249 193.298 531.836 192.174 532.528 192.002C532.968 191.892 533.21 192.576 533.779 192.234C534.332 191.903 534.239 190.933 534.855 190.809C535.325 190.715 535.35 191.792 535.815 191.885C536.323 191.986 536.831 191.15 537.094 191.217C537.476 191.312 537.492 192.255 538.142 192.147C538.57 192.075 538.789 191.073 539.247 191.187C540.24 191.436 539.556 192.253 540.003 192.699C540.266 192.963 540.802 192.663 541.109 192.816C541.769 193.147 541.301 193.602 541.603 193.98C541.833 194.266 542.434 193.77 542.737 193.921C543.672 194.388 542.778 195.546 542.97 196.22C543.162 196.894 543.68 196.056 544.046 196.423C544.294 196.67 543.747 197.342 543.813 197.673C543.837 197.792 544.678 197.994 544.831 198.11C545.104 198.314 544.694 198.928 544.802 198.983C544.939 199.05 545.217 198.931 545.325 199.04C545.52 199.235 545.264 200.099 545.18 200.35" stroke="black" stroke-width="1.3" stroke-linecap="round" stroke-linejoin="round"/>
<path d="M522.945 211.605C522.541 211.399 522.617 211.448 522.149 210.587C521.868 210.07 522.751 209.734 522.803 209.308C522.854 208.885 522.237 208.599 522.291 208.261C522.364 207.818 522.834 207.37 522.718 206.894C522.66 206.656 522.349 206.616 522.178 206.516C521.627 206.194 521.149 205.649 521.269 204.945C521.512 203.517 522.396 204.653 522.832 203.926C522.971 203.695 522.947 203.449 522.803 203.229C522.777 203.189 522.487 202.856 522.49 202.85C522.67 202.606 523.146 202.393 523.002 201.949C522.781 201.269 521.809 201.799 521.865 200.931C521.9 200.395 522.249 199.768 522.803 199.68C523.133 199.629 523.613 200.081 523.713 199.419C523.771 199.037 523.704 198.567 523.429 198.284C523.286 198.139 522.703 197.936 522.86 197.615C522.997 197.337 523.84 196.887 523.798 196.626C523.686 195.938 522.789 195.784 523.257 194.823C523.586 194.152 524.621 194.627 524.934 193.921C525.199 193.328 524.629 192.898 524.451 192.38C524.302 191.942 524.468 191.594 524.679 191.217C525.023 190.598 525.419 191.275 525.702 191.129C526.063 190.945 525.887 190.365 526.071 190.082C526.225 189.846 526.597 189.898 526.753 189.645C527.017 189.222 526.581 189.039 526.498 188.657C526.369 188.062 526.632 187.594 527.066 187.202C527.372 186.926 527.977 186.587 528.402 186.649C529.119 186.755 528.998 187.65 529.879 187.086C530.568 186.646 530.481 186.007 530.761 185.341C530.897 185.018 531.807 185.049 532.125 184.847C532.409 184.665 532.141 184.427 532.238 184.177C532.397 183.772 532.759 183.547 533.148 183.421C533.231 183.395 533.792 183.158 533.887 183.305C533.953 183.406 534.05 183.983 534.285 183.886C534.489 183.803 534.626 183.375 534.768 183.218C535.129 182.819 535.902 182.422 536.445 182.607C536.939 182.776 537.178 183.953 537.666 183.886C538.135 183.823 538.429 183.273 538.747 182.985C538.753 182.979 539.049 182.648 539.116 182.694C539.52 182.969 539.294 183.814 539.968 184.091C540.899 184.472 541.454 182.964 542.412 183.421C543.343 183.865 542.183 185.62 543.123 185.748C543.366 185.781 543.825 185.821 544.033 185.632C544.246 185.438 544.127 184.773 544.516 184.905C545.044 185.085 544.646 185.938 545.028 186.272C545.398 186.597 546.009 185.655 546.164 186.33C546.272 186.803 546.091 188.588 546.647 188.715C547.574 188.926 547.536 186.828 548.637 187.551C548.968 187.769 549.295 188.153 549.262 188.569C549.243 188.801 548.97 189.035 549.034 189.268C549.153 189.693 550.08 188.995 550.37 189.588C550.525 189.904 550.75 190.735 550.711 191.129C550.69 191.348 550.437 191.5 550.341 191.682C550.133 192.08 550.128 192.639 550.199 193.078C550.358 194.047 551.516 193.241 551.677 194.066C551.822 194.807 550.914 195.562 551.194 196.277C551.446 196.923 552.496 196.469 552.9 196.976C553.607 197.861 552.288 197.976 552.53 198.72C552.589 198.903 552.971 198.927 553.099 199.04C553.413 199.322 553.383 199.762 553.383 200.146" stroke="black" stroke-width="1.3" stroke-linecap="round" stroke-linejoin="round"/>
</svg>
