<svg width="802" height="514" viewBox="0 0 802 514" fill="none" xmlns="http://www.w3.org/2000/svg">
<path opacity="0.5" d="M738.381 177.363C759.329 177.363 776.311 160.906 776.311 140.605C776.311 120.305 759.329 103.848 738.381 103.848C717.433 103.848 700.451 120.305 700.451 140.605C700.451 160.906 717.433 177.363 738.381 177.363Z" fill="#F0F0F0"/>
<path opacity="0.5" d="M159.177 132.47C183.515 122.701 195.073 95.6601 184.992 72.0737C174.91 48.4874 147.007 37.2869 122.669 47.0567C98.33 56.8264 86.7722 83.8669 96.8536 107.453C106.935 131.04 134.838 142.24 159.177 132.47Z" fill="#F0F0F0"/>
<path d="M741.282 409.614C748.578 409.614 754.492 403.883 754.492 396.813C754.492 389.743 748.578 384.011 741.282 384.011C733.987 384.011 728.072 389.743 728.072 396.813C728.072 403.883 733.987 409.614 741.282 409.614Z" fill="#F0F0F0"/>
<path opacity="0.5" d="M113.045 445.503C133.856 425.335 133.856 392.637 113.045 372.469C92.2341 352.301 58.4928 352.301 37.6817 372.469C16.8707 392.637 16.8707 425.335 37.6817 445.503C58.4928 465.671 92.2341 465.671 113.045 445.503Z" fill="#F0F0F0"/>
<path opacity="0.5" d="M304.681 44.0548C317.235 44.0548 327.411 34.1928 327.411 22.0274C327.411 9.86199 317.235 0 304.681 0C292.128 0 281.951 9.86199 281.951 22.0274C281.951 34.1928 292.128 44.0548 304.681 44.0548Z" fill="#F0F0F0"/>
<path opacity="0.5" d="M636.907 478.762C641.557 459.352 629.09 439.965 609.061 435.459C589.032 430.953 569.026 443.034 564.376 462.444C559.726 481.854 572.194 501.242 592.223 505.748C612.252 510.254 632.258 498.172 636.907 478.762Z" fill="#F0F0F0"/>
<path opacity="0.2" d="M172.342 94.1082L194.542 71.5381L204.912 99.8259L172.342 94.1082Z" fill="#EE7657"/>
<path opacity="0.2" d="M438.021 60.7231L472.251 32.9393L484.461 41.7774L442.991 70.1911L438.021 60.7231Z" fill="#EE7657"/>
<path opacity="0.2" d="M95.4812 242.563L84.7012 228.036L102.621 216.989L112.661 231.234L95.4812 242.563Z" fill="#FFBF00"/>
<path opacity="0.2" d="M705.091 82.9637L697.881 73.2534L709.871 65.8593L716.591 75.3951L705.091 82.9637Z" fill="#FF0066"/>
<path opacity="0.2" d="M782.181 470.357L759.191 445.665L793.431 449.299L782.181 470.357Z" fill="#FF0066"/>
<path opacity="0.2" d="M199.832 445.19C204.852 445.19 208.922 441.246 208.922 436.381C208.922 431.516 204.852 427.572 199.832 427.572C194.812 427.572 190.742 431.516 190.742 436.381C190.742 441.246 194.812 445.19 199.832 445.19Z" fill="#FFBF00"/>
<path d="M711.921 462.381C711.921 463.28 711.646 464.159 711.131 464.906C710.615 465.654 709.883 466.236 709.026 466.58C708.169 466.924 707.226 467.014 706.316 466.839C705.406 466.664 704.571 466.231 703.915 465.595C703.259 464.959 702.812 464.15 702.631 463.268C702.45 462.386 702.543 461.472 702.898 460.642C703.253 459.811 703.854 459.102 704.625 458.602C705.397 458.103 706.303 457.836 707.231 457.836C708.475 457.836 709.668 458.315 710.547 459.167C711.427 460.02 711.921 461.176 711.921 462.381Z" fill="#FFBF00"/>
<path d="M370.292 403.151C370.292 404.247 369.956 405.319 369.328 406.23C368.699 407.142 367.806 407.852 366.76 408.272C365.715 408.692 364.565 408.801 363.456 408.587C362.346 408.374 361.327 407.846 360.527 407.07C359.727 406.295 359.182 405.307 358.961 404.232C358.741 403.157 358.854 402.042 359.287 401.029C359.72 400.017 360.453 399.151 361.394 398.542C362.334 397.933 363.44 397.608 364.572 397.608C365.323 397.608 366.067 397.751 366.76 398.029C367.454 398.308 368.085 398.716 368.616 399.231C369.147 399.746 369.569 400.357 369.856 401.029C370.144 401.702 370.292 402.423 370.292 403.151Z" fill="#681F17"/>
<path opacity="0.2" d="M789.941 51.9001C796.32 50.0254 799.923 43.4941 797.989 37.3121C796.054 31.1301 789.315 27.6383 782.935 29.513C776.556 31.3877 772.953 37.919 774.887 44.101C776.822 50.283 783.562 53.7748 789.941 51.9001Z" fill="#FFBF00"/>
<path opacity="0.2" d="M643.411 34.3348C651.9 34.3348 658.781 27.6661 658.781 19.4399C658.781 11.2137 651.9 4.54498 643.411 4.54498C634.922 4.54498 628.041 11.2137 628.041 19.4399C628.041 27.6661 634.922 34.3348 643.411 34.3348Z" fill="#0070C0"/>
<path opacity="0.2" d="M265.143 482.18L281.373 462.381L317.903 502.017L265.143 482.18Z" fill="#681F17"/>
<path opacity="0.3" d="M746.031 223.23L782.871 207.133L786.451 213.064L748.331 229.771L746.031 223.23Z" fill="#681F17"/>
<path opacity="0.2" d="M49.4027 13.1699L83.3226 34.4511L80.1226 40.5854L44.9727 18.5871L49.4027 13.1699Z" fill="#681F17"/>
<path opacity="0.2" d="M112.662 396.813L128.652 368.118L136.722 371.907L119.102 405.564L112.662 396.813Z" fill="#681F17"/>
<path opacity="0.2" d="M143.952 511.737C153.633 511.737 161.482 504.131 161.482 494.749C161.482 485.367 153.633 477.761 143.952 477.761C134.27 477.761 126.422 485.367 126.422 494.749C126.422 504.131 134.27 511.737 143.952 511.737Z" fill="#FF0066"/>
</svg>
