<svg width="491" height="401" viewBox="0 0 491 401" fill="none" xmlns="http://www.w3.org/2000/svg">
<path d="M161.075 309.131C246.439 309.131 315.641 239.93 315.641 154.565C315.641 69.2013 246.439 3.05176e-05 161.075 3.05176e-05C75.7111 3.05176e-05 6.50977 69.2013 6.50977 154.565C6.50977 239.93 75.7111 309.131 161.075 309.131Z" fill="#E6EDFC"/>
<path d="M267.949 50.0321V86.8775" stroke="#BECDE5" stroke-width="1.07" stroke-miterlimit="10" stroke-linecap="round"/>
<path d="M275.256 50.0321V86.8775" stroke="#BECDE5" stroke-width="1.07" stroke-miterlimit="10" stroke-linecap="round"/>
<path d="M289.877 56.3551V80.5546" stroke="#BECDE5" stroke-width="1.07" stroke-miterlimit="10" stroke-linecap="round"/>
<path d="M282.57 53.0998V83.8099" stroke="#BECDE5" stroke-width="1.07" stroke-miterlimit="10" stroke-linecap="round"/>
<path d="M297.178 59.2462V77.6634" stroke="#BECDE5" stroke-width="1.07" stroke-miterlimit="10" stroke-linecap="round"/>
<path d="M304.498 64.3002V72.6095" stroke="#BECDE5" stroke-width="1.07" stroke-miterlimit="10" stroke-linecap="round"/>
<path d="M311.799 62.4905V74.4192" stroke="#BECDE5" stroke-width="1.07" stroke-miterlimit="10" stroke-linecap="round"/>
<path d="M319.119 58.8821V78.0276" stroke="#BECDE5" stroke-width="1.07" stroke-miterlimit="10" stroke-linecap="round"/>
<path d="M326.422 53.8171V83.0816" stroke="#BECDE5" stroke-width="1.07" stroke-miterlimit="10" stroke-linecap="round"/>
<path d="M333.74 50.0321V86.8775" stroke="#BECDE5" stroke-width="1.07" stroke-miterlimit="10" stroke-linecap="round"/>
<path d="M341.043 53.2764V83.6334" stroke="#BECDE5" stroke-width="1.07" stroke-miterlimit="10" stroke-linecap="round"/>
<path d="M348.348 56.1675V80.7422" stroke="#BECDE5" stroke-width="1.07" stroke-miterlimit="10" stroke-linecap="round"/>
<path d="M355.664 53.6405V83.2692" stroke="#BECDE5" stroke-width="1.07" stroke-miterlimit="10" stroke-linecap="round"/>
<path d="M362.969 50.628V86.2817" stroke="#BECDE5" stroke-width="1.07" stroke-miterlimit="10" stroke-linecap="round"/>
<path d="M490.498 391.374H0.539062V395.501H490.498V391.374Z" fill="#31374C"/>
<path d="M246.113 53.0777H69.6548C63.9505 53.0777 59.3262 57.702 59.3262 63.4064V377.404C59.3262 383.108 63.9505 387.732 69.6548 387.732H246.113C251.818 387.732 256.442 383.108 256.442 377.404V63.4064C256.442 57.702 251.818 53.0777 246.113 53.0777Z" fill="white"/>
<path d="M249.551 67.9086V372.901C249.548 374.7 248.832 376.425 247.56 377.697C246.288 378.969 244.563 379.685 242.764 379.688H72.9818C71.1819 379.688 69.4557 378.973 68.183 377.7C66.9103 376.427 66.1953 374.701 66.1953 372.901V67.9086C66.1953 67.0179 66.3709 66.1359 66.7121 65.3132C67.0533 64.4904 67.5534 63.743 68.1837 63.1137C68.814 62.4844 69.5622 61.9856 70.3855 61.6457C71.2088 61.3059 72.0911 61.1317 72.9818 61.1332H116.801C117.496 61.1317 118.185 61.2674 118.827 61.5323C119.47 61.7973 120.054 62.1864 120.546 62.6774C121.038 63.1684 121.428 63.7516 121.695 64.3936C121.961 65.0356 122.098 65.7238 122.098 66.4189C122.098 67.1144 122.235 67.8032 122.501 68.4458C122.767 69.0885 123.157 69.6724 123.649 70.1642C124.141 70.6561 124.725 71.0462 125.368 71.3124C126.01 71.5786 126.699 71.7156 127.395 71.7156H188.373C189.778 71.7156 191.125 71.1576 192.119 70.1642C193.112 69.1709 193.67 67.8236 193.67 66.4189C193.669 65.7234 193.805 65.0345 194.071 64.3918C194.336 63.7492 194.727 63.1654 195.219 62.6741C195.711 62.1829 196.296 61.7938 196.939 61.5294C197.582 61.2649 198.271 61.1303 198.967 61.1332H242.797C244.591 61.139 246.308 61.8554 247.574 63.1254C248.84 64.3954 249.551 66.1154 249.551 67.9086Z" fill="#FFBF00"/>
<path d="M136.104 63.7816H169.451" stroke="#2B3468" stroke-width="2" stroke-miterlimit="10" stroke-linecap="round"/>
<path d="M178.322 65.1831C179.054 65.1831 179.646 64.5902 179.646 63.8589C179.646 63.1276 179.054 62.5347 178.322 62.5347C177.591 62.5347 176.998 63.1276 176.998 63.8589C176.998 64.5902 177.591 65.1831 178.322 65.1831Z" fill="#2B3468"/>
<path d="M217.065 96.6544H59.2668C58.4573 96.6544 57.6557 96.814 56.9079 97.1242C56.1602 97.4343 55.4809 97.8889 54.909 98.4618C54.337 99.0347 53.8837 99.7148 53.5749 100.463C53.2661 101.211 53.1079 102.013 53.1094 102.823V150.791C53.1094 152.425 53.7581 153.991 54.9129 155.145C56.0676 156.3 57.6338 156.949 59.2668 156.949H185.616L211.162 167.344V156.938H217.065C218.699 156.938 220.265 156.289 221.419 155.134C222.574 153.98 223.223 152.414 223.223 150.78V102.823C223.224 102.013 223.066 101.211 222.757 100.463C222.449 99.7148 221.995 99.0347 221.423 98.4618C220.851 97.8889 220.172 97.4343 219.424 97.1242C218.677 96.814 217.875 96.6544 217.065 96.6544Z" fill="#31374C"/>
<path d="M197.512 141.445C205.6 141.445 212.156 134.889 212.156 126.802C212.156 118.714 205.6 112.158 197.512 112.158C189.425 112.158 182.869 118.714 182.869 126.802C182.869 134.889 189.425 141.445 197.512 141.445Z" fill="white"/>
<path d="M204.665 126.802L193.52 120.368V133.246L204.665 126.802Z" fill="#31374C"/>
<path d="M64.1582 108.098V150.185" stroke="white" stroke-width="0.53" stroke-miterlimit="10" stroke-linecap="round"/>
<path d="M68.8906 111.397V146.885" stroke="white" stroke-width="0.53" stroke-miterlimit="10" stroke-linecap="round"/>
<path d="M73.6152 115.116V143.166" stroke="white" stroke-width="0.53" stroke-miterlimit="10" stroke-linecap="round"/>
<path d="M78.3477 117.797V140.485" stroke="white" stroke-width="0.53" stroke-miterlimit="10" stroke-linecap="round"/>
<path d="M83.0723 113.461V144.822" stroke="white" stroke-width="0.53" stroke-miterlimit="10" stroke-linecap="round"/>
<path d="M87.791 108.098V150.185" stroke="white" stroke-width="0.53" stroke-miterlimit="10" stroke-linecap="round"/>
<path d="M92.5293 108.098V150.185" stroke="white" stroke-width="0.53" stroke-miterlimit="10" stroke-linecap="round"/>
<path d="M101.986 115.325V142.968" stroke="white" stroke-width="0.53" stroke-miterlimit="10" stroke-linecap="round"/>
<path d="M97.25 111.607V146.676" stroke="white" stroke-width="0.53" stroke-miterlimit="10" stroke-linecap="round"/>
<path d="M106.707 118.625V139.668" stroke="white" stroke-width="0.53" stroke-miterlimit="10" stroke-linecap="round"/>
<path d="M111.439 124.396V133.886" stroke="white" stroke-width="0.53" stroke-miterlimit="10" stroke-linecap="round"/>
<path d="M116.164 122.333V135.95" stroke="white" stroke-width="0.53" stroke-miterlimit="10" stroke-linecap="round"/>
<path d="M120.896 118.206V140.077" stroke="white" stroke-width="0.53" stroke-miterlimit="10" stroke-linecap="round"/>
<path d="M125.621 112.434V145.859" stroke="white" stroke-width="0.53" stroke-miterlimit="10" stroke-linecap="round"/>
<path d="M130.354 108.098V150.185" stroke="white" stroke-width="0.53" stroke-miterlimit="10" stroke-linecap="round"/>
<path d="M135.078 111.816V146.477" stroke="white" stroke-width="0.53" stroke-miterlimit="10" stroke-linecap="round"/>
<path d="M139.811 115.116V143.166" stroke="white" stroke-width="0.53" stroke-miterlimit="10" stroke-linecap="round"/>
<path d="M144.535 112.225V146.058" stroke="white" stroke-width="0.53" stroke-miterlimit="10" stroke-linecap="round"/>
<path d="M149.26 108.793V149.5" stroke="white" stroke-width="0.53" stroke-miterlimit="10" stroke-linecap="round"/>
<path d="M153.992 111.265V147.018" stroke="white" stroke-width="0.53" stroke-miterlimit="10" stroke-linecap="round"/>
<path d="M158.713 118.691V139.591" stroke="white" stroke-width="0.53" stroke-miterlimit="10" stroke-linecap="round"/>
<path d="M163.449 114.564V143.718" stroke="white" stroke-width="0.53" stroke-miterlimit="10" stroke-linecap="round"/>
<path d="M168.17 110.437V147.845" stroke="white" stroke-width="0.53" stroke-miterlimit="10" stroke-linecap="round"/>
<path d="M172.906 108.098V150.185" stroke="white" stroke-width="0.53" stroke-miterlimit="10" stroke-linecap="round"/>
<path d="M211.679 199.014C219.255 199.014 225.396 192.873 225.396 185.298C225.396 177.722 219.255 171.581 211.679 171.581C204.104 171.581 197.963 177.722 197.963 185.298C197.963 192.873 204.104 199.014 211.679 199.014Z" fill="#31374C"/>
<path d="M211.682 186.478C214.29 186.478 216.405 184.364 216.405 181.755C216.405 179.147 214.29 177.032 211.682 177.032C209.074 177.032 206.959 179.147 206.959 181.755C206.959 184.364 209.074 186.478 211.682 186.478Z" fill="white"/>
<path d="M208.758 187.593H214.595C215.64 187.593 216.642 188.008 217.381 188.747C218.12 189.485 218.535 190.487 218.535 191.532V193.563H204.818V191.532C204.818 190.487 205.233 189.485 205.972 188.747C206.711 188.008 207.713 187.593 208.758 187.593Z" fill="white"/>
<path d="M256.493 215.103H98.6946C97.0615 215.103 95.4953 215.751 94.3406 216.906C93.1859 218.061 92.5371 219.627 92.5371 221.26V269.229C92.5357 270.038 92.6939 270.84 93.0027 271.588C93.3114 272.337 93.7648 273.017 94.3367 273.59C94.9086 274.163 95.5879 274.617 96.3357 274.927C97.0834 275.238 97.885 275.397 98.6946 275.397H104.598V285.792L130.144 275.397H256.493C257.303 275.397 258.104 275.238 258.852 274.927C259.6 274.617 260.279 274.163 260.851 273.59C261.423 273.017 261.876 272.337 262.185 271.588C262.494 270.84 262.652 270.038 262.651 269.229V221.26C262.651 219.627 262.002 218.061 260.847 216.906C259.692 215.751 258.126 215.103 256.493 215.103Z" fill="#31374C"/>
<path d="M118.237 259.893C126.324 259.893 132.88 253.337 132.88 245.25C132.88 237.163 126.324 230.607 118.237 230.607C110.15 230.607 103.594 237.163 103.594 245.25C103.594 253.337 110.15 259.893 118.237 259.893Z" fill="white"/>
<path d="M111.09 245.25L122.246 238.806V251.694L111.09 245.25Z" fill="#31374C"/>
<path d="M251.596 226.546V268.622" stroke="white" stroke-width="0.53" stroke-miterlimit="10" stroke-linecap="round"/>
<path d="M246.871 229.845V265.323" stroke="white" stroke-width="0.53" stroke-miterlimit="10" stroke-linecap="round"/>
<path d="M242.139 233.553V261.615" stroke="white" stroke-width="0.53" stroke-miterlimit="10" stroke-linecap="round"/>
<path d="M237.414 236.234V258.933" stroke="white" stroke-width="0.53" stroke-miterlimit="10" stroke-linecap="round"/>
<path d="M232.68 231.909V263.259" stroke="white" stroke-width="0.53" stroke-miterlimit="10" stroke-linecap="round"/>
<path d="M227.957 226.546V268.622" stroke="white" stroke-width="0.53" stroke-miterlimit="10" stroke-linecap="round"/>
<path d="M223.223 226.546V268.622" stroke="white" stroke-width="0.53" stroke-miterlimit="10" stroke-linecap="round"/>
<path d="M213.766 233.763V261.405" stroke="white" stroke-width="0.53" stroke-miterlimit="10" stroke-linecap="round"/>
<path d="M218.504 230.044V265.124" stroke="white" stroke-width="0.53" stroke-miterlimit="10" stroke-linecap="round"/>
<path d="M209.047 237.062V258.106" stroke="white" stroke-width="0.53" stroke-miterlimit="10" stroke-linecap="round"/>
<path d="M204.309 242.845V252.334" stroke="white" stroke-width="0.53" stroke-miterlimit="10" stroke-linecap="round"/>
<path d="M199.59 240.781V254.387" stroke="white" stroke-width="0.53" stroke-miterlimit="10" stroke-linecap="round"/>
<path d="M194.852 236.654V258.514" stroke="white" stroke-width="0.53" stroke-miterlimit="10" stroke-linecap="round"/>
<path d="M190.131 230.872V264.296" stroke="white" stroke-width="0.53" stroke-miterlimit="10" stroke-linecap="round"/>
<path d="M185.408 226.546V268.622" stroke="white" stroke-width="0.53" stroke-miterlimit="10" stroke-linecap="round"/>
<path d="M180.674 230.254V264.914" stroke="white" stroke-width="0.53" stroke-miterlimit="10" stroke-linecap="round"/>
<path d="M175.949 233.553V261.615" stroke="white" stroke-width="0.53" stroke-miterlimit="10" stroke-linecap="round"/>
<path d="M171.217 230.662V264.506" stroke="white" stroke-width="0.53" stroke-miterlimit="10" stroke-linecap="round"/>
<path d="M166.492 227.23V267.938" stroke="white" stroke-width="0.53" stroke-miterlimit="10" stroke-linecap="round"/>
<path d="M161.76 229.702V265.466" stroke="white" stroke-width="0.53" stroke-miterlimit="10" stroke-linecap="round"/>
<path d="M157.035 237.128V258.039" stroke="white" stroke-width="0.53" stroke-miterlimit="10" stroke-linecap="round"/>
<path d="M152.303 233.001V262.167" stroke="white" stroke-width="0.53" stroke-miterlimit="10" stroke-linecap="round"/>
<path d="M147.578 228.874V266.294" stroke="white" stroke-width="0.53" stroke-miterlimit="10" stroke-linecap="round"/>
<path d="M142.846 226.546V268.622" stroke="white" stroke-width="0.53" stroke-miterlimit="10" stroke-linecap="round"/>
<path d="M104.068 317.462C111.643 317.462 117.784 311.321 117.784 303.746C117.784 296.17 111.643 290.029 104.068 290.029C96.4926 290.029 90.3516 296.17 90.3516 303.746C90.3516 311.321 96.4926 317.462 104.068 317.462Z" fill="#31374C"/>
<path d="M104.071 304.927C106.679 304.927 108.794 302.812 108.794 300.204C108.794 297.595 106.679 295.481 104.071 295.481C101.462 295.481 99.3477 297.595 99.3477 300.204C99.3477 302.812 101.462 304.927 104.071 304.927Z" fill="white"/>
<path d="M110.936 312H97.2082V309.97C97.2082 308.925 97.6232 307.923 98.362 307.184C99.1008 306.445 100.103 306.03 101.148 306.03H106.941C107.986 306.03 108.988 306.445 109.727 307.184C110.465 307.923 110.88 308.925 110.88 309.97V312H110.936Z" fill="white"/>
<path d="M319.139 232.924C292.655 236.389 257.454 373.994 276.202 374.965C302.73 390.005 362.815 235.926 319.139 232.924Z" fill="#F4AF9F"/>
<path d="M279.105 306.174C279.105 306.174 269.174 338.914 266.536 354.804C263.899 370.695 260.599 384.929 274.834 389.012C289.069 393.095 307.343 369.083 312.794 346.55C318.246 324.017 316.359 292.215 315.167 292.215C313.975 292.215 279.105 306.174 279.105 306.174Z" fill="#F4AF9F"/>
<path d="M382.612 237.448L360.619 253.747L345.082 239.733L345.203 218.744L376.565 194.434L377.094 198.186L378.661 209.354L382.612 237.448Z" fill="#F4AF9F"/>
<g style="mix-blend-mode:multiply" opacity="0.5">
<path d="M377.516 202.037C368.875 218.965 349.035 227.208 345.15 228.367V223.953L374.393 198.319C375.284 198.243 376.18 198.217 377.074 198.241L377.516 202.037Z" fill="#F4AF9F"/>
</g>
<path d="M379.278 198.859C379.278 198.859 373.419 211.726 359.923 218.215C353.589 221.26 346.416 225.387 339.122 223.909C332.678 222.606 329.312 216.184 326.598 210.854C324.002 205.617 322.689 199.838 322.769 193.993C322.769 187.714 323.155 181.645 321.842 175.454C320.793 170.577 319.271 164.42 322.217 159.928C326.035 154.058 355.553 146.885 355.553 146.885L372.845 156.552L385.899 165.302L379.278 198.859Z" fill="#F4AF9F"/>
<path d="M328.254 184.691C328.254 186.511 329.214 188.001 330.384 188.001C331.554 188.001 332.481 186.522 332.459 184.691C332.473 183.874 332.255 183.07 331.83 182.373C331.679 182.102 331.462 181.873 331.2 181.708C330.938 181.542 330.638 181.444 330.329 181.424C329.17 181.402 328.232 182.881 328.254 184.691Z" fill="#31374C"/>
<path d="M348.744 185.916C348.744 187.725 349.848 189.226 351.117 189.226C352.386 189.226 353.456 187.736 353.445 185.916C353.449 185.09 353.203 184.282 352.739 183.598C352.558 183.315 352.31 183.081 352.018 182.916C351.726 182.751 351.397 182.659 351.062 182.649C349.77 182.627 348.733 184.106 348.744 185.916Z" fill="#31374C"/>
<path d="M346.275 176.072L353.956 176.922" stroke="#31374C" stroke-width="0.52" stroke-linecap="round" stroke-linejoin="round"/>
<path d="M326.598 175.675L332.722 175.785" stroke="#31374C" stroke-width="0.52" stroke-linecap="round" stroke-linejoin="round"/>
<path d="M339.896 186.5C339.896 186.5 337.502 190.76 336.586 191.919C335.67 193.077 333.066 196.807 338.992 197.006" stroke="#31374C" stroke-width="0.52" stroke-linecap="round" stroke-linejoin="round"/>
<path d="M347.279 203.174C346.744 203.686 346.173 204.158 345.569 204.587C343.519 206.134 341.068 207.061 338.507 207.257C336.399 207.356 334.347 205.238 333.32 204.002C332.901 203.483 332.658 203.119 332.658 203.119C332.658 203.119 334.004 203.218 335.969 203.307C337.933 203.395 340.846 203.483 343.274 203.45C344.613 203.443 345.951 203.351 347.279 203.174Z" fill="#31374C"/>
<path d="M347.279 203.174C346.744 203.686 346.173 204.158 345.569 204.587C341.499 205.392 337.295 205.191 333.32 204.002C332.901 203.483 332.658 203.119 332.658 203.119C332.658 203.119 334.004 203.218 335.969 203.307C337.933 203.395 340.846 203.483 343.274 203.45C344.613 203.443 345.951 203.351 347.279 203.174Z" fill="white"/>
<path d="M339.872 164.309C340.241 165.78 340.947 167.144 341.936 168.293C342.924 169.443 344.167 170.346 345.566 170.93C345.566 170.93 336.429 172.034 330.956 167.918C330.956 167.918 333.527 171.901 335.679 172.541C335.679 172.541 324.291 173.082 320.638 168.889L321.896 176.172C321.896 176.172 315.275 169.551 315.33 161.44C315.408 155.724 317.979 150.472 319.744 145.142C320.848 141.644 322.58 137.693 326.012 135.872C335.149 131.006 346.239 131.823 355.939 134.305C363.663 136.281 371.63 138.984 377.843 144.16C394.34 157.887 387.973 188.211 376.905 203.395C376.905 203.395 375.537 189.491 375.316 185.198C375.095 180.906 371.233 179.824 371.343 181.888C371.454 183.951 371.123 194.026 368.971 193.861C366.819 193.695 365.98 176.205 360.827 172.541C355.674 168.878 344.065 167.752 339.872 164.309Z" fill="#31374C"/>
<path d="M448.206 387.324L302.336 386.485C300.482 361.977 298.33 330.097 297.359 303.602C297.359 303.602 297.359 303.602 297.359 303.547C297.359 302.62 297.293 301.682 297.271 300.767C296.564 279.37 296.697 261.924 298.507 255.446C302.799 240.053 310.733 233.012 322.585 229.724C323.688 229.404 324.891 229.117 326.105 228.863C332.427 227.806 338.798 227.069 345.195 226.656C349.311 249.83 381.378 227.318 381.378 227.318C381.378 227.318 389.037 228.113 394.554 228.51C407.498 229.382 429.733 233.719 434.092 252.93C436.2 262.222 438.605 286.454 441.176 313.854C442.611 329.303 444.079 345.855 445.59 361.238C446.451 370.507 447.334 379.335 448.206 387.324Z" fill="#31374C"/>
<path d="M307.046 238.618C307.046 238.618 290.847 255.877 276.656 306.383L321.502 320.618L307.046 238.618Z" fill="#31374C"/>
<path d="M345.128 224.416L351.495 236.047L344.72 241.333L339.533 226.976" fill="#545C75"/>
<path d="M351.496 236.047L380.452 221.062L386.179 228.256L355.667 244.312L351.496 236.047Z" fill="#545C75"/>
<g style="mix-blend-mode:multiply">
<path d="M406.535 281.003C406.535 281.003 426.21 337.093 428.417 343.902C430.624 350.71 429.355 356.162 419.325 360.355C409.294 364.548 435.016 372.493 435.524 370.959C436.031 369.425 469.467 340.635 467.47 338.87C465.472 337.104 406.535 281.003 406.535 281.003Z" fill="#C3D3EA"/>
</g>
<path d="M415.693 244.135C397.762 263.998 462.349 393.779 477.235 382.336C507.15 376.576 450.839 218.104 415.693 244.135Z" fill="#F4AF9F"/>
<path d="M473.607 310.554C473.607 310.554 494.805 364.702 485.481 376.664C476.156 388.626 387.37 394.96 387.37 394.96L383.695 370.573C383.695 370.573 445.491 355.797 445.634 354.859C445.777 353.921 430.781 327.195 430.781 327.195L473.607 310.554Z" fill="#F4AF9F"/>
<path d="M487.342 370.573C487.237 372.69 486.587 374.743 485.457 376.535C484.326 378.327 482.752 379.797 480.886 380.802C451.832 397.3 323.651 398.679 327.303 389.686C327.16 382.8 487.96 338.384 487.342 370.573Z" fill="#F4AF9F"/>
<path d="M429.842 330.561C420.826 313.898 409.493 291.828 406.525 280.992C406.525 280.992 386.75 239.733 401.67 233.046C403.667 232.152 407.882 230.717 409.924 231.225C425.13 235.01 440.954 246.1 451.58 261.659C458.676 272.01 468.133 290.968 475.857 310.786L429.842 330.561Z" fill="#31374C"/>
<path d="M292.645 399.738C292.865 399.098 303.216 378.474 314.714 376.565C326.213 374.656 341.992 380.56 344.122 380.571C346.252 380.582 351.173 380.184 351.173 380.184L354.484 393.857C354.484 393.857 345.413 393.691 344.133 395.181C342.853 396.671 342.29 398.8 337.512 398.767C332.734 398.734 327.835 394.232 321.975 394.199C316.116 394.166 311.801 400.974 306.526 400.941C301.882 400.773 297.249 400.371 292.645 399.738Z" fill="#F4AF9F"/>
<path d="M275.186 386.938C273.329 385.916 271.765 384.435 270.645 382.637C269.524 380.838 268.884 378.781 268.786 376.664C266.579 343.317 321.223 227.352 327.723 234.557C334.035 237.404 303.844 401.471 275.186 386.938Z" fill="#F4AF9F"/>
<path d="M344.311 238.519L343.616 242.436C341.905 247.623 341.53 251.97 337.889 256.097L336.432 257.388L325.055 267.32L311.339 259.871L309.132 260.975L308.591 255.303L308.072 245.371C307.967 242.854 308.47 240.348 309.54 238.066L316.635 229.382C316.635 229.382 320.045 229.018 317.408 234.8C316.724 236.312 317.044 238.949 317.408 241.068L318.898 238.695L320.762 235.749L328.641 223.942C331.014 220.841 346.032 231.236 344.311 238.519Z" fill="#F4AF9F"/>
<path d="M294.291 212.123L339.501 252.798L360.721 244.831L315.831 205.734L294.291 212.123Z" fill="#646E89"/>
<path d="M360.718 244.831V246.034L358.875 244.93L360.718 244.831Z" fill="#646E89"/>
<path d="M294.291 212.123V213.337L297.392 213.238L294.291 212.123Z" fill="#646E89"/>
<path d="M294.291 213.337L339.501 254.012L360.721 246.034L315.831 206.948L294.291 213.337Z" fill="#FFBF00"/>
<path d="M344.31 238.519L343.615 242.436C341.904 247.623 341.529 251.97 337.888 256.097L336.431 257.388C331.532 252.235 322.086 242.271 318.93 238.773L320.795 235.826L328.673 224.019C331.013 220.841 346.031 231.236 344.31 238.519Z" fill="#F4AF9F"/>
<path d="M21.7608 258.426C33.7789 258.426 43.5215 248.683 43.5215 236.665C43.5215 224.647 33.7789 214.904 21.7608 214.904C9.74262 214.904 0 224.647 0 236.665C0 248.683 9.74262 258.426 21.7608 258.426Z" fill="#FFBF00"/>
<path d="M25.3135 225.74C25.3135 223.778 23.7227 222.187 21.7603 222.187C19.7979 222.187 18.207 223.778 18.207 225.74V236.665C18.207 238.627 19.7979 240.218 21.7603 240.218C23.7227 240.218 25.3135 238.627 25.3135 236.665V225.74Z" fill="white"/>
<path d="M21.7475 243.363C20.0744 243.36 18.4706 242.694 17.2875 241.511C16.1044 240.328 15.4385 238.724 15.4355 237.051V231.147C15.4355 231.09 15.447 231.033 15.4693 230.98C15.4916 230.927 15.5243 230.879 15.5655 230.839C15.6066 230.799 15.6554 230.768 15.7089 230.747C15.7624 230.726 15.8195 230.716 15.8769 230.717C15.9339 230.716 15.9905 230.726 16.0434 230.747C16.0963 230.768 16.1444 230.799 16.1846 230.84C16.2249 230.88 16.2565 230.928 16.2776 230.981C16.2987 231.034 16.3088 231.091 16.3073 231.147V237.051C16.3073 238.494 16.8805 239.878 17.9007 240.898C18.9209 241.918 20.3047 242.491 21.7475 242.491C23.1903 242.491 24.5741 241.918 25.5943 240.898C26.6145 239.878 27.1877 238.494 27.1877 237.051V231.147C27.2042 231.044 27.2572 230.949 27.3371 230.881C27.417 230.813 27.5186 230.776 27.6236 230.776C27.7286 230.776 27.8301 230.813 27.91 230.881C27.9899 230.949 28.0429 231.044 28.0594 231.147V237.051C28.0565 238.724 27.3906 240.328 26.2075 241.511C25.0244 242.694 23.4206 243.36 21.7475 243.363Z" fill="white"/>
<path d="M22.1999 242.933H21.3281V248.119H22.1999V242.933Z" fill="white"/>
<path d="M21.5854 247.325H21.9495C22.457 247.325 22.9595 247.425 23.4277 247.621C23.8959 247.817 24.3205 248.104 24.6768 248.466C25.0331 248.827 25.314 249.256 25.5031 249.727C25.6923 250.198 25.7859 250.701 25.7786 251.209H17.7563C17.7489 250.701 17.8426 250.198 18.0317 249.727C18.2209 249.256 18.5018 248.827 18.8581 248.466C19.2144 248.104 19.639 247.817 20.1072 247.621C20.5754 247.425 21.0778 247.325 21.5854 247.325Z" fill="white"/>
<path d="M298.239 121.185C303.334 121.185 307.464 117.055 307.464 111.96C307.464 106.865 303.334 102.735 298.239 102.735C293.144 102.735 289.014 106.865 289.014 111.96C289.014 117.055 293.144 121.185 298.239 121.185Z" fill="#FFBF00"/>
<path d="M298.25 105.813H298.239C297.41 105.813 296.738 106.485 296.738 107.314V111.949C296.738 112.778 297.41 113.45 298.239 113.45H298.25C299.079 113.45 299.751 112.778 299.751 111.949V107.314C299.751 106.485 299.079 105.813 298.25 105.813Z" fill="white"/>
<path d="M298.241 114.796C297.533 114.796 296.854 114.514 296.353 114.014C295.852 113.513 295.571 112.834 295.571 112.125V109.62C295.569 109.596 295.573 109.572 295.581 109.55C295.589 109.527 295.602 109.506 295.618 109.488C295.635 109.471 295.655 109.457 295.677 109.447C295.699 109.438 295.723 109.433 295.747 109.433C295.797 109.433 295.845 109.453 295.88 109.488C295.915 109.523 295.935 109.571 295.935 109.62V112.17C295.935 112.781 296.178 113.368 296.61 113.8C297.043 114.233 297.629 114.476 298.241 114.476C298.853 114.476 299.439 114.233 299.872 113.8C300.304 113.368 300.547 112.781 300.547 112.17V109.665C300.546 109.641 300.549 109.616 300.557 109.594C300.566 109.571 300.578 109.55 300.595 109.533C300.612 109.515 300.632 109.501 300.654 109.491C300.676 109.482 300.7 109.477 300.724 109.477C300.749 109.475 300.774 109.479 300.798 109.488C300.821 109.497 300.842 109.511 300.86 109.528C300.878 109.546 300.892 109.567 300.901 109.591C300.909 109.614 300.913 109.64 300.912 109.665V112.17C300.897 112.869 300.61 113.536 300.111 114.026C299.612 114.517 298.941 114.793 298.241 114.796Z" fill="white"/>
<path d="M298.417 114.608H298.053V116.804H298.417V114.608Z" fill="white"/>
<path d="M298.164 116.473H298.318C298.748 116.473 299.161 116.644 299.465 116.948C299.769 117.252 299.94 117.665 299.94 118.095H296.52C296.52 117.665 296.69 117.252 296.995 116.948C297.299 116.644 297.711 116.473 298.142 116.473H298.164Z" fill="white"/>
<path d="M314.476 112.244C314.476 110.605 314.75 109.326 315.3 108.407C315.859 107.478 316.816 107.014 318.17 107.014C319.525 107.014 320.477 107.478 321.026 108.407C321.585 109.326 321.865 110.605 321.865 112.244C321.865 113.901 321.585 115.199 321.026 116.137C320.477 117.065 319.525 117.53 318.17 117.53C316.816 117.53 315.859 117.065 315.3 116.137C314.75 115.199 314.476 113.901 314.476 112.244ZM320.273 112.244C320.273 111.476 320.221 110.827 320.117 110.297C320.022 109.766 319.823 109.335 319.52 109.004C319.217 108.663 318.767 108.492 318.17 108.492C317.573 108.492 317.123 108.663 316.82 109.004C316.517 109.335 316.313 109.766 316.209 110.297C316.115 110.827 316.067 111.476 316.067 112.244C316.067 113.039 316.115 113.707 316.209 114.247C316.304 114.787 316.503 115.223 316.806 115.554C317.119 115.886 317.573 116.052 318.17 116.052C318.767 116.052 319.217 115.886 319.52 115.554C319.833 115.223 320.036 114.787 320.131 114.247C320.226 113.707 320.273 113.039 320.273 112.244ZM324.446 117.658C324.152 117.658 323.906 117.558 323.707 117.359C323.508 117.16 323.408 116.914 323.408 116.62C323.408 116.327 323.508 116.08 323.707 115.881C323.906 115.682 324.152 115.583 324.446 115.583C324.73 115.583 324.972 115.682 325.17 115.881C325.369 116.08 325.469 116.327 325.469 116.62C325.469 116.914 325.369 117.16 325.17 117.359C324.972 117.558 324.73 117.658 324.446 117.658ZM326.978 109.757C327.035 108.876 327.371 108.189 327.987 107.696C328.612 107.204 329.408 106.957 330.374 106.957C331.037 106.957 331.611 107.076 332.094 107.313C332.577 107.549 332.942 107.872 333.188 108.279C333.434 108.686 333.557 109.146 333.557 109.657C333.557 110.245 333.401 110.747 333.088 111.164C332.776 111.58 332.402 111.86 331.966 112.002V112.059C332.525 112.229 332.961 112.542 333.273 112.997C333.586 113.442 333.742 114.015 333.742 114.716C333.742 115.275 333.614 115.772 333.358 116.208C333.103 116.644 332.724 116.99 332.222 117.245C331.72 117.492 331.118 117.615 330.417 117.615C329.394 117.615 328.551 117.354 327.888 116.833C327.234 116.303 326.883 115.545 326.836 114.56H328.399C328.437 115.062 328.631 115.474 328.982 115.796C329.332 116.109 329.806 116.265 330.403 116.265C330.981 116.265 331.426 116.109 331.738 115.796C332.051 115.474 332.207 115.062 332.207 114.56C332.207 113.897 331.994 113.428 331.568 113.153C331.151 112.869 330.507 112.727 329.635 112.727H329.266V111.391H329.65C330.417 111.381 331 111.254 331.397 111.007C331.805 110.761 332.008 110.373 332.008 109.842C332.008 109.387 331.862 109.027 331.568 108.762C331.274 108.487 330.857 108.35 330.317 108.35C329.787 108.35 329.375 108.487 329.081 108.762C328.788 109.027 328.612 109.359 328.555 109.757H326.978ZM335.444 112.244C335.444 110.605 335.718 109.326 336.268 108.407C336.827 107.478 337.784 107.014 339.138 107.014C340.493 107.014 341.445 107.478 341.995 108.407C342.553 109.326 342.833 110.605 342.833 112.244C342.833 113.901 342.553 115.199 341.995 116.137C341.445 117.065 340.493 117.53 339.138 117.53C337.784 117.53 336.827 117.065 336.268 116.137C335.718 115.199 335.444 113.901 335.444 112.244ZM341.241 112.244C341.241 111.476 341.189 110.827 341.085 110.297C340.99 109.766 340.791 109.335 340.488 109.004C340.185 108.663 339.735 108.492 339.138 108.492C338.542 108.492 338.092 108.663 337.788 109.004C337.485 109.335 337.282 109.766 337.177 110.297C337.083 110.827 337.035 111.476 337.035 112.244C337.035 113.039 337.083 113.707 337.177 114.247C337.272 114.787 337.471 115.223 337.774 115.554C338.087 115.886 338.542 116.052 339.138 116.052C339.735 116.052 340.185 115.886 340.488 115.554C340.801 115.223 341.005 114.787 341.099 114.247C341.194 113.707 341.241 113.039 341.241 112.244Z" fill="#31374C"/>
<path d="M161.67 29.0769C164.37 29.0769 166.558 26.8883 166.558 24.1885C166.558 21.4887 164.37 19.3 161.67 19.3C158.97 19.3 156.781 21.4887 156.781 24.1885C156.781 26.8883 158.97 29.0769 161.67 29.0769Z" fill="white"/>
<path d="M158.649 30.2245H164.696C165.779 30.2245 166.818 30.6547 167.583 31.4204C168.349 32.1861 168.779 33.2246 168.779 34.3075V36.4041H154.566V34.3075C154.566 33.2246 154.997 32.1861 155.762 31.4204C156.528 30.6547 157.566 30.2245 158.649 30.2245Z" fill="white"/>
<path d="M161.674 42.8043C158.713 42.8065 155.819 41.9305 153.356 40.2872C150.894 38.6438 148.974 36.307 147.84 33.5724C146.706 30.8377 146.409 27.8282 146.986 24.9246C147.563 22.021 148.989 19.3537 151.082 17.2604C153.175 15.1671 155.842 13.7418 158.746 13.1648C161.65 12.5878 164.659 12.885 167.394 14.0189C170.128 15.1528 172.465 17.0724 174.109 19.5348C175.752 21.9972 176.628 24.8917 176.626 27.8521C176.62 31.8159 175.043 35.6157 172.24 38.4185C169.437 41.2213 165.637 42.7985 161.674 42.8043ZM161.674 14.4337C159.022 14.4424 156.432 15.2368 154.231 16.7165C152.03 18.1963 150.317 20.295 149.308 22.7476C148.299 25.2003 148.04 27.8969 148.563 30.4969C149.085 33.0969 150.367 35.4837 152.245 37.3558C154.123 39.228 156.514 40.5016 159.116 41.0158C161.718 41.53 164.414 41.2617 166.863 40.2448C169.312 39.2279 171.405 37.508 172.878 35.3024C174.35 33.0967 175.136 30.5041 175.136 27.8521C175.135 26.0867 174.785 24.3388 174.108 22.7086C173.43 21.0784 172.437 19.5978 171.187 18.3515C169.937 17.1052 168.453 16.1176 166.82 15.4454C165.188 14.7731 163.439 14.4293 161.674 14.4337Z" fill="white"/>
<path d="M421.984 180.707C424.684 180.707 426.873 178.518 426.873 175.819C426.873 173.119 424.684 170.93 421.984 170.93C419.284 170.93 417.096 173.119 417.096 175.819C417.096 178.518 419.284 180.707 421.984 180.707Z" fill="#E6EDFC"/>
<path d="M419.005 181.855H425.052C426.135 181.855 427.173 182.285 427.939 183.051C428.705 183.816 429.135 184.855 429.135 185.938V188.034H414.889V185.938C414.889 184.855 415.319 183.816 416.085 183.051C416.85 182.285 417.889 181.855 418.972 181.855H419.005Z" fill="#E6EDFC"/>
<path d="M421.984 194.434C419.026 194.434 416.135 193.558 413.676 191.915C411.218 190.272 409.301 187.936 408.169 185.204C407.038 182.472 406.742 179.466 407.319 176.565C407.896 173.665 409.32 171 411.411 168.909C413.502 166.818 416.166 165.394 419.066 164.817C421.967 164.24 424.973 164.536 427.705 165.668C430.438 166.8 432.773 168.716 434.416 171.175C436.059 173.634 436.936 176.525 436.936 179.482C436.93 183.446 435.353 187.246 432.55 190.049C429.747 192.851 425.947 194.429 421.984 194.434ZM421.984 166.075C419.332 166.077 416.741 166.865 414.538 168.34C412.334 169.814 410.618 171.909 409.605 174.359C408.591 176.809 408.328 179.505 408.846 182.105C409.365 184.705 410.643 187.093 412.518 188.967C414.393 190.84 416.782 192.116 419.383 192.633C421.983 193.149 424.679 192.883 427.128 191.868C429.577 190.853 431.67 189.134 433.143 186.93C434.616 184.725 435.402 182.133 435.402 179.482C435.399 175.925 433.984 172.515 431.468 170.001C428.952 167.487 425.54 166.075 421.984 166.075Z" fill="#E6EDFC"/>
<path d="M294.058 181.689C294.058 181.689 289.489 186.92 294.058 193.684" stroke="#BECDE5" stroke-width="1.29" stroke-miterlimit="10" stroke-linecap="round"/>
<path d="M289.48 178.301C289.48 178.301 282.362 186.445 289.48 196.961" stroke="#BECDE5" stroke-width="1.29" stroke-miterlimit="10" stroke-linecap="round"/>
<path d="M283.885 174.627C283.885 174.627 273.953 185.971 283.885 200.647" stroke="#BECDE5" stroke-width="1.29" stroke-miterlimit="10" stroke-linecap="round"/>
<path d="M227.516 334.986H94.4023C88.119 334.986 83.0254 340.079 83.0254 346.363V346.374C83.0254 352.657 88.119 357.751 94.4023 357.751H227.516C233.799 357.751 238.893 352.657 238.893 346.374V346.363C238.893 340.079 233.799 334.986 227.516 334.986Z" fill="white"/>
<path d="M222.232 353.237C226.029 353.237 229.107 350.159 229.107 346.363C229.107 342.566 226.029 339.488 222.232 339.488C218.435 339.488 215.357 342.566 215.357 346.363C215.357 350.159 218.435 353.237 222.232 353.237Z" fill="#FFBF00"/>
<path d="M223.347 342.92C223.347 342.298 222.846 341.794 222.227 341.794C221.609 341.794 221.107 342.298 221.107 342.92V346.363C221.107 346.984 221.609 347.488 222.227 347.488C222.846 347.488 223.347 346.984 223.347 346.363V342.92Z" fill="white"/>
<path d="M222.23 348.481C221.7 348.481 221.192 348.271 220.817 347.896C220.443 347.522 220.232 347.014 220.232 346.484V344.619C220.232 344.601 220.236 344.583 220.243 344.566C220.251 344.549 220.262 344.534 220.275 344.521C220.289 344.509 220.304 344.499 220.322 344.493C220.339 344.487 220.358 344.485 220.376 344.487C220.411 344.487 220.445 344.501 220.47 344.525C220.494 344.55 220.508 344.584 220.508 344.619V346.484C220.508 346.94 220.69 347.378 221.013 347.701C221.335 348.024 221.773 348.205 222.23 348.205C222.686 348.205 223.124 348.024 223.447 347.701C223.77 347.378 223.951 346.94 223.951 346.484V344.619C223.951 344.584 223.965 344.55 223.99 344.525C224.015 344.501 224.048 344.487 224.084 344.487C224.102 344.485 224.12 344.487 224.138 344.493C224.155 344.499 224.171 344.509 224.184 344.521C224.198 344.534 224.209 344.549 224.216 344.566C224.223 344.583 224.227 344.601 224.227 344.619V346.484C224.224 347.013 224.013 347.519 223.639 347.893C223.265 348.267 222.759 348.478 222.23 348.481Z" fill="white"/>
<path d="M222.366 348.349H222.09V349.993H222.366V348.349Z" fill="white"/>
<path d="M222.175 349.739H222.285C222.607 349.739 222.916 349.867 223.143 350.095C223.371 350.322 223.499 350.631 223.499 350.953H220.961C220.961 350.631 221.089 350.322 221.316 350.095C221.544 349.867 221.853 349.739 222.175 349.739Z" fill="white"/>
<path d="M95.7148 346.506H194.411" stroke="#FFBF00" stroke-width="1.14" stroke-miterlimit="10" stroke-linecap="round" stroke-dasharray="0.06 5.5"/>
</svg>
