<svg width="639" height="421" viewBox="0 0 639 421" fill="none" xmlns="http://www.w3.org/2000/svg">
<path d="M59.8477 266.944V257.932V41.0204C59.8477 18.9177 77.7661 1 99.868 1H597.763C619.865 1 637.784 18.9177 637.784 41.0204V321.075C637.784 343.178 619.865 361.095 597.763 361.095H246.407H209.29H206.63H78.9575" stroke="black" stroke-width="1.2" stroke-linecap="round" stroke-linejoin="round"/>
<path fill-rule="evenodd" clip-rule="evenodd" d="M12.1272 151.225H27.4239C32.5812 151.225 36.762 155.406 36.762 160.563V176.099C36.762 181.257 32.5812 185.438 27.4239 185.438H12.1272C6.96986 185.438 2.78906 181.257 2.78906 176.099V160.563C2.78906 155.406 6.96986 151.225 12.1272 151.225Z" fill="#FF90B3" stroke="black" stroke-width="1.2" stroke-linecap="round" stroke-linejoin="round"/>
<path fill-rule="evenodd" clip-rule="evenodd" d="M12.0547 168.553C12.0547 164.236 15.5406 160.736 19.8408 160.736C24.1408 160.736 27.6268 164.236 27.6268 168.553C27.6268 172.871 24.1408 176.372 19.8408 176.372C15.5406 176.372 12.0547 172.871 12.0547 168.553Z" fill="#EEEBFF" stroke="black" stroke-width="1.2" stroke-linecap="round" stroke-linejoin="round"/>
<path fill-rule="evenodd" clip-rule="evenodd" d="M28.0664 158.729C28.0664 157.899 28.7122 157.226 29.5089 157.226C30.3055 157.226 30.9514 157.899 30.9514 158.729C30.9514 159.559 30.3055 160.231 29.5089 160.231C28.7122 160.231 28.0664 159.559 28.0664 158.729Z" stroke="black" stroke-width="1.2" stroke-linecap="round" stroke-linejoin="round"/>
<path fill-rule="evenodd" clip-rule="evenodd" d="M1.12109 229.204C1.12109 218.852 9.47842 210.461 19.7875 210.461C30.0969 210.461 38.4541 218.852 38.4541 229.204C38.4541 239.554 30.0969 247.945 19.7875 247.945C9.47842 247.945 1.12109 239.554 1.12109 229.204Z" stroke="black" stroke-width="1.2" stroke-linecap="round" stroke-linejoin="round"/>
<path d="M19.6562 211.091L19.7083 247.883" stroke="black" stroke-width="1.2" stroke-linecap="round" stroke-linejoin="round"/>
<path d="M19.4461 211.039C2.75796 220.128 8.83559 243.711 19.4981 247.831" stroke="black" stroke-width="1.2" stroke-linecap="round" stroke-linejoin="round"/>
<path d="M20.3841 210.94C37.0722 220.03 30.9945 243.614 20.332 247.733" stroke="black" stroke-width="1.2" stroke-linecap="round" stroke-linejoin="round"/>
<path d="M38.2289 228.624L1.45312 229.733" stroke="black" stroke-width="1.2" stroke-linecap="round" stroke-linejoin="round"/>
<path d="M34.2142 217.292C25.8779 225.235 12.7648 223.298 5.58984 217.622" stroke="black" stroke-width="1.2" stroke-linecap="round" stroke-linejoin="round"/>
<path d="M33.9703 241.181C25.6779 233.238 12.2437 234.981 5.18359 240.663" stroke="black" stroke-width="1.2" stroke-linecap="round" stroke-linejoin="round"/>
<path fill-rule="evenodd" clip-rule="evenodd" d="M5.79672 94.4039C5.79672 94.4039 8.90391 99.8258 14.9497 101.769C20.4425 103.534 23.8581 101.381 23.8581 101.381C23.8581 101.381 24.4135 96.5643 27.4407 94.1677C33.2506 89.5683 38.6156 94.8756 38.6156 94.8756L42.0659 92.5903L40.9474 96.0554L44.2674 96.4577L39.8467 98.5706C39.8467 98.5706 40.9557 111.975 31.5077 119.973C23.6159 126.654 13.325 126.329 8.19781 124.744C5.11398 123.79 4.00781 122.443 4.00781 122.443C4.00781 122.443 8.18328 123.048 11.3185 121.813C16.1116 119.924 16.3053 116.923 16.3053 116.923C16.3053 116.923 13.4972 117.116 10.9312 116.149C8.36523 115.18 7.39687 113.098 7.39687 113.098C7.39687 113.098 8.7525 112.904 9.62401 112.518C10.4954 112.129 10.8828 111.21 10.8828 111.21C10.8828 111.21 7.7804 110.136 6.44159 108.462C4.89387 106.528 4.49752 104.016 4.49752 104.016C4.49752 104.016 5.94053 104.664 7.17542 104.803C8.41045 104.94 9.43751 104.571 9.43751 104.571C9.43751 104.571 6.6741 102.718 5.86115 100.143C4.70043 96.4674 5.79672 94.4039 5.79672 94.4039Z" fill="#6DB7F7" stroke="black" stroke-width="1.2" stroke-linecap="round" stroke-linejoin="round"/>
<path fill-rule="evenodd" clip-rule="evenodd" d="M7.32812 46.983C7.32812 36.7818 16.0275 28.5121 26.7588 28.5121C37.49 28.5121 46.1895 36.7818 46.1895 46.983C46.1895 56.4928 38.6295 64.324 28.9111 65.342L28.8978 50.9513L33.2275 50.8054L33.289 45.7024H28.5241C28.5241 45.7024 27.9869 42.5816 29.1697 40.9067C30.3524 39.232 33.6271 39.5849 33.6271 39.5849L33.6886 34.3897C33.6886 34.3897 26.8333 33.4675 24.0973 37.4023C22.5073 39.689 22.7551 45.7424 22.7551 45.7424L18.0868 45.8492L18.0992 51.0858L22.5371 51.1541L22.6467 65.0396C13.8904 63.2461 7.32812 55.8431 7.32812 46.983Z" fill="#4C6CA9" stroke="black" stroke-width="1.2" stroke-linecap="round" stroke-linejoin="round"/>
<path opacity="0.5" fill-rule="evenodd" clip-rule="evenodd" d="M120.135 144.61H328.181C334.272 144.61 339.209 149.548 339.209 155.64V220.569C339.209 226.661 334.272 231.598 328.181 231.598H120.135C114.044 231.598 109.105 226.661 109.105 220.569V155.64C109.105 149.548 114.044 144.61 120.135 144.61Z" fill="#A5DFFF" stroke="black" stroke-width="1.2" stroke-linecap="round" stroke-linejoin="round"/>
<path fill-rule="evenodd" clip-rule="evenodd" d="M128.582 187.074C128.582 170.522 142.209 157.102 159.019 157.102C175.829 157.102 189.456 170.522 189.456 187.074C189.456 203.628 175.829 217.047 159.019 217.047C142.209 217.047 128.582 203.628 128.582 187.074Z" fill="white" stroke="black" stroke-width="1.2" stroke-linecap="round" stroke-linejoin="round"/>
<path fill-rule="evenodd" clip-rule="evenodd" d="M150.098 173.92C150.098 168.878 154.168 164.792 159.188 164.792C164.208 164.792 168.278 168.878 168.278 173.92C168.278 178.96 164.208 183.046 159.188 183.046C154.168 183.046 150.098 178.96 150.098 173.92Z" fill="#32CD32" stroke="black" stroke-width="1.2" stroke-linecap="round" stroke-linejoin="round"/>
<path fill-rule="evenodd" clip-rule="evenodd" d="M140.312 194.143C141.588 190.552 149.366 185.83 159.003 185.892C170.1 185.966 176.161 189.909 177.548 193.267C178.936 196.626 178.204 204 178.204 204H139.654C139.654 204 139.143 197.429 140.312 194.143Z" fill="#32CD32" stroke="black" stroke-width="1.2" stroke-linecap="round" stroke-linejoin="round"/>
<path fill-rule="evenodd" clip-rule="evenodd" d="M216.402 170.95L217.413 164.952L213.047 160.72L219.063 159.83L221.739 154.368L224.446 159.815L230.466 160.673L226.123 164.93L227.167 170.921L221.777 168.105L216.402 170.95Z" fill="#32CD32" stroke="black" stroke-width="1.2" stroke-linecap="round" stroke-linejoin="round"/>
<path fill-rule="evenodd" clip-rule="evenodd" d="M237.901 171.15L238.913 165.154L234.547 160.92L240.562 160.03L243.238 154.568L245.945 160.015L251.965 160.873L247.622 165.13L248.666 171.121L243.275 168.305L237.901 171.15Z" fill="#32CD32" stroke="black" stroke-width="1.2" stroke-linecap="round" stroke-linejoin="round"/>
<path fill-rule="evenodd" clip-rule="evenodd" d="M260.069 171.083L261.081 165.087L256.715 160.853L262.73 159.963L265.406 154.502L268.113 159.948L274.133 160.806L269.789 165.063L270.834 171.054L265.443 168.238L260.069 171.083Z" fill="#32CD32" stroke="black" stroke-width="1.2" stroke-linecap="round" stroke-linejoin="round"/>
<path fill-rule="evenodd" clip-rule="evenodd" d="M281.57 171.284L282.581 165.287L278.215 161.054L284.231 160.163L286.907 154.702L289.614 160.149L295.634 161.006L291.291 165.263L292.335 171.254L286.945 168.439L281.57 171.284Z" fill="#32CD32" stroke="black" stroke-width="1.2" stroke-linecap="round" stroke-linejoin="round"/>
<path fill-rule="evenodd" clip-rule="evenodd" d="M303.33 171.017L304.343 165.019L299.977 160.786L305.992 159.896L308.669 154.435L311.374 159.882L317.395 160.74L313.051 164.996L313.914 169.943L314.096 170.987L308.706 168.171L303.33 171.017Z" fill="#32CD32" stroke="black" stroke-width="1.2" stroke-linecap="round" stroke-linejoin="round"/>
<path d="M317.902 199.63H212.832" stroke="black" stroke-width="1.2" stroke-linecap="round" stroke-linejoin="round"/>
<path d="M212.734 182.379H317.804" stroke="black" stroke-width="1.2" stroke-linecap="round" stroke-linejoin="round"/>
<path d="M318.003 216.695H212.934" stroke="black" stroke-width="1.2" stroke-linecap="round" stroke-linejoin="round"/>
<path opacity="0.5" fill-rule="evenodd" clip-rule="evenodd" d="M120.135 35.2155H328.181C334.272 35.2155 339.209 40.1534 339.209 46.2447V111.174C339.209 117.265 334.272 122.204 328.181 122.204H120.135C114.044 122.204 109.105 117.265 109.105 111.174V46.2447C109.105 40.1534 114.044 35.2155 120.135 35.2155Z" fill="#FFB890" stroke="black" stroke-width="1.2" stroke-linecap="round" stroke-linejoin="round"/>
<path fill-rule="evenodd" clip-rule="evenodd" d="M128.582 77.6796C128.582 61.1264 142.209 47.7072 159.019 47.7072C175.829 47.7072 189.456 61.1264 189.456 77.6796C189.456 94.233 175.829 107.652 159.019 107.652C142.209 107.652 128.582 94.233 128.582 77.6796Z" fill="white" stroke="black" stroke-width="1.2" stroke-linecap="round" stroke-linejoin="round"/>
<path fill-rule="evenodd" clip-rule="evenodd" d="M150.098 64.5241C150.098 59.4837 154.168 55.3976 159.188 55.3976C164.208 55.3976 168.278 59.4837 168.278 64.5241C168.278 69.5644 164.208 73.6505 159.188 73.6505C154.168 73.6505 150.098 69.5644 150.098 64.5241Z" fill="#32CD32" stroke="black" stroke-width="1.2" stroke-linecap="round" stroke-linejoin="round"/>
<path fill-rule="evenodd" clip-rule="evenodd" d="M140.312 84.7483C141.588 81.1573 149.366 76.4346 159.003 76.4979C170.1 76.571 176.161 80.5136 177.548 83.8721C178.936 87.2308 178.204 94.6049 178.204 94.6049H139.654C139.654 94.6049 139.143 88.0338 140.312 84.7483Z" fill="#32CD32" stroke="black" stroke-width="1.2" stroke-linecap="round" stroke-linejoin="round"/>
<path fill-rule="evenodd" clip-rule="evenodd" d="M216.402 61.5544L217.413 55.5579L213.047 51.3248L219.063 50.4341L221.739 44.9734L224.446 50.4194L230.466 51.2776L226.123 55.5342L227.167 61.5252L221.777 58.7099L216.402 61.5544Z" fill="#32CD32" stroke="black" stroke-width="1.2" stroke-linecap="round" stroke-linejoin="round"/>
<path fill-rule="evenodd" clip-rule="evenodd" d="M237.901 61.7547L238.913 55.7582L234.547 51.5252L240.562 50.6344L243.238 45.1737L245.945 50.6197L251.965 51.4779L247.622 55.7346L248.666 61.7256L243.275 58.9103L237.901 61.7547Z" fill="#32CD32" stroke="black" stroke-width="1.2" stroke-linecap="round" stroke-linejoin="round"/>
<path fill-rule="evenodd" clip-rule="evenodd" d="M260.069 61.688L261.081 55.6915L256.715 51.4584L262.73 50.5677L265.406 45.1071L268.113 50.553L274.133 51.4112L269.789 55.6678L270.834 61.6588L265.443 58.8435L260.069 61.688Z" fill="#32CD32" stroke="black" stroke-width="1.2" stroke-linecap="round" stroke-linejoin="round"/>
<path fill-rule="evenodd" clip-rule="evenodd" d="M281.57 61.8882L282.581 55.8917L278.215 51.6587L284.231 50.7679L286.907 45.3073L289.614 50.7532L295.634 51.6114L291.291 55.8681L292.335 61.8591L286.945 59.0439L281.57 61.8882Z" fill="#32CD32" stroke="black" stroke-width="1.2" stroke-linecap="round" stroke-linejoin="round"/>
<path fill-rule="evenodd" clip-rule="evenodd" d="M303.33 61.6213L304.343 55.6247L299.977 51.3917L305.992 50.5009L308.669 45.0402L311.374 50.4863L317.395 51.3444L313.051 55.6011L313.914 60.5476L314.096 61.5921L308.706 58.7768L303.33 61.6213Z" fill="#32CD32" stroke="black" stroke-width="1.2" stroke-linecap="round" stroke-linejoin="round"/>
<path d="M317.902 90.2347H212.832" stroke="black" stroke-width="1.2" stroke-linecap="round" stroke-linejoin="round"/>
<path d="M212.734 72.9835H317.804" stroke="black" stroke-width="1.2" stroke-linecap="round" stroke-linejoin="round"/>
<path d="M318.003 107.3H212.934" stroke="black" stroke-width="1.2" stroke-linecap="round" stroke-linejoin="round"/>
<path d="M383.242 50.3344C386.046 49.7575 388.929 44.7797 389.904 42.7602C390.829 40.8431 392.097 37.9187 392.252 36.1892C392.543 32.9451 390.721 27.5266 395.951 29.0015C396.69 29.2099 399.765 33.9768 399.592 38.6388C399.424 43.1666 398.774 46.4693 398.774 46.4693C398.774 46.4693 407.102 46.6009 407.281 46.6189C410.356 46.9266 411.318 46.9325 412.417 47.8048C413.271 48.4809 413.731 49.6249 413.732 50.7378C413.732 51.8291 412.935 53.1458 412.935 53.1458C412.935 53.1458 413.816 53.3659 414.482 54.1179C415.149 54.87 415.309 55.5094 415.013 56.8526C414.716 58.196 412.937 59.2526 412.968 59.3965C412.983 59.4672 413.915 60.3577 414.003 60.4511C414.543 61.0176 414.784 62.1984 414.636 62.956C414.469 63.8176 413.9 64.5632 413.196 65.0672C413.108 65.1303 411.298 65.9893 411.294 66.0172C411.223 66.6112 411.59 67.4482 411.324 68.7574C410.92 70.7496 409.825 71.2698 407.172 71.8078C405.101 72.2275 398.791 71.9678 394.817 71.7303C388.724 71.3664 390.371 69.4916 384.828 68.8291" stroke="black" stroke-width="1.2" stroke-linecap="round" stroke-linejoin="round"/>
<path fill-rule="evenodd" clip-rule="evenodd" d="M387.746 306.651C387.746 294.273 397.935 284.237 410.504 284.237C423.075 284.237 433.264 294.273 433.264 306.651C433.264 319.03 423.075 329.065 410.504 329.065C397.935 329.065 387.746 319.03 387.746 306.651Z" fill="#32CD32" stroke="black" stroke-width="1.2" stroke-linecap="round" stroke-linejoin="round"/>
<path d="M422.262 316.144C419.474 319.491 415.241 321.626 410.501 321.626C405.915 321.626 401.804 319.626 399.016 316.464" stroke="black" stroke-width="1.2" stroke-linecap="round" stroke-linejoin="round"/>
<path fill-rule="evenodd" clip-rule="evenodd" d="M398.672 302.997C398.672 301.651 399.712 300.559 400.996 300.559C402.279 300.559 403.32 301.651 403.32 302.997C403.32 304.345 402.279 305.436 400.996 305.436C399.712 305.436 398.672 304.345 398.672 302.997Z" fill="black"/>
<path fill-rule="evenodd" clip-rule="evenodd" d="M416.73 302.997C416.73 301.651 417.771 300.559 419.054 300.559C420.338 300.559 421.378 301.651 421.378 302.997C421.378 304.345 420.338 305.436 419.054 305.436C417.771 305.436 416.73 304.345 416.73 302.997Z" fill="black"/>
<path fill-rule="evenodd" clip-rule="evenodd" d="M469.348 306.946C469.348 294.568 479.538 284.533 492.107 284.533C504.678 284.533 514.867 294.568 514.867 306.946C514.867 319.326 504.678 329.36 492.107 329.36C479.538 329.36 469.348 319.326 469.348 306.946Z" fill="#A49DFA" stroke="black" stroke-width="1.2" stroke-linecap="round" stroke-linejoin="round"/>
<path d="M499.097 316.439L484.426 316.759" stroke="black" stroke-width="1.2" stroke-linecap="round" stroke-linejoin="round"/>
<path fill-rule="evenodd" clip-rule="evenodd" d="M480.273 303.292C480.273 301.946 481.314 300.855 482.597 300.855C483.881 300.855 484.921 301.946 484.921 303.292C484.921 304.64 483.881 305.731 482.597 305.731C481.314 305.731 480.273 304.64 480.273 303.292Z" fill="black"/>
<path fill-rule="evenodd" clip-rule="evenodd" d="M498.336 303.292C498.336 301.946 499.376 300.855 500.66 300.855C501.943 300.855 502.984 301.946 502.984 303.292C502.984 304.64 501.943 305.731 500.66 305.731C499.376 305.731 498.336 304.64 498.336 303.292Z" fill="black"/>
<path d="M505.062 297.692H497.344" stroke="black" stroke-width="1.2" stroke-linecap="round" stroke-linejoin="round"/>
<path d="M478.402 297.763H486.121" stroke="black" stroke-width="1.2" stroke-linecap="round" stroke-linejoin="round"/>
<path fill-rule="evenodd" clip-rule="evenodd" d="M549.781 306.589C549.781 294.21 559.972 284.174 572.541 284.174C585.11 284.174 595.3 294.21 595.3 306.589C595.3 318.967 585.11 329.003 572.541 329.003C559.972 329.003 549.781 318.967 549.781 306.589Z" fill="#FFBF00" stroke="black" stroke-width="1.2" stroke-linecap="round" stroke-linejoin="round"/>
<path d="M584.223 319.4C581.435 316.053 577.202 313.919 572.462 313.919C567.876 313.919 563.765 315.919 560.977 319.08" stroke="black" stroke-width="1.2" stroke-linecap="round" stroke-linejoin="round"/>
<path fill-rule="evenodd" clip-rule="evenodd" d="M560.711 302.935C560.711 301.587 561.751 300.496 563.035 300.496C564.318 300.496 565.359 301.587 565.359 302.935C565.359 304.281 564.318 305.373 563.035 305.373C561.751 305.373 560.711 304.281 560.711 302.935Z" fill="black"/>
<path fill-rule="evenodd" clip-rule="evenodd" d="M578.766 302.935C578.766 301.587 579.806 300.496 581.089 300.496C582.373 300.496 583.413 301.587 583.413 302.935C583.413 304.281 582.373 305.373 581.089 305.373C579.806 305.373 578.766 304.281 578.766 302.935Z" fill="black"/>
<path d="M507.328 235.263C507.157 233.651 507.07 232.015 507.07 230.358C507.07 205.341 526.988 185.063 551.558 185.063C576.13 185.063 596.048 205.341 596.048 230.358C596.048 232.001 595.962 233.625 595.794 235.223" stroke="black" stroke-width="1.2" stroke-linecap="round" stroke-linejoin="round"/>
<path fill-rule="evenodd" clip-rule="evenodd" d="M580.436 200.963C580.944 201.387 553.875 231.557 552.396 233.186C550.916 234.815 546.737 231.171 548.535 229.324C551.338 226.442 579.926 200.539 580.436 200.963Z" fill="#586580" stroke="black" stroke-width="1.2" stroke-linecap="round" stroke-linejoin="round"/>
<path d="M587.164 229.888H595.283" stroke="black" stroke-width="1.2" stroke-linecap="round" stroke-linejoin="round"/>
<path d="M507.48 229.888H515.711" stroke="black" stroke-width="1.2" stroke-linecap="round" stroke-linejoin="round"/>
<path d="M552.262 185.747L552.29 193.976" stroke="black" stroke-width="1.2" stroke-linecap="round" stroke-linejoin="round"/>
<path d="M517.875 201.161L517.876 201.163L518.297 201.498L523.879 205.968" stroke="black" stroke-width="1.2" stroke-linecap="round" stroke-linejoin="round"/>
<path d="M509.82 214.84L517.678 217.292" stroke="black" stroke-width="1.2" stroke-linecap="round" stroke-linejoin="round"/>
<path d="M533.184 189.306L536.364 196.897" stroke="black" stroke-width="1.2" stroke-linecap="round" stroke-linejoin="round"/>
<path d="M585.407 201.304L584.838 201.76L579.402 206.112" stroke="black" stroke-width="1.2" stroke-linecap="round" stroke-linejoin="round"/>
<path d="M593.075 214.647L592.306 214.887L585.523 217.004" stroke="black" stroke-width="1.2" stroke-linecap="round" stroke-linejoin="round"/>
<path d="M569.996 189.668L569.987 189.692L569.759 190.236L567.059 196.681" stroke="black" stroke-width="1.2" stroke-linecap="round" stroke-linejoin="round"/>
<path fill-rule="evenodd" clip-rule="evenodd" d="M502.477 79.3554L549.275 79.4607C548.904 91.5343 543.839 103.213 536.529 111.759L502.477 79.3554Z" fill="#FF7E46" stroke="black" stroke-width="1.2" stroke-linecap="round" stroke-linejoin="round"/>
<path fill-rule="evenodd" clip-rule="evenodd" d="M448.086 77.8553C448.086 50.8549 468.942 28.7592 495.318 27.0103L495.701 78.9772L532.953 115.36C523.939 123.711 511.908 128.811 498.693 128.811C470.744 128.811 448.086 105.998 448.086 77.8553Z" fill="#32CD32" stroke="black" stroke-width="1.2" stroke-linecap="round" stroke-linejoin="round"/>
<path fill-rule="evenodd" clip-rule="evenodd" d="M500.462 74.6472L500.398 26.9272C526.604 27.8012 547.764 48.736 549.219 74.9683L500.462 74.6472Z" fill="#FFBF00" stroke="black" stroke-width="1.2" stroke-linecap="round" stroke-linejoin="round"/>
<path d="M456.831 234.663H391.402L391.254 167.909" stroke="black" stroke-width="1.2" stroke-linecap="round" stroke-linejoin="round"/>
<path d="M403.051 214.148L417.261 200.987L423.217 207.318L434.548 197.014L439.596 202.014L456.103 187.316" stroke="black" stroke-width="1.2" stroke-linecap="round" stroke-linejoin="round"/>
<path d="M444.457 188.456L456.562 186.9L454.319 198.397" stroke="black" stroke-width="1.2" stroke-linecap="round" stroke-linejoin="round"/>
<path fill-rule="evenodd" clip-rule="evenodd" d="M239.403 314.503L240.986 305.117L234.152 298.491L243.569 297.097L247.758 288.55L251.993 297.073L261.417 298.416L254.619 305.08L256.254 314.457L247.817 310.05L239.403 314.503Z" fill="#32CD32" stroke="black" stroke-width="1.2" stroke-linecap="round" stroke-linejoin="round"/>
<path fill-rule="evenodd" clip-rule="evenodd" d="M205.977 314.664L207.561 305.277L200.727 298.651L210.143 297.257L214.332 288.71L218.568 297.233L227.991 298.577L221.193 305.24L222.828 314.617L214.391 310.211L205.977 314.664Z" fill="#32CD32" stroke="black" stroke-width="1.2" stroke-linecap="round" stroke-linejoin="round"/>
<path fill-rule="evenodd" clip-rule="evenodd" d="M173.743 314.664L175.326 305.277L168.492 298.651L177.909 297.257L182.098 288.71L186.333 297.233L195.757 298.577L188.959 305.24L190.594 314.617L182.156 310.211L173.743 314.664Z" fill="#32CD32" stroke="black" stroke-width="1.2" stroke-linecap="round" stroke-linejoin="round"/>
<path fill-rule="evenodd" clip-rule="evenodd" d="M273.055 314.817L274.639 305.431L267.805 298.805L277.22 297.411L281.41 288.864L285.646 297.387L295.069 298.73L288.271 305.393L289.905 314.77L281.469 310.364L273.055 314.817Z" fill="#32CD32" stroke="black" stroke-width="1.2" stroke-linecap="round" stroke-linejoin="round"/>
<path fill-rule="evenodd" clip-rule="evenodd" d="M307.126 314.398L308.709 305.012L301.875 298.386L311.29 296.992L315.481 288.445L319.716 296.969L329.14 298.312L322.341 304.974L323.691 312.717L323.976 314.353L315.539 309.946L307.126 314.398Z" fill="#32CD32" stroke="black" stroke-width="1.2" stroke-linecap="round" stroke-linejoin="round"/>
<path fill-rule="evenodd" clip-rule="evenodd" d="M581.162 49.2176C581.06 42.8299 586.038 40.6099 590.15 41.4174C593.229 42.0216 596.124 45.5605 596.124 45.5605C596.124 45.5605 599.088 41.8083 602.935 41.5667C606.787 41.325 610.771 43.4194 610.431 49.6667C609.918 59.0984 595.995 69.4284 595.995 69.4284C595.995 69.4284 581.302 58.1359 581.162 49.2176Z" fill="#F96650" stroke="black" stroke-width="1.2" stroke-linecap="round" stroke-linejoin="round"/>
<path fill-rule="evenodd" clip-rule="evenodd" d="M370.397 47.2161H383.108C383.845 47.2161 384.442 47.8133 384.442 48.5501V70.2165C384.442 70.9533 383.845 71.5505 383.108 71.5505H370.397C369.66 71.5505 369.062 70.9533 369.062 70.2165V48.5501C369.062 47.8133 369.66 47.2161 370.397 47.2161Z" fill="#6388C4" stroke="black" stroke-width="1.2" stroke-linecap="round" stroke-linejoin="round"/>
<path d="M383.289 115.258C386.093 115.834 388.976 120.813 389.95 122.831C390.876 124.749 392.144 127.673 392.299 129.402C392.59 132.647 390.768 138.065 395.997 136.59C396.736 136.382 399.812 131.615 399.639 126.953C399.471 122.425 398.82 119.122 398.82 119.122C398.82 119.122 407.149 118.99 407.328 118.973C410.403 118.665 411.365 118.659 412.464 117.787C413.318 117.111 413.777 115.967 413.778 114.854C413.779 113.762 412.982 112.446 412.982 112.446C412.982 112.446 413.863 112.226 414.529 111.473C415.196 110.722 415.356 110.082 415.06 108.74C414.762 107.396 412.984 106.339 413.014 106.196C413.028 106.125 413.961 105.234 414.05 105.141C414.59 104.574 414.83 103.393 414.682 102.635C414.516 101.774 413.947 101.029 413.243 100.525C413.155 100.461 411.343 99.6031 411.341 99.5751C411.27 98.9801 411.637 98.1435 411.371 96.8343C410.967 94.8422 409.872 94.3219 407.219 93.7838C405.148 93.3642 398.838 93.6239 394.864 93.8613C388.771 94.2253 390.418 96.1001 384.875 96.7626" stroke="black" stroke-width="1.2" stroke-linecap="round" stroke-linejoin="round"/>
<path fill-rule="evenodd" clip-rule="evenodd" d="M370.443 118.375H383.155C383.892 118.375 384.489 117.778 384.489 117.041V95.3752C384.489 94.6384 383.892 94.0412 383.155 94.0412H370.443C369.706 94.0412 369.109 94.6384 369.109 95.3752V117.041C369.109 117.778 369.706 118.375 370.443 118.375Z" fill="#6388C4" stroke="black" stroke-width="1.2" stroke-linecap="round" stroke-linejoin="round"/>
<path d="M612.664 105.522V109.766C612.664 110.944 611.71 111.897 610.533 111.897H580.515C579.337 111.897 578.383 110.944 578.383 109.766V105.522" stroke="black" stroke-width="1.2" stroke-linecap="round" stroke-linejoin="round"/>
<path d="M595.285 106.244V84.3294" stroke="black" stroke-width="1.2" stroke-linecap="round" stroke-linejoin="round"/>
<path d="M589.922 100.574L595.363 107.112L600.731 100.637" stroke="black" stroke-width="1.2" stroke-linecap="round" stroke-linejoin="round"/>
<path fill-rule="evenodd" clip-rule="evenodd" d="M601.92 131.742L614.75 142.377L601.92 153.142V148.129C601.92 148.129 593.629 146.902 588.357 149.727C581.567 153.368 580.306 163.309 580.306 163.309C580.306 163.309 577.226 151.128 582.827 143.287C587.774 136.36 601.92 137.801 601.92 137.801V131.742Z" fill="#6388C4" stroke="black" stroke-width="1.2" stroke-linecap="round" stroke-linejoin="round"/>
<path fill-rule="evenodd" clip-rule="evenodd" d="M59.887 287.931L47.7921 291.741L46.554 293.391C46.554 293.391 45.7669 293.076 45.0302 293.391C42.6246 294.423 43.341 298.44 43.0302 302.026C42.5507 307.563 41.3182 313.259 41.4112 316.439C41.4467 317.652 42.8398 319.201 42.8398 319.201L41.7921 321.613C41.7921 321.613 41.8036 322.947 43.8239 325.487C45.8442 328.026 49.8873 331.772 49.8873 331.772L48.4906 347.995C48.4906 347.995 47.2188 361.762 47.5699 368.376C47.821 373.103 50.3953 374.407 50.3953 374.407C50.3953 374.407 47.9546 375.404 46.5858 379.137C45.2171 382.87 44.935 389.36 44.935 389.36C44.5979 397.737 44.7954 403.213 45.2207 405.835C45.5803 408.052 46.5223 408.375 46.5223 408.375L46.6811 411.201L45.8239 411.74C45.824 411.74 43.6016 416.955 44.2366 419.01C44.4663 419.754 46.7949 419.613 48.3635 419.708C51.8041 419.918 55.8239 419.486 55.8239 419.486C55.8239 419.486 55.8851 418.063 55.0937 416.947C53.8924 415.252 51.5975 413.39 50.935 411.359C50.5465 410.168 50.4906 408.693 50.4906 408.693L52.1096 407.74C52.1096 407.74 53.1372 397.517 54.6175 388.693C55.562 383.063 57.5084 377.758 57.8238 375.105C57.9733 373.847 57.0107 373.51 56.8399 373.455C56.9557 373.35 57.2827 372.494 58.3639 368.153C60.0558 361.354 63.506 346.185 63.506 346.185L65.2209 346.439C65.2209 346.439 65.7293 362.634 66.6813 369.804C67.124 373.141 70.2684 374.915 70.2684 374.915C70.2684 374.915 67.6121 377.046 67.0941 380.788C66.3475 386.176 68.0461 402.425 68.9981 407.359C69.1785 408.29 70.5221 408.566 70.5221 408.566C70.5221 408.566 70.8616 410.686 70.9349 411.137C71.0854 412.069 69.7919 411.613 69.7919 411.613C69.7919 411.614 68.2217 417.665 68.9663 419.01C69.2885 419.591 71.3044 419.528 74.0775 419.55C78.7179 419.586 83.3246 420.18 85.3155 418.978C85.5807 418.818 85.7659 417.738 83.6333 416.724C80.9721 415.46 75.8301 413.649 75.3159 411.105C75.2156 410.611 74.2684 411.169 74.2684 411.169C74.2684 411.169 74.2453 408.98 74.2684 408.788C74.2916 408.594 75.4616 407.613 75.506 407.264C75.8532 404.529 75.7895 397.667 76.3953 390.82C76.9393 384.667 78.1324 378.474 78.4266 376.121C78.9128 372.244 76.4589 372.661 76.4589 372.661C76.4589 372.661 76.9258 371.335 77.2209 369.074C77.7736 364.832 78.3427 357.543 78.6813 353.645C80.0818 337.517 76.8399 335.836 76.8399 335.836L101.856 327.233L78.2048 293.233L77.4109 292.344L68.3316 288.757L59.887 287.931ZM49.6242 310.078C49.8797 309.962 50.4392 315.22 50.57 315.468C51.0163 316.316 53.3424 317.187 53.3487 317.229C53.3897 317.507 53.1927 324.35 53.1516 324.073C53.1165 323.836 49.902 318.673 49.9126 318.7C49.9178 318.715 48.2762 317.706 48.2146 317.57C48.2146 317.57 49.3687 310.194 49.6242 310.078Z" fill="white"/>
<path fill-rule="evenodd" clip-rule="evenodd" d="M53.4453 317.409C53.4453 317.409 55.5216 317.764 57.4895 317.284C59.4572 316.806 61.3168 315.492 61.3168 315.492C61.3168 315.492 62.9865 317.898 65.3564 318.257C68.3629 318.712 70.8871 316.026 70.8871 316.026L72.8577 317.169L72.7063 322.326L57.0342 329.002L53.4453 324.507V317.409Z" fill="#586580"/>
<path fill-rule="evenodd" clip-rule="evenodd" d="M60.4446 284.812L67.8871 285.468L67.916 289.174C67.916 289.174 66.6139 293.35 65.0069 293.223C63.401 293.096 60.0742 289.202 60.0742 289.202L60.4446 284.812Z" fill="#586580"/>
<path fill-rule="evenodd" clip-rule="evenodd" d="M58.2276 275.648C58.2276 275.648 60.2291 275.269 61.1898 276.599C62.1505 277.929 62.0695 280.967 62.0695 280.967C62.0695 280.967 60.0497 281.931 58.3955 279.337C56.9072 277.002 58.2276 275.648 58.2276 275.648Z" fill="#586580"/>
<path fill-rule="evenodd" clip-rule="evenodd" d="M46.2461 293.537C46.2461 293.537 47.3582 291.199 49.126 293.737C49.8535 294.78 51.0851 297.326 51.3745 299.382C51.7489 302.042 51.065 304.172 51.065 304.172C51.065 304.172 50.2459 299.859 49.1545 297.101C48.0632 294.342 46.2461 293.537 46.2461 293.537Z" fill="#586580"/>
<path fill-rule="evenodd" clip-rule="evenodd" d="M41.3695 317.224L42.6299 319.235L41.9226 321.463C41.9226 321.463 40.3281 320.655 40.1899 319.595C40.0515 318.536 41.3695 317.224 41.3695 317.224Z" fill="#7DFFFE"/>
<path fill-rule="evenodd" clip-rule="evenodd" d="M62.2389 310.426C64.1767 308.898 67.6481 307.78 69.1731 309.579C71.0867 311.839 70.7732 315.435 68.9686 317.04C67.1629 318.646 64.7052 318.375 62.7675 316.847C60.8306 315.32 60.3011 311.954 62.2389 310.426Z" fill="#7DFFFE"/>
<path fill-rule="evenodd" clip-rule="evenodd" d="M46.9599 408.876L50.531 408.922C50.531 408.922 51.1213 410.509 50.2173 411.058C49.3133 411.607 47.8479 411.75 46.915 411.118C45.9821 410.486 46.9599 408.876 46.9599 408.876Z" fill="#7DFFFE"/>
<path fill-rule="evenodd" clip-rule="evenodd" d="M48.0117 372.185L50.349 374.603L47.7683 376.388C47.7683 376.388 46.766 375.476 46.8269 374.424C46.8877 373.373 48.0117 372.185 48.0117 372.185Z" fill="#7DFFFE"/>
<path fill-rule="evenodd" clip-rule="evenodd" d="M67.4312 372.469L70.5429 374.729L68.2241 377.464C68.2241 377.464 66.7184 376.156 66.5197 374.908C66.322 373.659 67.4312 372.469 67.4312 372.469Z" fill="#7DFFFE"/>
<path fill-rule="evenodd" clip-rule="evenodd" d="M70.5562 408.866L73.9716 408.729C73.9716 408.729 74.561 410.68 73.7151 411.273C72.8701 411.866 71.2651 411.942 70.5899 411.102C69.9157 410.263 70.5562 408.866 70.5562 408.866Z" fill="#7DFFFE"/>
<path fill-rule="evenodd" clip-rule="evenodd" d="M55.1445 271.17C55.1445 271.17 57.4627 267.183 61.2071 267.37C62.6086 267.439 63.0938 267.584 64.6564 268.271C67.2693 269.419 68.259 268.248 68.259 268.248C68.259 268.248 69.8129 269.616 70.763 272.905C71.713 276.195 71.7738 280.967 71.7738 280.967C71.7738 280.967 69.1377 282.922 66.7215 280.836C64.6409 279.039 63.6571 274.112 61.2496 271.814C59.3726 270.021 55.1445 271.17 55.1445 271.17Z" fill="#2F3747"/>
<path fill-rule="evenodd" clip-rule="evenodd" d="M45.8607 411.502L51.1427 411.441L52.8781 414.471L55.5495 417.447C55.5495 417.447 57.1858 419.369 54.7456 419.77C52.5804 420.125 45.7496 420.143 44.6534 419.289C43.7597 418.591 44.0907 417.617 44.3921 416.271C44.877 414.103 45.8607 411.502 45.8607 411.502Z" fill="#586580"/>
<path fill-rule="evenodd" clip-rule="evenodd" d="M69.7609 411.68L75.0958 411.124C75.0958 411.124 76.1346 412.781 77.9181 413.838C80.2195 415.204 83.5096 416.142 84.7664 417.22C85.5197 417.866 85.8457 418.476 85.6403 418.886C84.8262 420.512 74.084 419.392 74.084 419.392C74.084 419.392 70.0338 419.718 69.2805 419.063C67.3852 417.417 69.7609 411.68 69.7609 411.68Z" fill="#586580"/>
<path fill-rule="evenodd" clip-rule="evenodd" d="M16.3065 345.779L50.0038 331.785L53.7738 335.049L55.071 334.982L55.4455 336.836L57.8885 340.202L60.6452 342.985L21.8679 358.666C21.8679 358.666 16.626 358.692 15.1551 353.602C13.5196 347.944 16.3065 345.779 16.3065 345.779Z" fill="#9AA6BE"/>
<path fill-rule="evenodd" clip-rule="evenodd" d="M141.541 251.995C134.902 252.069 128.548 253.351 123.763 255.233C114.694 258.802 104.388 267.318 98.9388 281.36C93.0694 296.484 97.8276 311.709 97.8276 311.709L56.8438 328.82L58.9069 331.995L58.7487 332.693L62.6851 335.296L67.5416 336.058L67.1924 337.042L63.7962 337.55L67.1606 339.804L93.9858 328.598C93.9858 328.598 94.2115 326.213 94.7478 325.423C95.285 324.633 96.1444 325.455 96.1444 325.455L97.0656 323.455H98.8433L99.7326 325.264C99.7326 325.264 100.72 322.821 101.383 322.82C102.046 322.819 102.367 325.264 102.367 325.264L104.557 324.217C104.557 324.217 112.048 335.436 125.415 340.566C136.334 344.757 152.823 343.283 162.018 338.63C172.143 333.505 182.342 322.91 186.271 309.233C190.403 294.849 184.341 280.483 183.891 279.646C183.443 278.814 177.559 263.883 161.034 255.9C155.121 253.044 148.181 251.921 141.541 251.995ZM141.333 258.865C141.476 258.826 158.032 258.204 170.456 271.001C181.033 281.895 180.578 299.473 180.601 299.553C180.622 299.63 180.491 305.777 177.026 313.36C174.966 317.872 170.968 323.529 167.202 326.965C162.168 331.562 155.544 334.16 150.086 335.368C144.601 336.581 140.295 336.392 140.222 336.412C140.082 336.451 123.774 335.201 114.599 325.957C104.386 315.665 103.076 302.783 103.053 302.701C103.032 302.626 102.285 296.513 103.537 289.777C104.644 283.819 107.436 277.52 111.928 272.376C116.318 267.348 122.785 262.936 128.573 260.886C135.403 258.468 141.263 258.884 141.333 258.865Z" fill="#9AA6BE"/>
<path d="M60.3225 287.767C57.5745 288.967 52.9135 290.148 50.6616 290.926C49.6977 291.258 48.2307 291.723 47.4946 292.183C47.0479 292.463 46.7222 292.964 46.5352 293.315" stroke="black" stroke-width="1.2" stroke-linecap="round" stroke-linejoin="round"/>
<path d="M67.8099 285.572C67.8099 285.572 67.6401 288.867 67.8919 289.705" stroke="black" stroke-width="1.2" stroke-linecap="round" stroke-linejoin="round"/>
<path d="M78.2266 293.274C79.8788 292.671 81.0411 293.929 81.9237 296.673C82.3963 298.144 83.7303 302.827 84.8125 305.972C85.8948 309.117 87.7486 312.682 88.5048 315.178" stroke="black" stroke-width="1.2" stroke-linecap="round" stroke-linejoin="round"/>
<path d="M67.9531 288.681C69.8205 289.478 73.5803 290.989 74.8593 291.472C75.8412 291.843 77.998 292.186 78.189 293.899C78.3549 295.395 77.9835 304.376 76.6505 311.841C76.556 312.366 76.1788 315.764 75.1998 316.795C74.1552 317.894 71.1487 316.692 70.4986 314.792" stroke="black" stroke-width="1.2" stroke-linecap="round" stroke-linejoin="round"/>
<path fill-rule="evenodd" clip-rule="evenodd" d="M55.5209 277.444C51.8545 269.315 60.3854 267.169 61.0915 267.031C63.2714 266.606 65.7146 266.74 66.8335 267.331C68.2243 268.066 69.1879 269.143 70.0039 270.716C71.3939 273.394 71.8549 278.153 71.8048 280.345C71.7604 282.291 70.6705 283.816 69.539 284.521C68.4076 285.227 66.7235 285.895 63.5144 285.233C63.0823 285.143 61.1204 284.853 59.1045 282.733C57.0876 280.614 55.5209 277.444 55.5209 277.444Z" stroke="black" stroke-width="1.2" stroke-linecap="round" stroke-linejoin="round"/>
<path d="M47.0781 292.613C48.988 292.014 50.8802 296.275 51.4277 299.11C51.8745 301.422 51.7387 304.826 50.3178 305.328" stroke="black" stroke-width="1.2" stroke-linecap="round" stroke-linejoin="round"/>
<path fill-rule="evenodd" clip-rule="evenodd" d="M58.1688 332.742C60.7538 333.198 55.9959 328.361 54.5079 326.09C50.0738 319.325 50.3165 318.815 48.0473 317.71C45.5085 316.475 40.9506 319.552 42.1506 322.908C43.1874 325.809 51.1227 332.793 53.0997 334.517C55.0765 336.239 55.5835 332.286 58.1688 332.742Z" stroke="black" stroke-width="1.2" stroke-linecap="round" stroke-linejoin="round"/>
<path d="M68.6376 274.24C68.6376 274.24 67.673 273.452 67.3171 273.558C66.9622 273.663 66.5898 274.901 66.5898 274.901" stroke="#26B4B5" stroke-width="2" stroke-linecap="round" stroke-linejoin="round"/>
<path d="M71.7218 280.917C69.5245 282.881 67.0302 281.845 65.8139 279.54C64.5966 277.235 63.6649 273.564 61.0963 271.464C59.961 270.535 56.4645 269.859 54.9219 271.788" stroke="black" stroke-width="1.2" stroke-linecap="round" stroke-linejoin="round"/>
<path d="M58.2486 275.557C59.3414 274.384 60.4893 275.382 60.8481 275.735C61.5937 276.469 62.3634 278.049 62.5765 279.274C62.7974 280.551 61.3246 281.317 60.2886 281.045C59.2816 280.781 57.7914 278.532 57.694 276.762C57.6554 276.07 58.0576 275.766 58.4116 275.466" stroke="black" stroke-width="1.2" stroke-linecap="round" stroke-linejoin="round"/>
<path d="M58.3047 275.644C59.6329 274.873 62.0327 277.829 62.161 280.315" stroke="black" stroke-width="1.2" stroke-linecap="round" stroke-linejoin="round"/>
<path d="M60.0156 267.329C63.57 266.819 64.7043 268.834 66.6643 268.729C66.9276 268.715 67.4504 268.544 67.9423 268.328" stroke="black" stroke-width="1.2" stroke-linecap="round" stroke-linejoin="round"/>
<path d="M67.8384 288.869C68.5763 289.539 66.4832 292.931 64.9592 292.931C63.8944 292.931 61.3152 290.69 60.3689 289.031C59.9619 288.317 59.9937 288.297 60.3921 287.838" stroke="black" stroke-width="1.2" stroke-linecap="round" stroke-linejoin="round"/>
<path d="M67.7135 287.187C67.7135 287.187 65.7661 288.603 60.5508 286.768" stroke="black" stroke-width="1.2" stroke-linecap="round" stroke-linejoin="round"/>
<path d="M67.5301 285.943C66.0447 286.388 63.5716 286.17 60.7734 285.052" stroke="black" stroke-width="1.2" stroke-linecap="round" stroke-linejoin="round"/>
<path d="M67.6974 288.37C67.6974 288.37 66.103 290.364 60.5742 288.148" stroke="black" stroke-width="1.2" stroke-linecap="round" stroke-linejoin="round"/>
<path d="M67.7951 289.563C67.7951 289.563 66.2441 291.669 60.8281 289.588" stroke="black" stroke-width="1.2" stroke-linecap="round" stroke-linejoin="round"/>
<path d="M67.1024 291.358C66.1793 291.788 64.4875 292.237 62.3828 291.341" stroke="black" stroke-width="1.2" stroke-linecap="round" stroke-linejoin="round"/>
<path d="M61.4982 315.36C60.0446 316.754 57.7557 317.648 55.8846 317.654C54.6258 317.658 51.7322 316.719 50.8303 315.629C49.9938 314.619 50.2984 311.543 49.6875 308.434" stroke="black" stroke-width="1.2" stroke-linecap="round" stroke-linejoin="round"/>
<path d="M53.4607 317.28C53.4607 317.28 53.3808 323.569 53.3672 324.265" stroke="black" stroke-width="1.2" stroke-linecap="round" stroke-linejoin="round"/>
<path d="M48.2265 317.398C48.7526 315.301 48.8668 312.465 49.5906 308.701C50.3145 304.938 50.463 303.002 50.4788 302.894C51.0573 298.92 47.3458 292.632 45.0877 293.201C42.8296 293.77 43.4917 299.184 42.85 304.304C42.2082 309.425 41.45 313.173 41.4026 316.093C41.3877 317.014 41.9864 318.497 42.6919 319.072" stroke="black" stroke-width="1.2" stroke-linecap="round" stroke-linejoin="round"/>
<path d="M72.4934 319.2C62.2942 320.892 55.4888 319.685 53.4766 318.444" stroke="black" stroke-width="1.2" stroke-linecap="round" stroke-linejoin="round"/>
<path d="M72.876 321.677C61.9457 323.77 55.3109 322.209 53.6992 321.608" stroke="black" stroke-width="1.2" stroke-linecap="round" stroke-linejoin="round"/>
<path d="M62.7889 317.036C61.6584 317.177 59.9068 317.08 58.8516 317.031" stroke="black" stroke-width="1.2" stroke-linecap="round" stroke-linejoin="round"/>
<path fill-rule="evenodd" clip-rule="evenodd" d="M74.8756 298.454H69.6689C69.4075 298.454 69.1953 298.666 69.1953 298.928V298.999C69.1953 299.26 69.4075 299.473 69.6689 299.473H74.8756C75.137 299.473 75.3492 299.26 75.3492 298.999V298.928C75.3492 298.666 75.137 298.454 74.8756 298.454Z" fill="#EE005E" stroke="black" stroke-width="1.2" stroke-linecap="round" stroke-linejoin="round"/>
<path d="M60.5152 283.941L60.3984 288.93" stroke="black" stroke-width="1.2" stroke-linecap="round" stroke-linejoin="round"/>
<path d="M41.4118 317.498C40.6463 318.051 40.3711 318.783 40.3711 319.492C40.3711 320.043 40.6463 321.027 41.6244 321.538" stroke="black" stroke-width="1.2" stroke-linecap="round" stroke-linejoin="round"/>
<path fill-rule="evenodd" clip-rule="evenodd" d="M55.4243 336.5C55.9789 337.831 57.7881 340.779 59.0083 340.557C60.2284 340.335 63.9825 337.426 63.261 336.369C62.5385 335.312 59.5831 332.664 58.308 332.876C56.3873 333.196 54.8697 335.169 55.4243 336.5Z" stroke="black" stroke-width="1.2" stroke-linecap="round" stroke-linejoin="round"/>
<path d="M62.5547 335.493C64.124 335.45 67.5569 335.431 67.4373 336.593C67.3177 337.756 64.5803 337.331 63.2588 337.401" stroke="black" stroke-width="1.2" stroke-linecap="round" stroke-linejoin="round"/>
<path d="M57.1367 328.727L59.5028 327.737L97.6238 311.783" stroke="black" stroke-width="1.2" stroke-linecap="round" stroke-linejoin="round"/>
<path d="M104.095 324.367L102.24 325.143L102.09 325.206L102.076 325.212L102.074 325.213" stroke="black" stroke-width="1.2" stroke-linecap="round" stroke-linejoin="round"/>
<path d="M93.9404 328.617L92.6382 329.162L68.3161 339.339L67.4682 339.694L67.3477 339.746" stroke="black" stroke-width="1.2" stroke-linecap="round" stroke-linejoin="round"/>
<path d="M59.9866 342.825L23.0207 358.296C16.0192 360.47 10.982 348.115 17.5748 345.283L49.7571 331.814" stroke="black" stroke-width="1.2" stroke-linecap="round" stroke-linejoin="round"/>
<path fill-rule="evenodd" clip-rule="evenodd" d="M95.7266 297.521C95.7266 272.216 116.261 251.703 141.592 251.703C166.923 251.703 187.458 272.216 187.458 297.521C187.458 322.826 166.923 343.339 141.592 343.339C116.261 343.339 95.7266 322.826 95.7266 297.521Z" stroke="black" stroke-width="1.2" stroke-linecap="round" stroke-linejoin="round"/>
<path fill-rule="evenodd" clip-rule="evenodd" d="M102.672 297.521C102.672 276.048 120.097 258.64 141.593 258.64C163.089 258.64 180.514 276.048 180.514 297.521C180.514 318.995 163.089 336.402 141.593 336.402C120.097 336.402 102.672 318.995 102.672 297.521Z" fill="#ABC3D3" fill-opacity="0.291667" stroke="black" stroke-width="1.2" stroke-linecap="round" stroke-linejoin="round"/>
<path fill-rule="evenodd" clip-rule="evenodd" d="M131.896 321L134.277 307.257L124 297.555L138.161 295.514L144.46 283L150.829 295.479L165 297.446L154.777 307.202L157.237 320.932L144.548 314.48L131.896 321Z" fill="#32CD32" stroke="black" stroke-width="1.2" stroke-linecap="round" stroke-linejoin="round"/>
<path d="M62.0586 338.815C63.3559 339.453 65.285 340.482 66.7145 340.78C66.9383 340.827 68.2722 341.165 68.2134 340.544C68.17 340.084 67.3627 339.748 67.027 339.572C65.829 338.944 63.4205 337.453 63.4205 337.453" stroke="black" stroke-width="1.2" stroke-linecap="round" stroke-linejoin="round"/>
<path d="M60.9492 339.803C62.4568 340.869 65.3283 342.076 66.9796 342.401C68.6299 342.726 68.6782 342.068 67.5525 341.104" stroke="black" stroke-width="1.2" stroke-linecap="round" stroke-linejoin="round"/>
<path d="M59.5977 340.827C59.7867 340.92 60.7397 341.608 60.8622 341.686" stroke="black" stroke-width="1.2" stroke-linecap="round" stroke-linejoin="round"/>
<path d="M59.3711 340.499C60.0019 341.327 66.1857 344.844 67.1946 342.573" stroke="black" stroke-width="1.2" stroke-linecap="round" stroke-linejoin="round"/>
<path d="M58.5234 340.6C59.6172 341.895 63.0414 345.394 64.1313 343.53" stroke="black" stroke-width="1.2" stroke-linecap="round" stroke-linejoin="round"/>
<path fill-rule="evenodd" clip-rule="evenodd" d="M61.207 313.366C61.207 310.673 63.3194 308.49 65.9266 308.49C68.5328 308.49 70.6452 310.673 70.6452 313.366C70.6452 316.059 68.5328 318.243 65.9266 318.243C63.3194 318.243 61.207 316.059 61.207 313.366Z" stroke="black" stroke-width="1.2" stroke-linecap="round" stroke-linejoin="round"/>
<path d="M72.8375 317.288C72.8375 317.288 72.7266 321.116 72.7266 321.825" stroke="black" stroke-width="1.2" stroke-linecap="round" stroke-linejoin="round"/>
<path d="M54.0117 325.157C54.0117 325.157 59.6897 326.336 63.8748 325.825" stroke="black" stroke-width="1.2" stroke-linecap="round" stroke-linejoin="round"/>
<path d="M69.4219 316.886C69.4219 316.886 70.7858 316.727 71.7686 316.473" stroke="black" stroke-width="1.2" stroke-linecap="round" stroke-linejoin="round"/>
<path d="M77.3359 308.321C79.5419 312.062 80.7572 315.524 82.7538 317.768" stroke="black" stroke-width="1.2" stroke-linecap="round" stroke-linejoin="round"/>
<path d="M68.6376 274.24C68.6376 274.24 67.673 273.452 67.3171 273.558C66.9622 273.663 66.5898 274.901 66.5898 274.901" stroke="#32CD32" stroke-linecap="round" stroke-linejoin="round"/>
<path d="M48.4644 348.038C47.6265 356.032 46.929 366.35 47.656 370.469C47.9761 372.283 49.1398 373.73 50.5513 374.593" stroke="black" stroke-width="1.2" stroke-linecap="round" stroke-linejoin="round"/>
<path d="M56.918 373.307C57.6317 371.85 58.0957 369.399 59.149 364.802C60.7897 357.643 61.4899 352.721 63.3998 346.456" stroke="black" stroke-width="1.2" stroke-linecap="round" stroke-linejoin="round"/>
<path d="M73.8986 337.118C72.3302 341.188 70.2024 344.14 67.8354 345.482C66.0221 346.509 63.7592 346.499 63.3609 345.881C62.4436 344.455 60.4219 342.958 60.4219 342.958" stroke="black" stroke-width="1.2" stroke-linecap="round" stroke-linejoin="round"/>
<path d="M65.1133 346.755C65.1133 346.755 65.9708 365.344 66.645 369.761C67.0163 372.198 68.6677 373.932 70.4868 374.796" stroke="black" stroke-width="1.2" stroke-linecap="round" stroke-linejoin="round"/>
<path d="M76.582 372.369C77.5012 369.404 77.9392 363.627 78.6539 352.297C79.1969 343.709 79.1342 337.656 77.1212 335.792" stroke="black" stroke-width="1.2" stroke-linecap="round" stroke-linejoin="round"/>
<path fill-rule="evenodd" clip-rule="evenodd" d="M47.519 377.048C49.7204 374.139 56.7629 371.886 57.7323 374.496C58.2203 375.812 56.1251 381.564 54.6648 388.85C53.227 396.023 52.4298 404.726 52.1387 406.937C51.7658 409.771 46.3219 409.845 45.427 407.161C44.9214 405.644 44.6396 397.347 44.9952 389.943C45.2691 384.24 45.8301 379.28 47.519 377.048Z" stroke="black" stroke-width="1.2" stroke-linecap="round" stroke-linejoin="round"/>
<path d="M47.9537 372.101C46.8806 373.174 46.6274 375.205 47.4593 376.5" stroke="black" stroke-width="1.2" stroke-linecap="round" stroke-linejoin="round"/>
<path fill-rule="evenodd" clip-rule="evenodd" d="M68.3483 377.133C70.2774 374.036 77.0871 371.155 78.289 373.667C78.8937 374.932 77.3283 380.851 76.5335 388.238C75.7512 395.513 75.7454 404.251 75.6557 406.48C75.541 409.336 70.1269 409.903 68.9916 407.311C68.3512 405.846 67.3191 397.608 67.0027 390.202C66.7597 384.499 66.8687 379.508 68.3483 377.133Z" stroke="black" stroke-width="1.2" stroke-linecap="round" stroke-linejoin="round"/>
<path d="M67.4169 372.431C66.6212 373.439 66.0907 375.932 67.9474 377.311" stroke="black" stroke-width="1.2" stroke-linecap="round" stroke-linejoin="round"/>
<path fill-rule="evenodd" clip-rule="evenodd" d="M44.5251 418.916C44.0206 417.352 45.2504 412.285 45.8203 411.559C46.3901 410.834 47.0119 411.404 48.5143 411.508C50.0168 411.611 50.6376 411.003 51.1442 411.592C51.5048 412.012 52.2463 413.736 52.9901 414.564C54.4235 416.157 56.2691 417.506 55.8655 419.12C55.6635 419.928 51.4639 419.718 48.7389 419.724C46.0178 419.73 44.7771 419.698 44.5251 418.916Z" stroke="black" stroke-width="1.2" stroke-linecap="round" stroke-linejoin="round"/>
<path fill-rule="evenodd" clip-rule="evenodd" d="M69.7548 411.773C69.9854 411.055 71.3396 411.716 72.553 411.669C73.7288 411.624 75.0618 410.689 75.4544 411.462C76.0707 412.677 77.6246 413.777 79.6415 414.742C81.2668 415.522 82.9104 416.135 84.064 416.755C85.0642 417.293 85.696 417.834 85.6256 418.49C85.4742 419.903 79.2759 419.83 74.5776 419.398C71.9068 419.152 69.7847 420.054 69.18 418.742C68.5742 417.431 69.3015 413.185 69.7548 411.773Z" stroke="black" stroke-width="1.2" stroke-linecap="round" stroke-linejoin="round"/>
<path d="M46.7518 409.142C46.4555 409.734 46.4852 410.578 46.8511 411.127" stroke="black" stroke-width="1.2" stroke-linecap="round" stroke-linejoin="round"/>
<path d="M50.2695 411.276C50.8038 410.742 50.7077 409.712 50.5176 409.142" stroke="black" stroke-width="1.2" stroke-linecap="round" stroke-linejoin="round"/>
<path d="M70.6154 408.894C70.2942 409.538 70.3173 410.979 71.36 411.574" stroke="black" stroke-width="1.2" stroke-linecap="round" stroke-linejoin="round"/>
<path d="M73.8945 411.276C74.153 410.5 74.2418 409.986 74.0932 409.242" stroke="black" stroke-width="1.2" stroke-linecap="round" stroke-linejoin="round"/>
<path fill-rule="evenodd" clip-rule="evenodd" d="M94.0626 328.65C94.0568 328 94.3722 324.915 95.2789 324.998C96.1856 325.08 95.8239 327.924 95.6039 328.852C95.384 329.78 94.0684 329.3 94.0626 328.65Z" stroke="black" stroke-width="1.2" stroke-linecap="round" stroke-linejoin="round"/>
<path fill-rule="evenodd" clip-rule="evenodd" d="M97.1743 323.477C96.2464 323.63 96.0256 327.973 96.1288 329.002C96.1751 329.472 97.346 329.888 97.7974 329.256C98.0598 328.889 98.1022 323.326 97.1743 323.477Z" stroke="black" stroke-width="1.2" stroke-linecap="round" stroke-linejoin="round"/>
<path fill-rule="evenodd" clip-rule="evenodd" d="M98.6593 323.174C97.9359 322.938 97.9311 328.184 98.4066 328.905C98.8831 329.625 99.8023 329.079 99.9152 328.704C100.177 327.829 99.3827 323.409 98.6593 323.174Z" stroke="black" stroke-width="1.2" stroke-linecap="round" stroke-linejoin="round"/>
<path fill-rule="evenodd" clip-rule="evenodd" d="M100.337 327.161C100.553 327.663 101.848 327.367 101.942 326.892C102.11 326.054 102.222 322.719 101.355 322.573C100.489 322.426 99.886 326.107 100.337 327.161Z" stroke="black" stroke-width="1.2" stroke-linecap="round" stroke-linejoin="round"/>
<path d="M92.043 329.977C94.3299 332.072 97.7551 330.658 98.8894 329.183" stroke="black" stroke-width="1.2" stroke-linecap="round" stroke-linejoin="round"/>
</svg>
