<svg width="531" height="453" viewBox="0 0 531 453" fill="none" xmlns="http://www.w3.org/2000/svg">
<path d="M455.322 328.17H352.202C344.039 328.17 337.422 334.787 337.422 342.95V378.13C337.422 386.293 344.039 392.91 352.202 392.91H455.322C463.485 392.91 470.102 386.293 470.102 378.13V342.95C470.102 334.787 463.485 328.17 455.322 328.17Z" fill="#B4DDFB"/>
<path d="M460.752 318.72H357.632C349.469 318.72 342.852 325.337 342.852 333.5V368.68C342.852 376.843 349.469 383.46 357.632 383.46H460.752C468.914 383.46 475.532 376.843 475.532 368.68V333.5C475.532 325.337 468.914 318.72 460.752 318.72Z" fill="#E6EDFC"/>
<path d="M378.603 329.49L385.623 343.71L401.323 345.99L389.963 357.07L392.643 372.7L378.603 365.32L364.563 372.7L367.243 357.07L355.883 345.99L371.583 343.71L378.603 329.49Z" fill="#FFBF00"/>
<path d="M418.972 347.52C421.052 347.412 423.09 348.131 424.642 349.52C425.36 350.231 425.92 351.086 426.284 352.029C426.647 352.972 426.807 353.981 426.752 354.99C426.823 356.169 426.632 357.349 426.193 358.445C425.753 359.541 425.077 360.526 424.212 361.33C422.519 362.797 420.099 363.533 416.952 363.54C414.672 363.634 412.402 363.181 410.332 362.22V357.71C411.316 358.215 412.357 358.601 413.432 358.86C414.522 359.149 415.644 359.3 416.772 359.31C419.945 359.31 421.529 358.01 421.522 355.41C421.522 352.93 419.882 351.7 416.602 351.7C415.932 351.705 415.263 351.762 414.602 351.87C414.012 351.964 413.428 352.09 412.852 352.25L410.782 351.14L411.712 338.63H425.072V343.03H416.302L415.852 347.85L416.432 347.73C417.269 347.571 418.12 347.5 418.972 347.52Z" fill="white"/>
<path d="M442.341 338.65L433.181 363.21H428.531L437.681 338.65H442.341Z" fill="white"/>
<path d="M452.821 347.52C453.852 347.465 454.883 347.613 455.856 347.956C456.828 348.299 457.724 348.831 458.491 349.52C459.21 350.231 459.769 351.086 460.133 352.029C460.497 352.972 460.656 353.981 460.601 354.99C460.672 356.169 460.481 357.349 460.042 358.445C459.603 359.541 458.927 360.526 458.061 361.33C456.368 362.797 453.951 363.533 450.811 363.54C448.531 363.636 446.261 363.184 444.191 362.22V357.71C445.172 358.216 446.209 358.602 447.281 358.86C448.372 359.149 449.494 359.3 450.621 359.31C453.795 359.31 455.378 358.01 455.371 355.41C455.371 352.93 453.731 351.7 450.451 351.7C449.781 351.705 449.113 351.762 448.451 351.87C447.861 351.964 447.277 352.09 446.701 352.25L444.631 351.14L445.561 338.63H458.971V343.03H450.201L449.751 347.85L450.341 347.73C451.159 347.574 451.99 347.503 452.821 347.52Z" fill="white"/>
<path d="M506.273 146.17H302.103C294.288 146.17 287.953 152.505 287.953 160.32V294.04C287.953 301.855 294.288 308.19 302.103 308.19H506.273C514.088 308.19 520.423 301.855 520.423 294.04V160.32C520.423 152.505 514.088 146.17 506.273 146.17Z" fill="#B4DDFB"/>
<path d="M510.851 137.18H306.681C298.866 137.18 292.531 143.515 292.531 151.33V285.05C292.531 292.865 298.866 299.2 306.681 299.2H510.851C518.666 299.2 525.001 292.865 525.001 285.05V151.33C525.001 143.515 518.666 137.18 510.851 137.18Z" fill="#E6EDFC"/>
<path d="M491.001 191.78H326.531" stroke="#4BADB0" stroke-miterlimit="10"/>
<path d="M491.001 211.12H326.531" stroke="#4BADB0" stroke-miterlimit="10"/>
<path d="M491.001 230.47H326.531" stroke="#4BADB0" stroke-miterlimit="10"/>
<path d="M491.001 249.81H326.531" stroke="#4BADB0" stroke-miterlimit="10"/>
<path d="M491.001 269.15H326.531" stroke="#4BADB0" stroke-miterlimit="10"/>
<path d="M510.851 137.18H306.681C302.929 137.183 299.332 138.674 296.679 141.328C294.026 143.981 292.534 147.578 292.531 151.33V171.33H524.971V151.33C524.969 147.583 523.481 143.99 520.835 141.338C518.188 138.686 514.598 137.191 510.851 137.18Z" fill="#DDDDDD"/>
<path d="M501.37 159.72C504.386 159.72 506.83 157.276 506.83 154.26C506.83 151.245 504.386 148.8 501.37 148.8C498.355 148.8 495.91 151.245 495.91 154.26C495.91 157.276 498.355 159.72 501.37 159.72Z" stroke="#5089DE" stroke-miterlimit="10"/>
<path d="M476.312 159.72C479.327 159.72 481.772 157.276 481.772 154.26C481.772 151.245 479.327 148.8 476.312 148.8C473.296 148.8 470.852 151.245 470.852 154.26C470.852 157.276 473.296 159.72 476.312 159.72Z" stroke="#5089DE" stroke-miterlimit="10"/>
<path d="M451.241 159.72C454.257 159.72 456.701 157.276 456.701 154.26C456.701 151.245 454.257 148.8 451.241 148.8C448.226 148.8 445.781 151.245 445.781 154.26C445.781 157.276 448.226 159.72 451.241 159.72Z" stroke="#5089DE" stroke-miterlimit="10"/>
<path d="M506.463 56.5002H301.913C294.203 56.5002 287.953 62.7503 287.953 70.4602V102.29C287.953 110 294.203 116.25 301.913 116.25H506.463C514.173 116.25 520.423 110 520.423 102.29V70.4602C520.423 62.7503 514.173 56.5002 506.463 56.5002Z" fill="#B4DDFB"/>
<path d="M511.041 50.2202H306.491C298.781 50.2202 292.531 56.4703 292.531 64.1802V96.0102C292.531 103.72 298.781 109.97 306.491 109.97H511.041C518.751 109.97 525.001 103.72 525.001 96.0102V64.1802C525.001 56.4703 518.751 50.2202 511.041 50.2202Z" fill="#E6EDFC"/>
<path d="M328.64 63.0603L333.91 73.7403L345.69 75.4503L337.16 83.7603L339.18 95.5003L328.64 89.9603L318.1 95.5003L320.11 83.7603L311.59 75.4503L323.37 73.7403L328.64 63.0603Z" fill="#FFBF00"/>
<path d="M368.702 63.0603L373.972 73.7403L385.752 75.4503L377.232 83.7603L379.242 95.5003L368.702 89.9603L358.162 95.5003L360.182 83.7603L351.652 75.4503L363.432 73.7403L368.702 63.0603Z" fill="#FFBF00"/>
<path d="M408.771 63.0603L414.041 73.7403L425.821 75.4503L417.291 83.7603L419.301 95.5003L408.771 89.9603L398.231 95.5003L400.241 83.7603L391.711 75.4503L403.501 73.7403L408.771 63.0603Z" fill="#FFBF00"/>
<path d="M448.831 63.0603L454.101 73.7403L465.881 75.4503L457.361 83.7603L459.371 95.5003L448.831 89.9603L438.291 95.5003L440.301 83.7603L431.781 75.4503L443.561 73.7403L448.831 63.0603Z" fill="#FFBF00"/>
<path d="M488.89 63.0603L494.16 73.7403L505.95 75.4503L497.42 83.7603L499.43 95.5003L488.89 89.9603L478.35 95.5003L480.37 83.7603L471.84 75.4503L483.62 73.7403L488.89 63.0603Z" fill="#FFBF00"/>
<path d="M215.35 304.37H38.3395C26.2887 304.37 16.5195 314.139 16.5195 326.19C16.5195 338.241 26.2887 348.01 38.3395 348.01H215.35C227.4 348.01 237.17 338.241 237.17 326.19C237.17 314.139 227.4 304.37 215.35 304.37Z" fill="#B4DDFB"/>
<path d="M213.15 296.95H36.1403C24.0895 296.95 14.3203 306.719 14.3203 318.77C14.3203 330.821 24.0895 340.59 36.1403 340.59H213.15C225.201 340.59 234.97 330.821 234.97 318.77C234.97 306.719 225.201 296.95 213.15 296.95Z" fill="white"/>
<path d="M36.422 327.29C41.9946 327.29 46.512 322.773 46.512 317.2C46.512 311.628 41.9946 307.11 36.422 307.11C30.8495 307.11 26.332 311.628 26.332 317.2C26.332 322.773 30.8495 327.29 36.422 327.29Z" stroke="#E6EDFC" stroke-width="2" stroke-miterlimit="10"/>
<path d="M52.8608 333.65L43.5508 324.34" stroke="#E6EDFC" stroke-width="2" stroke-miterlimit="10"/>
<path d="M18.9694 54.1702C18.1494 55.0102 17.3694 55.8802 16.6094 56.7602" stroke="#32CD32" stroke-width="3" stroke-miterlimit="10"/>
<path d="M12.3013 62.3902C-7.38869 91.7302 1.22131 134.87 37.5013 140.55C88.2013 148.49 156.651 102.33 201.261 120.55" stroke="#32CD32" stroke-width="3" stroke-miterlimit="10" stroke-dasharray="7.07 7.07"/>
<path d="M204.48 122.02C205.48 122.53 206.55 123.09 207.56 123.68" stroke="#FFDFAB" stroke-width="3" stroke-miterlimit="10"/>
<path d="M126.462 158.52H36.4119C27.0286 158.52 19.4219 166.127 19.4219 175.51V265.56C19.4219 274.944 27.0286 282.55 36.4119 282.55H126.462C135.845 282.55 143.452 274.944 143.452 265.56V175.51C143.452 166.127 135.845 158.52 126.462 158.52Z" fill="#B4DDFB"/>
<path d="M121.36 152.91H31.3103C21.927 152.91 14.3203 160.517 14.3203 169.9V259.95C14.3203 269.333 21.927 276.94 31.3103 276.94H121.36C130.744 276.94 138.35 269.333 138.35 259.95V169.9C138.35 160.517 130.744 152.91 121.36 152.91Z" fill="#E6EDFC"/>
<path d="M102.371 204.58V207.18L90.3007 197.52C82.7052 191.421 77.337 182.984 75.0307 173.52L73.4507 166.98C73.3513 166.563 73.1133 166.191 72.7755 165.926C72.4377 165.661 72.0201 165.518 71.5907 165.52C69.6089 165.478 67.6412 165.863 65.8214 166.648C64.0015 167.434 62.3721 168.602 61.0439 170.074C59.7157 171.545 58.7198 173.285 58.124 175.176C57.5281 177.066 57.3462 179.063 57.5907 181.03L58.4807 189.37C58.4915 189.507 58.5218 189.642 58.5707 189.77L62.2707 200.77H39.0907C36.9214 200.806 34.8314 201.592 33.1752 202.994C31.5191 204.395 30.3988 206.327 30.0043 208.46C29.6099 210.594 29.9656 212.798 31.0112 214.699C32.0567 216.6 33.7277 218.081 35.7407 218.89C34.7598 220.026 34.0635 221.379 33.7093 222.837C33.3552 224.296 33.3535 225.817 33.7044 227.277C34.0552 228.736 34.7486 230.09 35.727 231.228C36.7053 232.366 37.9407 233.255 39.3307 233.82C38.3479 234.956 37.6501 236.309 37.2954 237.769C36.9408 239.228 36.9394 240.751 37.2914 242.211C37.6434 243.671 38.3387 245.026 39.3195 246.163C40.3003 247.301 41.5383 248.187 42.9307 248.75C41.4431 250.469 40.6263 252.667 40.6307 254.94C40.6174 257.41 41.5835 259.783 43.3174 261.542C45.0513 263.3 47.4115 264.299 49.8807 264.32H83.9707C90.3185 264.307 96.586 262.901 102.331 260.2V262.4H122.791V204.58H102.371ZM101.371 256.48C95.9773 259.115 90.0533 260.483 84.0507 260.48H49.8807C48.4508 260.42 47.0997 259.809 46.1094 258.776C45.1191 257.742 44.5663 256.366 44.5663 254.935C44.5663 253.504 45.1191 252.128 46.1094 251.095C47.0997 250.062 48.4508 249.451 49.8807 249.39C50.3899 249.39 50.8783 249.188 51.2384 248.828C51.5984 248.468 51.8007 247.979 51.8007 247.47C51.8007 246.961 51.5984 246.473 51.2384 246.113C50.8783 245.753 50.3899 245.55 49.8807 245.55H46.2807C44.8508 245.49 43.4997 244.879 42.5094 243.846C41.5191 242.812 40.9662 241.436 40.9662 240.005C40.9662 238.574 41.5191 237.198 42.5094 236.165C43.4997 235.132 44.8508 234.521 46.2807 234.46C46.7899 234.46 47.2783 234.258 47.6384 233.898C47.9984 233.538 48.2007 233.049 48.2007 232.54C48.2007 232.031 47.9984 231.543 47.6384 231.183C47.2783 230.823 46.7899 230.62 46.2807 230.62H42.6807C41.2508 230.56 39.8997 229.949 38.9094 228.916C37.9191 227.882 37.3663 226.506 37.3663 225.075C37.3663 223.644 37.9191 222.268 38.9094 221.235C39.8997 220.202 41.2508 219.591 42.6807 219.53C42.9438 219.549 43.208 219.514 43.4569 219.426C43.7057 219.339 43.9338 219.201 44.127 219.021C44.3201 218.841 44.4742 218.624 44.5795 218.382C44.6848 218.14 44.7392 217.879 44.7392 217.615C44.7392 217.351 44.6848 217.09 44.5795 216.849C44.4742 216.607 44.3201 216.389 44.127 216.209C43.9338 216.03 43.7057 215.892 43.4569 215.804C43.208 215.717 42.9438 215.681 42.6807 215.7H39.0907C37.6188 215.7 36.2071 215.116 35.1663 214.075C34.1254 213.034 33.5407 211.622 33.5407 210.15C33.5407 208.678 34.1254 207.267 35.1663 206.226C36.2071 205.185 37.6188 204.6 39.0907 204.6H64.9707C65.2743 204.601 65.5737 204.529 65.8435 204.39C66.1133 204.251 66.3456 204.048 66.5207 203.8C66.6982 203.553 66.8151 203.268 66.862 202.967C66.9089 202.667 66.8845 202.36 66.7907 202.07L62.3107 188.71L61.4507 180.59C61.2684 179.158 61.3945 177.703 61.8205 176.323C62.2465 174.943 62.9626 173.671 63.9207 172.59C65.5311 170.818 67.724 169.683 70.1007 169.39L71.3007 174.39C73.8068 184.685 79.6422 193.863 87.9007 200.5L102.371 212.08V255.95L101.371 256.48Z" fill="white"/>
<path d="M190.783 59.7202L234.973 91.7002L182.453 82.7202L190.783 59.7202Z" fill="#E6EDFC"/>
<path d="M23.3203 44.6701L28.7803 71.8901L82.0803 3.12012L23.3203 44.6701Z" fill="#32CD32"/>
<path d="M23.3206 44.6701L82.0806 3.12012L5.14062 27.2301L23.3206 44.6701Z" fill="#2AAC2A"/>
<path d="M28.6016 50.3501L82.0816 3.12012L44.5616 74.4901L28.6016 50.3501Z" fill="#2AAC2A"/>
<path d="M332.372 337.71H189.262L173.672 452.71H251.962L255.782 408.04H260.822H265.862L269.672 452.71H347.972L332.372 337.71Z" fill="#1B2963"/>
<path d="M338.732 384.59L332.372 337.71H189.262L187.832 348.3C198.542 360.05 240.072 396.04 338.732 384.59Z" fill="#141F4A"/>
<path d="M260.82 408.04V353.35" stroke="#090E21" stroke-miterlimit="10"/>
<path d="M250.602 352.13V379.81C250.601 382.67 251.636 385.433 253.515 387.589C255.393 389.745 257.989 391.149 260.822 391.54V391.54" stroke="#090E21" stroke-miterlimit="10"/>
<path d="M183.543 379.87L183.863 379.8C213.973 372.93 216.493 337.71 216.493 337.71H189.263L183.543 379.87Z" fill="#090E21"/>
<path d="M338.073 379.87L337.763 379.8C307.603 372.93 305.133 337.71 305.133 337.71H332.363L338.073 379.87Z" fill="#090E21"/>
<path d="M369.482 142.19C364.402 133.882 357.69 126.69 349.75 121.051C341.811 115.411 332.81 111.441 323.292 109.38L279.602 99.9201L260.822 98.0901L242.032 99.9201L198.342 109.38C188.825 111.441 179.824 115.411 171.884 121.051C163.945 126.69 157.232 133.882 152.152 142.19L115.152 202.71L184.232 236.45L186.392 339.9C234.142 359.113 287.473 359.113 335.222 339.9L337.382 236.45L406.472 202.71L369.482 142.19Z" fill="#32CD32"/>
<path d="M337.391 236.45L368.971 221.02C368.971 221.02 366.331 206.71 358.071 199.39C354.811 196.473 352.802 192.411 352.461 188.05C352.027 183.327 351.05 178.67 349.551 174.17C347.621 168.17 338.821 169.46 338.691 175.74L337.391 236.45Z" fill="#285E37"/>
<path d="M337.77 218.69H183.86L183.25 185.35H338.38L337.77 218.69Z" fill="#4BADB0"/>
<path d="M339.181 150.35L337.391 235.95" stroke="#090E21" stroke-miterlimit="10"/>
<path d="M336.842 262.89H184.792L184.102 229.55H337.542L336.842 262.89Z" fill="#4BADB0"/>
<path d="M299.353 104.2L279.603 99.9201L260.823 98.0901L242.033 99.9201L221.793 104.3C227.153 112.05 245.443 119.3 260.533 119.3C275.623 119.3 294.093 111.98 299.353 104.2Z" fill="#26A526"/>
<path d="M400.731 193.31L406.471 202.71L337.391 236.45L337.611 225.4L400.731 193.31Z" fill="#26A526"/>
<path d="M284.941 123.68H256.071C251.592 123.68 247.961 127.311 247.961 131.79V191.07C247.961 195.549 251.592 199.18 256.071 199.18H284.941C289.42 199.18 293.051 195.549 293.051 191.07V131.79C293.051 127.311 289.42 123.68 284.941 123.68Z" fill="#E6EDFC"/>
<path d="M256.182 144.58C255.142 144.58 254.145 144.167 253.41 143.432C252.675 142.697 252.262 141.7 252.262 140.66V132.17C252.26 131.655 252.361 131.145 252.557 130.669C252.754 130.192 253.043 129.76 253.407 129.395C253.771 129.031 254.204 128.743 254.68 128.546C255.156 128.349 255.667 128.249 256.182 128.25C257.221 128.25 258.218 128.663 258.954 129.398C259.689 130.134 260.102 131.131 260.102 132.17V140.71C260.086 141.74 259.666 142.723 258.933 143.447C258.2 144.171 257.212 144.578 256.182 144.58Z" fill="#1B2963"/>
<path d="M256.182 134.37C257.342 134.37 258.282 133.43 258.282 132.27C258.282 131.11 257.342 130.17 256.182 130.17C255.022 130.17 254.082 131.11 254.082 132.27C254.082 133.43 255.022 134.37 256.182 134.37Z" fill="#090E21"/>
<path d="M256.182 142.65C257.342 142.65 258.282 141.71 258.282 140.55C258.282 139.39 257.342 138.45 256.182 138.45C255.022 138.45 254.082 139.39 254.082 140.55C254.082 141.71 255.022 142.65 256.182 142.65Z" fill="#090E21"/>
<path d="M186.651 379.06C200.881 374.75 208.371 363.84 212.291 354.31L185.971 343.76L169.281 260.89L181.681 235.19L125.461 207.71L115.461 233.26C112.037 242.005 110.864 251.47 112.051 260.787C113.237 270.103 116.745 278.972 122.251 286.58L173.671 357.58L186.651 379.06Z" fill="#FF6B6B"/>
<path d="M165.672 240.67L169.282 260.89" stroke="#7D2929" stroke-miterlimit="10"/>
<path d="M128.973 229.13L178.133 242.47L181.643 235.19L125.463 207.71L122.303 215.78C121.782 217.089 121.543 218.494 121.603 219.902C121.662 221.309 122.018 222.689 122.648 223.949C123.278 225.21 124.167 226.323 125.257 227.216C126.347 228.109 127.613 228.761 128.973 229.13Z" fill="#ED4E4E"/>
<path d="M368.97 221.02L319.33 183.02L294.33 150.75C293.614 149.825 292.708 149.063 291.673 148.518C290.638 147.973 289.498 147.657 288.33 147.59L260.1 145.71V153.39L281.82 156.39L257.77 164.71L260.1 183.4L265.94 182.19L267.11 189.02L277.77 187.31L290.77 193.31C290.77 193.31 295.03 201.76 303.35 200.48C303.35 200.48 334.55 263.86 349.84 286.1C365.13 308.34 388.38 312.98 407.76 299.77C428.15 285.87 420.38 247.02 416.76 236.45C412.973 225.43 408.085 214.82 402.17 204.78L368.97 221.02Z" fill="#FF6B6B"/>
<path d="M410.973 221.61C408.395 215.838 405.486 210.219 402.263 204.78L368.973 221.02L379.593 229.02C382.582 231.285 386.221 232.526 389.971 232.561C393.721 232.595 397.383 231.42 400.413 229.21L410.973 221.61Z" fill="#ED4E4E"/>
<path d="M359.852 214.1L397.112 242.31" stroke="#7D2929" stroke-miterlimit="10"/>
<path d="M281.82 156.34L285.08 155.18L298.58 168.66" stroke="#7D2929" stroke-miterlimit="10"/>
<path d="M258.883 173.56L282.513 167.24L297.523 176.69" stroke="#7D2929" stroke-miterlimit="10"/>
<path d="M265.941 182.14L280.691 178.81L293.061 183.62" stroke="#7D2929" stroke-miterlimit="10"/>
<path d="M184.242 236.45L152.652 221.02C152.652 221.02 155.312 206.73 163.562 199.39C166.825 196.474 168.838 192.413 169.182 188.05C169.618 183.328 170.591 178.671 172.082 174.17C174.022 168.17 182.812 169.46 182.952 175.74L184.242 236.45Z" fill="#285E37"/>
<path d="M120.9 193.31L115.16 202.71L184.24 236.45L184.02 225.4L120.9 193.31Z" fill="#26A526"/>
<path d="M182.453 149.35L184.243 234.95" stroke="#090E21" stroke-miterlimit="10"/>
<path d="M279.032 99.9202L277.672 77.0002H243.402L242.032 99.9202L226.262 103.27C230.692 109.76 247.072 115.9 260.532 115.9C273.992 115.9 290.372 109.76 294.802 103.27L279.032 99.9202Z" fill="#FF6B6B"/>
<path d="M278.573 92.2302L277.673 77.0002H243.402L243.062 82.6502C248.242 93.4202 258.633 95.7102 265.163 95.7102C269.86 95.7466 274.485 94.5464 278.573 92.2302Z" fill="#ED4E4E"/>
<path d="M245.73 104.5L257.77 110.04" stroke="#7D2929" stroke-miterlimit="10"/>
<path d="M260.529 19.7103C251.353 19.7024 242.188 20.3708 233.109 21.7103C233.109 21.7103 233.819 40.1503 235.439 60.3303C237.119 81.4903 252.079 85.3303 260.529 85.3303C268.979 85.3303 283.939 81.5003 285.629 60.3303C287.239 40.1503 287.969 21.7103 287.969 21.7103C278.884 20.3699 269.713 19.7014 260.529 19.7103Z" fill="#FF6B6B"/>
<path d="M295.973 22.8402C295.969 20.6477 295.288 18.51 294.022 16.7197C292.757 14.9295 290.969 13.5744 288.903 12.8402C287.693 6.8402 280.623 3.43019 275.573 6.33019C274.283 0.470194 264.173 -2.1998 260.143 2.1602C256.143 -2.1998 246.003 0.470194 244.713 6.33019C239.663 3.43019 232.593 6.7902 231.383 12.8402C229.541 13.4939 227.916 14.6425 226.684 16.1598C225.453 17.6771 224.664 19.5045 224.403 21.4411C224.143 23.3777 224.421 25.3487 225.208 27.1374C225.995 28.9261 227.259 30.4633 228.863 31.5802L232.403 50.4502L234.493 51.1602L237.383 33.2302C239.193 32.8071 240.861 31.9183 242.223 30.6519C243.584 29.3855 244.59 27.7854 245.143 26.0102C248.023 27.9302 253.953 30.4502 260.143 24.5702C266.333 30.4502 272.263 27.9302 275.143 26.0102C275.693 27.7847 276.698 29.3844 278.058 30.6509C279.417 31.9173 281.084 32.8065 282.893 33.2302L285.793 51.1602L287.873 50.4502L291.423 31.5802C292.831 30.5994 293.98 29.292 294.773 27.7698C295.565 26.2477 295.977 24.5562 295.973 22.8402Z" fill="#090E21"/>
<path d="M249.81 59.5503C254.576 59.5503 258.44 55.4626 258.44 50.4203C258.44 45.3779 254.576 41.2903 249.81 41.2903C245.043 41.2903 241.18 45.3779 241.18 50.4203C241.18 55.4626 245.043 59.5503 249.81 59.5503Z" stroke="#E6EDFC" stroke-miterlimit="10"/>
<path d="M271.251 59.5503C276.017 59.5503 279.881 55.4626 279.881 50.4203C279.881 45.3779 276.017 41.2903 271.251 41.2903C266.485 41.2903 262.621 45.3779 262.621 50.4203C262.621 55.4626 266.485 59.5503 271.251 59.5503Z" stroke="#E6EDFC" stroke-miterlimit="10"/>
<path d="M258.371 49.2803H262.691" stroke="#E6EDFC" stroke-miterlimit="10"/>
<path d="M241.482 48.3301H231.922" stroke="#E6EDFC" stroke-miterlimit="10"/>
<path d="M289.15 48.3301H279.59" stroke="#E6EDFC" stroke-miterlimit="10"/>
<path d="M260.1 51.1401V56.3701C260.056 58.3361 259.274 60.2135 257.91 61.6301H262.62" stroke="#7D2929" stroke-miterlimit="10"/>
<path d="M251.361 54.1702C251.361 54.6073 251.232 55.0346 250.989 55.398C250.746 55.7615 250.401 56.0447 249.997 56.212C249.593 56.3792 249.149 56.423 248.72 56.3377C248.292 56.2525 247.898 56.042 247.589 55.7329C247.28 55.4238 247.069 55.0301 246.984 54.6014C246.899 54.1727 246.942 53.7283 247.11 53.3245C247.277 52.9207 247.56 52.5755 247.924 52.3327C248.287 52.0898 248.714 51.9602 249.151 51.9602C249.738 51.9602 250.3 52.193 250.714 52.6075C251.129 53.022 251.361 53.5841 251.361 54.1702Z" fill="#090E21"/>
<path d="M274.131 54.1702C274.133 54.6122 274.003 55.0447 273.758 55.4123C273.512 55.7799 273.162 56.0658 272.753 56.2335C272.344 56.4011 271.895 56.4429 271.462 56.3534C271.029 56.2639 270.633 56.0472 270.324 55.7311C270.015 55.415 269.807 55.0138 269.728 54.579C269.648 54.1442 269.7 53.6956 269.877 53.2905C270.054 52.8855 270.348 52.5425 270.721 52.3055C271.094 52.0685 271.53 51.9482 271.971 51.9602C272.549 51.9733 273.098 52.2119 273.502 52.6249C273.906 53.038 274.132 53.5926 274.131 54.1702Z" fill="#090E21"/>
<path d="M251.359 62.0403C251.359 62.0403 255.839 68.1303 267.529 65.3403" stroke="#7D2929" stroke-miterlimit="10"/>
<path d="M250.211 62.9203L252.821 61.0703" stroke="#7D2929" stroke-miterlimit="10"/>
<path d="M242.402 38.8402C247.642 35.2702 255.012 36.9902 257.682 40.8902" stroke="#090E21" stroke-width="2" stroke-miterlimit="10"/>
<path d="M278.661 38.8402C273.431 35.2702 266.061 36.9902 263.391 40.8902" stroke="#090E21" stroke-width="2" stroke-miterlimit="10"/>
<path d="M263.3 70.7101C263.3 71.4401 262.06 72.0301 260.53 72.0301C259 72.0301 257.77 71.4401 257.77 70.7101C257.77 69.9801 259 69.3801 260.53 69.3801C262.06 69.3801 263.3 69.9901 263.3 70.7101Z" fill="#ED4E4E"/>
<path d="M237.52 53.3202C238.88 58.8502 236.52 64.1802 232.32 65.2102C228.12 66.2402 223.56 62.6002 222.21 57.0702C220.86 51.5402 223.21 46.2102 227.41 45.1802C231.61 44.1502 236.16 47.7902 237.52 53.3202Z" fill="#FF6B6B"/>
<path d="M225.453 51.8202C227.253 46.8202 233.043 47.8202 234.963 55.1902" stroke="#7D2929" stroke-miterlimit="10"/>
<path d="M283.542 53.3202C282.192 58.8502 284.542 64.1802 288.752 65.2102C292.962 66.2402 297.502 62.6002 298.862 57.0702C300.222 51.5402 297.862 46.2102 293.662 45.1802C289.462 44.1502 284.902 47.7902 283.542 53.3202Z" fill="#FF6B6B"/>
<path d="M295.612 51.8202C293.822 46.8202 288.032 47.8202 286.102 55.1902" stroke="#7D2929" stroke-miterlimit="10"/>
<path opacity="0.22" d="M517.32 301.99L512.89 296.41L450.11 217.32L449.35 216.32C448.748 215.552 448.013 214.899 447.18 214.39L429.9 203.78C429.821 203.728 429.728 203.703 429.633 203.707C429.539 203.711 429.448 203.745 429.374 203.803C429.3 203.862 429.246 203.943 429.22 204.034C429.194 204.125 429.198 204.221 429.23 204.31L435.64 223.55C435.943 224.479 436.411 225.347 437.02 226.11L437.78 227.11L500.56 306.2L504.98 311.78C506.303 313.341 508.181 314.327 510.217 314.528C512.253 314.729 514.287 314.131 515.89 312.86C517.493 311.588 518.538 309.743 518.805 307.714C519.072 305.686 518.54 303.633 517.32 301.99Z" fill="black"/>
<path d="M429.292 204.43L437.862 222.81C438.272 223.694 438.834 224.5 439.522 225.19L450.122 235.79L461.252 224.65L450.662 214.05C449.971 213.362 449.166 212.801 448.282 212.39L429.902 203.82C429.817 203.781 429.721 203.769 429.629 203.786C429.536 203.802 429.451 203.847 429.385 203.913C429.318 203.979 429.274 204.065 429.257 204.157C429.241 204.25 429.253 204.345 429.292 204.43Z" fill="#FF6B6B"/>
<path d="M443.203 217.71C440.123 220.78 438.873 224.51 440.393 226.03L511.793 297.44L522.973 286.32L451.563 214.92C449.973 213.4 446.273 214.65 443.203 217.71Z" fill="white"/>
<path d="M433.042 207.57C433.577 207.038 434.149 206.544 434.752 206.09L429.902 203.82C429.817 203.781 429.721 203.769 429.629 203.786C429.536 203.802 429.451 203.847 429.385 203.913C429.318 203.979 429.274 204.065 429.257 204.157C429.241 204.25 429.253 204.345 429.292 204.43L431.562 209.29C432.01 208.679 432.505 208.104 433.042 207.57Z" fill="#090E21"/>
<path d="M442.902 221.76L510.602 289.46" stroke="#E6EDFC" stroke-miterlimit="10"/>
<path d="M447.23 217.43L514.93 285.14" stroke="#E6EDFC" stroke-miterlimit="10"/>
<path d="M514.603 289.13C511.533 292.21 510.273 295.94 511.793 297.46L516.793 302.46C518.265 303.943 520.266 304.78 522.355 304.787C524.444 304.795 526.451 303.972 527.933 302.5C529.416 301.028 530.253 299.028 530.26 296.939C530.268 294.849 529.445 292.843 527.973 291.36L522.973 286.36C521.403 284.8 517.683 286.06 514.603 289.13Z" fill="#E6EDFC"/>
<path d="M163.49 384.34C154.24 386.27 151.64 388.87 149.71 398.12C149.667 398.322 149.556 398.502 149.396 398.631C149.236 398.761 149.036 398.832 148.83 398.832C148.624 398.832 148.424 398.761 148.264 398.631C148.104 398.502 147.993 398.322 147.95 398.12C146.03 388.87 143.43 386.27 134.18 384.34C133.979 384.297 133.798 384.186 133.669 384.026C133.539 383.866 133.469 383.666 133.469 383.46C133.469 383.254 133.539 383.055 133.669 382.894C133.798 382.734 133.979 382.623 134.18 382.58C143.43 380.66 146.03 378.06 147.95 368.81C147.993 368.609 148.104 368.428 148.264 368.299C148.424 368.169 148.624 368.099 148.83 368.099C149.036 368.099 149.236 368.169 149.396 368.299C149.556 368.428 149.667 368.609 149.71 368.81C151.64 378.06 154.24 380.66 163.49 382.58C163.691 382.623 163.872 382.734 164.001 382.894C164.131 383.055 164.201 383.254 164.201 383.46C164.201 383.666 164.131 383.866 164.001 384.026C163.872 384.186 163.691 384.297 163.49 384.34Z" fill="#E6EDFC"/>
<path d="M343.291 20.6202C334.041 22.5502 331.441 25.1402 329.521 34.4002C329.478 34.6016 329.367 34.782 329.207 34.9115C329.046 35.0409 328.847 35.1115 328.641 35.1115C328.435 35.1115 328.235 35.0409 328.075 34.9115C327.915 34.782 327.804 34.6016 327.761 34.4002C325.831 25.1402 323.241 22.5502 313.981 20.6202C313.78 20.5771 313.599 20.4661 313.47 20.306C313.34 20.1459 313.27 19.9462 313.27 19.7402C313.27 19.5343 313.34 19.3346 313.47 19.1745C313.599 19.0143 313.78 18.9034 313.981 18.8602C323.241 16.9302 325.831 14.3402 327.761 5.09023C327.804 4.88888 327.915 4.70843 328.075 4.57898C328.235 4.44953 328.435 4.37891 328.641 4.37891C328.847 4.37891 329.046 4.44953 329.207 4.57898C329.367 4.70843 329.478 4.88888 329.521 5.09023C331.441 14.3402 334.041 16.9302 343.291 18.8602C343.492 18.9034 343.673 19.0143 343.802 19.1745C343.932 19.3346 344.002 19.5343 344.002 19.7402C344.002 19.9462 343.932 20.1459 343.802 20.306C343.673 20.4661 343.492 20.5771 343.291 20.6202Z" fill="#E6EDFC"/>
<path d="M513.832 343.29C505.972 344.93 503.762 347.13 502.122 355C502.083 355.17 501.987 355.321 501.851 355.429C501.715 355.537 501.546 355.596 501.372 355.596C501.198 355.596 501.029 355.537 500.893 355.429C500.757 355.321 500.661 355.17 500.622 355C498.992 347.13 496.782 344.93 488.912 343.29C488.743 343.251 488.592 343.155 488.483 343.019C488.375 342.883 488.316 342.714 488.316 342.54C488.316 342.366 488.375 342.198 488.483 342.061C488.592 341.925 488.743 341.83 488.912 341.79C496.782 340.15 498.992 337.95 500.622 330.08C500.661 329.911 500.757 329.76 500.893 329.652C501.029 329.543 501.198 329.485 501.372 329.485C501.546 329.485 501.715 329.543 501.851 329.652C501.987 329.76 502.083 329.911 502.122 330.08C503.762 337.95 505.972 340.15 513.832 341.79C514.001 341.83 514.153 341.925 514.261 342.061C514.369 342.198 514.428 342.366 514.428 342.54C514.428 342.714 514.369 342.883 514.261 343.019C514.153 343.155 514.001 343.251 513.832 343.29Z" fill="#E6EDFC"/>
<path d="M399.972 24.3902C394.792 25.4702 393.342 26.9202 392.262 32.1102C392.239 32.2257 392.177 32.3297 392.085 32.4043C391.994 32.479 391.88 32.5197 391.762 32.5197C391.645 32.5197 391.53 32.479 391.439 32.4043C391.348 32.3297 391.286 32.2257 391.262 32.1102C390.182 26.9202 388.732 25.4702 383.542 24.3902C383.427 24.367 383.323 24.3045 383.248 24.2134C383.174 24.1222 383.133 24.0081 383.133 23.8902C383.133 23.7724 383.174 23.6582 383.248 23.5671C383.323 23.476 383.427 23.4135 383.542 23.3902C388.732 22.3102 390.182 20.8602 391.262 15.6702C391.286 15.5547 391.348 15.4508 391.439 15.3762C391.53 15.3015 391.645 15.2607 391.762 15.2607C391.88 15.2607 391.994 15.3015 392.085 15.3762C392.177 15.4508 392.239 15.5547 392.262 15.6702C393.342 20.8602 394.792 22.3102 399.972 23.3902C400.088 23.4135 400.192 23.476 400.266 23.5671C400.341 23.6582 400.382 23.7724 400.382 23.8902C400.382 24.0081 400.341 24.1222 400.266 24.2134C400.192 24.3045 400.088 24.367 399.972 24.3902Z" fill="#E6EDFC"/>
<path d="M76.2308 109.18C71.0508 110.26 69.6008 111.72 68.5208 116.9C68.5208 117.033 68.4681 117.16 68.3743 117.254C68.2806 117.348 68.1534 117.4 68.0208 117.4C67.8882 117.4 67.761 117.348 67.6672 117.254C67.5735 117.16 67.5208 117.033 67.5208 116.9C66.4408 111.72 64.9908 110.26 59.8008 109.18C59.6682 109.18 59.541 109.128 59.4472 109.034C59.3535 108.94 59.3008 108.813 59.3008 108.68C59.3008 108.548 59.3535 108.42 59.4472 108.327C59.541 108.233 59.6682 108.18 59.8008 108.18C64.9908 107.1 66.4408 105.64 67.5208 100.46C67.544 100.345 67.6065 100.241 67.6976 100.166C67.7888 100.092 67.903 100.051 68.0208 100.051C68.1386 100.051 68.2528 100.092 68.3439 100.166C68.4351 100.241 68.4976 100.345 68.5208 100.46C69.6008 105.64 71.0508 107.1 76.2308 108.18C76.3634 108.18 76.4906 108.233 76.5843 108.327C76.6781 108.42 76.7308 108.548 76.7308 108.68C76.7308 108.813 76.6781 108.94 76.5843 109.034C76.4906 109.128 76.3634 109.18 76.2308 109.18Z" fill="#E6EDFC"/>
<path d="M98.9026 368.59C93.7126 369.67 92.2627 371.12 91.1827 376.31C91.1594 376.426 91.0969 376.53 91.0058 376.604C90.9147 376.679 90.8005 376.72 90.6827 376.72C90.5648 376.72 90.4507 376.679 90.3595 376.604C90.2684 376.53 90.2059 376.426 90.1827 376.31C89.1127 371.12 87.6527 369.67 82.4727 368.59C82.34 368.59 82.2129 368.538 82.1191 368.444C82.0253 368.35 81.9727 368.223 81.9727 368.09C81.9727 367.958 82.0253 367.83 82.1191 367.737C82.2129 367.643 82.34 367.59 82.4727 367.59C87.6527 366.51 89.1127 365.06 90.1827 359.87C90.2059 359.755 90.2684 359.651 90.3595 359.576C90.4507 359.501 90.5648 359.461 90.6827 359.461C90.8005 359.461 90.9147 359.501 91.0058 359.576C91.0969 359.651 91.1594 359.755 91.1827 359.87C92.2627 365.06 93.7126 366.51 98.9026 367.59C99.0182 367.613 99.1221 367.676 99.1967 367.767C99.2714 367.858 99.3122 367.972 99.3122 368.09C99.3122 368.208 99.2714 368.322 99.1967 368.413C99.1221 368.505 99.0182 368.567 98.9026 368.59Z" fill="#E6EDFC"/>
</svg>
