<svg width="576" height="483" viewBox="0 0 576 483" fill="none" xmlns="http://www.w3.org/2000/svg">
<g style="mix-blend-mode:multiply" opacity="0.3">
<path d="M299.218 234.9H160.781C159.712 234.9 158.654 235.111 157.667 235.52C156.68 235.929 155.783 236.529 155.028 237.285C154.273 238.041 153.674 238.938 153.265 239.925C152.857 240.913 152.648 241.971 152.648 243.039V300.712C152.648 302.868 153.505 304.937 155.03 306.462C156.555 307.987 158.624 308.844 160.781 308.844H175.158C174.322 315.195 173.23 324.303 173.83 324.303C174.431 324.303 181.444 314.72 185.662 308.844H299.218C300.286 308.844 301.344 308.634 302.331 308.226C303.318 307.817 304.215 307.218 304.97 306.463C305.726 305.708 306.325 304.811 306.734 303.824C307.143 302.838 307.354 301.78 307.354 300.712V243.039C307.354 241.971 307.145 240.912 306.736 239.924C306.328 238.937 305.729 238.039 304.973 237.283C304.217 236.528 303.32 235.928 302.333 235.519C301.345 235.11 300.287 234.9 299.218 234.9Z" fill="#A9CCDC"/>
</g>
<path d="M305.842 219.567H167.402C166.333 219.567 165.276 219.778 164.289 220.187C163.302 220.596 162.405 221.195 161.65 221.95C160.895 222.706 160.296 223.603 159.888 224.59C159.479 225.577 159.269 226.635 159.27 227.703V285.375C159.269 286.443 159.479 287.501 159.888 288.488C160.296 289.475 160.895 290.372 161.65 291.128C162.405 291.883 163.302 292.483 164.289 292.891C165.276 293.3 166.333 293.511 167.402 293.511H181.779C180.946 299.858 179.851 308.966 180.451 308.966C181.052 308.966 188.065 299.384 192.283 293.511H305.842C306.911 293.511 307.968 293.3 308.955 292.891C309.942 292.483 310.839 291.883 311.594 291.128C312.349 290.372 312.948 289.475 313.357 288.488C313.765 287.501 313.975 286.443 313.975 285.375V227.703C313.975 226.635 313.765 225.577 313.357 224.59C312.948 223.603 312.349 222.706 311.594 221.95C310.839 221.195 309.942 220.596 308.955 220.187C307.968 219.778 306.911 219.567 305.842 219.567Z" fill="#FFB1A5"/>
<path d="M200.488 271.163C208.451 263.2 208.451 250.29 200.488 242.327C192.525 234.364 179.615 234.364 171.652 242.327C163.69 250.29 163.69 263.2 171.652 271.163C179.615 279.126 192.525 279.126 200.488 271.163Z" fill="white"/>
<path d="M189.294 267.02H183.309V272.998H189.294V267.02Z" fill="#FFC0BB"/>
<path d="M189.298 270.603V267.02H183.309V270.067C184.592 270.76 186.506 271.159 189.298 270.603Z" fill="#F99893"/>
<path d="M198.74 256.321C198.423 256.176 198.076 256.108 197.728 256.121C197.379 256.135 197.039 256.23 196.734 256.399C196.734 253.572 195.611 250.86 193.611 248.861C191.612 246.861 188.9 245.738 186.073 245.738C183.245 245.738 180.534 246.861 178.535 248.861C176.535 250.86 175.412 253.572 175.412 256.399C175.108 256.23 174.768 256.135 174.42 256.121C174.072 256.108 173.726 256.176 173.409 256.321C172.208 256.911 171.836 258.6 172.576 260.098C173.317 261.596 174.886 262.327 176.084 261.736C176.247 261.655 176.397 261.552 176.531 261.429C177.214 266.306 181.309 269.961 186.087 269.892C190.864 269.961 194.942 266.306 195.642 261.429C195.777 261.552 195.929 261.655 196.092 261.736C197.29 262.327 198.86 261.593 199.6 260.098C200.341 258.604 199.952 256.911 198.74 256.321Z" fill="#FFC0BB"/>
<path d="M178.792 243.411C178.792 243.411 181.795 240.869 188.627 241.282C195.459 241.695 196.756 245.254 197.159 250.346L196.76 256.399C196.76 256.399 194.988 254.577 192.664 249.523C192.664 249.523 188.839 253.813 187.174 253.304C185.508 252.796 187.805 249.707 187.805 249.707C187.805 249.707 180.014 256.41 175.424 256.399C175.424 256.399 172.998 248.551 176.407 245.677C176.407 245.677 173.837 245.8 173.704 245.295C173.571 244.79 174.926 244.032 177.397 244.319C177.397 244.319 175.636 240.879 176.619 240.521C177.601 240.162 178.792 243.411 178.792 243.411Z" fill="#07085B"/>
<path d="M189.989 263.286C189.727 264.47 188.372 265.399 186.713 265.45C185.055 265.501 183.642 264.655 183.301 263.491L189.989 263.286Z" fill="white"/>
<path d="M293.825 236.19H214.279C213.836 236.19 213.477 236.549 213.477 236.992V238.931C213.477 239.374 213.836 239.733 214.279 239.733H293.825C294.268 239.733 294.627 239.374 294.627 238.931V236.992C294.627 236.549 294.268 236.19 293.825 236.19Z" fill="white"/>
<path d="M231.84 245.541H214.279C213.836 245.541 213.477 245.9 213.477 246.342V248.281C213.477 248.724 213.836 249.083 214.279 249.083H231.84C232.282 249.083 232.642 248.724 232.642 248.281V246.342C232.642 245.9 232.282 245.541 231.84 245.541Z" fill="white"/>
<path d="M293.828 245.541H240.677C240.234 245.541 239.875 245.9 239.875 246.343V248.281C239.875 248.724 240.234 249.083 240.677 249.083H293.828C294.271 249.083 294.63 248.724 294.63 248.281V246.343C294.63 245.9 294.271 245.541 293.828 245.541Z" fill="white"/>
<path d="M254.598 254.888H214.279C213.836 254.888 213.477 255.247 213.477 255.69V257.628C213.477 258.071 213.836 258.43 214.279 258.43H254.598C255.041 258.43 255.4 258.071 255.4 257.628V255.69C255.4 255.247 255.041 254.888 254.598 254.888Z" fill="white"/>
<path d="M293.824 254.888H262.333C261.89 254.888 261.531 255.247 261.531 255.69V257.628C261.531 258.071 261.89 258.43 262.333 258.43H293.824C294.267 258.43 294.626 258.071 294.626 257.628V255.69C294.626 255.247 294.267 254.888 293.824 254.888Z" fill="white"/>
<path d="M293.825 264.238H214.279C213.836 264.238 213.477 264.597 213.477 265.04V266.979C213.477 267.421 213.836 267.781 214.279 267.781H293.825C294.268 267.781 294.627 267.421 294.627 266.979V265.04C294.627 264.597 294.268 264.238 293.825 264.238Z" fill="white"/>
<path d="M373.307 146.522L378.351 178.16L389.005 135.98C389.005 135.98 374.071 128.732 373.409 131.37C372.747 134.008 373.307 146.522 373.307 146.522Z" fill="#07085B"/>
<path d="M458.08 214.609L462.691 269.299L414.434 266.992L419.996 218.565L458.08 214.609Z" fill="#FFC0BB"/>
<path d="M417.348 241.596L419.996 218.565L458.08 214.609L459.677 233.549C452.105 241.094 438.488 248.916 417.348 241.596Z" fill="#F99893"/>
<path d="M387.756 177.76C390.66 183.763 389.121 190.51 384.32 192.83C379.518 195.151 373.273 192.171 370.373 186.169C367.472 180.166 369.007 173.419 373.809 171.099C378.61 168.778 384.855 171.761 387.756 177.76Z" fill="#F99893"/>
<path d="M387.406 205.501C383.953 197.765 381.946 189.462 380.752 182.152C380.499 180.586 380.158 179.04 379.786 177.498C378.217 170.999 377.925 164.257 378.926 157.647C382.281 135.271 400.285 117.43 422.699 114.331C429.734 113.338 436.897 113.809 443.741 115.714C450.585 117.62 456.962 120.919 462.471 125.405C467.98 129.89 472.503 135.466 475.756 141.782C479.009 148.097 480.922 155.017 481.375 162.107C484.48 160.114 488.07 159.473 491.343 160.691C497.622 163.032 500.342 171.294 497.417 179.146C494.493 186.998 487.026 191.462 480.747 189.121C479.894 188.795 479.091 188.354 478.358 187.81C477.389 213.169 457.975 233.928 433.189 235.088C421.068 235.655 409.789 231.43 401.036 224.028C395.419 219.933 390.126 211.91 387.406 205.501Z" fill="#FFC0BB"/>
<path d="M418.356 165.622C418.257 168.577 418.233 171.461 418.079 174.287C417.905 176.897 417.619 180.654 415.991 182.644C415.752 182.985 414.472 184.367 414.442 186.466C414.435 187.38 414.633 188.284 415.023 189.111C415.413 189.938 415.984 190.667 416.694 191.244C419.328 193.462 422.741 193.67 425.567 192.974C422.683 192.465 419.922 191.472 418.311 189.592C417.567 188.657 417.073 187.609 417.247 186.63C417.373 185.504 418.001 184.924 418.226 184.582C419.028 183.521 419.994 182.415 420.403 178.805C420.547 177.293 420.547 175.771 420.403 174.259C420.14 171.297 419.45 168.388 418.356 165.622Z" fill="#F99893"/>
<path d="M435.45 169.526C435.492 170.415 435.796 171.272 436.325 171.989C436.853 172.705 437.582 173.248 438.42 173.55C439.257 173.852 440.165 173.899 441.029 173.685C441.894 173.471 442.675 173.005 443.274 172.347C443.874 171.689 444.265 170.868 444.397 169.987C444.53 169.107 444.399 168.207 444.02 167.401C443.641 166.596 443.032 165.92 442.27 165.461C441.507 165.001 440.626 164.778 439.736 164.82C438.544 164.876 437.423 165.403 436.619 166.285C435.815 167.168 435.395 168.333 435.45 169.526Z" fill="#333333"/>
<path d="M396.958 173.867C396.999 174.756 397.304 175.613 397.832 176.329C398.361 177.046 399.09 177.589 399.927 177.891C400.765 178.193 401.673 178.24 402.537 178.026C403.401 177.812 404.183 177.346 404.782 176.688C405.382 176.03 405.772 175.209 405.905 174.328C406.038 173.448 405.907 172.548 405.528 171.742C405.149 170.937 404.54 170.261 403.778 169.802C403.015 169.342 402.133 169.119 401.244 169.161C400.052 169.216 398.93 169.743 398.127 170.626C397.323 171.509 396.902 172.674 396.958 173.867Z" fill="#333333"/>
<path d="M443.004 200.003C438.421 203.996 432.459 207.115 426.542 207.832C420.14 208.641 414.485 206.689 409.035 203.334C414.11 207.596 419.986 209.757 426.685 209.006C433.21 208.156 439.308 204.399 443.004 200.003Z" fill="#F99893"/>
<path d="M429.805 159.363C436.145 157.401 439.739 157.292 442.636 157.657C448.963 158.507 452.532 161.305 454.73 162.274C452.068 157.37 447.98 154.767 443.035 154.139C437.681 153.48 432.443 155.899 429.805 159.363Z" fill="#07085B"/>
<path d="M409.974 161.595C406.722 158.722 401.101 157.35 395.982 159.025C391.27 160.585 387.755 163.936 386.086 169.263C388.072 167.881 391.01 164.451 397.054 162.39C399.818 161.496 403.357 160.902 409.974 161.595Z" fill="#07085B"/>
<path d="M409.042 247.476C409.042 247.476 363.625 253.243 352.09 262.617C340.556 271.992 285.047 409.678 285.047 409.678L331.185 463.747L429.228 464.467C429.228 464.467 502.758 504.118 548.896 466.631C595.034 429.144 571.245 298.661 544.569 270.545C517.893 242.429 470.318 243.152 470.318 243.152C470.318 243.152 427.064 273.442 409.042 247.476Z" fill="#FF0066"/>
<path d="M496.989 315.976C495.364 323.484 494.371 331.097 493.661 338.738C493.272 342.56 493.102 346.396 492.883 350.231C492.767 354.071 492.678 357.913 492.73 361.759C492.88 369.448 493.303 377.16 494.624 384.77C495.944 392.38 497.791 399.959 501.316 406.808C498.944 399.502 497.767 391.991 496.917 384.459C496.067 376.928 495.791 369.318 495.692 361.721C495.535 354.118 495.723 346.505 495.961 338.881C496.2 331.258 496.582 323.634 496.989 315.976Z" fill="white"/>
<path d="M361.1 310.929C359.025 322.098 356.828 333.223 354.592 344.331C352.357 355.439 349.955 366.513 347.269 377.494C344.583 388.476 341.662 399.41 338.089 410.115C336.324 415.473 334.273 420.734 331.947 425.874C329.64 430.993 326.903 435.982 323.234 440.33C327.408 436.436 330.476 431.498 333.25 426.522C335.924 421.473 338.264 416.253 340.253 410.896C342.3 405.569 344.041 400.137 345.713 394.687C347.305 389.227 348.784 383.729 350.149 378.194C351.453 372.652 352.702 367.103 353.825 361.527C354.947 355.951 355.971 350.361 356.865 344.747C358.718 333.534 360.158 322.255 361.1 310.929Z" fill="white"/>
<path d="M338.277 432.597C338.567 430.317 355.893 427.768 362.261 427.437C367.086 427.188 399.072 426.12 409.951 425.628L409.153 428.427L409.32 440.78L411.105 448.97C401.55 449.571 378.225 450.485 373.365 451.448C366.881 452.731 355.62 457.625 355.62 457.625C355.62 457.625 350.938 456.56 356.889 453.994C360.514 452.4 363.768 450.07 366.445 447.151C367.26 446.237 366.376 444.612 365.783 444.763C349.583 449.008 347.914 449.711 347.914 449.711C347.914 449.711 328.876 449.605 347.809 445.326C359.155 442.759 363.223 441.268 364.233 439.995C364.663 439.453 363.892 437.607 363.21 437.566C353.375 436.958 335.728 440.442 340.564 438.159C344.505 436.293 356.92 434.252 361.746 433.481C362.042 433.433 362.524 431.634 361.203 431.525C351.825 430.747 338.008 434.719 338.277 432.597Z" fill="#FFC0BB"/>
<path d="M496.161 407.839C492.186 408.784 488.152 409.477 484.159 410.316C476.123 411.784 468.062 413.046 459.975 414.193C451.88 415.258 443.775 416.24 435.646 417.018C427.518 417.796 419.317 418.513 411.305 418.96L410.226 419.018L409.991 419.953C409.329 422.615 408.835 425.315 408.51 428.038C408.178 430.747 408.019 433.474 408.032 436.204C408.054 438.948 408.292 441.687 408.742 444.394C409.248 447.102 410.049 449.747 411.131 452.28L411.223 452.499L411.4 452.615L420.304 458.59C423.261 460.583 426.245 462.552 429.255 464.497C426.463 462.261 423.649 460.055 420.812 457.88L412.53 451.489C411.669 449.092 411.065 446.611 410.728 444.087C410.404 441.484 410.276 438.86 410.346 436.238C410.445 433.611 410.683 430.991 411.059 428.389C411.388 426.128 411.832 423.885 412.39 421.67C416.232 421.543 419.898 421.294 423.689 421.018C427.784 420.718 431.879 420.393 435.974 419.963C444.137 419.117 452.286 418.1 460.394 416.803C468.503 415.507 476.567 413.913 484.559 412.026C488.538 411.002 492.524 410.029 496.441 408.791C500.393 407.682 504.263 406.3 508.119 404.928C504.089 405.887 500.158 406.999 496.161 407.839Z" fill="white"/>
<path d="M148.174 340.847H302.688C305.006 340.847 307.271 341.537 309.195 342.828C311.119 344.12 312.616 345.954 313.496 348.098L360.807 463.579H446.234C447.381 463.58 448.481 464.037 449.292 464.848C450.102 465.659 450.558 466.76 450.558 467.907C450.558 468.474 450.446 469.037 450.229 469.561C450.011 470.086 449.693 470.562 449.291 470.964C448.89 471.365 448.413 471.684 447.889 471.901C447.364 472.118 446.802 472.23 446.234 472.23H199.608C197.379 472.231 195.197 471.587 193.326 470.376C191.454 469.165 189.973 467.439 189.06 465.405L139.319 354.528C138.656 353.049 138.373 351.429 138.497 349.814C138.621 348.198 139.147 346.64 140.027 345.28C140.907 343.92 142.114 342.802 143.537 342.027C144.96 341.253 146.554 340.847 148.174 340.847Z" fill="#07085B"/>
<path d="M372.333 116.594C372.333 116.594 357.191 117.082 373.08 104.278C388.969 91.4741 431.629 76.4622 458.974 90.9007C458.974 90.9007 464.434 79.2776 472.345 82.052C480.255 84.8264 467.205 92.8254 467.205 92.8254C467.205 92.8254 477.3 92.4842 480.378 97.4529C482.658 101.111 476.474 101.272 473.096 101.108C478.842 102.084 500.87 115.997 489.817 160.415C485.889 159.551 463.496 127.077 463.496 127.077C463.496 127.077 412.284 155.528 417.348 132.906C417.348 132.906 364.296 166.008 371.821 138.666C371.817 138.666 351.305 140.168 372.333 116.594Z" fill="#07085B"/>
<path d="M489.86 160.68C489.86 160.68 485.618 159.189 481.059 162.81C476.5 166.431 477.001 179.146 477.001 179.146C477.001 179.146 455.232 193.185 457.529 133.786C459.986 70.5922 475.684 138.854 475.684 138.854L489.86 160.68Z" fill="#07085B"/>
<g style="mix-blend-mode:multiply" opacity="0.3">
<path d="M199.346 103.964H40.788C38.1579 103.964 35.6355 105.009 33.7757 106.868C31.9159 108.728 30.8711 111.251 30.8711 113.881V179.313C30.8711 181.943 31.9159 184.466 33.7757 186.326C35.6355 188.185 38.1579 189.23 40.788 189.23H165.62C170.674 196.287 179.833 208.914 180.642 208.914C181.45 208.914 179.939 196.99 178.911 189.24H199.346C201.976 189.24 204.498 188.196 206.358 186.336C208.218 184.476 209.263 181.954 209.263 179.323V113.881C209.263 111.251 208.218 108.728 206.358 106.868C204.498 105.009 201.976 103.964 199.346 103.964Z" fill="#A9CCDC"/>
</g>
<path d="M192.782 86.9893H34.2411C31.611 86.9893 29.0886 88.0341 27.2288 89.8939C25.369 91.7537 24.3242 94.2761 24.3242 96.9062V162.339C24.3242 164.969 25.369 167.491 27.2288 169.351C29.0886 171.211 31.611 172.256 34.2411 172.256H159.073C164.123 179.306 173.283 191.932 174.088 191.932C174.893 191.932 173.388 180.009 172.361 172.256H192.782C195.412 172.256 197.934 171.211 199.794 169.351C201.654 167.491 202.699 164.969 202.699 162.339V96.9062C202.699 94.2761 201.654 91.7537 199.794 89.8939C197.934 88.0341 195.412 86.9893 192.782 86.9893Z" fill="#FF9DB2"/>
<path d="M67.9452 152.564C80.6108 147.264 86.5812 132.699 81.2804 120.033C75.9797 107.368 61.4151 101.397 48.7495 106.698C36.0839 111.999 30.1135 126.563 35.4142 139.229C40.715 151.895 55.2796 157.865 67.9452 152.564Z" fill="white"/>
<path d="M45.416 130.278C45.416 130.278 42.9488 120.163 48.8286 116.372C54.7085 112.581 60.9739 111.717 65.2567 113.901C71.1979 116.925 73.6379 125.101 71.7405 129.623L55.9745 125.664L45.416 130.278Z" fill="#040744"/>
<path d="M62.2878 142.15H54.9883V149.44H62.2878V142.15Z" fill="#FFC0BB"/>
<path d="M62.2878 146.522V142.15H54.9883V145.867C56.5615 146.713 58.8888 147.198 62.2878 146.522Z" fill="#F99893"/>
<path d="M73.7962 129.104C73.4088 128.929 72.9859 128.847 72.5611 128.864C72.1363 128.881 71.7213 128.997 71.3494 129.203C71.4117 127.481 71.1179 125.765 70.4866 124.161C69.8552 122.558 68.8998 121.102 67.68 119.885C66.4603 118.668 65.0025 117.715 63.3979 117.087C61.7932 116.459 60.0762 116.169 58.3543 116.235C56.6323 116.169 54.9152 116.459 53.3104 117.087C51.7055 117.715 50.2475 118.668 49.0275 119.885C47.8075 121.102 46.8518 122.558 46.22 124.161C45.5882 125.764 45.2941 127.481 45.3559 129.203C44.9839 128.997 44.569 128.881 44.1442 128.864C43.7194 128.847 43.2965 128.929 42.9091 129.104C41.4485 129.824 40.9946 131.889 41.8853 133.711C42.776 135.533 44.7007 136.441 46.1613 135.711C46.3604 135.611 46.5452 135.485 46.7107 135.335C47.5468 141.28 52.512 145.737 58.3441 145.655C64.1728 145.737 69.138 141.28 69.9775 135.335C70.1424 135.484 70.3259 135.61 70.5235 135.711C71.9841 136.431 73.8986 135.533 74.8029 133.711C75.7072 131.889 75.2568 129.824 73.7962 129.104Z" fill="#FFC0BB"/>
<path d="M63.1307 137.591C62.8099 139.031 61.1616 140.164 59.138 140.225C57.1143 140.287 55.3841 139.26 54.9883 137.837L63.1307 137.591Z" fill="white"/>
<path d="M45.3596 129.203C45.3596 129.203 54.9148 126.309 59.0952 121.477C59.0952 121.477 57.911 127.299 57.0272 128.227C57.307 128.411 66.5824 123.91 67.8279 119.754C69.0735 115.597 58.3581 114.103 58.3581 114.103C58.3581 114.103 54.6793 115.669 54.4951 115.761C54.3108 115.853 50.8607 116.256 50.4648 117.126C49.9495 118.269 47.5164 118.372 47.5164 118.372L45.9773 121.569L44.9023 124.934L45.3596 129.203Z" fill="#040744"/>
<path d="M37.5312 116.041C39.6402 116.891 42.0768 117.283 44.6021 116.508C50.1782 114.802 52.3861 115.461 53.1335 115.881C53.3502 116.012 53.5921 116.097 53.8436 116.13C54.0951 116.163 54.3507 116.143 54.5941 116.072C55.1435 115.887 55.6554 115.389 55.495 114.133C55.495 114.133 55.7168 108.837 51.1747 105.817C45.5667 107.516 40.7363 111.136 37.5312 116.041Z" fill="#040744"/>
<path d="M49.5278 115.693C49.4881 115.641 49.4594 115.582 49.4437 115.519C49.4279 115.456 49.4254 115.39 49.4363 115.326C49.4472 115.262 49.4713 115.201 49.507 115.146C49.5427 115.092 49.5893 115.046 49.6438 115.01C50.5755 114.396 52.9711 113.017 55.8479 112.871C55.9119 112.868 55.9758 112.878 56.0357 112.901C56.0956 112.923 56.1504 112.958 56.1966 113.002C56.2428 113.046 56.2796 113.1 56.3047 113.159C56.3298 113.217 56.3428 113.281 56.3427 113.345C56.3429 113.466 56.2965 113.582 56.2133 113.67C56.1301 113.757 56.0164 113.81 55.8957 113.816C53.2646 113.952 51.0123 115.249 50.1626 115.802C50.0629 115.869 49.9415 115.894 49.8234 115.874C49.7053 115.854 49.5995 115.789 49.5278 115.693Z" fill="#A5A5A5"/>
<path d="M120.386 108.206H89.0419C88.501 108.206 88.0625 108.644 88.0625 109.185V111.546C88.0625 112.087 88.501 112.526 89.0419 112.526H120.386C120.927 112.526 121.366 112.087 121.366 111.546V109.185C121.366 108.644 120.927 108.206 120.386 108.206Z" fill="white"/>
<path d="M109.579 119.607H89.0419C88.501 119.607 88.0625 120.045 88.0625 120.586V122.948C88.0625 123.489 88.501 123.927 89.0419 123.927H109.579C110.12 123.927 110.558 123.489 110.558 122.948V120.586C110.558 120.045 110.12 119.607 109.579 119.607Z" fill="white"/>
<path d="M141.141 119.607H115.417C114.876 119.607 114.438 120.045 114.438 120.586V122.948C114.438 123.489 114.876 123.927 115.417 123.927H141.141C141.682 123.927 142.12 123.489 142.12 122.948V120.586C142.12 120.045 141.682 119.607 141.141 119.607Z" fill="white"/>
<path d="M182.341 108.206H127.866C127.325 108.206 126.887 108.644 126.887 109.185V111.546C126.887 112.087 127.325 112.526 127.866 112.526H182.341C182.882 112.526 183.32 112.087 183.32 111.546V109.185C183.32 108.644 182.882 108.206 182.341 108.206Z" fill="white"/>
<path d="M182.341 141.949H89.0419C88.501 141.949 88.0625 142.388 88.0625 142.929V145.29C88.0625 145.831 88.501 146.27 89.0419 146.27H182.341C182.882 146.27 183.321 145.831 183.321 145.29V142.929C183.321 142.388 182.882 141.949 182.341 141.949Z" fill="white"/>
<path d="M136.292 131.005H89.0419C88.501 131.005 88.0625 131.443 88.0625 131.984V134.346C88.0625 134.887 88.501 135.325 89.0419 135.325H136.292C136.833 135.325 137.272 134.887 137.272 134.346V131.984C137.272 131.443 136.833 131.005 136.292 131.005Z" fill="white"/>
<path d="M182.342 131.005H145.452C144.911 131.005 144.473 131.443 144.473 131.984V134.346C144.473 134.887 144.911 135.325 145.452 135.325H182.342C182.883 135.325 183.321 134.887 183.321 134.346V131.984C183.321 131.443 182.883 131.005 182.342 131.005Z" fill="white"/>
<path d="M237.211 419.866C242.487 418.753 245.53 412 244.007 404.782C242.485 397.564 236.974 392.615 231.698 393.728C226.422 394.841 223.379 401.594 224.901 408.812C226.423 416.03 231.935 420.979 237.211 419.866Z" fill="white"/>
<path d="M182.71 15.6739L186.014 40.5856L168.323 27.6691L114.176 0L156.058 3.81866C156.058 3.81866 177.393 9.00234 178.55 10.0466C179.707 11.0908 182.71 15.6739 182.71 15.6739Z" fill="#C12F56"/>
<path d="M201.254 0.634742L114.176 0L182.71 15.6739L201.254 0.634742Z" fill="#FF9DB2"/>
<path d="M154.717 40.7323L177.533 22.4035L114.176 0L154.717 40.7323Z" fill="#FF9DB2"/>
<path d="M290.408 150.286L289.258 148.58C291.043 147.361 292.651 145.902 294.035 144.242L295.602 145.563C294.097 147.37 292.349 148.96 290.408 150.286Z" fill="#A5A5A5"/>
<path d="M301.924 133.574L299.968 132.96C301.225 128.804 302.008 124.519 302.303 120.187L304.35 120.344C304.044 124.831 303.23 129.27 301.924 133.574ZM304.278 106.956L302.231 107.164C302.173 106.601 302.108 106.038 302.033 105.479C301.78 103.547 301.421 101.631 300.958 99.7387C300.528 97.9915 299.999 96.234 299.388 94.5107L301.323 93.8281C301.954 95.6163 302.5 97.4386 302.947 99.2507C303.432 101.212 303.809 103.199 304.077 105.202C304.149 105.765 304.217 106.352 304.278 106.946V106.956ZM293.757 82.7953C291.473 79.0878 288.873 75.5838 285.987 72.3222L287.523 70.9571C290.487 74.3104 293.155 77.9138 295.498 81.7272L293.757 82.7953ZM229.687 77.9461C228.291 78.2873 224.735 78.3692 222.452 77.0076C220.661 75.8983 219.232 74.2916 218.34 72.3836L220.183 71.4827C220.897 73.0316 222.05 74.3368 223.5 75.2365C225.148 76.2159 228.083 76.2193 229.195 75.9429C229.267 75.9293 229.337 75.9076 229.403 75.8781L229.693 75.6869L230.833 77.3932L230.492 77.6253C230.242 77.7744 229.97 77.8827 229.687 77.9461ZM276.64 63.1697C273.309 60.3471 269.806 57.7349 266.15 55.3481L267.273 53.6418C271.005 56.0819 274.581 58.7523 277.981 61.6374L276.64 63.1697ZM238.221 65.8827L236.215 65.4595C236.478 64.2 236.613 62.9172 236.618 61.6306C236.617 59.768 236.388 57.9124 235.935 56.1057C235.676 55.0643 235.357 54.0389 234.979 53.0344L236.897 52.3143C237.304 53.3929 237.646 54.4948 237.921 55.6143C238.416 57.5826 238.667 59.6044 238.668 61.634C238.664 63.0618 238.514 64.4853 238.221 65.8827ZM220.193 59.5694L218.343 58.6856C220.203 54.7987 223.694 51.3963 227.926 49.3454L228.206 49.2123L229.079 51.0687L228.82 51.1916C224.998 53.0412 221.855 56.0954 220.193 59.5694ZM254.206 50.376C250.486 49.2396 247.534 48.5503 246.104 48.482C244.466 48.4035 242.965 48.3865 241.521 48.4308L241.46 46.3833C242.958 46.3389 244.511 46.356 246.203 46.4379C248.384 46.5403 252.527 47.721 254.803 48.4172L254.206 50.376ZM228.328 42.0732C225.52 38.7905 222.243 35.9399 218.603 33.6135L219.708 31.8867C223.52 34.3205 226.95 37.3047 229.888 40.7423L228.328 42.0732Z" fill="#A5A5A5"/>
<path d="M206.843 28.362C204.72 27.7752 202.551 27.3666 200.359 27.1403L200.568 25.0928C202.874 25.3294 205.157 25.7586 207.393 26.3759L206.843 28.362Z" fill="#A5A5A5"/>
<path d="M112.756 318.327C112.756 318.327 112.002 325.767 106.129 326.282C112.002 326.797 112.756 334.24 112.756 334.24C112.756 334.24 113.51 326.797 119.383 326.282C113.51 325.767 112.756 318.327 112.756 318.327Z" fill="#FF9DB2"/>
<path d="M333.825 212.248C333.825 212.248 332.624 224.1 323.273 224.919C332.624 225.738 333.825 237.586 333.825 237.586C333.825 237.586 335.026 225.738 344.377 224.919C335.026 224.1 333.825 212.248 333.825 212.248Z" fill="#FF0066"/>
<path d="M10.5516 69.1216C10.5516 69.1216 9.35042 80.9734 0 81.7924C9.35042 82.6114 10.5516 94.4599 10.5516 94.4599C10.5516 94.4599 11.7529 82.6114 21.1067 81.7924C11.7631 80.9734 10.5516 69.1216 10.5516 69.1216Z" fill="#FF0066"/>
<path d="M236.637 168.239C236.637 168.239 235.722 178.736 228.59 179.463C235.722 180.19 236.637 190.687 236.637 190.687C236.637 190.687 237.555 180.19 244.684 179.463C237.555 178.736 236.637 168.239 236.637 168.239Z" fill="#A5A5A5"/>
<path d="M51.6249 14.7559C51.6249 14.7559 50.7104 25.2563 43.5781 25.9798C50.7104 26.7067 51.6249 37.2071 51.6249 37.2071C51.6249 37.2071 52.5429 26.7067 59.6752 25.9798C52.5429 25.2563 51.6249 14.7559 51.6249 14.7559Z" fill="#A5A5A5"/>
</svg>
