<svg width="512" height="303" viewBox="0 0 512 303" fill="none" xmlns="http://www.w3.org/2000/svg">
<path d="M67.2109 68.8141C67.0919 67.6714 66.5391 66.6124 65.6598 65.8424C64.7805 65.0725 63.6374 64.6465 62.4524 64.6471C61.9669 64.6448 61.4838 64.7127 61.0191 64.8485C60.9105 63.345 60.3901 61.8968 59.5115 60.6531C58.6329 59.4095 57.4278 58.4155 56.0207 57.7737C54.6135 57.1318 53.0551 56.8653 51.5062 57.0017C49.9573 57.1381 48.474 57.6723 47.2093 58.5494C46.1616 56.9296 44.6584 55.6334 42.8763 54.8135C41.0943 53.9935 39.1077 53.6839 37.1503 53.921C35.1928 54.1581 33.346 54.9321 31.8271 56.152C30.3081 57.3718 29.1804 58.9866 28.5764 60.8065C27.5587 60.0962 26.3726 59.646 25.1278 59.4976C23.883 59.3491 22.6197 59.5072 21.4546 59.9571C20.2895 60.4071 19.2603 61.1344 18.4621 62.0719C17.6639 63.0094 17.1225 64.1268 16.8879 65.3208C16.199 64.9219 15.4178 64.697 14.616 64.6666C13.8141 64.6362 13.0172 64.8014 12.2983 65.147C11.5794 65.4926 10.9615 66.0075 10.5013 66.6445C10.0411 67.2816 9.75318 68.0204 9.66406 68.7933L67.2109 68.8141Z" fill="#B4DDFB"/>
<path d="M314.934 33.9574C314.276 32.9928 313.382 32.2011 312.332 31.6533C311.281 31.1055 310.107 30.8186 308.914 30.8183C307.997 30.8173 307.089 30.9895 306.241 31.3253C305.96 28.8701 304.913 26.5564 303.239 24.6932C301.566 22.8299 299.346 21.5056 296.875 20.8973C294.405 20.289 291.801 20.4254 289.413 21.2885C287.025 22.1516 284.965 23.7003 283.509 25.7277C282.158 24.969 280.649 24.5128 279.093 24.3927C277.537 24.2725 275.972 24.4913 274.515 25.0332C273.905 22.6912 272.753 20.5144 271.146 18.6678C269.54 16.8211 267.521 15.353 265.242 14.3746C262.963 13.3963 260.484 12.9333 257.994 13.0208C255.503 13.1083 253.065 13.7439 250.865 14.8796C248.981 10.0398 245.405 5.99329 240.761 3.44422C236.116 0.895146 230.696 0.00481808 225.444 0.92814C220.191 1.85146 215.439 4.52999 212.014 8.49771C208.59 12.4654 206.708 17.4712 206.698 22.6441C204.599 21.2572 202.115 20.5212 199.574 20.5336C197.034 20.546 194.557 21.3062 192.473 22.7135C190.979 19.9111 188.62 17.63 185.725 16.1881C182.83 14.7462 179.543 14.2153 176.322 14.6693C173.101 15.1233 170.106 16.5396 167.755 18.721C165.404 20.9023 163.813 23.7401 163.205 26.8388C161.907 26.238 160.487 25.9271 159.048 25.9291C156.716 25.9294 154.461 26.7415 152.695 28.2176C150.928 29.6937 149.767 31.7355 149.424 33.9713L314.934 33.9574Z" fill="#B4DDFB"/>
<path d="M346.123 94.9202C347.036 93.5769 348.4 92.5805 349.984 92.0996C351.568 91.6187 353.275 91.6828 354.816 92.2811C355.097 89.826 356.144 87.5123 357.817 85.649C359.491 83.7857 361.711 82.4615 364.182 81.8531C366.652 81.2448 369.255 81.3813 371.644 82.2444C374.032 83.1075 376.092 84.6561 377.548 86.6835C378.898 85.9224 380.407 85.4649 381.964 85.3447C383.52 85.2245 385.085 85.4447 386.542 85.989C387.151 83.6464 388.302 81.4689 389.908 79.6215C391.515 77.774 393.534 76.3051 395.813 75.326C398.092 74.3469 400.571 73.8833 403.062 73.9704C405.553 74.0575 407.991 74.6929 410.191 75.8285C412.076 70.9881 415.652 66.9413 420.298 64.3923C424.943 61.8433 430.364 60.9535 435.617 61.8777C440.869 62.802 445.621 65.4817 449.046 69.4507C452.47 73.4196 454.35 78.4265 454.358 83.5999C456.456 82.2084 458.941 81.4696 461.482 81.482C464.024 81.4944 466.501 82.2574 468.584 83.6694C470.074 80.8633 472.432 78.5782 475.327 77.1331C478.223 75.688 481.511 75.155 484.734 75.6085C487.957 76.062 490.953 77.4794 493.305 79.6628C495.657 81.8462 497.246 84.6867 497.852 87.7877C499.226 87.1494 500.735 86.8331 502.259 86.8644C503.782 86.8957 505.277 87.2737 506.621 87.9679C507.966 88.6621 509.124 89.6531 510.001 90.8608C510.877 92.0685 511.449 93.459 511.669 94.9202H346.123Z" fill="#B4DDFB"/>
<path d="M495.681 182.107C479.535 177.1 456.932 201.838 445.193 237.375C436.278 264.356 436.199 289.789 443.76 302.658H475.73C486.443 292.997 496.871 276.052 503.679 255.495C515.389 219.978 511.82 187.115 495.681 182.107Z" fill="#9BD0F5"/>
<path d="M456.221 302.672L493.637 189.42L492.957 189.212L455.469 302.672H456.221Z" fill="#B4DDFB"/>
<path d="M503.961 210.705L483.961 216.901L484.179 217.563L504.18 211.366L503.961 210.705Z" fill="#B4DDFB"/>
<path d="M485.153 267.61L465.152 273.807L465.371 274.468L485.371 268.272L485.153 267.61Z" fill="#B4DDFB"/>
<path d="M455.52 229.342L454.945 229.757L472.274 252.287L472.848 251.872L455.52 229.342Z" fill="#B4DDFB"/>
<path d="M447.727 285.516L447.152 285.931L456.952 298.672L457.526 298.257L447.727 285.516Z" fill="#B4DDFB"/>
<path d="M49.9889 302.547H80.1956H80.2959C89.5048 290.171 87.5842 260.071 79.2138 228.145C68.9657 189.066 46.8499 161.085 29.8152 165.641C12.7805 170.197 7.26948 205.574 17.5175 244.674C24.5694 271.524 37.2469 293.143 49.9889 302.547Z" fill="#DDDDDD"/>
<path d="M32.3361 173.471L31.4609 173.687L65.287 302.666L66.1621 302.45L32.3361 173.471Z" fill="#B3B3B3"/>
<path d="M19.6962 196.078L19.3652 196.892L39.7887 204.689L40.1197 203.874L19.6962 196.078Z" fill="#B3B3B3"/>
<path d="M36.1005 258.627L35.7695 259.441L56.193 267.237L56.524 266.423L36.1005 258.627Z" fill="#B4DDFB"/>
<path d="M68.8794 218.873L49.6426 242.309L50.3493 242.854L69.5861 219.417L68.8794 218.873Z" fill="#B4DDFB"/>
<path d="M73.8828 280.09L63.0039 293.339L63.7105 293.884L74.5894 280.635L73.8828 280.09Z" fill="#B4DDFB"/>
<path d="M139.199 147.202L148.838 149.181C155.13 146.681 155.395 133.111 152.149 118.415C148.745 102.956 140.288 91.6075 133.265 93.0659C126.242 94.5244 123.318 108.227 126.729 123.679C129.13 134.583 134.046 143.438 139.199 147.202Z" fill="#DDDDDD"/>
<path d="M134.308 96.1109L133.607 96.2561L145.116 148.414L145.817 148.269L134.308 96.1109Z" fill="#B4B4B4"/>
<path d="M128.627 104.599L128.342 105.236L136.499 108.67L136.785 108.033L128.627 104.599Z" fill="#B4B4B4"/>
<path d="M134.086 129.339L133.801 129.976L141.958 133.41L142.244 132.773L134.086 129.339Z" fill="#B4DDFB"/>
<path d="M147.994 114.454L139.715 123.247L140.244 123.715L148.524 114.922L147.994 114.454Z" fill="#B4B4B4"/>
<path d="M148.841 138.442L144.16 143.413L144.69 143.881L149.37 138.91L148.841 138.442Z" fill="#B4DDFB"/>
<path d="M314.469 126.652C318.361 114.151 314.964 102.094 306.887 99.6637C298.811 97.233 289.1 105.379 285.209 117.853C282.457 126.652 283.345 135.25 286.936 140.41L296.109 146.528C303.928 147.869 310.772 138.507 314.469 126.652Z" fill="#DDDDDD"/>
<path d="M305.863 102.134L292.525 144.174L293.21 144.378L306.548 102.338L305.863 102.134Z" fill="#C4C4C4"/>
<path d="M298.919 106.176L298.35 106.597L302.801 112.242L303.371 111.82L298.919 106.176Z" fill="#C4C4C4"/>
<path d="M292.607 126.12L292.037 126.542L296.489 132.187L297.058 131.765L292.607 126.12Z" fill="#B4DDFB"/>
<path d="M308.708 120.797L299.102 123.899L299.328 124.558L308.935 121.456L308.708 120.797Z" fill="#C4C4C4"/>
<path d="M299.374 138.412L293.945 140.175L294.173 140.834L299.602 139.07L299.374 138.412Z" fill="#B4DDFB"/>
<path d="M144.129 185.378C139.069 177.878 138.266 162.411 142.832 145.723C148.801 123.888 161.687 108.22 171.605 110.796C181.523 113.373 184.727 133.111 178.771 154.946C175.905 165.426 171.447 174.461 166.488 180.76L144.129 185.378Z" fill="#B4DDFB"/>
<path d="M170.032 115.135L151.219 183.558L151.911 183.737L170.724 115.314L170.032 115.135Z" fill="#DEDEDE"/>
<path d="M177.467 127.713L165.574 132.068L165.828 132.718L177.72 128.363L177.467 127.713Z" fill="#DEDEDE"/>
<path d="M167.91 162.664L156.018 167.019L156.271 167.669L168.164 163.314L167.91 162.664Z" fill="#DEDEDE"/>
<path d="M149.255 140.033L148.703 140.478L159.94 153.579L160.492 153.135L149.255 140.033Z" fill="#DEDEDE"/>
<path d="M145.995 174.674L145.443 175.117L151.772 182.527L152.324 182.084L145.995 174.674Z" fill="#DEDEDE"/>
<path d="M448.504 218.714C443.444 211.207 442.641 195.74 447.207 179.051C453.176 157.217 466.054 141.583 475.973 144.132C485.891 146.681 489.095 166.439 483.139 188.274C480.273 198.754 475.815 207.79 470.856 214.089L448.504 218.714Z" fill="#B4DDFB"/>
<path d="M474.395 148.467L455.582 216.891L456.275 217.069L475.088 148.646L474.395 148.467Z" fill="#DEDEDE"/>
<path d="M481.832 161.026L469.939 165.381L470.193 166.031L482.085 161.676L481.832 161.026Z" fill="#DEDEDE"/>
<path d="M472.272 195.978L460.379 200.333L460.632 200.982L472.525 196.627L472.272 195.978Z" fill="#DEDEDE"/>
<path d="M453.298 173.766L452.746 174.209L463.943 187.316L464.495 186.873L453.298 173.766Z" fill="#DEDEDE"/>
<path d="M450.38 208.015L449.828 208.458L456.156 215.868L456.708 215.426L450.38 208.015Z" fill="#DEDEDE"/>
<path d="M53.3084 302.658C56.8916 293.574 54.1612 276.961 45.4252 260.259C33.9589 238.382 16.6446 224.61 6.72624 229.493C-3.19217 234.375 -2.01687 256.064 9.428 277.941C14.9175 288.428 21.7687 297.053 28.5052 302.658H53.3084Z" fill="#B4DDFB"/>
<path d="M9.40033 233.747L8.5957 234.144L44.603 302.657L45.4077 302.26L9.40033 233.747Z" fill="white"/>
<path d="M4.43674 248.681L4.30078 249.546L17.9461 251.56L18.082 250.695L4.43674 248.681Z" fill="white"/>
<path d="M22.7571 283.714L22.6211 284.579L36.2664 286.593L36.4023 285.728L22.7571 283.714Z" fill="white"/>
<path d="M37.6549 255.999L28.832 272.375L29.6325 272.78L38.4554 256.404L37.6549 255.999Z" fill="white"/>
<path d="M48.7542 291.671L43.7656 300.93L44.5661 301.335L49.5546 292.076L48.7542 291.671Z" fill="#DEDEDE"/>
<path d="M147.268 302.63C147.467 302.63 147.666 302.644 147.863 302.672C151.282 291.4 150.687 274.406 145.391 256.425C136.791 227.215 119.054 206.505 105.782 210.179C92.5092 213.853 88.7253 240.507 97.3251 269.725C101.216 282.92 106.971 294.366 113.335 302.63H147.268Z" fill="#B4DDFB"/>
<path d="M133.775 302.63L108.061 215.957L106.986 216.256L132.606 302.63H133.775Z" fill="#DEDEDE"/>
<path d="M98.3695 233.015L97.9941 234.035L114.101 239.599L114.476 238.579L98.3695 233.015Z" fill="#DEDEDE"/>
<path d="M112.137 279.748L111.762 280.768L127.869 286.33L128.244 285.309L112.137 279.748Z" fill="#DEDEDE"/>
<path d="M137.001 249.443L122.295 267.347L123.17 268.022L137.876 250.118L137.001 249.443Z" fill="#DEDEDE"/>
<path d="M137.304 302.63L142.708 296.053L141.826 295.38L135.871 302.63H137.304Z" fill="#DEDEDE"/>
<path d="M339.49 114.422H324.777V79.301H339.49V114.422ZM325.344 113.901H338.96V79.8219H325.344V113.901Z" fill="#512944"/>
<path d="M459.424 50.167H338.834C332.323 50.167 327.045 55.2819 327.045 61.5914V291.247C327.045 297.557 332.323 302.672 338.834 302.672H459.424C465.935 302.672 471.213 297.557 471.213 291.247V61.5914C471.213 55.2819 465.935 50.167 459.424 50.167Z" fill="#0070C0"/>
<path d="M462.078 74.3146H336.199V271.364H462.078V74.3146Z" fill="white"/>
<path d="M407.928 62.8901H390.342C389.939 62.8639 389.562 62.6904 389.286 62.4048C389.011 62.1192 388.857 61.7428 388.857 61.3518C388.857 60.9608 389.011 60.5844 389.286 60.2988C389.562 60.0132 389.939 59.8397 390.342 59.8135H407.928C408.331 59.8397 408.708 60.0132 408.984 60.2988C409.259 60.5844 409.412 60.9608 409.412 61.3518C409.412 61.7428 409.259 62.1192 408.984 62.4048C408.708 62.6904 408.331 62.8639 407.928 62.8901ZM390.342 60.3344C390.078 60.3555 389.833 60.4718 389.653 60.6603C389.474 60.8488 389.375 61.0956 389.375 61.3518C389.375 61.608 389.474 61.8548 389.653 62.0433C389.833 62.2318 390.078 62.3481 390.342 62.3693H407.928C408.192 62.3481 408.437 62.2318 408.616 62.0433C408.796 61.8548 408.895 61.608 408.895 61.3518C408.895 61.0956 408.796 60.8488 408.616 60.6603C408.437 60.4718 408.192 60.3555 407.928 60.3344H390.342Z" fill="#512944"/>
<path d="M402.572 295.588H395.635C394.371 295.588 393.159 295.101 392.265 294.235C391.371 293.369 390.869 292.194 390.869 290.969V284.261C390.869 283.036 391.371 281.861 392.265 280.995C393.159 280.129 394.371 279.642 395.635 279.642H402.572C403.836 279.642 405.048 280.129 405.942 280.995C406.836 281.861 407.338 283.036 407.338 284.261V290.983C407.334 292.206 406.83 293.377 405.937 294.24C405.043 295.103 403.833 295.588 402.572 295.588ZM395.635 280.149C394.514 280.151 393.44 280.583 392.647 281.351C391.855 282.119 391.409 283.161 391.407 284.247V290.969C391.409 292.056 391.855 293.097 392.647 293.865C393.44 294.633 394.514 295.065 395.635 295.067H402.572C403.693 295.065 404.767 294.633 405.56 293.865C406.352 293.097 406.798 292.056 406.8 290.969V284.261C406.798 283.175 406.352 282.133 405.56 281.365C404.767 280.597 403.693 280.165 402.572 280.163L395.635 280.149Z" fill="#512944"/>
<path d="M401.549 292.358H396.668C396.015 292.358 395.387 292.107 394.925 291.659C394.463 291.211 394.203 290.603 394.203 289.969V285.24C394.205 284.607 394.466 284.002 394.928 283.555C395.39 283.109 396.016 282.858 396.668 282.858H401.549C402.2 282.86 402.824 283.111 403.285 283.558C403.745 284.004 404.005 284.609 404.007 285.24V289.969C404.007 290.602 403.748 291.208 403.287 291.656C402.827 292.104 402.201 292.357 401.549 292.358ZM396.668 283.379C396.158 283.379 395.669 283.575 395.308 283.923C394.946 284.272 394.743 284.746 394.741 285.24V289.969C394.743 290.464 394.946 290.938 395.307 291.288C395.668 291.638 396.158 291.836 396.668 291.838H401.549C402.059 291.836 402.547 291.638 402.907 291.288C403.267 290.938 403.469 290.464 403.469 289.969V285.24C403.469 284.746 403.267 284.273 402.907 283.924C402.547 283.575 402.058 283.379 401.549 283.379H396.668Z" fill="#512944"/>
<path d="M462.078 74.0507H336.199V74.5715H462.078V74.0507Z" fill="#512944"/>
<path d="M378.208 190.261H419.537V139.028H378.208V190.261Z" fill="#F69571"/>
<path d="M462.071 271.357V172.94C443.646 163.453 421.301 161.828 421.301 161.828L399.257 178.149L376.625 161.828C376.625 161.828 343.473 164.287 324.797 180.684V271.357H462.071Z" fill="#FFB1A5"/>
<path d="M373.426 128.284V132.86C373.426 141.153 379.876 147.869 387.924 147.869H409.495C417.679 147.869 424.308 141 424.308 132.534V128.277L373.426 128.284Z" fill="#512944"/>
<path d="M426.603 127.638V109.741C426.603 95.2535 414.126 83.3984 398.868 83.3984C383.611 83.3984 371.127 95.2535 371.127 109.741V127.638H426.603Z" fill="#512944"/>
<path d="M378.199 152.779C392.267 166.196 412.842 158.064 419.528 145.104V133.708H378.199V152.779Z" fill="#E57553"/>
<path d="M422.789 132.944C428.101 132.944 432.407 128.771 432.407 123.624C432.407 118.476 428.101 114.304 422.789 114.304C417.478 114.304 413.172 118.476 413.172 123.624C413.172 128.771 417.478 132.944 422.789 132.944Z" fill="#F69571"/>
<path d="M374.77 132.944C380.081 132.944 384.387 128.771 384.387 123.624C384.387 118.476 380.081 114.304 374.77 114.304C369.458 114.304 365.152 118.476 365.152 123.624C365.152 128.771 369.458 132.944 374.77 132.944Z" fill="#F69571"/>
<path d="M422.619 107.428V132.93C422.602 139.029 420.094 144.874 415.644 149.186C411.193 153.499 405.162 155.929 398.869 155.946C392.575 155.929 386.544 153.499 382.094 149.186C377.644 144.874 375.136 139.029 375.119 132.93V107.428C375.119 104.196 376.443 101.095 378.799 98.8072C381.156 96.5194 384.353 95.2314 387.689 95.2258H410.006C411.661 95.2231 413.301 95.5367 414.831 96.1487C416.361 96.7607 417.752 97.6591 418.923 98.7924C420.095 99.9258 421.024 101.272 421.658 102.754C422.292 104.236 422.619 105.824 422.619 107.428Z" fill="#F69571"/>
<path d="M422.617 132.937V126.645L424.308 132.826C423.75 132.914 423.183 132.951 422.617 132.937Z" fill="#E57553"/>
<path d="M375.117 132.937V126.645L373.426 132.86C373.986 132.937 374.552 132.963 375.117 132.937Z" fill="#E57553"/>
<path d="M367.322 118.109H368.827V111.005C368.827 95.3925 382.3 82.6901 398.862 82.6901C415.424 82.6901 428.897 95.3925 428.897 111.005V118.109H430.402V111.005C430.402 94.6146 416.255 81.2733 398.869 81.2733C381.483 81.2733 367.337 94.6146 367.337 111.005L367.322 118.109Z" fill="#80C7A7"/>
<path d="M415.947 88.6212L417.703 86.3224C412.179 82.5797 405.602 80.5724 398.862 80.5724C392.122 80.5724 385.545 82.5797 380.021 86.3224L381.784 88.6143C386.791 85.2176 392.754 83.3957 398.866 83.3957C404.977 83.3957 410.941 85.2176 415.947 88.6143V88.6212Z" fill="#80C7A7"/>
<path d="M435.19 131.777H435.985C437.905 131.777 439.461 130.269 439.461 128.409V118.79C439.461 116.93 437.905 115.422 435.985 115.422H435.19C433.27 115.422 431.714 116.93 431.714 118.79V128.409C431.714 130.269 433.27 131.777 435.19 131.777Z" fill="#FABE7E"/>
<path d="M431.772 134.895H426.039C425.575 134.895 425.13 134.717 424.802 134.399C424.474 134.081 424.29 133.65 424.29 133.201V113.97C424.29 113.53 424.471 113.108 424.792 112.797C425.113 112.485 425.549 112.31 426.003 112.31H431.736C432.591 112.31 433.412 112.64 434.016 113.226C434.621 113.812 434.961 114.607 434.961 115.436V131.77C434.961 132.593 434.626 133.383 434.029 133.968C433.432 134.553 432.621 134.886 431.772 134.895Z" fill="#80C7A7"/>
<path d="M362.527 115.429H361.732C359.812 115.429 358.256 116.937 358.256 118.797V128.416C358.256 130.276 359.812 131.784 361.732 131.784H362.527C364.447 131.784 366.003 130.276 366.003 128.416V118.797C366.003 116.937 364.447 115.429 362.527 115.429Z" fill="#FABE7E"/>
<path d="M365.945 112.31H371.678C372.132 112.31 372.568 112.485 372.889 112.797C373.211 113.108 373.391 113.53 373.391 113.97V133.09C373.391 133.571 373.194 134.032 372.843 134.372C372.492 134.711 372.017 134.902 371.521 134.902H365.916C365.061 134.902 364.241 134.573 363.636 133.987C363.031 133.401 362.691 132.606 362.691 131.777V115.436C362.691 115.023 362.776 114.614 362.94 114.233C363.103 113.852 363.344 113.506 363.646 113.216C363.949 112.925 364.308 112.696 364.702 112.54C365.097 112.385 365.519 112.307 365.945 112.31Z" fill="#80C7A7"/>
<path d="M431.987 112.31H431.449V134.895H431.987V112.31Z" fill="#512944"/>
<path d="M366.274 112.324H365.736V134.909H366.274V112.324Z" fill="#512944"/>
<path d="M425.387 141.25H405.07V140.729H425.387C426.225 140.75 427.037 140.448 427.645 139.889C428.254 139.331 428.609 138.562 428.634 137.75V134.895H429.171V137.722C429.163 138.195 429.058 138.661 428.863 139.095C428.668 139.528 428.387 139.92 428.035 140.248C427.684 140.576 427.269 140.833 426.814 141.005C426.36 141.177 425.875 141.26 425.387 141.25Z" fill="#512944"/>
<path d="M402.315 142.966H409.073C410.194 142.966 411.102 142.086 411.102 141V140.986C411.102 139.901 410.194 139.021 409.073 139.021H402.315C401.195 139.021 400.287 139.901 400.287 140.986V141C400.287 142.086 401.195 142.966 402.315 142.966Z" fill="#FABE7E"/>
<path d="M409.077 143.222H402.319C401.71 143.222 401.127 142.988 400.697 142.571C400.267 142.155 400.025 141.589 400.025 141H400.592C400.592 141.451 400.777 141.884 401.106 142.203C401.435 142.522 401.882 142.701 402.347 142.701H409.105C409.572 142.701 410.019 142.522 410.349 142.204C410.68 141.885 410.866 141.452 410.868 141H411.406C411.405 141.295 411.344 141.586 411.226 141.857C411.108 142.129 410.936 142.375 410.719 142.582C410.503 142.788 410.246 142.951 409.964 143.061C409.682 143.171 409.381 143.226 409.077 143.222Z" fill="#512944"/>
<path d="M419.366 156.835L425.788 162.377L412.178 189.087L399.143 177.614L419.366 156.835Z" fill="white"/>
<path d="M378.162 156.835L370.443 162.606L385.35 189.087L399.138 177.614L378.162 156.835Z" fill="white"/>
<path d="M374.271 111.574C374.271 111.574 382.721 107.928 384.383 102.303C386.433 107.685 391.607 110.789 400.522 111.741C399.856 110.289 397.305 107.928 397.283 106.449C402.235 112.776 411.437 113.109 411.437 113.109C411.437 113.109 408.914 111.491 408.398 109.338C412.605 112.665 418.016 113.602 423.448 112.859L423.14 104.31L416.969 94.948L407.753 90.6769L394.137 91.9339L379.61 95.7675L374.787 104.247L374.293 107.956L374.271 111.574Z" fill="#512944"/>
<path d="M462.071 215.77C415.775 215.651 370.87 215.651 324.797 215.77V215.249C370.87 215.131 415.811 215.131 462.071 215.249V215.77Z" fill="#512944"/>
<path d="M393.244 248.404C370.505 248.404 347.801 248.404 324.797 248.334V247.813C370.799 247.904 415.632 247.904 461.856 247.813V248.334C438.744 248.383 415.976 248.404 393.244 248.404Z" fill="#512944"/>
<path d="M409.074 121.617C409.074 121.938 409.173 122.252 409.357 122.519C409.541 122.787 409.803 122.995 410.109 123.118C410.416 123.241 410.753 123.273 411.078 123.21C411.404 123.148 411.702 122.993 411.937 122.766C412.172 122.538 412.331 122.249 412.396 121.934C412.461 121.618 412.427 121.292 412.3 120.995C412.174 120.698 411.959 120.444 411.683 120.265C411.407 120.087 411.083 119.992 410.751 119.992C410.306 119.992 409.88 120.163 409.565 120.468C409.251 120.772 409.074 121.186 409.074 121.617Z" fill="#512944"/>
<path d="M385.303 121.617C385.301 121.94 385.399 122.257 385.584 122.526C385.768 122.796 386.031 123.006 386.339 123.13C386.647 123.255 386.986 123.287 387.314 123.225C387.641 123.162 387.942 123.006 388.178 122.778C388.414 122.549 388.574 122.258 388.639 121.94C388.704 121.623 388.67 121.294 388.541 120.996C388.413 120.697 388.196 120.443 387.918 120.264C387.64 120.085 387.313 119.99 386.98 119.992C386.76 119.992 386.541 120.034 386.338 120.115C386.135 120.197 385.95 120.317 385.794 120.468C385.638 120.618 385.515 120.798 385.43 120.995C385.346 121.192 385.303 121.403 385.303 121.617Z" fill="#512944"/>
<path d="M400.523 128.694C399.31 128.692 398.147 128.223 397.29 127.391C396.433 126.559 395.951 125.432 395.951 124.256V118.005H396.489V124.256C396.489 125.293 396.914 126.289 397.67 127.023C398.426 127.757 399.453 128.171 400.523 128.173V128.694Z" fill="#512944"/>
<path d="M407.398 115.255C407.398 115.811 408.903 116.262 410.752 116.262C412.601 116.262 414.113 115.811 414.113 115.255C414.113 114.7 412.608 114.248 410.752 114.248C408.896 114.248 407.398 114.7 407.398 115.255Z" fill="#512944"/>
<path d="M383.625 115.255C383.625 115.811 385.13 116.262 386.979 116.262C388.828 116.262 390.34 115.811 390.34 115.255C390.34 114.7 388.835 114.248 386.979 114.248C385.123 114.248 383.625 114.7 383.625 115.255Z" fill="#512944"/>
<path d="M400.978 137.285H396.549V137.805H400.978V137.285Z" fill="#512944"/>
<path d="M400.975 134.944H393.701V134.423H400.968C402.846 134.423 403.899 133.84 404.2 132.666L404.716 132.791C404.358 134.25 403.096 134.944 400.975 134.944Z" fill="#512944"/>
<path d="M414.033 126.548C414.033 127.305 415.13 127.937 416.491 127.937C417.853 127.937 418.942 127.325 418.942 126.548C418.942 125.77 417.846 125.159 416.491 125.159C415.137 125.159 414.033 125.798 414.033 126.548Z" fill="#E57553"/>
<path d="M378.57 126.548C378.57 127.305 379.667 127.937 381.028 127.937C382.39 127.937 383.487 127.325 383.487 126.548C383.487 125.77 382.383 125.159 381.028 125.159C379.674 125.159 378.57 125.798 378.57 126.548Z" fill="#E57553"/>
<path d="M415.118 131.381C412.791 131.381 410.517 130.713 408.583 129.46C406.649 128.208 405.142 126.427 404.252 124.344C403.362 122.262 403.13 119.97 403.584 117.759C404.038 115.548 405.159 113.517 406.804 111.924C408.45 110.33 410.546 109.245 412.828 108.806C415.109 108.367 417.474 108.594 419.623 109.458C421.772 110.321 423.608 111.783 424.899 113.658C426.191 115.533 426.879 117.737 426.878 119.992C426.874 123.012 425.634 125.908 423.429 128.044C421.224 130.179 418.235 131.38 415.118 131.381ZM415.118 109.116C412.898 109.116 410.728 109.754 408.883 110.949C407.037 112.144 405.599 113.842 404.749 115.83C403.9 117.817 403.678 120.004 404.111 122.113C404.544 124.223 405.612 126.161 407.182 127.682C408.752 129.203 410.751 130.239 412.928 130.658C415.105 131.078 417.362 130.863 419.412 130.04C421.463 129.216 423.216 127.822 424.449 126.034C425.682 124.245 426.34 122.143 426.34 119.992C426.337 117.108 425.153 114.344 423.049 112.305C420.945 110.267 418.093 109.12 415.118 109.116Z" fill="white"/>
<path d="M382.616 131.381C380.289 131.381 378.015 130.713 376.081 129.46C374.147 128.208 372.64 126.427 371.75 124.344C370.86 122.262 370.628 119.97 371.082 117.759C371.536 115.548 372.657 113.517 374.303 111.924C375.948 110.33 378.044 109.245 380.326 108.806C382.607 108.367 384.972 108.594 387.121 109.458C389.27 110.321 391.106 111.783 392.397 113.658C393.689 115.533 394.377 117.737 394.376 119.992C394.372 123.012 393.132 125.908 390.927 128.044C388.722 130.179 385.733 131.38 382.616 131.381ZM382.616 109.116C380.396 109.116 378.226 109.754 376.381 110.949C374.535 112.144 373.097 113.842 372.247 115.83C371.398 117.817 371.176 120.004 371.609 122.113C372.042 124.223 373.11 126.161 374.68 127.682C376.25 129.203 378.249 130.239 380.426 130.658C382.603 131.078 384.86 130.863 386.91 130.04C388.961 129.216 390.714 127.822 391.947 126.034C393.18 124.245 393.838 122.143 393.838 119.992C393.835 117.108 392.651 114.344 390.547 112.305C388.443 110.267 385.591 109.12 382.616 109.116Z" fill="white"/>
<path d="M393.886 117.248L393.506 116.88C395.369 115.081 397.541 114.172 399.597 114.317C400.507 114.397 401.387 114.669 402.177 115.113C402.966 115.556 403.646 116.162 404.17 116.887L403.74 117.2C403.262 116.527 402.637 115.966 401.91 115.554C401.183 115.142 400.372 114.891 399.533 114.817C397.655 114.706 395.634 115.561 393.886 117.248Z" fill="white"/>
<path d="M461.856 271.1H351.055V271.621H461.856V271.1Z" fill="#512944"/>
<path d="M387.74 293.442C386.443 296.188 384.362 298.517 381.742 300.153C379.121 301.789 376.073 302.663 372.956 302.672H95.0468C91.9276 302.666 88.8757 301.793 86.2527 300.157C83.6298 298.521 81.5459 296.191 80.248 293.442H387.74Z" fill="white"/>
<path d="M217.845 293.595H260.528C259.928 294.863 258.966 295.938 257.756 296.694C256.546 297.449 255.138 297.853 253.698 297.859H214.283C212.843 297.854 211.435 297.45 210.225 296.695C209.014 295.939 208.053 294.863 207.453 293.595H217.845Z" fill="#D3B7A2"/>
<path d="M118.702 293.435H349.291C353.277 293.435 356.508 290.304 356.508 286.441V136.632C356.508 132.769 353.277 129.638 349.291 129.638L118.702 129.638C114.717 129.638 111.486 132.769 111.486 136.632L111.486 286.441C111.486 290.304 114.717 293.435 118.702 293.435Z" fill="white"/>
<path d="M349.299 293.178H118.703V293.699H349.299V293.178Z" fill="#512944"/>
<path d="M125.305 280.503H342.693V143.035L125.305 143.035L125.305 280.503Z" fill="#9BD0F5"/>
<path d="M342.691 143.035H125.303V143.556H342.691V143.035Z" fill="#512944"/>
<path d="M238.149 137.889H229.85C229.392 137.889 228.953 137.712 228.629 137.398C228.305 137.085 228.123 136.659 228.123 136.215C228.123 135.771 228.305 135.345 228.629 135.031C228.953 134.718 229.392 134.541 229.85 134.541H238.149C238.607 134.541 239.046 134.718 239.37 135.031C239.694 135.345 239.876 135.771 239.876 136.215C239.876 136.659 239.694 137.085 239.37 137.398C239.046 137.712 238.607 137.889 238.149 137.889ZM229.85 135.062C229.535 135.062 229.232 135.184 229.009 135.4C228.786 135.616 228.661 135.909 228.661 136.215C228.661 136.521 228.786 136.814 229.009 137.03C229.232 137.246 229.535 137.368 229.85 137.368H238.149C238.464 137.368 238.767 137.246 238.99 137.03C239.213 136.814 239.339 136.521 239.339 136.215C239.339 135.909 239.213 135.616 238.99 135.4C238.767 135.184 238.464 135.062 238.149 135.062H229.85Z" fill="#512944"/>
<path d="M206.951 132.687V108.38C206.951 93.1354 218.991 80.6622 233.711 80.6622C248.438 80.6622 260.478 93.1632 260.478 108.38V132.361C260.478 141.271 253.505 148.494 244.898 148.494H222.201C213.774 148.48 206.951 141.41 206.951 132.687Z" fill="#512944"/>
<path d="M211.976 190.323H255.455V136.423H211.976V190.323Z" fill="#F69571"/>
<path d="M211.973 154.057C226.771 168.169 248.414 159.613 255.452 145.987V133.993H211.973V154.057Z" fill="#E57553"/>
<path d="M150.698 197.449C168.543 179.114 210.23 160.418 210.23 160.418L233.994 177.024L257.149 160.418C257.149 160.418 299.431 179.114 317.298 197.449C335.164 215.783 341.105 280.608 341.105 280.608H126.898C126.898 280.608 132.847 215.763 150.698 197.449Z" fill="white"/>
<path d="M258.879 132.77C264.467 132.77 268.998 128.38 268.998 122.964C268.998 117.548 264.467 113.158 258.879 113.158C253.29 113.158 248.76 117.548 248.76 122.964C248.76 128.38 253.29 132.77 258.879 132.77Z" fill="#F69571"/>
<path d="M208.363 132.77C213.952 132.77 218.482 128.38 218.482 122.964C218.482 117.548 213.952 113.158 208.363 113.158C202.775 113.158 198.244 117.548 198.244 122.964C198.244 128.38 202.775 132.77 208.363 132.77Z" fill="#F69571"/>
<path d="M258.695 105.928V132.756C258.67 139.172 256.029 145.318 251.348 149.854C246.667 154.391 240.325 156.95 233.705 156.973C227.086 156.948 220.746 154.388 216.067 149.852C211.387 145.315 208.747 139.171 208.723 132.756V105.928C208.723 104.242 209.065 102.573 209.731 101.015C210.397 99.4575 211.374 98.0423 212.604 96.8505C213.835 95.6586 215.296 94.7134 216.903 94.0688C218.511 93.4242 220.234 93.093 221.973 93.0939H245.444C247.183 93.093 248.906 93.4242 250.514 94.0688C252.122 94.7134 253.582 95.6586 254.813 96.8505C256.044 98.0423 257.02 99.4575 257.686 101.015C258.352 102.573 258.695 104.242 258.695 105.928Z" fill="#F69571"/>
<path d="M237.245 178.746H236.707V280.608H237.245V178.746Z" fill="#512944"/>
<path d="M230.477 179.885H229.939V280.601H230.477V179.885Z" fill="#512944"/>
<path d="M232.176 182.371C232.176 182.646 232.26 182.914 232.417 183.143C232.575 183.371 232.799 183.549 233.061 183.654C233.322 183.76 233.611 183.787 233.889 183.733C234.167 183.68 234.422 183.548 234.623 183.353C234.823 183.159 234.96 182.912 235.015 182.642C235.07 182.373 235.042 182.093 234.933 181.84C234.825 181.586 234.641 181.369 234.405 181.216C234.17 181.064 233.893 180.982 233.609 180.982C233.229 180.982 232.864 181.129 232.596 181.389C232.327 181.649 232.176 182.003 232.176 182.371Z" fill="#FABE7E"/>
<path d="M232.176 228.159C232.176 228.434 232.26 228.703 232.417 228.931C232.575 229.159 232.799 229.337 233.061 229.443C233.322 229.548 233.611 229.575 233.889 229.522C234.167 229.468 234.422 229.336 234.623 229.141C234.823 228.947 234.96 228.7 235.015 228.43C235.07 228.161 235.042 227.882 234.933 227.628C234.825 227.374 234.641 227.157 234.405 227.004C234.17 226.852 233.893 226.77 233.609 226.77C233.229 226.77 232.864 226.917 232.596 227.177C232.327 227.438 232.176 227.791 232.176 228.159Z" fill="#FABE7E"/>
<path d="M232.176 273.954C232.176 274.229 232.26 274.498 232.417 274.726C232.575 274.954 232.799 275.132 233.061 275.238C233.322 275.343 233.611 275.37 233.889 275.317C234.167 275.263 234.422 275.131 234.623 274.936C234.823 274.742 234.96 274.495 235.015 274.225C235.07 273.956 235.042 273.677 234.933 273.423C234.825 273.169 234.641 272.952 234.405 272.8C234.17 272.647 233.893 272.565 233.609 272.565C233.229 272.565 232.864 272.712 232.596 272.972C232.327 273.233 232.176 273.586 232.176 273.954Z" fill="#FABE7E"/>
<path d="M258.693 132.763V126.145L260.471 132.645C259.883 132.74 259.288 132.779 258.693 132.763Z" fill="#E57553"/>
<path d="M208.728 132.763V126.145L206.951 132.645C207.538 132.74 208.133 132.779 208.728 132.763Z" fill="#E57553"/>
<path d="M233.618 99.9207C243.042 99.9207 250.681 97.0289 250.681 93.4618C250.681 89.8947 243.042 87.0029 233.618 87.0029C224.194 87.0029 216.555 89.8947 216.555 93.4618C216.555 97.0289 224.194 99.9207 233.618 99.9207Z" fill="#512944"/>
<path d="M258.694 108.15V120.651C256.236 120.651 254.724 119.436 254.681 116.359V108.025C254.574 102.039 253.42 97.1357 250.604 93.9549C253.75 93.6077 254.989 96.1078 257.77 100.205C258.659 102.498 259.028 104.95 258.852 107.393L258.694 108.15Z" fill="#512944"/>
<path d="M208.651 113.165V120.63C211.109 120.63 212.621 119.415 212.664 116.339V108.005C212.772 102.018 213.926 97.1149 216.742 93.9341C213.596 93.5868 211.167 96.3231 208.365 100.428L207.404 109.317L208.651 113.165Z" fill="#512944"/>
<path d="M200.531 117.165H202.079V109.692C202.079 93.2673 216.254 79.9052 233.676 79.9052C251.097 79.9052 265.28 93.2673 265.28 109.692V117.165H266.856V109.692C266.856 92.4478 251.972 78.4398 233.676 78.4398C215.38 78.4398 200.502 92.4686 200.502 109.692L200.531 117.165Z" fill="#FFB1A5"/>
<path d="M251.678 86.1418L253.526 83.725C247.716 79.7878 240.797 77.6761 233.708 77.6761C226.618 77.6761 219.699 79.7878 213.889 83.725L215.738 86.1418C221.004 82.5664 227.278 80.6485 233.708 80.6485C240.137 80.6485 246.411 82.5664 251.678 86.1418Z" fill="#FFB1A5"/>
<path d="M271.936 131.548H272.76C274.782 131.548 276.422 129.959 276.422 127.999V117.887C276.422 115.927 274.782 114.338 272.76 114.338H271.936C269.913 114.338 268.274 115.927 268.274 117.887V127.999C268.274 129.959 269.913 131.548 271.936 131.548Z" fill="#FFB1A5"/>
<path d="M268.333 134.826H262.313C261.825 134.826 261.356 134.638 261.011 134.303C260.665 133.968 260.471 133.514 260.471 133.041V112.811C260.471 112.348 260.661 111.905 260.998 111.578C261.336 111.251 261.793 111.067 262.27 111.067H268.333C269.232 111.067 270.094 111.413 270.73 112.03C271.366 112.646 271.723 113.481 271.723 114.352V131.541C271.723 132.412 271.366 133.248 270.73 133.864C270.094 134.48 269.232 134.826 268.333 134.826Z" fill="#0070C0"/>
<path d="M195.476 114.345H194.652C192.63 114.345 190.99 115.934 190.99 117.894V128.006C190.99 129.966 192.63 131.555 194.652 131.555H195.476C197.499 131.555 199.139 129.966 199.139 128.006V117.894C199.139 115.934 197.499 114.345 195.476 114.345Z" fill="#FFB1A5"/>
<path d="M199.081 111.067H205.144C205.621 111.067 206.079 111.251 206.416 111.578C206.753 111.905 206.943 112.348 206.943 112.811V132.951C206.943 133.456 206.736 133.94 206.368 134.296C205.999 134.653 205.5 134.854 204.979 134.854H199.081C198.182 134.854 197.32 134.508 196.684 133.892C196.049 133.276 195.691 132.44 195.691 131.569V114.352C195.691 113.921 195.779 113.494 195.949 113.095C196.12 112.697 196.369 112.335 196.684 112.03C196.999 111.724 197.373 111.483 197.784 111.317C198.195 111.152 198.636 111.067 199.081 111.067Z" fill="#0070C0"/>
<path d="M268.537 111.067H268V134.833H268.537V111.067Z" fill="#512944"/>
<path d="M199.409 111.074H198.871V134.84H199.409V111.074Z" fill="#512944"/>
<path d="M261.609 141.5H240.238V140.979H261.609C262.495 141 263.353 140.68 263.996 140.089C264.639 139.498 265.015 138.685 265.041 137.826V134.826H265.579V137.826C265.553 138.823 265.12 139.769 264.376 140.457C263.632 141.146 262.637 141.521 261.609 141.5Z" fill="#512944"/>
<path d="M237.352 143.313H244.454C245.634 143.313 246.59 142.386 246.59 141.243V141.229C246.59 140.086 245.634 139.16 244.454 139.16H237.352C236.173 139.16 235.217 140.086 235.217 141.229V141.243C235.217 142.386 236.173 143.313 237.352 143.313Z" fill="#FABE7E"/>
<path d="M244.451 143.577H237.342C236.705 143.575 236.094 143.328 235.644 142.891C235.194 142.453 234.941 141.861 234.941 141.243H235.479C235.479 141.723 235.675 142.183 236.024 142.522C236.373 142.862 236.847 143.054 237.342 143.056H244.451C244.946 143.054 245.42 142.862 245.769 142.522C246.119 142.183 246.315 141.723 246.315 141.243H246.852C246.852 141.861 246.599 142.453 246.149 142.891C245.699 143.328 245.089 143.575 244.451 143.577Z" fill="#512944"/>
<path d="M249.662 126.048C249.662 126.839 250.823 127.478 252.249 127.478C253.675 127.478 254.836 126.839 254.836 126.048C254.836 125.256 253.675 124.61 252.249 124.61C250.823 124.61 249.662 125.221 249.662 126.048Z" fill="#E57553"/>
<path d="M212.359 126.048C212.359 126.839 213.52 127.478 214.946 127.478C216.373 127.478 217.534 126.839 217.534 126.048C217.534 125.256 216.373 124.61 214.946 124.61C213.52 124.61 212.359 125.221 212.359 126.048Z" fill="#E57553"/>
<path d="M346.53 280.239H121.467V280.76H346.53V280.239Z" fill="#512944"/>
<path d="M303.8 218.538L298.105 280.498L298.641 280.545L304.336 218.584L303.8 218.538Z" fill="#512944"/>
<path d="M163.43 218.519L162.895 218.566L168.578 280.527L169.114 280.481L163.43 218.519Z" fill="#512944"/>
<path d="M252.916 246.688H288.885V239.681H252.916V246.688Z" fill="#FABE7E"/>
<path d="M302.136 242.014L301.67 241.75C308.643 230.312 309.99 216.374 309.997 216.235L310.535 216.283C310.521 216.422 309.166 230.472 302.136 242.014Z" fill="#512944"/>
<path d="M164.747 242.014C157.716 230.472 156.355 216.422 156.348 216.283L156.878 216.235C156.878 216.374 158.24 230.312 165.213 241.75L164.747 242.014Z" fill="#512944"/>
<path d="M255.275 155.147L262.033 162.717L247.715 189.08L233.998 177.01L255.275 155.147Z" fill="#FABE7E"/>
<path d="M211.937 155.147L205.322 162.675L219.498 189.08L233.995 177.01L211.937 155.147Z" fill="#FABE7E"/>
<path d="M244.304 120.853C245.278 120.853 246.067 120.088 246.067 119.144C246.067 118.201 245.278 117.436 244.304 117.436C243.33 117.436 242.541 118.201 242.541 119.144C242.541 120.088 243.33 120.853 244.304 120.853Z" fill="#512944"/>
<path d="M219.298 120.853C220.272 120.853 221.061 120.088 221.061 119.144C221.061 118.201 220.272 117.436 219.298 117.436C218.324 117.436 217.535 118.201 217.535 119.144C217.535 120.088 218.324 120.853 219.298 120.853Z" fill="#512944"/>
<path d="M236.263 130.333C234.992 130.331 233.774 129.841 232.875 128.97C231.976 128.099 231.471 126.918 231.469 125.686V119.144H232.006V125.686C232.017 126.777 232.47 127.82 233.265 128.591C234.061 129.363 235.138 129.801 236.263 129.812V130.333Z" fill="#512944"/>
<path d="M240.705 114.165C240.705 114.748 242.289 115.227 244.238 115.227C246.187 115.227 247.771 114.748 247.771 114.165C247.771 113.581 246.187 113.102 244.238 113.102C242.289 113.102 240.705 113.574 240.705 114.165Z" fill="#512944"/>
<path d="M215.695 114.165C215.695 114.748 217.272 115.227 219.228 115.227C221.185 115.227 222.754 114.748 222.754 114.165C222.754 113.581 221.178 113.102 219.228 113.102C217.279 113.102 215.695 113.574 215.695 114.165Z" fill="#512944"/>
<path d="M233.611 139.465C232.776 139.461 231.95 139.296 231.182 138.979L231.389 138.5C232.093 138.792 232.85 138.943 233.615 138.943C234.38 138.943 235.137 138.792 235.84 138.5L236.048 138.979C235.277 139.296 234.449 139.461 233.611 139.465Z" fill="#512944"/>
<path d="M224.539 133.77C230.552 138.632 236.593 138.632 242.663 133.77H224.539Z" fill="white"/>
<path d="M247.416 129.909C245.446 129.909 243.52 129.343 241.881 128.282C240.243 127.221 238.966 125.712 238.213 123.948C237.459 122.184 237.262 120.242 237.647 118.37C238.032 116.497 238.981 114.777 240.375 113.427C241.769 112.077 243.545 111.158 245.478 110.787C247.41 110.415 249.413 110.607 251.234 111.339C253.054 112.07 254.609 113.309 255.703 114.897C256.796 116.486 257.379 118.353 257.378 120.262C257.376 122.821 256.326 125.275 254.458 127.084C252.59 128.893 250.057 129.909 247.416 129.909ZM247.416 111.158C245.553 111.158 243.731 111.693 242.181 112.697C240.631 113.7 239.423 115.126 238.71 116.795C237.997 118.464 237.81 120.3 238.174 122.072C238.537 123.843 239.435 125.471 240.753 126.748C242.071 128.025 243.75 128.895 245.578 129.247C247.406 129.6 249.301 129.419 251.023 128.728C252.745 128.036 254.217 126.866 255.252 125.364C256.288 123.862 256.84 122.096 256.84 120.29C256.843 119.089 256.602 117.899 256.129 116.788C255.657 115.677 254.964 114.667 254.088 113.816C253.213 112.966 252.173 112.29 251.028 111.829C249.884 111.368 248.656 111.131 247.416 111.13V111.158Z" fill="white"/>
<path d="M219.992 129.909C218.021 129.91 216.094 129.345 214.455 128.285C212.816 127.225 211.538 125.717 210.783 123.953C210.028 122.189 209.83 120.247 210.214 118.374C210.599 116.501 211.548 114.78 212.941 113.429C214.335 112.079 216.11 111.159 218.043 110.787C219.976 110.415 221.98 110.607 223.8 111.338C225.621 112.07 227.176 113.308 228.27 114.897C229.364 116.485 229.948 118.353 229.946 120.262C229.942 122.82 228.893 125.271 227.027 127.079C225.161 128.888 222.631 129.905 219.992 129.909ZM219.992 111.158C218.128 111.156 216.305 111.691 214.754 112.693C213.204 113.696 211.995 115.122 211.28 116.79C210.566 118.459 210.378 120.296 210.741 122.068C211.104 123.84 212.001 125.468 213.319 126.745C214.636 128.023 216.315 128.894 218.144 129.247C219.972 129.6 221.867 129.419 223.59 128.728C225.312 128.037 226.784 126.867 227.82 125.365C228.856 123.863 229.409 122.097 229.409 120.29C229.413 117.866 228.423 115.539 226.657 113.821C224.891 112.103 222.494 111.135 219.992 111.13V111.158Z" fill="white"/>
<path d="M229.55 117.977L229.17 117.609C229.819 116.907 230.616 116.35 231.508 115.975C232.4 115.599 233.365 115.416 234.337 115.436C235.115 115.503 235.867 115.735 236.542 116.116C237.217 116.496 237.798 117.015 238.243 117.637L237.813 117.95C237.414 117.388 236.893 116.919 236.286 116.574C235.679 116.23 235.001 116.019 234.301 115.957C233.406 115.941 232.517 116.114 231.697 116.463C230.877 116.812 230.144 117.328 229.55 117.977Z" fill="white"/>
<path d="M246.215 134.652C245.643 133.218 244.647 131.978 243.352 131.089C242.057 130.2 240.52 129.7 238.934 129.652H227.346C225.76 129.702 224.224 130.202 222.929 131.091C221.635 131.981 220.638 133.219 220.064 134.652H246.215Z" fill="#512944"/>
<path d="M356.779 277.51H356.242V136.632C356.238 134.847 355.504 133.136 354.201 131.875C352.898 130.613 351.132 129.904 349.29 129.902H290.303V129.388H349.29C351.274 129.39 353.177 130.154 354.581 131.513C355.985 132.872 356.775 134.716 356.779 136.639V277.51Z" fill="#512944"/>
<path d="M64.5583 7.23315H106.124C108.975 7.23315 111.709 8.33071 113.725 10.2844C115.741 12.238 116.874 14.8878 116.874 17.6506C116.874 20.4135 115.741 23.0633 113.725 25.0169C111.709 26.9706 108.975 28.0681 106.124 28.0681H80.1096L69.9045 37.0202C69.6521 37.2414 69.3391 37.3871 69.0032 37.4397C68.6673 37.4923 68.3229 37.4495 68.0115 37.3166C67.7001 37.1837 67.435 36.9664 67.2483 36.6907C67.0615 36.4151 66.9611 36.0929 66.9591 35.7632V27.9917H64.5583C61.7073 27.9917 58.9731 26.8942 56.9571 24.9405C54.9411 22.9869 53.8086 20.3371 53.8086 17.5742C53.8294 14.8246 54.9711 12.1945 56.9848 10.2573C58.9986 8.32014 61.7209 7.23308 64.5583 7.23315Z" fill="#0070C0"/>
<path d="M74.3011 17.2618C74.3011 17.7576 74.1494 18.2424 73.8651 18.6547C73.5809 19.067 73.1768 19.3883 72.7041 19.5781C72.2314 19.7678 71.7112 19.8175 71.2093 19.7207C70.7075 19.624 70.2465 19.3852 69.8847 19.0346C69.5229 18.684 69.2765 18.2372 69.1767 17.7509C69.0768 17.2646 69.1281 16.7605 69.3239 16.3023C69.5197 15.8442 69.8513 15.4527 70.2767 15.1772C70.7022 14.9017 71.2024 14.7546 71.714 14.7546C72.0541 14.7537 72.3909 14.818 72.7052 14.9436C73.0195 15.0693 73.3051 15.2539 73.5455 15.4869C73.7859 15.7199 73.9765 15.9967 74.1061 16.3013C74.2358 16.6059 74.3021 16.9323 74.3011 17.2618Z" fill="white"/>
<path d="M86.639 17.2618C86.639 17.7576 86.4873 18.2424 86.203 18.6547C85.9187 19.067 85.5147 19.3883 85.042 19.5781C84.5692 19.7678 84.0491 19.8175 83.5472 19.7207C83.0454 19.624 82.5844 19.3852 82.2226 19.0346C81.8608 18.684 81.6144 18.2372 81.5146 17.7509C81.4147 17.2646 81.466 16.7605 81.6618 16.3023C81.8576 15.8442 82.1892 15.4527 82.6146 15.1772C83.0401 14.9017 83.5403 14.7546 84.0519 14.7546C84.3919 14.7537 84.7288 14.818 85.0431 14.9436C85.3574 15.0693 85.643 15.2539 85.8834 15.4869C86.1238 15.7199 86.3143 15.9967 86.444 16.3013C86.5737 16.6059 86.64 16.9323 86.639 17.2618Z" fill="white"/>
<path d="M98.9789 17.2618C98.9789 17.7576 98.8271 18.2424 98.5429 18.6547C98.2586 19.067 97.8546 19.3883 97.3818 19.5781C96.9091 19.7678 96.3889 19.8175 95.8871 19.7207C95.3852 19.624 94.9242 19.3852 94.5624 19.0346C94.2006 18.684 93.9542 18.2372 93.8544 17.7509C93.7546 17.2646 93.8058 16.7605 94.0016 16.3023C94.1974 15.8442 94.529 15.4527 94.9545 15.1772C95.3799 14.9017 95.8801 14.7546 96.3918 14.7546C97.0779 14.7546 97.736 15.0188 98.2211 15.489C98.7063 15.9591 98.9789 16.5968 98.9789 17.2618Z" fill="white"/>
<path d="M237.788 27.0125H181.295C177.431 27.0216 173.728 28.5126 170.995 31.1596C168.263 33.8065 166.722 37.3942 166.711 41.1385C166.722 44.8834 168.262 48.4718 170.995 51.1199C173.728 53.7679 177.43 55.2605 181.295 55.2715H216.654L230.514 67.5779C230.857 67.8805 231.282 68.0802 231.74 68.1527C232.197 68.2253 232.666 68.1676 233.091 67.9867C233.515 67.8058 233.876 67.5094 234.13 67.1336C234.383 66.7577 234.519 66.3186 234.52 65.8695V55.2715H237.788C241.652 55.2605 245.355 53.7679 248.088 51.1199C250.82 48.4718 252.361 44.8834 252.372 41.1385C252.361 37.3942 250.82 33.8065 248.087 31.1596C245.355 28.5126 241.652 27.0216 237.788 27.0125Z" fill="#0070C0"/>
<path d="M192.761 44.3748C194.704 44.3748 196.28 42.8481 196.28 40.9648C196.28 39.0816 194.704 37.5549 192.761 37.5549C190.818 37.5549 189.242 39.0816 189.242 40.9648C189.242 42.8481 190.818 44.3748 192.761 44.3748Z" fill="white"/>
<path d="M209.538 44.3748C211.482 44.3748 213.057 42.8481 213.057 40.9648C213.057 39.0816 211.482 37.5549 209.538 37.5549C207.595 37.5549 206.02 39.0816 206.02 40.9648C206.02 42.8481 207.595 44.3748 209.538 44.3748Z" fill="white"/>
<path d="M229.832 40.9648C229.832 41.6393 229.626 42.2985 229.239 42.8593C228.853 43.42 228.303 43.8571 227.66 44.1152C227.017 44.3733 226.31 44.4408 225.627 44.3092C224.945 44.1777 224.318 43.8529 223.826 43.376C223.333 42.8991 222.998 42.2915 222.863 41.6301C222.727 40.9686 222.796 40.283 223.063 39.6599C223.329 39.0368 223.78 38.5043 224.359 38.1296C224.937 37.7549 225.618 37.5549 226.314 37.5549C227.247 37.5549 228.142 37.9142 228.802 38.5537C229.462 39.1932 229.832 40.0605 229.832 40.9648Z" fill="white"/>
<path d="M403.002 9.86523H357.036C353.892 9.8744 350.88 11.0893 348.658 13.2443C346.435 15.3994 345.183 18.3194 345.176 21.3661C345.187 24.4105 346.441 27.3269 348.663 29.479C350.885 31.631 353.895 32.844 357.036 32.8531H385.803L397.09 42.8331C397.368 43.0797 397.714 43.2427 398.086 43.302C398.458 43.3614 398.839 43.3146 399.184 43.1673C399.529 43.0201 399.822 42.7787 400.028 42.4727C400.234 42.1668 400.344 41.8094 400.343 41.4441V32.8531H403.002C406.145 32.844 409.156 31.6301 411.378 29.4765C413.601 27.323 414.853 24.4048 414.863 21.3592C414.853 18.3136 413.601 15.3954 411.378 13.2419C409.156 11.0883 406.145 9.87439 403.002 9.86523Z" fill="#0070C0"/>
<path d="M369.237 21.2203C369.237 21.7698 369.069 22.3069 368.754 22.7637C368.439 23.2205 367.991 23.5766 367.468 23.7868C366.944 23.9971 366.367 24.0521 365.811 23.9449C365.255 23.8377 364.744 23.5731 364.344 23.1846C363.943 22.7961 363.67 22.3012 363.559 21.7623C363.448 21.2234 363.505 20.6649 363.722 20.1573C363.939 19.6497 364.306 19.2158 364.778 18.9106C365.249 18.6053 365.804 18.4424 366.371 18.4424C367.131 18.4424 367.86 18.7351 368.398 19.256C368.935 19.777 369.237 20.4836 369.237 21.2203Z" fill="white"/>
<path d="M382.889 21.2203C382.889 21.7698 382.721 22.3069 382.406 22.7637C382.091 23.2205 381.644 23.5766 381.12 23.7868C380.596 23.9971 380.02 24.0521 379.464 23.9449C378.908 23.8377 378.397 23.5731 377.996 23.1846C377.595 22.7961 377.322 22.3012 377.211 21.7623C377.101 21.2234 377.158 20.6649 377.374 20.1573C377.591 19.6497 377.959 19.2158 378.43 18.9106C378.902 18.6053 379.456 18.4424 380.023 18.4424C380.783 18.4424 381.512 18.7351 382.05 19.256C382.587 19.777 382.889 20.4836 382.889 21.2203Z" fill="white"/>
<path d="M396.534 21.2203C396.534 21.7698 396.366 22.3069 396.051 22.7637C395.736 23.2205 395.288 23.5766 394.764 23.7868C394.241 23.9971 393.664 24.0521 393.108 23.9449C392.552 23.8377 392.041 23.5731 391.64 23.1846C391.239 22.7961 390.966 22.3012 390.856 21.7623C390.745 21.2234 390.802 20.6649 391.019 20.1573C391.236 19.6497 391.603 19.2158 392.075 18.9106C392.546 18.6053 393.1 18.4424 393.667 18.4424C394.428 18.4424 395.157 18.7351 395.694 19.256C396.232 19.777 396.534 20.4836 396.534 21.2203Z" fill="white"/>
<path d="M78.1621 77.0717C79.5619 78.9604 81.5031 80.4093 83.7448 81.2387C85.6511 82.0165 89.0552 81.7457 89.8291 78.4607C89.2463 68.0988 86.6783 62.5844 82.1252 61.9177L78.1621 77.0717Z" fill="#F69571"/>
<path d="M80.599 55.638L72.043 57.9125C71.001 58.1895 70.388 59.2327 70.6738 60.2425L75.1101 75.9147C75.396 76.9245 76.4724 77.5185 77.5145 77.2415L86.0705 74.967C87.1125 74.69 87.7255 73.6468 87.4396 72.637L83.0033 56.9648C82.7175 55.955 81.641 55.361 80.599 55.638Z" fill="#69B792"/>
<path d="M82.1152 58.1586L72.0664 60.83L75.9984 74.7207L86.0472 72.0493L82.1152 58.1586Z" fill="white"/>
<path d="M77.7453 57.5611L75.5059 58.1556L75.6479 58.658L77.8873 58.0635L77.7453 57.5611Z" fill="#512944"/>
<path d="M82.1446 74.523C82.1843 74.6632 82.1802 74.8116 82.1329 74.9496C82.0857 75.0875 81.9973 75.2088 81.879 75.2982C81.7607 75.3876 81.6177 75.441 81.4681 75.4517C81.3185 75.4625 81.169 75.43 81.0384 75.3585C80.9078 75.287 80.8019 75.1797 80.7342 75.05C80.6665 74.9203 80.6399 74.774 80.6578 74.6297C80.6757 74.4854 80.7373 74.3494 80.8348 74.239C80.9323 74.1285 81.0614 74.0485 81.2058 74.0091C81.3023 73.9817 81.4034 73.9734 81.5032 73.9845C81.6031 73.9957 81.6996 74.0261 81.7871 74.074C81.8746 74.1219 81.9513 74.1863 82.0127 74.2635C82.0741 74.3406 82.119 74.4288 82.1446 74.523Z" fill="#512944"/>
<path d="M120.136 100.914L91.714 73.0575L80.7852 81.8081L104.298 112.456C112.862 123.568 129.367 112.38 120.136 100.914Z" fill="#FFB1A5"/>
<path d="M85.3349 84.614C84.6114 84.3456 83.8504 84.1841 83.0774 84.1348C77.7599 83.8153 72.4782 88.4962 71.2671 94.6009C70.3426 99.2679 72.0769 103.407 75.3161 105.241H75.3663C76.0041 105.602 108.103 116.63 108.103 116.63C108.103 116.63 118.465 120.047 121.977 112.067C125.016 104.261 115.843 99.761 115.843 99.761L86.9115 85.3849C86.4519 85.0771 85.9563 84.823 85.4352 84.6279L85.342 84.5793L85.3349 84.614Z" fill="#FFB1A5"/>
<path d="M71.0807 59.8065H57.1777V93.6841H71.0807V59.8065Z" fill="#F69571"/>
<path d="M71.081 80.2178C69.0556 79.9589 67.0818 79.4064 65.226 78.5788L62.3594 59.8273H71.0953L71.081 80.2178Z" fill="#E57553"/>
<path d="M49.8905 288.858H37.9512L40.0366 265.982H51.976L49.8905 288.858Z" fill="#F69571"/>
<path d="M92.4 288.858H80.4606L79.959 265.982H91.8983L92.4 288.858Z" fill="#F69571"/>
<path d="M37.9459 281.142L37.1504 288.858H50.609L51.3973 281.142H37.9459Z" fill="white"/>
<path d="M79.5879 281.142L79.7742 288.858H93.1039L92.9175 281.142H79.5879Z" fill="white"/>
<path d="M92.551 152.591H44.8796C42.1563 194.761 35.3768 235.646 32.7969 275.607H56.8619L72.148 216.943L74.1475 275.607H98.449C102.993 232.569 101.746 191.337 92.551 152.591Z" fill="#0070C0"/>
<path d="M72.4138 216.992L71.8906 216.888L81.8735 168.544L82.0455 168.509C84.508 168.038 86.8254 167.023 88.8179 165.543L89.1404 165.953C87.1366 167.449 84.8088 168.484 82.3322 168.981L72.4138 216.992Z" fill="#512944"/>
<path d="M35.5574 286.386C33.008 291.506 31.3978 297.017 30.7988 302.672H73.0094C73.9984 297.414 66.6886 293.407 53.3732 290.303L53.4664 286.386H35.5574Z" fill="#FFB1A5"/>
<path d="M37.615 302.713L37.0847 302.63C37.4425 300.993 37.1633 299.285 36.3008 297.835C35.4384 296.385 34.0534 295.296 32.4121 294.775L32.5626 294.275C34.3306 294.83 35.8245 295.999 36.7571 297.556C37.6898 299.114 37.9953 300.951 37.615 302.713Z" fill="#512944"/>
<path d="M79.0182 286.386C77.0893 291.598 76.3795 297.161 76.9399 302.672H119.15C120.139 297.414 112.83 293.407 99.5143 290.303L96.9559 286.386H79.0182Z" fill="#FFB1A5"/>
<path d="M77.8301 83.3569C84.6311 83.5236 89.9056 87.6142 90.5864 96.9204L96.8069 154.772L40.7579 158.758L39.0308 99.5248C38.3571 90.0796 44.764 83.3639 55.5137 83.3639H57.1763C64.0776 87.6767 68.3632 87.003 71.0793 83.3639L77.8301 83.3569Z" fill="#FFB1A5"/>
<path d="M91.8513 111.171L90.3248 96.9481C89.9092 91.2394 87.6804 87.1488 83.875 85.1417L84.1402 84.6903C88.1032 86.8155 90.418 91.0519 90.848 96.9412L92.3816 111.151L91.8513 111.171Z" fill="#512944"/>
<path d="M61.9869 155.55L65.5702 160.571C64.159 162.165 62.415 163.451 60.4533 164.344C58.4917 165.237 56.3569 165.717 54.1898 165.752L51.8535 162.377L61.9869 155.55Z" fill="#F69571"/>
<path d="M98.8996 270.857H73.9961V271.378H98.8996V270.857Z" fill="#512944"/>
<path d="M58.0695 270.857H33.166V271.378H58.0695V270.857Z" fill="#512944"/>
<path d="M73.8675 59.883C73.7242 57.105 74.1183 54.7507 75.5015 53.1187C77.6783 52.4214 80.0503 52.5785 82.109 53.5562V61.0914C82.109 61.0914 81.8868 65.2583 78.5616 65.2583V63.0637C78.5831 60.6747 75.2292 59.6191 73.8675 59.883Z" fill="#512944"/>
<path d="M69.0454 78.5787H57.1777V57.8551C57.1777 51.8477 62.5168 46.9307 69.0454 46.9307C75.5741 46.9307 80.9131 51.8477 80.9131 57.8551V67.6752C80.9131 73.6617 75.5741 78.5787 69.0454 78.5787Z" fill="#F69571"/>
<path d="M60.4234 64.4805C60.4234 65.4053 60.1404 66.3092 59.6101 67.078C59.0798 67.8468 58.3261 68.4459 57.4444 68.7994C56.5627 69.153 55.5926 69.2451 54.6568 69.0642C53.721 68.8833 52.8617 68.4375 52.1874 67.7831C51.5132 67.1287 51.0544 66.2952 50.8691 65.3881C50.6839 64.481 50.7804 63.541 51.1465 62.6871C51.5127 61.8331 52.132 61.1036 52.9261 60.5909C53.7202 60.0781 54.6533 59.8051 55.6076 59.8065C56.2406 59.8065 56.8674 59.9275 57.4522 60.1624C58.0369 60.3974 58.5681 60.7418 59.0154 61.1759C59.4627 61.61 59.8173 62.1254 60.0589 62.6924C60.3005 63.2594 60.4244 63.8671 60.4234 64.4805Z" fill="#F69571"/>
<path d="M54.7972 59.883C54.6539 57.105 55.048 54.7507 56.4312 53.1187C58.6079 52.4214 60.98 52.5785 63.0387 53.5562V61.0914C63.0387 61.0914 62.8165 65.2583 59.4913 65.2583V63.0637C59.5128 60.6747 56.166 59.6191 54.7972 59.883Z" fill="#512944"/>
<path d="M77.1215 57.5009H61.7781C60.2712 57.4899 58.8293 56.9045 57.7644 55.8712C56.6996 54.838 56.0973 53.4399 56.0879 51.9796C56.0991 50.5205 56.7023 49.1243 57.7669 48.0925C58.8316 47.0607 60.2724 46.4762 61.7781 46.4653H77.1215C78.6346 46.4653 80.0864 47.0449 81.1603 48.0779C82.2343 49.1108 82.8433 50.5133 82.8547 51.9796C82.8452 53.4471 82.237 54.8514 81.1629 55.8858C80.0887 56.9203 78.6358 57.5009 77.1215 57.5009Z" fill="#512944"/>
<path d="M77.5228 57.5009C81.6549 57.5009 85.0046 54.2547 85.0046 50.2503C85.0046 46.2459 81.6549 42.9998 77.5228 42.9998C73.3907 42.9998 70.041 46.2459 70.041 50.2503C70.041 54.2547 73.3907 57.5009 77.5228 57.5009Z" fill="#512944"/>
<path d="M55.4856 67.0848C54.788 67.0848 54.1191 66.8163 53.6258 66.3383C53.1326 65.8603 52.8555 65.212 52.8555 64.536C52.854 64.1522 52.943 63.7732 53.1156 63.4278C53.2882 63.0823 53.54 62.7797 53.8516 62.5428L54.1813 62.9526C53.9345 63.1413 53.7353 63.3819 53.5987 63.6562C53.4621 63.9306 53.3918 64.2314 53.393 64.536C53.393 65.0739 53.6134 65.5897 54.0059 65.97C54.3983 66.3503 54.9306 66.5639 55.4856 66.5639C55.9201 66.5665 56.3442 66.4352 56.6967 66.1889L57.0049 66.6195C56.5611 66.9248 56.0298 67.0875 55.4856 67.0848Z" fill="#512944"/>
<path d="M54.4476 66.4459H53.9102C53.9229 66.2299 53.9797 66.0185 54.0772 65.8239C54.1747 65.6293 54.311 65.4553 54.4782 65.3119C54.6454 65.1686 54.8403 65.0588 55.0515 64.9888C55.2627 64.9188 55.4862 64.89 55.709 64.9041V65.425C54.4978 65.4945 54.4476 66.3417 54.4476 66.4459Z" fill="#512944"/>
<path d="M71.6463 65.2514C71.6463 65.4055 71.599 65.5562 71.5105 65.6842C71.422 65.8123 71.2962 65.912 71.1491 65.9706C71.0021 66.0293 70.8403 66.0443 70.6844 66.0137C70.5285 65.9831 70.3855 65.9084 70.2736 65.7989C70.1616 65.6894 70.0857 65.5502 70.0556 65.3988C70.0254 65.2475 70.0423 65.0909 70.1042 64.9489C70.166 64.8069 70.27 64.6859 70.403 64.6012C70.5359 64.5166 70.6918 64.4722 70.8508 64.4735C70.9559 64.4735 71.0599 64.4937 71.1569 64.5329C71.2539 64.5721 71.3419 64.6295 71.4159 64.7018C71.4898 64.7741 71.5483 64.8599 71.5878 64.9542C71.6274 65.0486 71.6472 65.1496 71.6463 65.2514Z" fill="#512944"/>
<path d="M79.8611 65.2513C79.8611 65.4052 79.8141 65.5556 79.7259 65.6835C79.6377 65.8114 79.5123 65.9111 79.3657 65.97C79.219 66.0288 79.0576 66.0442 78.9019 66.0142C78.7462 65.9842 78.6032 65.9101 78.4909 65.8014C78.3787 65.6926 78.3023 65.554 78.2713 65.4031C78.2403 65.2522 78.2562 65.0958 78.317 64.9537C78.3777 64.8116 78.4806 64.6901 78.6126 64.6046C78.7446 64.5191 78.8998 64.4735 79.0585 64.4735C79.2714 64.4735 79.4755 64.5555 79.6261 64.7013C79.7766 64.8472 79.8611 65.045 79.8611 65.2513Z" fill="#512944"/>
<path d="M73.8398 67.8141V67.2933C74.3128 67.3323 74.7827 67.1908 75.1495 66.8989C75.5163 66.607 75.751 66.1877 75.8035 65.7306V62.89H76.3409V65.7306C76.2897 66.3265 75.9987 66.879 75.5307 67.2688C75.0628 67.6586 74.4555 67.8545 73.8398 67.8141Z" fill="#512944"/>
<path d="M71.6491 62.1677C71.6491 62.4872 71.0256 62.7441 70.2517 62.7441C69.4777 62.7441 68.8184 62.4872 68.8184 62.1677C68.8184 61.8483 69.449 61.5913 70.2517 61.5913C71.0543 61.5913 71.6491 61.8483 71.6491 62.1677Z" fill="#512944"/>
<path d="M79.8249 62.1677C79.8249 62.4872 79.2014 62.7441 78.4274 62.7441C77.6535 62.7441 76.9941 62.4872 76.9941 62.1677C76.9941 61.8483 77.6176 61.5913 78.4274 61.5913C79.2372 61.5913 79.8249 61.8483 79.8249 62.1677Z" fill="#512944"/>
<path d="M76.7295 71.217H73.5261C73.0287 71.2152 72.5522 71.0229 72.2005 70.6821C71.8487 70.3413 71.6503 69.8796 71.6484 69.3976H72.1859C72.1859 69.742 72.3271 70.0723 72.5784 70.3158C72.8298 70.5594 73.1706 70.6962 73.5261 70.6962H76.7295V71.217Z" fill="#512944"/>
<path d="M53.2305 166.009V165.502C53.338 165.502 63.9014 165.3 67.0475 157.619L67.5491 157.807C64.2597 165.807 53.338 166.009 53.2305 166.009Z" fill="#512944"/>
<path d="M82.1755 302.713L81.638 302.63C81.9979 300.994 81.7205 299.286 80.8592 297.836C79.9979 296.386 78.6136 295.296 76.9727 294.775L77.1232 294.275C78.8902 294.831 80.3831 296 81.3156 297.557C82.248 299.115 82.5542 300.951 82.1755 302.713Z" fill="#512944"/>
<path d="M90.4378 94.1324L90.0078 94.4449L102.271 110.291L102.701 109.978L90.4378 94.1324Z" fill="#512944"/>
<path d="M53.0212 117.387L92.3867 113.679L94.766 135.784L50.6849 139.84L43.1816 126.27L53.0212 117.387Z" fill="white"/>
<path d="M52.878 84.9402C48.0335 84.1415 43.7049 86.0028 41.7556 89.3364L40.1934 92.038L27.8025 121.054C25.6096 125.221 23.8681 130.562 28.3687 137.097L49.388 164.016L63.2193 154.716L46.7364 128.325L62.2948 100.497C62.6195 100.022 62.891 99.5141 63.1046 98.9829L63.1548 98.8857C63.4445 98.1481 63.6231 97.3739 63.6851 96.5869C64.0362 91.1907 59.2204 85.9958 52.878 84.9402Z" fill="#FFB1A5"/>
<path d="M62.9908 154.862L46.4004 128.346L57.3938 108.685L57.8596 108.935L47.0167 128.332L63.4495 154.591L62.9908 154.862Z" fill="#512944"/>
<path d="M38.0933 130.027L37.7422 129.631C41.7053 126.297 46.7505 128.082 46.8006 128.096L46.6143 128.589C46.5641 128.569 41.8056 126.902 38.0933 130.027Z" fill="#512944"/>
<path d="M491.984 302.408H18.2363V302.929H491.984V302.408Z" fill="#512944"/>
<path d="M490.905 232.704C495.343 214.874 484.025 196.933 465.625 192.633C447.226 188.332 428.713 199.3 424.275 217.131C419.838 234.961 431.156 252.902 449.555 257.202C467.954 261.503 486.467 250.535 490.905 232.704Z" fill="white"/>
<path d="M457.625 258.425C449.126 258.424 440.926 255.386 434.594 249.892C428.261 244.399 424.241 236.836 423.302 228.651C422.362 220.465 424.57 212.231 429.502 205.524C434.434 198.816 441.745 194.107 450.036 192.295L450.151 192.802C443.472 194.267 437.406 197.654 432.749 202.519C428.092 207.383 425.06 213.498 424.052 220.062C423.043 226.625 424.105 233.331 427.099 239.299C430.092 245.267 434.877 250.22 440.825 253.506C446.774 256.793 453.608 258.261 460.433 257.718C467.257 257.174 473.753 254.645 479.068 250.461C484.383 246.277 488.269 240.634 490.217 234.272C492.164 227.911 492.082 221.127 489.982 214.811L490.491 214.651C492.163 219.674 492.587 225.009 491.727 230.221C490.868 235.434 488.751 240.375 485.547 244.643C482.343 248.912 478.144 252.386 473.292 254.784C468.44 257.181 463.072 258.434 457.625 258.439V258.425Z" fill="#512944"/>
<path d="M432.617 232.236C432.617 226.242 441.167 225.36 441.167 221.395C441.167 219.749 439.862 218.617 438.014 218.617C437.288 218.657 436.584 218.875 435.969 219.25C435.353 219.626 434.846 220.146 434.495 220.763L432.696 219.596C433.228 218.626 434.023 217.816 434.996 217.251C435.968 216.687 437.081 216.391 438.214 216.394C441.389 216.394 443.682 218.325 443.682 221.256C443.682 226.812 435.376 227.652 435.283 231.5H443.955V233.549H432.746C432.665 233.115 432.622 232.676 432.617 232.236Z" fill="#512944"/>
<path d="M445.873 227.43L453.928 216.381H456.687V226.916H459.052V228.93H456.687V233.521H454.337V228.93H445.873V227.43ZM454.301 226.916V220.666C454.301 219.867 454.394 218.943 454.394 218.943H454.337C454.093 219.445 453.803 219.924 453.469 220.374L448.546 226.881V226.93L454.301 226.916Z" fill="#512944"/>
<path d="M466.865 216.381H469.015L462.752 233.521H460.602L466.865 216.381Z" fill="#512944"/>
<path d="M479.42 220.047C479.697 219.493 480.029 218.965 480.409 218.471V218.422C479.999 218.463 479.588 218.479 479.176 218.471H471.4V216.387H483.003V218.04L475.17 233.528H472.633L479.42 220.047Z" fill="#512944"/>
</svg>
