<svg width="630" height="404" viewBox="0 0 630 404" fill="none" xmlns="http://www.w3.org/2000/svg">
<path d="M624.039 235.861C609.376 197.716 569.735 168.51 568.441 127.831C567.922 111.216 574.156 94.8991 573.456 78.2949C571.982 43.2905 539.529 15.6955 504.871 5.55645C457.977 -8.1128 404.002 3.94529 368.103 36.1481C350.8 51.6337 337.113 71.5834 316.259 82.2048C285.714 97.752 247.875 89.1421 216.927 74.3645C197.843 65.2517 179.586 53.8401 158.923 48.8834C130.456 42.0591 98.9677 48.7706 75.7596 66.1239C52.5515 83.4773 37.9311 111.021 36.362 139.345C35.8425 148.848 36.6801 158.525 34.2416 167.75C30.1173 183.575 17.2039 195.664 9.29474 210.082C-2.7811 232.115 -2.49485 259.341 6.71841 282.615C11.8602 295.637 18.4813 308.066 26.4596 319.672C47.208 349.207 88.4609 368.418 128.622 365.852C169.376 363.245 207.512 346.456 246.984 336.307C317.983 318.213 393.002 321.583 461.964 345.964C480.677 352.634 499.071 360.885 518.844 363.41C552.315 367.72 587.673 353.958 608.729 328.405C629.785 302.852 635.85 266.493 624.039 235.861Z" fill="#F0F0F0"/>
<path fill-rule="evenodd" clip-rule="evenodd" d="M138.421 209.952C141.4 198.653 146.352 194.732 152.191 191.232C157.933 187.8 164.597 184.686 164.597 184.686L183.52 173.411L187.338 167.487L218.854 169.595L221.216 171.442L223.441 174.98C227.239 177.694 231.198 180.174 235.298 182.406C242.276 186.159 250.889 189.831 256.739 194.593C259.338 196.768 261.417 199.498 262.823 202.582C266.998 211.988 269.017 238.315 270.371 262.271C271.568 283.604 272.34 303.33 272.34 303.33L161.318 303.454C161.318 303.454 162.276 295.123 161.797 287.231C161.318 279.338 159.354 271.877 159.354 271.877L156.019 303.38L130.609 303.565C130.609 303.565 131.215 287.59 132.358 267.699C133.57 246.517 135.493 221.04 138.421 209.952Z" fill="#FFBF00"/>
<path fill-rule="evenodd" clip-rule="evenodd" d="M187.11 95.4014C187.11 95.4014 191.132 85.6882 206.666 88.4549C220.918 90.9891 236.607 109.773 241.745 124.864C243.47 129.926 243.805 136.302 243.31 142.19C242.869 147.44 241.393 152.25 241.606 157.3C241.882 164.007 245.561 170.608 246.701 175.598C247.983 181.205 245.698 187.574 245.698 187.574C241.885 186.105 238.181 184.369 234.612 182.379C229.076 179.246 223.558 175.044 223.558 175.044L219.208 169.398L189.309 165.822L187.534 167.547L183.589 173.272C183.589 173.272 183.526 180.319 185.622 185.56C188.55 192.882 194.03 199.867 195.125 207.329C196.998 220.132 191.091 224.482 191.091 224.482C191.091 224.482 190.181 228.432 188.523 231.28C187.465 233.054 186.084 234.615 184.451 235.881C184.451 235.881 185.263 230.485 184.451 226.283C183.921 223.675 182.822 221.215 181.232 219.08L178.041 223.179C178.041 223.179 178.077 217.787 176.276 213.557C174.065 208.364 169.753 203.748 167.413 198.655C165.101 193.656 164.96 184.602 164.96 184.602L158.629 187.574C158.629 187.574 158.2 183.351 159.348 179.064C161.072 172.596 164.807 163.904 166.534 152.533C167.621 145.373 167.276 136.906 167.732 129.82C168.005 125.554 168.802 121.338 170.103 117.266C173.765 105.404 179.004 101.49 182.405 99.0016C185.622 96.6541 187.11 95.4014 187.11 95.4014Z" fill="black"/>
<path fill-rule="evenodd" clip-rule="evenodd" d="M178.568 132.468C180.334 130.697 184.281 132.743 188.075 124.989C190.171 120.704 191.261 114.91 193.487 111.125C194.909 108.703 196.972 107.424 199.475 106.83C202.474 106.112 206.771 105.28 209.231 106.883C211.643 108.454 213.251 112.442 214.81 115.135C218.139 120.884 222.475 125.674 222.475 125.674L228.418 131.715C228.418 131.715 228.336 141.412 226.19 148.605C224.044 155.798 219.524 161.331 219.524 161.331L218.693 174.453C218.693 174.453 221.354 178.422 220.24 181.472C218.906 185.127 217.344 188.08 215.838 192.73C214.568 196.639 213.229 202.599 213.229 202.599L207.605 188.854C207.605 188.854 199.046 184.063 194.191 179.392C189.335 174.721 188.178 170.192 188.178 170.192C188.578 167.922 188.839 165.63 188.959 163.329C189.025 161.328 188.921 159.325 188.648 157.341C188.648 157.341 185.076 149.606 183.948 146.286C183.347 144.516 181.517 144.55 179.708 142.442C177.615 139.984 175.713 135.328 178.568 132.468Z" fill="#FFDDC0"/>
<path d="M216.189 302.958C215.986 302.958 215.79 302.883 215.639 302.746C215.488 302.61 215.393 302.423 215.372 302.22C213.837 286.866 215.562 270.456 216.728 262.039C218.714 247.688 216.834 230.331 215.931 223.533C214.438 212.275 212.953 204.622 212.646 203.839C211.981 202.136 211.334 200.37 210.711 198.674C209.401 195.103 208.165 191.728 207.159 190.118C206.639 189.285 205.135 188.384 203.228 187.244C198.358 184.326 190.995 179.921 186.283 169.204C186.239 169.105 186.214 168.999 186.211 168.89C186.208 168.782 186.227 168.674 186.266 168.573C186.305 168.471 186.363 168.379 186.438 168.3C186.513 168.222 186.603 168.159 186.702 168.115C186.801 168.071 186.908 168.048 187.017 168.046C187.125 168.044 187.233 168.063 187.334 168.103C187.435 168.143 187.527 168.202 187.605 168.278C187.683 168.353 187.745 168.444 187.788 168.543C192.288 178.781 199.379 183.026 204.076 185.835C206.253 187.138 207.827 188.08 208.558 189.249C209.652 191.002 210.86 194.296 212.258 198.111C212.876 199.788 213.518 201.551 214.175 203.242C214.558 204.222 216.057 211.978 217.559 223.32C218.69 231.845 220.295 248.232 218.355 262.266C217.198 270.609 215.48 286.876 217.006 302.06C217.027 302.277 216.962 302.493 216.824 302.661C216.686 302.83 216.487 302.936 216.271 302.958H216.189Z" fill="black"/>
<path d="M213.382 203.483C213.333 203.482 213.284 203.478 213.236 203.471C213.129 203.452 213.027 203.412 212.936 203.353C212.845 203.295 212.766 203.219 212.705 203.13C212.643 203.041 212.6 202.94 212.577 202.834C212.554 202.729 212.553 202.619 212.572 202.513C213.72 196.139 216.946 186.375 218.446 183.376C219.773 180.72 220.086 178.346 217.935 173.436C217.893 173.336 217.87 173.229 217.868 173.121C217.866 173.013 217.886 172.905 217.926 172.805C217.966 172.704 218.025 172.612 218.101 172.534C218.176 172.457 218.266 172.395 218.365 172.352C218.465 172.309 218.572 172.286 218.68 172.284C218.788 172.283 218.896 172.302 218.996 172.342C219.097 172.382 219.189 172.441 219.267 172.517C219.344 172.592 219.406 172.682 219.449 172.782C221.538 177.556 221.667 180.626 219.928 184.116C218.491 186.962 215.293 196.663 214.18 202.807C214.146 202.995 214.048 203.165 213.902 203.288C213.756 203.411 213.573 203.48 213.382 203.483V203.483Z" fill="black"/>
<path d="M183.55 174.805C183.413 174.805 183.278 174.771 183.158 174.704C183.063 174.653 182.979 174.583 182.912 174.499C182.844 174.415 182.794 174.318 182.763 174.215C182.733 174.111 182.724 174.003 182.735 173.896C182.747 173.789 182.78 173.685 182.832 173.59C183.045 173.198 183.28 172.757 183.526 172.292C185.539 168.503 186.961 166.002 188.375 165.753C188.584 165.725 188.795 165.779 188.965 165.904C189.136 166.028 189.252 166.213 189.29 166.42C189.327 166.627 189.284 166.841 189.169 167.018C189.053 167.194 188.874 167.319 188.669 167.367C187.857 167.636 185.912 171.298 184.978 173.061C184.726 173.54 184.499 173.981 184.259 174.378C184.19 174.506 184.088 174.613 183.963 174.688C183.838 174.763 183.696 174.803 183.55 174.805Z" fill="black"/>
<path d="M197.63 202.39H197.529C194.873 202.182 187.007 189.41 184.398 184.075C184.315 183.881 184.31 183.663 184.384 183.465C184.457 183.268 184.604 183.106 184.794 183.014C184.984 182.921 185.201 182.905 185.402 182.969C185.603 183.033 185.772 183.172 185.874 183.357C189.215 190.188 195.565 199.379 197.441 200.632C197.961 199.736 198.399 198.371 198.878 196.933C200.255 192.746 202.148 187.017 207.803 188.626C208.004 188.694 208.17 188.835 208.269 189.023C208.368 189.21 208.39 189.428 208.332 189.631C208.274 189.834 208.14 190.007 207.958 190.114C207.775 190.221 207.559 190.254 207.353 190.205C203.506 189.115 202.061 192.516 200.437 197.446C199.863 199.192 199.319 200.843 198.571 201.909C198.466 202.059 198.324 202.182 198.16 202.266C197.996 202.35 197.814 202.392 197.63 202.39V202.39Z" fill="black"/>
<path d="M225.822 200.857C225.626 200.86 225.436 200.795 225.283 200.673C224.88 200.344 224.579 199.652 223.877 197.983C222.703 195.197 220.741 190.533 217.668 187.814C217.584 187.744 217.515 187.657 217.465 187.56C217.415 187.462 217.385 187.356 217.377 187.246C217.369 187.137 217.383 187.027 217.418 186.923C217.453 186.819 217.508 186.724 217.581 186.642C217.653 186.559 217.742 186.493 217.84 186.445C217.939 186.398 218.046 186.37 218.156 186.365C218.265 186.359 218.375 186.376 218.478 186.413C218.581 186.451 218.675 186.509 218.755 186.583C222.109 189.551 224.162 194.43 225.391 197.345L225.599 197.844C226.301 194.119 227.276 185.673 225.767 182.772C225.168 181.625 224.583 180.283 223.965 178.865C222.454 175.397 220.741 171.466 218.755 170.501C218.659 170.454 218.572 170.388 218.501 170.307C218.429 170.226 218.374 170.133 218.339 170.031C218.304 169.929 218.289 169.821 218.296 169.713C218.302 169.606 218.33 169.501 218.377 169.404C218.424 169.307 218.49 169.22 218.571 169.149C218.651 169.077 218.745 169.022 218.847 168.987C218.949 168.952 219.057 168.937 219.164 168.944C219.272 168.95 219.377 168.978 219.474 169.025C222.006 170.254 223.769 174.295 225.462 178.209C226.068 179.601 226.641 180.916 227.213 182.013C229.278 185.97 227.551 199.703 226.358 200.673C226.205 200.792 226.016 200.857 225.822 200.857Z" fill="black"/>
<path d="M187.987 170.596C187.878 170.595 187.769 170.573 187.668 170.531C187.468 170.446 187.31 170.285 187.228 170.084C187.146 169.882 187.148 169.656 187.233 169.456C189.027 165.216 187.894 157.592 187.882 157.513C187.85 157.298 187.905 157.079 188.034 156.904C188.164 156.73 188.358 156.614 188.573 156.582C188.788 156.55 189.007 156.605 189.181 156.735C189.356 156.865 189.472 157.058 189.503 157.273C189.556 157.604 190.72 165.434 188.744 170.103C188.68 170.25 188.574 170.375 188.44 170.463C188.305 170.551 188.148 170.597 187.987 170.596Z" fill="black"/>
<path d="M207.219 169.924C206.021 169.914 204.833 169.715 203.698 169.333C201.303 168.554 193.065 165.354 187.477 156.841C186.471 155.31 185.362 152.769 184.181 149.3C184.122 149.097 184.144 148.88 184.242 148.692C184.34 148.505 184.506 148.362 184.706 148.295C184.906 148.227 185.125 148.239 185.317 148.328C185.508 148.417 185.658 148.577 185.735 148.773C186.854 152.065 187.932 154.544 188.849 155.94C194.145 164.005 201.942 167.036 204.206 167.771C208.022 169.012 210.618 167.771 212.659 166.372C218.168 162.611 223.678 154.934 224.911 150.58C225.642 147.993 226.073 143.825 226.573 138.998C226.794 136.869 227.024 134.639 227.292 132.404C227.318 132.187 227.43 131.99 227.601 131.856C227.773 131.722 227.991 131.661 228.207 131.687C228.423 131.714 228.62 131.825 228.755 131.997C228.889 132.168 228.95 132.386 228.923 132.602C228.65 134.828 228.423 137.048 228.205 139.168C227.697 144.069 227.259 148.302 226.49 151.025C225.182 155.651 219.383 163.776 213.579 167.73C211.983 168.818 209.921 169.924 207.219 169.924Z" fill="black"/>
<path d="M207.827 148.052C207.658 148.052 207.494 148 207.356 147.904C207.218 147.807 207.113 147.67 207.055 147.511C206.998 147.353 206.99 147.18 207.034 147.017C207.078 146.855 207.171 146.709 207.3 146.601C208.019 145.995 209.456 144.445 209.286 143.487C209.238 143.228 208.891 142.651 208.553 142.09C207.784 140.816 206.732 139.07 206.397 136.893C206.062 134.785 206.785 132.981 208.328 130.186C208.377 130.086 208.446 129.997 208.53 129.925C208.614 129.852 208.712 129.798 208.818 129.765C208.924 129.731 209.036 129.72 209.147 129.731C209.257 129.742 209.364 129.775 209.462 129.829C209.559 129.883 209.645 129.955 209.713 130.043C209.781 130.131 209.831 130.231 209.859 130.339C209.888 130.446 209.894 130.558 209.878 130.668C209.861 130.778 209.823 130.884 209.765 130.978C208.21 133.791 207.786 135.166 208.019 136.631C208.313 138.493 209.269 140.078 209.969 141.238C210.448 142.016 210.809 142.632 210.91 143.188C211.305 145.343 208.663 147.607 208.361 147.858C208.212 147.985 208.023 148.054 207.827 148.052V148.052Z" fill="black"/>
<path d="M212.933 124.935C212.756 124.934 212.584 124.877 212.443 124.771C212.301 124.665 212.198 124.517 212.147 124.347C212.097 124.178 212.103 123.996 212.163 123.83C212.224 123.664 212.337 123.523 212.485 123.426C214.696 121.989 217.055 121.471 219.489 121.878C219.697 121.921 219.881 122.043 220.001 122.219C220.121 122.395 220.168 122.61 220.133 122.82C220.098 123.029 219.982 123.217 219.811 123.344C219.64 123.47 219.427 123.525 219.216 123.498C217.199 123.158 215.235 123.598 213.378 124.801C213.246 124.888 213.091 124.935 212.933 124.935V124.935Z" fill="black"/>
<path fill-rule="evenodd" clip-rule="evenodd" d="M219.119 134.624C219.188 132.641 218.091 130.995 216.666 130.945C215.241 130.895 214.031 132.464 213.964 134.445C213.897 136.426 214.994 138.071 216.417 138.122C217.84 138.172 219.052 136.61 219.119 134.624Z" fill="black"/>
<path fill-rule="evenodd" clip-rule="evenodd" d="M189.074 158.993C189.074 158.993 194.622 163.497 198.656 165.894C202.857 168.398 206.385 169.313 208.817 168.699C211.248 168.086 217.61 164.067 217.61 164.067C217.61 164.067 208.045 174.384 201.801 174.714C194.734 175.093 189.158 165.648 189.158 165.648L189.074 158.993Z" fill="black"/>
<path d="M158.728 188.063C158.524 188.062 158.329 187.987 158.178 187.851C158.027 187.714 157.932 187.527 157.911 187.325C157.408 182.465 159.173 176.97 161.219 170.603C163.324 164.042 165.712 156.605 166.304 147.912C166.544 144.468 166.544 141.464 166.544 138.57C166.544 130.881 166.544 124.241 170.819 113.28C174.784 103.114 182.842 98.0722 183.182 97.8614C183.367 97.757 183.585 97.7283 183.791 97.7815C183.997 97.8347 184.174 97.9656 184.285 98.1467C184.397 98.3278 184.434 98.545 184.388 98.7527C184.343 98.9603 184.218 99.1423 184.042 99.2603C183.963 99.3082 176.106 104.243 172.348 113.872C168.189 124.541 168.189 131.03 168.189 138.561C168.189 141.493 168.189 144.523 167.95 148.025C167.346 156.916 164.927 164.454 162.79 171.106C160.804 177.296 159.087 182.64 159.554 187.155C159.577 187.37 159.514 187.585 159.38 187.753C159.245 187.922 159.05 188.031 158.835 188.056L158.728 188.063Z" fill="black"/>
<path d="M233.341 149.192C233.207 149.192 233.074 149.159 232.956 149.096C232.837 149.033 232.736 148.941 232.661 148.83C232.586 148.718 232.539 148.59 232.525 148.456C232.512 148.323 232.531 148.188 232.582 148.063C232.61 147.987 235.619 139.704 222.536 127.003C217.307 121.93 214.521 116.857 212.061 112.38C210.585 109.711 209.21 107.189 207.471 104.949C205.603 102.554 204.012 101.424 202.561 101.443C201.109 101.462 199.672 102.712 197.823 105.417C197.764 105.509 197.686 105.589 197.596 105.652C197.505 105.714 197.402 105.757 197.295 105.78C197.187 105.802 197.076 105.802 196.968 105.78C196.86 105.758 196.757 105.715 196.666 105.653C196.576 105.591 196.498 105.511 196.439 105.418C196.379 105.326 196.339 105.222 196.32 105.113C196.302 105.005 196.305 104.894 196.33 104.787C196.356 104.679 196.402 104.578 196.467 104.49C198.022 102.214 199.955 99.8785 202.51 99.7995C204.53 99.7516 206.554 101.093 208.767 103.941C210.59 106.286 212.006 108.861 213.503 111.589C215.898 115.963 218.634 120.931 223.683 125.825C237.645 139.378 234.258 148.305 234.107 148.679C234.046 148.832 233.94 148.962 233.803 149.054C233.667 149.145 233.505 149.193 233.341 149.192V149.192Z" fill="black"/>
<path d="M245.841 188.009C245.704 188.009 245.57 187.975 245.45 187.91C245.33 187.845 245.228 187.751 245.153 187.636C245.079 187.522 245.034 187.39 245.023 187.254C245.012 187.118 245.036 186.981 245.091 186.856C247.99 180.315 246.248 175.756 244.236 170.479C242.413 165.703 240.346 160.29 241.29 152.454C241.374 151.753 241.481 150.957 241.601 150.083C242.452 143.831 243.872 133.366 240.789 124.932C237.769 116.656 228.573 96.6956 208.584 90.1251C200.887 87.5956 194.36 89.5095 190.815 92.1444C189.074 93.4379 187.967 94.9877 187.996 96.0943C187.999 96.2022 187.98 96.3096 187.941 96.4104C187.903 96.5112 187.845 96.6034 187.77 96.6817C187.696 96.76 187.607 96.8229 187.508 96.8668C187.41 96.9107 187.304 96.9347 187.196 96.9375C186.979 96.9383 186.77 96.8553 186.613 96.7058C186.456 96.5562 186.362 96.3517 186.352 96.135C186.312 94.4583 187.612 92.4773 189.835 90.8269C193.709 87.9525 200.804 85.8374 209.096 88.5657C229.778 95.3613 239.23 115.873 242.332 124.369C245.554 133.193 244.097 143.91 243.228 150.315C243.11 151.178 243.002 151.966 242.919 152.66C242.025 160.086 244.016 165.305 245.769 169.907C247.824 175.289 249.765 180.372 246.593 187.532C246.527 187.675 246.421 187.796 246.287 187.881C246.154 187.966 245.999 188.01 245.841 188.009V188.009Z" fill="black"/>
<path d="M192.191 126.324C192.025 126.322 191.863 126.27 191.727 126.174C191.592 126.079 191.488 125.944 191.43 125.789C191.373 125.633 191.363 125.464 191.404 125.303C191.444 125.142 191.532 124.997 191.656 124.887C193.151 123.608 197.199 120.889 202.488 123.315C202.678 123.411 202.823 123.577 202.893 123.778C202.963 123.978 202.953 124.198 202.864 124.391C202.776 124.585 202.615 124.736 202.418 124.814C202.22 124.891 202 124.889 201.803 124.808C197.535 122.853 194.284 124.808 192.725 126.132C192.575 126.258 192.386 126.326 192.191 126.324V126.324Z" fill="black"/>
<path d="M183.921 145.743H183.873C180.375 145.539 176.976 141.597 176.495 138.466C176.102 135.915 176.437 133.939 177.496 132.595C178.404 131.44 179.813 130.777 181.683 130.619C181.895 130.609 182.103 130.682 182.262 130.822C182.422 130.962 182.521 131.158 182.539 131.37C182.557 131.581 182.492 131.792 182.359 131.957C182.225 132.121 182.033 132.228 181.822 132.255C180.402 132.374 179.41 132.818 178.787 133.61C178.021 134.583 177.796 136.133 178.117 138.217C178.529 140.883 181.59 143.966 183.968 144.104C184.179 144.12 184.376 144.217 184.518 144.374C184.659 144.531 184.735 144.736 184.728 144.948C184.722 145.159 184.635 145.36 184.484 145.508C184.334 145.657 184.132 145.742 183.921 145.745V145.743Z" fill="black"/>
<path d="M184.235 139.786C184.084 139.786 183.935 139.744 183.805 139.664C183.676 139.585 183.571 139.471 183.503 139.335C183.189 138.677 182.706 138.113 182.104 137.702C181.917 137.592 181.78 137.413 181.724 137.204C181.667 136.995 181.695 136.772 181.802 136.583C181.854 136.49 181.924 136.408 182.008 136.342C182.093 136.275 182.189 136.226 182.292 136.198C182.395 136.169 182.502 136.16 182.609 136.173C182.715 136.186 182.818 136.219 182.911 136.272C183.803 136.835 184.516 137.64 184.968 138.593C185.033 138.718 185.064 138.858 185.059 138.999C185.054 139.14 185.012 139.277 184.939 139.398C184.865 139.518 184.762 139.617 184.639 139.686C184.515 139.755 184.377 139.791 184.235 139.79V139.786Z" fill="black"/>
<path d="M184.284 129.041C184.101 129.041 183.924 128.98 183.779 128.868C183.635 128.757 183.532 128.6 183.487 128.423C183.441 128.246 183.456 128.059 183.529 127.892C183.602 127.724 183.728 127.586 183.889 127.498C188.155 125.153 189.137 121.289 190.176 117.198C191.032 113.845 191.913 110.371 194.728 107.823C194.806 107.745 194.9 107.683 195.003 107.642C195.107 107.602 195.217 107.582 195.328 107.585C195.439 107.588 195.548 107.614 195.649 107.66C195.75 107.706 195.84 107.773 195.915 107.855C195.989 107.937 196.046 108.034 196.082 108.139C196.118 108.244 196.133 108.355 196.125 108.465C196.117 108.576 196.087 108.684 196.036 108.783C195.985 108.881 195.915 108.969 195.829 109.039C193.386 111.255 192.6 114.338 191.772 117.603C190.691 121.852 189.573 126.248 184.681 128.938C184.56 129.005 184.423 129.041 184.284 129.041V129.041Z" fill="black"/>
<path d="M193.819 105.413C193.663 105.412 193.509 105.367 193.377 105.282C193.245 105.197 193.14 105.076 193.075 104.934C192.032 102.724 190.275 100.929 188.087 99.841C187.896 99.7506 187.747 99.5899 187.672 99.3924C187.596 99.1948 187.599 98.9757 187.681 98.7807C187.763 98.5856 187.917 98.4296 188.111 98.3451C188.305 98.2606 188.524 98.2542 188.722 98.3272C191.294 99.5636 193.357 101.653 194.562 104.239C194.654 104.436 194.664 104.662 194.59 104.867C194.516 105.071 194.364 105.238 194.167 105.331C194.058 105.383 193.94 105.41 193.819 105.413Z" fill="black"/>
<path d="M237.187 183.829C237.063 183.829 236.941 183.801 236.829 183.747C236.718 183.693 236.62 183.615 236.543 183.518C236.466 183.421 236.412 183.308 236.385 183.187C236.358 183.067 236.358 182.941 236.387 182.821C237.807 176.727 236.248 174.087 234.595 171.294C233.062 168.698 231.481 166.024 232.727 160.791C232.78 160.582 232.914 160.402 233.098 160.291C233.283 160.179 233.504 160.145 233.714 160.195C233.924 160.246 234.106 160.377 234.22 160.56C234.334 160.743 234.371 160.963 234.324 161.174C233.225 165.751 234.516 167.931 236.001 170.458C237.666 173.27 239.551 176.447 237.98 183.194C237.938 183.374 237.837 183.534 237.693 183.649C237.549 183.764 237.371 183.827 237.187 183.829V183.829Z" fill="black"/>
<path d="M190.983 225.393C190.818 225.393 190.657 225.343 190.521 225.251C190.384 225.158 190.279 225.026 190.218 224.872C190.158 224.719 190.145 224.551 190.181 224.39C190.218 224.229 190.302 224.082 190.423 223.97C194.294 220.377 195.597 214.918 194.298 207.77C193.398 202.819 191.374 199.082 189.228 195.125C187.936 192.73 186.593 190.279 185.532 187.527C182.533 179.812 181.986 173.05 183.198 158.587C183.22 158.371 183.325 158.173 183.49 158.033C183.656 157.893 183.869 157.823 184.085 157.837C184.192 157.846 184.297 157.875 184.393 157.925C184.489 157.974 184.575 158.042 184.644 158.124C184.714 158.206 184.767 158.302 184.8 158.404C184.833 158.507 184.846 158.616 184.837 158.723C183.517 174.451 184.504 180.351 187.062 186.931C188.095 189.587 189.405 192.004 190.672 194.342C192.782 198.239 194.967 202.268 195.913 207.476C197.319 215.213 195.848 221.165 191.541 225.172C191.39 225.313 191.19 225.392 190.983 225.393V225.393Z" fill="black"/>
<path d="M177.332 224.552C177.185 224.552 177.042 224.514 176.916 224.44C176.79 224.366 176.686 224.26 176.614 224.133C176.543 224.005 176.506 223.861 176.509 223.715C176.512 223.569 176.553 223.426 176.63 223.302C176.654 223.259 179.485 218.08 171.36 206.997C162.521 194.963 163.736 186.018 165.573 172.47L165.788 170.877C165.801 170.77 165.836 170.666 165.889 170.572C165.943 170.478 166.015 170.396 166.101 170.331C166.187 170.265 166.285 170.217 166.39 170.19C166.495 170.163 166.604 170.157 166.711 170.173C166.817 170.187 166.92 170.222 167.014 170.276C167.107 170.33 167.189 170.402 167.254 170.488C167.32 170.574 167.367 170.671 167.395 170.776C167.423 170.88 167.429 170.988 167.415 171.095L167.199 172.691C165.352 186.303 164.239 194.519 172.675 206.019C178.16 213.491 178.968 218.561 178.75 221.402C179.782 220.162 180.465 218.669 180.726 217.076C181.557 212.267 181.959 206.927 177.111 199.245C177.001 199.061 176.967 198.841 177.016 198.632C177.066 198.424 177.196 198.242 177.377 198.128C177.559 198.013 177.778 197.974 177.988 198.019C178.198 198.064 178.382 198.19 178.5 198.369C183.66 206.544 183.229 212.231 182.345 217.357C181.495 222.293 177.882 224.361 177.732 224.449C177.609 224.517 177.471 224.552 177.332 224.552V224.552Z" fill="black"/>
<path d="M184.096 237.253C183.963 237.253 183.831 237.221 183.713 237.159C183.595 237.097 183.493 237.006 183.418 236.896C183.343 236.786 183.296 236.659 183.281 236.526C183.266 236.393 183.283 236.259 183.332 236.135C183.332 236.096 184.803 232.18 183.373 225.252C182.882 223.082 182.074 220.995 180.977 219.058C180.891 218.869 180.879 218.655 180.944 218.457C181.009 218.26 181.147 218.095 181.329 217.995C181.511 217.895 181.725 217.868 181.926 217.919C182.127 217.97 182.302 218.095 182.415 218.27C183.593 220.351 184.458 222.595 184.98 224.929C185.842 229.109 185.723 232.261 185.438 234.254C188.111 231.521 192.41 224.824 188.159 212.346C188.12 212.243 188.102 212.133 188.106 212.023C188.11 211.913 188.137 211.805 188.184 211.705C188.23 211.605 188.297 211.516 188.379 211.442C188.461 211.369 188.558 211.313 188.662 211.277C188.766 211.242 188.877 211.228 188.987 211.236C189.097 211.244 189.204 211.274 189.302 211.324C189.4 211.374 189.487 211.444 189.558 211.529C189.628 211.613 189.681 211.711 189.713 211.817C195.884 229.923 184.64 237.071 184.525 237.143C184.395 237.219 184.247 237.257 184.096 237.253V237.253Z" fill="black"/>
<path fill-rule="evenodd" clip-rule="evenodd" d="M199.712 134.624C199.712 132.641 198.553 131.031 197.127 131.031C195.702 131.031 194.552 132.641 194.555 134.624C194.557 136.607 195.714 138.217 197.137 138.217C198.56 138.217 199.714 136.61 199.712 134.624Z" fill="black"/>
<path d="M218.884 177.873C218.687 177.872 218.496 177.801 218.347 177.672C218.198 177.543 218.101 177.364 218.072 177.169C217.353 172.215 218.501 161.896 218.551 161.46C218.585 161.252 218.697 161.065 218.865 160.938C219.032 160.81 219.243 160.752 219.452 160.775C219.661 160.798 219.854 160.901 219.99 161.062C220.126 161.223 220.195 161.43 220.182 161.64C220.17 161.745 219.02 172.18 219.703 176.937C219.719 177.044 219.713 177.152 219.686 177.257C219.66 177.362 219.613 177.46 219.548 177.546C219.483 177.633 219.402 177.705 219.309 177.76C219.216 177.815 219.113 177.851 219.006 177.866C218.966 177.871 218.925 177.873 218.884 177.873Z" fill="black"/>
<path fill-rule="evenodd" clip-rule="evenodd" d="M228.635 132.329C228.635 132.329 230.616 133.67 231.45 139.754C232.284 145.839 226.156 150.16 226.156 150.16L228.635 132.329Z" fill="black"/>
<path d="M130.682 304.095H130.639C130.421 304.083 130.218 303.986 130.072 303.824C129.926 303.663 129.85 303.45 129.86 303.232C129.86 303.017 130.974 281.461 132.495 256.739C134.038 231.437 135.748 209.756 141.047 200.709C145.404 193.284 152.858 189.633 161.489 185.42C162.447 184.957 163.405 184.49 164.363 184.009C164.461 183.95 164.569 183.912 164.682 183.898C164.795 183.883 164.91 183.892 165.019 183.925C165.129 183.957 165.23 184.012 165.317 184.085C165.404 184.159 165.475 184.25 165.525 184.352C165.575 184.454 165.603 184.566 165.608 184.68C165.612 184.794 165.593 184.907 165.551 185.013C165.51 185.119 165.446 185.216 165.365 185.296C165.285 185.376 165.188 185.439 165.082 185.48C164.109 185.959 163.148 186.438 162.207 186.895C153.823 190.994 146.565 194.532 142.462 201.538C136.929 210.985 135.312 237.487 134.131 256.839C132.622 281.552 131.52 303.101 131.511 303.309C131.501 303.522 131.41 303.723 131.255 303.869C131.101 304.016 130.895 304.097 130.682 304.095V304.095Z" fill="black"/>
<path d="M165.455 235.122C165.257 235.122 165.066 235.051 164.917 234.922C164.768 234.792 164.671 234.613 164.643 234.418C164.617 234.236 161.936 216.266 149.198 203.348C149.057 203.191 148.982 202.985 148.989 202.774C148.995 202.563 149.083 202.363 149.233 202.215C149.383 202.067 149.585 201.982 149.796 201.978C150.007 201.975 150.211 202.053 150.367 202.196C163.495 215.511 166.243 234.001 166.267 234.186C166.282 234.292 166.277 234.401 166.25 234.506C166.223 234.61 166.176 234.709 166.112 234.795C166.047 234.882 165.966 234.954 165.873 235.009C165.78 235.064 165.677 235.1 165.57 235.115L165.455 235.122Z" fill="black"/>
<path d="M156.236 303.975H156.171C155.954 303.957 155.753 303.855 155.611 303.689C155.47 303.523 155.4 303.308 155.416 303.091C155.416 302.926 156.705 286.343 158.475 271.995C159.884 260.562 161.695 250.739 162.775 244.87L163.175 242.685C163.189 242.575 163.226 242.469 163.283 242.373C163.34 242.277 163.416 242.194 163.506 242.128C163.596 242.063 163.698 242.016 163.807 241.991C163.915 241.966 164.028 241.964 164.137 241.984C164.247 242.004 164.351 242.046 164.444 242.107C164.537 242.169 164.616 242.249 164.677 242.342C164.738 242.435 164.779 242.54 164.799 242.649C164.818 242.759 164.815 242.872 164.789 242.98L164.389 245.167C163.312 251.019 161.515 260.811 160.104 272.196C158.341 286.506 157.067 303.053 157.052 303.218C157.037 303.424 156.944 303.616 156.792 303.757C156.641 303.897 156.442 303.975 156.236 303.975Z" fill="black"/>
<path d="M161.599 303.735H161.52C161.413 303.725 161.309 303.694 161.213 303.643C161.118 303.593 161.034 303.524 160.965 303.44C160.897 303.357 160.845 303.261 160.814 303.158C160.783 303.055 160.772 302.947 160.783 302.839C162.177 288.209 158.835 269.997 158.802 269.812C158.771 269.602 158.823 269.388 158.946 269.215C159.07 269.043 159.256 268.925 159.465 268.886C159.674 268.847 159.889 268.891 160.067 269.008C160.244 269.125 160.369 269.306 160.416 269.513C160.45 269.697 163.832 288.139 162.416 302.995C162.396 303.198 162.301 303.386 162.15 303.522C161.999 303.659 161.803 303.735 161.599 303.735V303.735Z" fill="black"/>
<path d="M252.205 303.651H252.183C252.075 303.649 251.969 303.625 251.87 303.581C251.771 303.537 251.682 303.475 251.608 303.396C251.533 303.318 251.475 303.226 251.437 303.125C251.398 303.024 251.38 302.916 251.383 302.808C251.786 287.116 252.607 274.38 253.829 264.962C253.98 263.795 254.143 262.566 254.308 261.333C255.237 254.334 256.291 246.4 256.071 242.889C255.86 239.482 255.249 236.567 254.658 233.748C253.668 229.012 252.643 224.114 253.549 216.98C253.558 216.87 253.589 216.763 253.641 216.665C253.693 216.567 253.764 216.481 253.85 216.411C253.937 216.341 254.036 216.29 254.142 216.26C254.249 216.229 254.36 216.221 254.47 216.235C254.58 216.249 254.686 216.285 254.782 216.34C254.877 216.396 254.961 216.471 255.027 216.56C255.093 216.649 255.14 216.75 255.166 216.858C255.192 216.965 255.196 217.077 255.177 217.186C254.308 224.04 255.259 228.586 256.265 233.401C256.869 236.275 257.491 239.252 257.702 242.776C257.942 246.45 256.866 254.468 255.927 261.541C255.762 262.782 255.601 264.001 255.448 265.165C254.234 274.531 253.414 287.202 253.014 302.847C253.01 303.059 252.923 303.262 252.772 303.413C252.621 303.563 252.418 303.648 252.205 303.651V303.651Z" fill="black"/>
<path d="M272.178 303.704C271.965 303.704 271.76 303.621 271.607 303.472C271.454 303.324 271.365 303.122 271.359 302.908C271.359 302.698 270.676 281.511 269.227 256.805C267.965 235.247 266.532 210.815 261.349 201.59C257.435 194.624 250.397 191.139 242.248 187.103C235.855 183.936 228.609 180.346 222.094 174.468C221.943 174.319 221.855 174.118 221.848 173.906C221.842 173.694 221.917 173.488 222.059 173.331C222.201 173.173 222.398 173.077 222.61 173.062C222.821 173.046 223.03 173.113 223.193 173.248C229.541 178.976 236.368 182.351 242.976 185.63C251.02 189.616 258.618 193.379 262.781 200.785C268.149 210.335 269.594 234.972 270.868 256.709C272.305 281.437 272.993 302.645 273 302.858C273.003 302.966 272.985 303.073 272.947 303.174C272.909 303.275 272.852 303.368 272.778 303.446C272.704 303.525 272.615 303.588 272.517 303.632C272.418 303.676 272.312 303.701 272.205 303.704H272.178Z" fill="black"/>
<path d="M507.454 356.512H331.439C331.221 356.512 331.012 356.425 330.858 356.271C330.704 356.117 330.617 355.908 330.617 355.69C330.617 355.472 330.704 355.263 330.858 355.109C331.012 354.955 331.221 354.868 331.439 354.868H507.454C507.562 354.868 507.668 354.89 507.768 354.931C507.868 354.972 507.958 355.033 508.035 355.109C508.111 355.185 508.171 355.276 508.213 355.376C508.254 355.475 508.275 355.582 508.275 355.69C508.275 355.798 508.254 355.905 508.213 356.004C508.171 356.104 508.111 356.195 508.035 356.271C507.958 356.347 507.868 356.408 507.768 356.449C507.668 356.49 507.562 356.512 507.454 356.512V356.512Z" fill="black"/>
<path d="M246.517 356.512H36.6966C36.4787 356.512 36.2697 356.425 36.1156 356.271C35.9616 356.117 35.875 355.908 35.875 355.69C35.875 355.472 35.9616 355.263 36.1156 355.109C36.2697 354.955 36.4787 354.868 36.6966 354.868H246.517C246.735 354.868 246.944 354.955 247.098 355.109C247.252 355.263 247.339 355.472 247.339 355.69C247.339 355.908 247.252 356.117 247.098 356.271C246.944 356.425 246.735 356.512 246.517 356.512V356.512Z" fill="black"/>
<path d="M283.671 356.512H278.107C277.889 356.512 277.68 356.425 277.526 356.271C277.372 356.117 277.285 355.908 277.285 355.69C277.285 355.472 277.372 355.263 277.526 355.109C277.68 354.955 277.889 354.868 278.107 354.868H283.671C283.779 354.868 283.886 354.89 283.986 354.931C284.085 354.972 284.176 355.033 284.252 355.109C284.328 355.185 284.389 355.276 284.43 355.376C284.472 355.475 284.493 355.582 284.493 355.69C284.493 355.798 284.472 355.905 284.43 356.004C284.389 356.104 284.328 356.195 284.252 356.271C284.176 356.347 284.085 356.408 283.986 356.449C283.886 356.49 283.779 356.512 283.671 356.512V356.512Z" fill="black"/>
<path d="M47.4912 304.182H29.0183C28.9068 304.188 28.7953 304.172 28.6905 304.133C28.5857 304.095 28.4899 304.035 28.4089 303.958C28.3278 303.882 28.2633 303.789 28.2192 303.686C28.1751 303.584 28.1523 303.473 28.1523 303.362C28.1523 303.25 28.1751 303.14 28.2192 303.037C28.2633 302.935 28.3278 302.842 28.4089 302.765C28.4899 302.689 28.5857 302.629 28.6905 302.591C28.7953 302.552 28.9068 302.535 29.0183 302.541H47.4984C47.6099 302.535 47.7214 302.552 47.8262 302.591C47.9309 302.629 48.0268 302.689 48.1078 302.765C48.1888 302.842 48.2534 302.935 48.2975 303.037C48.3416 303.14 48.3643 303.25 48.3643 303.362C48.3643 303.473 48.3416 303.584 48.2975 303.686C48.2534 303.789 48.1888 303.882 48.1078 303.958C48.0268 304.035 47.9309 304.095 47.8262 304.133C47.7214 304.172 47.6099 304.188 47.4984 304.182H47.4912Z" fill="black"/>
<path d="M56.9822 304.182H51.2956C51.1842 304.188 51.0727 304.172 50.9679 304.133C50.8631 304.095 50.7673 304.035 50.6862 303.958C50.6052 303.882 50.5407 303.789 50.4965 303.686C50.4524 303.584 50.4297 303.473 50.4297 303.362C50.4297 303.25 50.4524 303.14 50.4965 303.037C50.5407 302.935 50.6052 302.842 50.6862 302.765C50.7673 302.689 50.8631 302.629 50.9679 302.591C51.0727 302.552 51.1842 302.535 51.2956 302.541H56.9774C57.0889 302.535 57.2004 302.552 57.3052 302.591C57.4099 302.629 57.5058 302.689 57.5868 302.765C57.6679 302.842 57.7324 302.935 57.7765 303.037C57.8206 303.14 57.8434 303.25 57.8434 303.362C57.8434 303.473 57.8206 303.584 57.7765 303.686C57.7324 303.789 57.6679 303.882 57.5868 303.958C57.5058 304.035 57.4099 304.095 57.3052 304.133C57.2004 304.172 57.0889 304.188 56.9774 304.182H56.9822Z" fill="black"/>
<path d="M499.734 304.182H88.3855C88.274 304.188 88.1625 304.172 88.0577 304.133C87.9529 304.095 87.8571 304.035 87.7761 303.958C87.695 303.882 87.6305 303.789 87.5864 303.686C87.5423 303.584 87.5195 303.473 87.5195 303.362C87.5195 303.25 87.5423 303.14 87.5864 303.037C87.6305 302.935 87.695 302.842 87.7761 302.765C87.8571 302.689 87.9529 302.629 88.0577 302.591C88.1625 302.552 88.274 302.535 88.3855 302.541H499.734C499.845 302.535 499.957 302.552 500.061 302.591C500.166 302.629 500.262 302.689 500.343 302.765C500.424 302.842 500.489 302.935 500.533 303.037C500.577 303.14 500.6 303.25 500.6 303.362C500.6 303.473 500.577 303.584 500.533 303.686C500.489 303.789 500.424 303.882 500.343 303.958C500.262 304.035 500.166 304.095 500.061 304.133C499.957 304.172 499.845 304.188 499.734 304.182V304.182Z" fill="black"/>
<path d="M509.725 367.164H41.4753C41.3639 367.17 41.2523 367.153 41.1476 367.114C41.0428 367.076 40.9469 367.016 40.8659 366.94C40.7849 366.863 40.7203 366.77 40.6762 366.668C40.6321 366.565 40.6094 366.455 40.6094 366.343C40.6094 366.232 40.6321 366.121 40.6762 366.019C40.7203 365.916 40.7849 365.824 40.8659 365.747C40.9469 365.67 41.0428 365.611 41.1476 365.572C41.2523 365.534 41.3639 365.517 41.4753 365.523H509.725C509.935 365.534 510.133 365.626 510.277 365.778C510.422 365.931 510.502 366.133 510.502 366.343C510.502 366.554 510.422 366.756 510.277 366.908C510.133 367.061 509.935 367.152 509.725 367.164V367.164Z" fill="black"/>
<path d="M208.166 156.139C204.942 156.139 201.758 155.197 200.048 153.758C199.962 153.69 199.89 153.605 199.836 153.508C199.783 153.412 199.75 153.306 199.739 153.196C199.727 153.087 199.738 152.976 199.771 152.871C199.803 152.766 199.856 152.668 199.927 152.584C199.998 152.499 200.085 152.43 200.183 152.38C200.281 152.33 200.388 152.3 200.498 152.292C200.608 152.285 200.718 152.299 200.822 152.335C200.927 152.37 201.022 152.427 201.104 152.5C203.433 154.46 209.45 155.293 213.148 153.458C213.341 153.381 213.556 153.379 213.75 153.454C213.944 153.528 214.102 153.674 214.194 153.86C214.285 154.047 214.302 154.261 214.241 154.46C214.18 154.659 214.047 154.827 213.867 154.932C212.185 155.775 210.168 156.139 208.166 156.139Z" fill="black"/>
<path d="M72.6121 292.22C66.1974 292.22 55.4375 291.856 55.4375 289.432C55.4375 287.008 66.1974 286.648 72.6121 286.648C79.0269 286.648 89.7868 287.01 89.7868 289.432C89.7868 291.854 79.0293 292.22 72.6121 292.22ZM57.8065 289.432C59.8449 289.99 65.1291 290.577 72.6121 290.577C80.0952 290.577 85.3793 289.99 87.4178 289.432C85.3793 288.876 80.0952 288.289 72.6121 288.289C65.1291 288.289 59.8473 288.883 57.8089 289.432H57.8065Z" fill="black"/>
<path d="M73.3451 322.132C73.0936 322.132 72.8421 322.132 72.5858 322.132C67.7951 321.96 61.857 320.796 58.5515 313.27C56.2567 308.036 55.4375 298.517 55.4375 291.951C55.4375 291.208 55.4543 290.473 55.483 289.745C55.4857 289.637 55.5101 289.53 55.5548 289.432C55.5995 289.333 55.6635 289.245 55.743 289.171C55.8226 289.098 55.916 289.042 56.0178 289.005C56.1197 288.969 56.2278 288.953 56.3358 288.959C56.5531 288.969 56.7579 289.063 56.9055 289.223C57.0531 289.383 57.1316 289.595 57.1238 289.812C57.0951 290.531 57.0807 291.23 57.0807 291.951C57.0807 298.354 57.8592 307.602 60.0533 312.604C62.9733 319.26 68.0562 320.326 72.6409 320.489C78.7969 320.705 82.8762 318.113 85.4704 312.319C87.219 308.414 88.1436 301.37 88.1436 291.958C88.1436 291.219 88.1284 290.487 88.0981 289.762C88.0896 289.544 88.1675 289.332 88.3147 289.172C88.4619 289.012 88.6664 288.916 88.8837 288.907C88.9921 288.899 89.1009 288.914 89.2035 288.95C89.306 288.986 89.4002 289.042 89.4802 289.116C89.5602 289.189 89.6244 289.278 89.6689 289.377C89.7134 289.476 89.7372 289.584 89.7389 289.692C89.7724 290.44 89.7868 291.194 89.7868 291.958C89.7868 301.746 88.8286 308.824 86.9699 312.999C84.2152 319.131 79.7527 322.132 73.3451 322.132Z" fill="black"/>
<path d="M59.1152 313.607C59.0341 313.608 58.9534 313.597 58.8757 313.574C51.0022 311.236 45.8977 304.031 46.5947 299.151C46.9253 296.837 47.9289 295.079 49.4979 294.099C51.2058 293.019 53.4814 292.878 56.0827 293.687C56.2794 293.76 56.4408 293.905 56.5339 294.093C56.627 294.281 56.6448 294.497 56.5836 294.698C56.5223 294.899 56.3867 295.068 56.2045 295.172C56.0224 295.276 55.8074 295.306 55.6036 295.256C53.4766 294.593 51.6729 294.672 50.3842 295.496C49.22 296.231 48.4942 297.544 48.2284 299.396C47.6367 303.525 52.3675 309.935 59.35 312.009C59.5381 312.067 59.6994 312.19 59.8044 312.357C59.9095 312.523 59.9513 312.722 59.9223 312.916C59.8933 313.111 59.7954 313.289 59.6464 313.417C59.4974 313.546 59.3072 313.617 59.1104 313.617L59.1152 313.607Z" fill="black"/>
<path d="M58.0238 309.9C57.9427 309.902 57.8619 309.89 57.7842 309.867C52.9384 308.43 48.8472 303.639 49.3646 300.017C49.6041 298.288 50.2844 297.102 51.3599 296.498C52.5959 295.806 54.2343 295.916 56.3901 296.841C56.5852 296.93 56.7376 297.092 56.8147 297.293C56.8918 297.493 56.8875 297.715 56.8027 297.912C56.7179 298.11 56.5594 298.266 56.361 298.347C56.1626 298.429 55.94 298.43 55.741 298.35C54.1457 297.662 52.9121 297.516 52.1719 297.931C51.5659 298.271 51.1731 299.052 51.0006 300.252C50.6365 302.791 53.9157 307.002 58.2609 308.293C58.4491 308.351 58.6104 308.474 58.7154 308.64C58.8204 308.807 58.8622 309.005 58.8332 309.2C58.8042 309.394 58.7063 309.572 58.5573 309.701C58.4083 309.829 58.2181 309.9 58.0214 309.9H58.0238Z" fill="black"/>
<path d="M90.0525 317.847C90.0019 317.847 89.9514 317.842 89.9016 317.832C88.2057 317.518 86.2655 317.255 84.136 317.047C83.9195 317.025 83.7202 316.919 83.5819 316.751C83.4436 316.583 83.3776 316.367 83.3983 316.151C83.4072 316.043 83.4377 315.938 83.4879 315.842C83.538 315.746 83.6069 315.661 83.6904 315.593C83.7739 315.524 83.8704 315.473 83.9741 315.442C84.0778 315.411 84.1866 315.401 84.2941 315.413C86.4691 315.624 88.4572 315.892 90.201 316.218C90.4017 316.256 90.581 316.367 90.704 316.53C90.827 316.693 90.8849 316.896 90.8663 317.1C90.8478 317.303 90.7541 317.492 90.6037 317.63C90.4532 317.768 90.2568 317.846 90.0525 317.847Z" fill="black"/>
<path d="M72.9687 325.477C64.3239 325.477 47.9805 324.37 47.9805 320.185C47.9805 317.96 52.3735 316.374 61.0375 315.471C61.1465 315.457 61.2573 315.464 61.3635 315.493C61.4696 315.522 61.5688 315.572 61.6552 315.64C61.7417 315.708 61.8136 315.792 61.8667 315.889C61.9198 315.985 61.9531 316.091 61.9645 316.201C61.9759 316.31 61.9652 316.42 61.933 316.526C61.9009 316.631 61.8479 316.728 61.7774 316.813C61.7068 316.897 61.62 316.967 61.5221 317.017C61.4242 317.067 61.3173 317.097 61.2076 317.105C51.6837 318.106 49.6165 319.814 49.6165 320.185C49.6165 321.424 57.8565 323.834 72.9639 323.834C77.4505 323.853 81.934 323.601 86.3899 323.077C86.4993 323.058 86.6114 323.061 86.7194 323.087C86.8274 323.113 86.9291 323.16 87.0183 323.227C87.1074 323.293 87.1823 323.376 87.2382 323.472C87.2942 323.568 87.3302 323.674 87.344 323.784C87.3577 323.895 87.349 324.006 87.3184 324.113C87.2877 324.22 87.2358 324.319 87.1656 324.405C87.0955 324.491 87.0086 324.562 86.9103 324.614C86.8119 324.666 86.7042 324.697 86.5935 324.705C82.0717 325.238 77.5217 325.495 72.9687 325.477V325.477Z" fill="black"/>
<path d="M72.8236 327.805C65.4436 327.805 52.5183 327.201 48.8941 323.158C48.5323 322.782 48.2572 322.331 48.0879 321.837C47.9187 321.344 47.8595 320.819 47.9144 320.3C47.926 320.193 47.9588 320.089 48.0108 319.995C48.0629 319.901 48.1333 319.818 48.2178 319.751C48.3023 319.684 48.3992 319.634 48.503 319.605C48.6068 319.576 48.7153 319.568 48.8222 319.582C49.0371 319.607 49.2332 319.717 49.3677 319.887C49.5023 320.056 49.5645 320.272 49.5409 320.487C49.5133 320.777 49.5501 321.069 49.6487 321.342C49.7473 321.616 49.9051 321.865 50.1109 322.07C52.4105 324.636 60.89 326.169 72.8165 326.169C76.9512 326.191 81.0816 325.898 85.1717 325.292C85.2803 325.27 85.3922 325.271 85.5006 325.293C85.6091 325.316 85.7119 325.36 85.8028 325.423C85.8938 325.486 85.971 325.567 86.0298 325.661C86.0886 325.755 86.1279 325.86 86.1452 325.969C86.1625 326.079 86.1575 326.191 86.1304 326.298C86.1034 326.405 86.055 326.506 85.988 326.594C85.921 326.683 85.8368 326.756 85.7406 326.811C85.6443 326.866 85.538 326.901 85.428 326.914C81.2554 327.532 77.0417 327.83 72.8236 327.805V327.805Z" fill="black"/>
<path d="M286.634 363.892C286.42 363.892 286.214 363.807 286.061 363.658C285.908 363.508 285.82 363.304 285.815 363.09C285.815 363.044 285.575 358.04 279.108 351.01C267.409 338.267 248.139 318.112 247.947 317.911C247.84 317.799 247.766 317.659 247.735 317.507C247.704 317.355 247.717 317.197 247.772 317.052C247.827 316.907 247.922 316.781 248.045 316.687C248.169 316.594 248.317 316.537 248.471 316.524L299.902 312.28C300.112 312.262 300.32 312.326 300.484 312.457C300.63 312.577 315.371 324.484 327.214 335.797C341.488 349.434 344.372 352.979 344.487 353.125C344.576 353.237 344.635 353.37 344.658 353.511C344.68 353.653 344.665 353.798 344.614 353.931C344.563 354.065 344.477 354.183 344.366 354.274C344.255 354.364 344.123 354.424 343.981 354.447L286.759 363.883C286.718 363.889 286.676 363.892 286.634 363.892V363.892ZM250.33 318.019C254.723 322.623 270.3 338.978 280.327 349.901C285.664 355.715 287.005 360.249 287.343 362.117L342.257 353.08C340.539 351.204 336.136 346.593 326.088 336.992C315.151 326.544 301.725 315.58 299.718 313.952L250.33 318.019Z" fill="black"/>
<path d="M248.448 361.052C248.253 361.052 248.064 360.982 247.916 360.855C247.768 360.728 247.669 360.553 247.638 360.36C247.638 360.343 247.21 358.029 244.146 353.155C240.457 347.282 235.59 339.652 230.653 332.742C222.03 320.655 215.191 310.403 215.122 310.302C215.042 310.182 214.995 310.044 214.986 309.9C214.977 309.757 215.005 309.613 215.069 309.484C215.132 309.355 215.229 309.245 215.348 309.165C215.467 309.085 215.606 309.038 215.749 309.028L270.984 305.243C271.107 305.234 271.23 305.253 271.344 305.299C271.459 305.345 271.562 305.416 271.645 305.507L279.628 314.233L278.452 315.378L270.708 306.908L217.292 310.568C219.328 313.598 225.089 322.102 232.004 331.788C236.965 338.735 241.849 346.4 245.552 352.281C247.816 355.874 248.721 358.19 249.069 359.306L282.91 354.12C283.121 354.094 283.334 354.151 283.504 354.279C283.674 354.407 283.788 354.596 283.822 354.806C283.855 355.016 283.806 355.231 283.684 355.406C283.562 355.58 283.378 355.701 283.169 355.742L283.032 355.763L248.589 361.033C248.543 361.043 248.496 361.049 248.448 361.052Z" fill="black"/>
<path d="M216.269 339.646H86.9851C86.8657 339.646 86.7478 339.62 86.6395 339.57C86.5312 339.52 86.4352 339.446 86.3581 339.355C86.281 339.264 86.2248 339.157 86.1932 339.042C86.1617 338.927 86.1556 338.806 86.1755 338.688L90.147 314.495C90.1783 314.303 90.2769 314.129 90.4253 314.003C90.5736 313.877 90.762 313.808 90.9566 313.808V313.808L208.664 313.944C208.838 313.945 209.008 314 209.149 314.104C209.289 314.207 209.393 314.353 209.445 314.519L217.053 338.578C217.092 338.701 217.101 338.831 217.081 338.959C217.06 339.086 217.01 339.207 216.933 339.311C216.857 339.415 216.758 339.499 216.643 339.558C216.528 339.616 216.401 339.647 216.272 339.646H216.269ZM87.9433 338.006H215.136L208.046 315.578L91.6321 315.444L87.9433 338.006Z" fill="black"/>
<path d="M87.5318 334.754L82.0225 334.68C81.8855 334.678 81.751 334.643 81.6314 334.576C81.5117 334.509 81.4107 334.414 81.3375 334.298C81.2644 334.182 81.2214 334.05 81.2126 333.913C81.2038 333.776 81.2294 333.64 81.2871 333.515L90.0493 314.513C90.1475 314.327 90.3132 314.186 90.5124 314.119C90.7116 314.051 90.9291 314.063 91.1201 314.151C91.311 314.239 91.4609 314.397 91.5389 314.592C91.6169 314.787 91.617 315.005 91.5392 315.201L83.2992 333.046L87.5438 333.101C87.7617 333.103 87.97 333.191 88.123 333.346C88.2759 333.501 88.361 333.711 88.3594 333.929C88.3578 334.147 88.2697 334.355 88.1145 334.508C87.9593 334.661 87.7497 334.746 87.5318 334.744V334.754Z" fill="black"/>
<path fill-rule="evenodd" clip-rule="evenodd" d="M102.536 331.543V321.497C102.504 321.075 102.632 320.656 102.893 320.323C103.009 320.195 103.152 320.094 103.311 320.027C103.471 319.959 103.642 319.927 103.815 319.933C103.991 319.926 104.166 319.957 104.329 320.024C104.491 320.09 104.638 320.191 104.759 320.318C105.025 320.651 105.154 321.072 105.121 321.497V331.543C105.154 331.969 105.024 332.391 104.759 332.726C104.64 332.856 104.493 332.959 104.33 333.027C104.167 333.095 103.992 333.126 103.815 333.119C103.643 333.123 103.472 333.09 103.313 333.022C103.155 332.953 103.013 332.852 102.898 332.724C102.633 332.39 102.504 331.968 102.536 331.543Z" fill="black"/>
<path fill-rule="evenodd" clip-rule="evenodd" d="M111.371 321.48L116.336 328.997V321.411C116.308 321.015 116.421 320.622 116.655 320.302C116.761 320.18 116.893 320.083 117.042 320.019C117.19 319.955 117.351 319.926 117.513 319.933C117.677 319.925 117.842 319.954 117.994 320.018C118.146 320.082 118.282 320.179 118.392 320.302C118.628 320.621 118.742 321.015 118.713 321.411V331.44C118.713 332.558 118.249 333.117 117.321 333.117C117.108 333.12 116.895 333.086 116.693 333.016C116.501 332.945 116.324 332.838 116.171 332.7C116.004 332.547 115.853 332.375 115.721 332.19C115.582 331.996 115.443 331.797 115.304 331.596L110.458 324.17V331.644C110.486 332.041 110.365 332.435 110.118 332.748C110.009 332.87 109.875 332.966 109.725 333.031C109.574 333.095 109.412 333.126 109.249 333.122C109.083 333.128 108.918 333.098 108.766 333.032C108.614 332.967 108.479 332.868 108.37 332.743C108.129 332.429 108.012 332.038 108.039 331.644V321.804C108.026 321.471 108.073 321.138 108.178 320.822C108.291 320.557 108.482 320.334 108.726 320.182C108.972 320.023 109.26 319.939 109.553 319.943C109.744 319.935 109.935 319.968 110.113 320.04C110.29 320.112 110.451 320.221 110.583 320.359C110.727 320.511 110.856 320.677 110.966 320.855C111.098 321.047 111.232 321.26 111.371 321.48Z" fill="black"/>
<path fill-rule="evenodd" clip-rule="evenodd" d="M129.823 322.28H127.004V331.542C127.041 331.972 126.913 332.4 126.647 332.74C126.526 332.864 126.382 332.962 126.222 333.029C126.063 333.096 125.892 333.131 125.719 333.131C125.546 333.131 125.375 333.096 125.215 333.029C125.056 332.962 124.912 332.864 124.791 332.74C124.524 332.406 124.394 331.983 124.429 331.557V322.294H121.61C121.257 322.323 120.907 322.219 120.628 322.002C120.524 321.901 120.442 321.78 120.386 321.647C120.33 321.513 120.301 321.37 120.301 321.226C120.301 321.081 120.33 320.938 120.386 320.805C120.442 320.671 120.524 320.551 120.628 320.449C120.902 320.242 121.242 320.14 121.586 320.162H129.799C130.157 320.133 130.512 320.239 130.796 320.459C130.903 320.557 130.987 320.677 131.044 320.81C131.1 320.944 131.126 321.088 131.122 321.233C131.127 321.377 131.1 321.521 131.043 321.654C130.985 321.787 130.899 321.906 130.791 322.002C130.512 322.206 130.169 322.305 129.823 322.28Z" fill="black"/>
<path fill-rule="evenodd" clip-rule="evenodd" d="M141.08 322.141H135.259V325.271H140.618C140.935 325.247 141.251 325.341 141.502 325.537C141.598 325.626 141.674 325.734 141.724 325.855C141.774 325.976 141.797 326.106 141.792 326.237C141.798 326.37 141.775 326.503 141.726 326.627C141.677 326.751 141.602 326.863 141.506 326.955C141.256 327.157 140.938 327.255 140.618 327.228H135.259V330.855H141.279C141.61 330.83 141.939 330.931 142.199 331.138C142.302 331.233 142.383 331.35 142.436 331.48C142.489 331.61 142.512 331.75 142.505 331.89C142.51 332.027 142.485 332.164 142.432 332.291C142.379 332.418 142.3 332.532 142.199 332.625C141.939 332.832 141.61 332.933 141.279 332.908H134.258C133.698 332.908 133.294 332.783 133.046 332.534C132.799 332.285 132.676 331.886 132.677 331.336V321.755C132.666 321.443 132.722 321.133 132.843 320.845C132.947 320.617 133.131 320.435 133.36 320.332C133.645 320.217 133.951 320.162 134.258 320.172H141.08C141.41 320.146 141.737 320.245 141.998 320.447C142.097 320.538 142.175 320.649 142.227 320.773C142.279 320.897 142.303 321.031 142.297 321.166C142.302 321.3 142.278 321.434 142.226 321.558C142.174 321.682 142.096 321.793 141.998 321.884C141.734 322.081 141.407 322.173 141.08 322.141Z" fill="black"/>
<path fill-rule="evenodd" clip-rule="evenodd" d="M148.032 327.45H147.126V331.543C147.126 332.085 147.007 332.484 146.769 332.741C146.651 332.868 146.506 332.968 146.345 333.034C146.184 333.1 146.011 333.131 145.838 333.124C145.658 333.135 145.478 333.104 145.312 333.035C145.146 332.966 144.998 332.859 144.879 332.724C144.631 332.384 144.511 331.968 144.539 331.548V321.727C144.539 321.171 144.664 320.769 144.913 320.517C145.162 320.266 145.567 320.144 146.111 320.144H150.312C150.809 320.139 151.306 320.164 151.8 320.218C152.184 320.26 152.56 320.361 152.913 320.517C153.312 320.684 153.672 320.928 153.975 321.236C154.281 321.548 154.52 321.92 154.676 322.328C154.837 322.749 154.918 323.196 154.916 323.646C154.957 324.481 154.668 325.299 154.111 325.924C153.575 326.494 152.761 326.893 151.67 327.121C152.17 327.399 152.614 327.765 152.983 328.202C153.399 328.673 153.774 329.181 154.102 329.718C154.392 330.183 154.648 330.669 154.866 331.172C155.006 331.452 155.099 331.753 155.141 332.063C155.137 332.242 155.081 332.416 154.978 332.564C154.87 332.73 154.718 332.865 154.54 332.954C154.34 333.053 154.119 333.102 153.896 333.098C153.641 333.104 153.39 333.032 153.177 332.892C152.977 332.753 152.804 332.577 152.669 332.374C152.529 332.165 152.335 331.859 152.089 331.455L151.055 329.73C150.767 329.222 150.433 328.74 150.058 328.293C149.817 328.002 149.512 327.77 149.167 327.615C148.802 327.49 148.417 327.434 148.032 327.45ZM149.51 322.089H147.126V325.596H149.44C149.967 325.605 150.493 325.551 151.007 325.433C151.379 325.355 151.718 325.163 151.977 324.884C152.215 324.582 152.333 324.204 152.31 323.821C152.318 323.491 152.224 323.166 152.042 322.891C151.86 322.616 151.598 322.403 151.292 322.28C150.99 322.154 150.394 322.09 149.505 322.089H149.51Z" fill="black"/>
<path fill-rule="evenodd" clip-rule="evenodd" d="M158.816 321.63L161.69 330.181L164.586 321.558C164.739 321.103 164.852 320.789 164.926 320.6C165.011 320.412 165.139 320.248 165.3 320.12C165.507 319.968 165.762 319.894 166.018 319.91C166.234 319.908 166.446 319.964 166.632 320.073C166.816 320.178 166.969 320.33 167.075 320.513C167.178 320.68 167.235 320.871 167.238 321.067C167.235 321.205 167.218 321.344 167.185 321.479C167.15 321.626 167.106 321.77 167.053 321.912C167.001 322.056 166.95 322.202 166.898 322.353L163.81 330.686C163.7 331.005 163.59 331.309 163.479 331.597C163.38 331.862 163.252 332.115 163.096 332.351C162.947 332.573 162.749 332.756 162.516 332.888C162.246 333.034 161.942 333.106 161.635 333.096C161.327 333.105 161.023 333.034 160.751 332.89C160.517 332.76 160.317 332.575 160.169 332.351C160.013 332.113 159.883 331.858 159.781 331.592C159.671 331.307 159.561 331.005 159.453 330.686L156.415 322.422C156.363 322.271 156.31 322.123 156.255 321.979C156.197 321.823 156.15 321.663 156.116 321.5C156.082 321.361 156.062 321.218 156.059 321.074C156.061 320.922 156.094 320.772 156.155 320.633C156.216 320.494 156.305 320.368 156.415 320.264C156.531 320.145 156.671 320.05 156.825 319.988C156.979 319.925 157.145 319.895 157.311 319.9C157.488 319.882 157.667 319.91 157.831 319.98C157.994 320.051 158.137 320.162 158.246 320.303C158.495 320.717 158.687 321.163 158.816 321.63V321.63Z" fill="black"/>
<path fill-rule="evenodd" clip-rule="evenodd" d="M169.29 331.543V321.497C169.258 321.075 169.385 320.656 169.647 320.323C169.763 320.195 169.906 320.094 170.065 320.027C170.224 319.959 170.396 319.927 170.569 319.933C170.745 319.926 170.92 319.957 171.083 320.024C171.245 320.09 171.392 320.191 171.513 320.318C171.779 320.651 171.908 321.072 171.875 321.497V331.543C171.909 331.969 171.78 332.392 171.513 332.726C171.394 332.856 171.247 332.959 171.084 333.027C170.921 333.095 170.746 333.126 170.569 333.119C170.397 333.123 170.226 333.09 170.067 333.022C169.909 332.953 169.767 332.852 169.652 332.724C169.387 332.39 169.258 331.968 169.29 331.543V331.543Z" fill="black"/>
<path fill-rule="evenodd" clip-rule="evenodd" d="M183.162 322.142H177.344V325.272H182.702C183.02 325.248 183.335 325.343 183.586 325.538C183.682 325.627 183.758 325.735 183.808 325.856C183.858 325.977 183.881 326.107 183.876 326.238C183.881 326.371 183.858 326.503 183.809 326.627C183.76 326.751 183.686 326.863 183.591 326.956C183.341 327.158 183.023 327.256 182.702 327.229H177.344V330.856H183.363C183.694 330.831 184.022 330.932 184.281 331.139C184.384 331.234 184.465 331.351 184.518 331.481C184.571 331.611 184.596 331.75 184.59 331.891C184.594 332.028 184.569 332.165 184.515 332.292C184.462 332.419 184.382 332.533 184.281 332.626C184.022 332.833 183.694 332.934 183.363 332.909H176.343C175.78 332.909 175.384 332.784 175.131 332.535C174.877 332.286 174.759 331.884 174.759 331.337V321.756C174.748 321.444 174.804 321.134 174.925 320.846C175.03 320.618 175.215 320.436 175.444 320.333C175.729 320.217 176.035 320.163 176.343 320.173H183.162C183.492 320.147 183.82 320.246 184.082 320.448C184.181 320.539 184.259 320.65 184.311 320.774C184.362 320.899 184.387 321.032 184.381 321.167C184.386 321.301 184.362 321.435 184.31 321.559C184.258 321.683 184.18 321.794 184.082 321.885C183.818 322.082 183.49 322.174 183.162 322.142V322.142Z" fill="black"/>
<path fill-rule="evenodd" clip-rule="evenodd" d="M195.674 330.891L193.612 323.245L191.526 330.891C191.366 331.471 191.237 331.887 191.138 332.141C191.031 332.406 190.859 332.639 190.637 332.819C190.364 333.031 190.024 333.137 189.679 333.119C189.406 333.129 189.135 333.068 188.893 332.941C188.685 332.82 188.512 332.645 188.393 332.436C188.255 332.193 188.15 331.933 188.079 331.662C187.997 331.363 187.926 331.085 187.861 330.831L185.739 322.244C185.631 321.873 185.567 321.491 185.547 321.106C185.545 320.947 185.577 320.79 185.64 320.645C185.703 320.5 185.796 320.369 185.913 320.263C186.028 320.152 186.163 320.065 186.311 320.007C186.459 319.949 186.617 319.921 186.776 319.925C187.255 319.925 187.561 320.073 187.734 320.375C187.935 320.792 188.078 321.235 188.16 321.69L189.837 329.135L191.708 322.167C191.809 321.755 191.934 321.348 192.081 320.95C192.195 320.668 192.381 320.42 192.62 320.232C192.914 320.014 193.274 319.907 193.638 319.927C194.004 319.903 194.365 320.016 194.652 320.244C194.874 320.429 195.046 320.667 195.152 320.936C195.246 321.175 195.37 321.594 195.526 322.169L197.414 329.137L199.09 321.693C199.152 321.383 199.232 321.078 199.33 320.778C199.404 320.554 199.532 320.351 199.703 320.188C199.808 320.096 199.93 320.025 200.062 319.98C200.194 319.936 200.333 319.918 200.472 319.927C200.63 319.924 200.787 319.951 200.934 320.008C201.082 320.065 201.216 320.151 201.33 320.26C201.445 320.368 201.535 320.498 201.596 320.643C201.657 320.788 201.686 320.944 201.682 321.101C201.66 321.486 201.595 321.868 201.49 322.239L199.327 330.831C199.184 331.411 199.062 331.837 198.966 332.105C198.87 332.382 198.705 332.63 198.487 332.824C198.212 333.042 197.866 333.151 197.517 333.128C197.172 333.147 196.832 333.042 196.558 332.831C196.338 332.657 196.167 332.428 196.063 332.168C195.974 331.909 195.842 331.49 195.674 330.891Z" fill="black"/>
<path fill-rule="evenodd" clip-rule="evenodd" d="M90.6908 315.765L87.5169 333.678L81.8711 333.766L90.6908 315.765Z" fill="black"/>
<path d="M229.848 88.7143C229.701 88.7145 229.557 88.6754 229.431 88.6011C229.305 88.5267 229.201 88.4199 229.13 88.2917C229.059 88.1636 229.024 88.0187 229.028 87.8723C229.032 87.7258 229.075 87.5831 229.153 87.4591L235.62 77.0968C235.676 77.0015 235.75 76.9183 235.838 76.8521C235.926 76.7859 236.027 76.7382 236.134 76.7117C236.241 76.6852 236.352 76.6805 236.461 76.6979C236.57 76.7153 236.674 76.7545 236.767 76.813C236.861 76.8715 236.941 76.9482 237.004 77.0386C237.068 77.1289 237.112 77.2311 237.135 77.3389C237.158 77.4468 237.159 77.5581 237.137 77.6663C237.116 77.7745 237.074 77.8774 237.012 77.9687L230.545 88.3286C230.471 88.4469 230.368 88.5444 230.246 88.6119C230.124 88.6794 229.987 88.7146 229.848 88.7143V88.7143Z" fill="black"/>
<path d="M237.054 94.6647C236.89 94.6642 236.73 94.6149 236.595 94.5231C236.459 94.4313 236.355 94.3012 236.294 94.1493C236.233 93.9975 236.218 93.831 236.253 93.671C236.287 93.511 236.368 93.365 236.486 93.2514L246.276 83.8425C246.353 83.7677 246.445 83.7088 246.545 83.6694C246.646 83.63 246.753 83.6107 246.861 83.6127C246.969 83.6147 247.075 83.6379 247.174 83.6811C247.273 83.7242 247.363 83.7864 247.437 83.8641C247.512 83.9418 247.571 84.0335 247.611 84.1339C247.65 84.2343 247.669 84.3415 247.667 84.4494C247.665 84.5573 247.642 84.6637 247.599 84.7626C247.556 84.8615 247.494 84.951 247.416 85.0258L237.631 94.4443C237.475 94.5905 237.267 94.6697 237.054 94.6647V94.6647Z" fill="black"/>
<path d="M242.755 101.661C242.577 101.661 242.405 101.603 242.263 101.497C242.121 101.391 242.017 101.242 241.967 101.072C241.917 100.902 241.923 100.72 241.985 100.554C242.046 100.388 242.16 100.246 242.309 100.15L252.027 93.8881C252.117 93.8232 252.22 93.7773 252.329 93.7534C252.438 93.7294 252.55 93.7277 252.659 93.7486C252.769 93.7694 252.873 93.8122 252.965 93.8745C253.058 93.9368 253.136 94.0172 253.197 94.1108C253.257 94.2044 253.297 94.3093 253.316 94.4191C253.334 94.5289 253.33 94.6413 253.304 94.7496C253.278 94.8578 253.23 94.9595 253.163 95.0486C253.096 95.1377 253.012 95.2123 252.916 95.2678L243.188 101.532C243.058 101.614 242.908 101.659 242.755 101.661V101.661Z" fill="black"/>
<path d="M246.348 109.877C246.154 109.877 245.966 109.808 245.818 109.682C245.67 109.557 245.571 109.383 245.539 109.192C245.507 109 245.543 108.804 245.642 108.637C245.741 108.47 245.896 108.343 246.079 108.279L257.007 104.483C257.212 104.414 257.436 104.429 257.63 104.525C257.824 104.62 257.972 104.788 258.043 104.993C258.114 105.197 258.102 105.421 258.009 105.616C257.915 105.811 257.749 105.962 257.546 106.035L246.618 109.832C246.531 109.862 246.44 109.877 246.348 109.877V109.877Z" fill="black"/>
<path fill-rule="evenodd" clip-rule="evenodd" d="M508.016 224.797C508.016 224.797 485.648 199.631 485.837 192.22C485.99 186.196 486.539 178.49 490.271 178.521C493.356 178.548 501.119 186.256 501.119 186.256C501.119 186.256 505.321 189.751 509.577 192.268C513.834 194.786 519.509 198.994 521.341 201.315C522.862 203.232 527.83 212.813 532.417 221.197C535.548 226.946 539.215 233.483 540.219 237.595C541.783 244.02 540.904 255.29 540.408 268.052C540.082 276.395 539.51 284.281 540.022 290.429C540.394 294.885 547.376 305.02 547.376 305.02L517.195 322.836L508.016 224.797Z" fill="#FFDDC0"/>
<path fill-rule="evenodd" clip-rule="evenodd" d="M564.062 315.102L602.345 359.923C602.345 359.923 593.161 377.457 572.614 389.561C555.326 399.746 533.078 402.357 533.078 402.357C533.078 402.357 522.623 387.326 516.072 376.348C509.52 365.37 506.84 358.448 506.84 358.448C506.84 358.448 507.628 354.907 510.972 350.378C514.97 344.972 522.172 338.015 529.957 332.118C538.394 325.732 549.221 319.183 556.292 316.354C561.207 314.378 564.062 315.102 564.062 315.102Z" fill="#0070C0"/>
<path fill-rule="evenodd" clip-rule="evenodd" d="M317.84 110.996C317.84 110.996 359.279 110.258 400.479 110.538C441.679 110.818 483.042 111.925 483.042 111.925C483.042 111.925 493.129 145.762 501.51 185.987C501.51 185.987 499.697 184.698 497.33 183.141C494.914 181.551 491.919 179.699 489.684 180.13C487.205 180.609 486.106 186.507 486.69 189.918C487.203 192.919 489.687 197.803 492.545 201.533C495.74 205.701 499.458 208.762 502.605 212.97C505.551 216.918 508.004 223.989 508.004 223.989C510.929 242.014 512.682 257.888 514.057 272.799C516.709 301.524 517.277 322.924 517.277 322.924C517.277 322.924 528.199 314.37 536.94 309.793C549.456 303.239 552.483 305.105 552.483 305.105L560.292 314.993C553.165 317.681 546.34 321.113 539.932 325.231C529.392 332.022 518.146 342.154 518.146 342.154L518.057 348.008H512.529L509.046 353.163L505.968 348.003L346.594 347.867C346.594 347.867 346.989 280.541 339.913 221.275C332.837 162.009 317.84 110.996 317.84 110.996Z" fill="white"/>
<path fill-rule="evenodd" clip-rule="evenodd" d="M334.453 118.752L375.979 118.094C375.979 118.094 380.429 130.669 383.625 144.028C386.82 157.387 388.971 171.062 388.971 171.062L386.274 171.263C386.274 171.263 384.633 160.369 382.774 155.214C382.125 153.413 377.38 151.513 377.38 151.513L368.534 145.829L360.97 145.305L350.67 154.057C349.072 154.984 347.728 156.291 346.756 157.861C345.203 160.424 344.708 164.609 344.708 164.609C344.708 164.609 342.808 154.632 340.3 143.245C337.792 131.857 334.453 118.752 334.453 118.752Z" fill="#D7E0EB"/>
<path fill-rule="evenodd" clip-rule="evenodd" d="M353.676 128.633C355.511 125.907 358.165 123.483 361.006 122.968C365.773 122.108 370.079 126.561 370.079 126.561C370.079 126.561 374.219 131.517 374.973 135.156C375.522 137.817 374.839 139.863 375.213 142.795C375.488 145.008 376.837 146.668 377.287 148.369C377.661 149.77 377.174 151.432 377.174 151.432L368.578 147.391L368.3 145.128C368.3 145.128 354.589 137.93 354.831 139.161C355.283 141.46 357.542 141.556 357.542 141.556L359.296 144.67L359.219 147.384L357.698 150.038L351.082 153.732C350.779 152.78 350.692 151.773 350.828 150.783C351.123 148.694 352.141 145.942 352.112 143.276C352.043 137.642 351.015 132.581 353.676 128.633Z" fill="#4B4B4B"/>
<path fill-rule="evenodd" clip-rule="evenodd" d="M358.918 130.085C359.96 129.002 362.566 127.8 364.24 129.194C365.163 129.965 366.413 131.711 367.548 132.803C368.311 133.558 369.168 134.211 370.099 134.744L370.203 140.531L368.315 145.195L369.247 150.05L367.496 156.616L365.579 153.176L361.356 151.02L359.217 148.321L359.076 144.349C359.076 144.349 357.502 142.325 357.313 141.206C357.196 140.526 355.43 141.012 354.736 138.631C354.221 136.856 356.003 137.57 357.157 135.898C358.087 134.571 358.298 130.731 358.918 130.085Z" fill="#FFDDC0"/>
<path d="M547.609 305.585C547.48 305.585 547.352 305.555 547.237 305.497C547.122 305.439 547.022 305.354 546.946 305.25C543.499 300.536 540.339 295.951 539.52 291.699C538.904 288.439 539.156 281.023 539.304 276.594C539.338 275.59 539.367 274.786 539.374 274.285C539.443 269.552 539.664 265.183 539.875 260.972C540.495 248.695 540.984 238.997 536.971 231.686C532.499 223.53 527.986 214.842 525.562 210.173C524.997 209.088 524.542 208.212 524.223 207.603C520.151 199.828 516.151 197.416 510.11 193.765C506.383 191.514 503.084 188.975 500.174 186.74C494.27 182.189 490.832 179.729 488.858 181.789C485.452 185.343 487.9 192.604 489.666 195.945C491.848 200.07 495.558 204.061 498.835 207.582C501.47 210.411 503.741 212.851 504.529 214.705C505.025 215.862 505.894 217.58 506.816 219.388C508.275 222.263 509.93 225.508 510.944 228.17C511.942 230.785 511.099 237.892 511.001 238.692C510.974 238.909 510.863 239.105 510.691 239.24C510.52 239.375 510.302 239.436 510.086 239.411C509.979 239.399 509.875 239.365 509.78 239.312C509.686 239.259 509.603 239.188 509.536 239.103C509.469 239.018 509.42 238.921 509.391 238.817C509.362 238.712 509.354 238.603 509.367 238.496C509.621 236.429 510.127 230.654 509.403 228.759C508.421 226.179 506.79 222.969 505.35 220.136C504.373 218.219 503.53 216.559 503.015 215.345C502.337 213.757 500.155 211.409 497.628 208.696C494.274 205.102 490.492 201.03 488.209 196.719C486.104 192.74 483.622 184.879 487.67 180.656C490.758 177.436 495.352 180.969 501.171 185.446C504.045 187.657 507.305 190.163 510.953 192.366C517.006 196.024 521.382 198.666 525.673 206.846C525.994 207.457 526.449 208.336 527.014 209.424C529.436 214.085 533.941 222.763 538.406 230.903C542.644 238.623 542.143 248.525 541.52 261.06C541.309 265.266 541.089 269.614 541.02 274.316C541.02 274.824 540.984 275.641 540.95 276.656C540.814 280.728 540.557 288.319 541.139 291.4C541.882 295.314 545.068 299.913 548.265 304.287C548.394 304.463 548.447 304.682 548.413 304.898C548.379 305.113 548.262 305.306 548.086 305.434C547.947 305.534 547.78 305.587 547.609 305.585Z" fill="black"/>
<path d="M517.46 323.801C517.294 323.799 517.133 323.747 516.997 323.651C516.861 323.556 516.758 323.421 516.7 323.266C516.642 323.11 516.633 322.941 516.673 322.78C516.713 322.619 516.802 322.474 516.926 322.364C528.924 312.088 544.863 303.498 551.038 304.006C552.19 304.099 553.06 304.485 553.623 305.151C556.413 308.452 559.132 311.973 560.917 314.347C561.047 314.52 561.104 314.739 561.074 314.954C561.043 315.17 560.929 315.364 560.755 315.495C560.581 315.626 560.362 315.682 560.147 315.652C559.932 315.622 559.737 315.507 559.606 315.333C557.831 312.979 555.134 309.482 552.368 306.21C552.099 305.889 551.606 305.699 550.906 305.642C545.234 305.184 529.514 313.748 517.994 323.607C517.845 323.733 517.656 323.802 517.46 323.801V323.801Z" fill="black"/>
<path d="M508.722 353.608C508.58 353.608 508.441 353.571 508.318 353.502C508.194 353.432 508.091 353.332 508.018 353.21C508.003 353.188 506.703 351.025 505.436 348.52C505.338 348.325 505.321 348.099 505.389 347.892C505.457 347.685 505.605 347.514 505.8 347.416C505.994 347.317 506.22 347.301 506.427 347.369C506.634 347.437 506.806 347.585 506.904 347.78C508.14 350.228 509.412 352.331 509.424 352.362C509.537 352.548 509.571 352.772 509.519 352.984C509.467 353.195 509.333 353.377 509.146 353.49C509.018 353.567 508.871 353.607 508.722 353.608Z" fill="black"/>
<path d="M602.156 361.375C602.035 361.375 601.916 361.349 601.807 361.298C601.698 361.247 601.601 361.173 601.524 361.08C601.198 360.687 568.829 321.756 564.008 316.048C563.727 315.717 563.143 315.621 562.705 315.602C555.931 315.245 533.366 328.501 518.63 342.969C518.473 343.11 518.267 343.184 518.056 343.177C517.845 343.17 517.645 343.082 517.497 342.931C517.349 342.781 517.265 342.579 517.262 342.368C517.259 342.157 517.337 341.953 517.48 341.798C531.452 328.08 554.333 313.954 562.477 313.954C562.579 313.954 562.68 313.954 562.779 313.954C563.895 314.007 564.729 314.352 565.263 314.979C570.087 320.69 602.46 359.629 602.786 360.012C602.886 360.132 602.951 360.277 602.971 360.432C602.991 360.587 602.967 360.745 602.901 360.886C602.834 361.028 602.729 361.147 602.597 361.231C602.465 361.315 602.312 361.359 602.156 361.358V361.375Z" fill="black"/>
<path d="M533.047 403.821C532.912 403.821 532.779 403.788 532.66 403.725C532.541 403.662 532.44 403.571 532.364 403.459C527.813 396.663 505.127 362.537 506.243 357.897C506.962 354.97 508.897 351.545 512.023 347.714C512.091 347.631 512.175 347.561 512.27 347.51C512.365 347.459 512.47 347.427 512.577 347.416C512.684 347.405 512.793 347.416 512.896 347.447C513 347.478 513.096 347.529 513.18 347.597C513.264 347.665 513.333 347.749 513.384 347.845C513.435 347.94 513.467 348.044 513.478 348.151C513.489 348.259 513.479 348.367 513.448 348.471C513.417 348.574 513.365 348.67 513.297 348.754C510.325 352.39 508.49 355.595 507.841 358.28C507.191 360.966 520.689 383.108 533.727 402.542C533.811 402.665 533.859 402.809 533.867 402.958C533.875 403.106 533.842 403.255 533.772 403.386C533.702 403.518 533.598 403.628 533.47 403.704C533.342 403.781 533.196 403.821 533.047 403.821V403.821Z" fill="black"/>
<path d="M518.073 348.804H346.535C346.423 348.804 346.313 348.782 346.211 348.738C346.109 348.694 346.017 348.63 345.94 348.55C345.864 348.469 345.804 348.374 345.766 348.27C345.727 348.166 345.71 348.055 345.715 347.944C345.744 347.348 348.35 287.313 336.395 202.278C328.196 143.964 317.283 111.667 317.177 111.348C317.135 111.226 317.123 111.096 317.141 110.968C317.159 110.841 317.206 110.719 317.28 110.613C317.354 110.507 317.451 110.42 317.565 110.359C317.679 110.298 317.805 110.264 317.934 110.261C318.332 110.261 358.08 109.344 399.053 109.93C440.025 110.517 482.722 111.356 483.148 111.368C483.322 111.371 483.491 111.43 483.629 111.536C483.768 111.641 483.87 111.788 483.92 111.955C484.018 112.29 493.98 145.913 502.189 186.474C502.214 186.581 502.218 186.692 502.2 186.801C502.181 186.909 502.141 187.013 502.082 187.106C502.022 187.199 501.945 187.279 501.854 187.341C501.763 187.403 501.661 187.447 501.553 187.469C501.445 187.49 501.333 187.49 501.225 187.468C501.117 187.446 501.015 187.403 500.924 187.34C500.833 187.278 500.756 187.198 500.697 187.105C500.638 187.012 500.598 186.908 500.579 186.8C492.962 149.214 483.86 117.608 482.514 112.999C477.17 112.896 437.333 112.129 399.029 111.578C361.901 111.044 325.784 111.741 319.079 111.885C321.01 117.914 330.617 149.449 338.017 202.051C349.224 281.72 347.658 339.51 347.385 347.161H517.234C517.107 339.661 515.905 282.898 507.952 228.677C507.835 227.882 507.67 226.864 507.507 225.872C507.377 225.087 507.253 224.318 507.155 223.688C507.134 223.579 507.135 223.467 507.158 223.358C507.182 223.25 507.227 223.147 507.291 223.057C507.355 222.967 507.437 222.89 507.532 222.832C507.626 222.774 507.732 222.736 507.841 222.72C507.951 222.703 508.063 222.71 508.17 222.738C508.278 222.766 508.378 222.816 508.466 222.884C508.553 222.952 508.626 223.037 508.68 223.134C508.734 223.231 508.767 223.338 508.779 223.448C508.874 224.074 508.999 224.838 509.126 225.616C509.291 226.617 509.459 227.645 509.576 228.45C518.087 286.465 518.882 347.374 518.889 347.978C518.891 348.086 518.87 348.194 518.83 348.295C518.789 348.396 518.729 348.488 518.652 348.565C518.576 348.642 518.485 348.704 518.384 348.745C518.284 348.787 518.176 348.809 518.068 348.809L518.073 348.804Z" fill="black"/>
<path d="M345.921 172.83C345.727 172.83 345.538 172.761 345.39 172.635C345.242 172.509 345.143 172.334 345.112 172.142C345.09 172.01 342.882 158.829 339.926 145.611C336.97 132.394 333.185 118.783 333.147 118.656C333.113 118.534 333.108 118.406 333.132 118.281C333.155 118.157 333.207 118.039 333.284 117.938C333.361 117.836 333.461 117.753 333.576 117.697C333.69 117.641 333.817 117.613 333.945 117.614L375.959 117.344C376.123 117.344 376.282 117.392 376.418 117.483C376.554 117.574 376.66 117.703 376.723 117.854C376.759 117.938 380.144 126.319 383.797 141.328C387.907 158.22 389.658 171.045 389.675 171.174C389.69 171.289 389.681 171.406 389.648 171.517C389.615 171.628 389.559 171.731 389.483 171.818C389.408 171.906 389.314 171.977 389.209 172.026C389.105 172.075 388.991 172.102 388.875 172.104L345.948 172.822L345.921 172.83ZM335.013 119.25C335.954 122.683 339.032 134.102 341.526 145.254C344.106 156.778 346.115 168.271 346.614 171.174L387.905 170.48C387.426 167.27 385.653 155.95 382.192 141.719C379.078 128.93 376.17 121.013 375.394 118.992L335.013 119.25Z" fill="black"/>
<path d="M370.668 171.62C370.464 171.621 370.267 171.544 370.115 171.406C369.964 171.269 369.87 171.079 369.852 170.875C369.609 168.369 369.197 165.881 368.618 163.431C367.854 160.147 367.202 157.969 367.085 157.694C366.845 157.215 366.606 156.702 366.366 156.206C365.902 155.248 365.408 154.237 365.106 153.828C364.776 153.594 364.42 153.398 364.045 153.246C362.522 152.527 359.973 151.329 358.148 148.067C358.041 147.876 358.015 147.651 358.074 147.441C358.133 147.231 358.274 147.053 358.464 146.946C358.655 146.839 358.88 146.812 359.09 146.872C359.3 146.931 359.478 147.071 359.585 147.262C361.154 150.06 363.32 151.095 364.752 151.763C365.518 152.125 366.072 152.388 366.412 152.826C366.831 153.373 367.305 154.355 367.849 155.495C368.089 155.974 368.328 156.484 368.568 156.97C368.779 157.392 369.511 159.993 370.225 163.057C370.821 165.58 371.245 168.141 371.495 170.722C371.514 170.939 371.447 171.155 371.307 171.322C371.167 171.489 370.967 171.594 370.75 171.613L370.668 171.62Z" fill="black"/>
<path d="M367.791 157.9H367.72C367.503 157.882 367.302 157.779 367.161 157.613C367.02 157.447 366.95 157.233 366.967 157.016C367.118 155.152 367.799 151.985 368.213 150.912C368.479 150.22 368.488 149.643 367.801 148.414C367.695 148.223 367.668 147.998 367.728 147.788C367.787 147.578 367.928 147.401 368.118 147.294C368.309 147.188 368.534 147.161 368.744 147.221C368.954 147.28 369.132 147.421 369.238 147.611C370.093 149.142 370.237 150.232 369.751 151.502C369.418 152.373 368.759 155.313 368.608 157.147C368.592 157.353 368.499 157.544 368.347 157.684C368.196 157.823 367.997 157.9 367.791 157.9V157.9Z" fill="black"/>
<path d="M357.949 150.13C357.839 150.129 357.73 150.107 357.628 150.065C357.428 149.98 357.27 149.818 357.188 149.616C357.107 149.414 357.109 149.188 357.195 148.987L357.36 148.587C357.99 147.054 358.359 146.314 359.008 146.134C359.203 146.077 359.412 146.095 359.595 146.183C359.778 146.272 359.921 146.425 359.997 146.614C360.073 146.802 360.077 147.012 360.007 147.203C359.937 147.393 359.799 147.551 359.619 147.646C359.415 147.904 359.058 148.779 358.879 149.21L358.706 149.629C358.643 149.777 358.537 149.904 358.403 149.993C358.268 150.082 358.111 150.129 357.949 150.13Z" fill="black"/>
<path d="M363.031 158.015C362.884 158.013 362.739 157.982 362.605 157.922C361.598 157.479 356.377 151.677 357.167 149.251C357.2 149.148 357.254 149.054 357.324 148.972C357.394 148.89 357.479 148.823 357.575 148.774C357.671 148.725 357.776 148.696 357.883 148.687C357.99 148.679 358.098 148.692 358.201 148.725C358.303 148.758 358.398 148.812 358.48 148.881C358.562 148.951 358.629 149.037 358.678 149.133C358.726 149.229 358.756 149.333 358.764 149.441C358.773 149.548 358.76 149.656 358.726 149.759C358.429 150.678 361.139 154.434 362.636 155.898C362.655 155.816 362.672 155.733 362.691 155.658C362.976 154.394 363.496 152.037 365.805 152.453C365.911 152.473 366.012 152.512 366.102 152.571C366.193 152.629 366.271 152.705 366.333 152.793C366.394 152.882 366.437 152.981 366.46 153.087C366.483 153.192 366.485 153.301 366.466 153.407C366.447 153.513 366.407 153.614 366.348 153.704C366.29 153.795 366.215 153.873 366.126 153.935C366.038 153.996 365.938 154.039 365.833 154.062C365.727 154.085 365.618 154.087 365.512 154.068C364.966 153.972 364.698 154.247 364.3 156.018C364.209 156.558 364.043 157.083 363.807 157.577C363.728 157.712 363.615 157.824 363.478 157.901C363.342 157.978 363.187 158.018 363.031 158.015V158.015Z" fill="black"/>
<path d="M371.462 156.743C371.297 156.744 371.136 156.694 371 156.601C370.76 156.434 370.614 156.185 370.317 155.643C369.903 154.879 369.213 153.602 368.312 152.949C368.225 152.886 368.151 152.806 368.094 152.715C368.038 152.623 368 152.521 367.983 152.415C367.965 152.309 367.969 152.2 367.994 152.096C368.019 151.991 368.064 151.892 368.127 151.805C368.19 151.717 368.269 151.643 368.361 151.587C368.452 151.53 368.554 151.492 368.66 151.475C368.766 151.458 368.875 151.462 368.98 151.486C369.084 151.511 369.183 151.556 369.27 151.619C369.876 152.08 370.399 152.64 370.815 153.277C370.789 152.319 370.688 151.389 370.461 151.039C370.233 150.69 370.013 150.297 369.781 149.878C369.373 149.159 368.693 147.925 368.264 147.767C368.07 147.685 367.914 147.531 367.83 147.337C367.745 147.143 367.739 146.924 367.812 146.726C367.886 146.528 368.032 146.365 368.222 146.272C368.412 146.179 368.631 146.163 368.832 146.227C369.831 146.596 370.535 147.858 371.215 149.08C371.429 149.463 371.635 149.835 371.833 150.141C372.631 151.36 372.662 155.912 372.047 156.515C371.889 156.664 371.679 156.746 371.462 156.743V156.743Z" fill="black"/>
<path d="M359.165 148.728C359.084 148.727 359.003 148.715 358.926 148.692C358.718 148.626 358.545 148.481 358.444 148.288C358.344 148.095 358.324 147.87 358.389 147.662C358.693 146.687 358.372 144.943 358.224 144.354C358.191 144.247 358.18 144.136 358.192 144.025C358.204 143.914 358.238 143.807 358.293 143.71C358.347 143.613 358.421 143.528 358.509 143.46C358.597 143.393 358.699 143.344 358.806 143.316C358.914 143.289 359.027 143.283 359.137 143.301C359.247 143.318 359.352 143.357 359.446 143.417C359.54 143.476 359.622 143.553 359.685 143.645C359.748 143.737 359.792 143.84 359.814 143.949C359.881 144.213 360.454 146.562 359.956 148.153C359.903 148.321 359.798 148.467 359.655 148.571C359.513 148.674 359.341 148.729 359.165 148.728V148.728Z" fill="black"/>
<path d="M364.666 147.974C364.363 147.973 364.061 147.939 363.765 147.871C361.571 147.353 359.609 146.126 358.182 144.381C357.663 143.667 357.229 142.895 356.891 142.079C356.809 141.882 356.807 141.661 356.886 141.462C356.964 141.264 357.117 141.104 357.312 141.016C357.506 140.928 357.728 140.919 357.928 140.992C358.129 141.064 358.294 141.212 358.388 141.404C358.673 142.091 359.033 142.744 359.461 143.351C360.653 144.809 362.292 145.834 364.125 146.269C365.013 146.465 365.562 146.19 366.142 145.718C367.701 144.417 368.98 142.015 369.174 140.927C369.311 140.173 369.32 138.867 369.327 137.488C369.327 136.834 369.327 136.149 369.351 135.461C369.35 135.352 369.371 135.244 369.414 135.143C369.456 135.043 369.519 134.952 369.598 134.877C369.678 134.802 369.771 134.744 369.874 134.707C369.976 134.67 370.086 134.654 370.195 134.661C370.412 134.667 370.618 134.758 370.768 134.916C370.918 135.074 371 135.284 370.995 135.502C370.978 136.18 370.973 136.853 370.971 137.497C370.971 139.013 370.954 140.326 370.791 141.217C370.515 142.752 368.97 145.493 367.198 146.966C366.506 147.601 365.605 147.96 364.666 147.974V147.974Z" fill="black"/>
<path d="M364.481 140.917C364.316 140.917 364.155 140.867 364.019 140.774C363.883 140.681 363.778 140.549 363.718 140.396C363.658 140.242 363.645 140.074 363.682 139.913C363.718 139.753 363.802 139.607 363.923 139.494C364.03 139.391 364.125 139.275 364.206 139.149C364.179 139.121 364.146 139.082 364.112 139.039C363.699 138.578 363.386 138.035 363.195 137.446C362.955 136.618 363.259 135.873 363.614 135.118C363.658 135.018 363.722 134.927 363.802 134.852C363.882 134.776 363.976 134.718 364.079 134.679C364.181 134.641 364.291 134.623 364.401 134.628C364.51 134.632 364.618 134.659 364.717 134.706C364.816 134.753 364.905 134.819 364.978 134.901C365.052 134.983 365.108 135.078 365.143 135.182C365.179 135.286 365.193 135.396 365.186 135.506C365.178 135.615 365.149 135.722 365.099 135.82C364.754 136.553 364.718 136.8 364.776 136.998C364.91 137.371 365.118 137.713 365.387 138.004C365.581 138.213 365.733 138.457 365.834 138.723C366.117 139.619 365.298 140.467 365.039 140.706C364.886 140.844 364.687 140.92 364.481 140.917Z" fill="black"/>
<path d="M365.346 134.222C365.176 134.223 365.01 134.171 364.87 134.073C364.731 133.974 364.626 133.835 364.57 133.674C364.513 133.514 364.508 133.339 364.556 133.176C364.603 133.012 364.7 132.867 364.834 132.761C365.524 132.193 366.406 131.908 367.299 131.966C367.406 131.974 367.511 132.002 367.607 132.051C367.703 132.099 367.789 132.166 367.86 132.247C367.93 132.328 367.984 132.423 368.018 132.525C368.052 132.627 368.066 132.735 368.058 132.843C368.05 132.95 368.021 133.055 367.973 133.151C367.925 133.248 367.858 133.333 367.777 133.404C367.695 133.474 367.601 133.528 367.499 133.562C367.397 133.596 367.289 133.61 367.181 133.602C366.699 133.576 366.226 133.734 365.857 134.045C365.712 134.161 365.532 134.223 365.346 134.222V134.222Z" fill="black"/>
<path fill-rule="evenodd" clip-rule="evenodd" d="M367.519 136.49C367.48 135.834 367.08 135.326 366.623 135.354C366.165 135.383 365.83 135.941 365.871 136.598C365.911 137.254 366.314 137.764 366.769 137.735C367.224 137.707 367.559 137.149 367.519 136.49Z" fill="black"/>
<path fill-rule="evenodd" clip-rule="evenodd" d="M359.176 144.624C360.17 145.283 361.202 145.884 362.266 146.423C363.607 147.056 364.699 147.228 365.413 146.972C366.127 146.716 367.931 145.314 367.931 145.314C367.931 145.314 365.349 148.706 363.478 148.994C361.356 149.317 359.406 146.632 359.406 146.632L359.176 144.624Z" fill="black"/>
<path d="M350.852 154.264C350.663 154.263 350.479 154.198 350.333 154.078C350.186 153.958 350.085 153.791 350.048 153.605C349.729 152.041 350.11 150.421 350.548 148.548C350.987 146.675 351.485 144.56 351.406 141.978C351.377 140.953 351.291 140.062 351.205 139.19C350.984 136.912 350.776 134.761 351.77 131.227C352.728 127.838 354.687 126.468 354.771 126.41C354.951 126.298 355.167 126.259 355.374 126.302C355.582 126.345 355.765 126.467 355.885 126.642C356.005 126.816 356.053 127.031 356.018 127.24C355.984 127.449 355.87 127.637 355.701 127.764C355.679 127.781 354.132 128.904 353.351 131.673C352.441 134.909 352.632 136.818 352.841 139.029C352.927 139.925 353.015 140.85 353.049 141.93C353.13 144.725 352.587 147.054 352.146 148.924C351.734 150.678 351.411 152.065 351.667 153.279C351.707 153.491 351.663 153.71 351.543 153.889C351.424 154.068 351.238 154.193 351.027 154.237C350.97 154.251 350.911 154.26 350.852 154.264V154.264Z" fill="black"/>
<path d="M372.214 140.938C372.133 140.939 372.052 140.928 371.975 140.905C371.766 140.843 371.591 140.7 371.487 140.509C371.383 140.318 371.36 140.093 371.421 139.884C371.421 139.884 371.92 137.594 367.965 134.44C366.171 133.002 365.155 131.525 364.259 130.214C363.797 129.495 363.279 128.813 362.71 128.176C362.161 127.596 361.773 127.417 361.615 127.436C361.457 127.455 361.212 127.611 360.731 128.482C360.618 128.657 360.444 128.783 360.242 128.834C360.041 128.885 359.828 128.858 359.645 128.758C359.463 128.658 359.325 128.493 359.26 128.295C359.195 128.098 359.207 127.883 359.294 127.694C359.739 126.885 360.379 125.941 361.409 125.809C362.204 125.704 363.021 126.111 363.905 127.048C364.535 127.747 365.108 128.496 365.618 129.287C366.489 130.562 367.39 131.879 368.99 133.156C373.814 137.003 373.096 140.018 372.998 140.342C372.95 140.513 372.847 140.664 372.706 140.771C372.565 140.879 372.392 140.938 372.214 140.938Z" fill="black"/>
<path d="M377.129 152.279C377.041 152.278 376.954 152.265 376.87 152.238C376.663 152.17 376.492 152.022 376.394 151.828C376.296 151.633 376.279 151.408 376.348 151.201C376.956 149.364 376.405 148.255 375.629 146.722C374.91 145.284 374.094 143.636 374.151 141.105C374.151 140.887 374.165 140.642 374.175 140.372C374.245 138.513 374.362 135.401 373.246 133.075C372.371 131.255 369.047 125.211 362.898 123.834C359.616 123.116 358.258 125.032 357.53 126.069L356.184 125.128C356.924 124.069 358.881 121.257 363.257 122.232C369.94 123.729 373.502 129.815 374.726 132.364C376.017 135.059 375.893 138.422 375.816 140.434L375.792 141.153C375.744 143.28 376.434 144.662 377.1 146.001C377.895 147.598 378.717 149.251 377.897 151.728C377.842 151.888 377.738 152.027 377.6 152.125C377.463 152.224 377.298 152.277 377.129 152.279Z" fill="black"/>
<path d="M359.13 135.252C358.918 135.253 358.715 135.171 358.562 135.024C358.484 134.949 358.422 134.86 358.378 134.761C358.335 134.663 358.311 134.556 358.309 134.448C358.307 134.34 358.326 134.233 358.365 134.132C358.404 134.032 358.463 133.94 358.538 133.862C359.01 133.345 359.625 132.98 360.305 132.813C360.985 132.646 361.699 132.685 362.357 132.926C362.462 132.958 362.56 133.012 362.644 133.083C362.728 133.154 362.797 133.241 362.847 133.339C362.897 133.437 362.926 133.545 362.934 133.655C362.941 133.765 362.927 133.875 362.891 133.979C362.855 134.083 362.798 134.179 362.724 134.261C362.65 134.343 362.561 134.409 362.461 134.455C362.361 134.502 362.253 134.528 362.143 134.532C362.033 134.536 361.923 134.517 361.82 134.478C361.459 134.341 361.064 134.318 360.689 134.412C360.315 134.505 359.977 134.71 359.722 135C359.645 135.08 359.553 135.143 359.452 135.186C359.35 135.23 359.241 135.252 359.13 135.252V135.252Z" fill="black"/>
<path d="M357.39 142.195C356.643 142.185 355.921 141.927 355.338 141.461C354.755 140.995 354.344 140.348 354.17 139.622C353.931 138.702 354.003 137.945 354.371 137.371C354.551 137.106 354.785 136.882 355.058 136.714C355.33 136.546 355.635 136.438 355.952 136.396C356.167 136.356 356.388 136.403 356.568 136.527C356.748 136.65 356.871 136.84 356.911 137.054C356.95 137.269 356.903 137.49 356.78 137.67C356.656 137.85 356.466 137.973 356.252 138.012C356.157 138.018 356.064 138.041 355.979 138.082C355.893 138.124 355.817 138.181 355.754 138.252C355.646 138.42 355.648 138.769 355.754 139.21C355.79 139.356 356.17 140.647 357.519 140.542C357.736 140.529 357.949 140.602 358.112 140.745C358.276 140.888 358.377 141.09 358.393 141.306C358.401 141.414 358.387 141.522 358.353 141.624C358.318 141.726 358.264 141.821 358.193 141.902C358.122 141.983 358.036 142.05 357.939 142.097C357.842 142.145 357.737 142.173 357.629 142.18C357.553 142.192 357.471 142.195 357.39 142.195Z" fill="black"/>
<path d="M356.59 135.566C356.414 135.567 356.243 135.511 356.101 135.407C355.959 135.304 355.855 135.157 355.802 134.989C355.75 134.822 355.754 134.642 355.812 134.476C355.87 134.31 355.98 134.167 356.125 134.069C357.124 133.384 357.198 132.809 357.308 131.939C357.409 131.156 357.533 130.179 358.432 129.187C358.578 129.027 358.783 128.931 359 128.921C359.217 128.911 359.429 128.988 359.589 129.134C359.75 129.28 359.847 129.483 359.858 129.7C359.869 129.917 359.794 130.13 359.648 130.291C359.098 130.9 359.028 131.451 358.93 132.148C358.805 133.118 358.65 134.323 357.045 135.422C356.911 135.514 356.752 135.564 356.59 135.566V135.566Z" fill="black"/>
<path fill-rule="evenodd" clip-rule="evenodd" d="M361.667 137.017C361.602 136.382 361.173 135.905 360.708 135.949C360.244 135.992 359.92 136.545 359.99 137.18C360.059 137.814 360.469 138.294 360.948 138.248C361.427 138.203 361.731 137.659 361.667 137.017Z" fill="black"/>
<path d="M368.695 150.017C368.512 150.016 368.334 149.954 368.189 149.84C368.045 149.727 367.943 149.568 367.9 149.389C367.524 147.844 367.562 144.63 367.565 144.493C367.563 144.385 367.584 144.277 367.626 144.177C367.667 144.077 367.729 143.986 367.806 143.91C367.884 143.834 367.977 143.775 368.078 143.736C368.179 143.697 368.287 143.68 368.396 143.684C368.614 143.687 368.821 143.776 368.973 143.932C369.125 144.088 369.21 144.297 369.208 144.515C369.208 145.384 369.225 147.888 369.495 149.001C369.521 149.106 369.525 149.215 369.508 149.322C369.492 149.428 369.454 149.531 369.398 149.623C369.341 149.715 369.268 149.795 369.18 149.859C369.093 149.922 368.994 149.968 368.889 149.993C368.826 150.008 368.761 150.016 368.695 150.017V150.017Z" fill="black"/>
<path fill-rule="evenodd" clip-rule="evenodd" d="M370.321 135.417C370.321 135.417 370.956 135.764 371.387 137.573C371.818 139.381 370.094 140.866 370.094 140.866L370.321 135.417Z" fill="black"/>
<path d="M344.909 166.645H344.888C344.78 166.642 344.674 166.618 344.575 166.574C344.477 166.53 344.388 166.467 344.314 166.389C344.24 166.31 344.182 166.218 344.144 166.117C344.105 166.016 344.087 165.909 344.09 165.801C344.179 162.687 344.656 159.985 345.396 158.376C346.136 156.766 347.643 155.14 349.554 153.844C350.129 153.453 352.493 152.038 354.584 150.787C355.739 150.095 356.74 149.496 357.099 149.271C357.191 149.209 357.294 149.165 357.403 149.144C357.511 149.122 357.623 149.123 357.732 149.146C357.84 149.169 357.943 149.213 358.034 149.277C358.124 149.341 358.201 149.422 358.26 149.516C358.318 149.61 358.357 149.715 358.374 149.824C358.391 149.934 358.386 150.046 358.358 150.153C358.331 150.26 358.282 150.361 358.215 150.449C358.147 150.537 358.063 150.611 357.966 150.665C357.6 150.905 356.594 151.496 355.427 152.196C353.564 153.31 351.015 154.831 350.479 155.202C348.802 156.337 347.499 157.743 346.886 159.063C346.241 160.455 345.81 162.987 345.729 165.842C345.724 166.056 345.635 166.26 345.482 166.41C345.329 166.56 345.124 166.644 344.909 166.645V166.645Z" fill="black"/>
<path d="M354.265 168.853C354.082 168.853 353.904 168.791 353.76 168.678C353.616 168.565 353.514 168.406 353.47 168.228C353.456 168.175 352.155 163.008 348.085 159.605C347.996 159.538 347.922 159.453 347.867 159.357C347.811 159.26 347.776 159.153 347.763 159.042C347.75 158.932 347.76 158.82 347.792 158.713C347.824 158.606 347.877 158.507 347.949 158.422C348.02 158.336 348.108 158.266 348.207 158.216C348.307 158.165 348.415 158.135 348.526 158.128C348.637 158.121 348.749 158.136 348.854 158.174C348.959 158.211 349.055 158.269 349.137 158.345C353.633 162.093 355.008 167.598 355.066 167.83C355.116 168.042 355.081 168.265 354.968 168.45C354.855 168.636 354.673 168.77 354.462 168.822C354.398 168.839 354.332 168.85 354.265 168.853V168.853Z" fill="black"/>
<path d="M382.19 171.73H382.176C381.958 171.726 381.751 171.636 381.6 171.479C381.448 171.322 381.365 171.112 381.368 170.894C381.412 169.944 381.384 168.991 381.287 168.044C381.128 167.15 380.902 166.269 380.612 165.409C380.159 163.972 379.689 162.47 379.756 160.199C379.757 160.091 379.78 159.983 379.823 159.884C379.867 159.784 379.93 159.694 380.009 159.62C380.088 159.545 380.181 159.488 380.283 159.45C380.385 159.413 380.494 159.396 380.602 159.402C380.71 159.405 380.816 159.429 380.915 159.473C381.013 159.517 381.102 159.581 381.176 159.659C381.25 159.738 381.308 159.83 381.346 159.931C381.385 160.032 381.403 160.139 381.4 160.247C381.34 162.242 381.747 163.543 382.178 164.918C382.494 165.856 382.738 166.817 382.909 167.792C383.025 168.836 383.059 169.887 383.012 170.935C383.005 171.148 382.915 171.351 382.762 171.499C382.609 171.648 382.404 171.731 382.19 171.73V171.73Z" fill="black"/>
<path d="M386.388 171.989C386.192 171.989 386.004 171.919 385.855 171.792C385.707 171.665 385.608 171.49 385.578 171.297C384.706 165.763 383.513 158.187 381.76 155.677C380.476 153.837 378.327 153.02 375.839 152.084C373.783 151.303 371.453 150.407 369.251 148.792C369.165 148.728 369.091 148.648 369.036 148.555C368.98 148.463 368.943 148.36 368.927 148.253C368.911 148.146 368.916 148.038 368.942 147.933C368.968 147.828 369.015 147.729 369.079 147.643C369.143 147.556 369.224 147.482 369.316 147.427C369.409 147.371 369.511 147.334 369.618 147.318C369.725 147.302 369.834 147.307 369.939 147.333C370.043 147.36 370.142 147.406 370.229 147.47C372.248 148.965 374.37 149.77 376.423 150.548C379.058 151.545 381.532 152.488 383.106 154.745C384.929 157.353 386.038 163.67 387.2 171.048C387.234 171.263 387.181 171.482 387.053 171.658C386.925 171.834 386.732 171.952 386.517 171.987C386.474 171.991 386.431 171.992 386.388 171.989V171.989Z" fill="black"/>
<path d="M364.365 143.794C363.443 143.794 362.564 143.574 362.011 143.193C361.838 143.067 361.722 142.878 361.687 142.667C361.652 142.456 361.7 142.24 361.822 142.064C361.943 141.888 362.128 141.767 362.338 141.725C362.548 141.684 362.765 141.726 362.945 141.842C363.486 142.216 365.065 142.333 365.977 141.766C366.162 141.661 366.379 141.632 366.585 141.685C366.79 141.737 366.967 141.867 367.079 142.047C367.191 142.227 367.229 142.443 367.185 142.65C367.142 142.858 367.02 143.04 366.844 143.16C366.091 143.592 365.234 143.812 364.365 143.794V143.794Z" fill="black"/>
<path d="M477.4 164.717L401.279 164.7C401.061 164.7 400.852 164.614 400.698 164.459C400.544 164.305 400.457 164.096 400.457 163.878C400.457 163.661 400.544 163.452 400.698 163.298C400.852 163.143 401.061 163.057 401.279 163.057V163.057L477.4 163.076C477.512 163.07 477.623 163.087 477.728 163.125C477.833 163.164 477.929 163.223 478.01 163.3C478.091 163.377 478.155 163.469 478.199 163.572C478.244 163.674 478.266 163.785 478.266 163.896C478.266 164.008 478.244 164.119 478.199 164.221C478.155 164.324 478.091 164.416 478.01 164.493C477.929 164.57 477.833 164.629 477.728 164.668C477.623 164.706 477.512 164.723 477.4 164.717V164.717Z" fill="black"/>
<path d="M475.292 155.668L399.171 155.649C399.059 155.655 398.948 155.638 398.843 155.599C398.738 155.561 398.642 155.501 398.561 155.425C398.48 155.348 398.416 155.255 398.372 155.153C398.327 155.05 398.305 154.94 398.305 154.828C398.305 154.717 398.327 154.606 398.372 154.504C398.416 154.401 398.48 154.309 398.561 154.232C398.642 154.155 398.738 154.096 398.843 154.057C398.948 154.018 399.059 154.002 399.171 154.008V154.008L475.292 154.027C475.404 154.021 475.515 154.038 475.62 154.076C475.725 154.115 475.821 154.174 475.902 154.251C475.983 154.328 476.047 154.42 476.091 154.523C476.136 154.625 476.158 154.736 476.158 154.847C476.158 154.959 476.136 155.069 476.091 155.172C476.047 155.275 475.983 155.367 475.902 155.444C475.821 155.521 475.725 155.58 475.62 155.619C475.515 155.657 475.404 155.674 475.292 155.668V155.668Z" fill="black"/>
<path d="M473.188 146.406L397.066 146.387C396.856 146.375 396.659 146.284 396.514 146.131C396.37 145.979 396.289 145.776 396.289 145.566C396.289 145.356 396.37 145.154 396.514 145.001C396.659 144.849 396.856 144.757 397.066 144.746V144.746L473.188 144.763C473.406 144.763 473.615 144.849 473.769 145.003C473.923 145.157 474.01 145.366 474.01 145.584C474.01 145.802 473.923 146.011 473.769 146.165C473.615 146.319 473.406 146.406 473.188 146.406V146.406Z" fill="black"/>
<path d="M471.084 137.147L394.962 137.127C394.744 137.127 394.535 137.041 394.381 136.887C394.227 136.733 394.141 136.524 394.141 136.306C394.141 136.088 394.227 135.879 394.381 135.725C394.535 135.571 394.744 135.484 394.962 135.484L471.084 135.503C471.302 135.503 471.511 135.59 471.665 135.744C471.819 135.898 471.906 136.107 471.906 136.325C471.906 136.543 471.819 136.752 471.665 136.906C471.511 137.06 471.302 137.147 471.084 137.147V137.147Z" fill="black"/>
<path d="M468.564 128.095L392.443 128.078C392.225 128.078 392.016 127.991 391.862 127.837C391.708 127.683 391.621 127.474 391.621 127.256C391.621 127.038 391.708 126.83 391.862 126.675C392.016 126.521 392.225 126.435 392.443 126.435V126.435L468.564 126.454C468.676 126.448 468.787 126.465 468.892 126.503C468.997 126.542 469.093 126.601 469.174 126.678C469.255 126.755 469.319 126.847 469.364 126.95C469.408 127.052 469.43 127.163 469.43 127.274C469.43 127.386 469.408 127.496 469.364 127.599C469.319 127.702 469.255 127.794 469.174 127.871C469.093 127.948 468.997 128.007 468.892 128.046C468.787 128.084 468.676 128.101 468.564 128.095V128.095Z" fill="black"/>
<path d="M354.322 190.859C354.104 190.859 353.895 190.773 353.741 190.619C353.587 190.465 353.5 190.256 353.5 190.038C353.5 189.82 353.587 189.611 353.741 189.457C353.895 189.303 354.104 189.216 354.322 189.216L485.235 188.584C485.452 188.584 485.661 188.67 485.815 188.825C485.97 188.979 486.056 189.188 486.056 189.405C486.056 189.623 485.97 189.832 485.815 189.986C485.661 190.141 485.452 190.227 485.235 190.227L354.319 190.859H354.322Z" fill="black"/>
<path d="M356.177 205.702C355.959 205.702 355.75 205.615 355.596 205.461C355.442 205.307 355.355 205.098 355.355 204.88C355.355 204.662 355.442 204.453 355.596 204.299C355.75 204.145 355.959 204.059 356.177 204.059L487.09 203.426C487.308 203.426 487.517 203.513 487.671 203.667C487.825 203.821 487.912 204.03 487.912 204.248C487.912 204.466 487.825 204.675 487.671 204.829C487.517 204.983 487.308 205.07 487.09 205.07L356.177 205.702Z" fill="black"/>
<path d="M358.497 219.151C358.279 219.151 358.071 219.065 357.916 218.911C357.762 218.756 357.676 218.548 357.676 218.33C357.676 218.112 357.762 217.903 357.916 217.749C358.071 217.595 358.279 217.508 358.497 217.508L489.403 216.878C489.613 216.889 489.811 216.981 489.955 217.133C490.1 217.286 490.18 217.488 490.18 217.698C490.18 217.909 490.1 218.111 489.955 218.263C489.811 218.416 489.613 218.507 489.403 218.519L358.49 219.151H358.497Z" fill="black"/>
<path d="M360.582 234.223C360.372 234.212 360.174 234.12 360.03 233.968C359.885 233.815 359.805 233.613 359.805 233.403C359.805 233.192 359.885 232.99 360.03 232.838C360.174 232.685 360.372 232.594 360.582 232.582L491.495 231.95C491.713 231.95 491.922 232.036 492.076 232.19C492.23 232.345 492.316 232.554 492.316 232.771C492.316 232.989 492.23 233.198 492.076 233.352C491.922 233.506 491.713 233.593 491.495 233.593L360.58 234.223H360.582Z" fill="black"/>
<path d="M363.367 250.688C363.157 250.677 362.96 250.586 362.815 250.433C362.67 250.28 362.59 250.078 362.59 249.868C362.59 249.658 362.67 249.456 362.815 249.303C362.96 249.15 363.157 249.059 363.367 249.048L494.282 248.415C494.492 248.427 494.69 248.518 494.835 248.671C494.979 248.823 495.06 249.025 495.06 249.236C495.06 249.446 494.979 249.648 494.835 249.801C494.69 249.953 494.492 250.045 494.282 250.056L363.367 250.688Z" fill="black"/>
<path d="M364.062 266.689C363.852 266.678 363.655 266.586 363.51 266.434C363.366 266.281 363.285 266.079 363.285 265.869C363.285 265.659 363.366 265.456 363.51 265.304C363.655 265.151 363.852 265.06 364.062 265.048L494.975 264.416C495.185 264.427 495.383 264.519 495.527 264.671C495.672 264.824 495.753 265.026 495.753 265.236C495.753 265.447 495.672 265.649 495.527 265.801C495.383 265.954 495.185 266.045 494.975 266.057L364.06 266.689H364.062Z" fill="black"/>
<path d="M364.759 281.996C364.541 281.996 364.332 281.909 364.178 281.755C364.024 281.601 363.937 281.392 363.938 281.174C363.937 280.956 364.024 280.747 364.178 280.593C364.332 280.439 364.541 280.352 364.759 280.352L495.674 279.72C495.892 279.72 496.101 279.807 496.255 279.961C496.41 280.115 496.496 280.324 496.496 280.542C496.496 280.76 496.41 280.969 496.255 281.123C496.101 281.277 495.892 281.363 495.674 281.363L364.762 281.996H364.759Z" fill="black"/>
<path d="M364.992 299.386C364.782 299.374 364.585 299.283 364.44 299.13C364.295 298.978 364.215 298.775 364.215 298.565C364.215 298.355 364.295 298.153 364.44 298C364.585 297.847 364.782 297.756 364.992 297.745L436.498 297.4C436.716 297.4 436.925 297.486 437.079 297.64C437.233 297.794 437.32 298.003 437.32 298.221C437.32 298.439 437.233 298.648 437.079 298.802C436.925 298.956 436.716 299.043 436.498 299.043L364.99 299.386H364.992Z" fill="black"/>
<path d="M455.05 323.824C454.938 323.83 454.827 323.814 454.722 323.775C454.617 323.737 454.521 323.677 454.44 323.6C454.359 323.524 454.295 323.431 454.25 323.329C454.206 323.226 454.184 323.116 454.184 323.004C454.184 322.892 454.206 322.782 454.25 322.679C454.295 322.577 454.359 322.484 454.44 322.408C454.521 322.331 454.617 322.271 454.722 322.233C454.827 322.194 454.938 322.178 455.05 322.184L496.769 322.162C496.881 322.156 496.992 322.173 497.097 322.211C497.202 322.25 497.298 322.309 497.379 322.386C497.46 322.463 497.524 322.555 497.568 322.658C497.612 322.76 497.635 322.871 497.635 322.982C497.635 323.094 497.612 323.204 497.568 323.307C497.524 323.41 497.46 323.502 497.379 323.579C497.298 323.656 497.202 323.715 497.097 323.754C496.992 323.792 496.881 323.809 496.769 323.803L455.05 323.824V323.824Z" fill="black"/>
</svg>
