<svg width="484" height="459" viewBox="0 0 484 459" fill="none" xmlns="http://www.w3.org/2000/svg">
<path d="M119.587 268.486L119.074 267.947L122.295 264.863L122.811 265.399L119.587 268.486ZM126.047 262.297L125.522 261.767C126.574 260.733 127.626 259.666 128.657 258.593L129.193 259.112C128.159 260.185 127.101 261.257 126.047 262.297ZM132.253 255.843L131.702 255.343C132.688 254.258 133.683 253.135 134.661 252.006L135.224 252.491C134.244 253.62 133.245 254.747 132.253 255.843ZM138.108 249.065L137.533 248.594C138.463 247.462 139.401 246.288 140.319 245.111L140.915 245.569C139.982 246.746 139.041 247.923 138.108 249.059V249.065ZM143.62 242.009L143.025 241.562C143.898 240.388 144.78 239.178 145.647 237.954L146.243 238.386C145.384 239.604 144.499 240.823 143.62 242.003V242.009ZM148.814 234.688L148.197 234.271C149.031 233.039 149.853 231.8 150.661 230.552L151.287 230.957C150.471 232.217 149.646 233.46 148.814 234.688ZM189.635 229.524C188.261 229.524 186.899 229.264 185.621 228.758L185.895 228.067C187.086 228.537 188.355 228.779 189.635 228.779C189.82 228.761 189.957 228.779 190.118 228.779L190.153 229.524C189.963 229.533 189.757 229.521 189.617 229.536L189.635 229.524ZM194.581 228.252L194.209 227.605C195.45 226.887 196.479 225.852 197.188 224.605L197.835 224.977C197.055 226.344 195.926 227.478 194.563 228.264L194.581 228.252ZM153.692 227.176L153.06 226.783C153.843 225.52 154.614 224.248 155.375 222.969L156.016 223.35C155.241 224.64 154.46 225.919 153.674 227.188L153.692 227.176ZM181.846 226.139C180.807 225.003 179.977 223.691 179.394 222.266L180.079 221.968C180.631 223.309 181.413 224.542 182.391 225.612L181.846 226.139ZM199.06 220.538L198.315 220.52V220.323C198.321 219.234 198.097 218.155 197.656 217.159C197.546 216.911 197.421 216.667 197.287 216.432L197.936 216.065C198.079 216.321 198.213 216.584 198.335 216.852C198.818 217.945 199.065 219.128 199.06 220.323V220.538ZM158.563 219.757L157.991 219.277C158.958 218.125 160.014 217.051 161.15 216.065L161.635 216.628C160.524 217.591 159.49 218.642 158.545 219.769L158.563 219.757ZM178.229 217.865C178.144 217.149 178.101 216.429 178.101 215.708C178.102 214.911 178.152 214.115 178.253 213.324L178.992 213.416C178.896 214.179 178.847 214.948 178.846 215.717C178.845 216.408 178.887 217.098 178.971 217.784L178.229 217.865ZM165.202 214.021L164.812 213.386C166.096 212.594 167.436 211.897 168.822 211.301L169.12 211.986C167.766 212.567 166.456 213.248 165.202 214.021ZM194.402 213.252C193.234 212.386 191.955 211.678 190.6 211.149L190.877 210.457C192.297 211.016 193.636 211.762 194.858 212.674L194.402 213.252ZM173.265 210.532L173.068 209.814C174.524 209.419 176.005 209.126 177.502 208.938L177.594 209.677C176.134 209.861 174.688 210.147 173.268 210.532H173.265ZM186.375 209.915C184.93 209.643 183.465 209.49 181.995 209.456L182.013 208.711C183.524 208.746 185.03 208.903 186.515 209.182L186.375 209.915ZM180.008 209.161L179.308 208.911C179.824 207.485 180.483 206.114 181.274 204.82L181.909 205.21C181.145 206.46 180.51 207.784 180.014 209.161H180.008ZM184.564 201.712L184.015 201.206C184.233 200.973 184.456 200.744 184.683 200.517C185.533 199.679 186.445 198.904 187.409 198.199L187.85 198.795C186.915 199.477 186.031 200.228 185.207 201.042C184.993 201.265 184.778 201.489 184.57 201.712H184.564ZM191.613 196.519L191.283 195.851C192.636 195.181 194.042 194.623 195.487 194.183L195.704 194.895C194.301 195.323 192.934 195.867 191.619 196.519H191.613ZM200.016 193.783L199.831 193.062C201.288 192.69 202.736 192.297 204.137 191.9L204.339 192.618C202.939 193.018 201.485 193.408 200.022 193.783H200.016ZM208.633 191.334L208.41 190.625C209.846 190.172 211.27 189.698 212.641 189.222L212.885 189.925C211.514 190.405 210.084 190.887 208.639 191.334H208.633ZM217.092 188.375L216.824 187.681C218.219 187.139 219.604 186.573 220.945 185.995L221.243 186.677C219.896 187.261 218.502 187.83 217.098 188.375H217.092ZM225.322 184.821L225 184.15L229.02 182.199L229.345 182.869L225.322 184.821ZM233.367 180.914L233.042 180.244L237.062 178.289L237.387 178.96L233.367 180.914ZM241.412 177.005L241.087 176.335L245.107 174.38L245.432 175.05L241.412 177.005ZM249.457 173.096L249.132 172.428L253.152 170.474L253.477 171.144L249.457 173.096ZM257.502 169.19L257.177 168.519L261.197 166.564L261.522 167.235L257.502 169.19Z" fill="#666666"/>
<path d="M243.755 30.6693C243.752 30.8215 243.758 30.9737 243.773 31.1252H341.734C341.478 23.0504 334.449 16.5756 325.829 16.5756C323.179 16.5679 320.565 17.1942 318.207 18.4022C318.326 12.1181 315.308 6.09925 309.742 2.86932C301.399 -1.9696 290.469 1.31395 285.359 10.2082C283.871 12.7854 282.99 15.6684 282.785 18.6375C278.712 16.7753 273.664 15.6579 268.185 15.6579C254.693 15.6639 243.755 22.3859 243.755 30.6693Z" fill="#B4DDFB"/>
<path d="M80.7779 259.58H0V259.282C0.214534 252.447 6.06058 247.092 13.307 247.092C15.3666 247.092 17.4009 247.545 19.2663 248.418C19.32 243.186 22.0016 238.421 26.3429 235.904C27.957 234.974 29.7397 234.375 31.5874 234.142C33.4351 233.908 35.3108 234.044 37.1054 234.542C39.1196 235.09 41.0047 236.033 42.6508 237.316C44.297 238.6 45.6714 240.198 46.6938 242.018C47.8692 244.048 48.591 246.309 48.8094 248.645C52.2479 247.14 56.2883 246.347 60.5164 246.347C71.7079 246.347 80.8107 251.988 80.8107 258.918C80.8131 259.054 80.8082 259.189 80.7958 259.324L80.7779 259.58ZM0.581028 259.023H80.2654V258.93C80.2654 252.306 71.4129 246.916 60.5283 246.916C56.2287 246.916 52.1347 247.751 48.6902 249.33L48.3207 249.497L48.2939 249.094C48.1324 246.703 47.4239 244.381 46.2231 242.307C45.2359 240.551 43.9097 239.01 42.3214 237.771C40.7331 236.533 38.9145 235.622 36.9713 235.093C35.2479 234.615 33.4466 234.484 31.6721 234.708C29.8976 234.932 28.1854 235.507 26.635 236.398C22.3443 238.889 19.7401 243.669 19.8384 248.874V249.342L19.4213 249.13C17.5282 248.163 15.4327 247.66 13.307 247.661C6.47475 247.661 0.938584 252.628 0.581028 259.023Z" fill="#666666"/>
<path d="M238.738 251.535C238.739 256.106 240.555 260.49 243.788 263.722C247.02 266.955 251.404 268.771 255.975 268.772H447.438C452.009 268.771 456.393 266.955 459.625 263.722C462.858 260.49 464.674 256.106 464.675 251.535V135.031H238.738V251.535Z" fill="white"/>
<path d="M226.911 164.747C229.563 156.279 237.906 149.768 247.039 149.092C256.171 148.415 265.483 153.561 269.478 161.538C274.338 161.493 279.123 164.186 281.483 168.292C282.64 170.354 283.213 172.692 283.139 175.055C283.066 177.417 282.349 179.715 281.066 181.701C286.85 182.705 292.043 186.51 294.603 191.626C295.861 194.186 296.485 197.012 296.422 199.864C296.359 202.717 295.61 205.512 294.239 208.014C300.607 204.778 308.75 205.07 314.858 208.759C320.966 212.448 324.816 219.393 324.601 226.339C328.567 220.117 336.171 216.241 343.731 216.586C351.29 216.932 358.495 221.482 361.859 228.037C365.408 217.418 374.868 208.845 386.065 206.107C397.263 203.369 409.822 206.551 418.201 214.25C430.805 216.223 439.988 229.905 436.704 241.815C443.513 247.449 446.993 256.609 445.569 265.148C444.144 273.688 437.869 281.316 429.58 284.579L212.755 284.447L194.281 201.724L226.911 164.747Z" fill="#B4DDFB"/>
<g opacity="0.8">
<path opacity="0.8" d="M223.472 192.219C226.028 183.751 234.106 177.243 242.929 176.549C251.751 175.855 260.747 181.018 264.6 188.977C266.959 188.955 269.281 189.571 271.32 190.759C273.359 191.947 275.04 193.663 276.185 195.727C277.329 197.79 277.896 200.124 277.825 202.483C277.753 204.842 277.047 207.138 275.779 209.128C278.586 209.63 281.235 210.789 283.507 212.513C285.779 214.236 287.61 216.473 288.85 219.041C290.09 221.609 290.703 224.434 290.64 227.285C290.576 230.136 289.838 232.931 288.484 235.441C291.579 233.811 295.046 233.021 298.541 233.149C302.036 233.278 305.437 234.32 308.403 236.172C311.37 238.024 313.799 240.622 315.449 243.706C317.098 246.79 317.91 250.253 317.804 253.748C321.642 247.524 328.99 243.641 336.278 243.981C343.566 244.321 350.541 248.865 353.783 255.417C357.222 244.794 366.369 236.216 377.188 233.469C388.007 230.722 400.131 233.892 408.23 241.585C420.405 243.546 429.266 257.223 426.087 269.135C432.657 274.764 436.012 283.92 434.63 292.46C433.247 300.999 427.18 308.633 419.168 311.902L209.685 311.935L191.891 229.226L223.472 192.219Z" fill="white"/>
</g>
<path opacity="0.7" d="M390.018 138.77C327.264 197.785 282.751 213.699 226.701 219.387L222.977 278.98L281.824 299.093C333.223 297.603 382.575 223.195 413.059 159.363L390.018 138.77Z" fill="#E6F4FF"/>
<path d="M398.855 139.539C388.653 151.61 373.266 163.156 355.117 178.751L379.881 168.659C376.845 173.689 372.432 180.732 369.944 183.751C375.65 181.117 384.842 175.321 387.875 172.249C387.875 176.537 382.709 183.709 380.456 187.627C393.665 176.323 405.682 162.521 409.561 150.4L398.855 139.539Z" fill="#0070C0"/>
<path opacity="0.4" d="M401.744 140.15C395.707 148.15 386.676 155.861 376 166.248L390.451 159.395C388.64 162.718 386.006 167.369 384.537 169.368C387.871 167.58 393.252 163.707 395.046 161.66C395.001 164.464 391.935 169.21 390.576 171.791C398.344 164.261 405.448 155.105 407.823 147.14L401.732 140.147" fill="white"/>
<path d="M308.043 181.147C308.124 183.015 308.043 186.164 306.178 187.243C303.067 189.031 300.621 184.669 299.477 182.476C298.115 179.851 298.464 176.591 301.545 175.423C305.615 173.873 307.894 177.667 308.043 181.147Z" fill="#B4DDFB"/>
<path d="M455.571 237.793C455.651 239.658 455.571 242.807 453.705 243.889C450.595 245.677 448.148 241.314 447.004 239.121C445.642 236.496 445.991 233.24 449.072 232.069C453.142 230.516 455.422 234.312 455.571 237.793Z" fill="#B4DDFB"/>
<path d="M291.51 162.649C292.949 162.649 294.117 161.482 294.117 160.042C294.117 158.602 292.949 157.435 291.51 157.435C290.07 157.435 288.902 158.602 288.902 160.042C288.902 161.482 290.07 162.649 291.51 162.649Z" fill="#B4DDFB"/>
<path d="M425.868 210.627C427.831 209.651 428.632 207.269 427.656 205.306C426.68 203.343 424.298 202.543 422.335 203.519C420.372 204.494 419.572 206.876 420.548 208.839C421.523 210.802 423.906 211.602 425.868 210.627Z" fill="#B4DDFB"/>
<path d="M447.435 269.144H255.976C251.307 269.139 246.831 267.282 243.529 263.981C240.227 260.68 238.37 256.204 238.363 251.535V134.67H465.045V251.535C465.039 256.203 463.182 260.679 459.881 263.981C456.58 267.282 452.104 269.139 447.435 269.144ZM239.099 135.415V251.535C239.105 256.006 240.884 260.293 244.046 263.455C247.208 266.616 251.495 268.395 255.967 268.399H447.435C451.907 268.395 456.193 266.616 459.355 263.455C462.517 260.293 464.295 256.006 464.3 251.535V135.415H239.099Z" fill="#666666"/>
<path d="M447.434 89.9103H255.972C253.707 89.9103 251.465 90.3565 249.372 91.2235C247.28 92.0905 245.38 93.3613 243.779 94.9631C242.178 96.565 240.909 98.4667 240.043 100.559C239.177 102.652 238.733 104.895 238.734 107.159V135.055H464.671V107.159C464.673 104.895 464.229 102.652 463.363 100.559C462.498 98.466 461.228 96.5642 459.628 94.9623C458.027 93.3603 456.126 92.0896 454.034 91.2227C451.941 90.3559 449.699 89.9099 447.434 89.9103Z" fill="white"/>
<path d="M465.045 135.415H238.363V107.16C238.369 102.49 240.226 98.014 243.528 94.7127C246.83 91.4113 251.307 89.5546 255.976 89.5499H447.435C452.104 89.5546 456.58 91.4114 459.882 94.7129C463.183 98.0143 465.04 102.491 465.045 107.16V135.415ZM239.099 134.67H464.3V107.16C464.295 102.688 462.517 98.4013 459.355 95.2396C456.193 92.0779 451.907 90.2995 447.435 90.2948H255.976C251.503 90.2972 247.213 92.0743 244.049 95.2362C240.885 98.3981 239.105 102.686 239.099 107.16V134.67Z" fill="#666666"/>
<path d="M270.745 114.345C271.783 109.23 268.477 104.241 263.361 103.203C258.246 102.165 253.257 105.471 252.219 110.586C251.181 115.702 254.487 120.69 259.602 121.728C264.718 122.766 269.707 119.461 270.745 114.345Z" fill="#B4DDFB"/>
<path d="M296.014 119.159C299.705 115.468 299.705 109.484 296.014 105.793C292.323 102.102 286.339 102.102 282.648 105.793C278.957 109.484 278.957 115.468 282.648 119.159C286.339 122.85 292.323 122.85 296.014 119.159Z" fill="white"/>
<path d="M289.333 122.299C287.388 122.299 285.487 121.722 283.87 120.642C282.253 119.561 280.993 118.026 280.248 116.229C279.504 114.432 279.31 112.455 279.689 110.548C280.068 108.64 281.005 106.888 282.38 105.513C283.755 104.138 285.507 103.202 287.414 102.822C289.322 102.443 291.299 102.638 293.096 103.382C294.892 104.126 296.428 105.386 297.508 107.003C298.589 108.62 299.166 110.521 299.166 112.466C299.166 115.074 298.13 117.575 296.286 119.419C294.442 121.263 291.941 122.299 289.333 122.299ZM289.333 103.399C287.537 103.399 285.781 103.931 284.288 104.928C282.795 105.925 281.63 107.343 280.943 109.002C280.255 110.661 280.075 112.486 280.425 114.247C280.775 116.009 281.639 117.627 282.909 118.897C284.179 120.167 285.796 121.032 287.558 121.382C289.319 121.733 291.144 121.553 292.803 120.866C294.463 120.179 295.881 119.015 296.878 117.522C297.876 116.029 298.409 114.274 298.409 112.478C298.406 110.072 297.448 107.765 295.747 106.063C294.046 104.361 291.739 103.403 289.333 103.399Z" fill="#666666"/>
<path d="M361.27 103.456H323.64C318.659 103.456 314.621 107.494 314.621 112.475V112.478C314.621 117.459 318.659 121.497 323.64 121.497H361.27C366.252 121.497 370.29 117.459 370.29 112.478V112.475C370.29 107.494 366.252 103.456 361.27 103.456Z" fill="white"/>
<path d="M361.262 121.87H323.641C321.223 121.764 318.939 120.729 317.265 118.981C315.591 117.232 314.656 114.905 314.656 112.484C314.656 110.063 315.591 107.736 317.265 105.988C318.939 104.239 321.223 103.204 323.641 103.098H361.262C363.681 103.204 365.965 104.239 367.639 105.988C369.313 107.736 370.247 110.063 370.247 112.484C370.247 114.905 369.313 117.232 367.639 118.981C365.965 120.729 363.681 121.764 361.262 121.87ZM323.632 103.828C321.341 103.828 319.143 104.739 317.522 106.359C315.902 107.98 314.991 110.178 314.991 112.469C314.991 114.761 315.902 116.959 317.522 118.579C319.143 120.2 321.341 121.11 323.632 121.11H361.262C363.554 121.11 365.752 120.2 367.372 118.579C368.993 116.959 369.903 114.761 369.903 112.469C369.903 110.178 368.993 107.98 367.372 106.359C365.752 104.739 363.554 103.828 361.262 103.828H323.632Z" fill="#666666"/>
<path d="M438.063 69.3509C422.974 82.5596 396.944 73.4568 388.863 84.0018L411.97 102.3L438.063 69.3509Z" fill="black"/>
<path d="M388.863 84.0018C388.296 85.5122 388.149 87.1478 388.436 88.7351C388.724 90.3225 389.435 91.8025 390.496 93.0182L406.884 111.79L411.985 102.315L388.863 84.0018Z" fill="#B4DDFB"/>
<path d="M472.264 96.4328C462.867 114.147 477.69 137.391 469.285 147.683L446.184 129.382L472.264 96.4328Z" fill="black"/>
<path d="M469.279 147.682C467.939 148.58 466.381 149.098 464.77 149.182C463.159 149.266 461.555 148.913 460.129 148.159L438.121 136.521L446.166 129.385L469.279 147.682Z" fill="#B4DDFB"/>
<path d="M484.001 46.6491L463.43 54.1995L481.367 68.4034L484.001 46.6491Z" fill="#1B1B43"/>
<path d="M481.364 68.4035C478.489 100.959 454.437 131.333 425.222 148.207L398.602 127.147C409.772 91.9873 430.576 66.8511 463.427 54.1996L481.364 68.4035Z" fill="#A8DBFF"/>
<path d="M398.604 127.147L387.055 135.141L420.084 161.296L425.224 148.207L398.604 127.147Z" fill="black"/>
<path d="M457.164 94.6542C463.941 93.8486 468.781 87.7019 467.976 80.9253C467.17 74.1487 461.023 69.3083 454.247 70.114C447.47 70.9196 442.63 77.0663 443.435 83.8429C444.241 90.6195 450.388 95.4599 457.164 94.6542Z" fill="white"/>
<path d="M456.638 91.138L456.561 90.396C457.275 90.3221 457.977 90.1538 458.647 89.8954L458.915 90.5897C458.183 90.8715 457.418 91.0558 456.638 91.138ZM454.314 91.0784C453.545 90.9574 452.795 90.7329 452.086 90.4109L452.384 89.7316C453.033 90.022 453.718 90.2225 454.422 90.3275L454.314 91.0784ZM460.938 89.4664L460.497 88.8705C461.07 88.4436 461.584 87.9426 462.026 87.3806L462.622 87.8425C462.136 88.4572 461.57 89.0035 460.938 89.4664ZM450.11 89.1684C449.508 88.6762 448.974 88.1049 448.525 87.47L449.121 87.038C449.534 87.619 450.023 88.1421 450.575 88.5933L450.11 89.1684ZM463.518 86.4361L462.86 86.0904C463.188 85.4578 463.432 84.7846 463.584 84.0881L464.311 84.249C464.146 85.0139 463.879 85.7534 463.518 86.448V86.4361ZM447.428 85.4111C447.16 84.6799 446.99 83.9165 446.922 83.1406L447.664 83.0751C447.725 83.7877 447.88 84.489 448.126 85.1608L447.428 85.4111ZM463.763 81.9786C463.726 81.2696 463.597 80.5684 463.378 79.8928L464.085 79.6634C464.325 80.4033 464.468 81.1717 464.508 81.9488L463.763 81.9786ZM447.774 80.9595L447.041 80.8284C447.178 80.0612 447.416 79.3157 447.75 78.6116L448.424 78.9304C448.116 79.5748 447.896 80.2571 447.768 80.9595H447.774ZM462.452 77.959C462.06 77.3633 461.591 76.8222 461.057 76.35L461.552 75.7928C462.135 76.3091 462.647 76.9002 463.074 77.5508L462.452 77.959ZM449.577 77.1396L449.011 76.6569C449.517 76.0645 450.099 75.5416 450.742 75.1016L451.162 75.7184C450.573 76.121 450.04 76.5999 449.577 77.1426V77.1396ZM459.293 75.1582C458.655 74.8405 457.978 74.6091 457.279 74.4699L457.422 73.7399C458.186 73.8909 458.927 74.1435 459.624 74.4907L459.293 75.1582ZM453.063 74.7619L452.822 74.0587C453.556 73.8028 454.322 73.6465 455.098 73.5939L455.152 74.3358C454.44 74.3871 453.737 74.5314 453.063 74.7649V74.7619Z" fill="#666666"/>
<path d="M420.514 127.448L419.928 126.983C419.059 126.296 417.798 126.443 417.111 127.311L393.943 156.573C393.256 157.441 393.402 158.702 394.27 159.39L394.857 159.854C395.725 160.541 396.986 160.395 397.674 159.526L420.841 130.265C421.529 129.396 421.382 128.135 420.514 127.448Z" fill="#1B1B43"/>
<path d="M435.869 414.956H431.399V414.211H435.869V414.956ZM426.93 414.956H422.46V414.211H426.93V414.956ZM417.991 414.956H413.521V414.211H417.991V414.956ZM409.052 414.956H404.582V414.211H409.052V414.956ZM400.113 414.956H395.644V414.211H400.113V414.956ZM391.174 414.956H386.705V414.211H391.174V414.956ZM382.235 414.956H377.766V414.211H382.235V414.956ZM373.296 414.956H368.827V414.211H373.296V414.956ZM364.357 414.956H359.888V414.211H364.357V414.956ZM355.418 414.956H350.949V414.211H355.418V414.956ZM346.48 414.956C344.947 414.942 343.427 414.683 341.977 414.187L342.219 413.484C343.593 413.953 345.034 414.198 346.486 414.211L346.48 414.956ZM436.408 414.956L436.381 414.211C437.833 414.159 439.267 413.872 440.627 413.362L440.889 414.059C439.452 414.596 437.938 414.899 436.405 414.956H436.408ZM337.949 412.039C336.73 411.11 335.669 409.991 334.805 408.725L335.419 408.305C336.238 409.505 337.244 410.566 338.399 411.449L337.949 412.039ZM444.852 411.788L444.384 411.21C445.515 410.297 446.49 409.207 447.275 407.983L447.903 408.389C447.073 409.674 446.042 410.818 444.849 411.776L444.852 411.788ZM332.866 404.59C332.505 403.317 332.322 402 332.323 400.677V400.081H333.068V400.677C333.067 401.931 333.24 403.178 333.581 404.384L332.866 404.59ZM449.721 404.196L449 404.015C449.275 402.923 449.414 401.803 449.414 400.677V399.673H450.159V400.653C450.16 401.844 450.012 403.03 449.718 404.184L449.721 404.196ZM333.065 395.588H332.32V391.119H333.065V395.588ZM450.165 395.195H449.42V390.725H450.165V395.195ZM333.065 386.649H332.32V382.18H333.065V386.649ZM450.165 386.256H449.42V381.786H450.165V386.256ZM333.065 377.71H332.32V373.241H333.065V377.71ZM450.165 377.317H449.42V372.848H450.165V377.317ZM333.065 368.771H332.32V364.302H333.065V368.771ZM450.165 368.378H449.42V363.909H450.165V368.378ZM333.065 359.832H332.32V355.363H333.065V359.832ZM450.165 359.439H449.42V354.97H450.165V359.439ZM333.065 350.894H332.32V347.914C332.32 347.403 332.347 346.893 332.401 346.385L333.143 346.466C333.092 346.947 333.066 347.43 333.065 347.914V350.894ZM450.165 350.5H449.42V347.914C449.42 347.301 449.379 346.689 449.298 346.081L450.037 345.983C450.121 346.623 450.164 347.268 450.165 347.914V350.5ZM334.296 342.291L333.616 341.993C334.254 340.599 335.112 339.316 336.158 338.194L336.703 338.704C335.709 339.76 334.893 340.971 334.287 342.288L334.296 342.291ZM448.034 341.946C447.393 340.642 446.546 339.449 445.526 338.415L446.059 337.893C447.134 338.984 448.028 340.241 448.705 341.615L448.034 341.946ZM340.112 336.028L339.755 335.376C341.099 334.638 342.554 334.124 344.063 333.853L344.194 334.586C342.765 334.844 341.386 335.331 340.112 336.028ZM442.016 335.849C440.722 335.188 439.331 334.741 437.895 334.523L438.005 333.787C439.521 334.016 440.99 334.488 442.355 335.185L442.016 335.849ZM433.488 334.36H429.018V333.615H433.488V334.36ZM424.549 334.36H420.079V333.615H424.549V334.36ZM415.61 334.36H411.141V333.615H415.61V334.36ZM406.671 334.36H402.202V333.615H406.671V334.36ZM397.732 334.36H393.263V333.615H397.732V334.36ZM388.793 334.36H384.324V333.615H388.793V334.36ZM379.854 334.36H375.385V333.615H379.854V334.36ZM370.916 334.36H366.446V333.615H370.916V334.36ZM361.977 334.36H357.507V333.615H361.977V334.36ZM353.038 334.36H348.568V333.615H353.038V334.36Z" fill="#666666"/>
<path d="M427.714 319.241H332.619C326.545 319.241 321.621 324.165 321.621 330.239V391.044C321.621 397.118 326.545 402.042 332.619 402.042H427.714C433.788 402.042 438.712 397.118 438.712 391.044V330.239C438.712 324.165 433.788 319.241 427.714 319.241Z" fill="#666666"/>
<path d="M354.655 367.606H341.977V393.353H354.655V367.606Z" fill="white"/>
<path d="M375.889 368.432H363.211V393.353H375.889V368.432Z" fill="white"/>
<path d="M397.12 355.414H384.441V393.353H397.12V355.414Z" fill="white"/>
<path d="M418.354 344.285H405.676V393.353H418.354V344.285Z" fill="white"/>
<path d="M414.18 330.903H346.152V333.877H414.18V330.903Z" fill="white"/>
<path d="M139.021 238.41C136.864 230.936 132.301 224.385 126.038 219.772L123.523 217.919L125.66 262.101L142.167 249.333L139.021 238.41Z" fill="#0070C0"/>
<path d="M192.067 291.799L188.399 284.618C187.941 283.717 187.299 282.923 186.516 282.284C185.734 281.645 184.826 281.177 183.852 280.908L173.063 277.928L145.305 260.205L142.167 249.327L125.66 262.101L125.809 265.202C125.956 268.252 126.955 271.2 128.693 273.71C130.431 276.22 132.839 278.193 135.642 279.403L162.596 291.024L175.408 291.322C179.538 292.743 180.962 296.304 183.522 295.023C184.478 294.546 180.748 288.402 180.748 288.402L186.954 295.213L192.067 291.799Z" fill="#FFBC96"/>
<path d="M144.972 259.952L141.344 264.224L141.996 264.778L145.624 260.506L144.972 259.952Z" fill="#D28572"/>
<path d="M143.785 309.688L163.981 307.9C177.127 306.741 188.563 317.355 189.204 331.314L193.766 430.778L165.909 431.642L143.785 309.688Z" fill="#3A3A3A"/>
<path d="M168.152 430.661L169.005 458.137H210.287L189.93 441.197L188.649 427.959L168.152 430.661Z" fill="#575757"/>
<path d="M189.407 440.534L180.723 447.224L181.765 448.576L190.449 441.886L189.407 440.534Z" fill="white"/>
<path d="M158.754 430.661L159.606 458.137H200.889L180.532 441.197L179.251 427.959L158.754 430.661Z" fill="#3D3D3D"/>
<path d="M180.012 440.535L171.328 447.225L172.37 448.577L181.054 441.887L180.012 440.535Z" fill="white"/>
<path d="M189.506 433.367H155.341L130.992 358.444L127.583 347.956L78.8987 347.741C75.8922 347.699 73.0139 346.308 70.5557 344.249C65.386 339.884 63.0023 333.016 63.9498 326.321L68.2226 295.854L140.547 305.258C147.238 306.126 153.493 309.057 158.442 313.644C163.391 318.23 166.788 324.244 168.163 330.85L189.506 433.367Z" fill="black"/>
<path d="M137.617 347.956L130.991 358.444L127.582 347.956H137.617Z" fill="#1B1B43"/>
<path d="M128.674 290.338C128.322 291.748 127.956 293.157 127.58 294.575L125.018 305.037L91.2796 303.637L66.9896 302.623C65.4755 302.563 63.9928 302.172 62.6449 301.48C61.2969 300.788 60.116 299.81 59.1843 298.615C58.2526 297.42 57.5926 296.036 57.2502 294.56C56.9078 293.084 56.8912 291.551 57.2015 290.067L68.5242 235.567C69.2348 231.059 71.4159 226.912 74.728 223.772C78.0402 220.633 82.2974 218.676 86.837 218.207L114.548 215.356L123.513 217.918C132.267 222.614 132.276 231.13 132.697 236.708C134.541 261.117 132.276 275.902 128.674 290.338Z" fill="#0070C0"/>
<path opacity="0.3" d="M105.802 288.595C105.453 290.005 127.958 293.157 127.583 294.576L125.02 305.037L91.2821 303.637C79.4976 294.745 75.0818 275.399 70.7852 251.159L105.802 288.595Z" fill="#1B1B43"/>
<path d="M99.0993 231.112C100.557 232.704 102.258 234.053 104.141 235.108C106 236.166 108.045 236.857 110.166 237.143C112.251 237.414 114.459 237.238 116.295 236.249C118.172 235.317 119.364 233.347 119.572 231.217L119.906 231.237C119.896 232.375 119.605 233.492 119.057 234.488C118.484 235.494 117.652 236.328 116.646 236.902C114.641 238.061 112.257 238.272 110.043 237.989C107.819 237.678 105.682 236.913 103.765 235.743C101.858 234.595 100.184 233.101 98.8281 231.336L99.0993 231.112Z" fill="#1B1B43"/>
<path d="M133.454 264.419L132.816 264.374C133.43 255.781 132.816 245.218 130.969 232.984L131.6 232.888C133.448 245.17 134.071 255.778 133.454 264.419Z" fill="#1B1B43"/>
<path d="M190.788 294.716H159.043V300.979H190.788V294.716Z" fill="#1B1B43"/>
<path d="M245.734 300.979H181.961L211.286 244.893H275.06L245.734 300.979Z" fill="#666666"/>
<path d="M106.124 170.515C98.6506 163.147 84.5569 166.243 84.7715 178.629C69.3966 182.684 68.5414 199.555 74.7331 208.202L80.0726 208.628L81.2466 202.329L84.3424 208.735L99.2912 209.698L106.124 170.515Z" fill="#1B1B43"/>
<path d="M118.611 198.059V221.598C118.611 221.813 118.611 222.018 118.584 222.224C118.493 223.372 118.152 224.486 117.586 225.488C117.019 226.491 116.24 227.357 115.303 228.027C114.366 228.696 113.295 229.153 112.163 229.365C111.031 229.577 109.867 229.538 108.751 229.253C105.319 228.368 102.281 226.36 100.121 223.549C97.9616 220.738 96.804 217.286 96.8325 213.741L96.9517 198.068L118.611 198.059Z" fill="#FFBC96"/>
<path d="M118.613 208.232V221.577C118.613 221.792 118.613 221.998 118.587 222.203C112.294 221.181 105.014 213.896 103.227 205.961L118.613 208.232Z" fill="#1B1B43"/>
<path d="M131.349 199.802C131.03 201.698 130.582 203.569 130.008 205.404C128.128 211.363 124.755 216.327 118.715 215.466C104.52 213.434 96.6211 198.81 96.6211 198.81L106.332 187.708L112.848 178.945L132.383 187.383C132.39 191.545 132.044 195.699 131.349 199.802Z" fill="#FFBC96"/>
<path d="M100.818 195.059C107.049 194.859 111.867 191.686 113.929 182.672C113.929 182.672 128.448 195.187 135.564 188.51C141.523 182.908 131.413 170.018 114.677 168.48C108.564 167.95 102.484 169.808 97.7135 173.665C89.6 180.167 88.8252 195.282 96.4054 200.514L100.818 195.059Z" fill="#1B1B43"/>
<path d="M93.5248 179.267C93.1166 177.795 93.4205 176.162 94.079 174.758C94.758 173.347 95.7593 172.115 97.0021 171.162C98.2263 170.202 99.6527 169.532 101.174 169.204C102.677 168.856 104.252 168.977 105.685 169.55C104.352 169.962 103.057 170.484 101.811 171.111C100.656 171.703 99.5588 172.401 98.5336 173.197C97.5151 173.98 96.5787 174.865 95.7387 175.837C94.854 176.879 94.1097 178.032 93.5248 179.267Z" fill="#0070C0"/>
<path d="M101.15 201.5C103.64 200.503 104.682 197.255 103.477 194.245C102.272 191.235 99.2764 189.604 96.7862 190.601C94.296 191.598 93.2542 194.846 94.4591 197.856C95.6641 200.865 98.6596 202.497 101.15 201.5Z" fill="#FFBC96"/>
<path d="M98.9488 199.293C99.0946 198.313 99.0306 197.314 98.7611 196.361C98.4631 195.467 97.888 194.662 97.2266 193.846L97.4351 193.587C97.94 193.844 98.3886 194.198 98.7549 194.63C99.1212 195.062 99.3978 195.563 99.5687 196.103C99.7395 196.643 99.8012 197.211 99.75 197.775C99.6988 198.34 99.5358 198.888 99.2706 199.388L98.9488 199.293Z" fill="#1B1B43"/>
<path d="M122.297 196.143C122.269 196.423 122.16 196.688 121.984 196.907C121.808 197.126 121.572 197.289 121.306 197.376C121.039 197.464 120.752 197.472 120.481 197.4C120.209 197.328 119.965 197.178 119.776 196.97C119.588 196.761 119.465 196.503 119.42 196.225C119.376 195.948 119.414 195.664 119.528 195.407C119.642 195.151 119.828 194.933 120.064 194.78C120.299 194.627 120.574 194.546 120.855 194.546C121.258 194.568 121.635 194.748 121.906 195.047C122.176 195.346 122.317 195.741 122.297 196.143Z" fill="#1B1B43"/>
<path d="M129.857 197.401C129.801 197.644 129.676 197.866 129.497 198.04C129.318 198.214 129.092 198.332 128.847 198.38C128.602 198.428 128.349 198.404 128.117 198.311C127.885 198.218 127.686 198.059 127.543 197.855C127.399 197.65 127.318 197.409 127.309 197.159C127.301 196.91 127.364 196.663 127.493 196.449C127.621 196.235 127.809 196.063 128.034 195.954C128.258 195.845 128.509 195.803 128.757 195.833C129.11 195.897 129.424 196.097 129.63 196.391C129.836 196.684 129.917 197.047 129.857 197.401Z" fill="#1B1B43"/>
<path d="M122.212 192.136C122.268 192.881 121.077 192.952 119.316 193.006C117.555 193.059 116.336 193.602 116.336 193.128C116.336 192.654 117.623 191.444 119.357 191.152C121.139 190.848 122.14 191.248 122.212 192.136Z" fill="#1B1B43"/>
<path d="M127.829 192.854C127.698 193.59 128.577 193.777 129.876 194.007C131.175 194.236 132.016 194.901 132.081 194.427C132.147 193.953 131.321 192.639 130.067 192.163C128.813 191.686 127.981 191.978 127.829 192.854Z" fill="#1B1B43"/>
<path d="M125.734 198.727C126.071 199.123 126.434 199.499 126.818 199.85L127.393 200.386C127.623 200.584 127.823 200.812 127.989 201.066C128.097 201.237 128.16 201.433 128.171 201.635C128.181 201.843 128.132 202.049 128.031 202.231C127.859 202.513 127.623 202.752 127.343 202.928C126.852 203.224 126.309 203.421 125.743 203.506L125.62 203.208C126.062 202.945 126.487 202.654 126.893 202.338C127.054 202.205 127.189 202.042 127.289 201.858C127.358 201.718 127.337 201.671 127.259 201.504C127.068 201.206 126.586 200.777 126.267 200.345C125.905 199.912 125.622 199.42 125.43 198.891L125.734 198.727Z" fill="#1B1B43"/>
<path d="M118.506 203.998C119.379 204.996 120.293 205.916 121.378 206.5C122.493 207.085 123.764 207.305 125.01 207.129L125.1 207.451C124.452 207.743 123.744 207.877 123.035 207.841C122.312 207.804 121.607 207.6 120.976 207.245C119.755 206.541 118.791 205.466 118.223 204.176L118.506 203.998Z" fill="#1B1B43"/>
<path opacity="0.2" d="M113.384 203.077C115.331 203.077 116.909 201.499 116.909 199.552C116.909 197.605 115.331 196.027 113.384 196.027C111.438 196.027 109.859 197.605 109.859 199.552C109.859 201.499 111.438 203.077 113.384 203.077Z" fill="#FE5B52"/>
<path opacity="0.2" d="M131.346 199.802C131.027 201.698 130.579 203.569 130.005 205.404C129.632 204.98 129.365 204.473 129.229 203.925C129.093 203.377 129.09 202.804 129.222 202.255C129.353 201.706 129.615 201.196 129.984 200.77C130.354 200.343 130.821 200.011 131.346 199.802Z" fill="#FE5B52"/>
<path d="M91.142 241.475L70.7852 251.156L77.1675 266.29L98.5136 256.448L91.142 241.475Z" fill="#0070C0"/>
<path d="M166.547 293.965C165.983 293.667 165.629 293.491 165.629 293.491L165.832 293.089C165.832 293.089 166.21 293.27 166.755 293.562L166.547 293.965Z" fill="#A8DBFF"/>
<path d="M174.986 296.068C174.328 297.367 169.289 295.07 166.941 293.917C168.759 294.924 171.893 296.897 170.502 297.99C169.384 298.854 166.905 297.016 158.792 293.652C160.022 294.233 167.275 297.683 165.445 298.988C163.455 300.407 154.915 297.281 154.915 297.281L147.508 301.262H138.983L108.251 301.458C106.329 301.465 104.414 301.224 102.554 300.74C98.8804 299.78 95.4671 298.012 92.5635 295.565C90.7376 294.026 89.1412 292.234 87.8229 290.243C86.8279 288.744 85.9779 287.154 85.2843 285.494L77.1797 266.296L98.5079 256.439L109.646 279.049L146.373 287.025L156.623 284.463C158.828 283.908 161.944 284.841 163.884 286.027C168.616 288.917 175.6 294.829 174.986 296.068Z" fill="#FFBC96"/>
<path opacity="0.2" d="M103.097 297.558C103.099 298.641 102.91 299.717 102.54 300.735C98.866 299.774 95.4528 298.006 92.5492 295.559C90.7232 294.02 89.1269 292.228 87.8086 290.237C89.1895 289.126 90.8564 288.429 92.6169 288.224C94.3773 288.02 96.1597 288.318 97.7581 289.084C99.3566 289.849 100.706 291.051 101.651 292.55C102.595 294.05 103.097 295.786 103.097 297.558Z" fill="#FE5B52"/>
<path d="M146.32 286.87C148.86 286.013 151.446 285.303 154.067 284.743C155.388 284.455 156.727 284.265 158.075 284.174C158.763 284.132 159.452 284.15 160.137 284.227C160.48 284.296 160.822 284.385 161.165 284.466C161.508 284.546 161.808 284.713 162.13 284.835C164.63 285.967 166.805 287.588 168.912 289.254C171.019 290.919 173.003 292.734 174.934 294.617L175.023 294.704L175.041 294.814C175.121 295.211 175.049 295.624 174.838 295.97C174.717 296.14 174.558 296.28 174.374 296.378C174.212 296.479 174.03 296.543 173.84 296.566C173.196 296.644 172.542 296.58 171.924 296.378C170.777 296.02 169.667 295.553 168.608 294.984C167.562 294.426 166.522 293.845 165.533 293.217C164.544 292.588 163.552 291.941 162.553 291.304L163.006 290.58C164.757 291.603 166.448 292.724 168.072 293.938C168.912 294.551 169.681 295.258 170.363 296.044C170.547 296.272 170.696 296.525 170.807 296.795C170.874 296.961 170.909 297.138 170.908 297.317C170.902 297.534 170.826 297.743 170.691 297.913C170.461 298.163 170.157 298.332 169.824 298.395C169.553 298.456 169.278 298.495 169.001 298.512H168.918L168.825 298.473L159.556 294.599L159.833 293.947C161.301 294.602 162.717 295.367 164.07 296.235C164.731 296.706 165.426 297.129 165.914 297.951C165.984 298.074 166.026 298.211 166.039 298.352C166.052 298.492 166.035 298.634 165.989 298.768C165.883 299.018 165.687 299.22 165.441 299.334C165.041 299.523 164.605 299.625 164.162 299.632C162.503 299.671 160.941 299.28 159.395 298.899C157.849 298.517 156.332 298.005 154.833 297.466L154.946 297.15C156.436 297.653 157.968 298.094 159.502 298.461C161.037 298.827 162.61 299.143 164.133 299.057C164.86 299.027 165.727 298.708 165.372 298.228C165.038 297.668 164.35 297.192 163.721 296.771C162.387 295.943 160.993 295.216 159.55 294.596L159.83 293.944L169.135 297.746L168.96 297.716C169.184 297.702 169.407 297.67 169.627 297.621C169.789 297.593 169.941 297.521 170.065 297.412C170.193 297.358 170.02 296.9 169.728 296.557C169.091 295.819 168.372 295.155 167.586 294.578C165.984 293.391 164.316 292.297 162.589 291.301L163.039 290.58C164.022 291.208 164.976 291.888 165.974 292.484C166.972 293.08 167.97 293.676 168.989 294.233C169.995 294.779 171.051 295.229 172.142 295.577C172.638 295.744 173.164 295.805 173.685 295.755L173.849 295.729C173.893 295.71 173.936 295.688 173.977 295.663C174.076 295.636 174.105 295.556 174.171 295.508C174.26 295.343 174.292 295.154 174.263 294.969L174.371 295.165C172.482 293.3 170.497 291.512 168.441 289.823C166.385 288.133 164.24 286.527 161.886 285.419L160.992 285.058C160.694 284.984 160.378 284.898 160.068 284.832C159.424 284.752 158.774 284.727 158.126 284.758C156.803 284.823 155.487 284.983 154.187 285.234C151.569 285.732 148.982 286.38 146.44 287.177L146.32 286.87Z" fill="#D28572"/>
<path d="M77.2994 266.585L77.0312 266.004L98.0913 256.284L89.3193 235.758L89.9092 235.504L98.9256 256.609L77.2994 266.585Z" fill="#1B1B43"/>
<path d="M80.3088 356.498H79.1914V452.728H80.3088V356.498Z" fill="#1B1B43"/>
<path d="M106.654 347.53H52.8473C49.1908 347.53 46.2266 350.493 46.2266 354.149C46.2266 357.805 49.1908 360.768 52.8473 360.768H106.654C110.31 360.768 113.274 357.805 113.274 354.149C113.274 350.493 110.31 347.53 106.654 347.53Z" fill="#B4DDFB"/>
<path d="M67.0721 447.943H92.4348C95.0742 447.943 97.6055 448.992 99.4719 450.858C101.338 452.725 102.387 455.256 102.387 457.895V458.989H57.1172V457.895C57.1172 456.588 57.3747 455.294 57.875 454.086C58.3753 452.879 59.1087 451.781 60.0331 450.857C60.9575 449.933 62.055 449.2 63.2628 448.7C64.4705 448.2 65.765 447.943 67.0721 447.943Z" fill="#B4DDFB"/>
<path d="M144.859 306.837L143.914 307.433L239.297 458.606L240.242 458.009L144.859 306.837Z" fill="#1B1B43"/>
<path d="M239.3 306.854L143.891 458.009L144.836 458.606L240.245 307.45L239.3 306.854Z" fill="#1B1B43"/>
<path d="M275.626 300.979H108.504V313.583H275.626V300.979Z" fill="#B4DDFB"/>
<path d="M122.517 100.041C115.609 100.039 108.858 97.9883 103.116 94.1491C97.3734 90.3098 92.8986 84.854 90.2568 78.4717C87.6151 72.0894 86.9251 65.067 88.2741 58.2926C89.6232 51.5182 92.9506 45.2958 97.8358 40.4123C102.721 35.5289 108.944 32.2036 115.719 30.8568C122.494 29.5101 129.516 30.2025 135.898 32.8464C142.279 35.4903 147.733 39.9671 151.571 45.7106C155.408 51.4541 157.456 58.2064 157.456 65.1139C157.446 74.3761 153.761 83.2558 147.211 89.8041C140.66 96.3523 131.779 100.034 122.517 100.041ZM122.517 30.9345C115.756 30.9339 109.147 32.9382 103.525 36.694C97.9034 40.4498 93.5217 45.7883 90.9341 52.0344C88.3466 58.2806 87.6694 65.1538 88.9883 71.7848C90.3071 78.4158 93.5627 84.5068 98.3434 89.2874C103.124 94.0681 109.215 97.3237 115.846 98.6426C122.477 99.9614 129.35 99.2842 135.596 96.6967C141.842 94.1091 147.181 89.7274 150.937 84.1057C154.693 78.484 156.697 71.8748 156.696 65.1139C156.686 56.0521 153.082 47.3644 146.674 40.9567C140.266 34.5491 131.579 30.9447 122.517 30.9345Z" fill="#666666"/>
<path d="M146.136 89.4306C167.122 89.4306 184.135 72.4178 184.135 51.4313C184.135 30.4449 167.122 13.4321 146.136 13.4321C125.15 13.4321 108.137 30.4449 108.137 51.4313C108.137 72.4178 125.15 89.4306 146.136 89.4306Z" fill="#B4DDFB"/>
<path d="M146.148 52.1495L125.082 35.6364L125.773 34.7544L146.124 50.7103L157.471 41.101L158.192 41.9532L146.148 52.1495Z" fill="#1B1B43"/>
<path d="M47.5202 133.38H28.2241C26.7329 133.38 25.3028 133.973 24.2484 135.027C23.1939 136.082 22.6016 137.512 22.6016 139.003V158.299C22.6016 159.79 23.1939 161.22 24.2484 162.275C25.3028 163.329 26.7329 163.922 28.2241 163.922H41.993L47.9285 172.116V163.901C49.3447 163.799 50.6699 163.165 51.6373 162.125C52.6048 161.086 53.1427 159.719 53.1428 158.299V139.003C53.1428 137.512 52.5504 136.082 51.496 135.027C50.4416 133.973 49.0114 133.38 47.5202 133.38Z" fill="white"/>
<path d="M48.3023 173.266L41.8037 164.294H28.2255C26.636 164.292 25.112 163.66 23.9881 162.536C22.8642 161.412 22.232 159.888 22.2305 158.299V139.003C22.232 137.413 22.8642 135.889 23.9881 134.765C25.112 133.642 26.636 133.009 28.2255 133.008H47.5216C49.1108 133.01 50.6343 133.643 51.7581 134.766C52.8819 135.89 53.5143 137.414 53.5166 139.003V158.299C53.5109 159.752 52.9797 161.153 52.0213 162.244C51.0629 163.336 49.7419 164.044 48.3023 164.237V173.266ZM28.2255 133.753C26.8333 133.754 25.4984 134.307 24.514 135.291C23.5296 136.276 22.9762 137.611 22.9754 139.003V158.299C22.9762 159.691 23.5296 161.026 24.514 162.01C25.4984 162.995 26.8333 163.548 28.2255 163.549H42.1851L47.5484 170.965V163.555L47.8941 163.528C49.2145 163.429 50.4489 162.835 51.3512 161.866C52.2535 160.897 52.7575 159.623 52.7628 158.299V139.003C52.7612 137.611 52.2076 136.276 51.2233 135.292C50.2391 134.308 48.9046 133.754 47.5127 133.753H28.2255Z" fill="#666666"/>
<path d="M37.481 158.582L29.7578 147.423L31.5933 146.154L37.2784 154.363L45.8389 139.042L47.7906 140.132L37.481 158.582Z" fill="#666666"/>
<path d="M472.834 457.874H15.0312V458.992H472.834V457.874Z" fill="#1B1B43"/>
</svg>
