<svg width="678" height="394" viewBox="0 0 678 394" fill="none" xmlns="http://www.w3.org/2000/svg">
<path d="M671.585 253.848C655.805 212.795 613.143 181.361 611.751 137.579C611.192 119.698 617.901 102.137 617.148 84.266C615.562 46.5921 580.636 16.8925 543.337 5.98021C492.871 -8.73152 434.783 4.24617 396.149 38.9049C377.528 55.5715 362.798 77.0427 340.354 88.4741C307.483 105.207 266.76 95.9404 233.455 80.0358C212.917 70.228 193.269 57.9462 171.031 52.6115C140.396 45.2667 106.508 52.49 81.5317 71.1668C56.5554 89.8437 40.8211 119.488 39.1324 149.972C38.5734 160.199 39.4747 170.615 36.8505 180.544C32.412 197.575 18.5147 210.586 10.0029 226.104C-2.993 249.817 -2.68493 279.119 7.23029 304.169C12.7639 318.184 19.8894 331.56 28.4756 344.052C50.8048 375.839 95.2008 396.515 138.422 393.753C182.281 390.948 223.323 372.879 265.802 361.955C342.21 342.481 422.945 346.108 497.161 372.349C517.3 379.528 537.096 388.408 558.375 391.125C594.396 395.764 632.449 380.952 655.109 353.451C677.769 325.949 684.295 286.817 671.585 253.848Z" fill="#F0F0F0"/>
</svg>
