<svg width="499" height="503" viewBox="0 0 499 503" fill="none" xmlns="http://www.w3.org/2000/svg">
<path fill-rule="evenodd" clip-rule="evenodd" d="M145.967 187.901C145.967 145.644 181.55 111.386 225.445 111.386C269.34 111.386 304.922 145.644 304.922 187.901C304.922 230.158 269.34 264.415 225.445 264.415C181.55 264.415 145.967 230.158 145.967 187.901Z" fill="#FFE3D8"/>
<path fill-rule="evenodd" clip-rule="evenodd" d="M262.492 335.152C262.492 272.233 313.969 221.226 377.466 221.226C440.965 221.226 492.441 272.233 492.441 335.152C492.441 398.072 440.965 449.078 377.466 449.078C313.969 449.078 262.492 398.072 262.492 335.152Z" fill="#FFE3D8"/>
<path d="M425.619 11.4766V14.5132" stroke="#F69571" stroke-width="1.5" stroke-linecap="round" stroke-linejoin="round"/>
<path d="M425.619 37.759V40.7956" stroke="#F69571" stroke-width="1.5" stroke-linecap="round" stroke-linejoin="round"/>
<path d="M413.89 26.659L410.854 26.6605" stroke="#F69571" stroke-width="1.5" stroke-linecap="round" stroke-linejoin="round"/>
<path d="M441.271 26.4495L438.234 26.451" stroke="#F69571" stroke-width="1.5" stroke-linecap="round" stroke-linejoin="round"/>
<path d="M436.548 15.8134L434.27 17.8202" stroke="#F69571" stroke-width="1.5" stroke-linecap="round" stroke-linejoin="round"/>
<path d="M417.126 33.6666L414.848 35.6735" stroke="#F69571" stroke-width="1.5" stroke-linecap="round" stroke-linejoin="round"/>
<path d="M414.848 16.2323L417.126 18.2391" stroke="#F69571" stroke-width="1.5" stroke-linecap="round" stroke-linejoin="round"/>
<path d="M434.012 34.6089L436.29 36.6159" stroke="#F69571" stroke-width="1.5" stroke-linecap="round" stroke-linejoin="round"/>
<path d="M430.32 37.1155L431.601 39.8684" stroke="#F69571" stroke-width="1.5" stroke-linecap="round" stroke-linejoin="round"/>
<path d="M419.848 12.9797L421.13 15.7326" stroke="#F69571" stroke-width="1.5" stroke-linecap="round" stroke-linejoin="round"/>
<path d="M420.816 36.749L419.533 39.5019" stroke="#F69571" stroke-width="1.5" stroke-linecap="round" stroke-linejoin="round"/>
<path d="M431.81 12.4561L430.527 15.2091" stroke="#F69571" stroke-width="1.5" stroke-linecap="round" stroke-linejoin="round"/>
<path d="M439.852 20.7992L437.039 21.9444" stroke="#F69571" stroke-width="1.5" stroke-linecap="round" stroke-linejoin="round"/>
<path d="M411.961 21.0085L414.774 22.1538" stroke="#F69571" stroke-width="1.5" stroke-linecap="round" stroke-linejoin="round"/>
<path d="M411.908 31.1066L414.721 29.9614" stroke="#F69571" stroke-width="1.5" stroke-linecap="round" stroke-linejoin="round"/>
<path d="M439.642 31.6824L436.83 30.5372" stroke="#F69571" stroke-width="1.5" stroke-linecap="round" stroke-linejoin="round"/>
<path fill-rule="evenodd" clip-rule="evenodd" d="M0 480.273C0 467.841 100.784 457.762 225.109 457.762C349.432 457.762 450.216 467.841 450.216 480.273C450.216 492.705 349.432 502.783 225.109 502.783C100.784 502.783 0 492.705 0 480.273Z" fill="#ECE3D8"/>
<path fill-rule="evenodd" clip-rule="evenodd" d="M218.454 406.617C216.592 407.698 197.103 403.823 186.693 398.298C173.413 391.249 166.453 383.755 167.376 378.417C168.299 373.079 188.045 390.945 196.886 395.481C209.704 402.059 217.104 404.228 217.104 404.228C217.104 404.228 222.703 379.454 224.139 376.306C229.659 364.211 237.367 347.609 243.787 348.395C250.461 349.212 244.531 358.844 242.109 362.864C236.485 372.199 230.893 381.937 225.631 391.772C223.325 396.081 220.317 405.536 218.454 406.617Z" fill="#F69571"/>
<path fill-rule="evenodd" clip-rule="evenodd" d="M209.602 387.164C209.327 389.949 185.607 379.966 183.239 379.176C178.427 377.572 157.367 366.584 156.347 358.498C155.081 348.46 163.09 354.044 172.331 362.099C181.572 370.153 207.711 383.869 207.711 383.869C207.711 383.869 210.512 370.346 212.694 362.488C215.169 353.577 219.327 345.641 227.738 337.03C229.079 335.657 234.639 331.783 236.712 333.956C239.172 336.537 232.275 346.286 230.688 349.048C225.994 357.216 209.877 384.38 209.602 387.164Z" fill="#F69571"/>
<path fill-rule="evenodd" clip-rule="evenodd" d="M199.041 362.661C196.366 363.865 196.128 363.218 180.285 350.51C174.149 345.588 163.684 336.995 159.216 329.382C158.405 327.998 155.656 321.429 157.316 319.318C158.871 317.342 163.957 319.681 167.021 323.176C173.262 330.294 176.3 334.583 182.169 342.088C182.857 342.966 196.995 360.63 198.439 359.714C198.439 359.714 201.218 348.706 204.119 341.933C205.377 338.998 208.049 329.282 213.394 322.981C215.114 320.953 223.625 310.896 225.443 317.401C227.084 323.276 219.029 331.755 216.194 335.626C210.626 343.228 201.554 361.529 199.041 362.661Z" fill="#F69571"/>
<path fill-rule="evenodd" clip-rule="evenodd" d="M165.384 307.571C163.559 304.774 160.066 298.589 163.067 297.771C169.268 296.084 178.338 312.904 181.069 317.557C184.756 323.84 191.541 334.277 191.541 334.277C191.541 334.277 195.899 320.874 197.834 317.934C204.412 307.937 215.311 299.637 219.935 303.001C223.448 305.556 219.63 308.304 217.756 310.018C211.171 316.043 207.222 318.891 201.495 325.912C199.254 328.659 194.039 337.742 191.847 338.177C191.106 338.325 175.526 323.122 165.384 307.571Z" fill="#F69571"/>
<path fill-rule="evenodd" clip-rule="evenodd" d="M189.129 312.532C185.188 317.473 163.683 278.204 173.26 270.588C176.685 267.865 178.749 279.264 181.758 290.838C184.105 299.863 187.857 309.471 187.857 309.471C187.857 309.471 202.001 293.431 205.37 290.805C211.322 286.165 216.069 288.581 214.6 292.086C211.604 299.229 194.196 306.179 189.129 312.532Z" fill="#F69571"/>
<path fill-rule="evenodd" clip-rule="evenodd" d="M188.685 291C185.929 290.365 174.411 256.008 182.636 256.586C187.361 256.92 188.158 269.009 188.556 277.672C188.764 282.176 189.246 287.072 189.246 287.072C189.246 287.072 194.812 281.102 202.413 276.321C209.999 271.548 214.541 271.369 215.415 276.18C216.29 280.989 191.439 291.636 188.685 291Z" fill="#F69571"/>
<path fill-rule="evenodd" clip-rule="evenodd" d="M194.505 271.094C193.512 270.223 197.065 262.924 199.6 258.172C208.693 241.119 227.95 243.584 209.989 256.97C206.734 259.397 195.497 271.964 194.505 271.094Z" fill="#F69571"/>
<path fill-rule="evenodd" clip-rule="evenodd" d="M397.586 200.854C397.586 200.854 390.039 199.453 388.459 198.353C379.885 192.387 382.055 187.088 379.701 176.52C379.603 176.082 378.443 169.384 377.677 167.234C377.206 165.914 384.319 172.578 384.799 173.258C388.814 178.952 394.849 177.756 398.215 186.105C399.04 188.152 398.668 195.983 399.26 196.146C399.26 196.146 406.195 190.549 406.526 190.385C414.563 186.405 418.146 187.82 427.228 187.79C427.883 187.787 435.74 186.569 437.545 186.693C438.535 186.762 432.823 192.021 432.213 192.654C426.049 199.067 417.528 201.556 410.845 203.432C404.163 205.308 397.586 200.854 397.586 200.854Z" fill="#F69571"/>
<path fill-rule="evenodd" clip-rule="evenodd" d="M382.296 228.917C370.287 225.383 363.539 214.11 363.784 204.308C363.81 203.294 363.444 192.467 364.755 191.947C365.682 191.58 369.678 196.298 370.284 196.802C375.788 201.373 384.091 207.901 385.517 215.19C386.072 218.029 386.203 223.841 386.203 223.841C386.203 223.841 390.372 219.189 393.257 218.229C400.978 215.66 409.064 214.994 417.15 214.87C418.752 214.846 423.536 213.527 424.675 214.473C424.764 214.546 420.108 221.001 412.522 226.801C402.78 234.249 394.244 232.433 382.296 228.917Z" fill="#F69571"/>
<path fill-rule="evenodd" clip-rule="evenodd" d="M411.488 175.229C409.138 176.174 403.419 172.774 402.112 171.337C396.545 165.217 395.16 157.429 394.573 149.85C394.521 149.168 393.544 142.865 394.147 142.476C394.697 142.121 400.383 146.625 400.838 146.91C405.732 149.974 411.229 155.805 412.591 161.252C412.792 162.055 414.13 169.834 414.13 169.834C414.13 169.834 418.669 165.949 420.143 165.129C426.21 161.758 434.736 160.439 441.709 161.062C442.512 161.134 447.146 160.601 447.552 161.435C447.92 162.189 442.723 166.02 442.313 166.478C436.796 172.643 425.842 178.016 421.619 178.367C417.398 178.72 411.603 175.183 411.488 175.229Z" fill="#F69571"/>
<path fill-rule="evenodd" clip-rule="evenodd" d="M423.858 149.503C423.858 149.503 413.031 150.346 408.575 143.241C404.118 136.135 405.873 132.388 404.675 129.868C404.603 129.719 400.974 121.444 401.34 121.278C402.94 120.548 406.807 124.105 407.577 124.732C413.203 129.312 419.169 132.115 423.107 138.285C424.365 140.256 424.671 145.03 424.671 145.03C424.671 145.03 424.953 144.137 425.179 143.72C426.367 141.542 428.04 139.407 430.242 138.015C436.595 133.998 442.617 133.654 449.782 132.336C450.607 132.185 454.61 131.099 455.222 131.596C455.842 132.102 452.895 134.077 451.053 135.845C449.211 137.611 448.919 138.632 444.96 143.185C441 147.738 438.303 149.583 434.138 150.752C429.974 151.922 423.858 149.503 423.858 149.503Z" fill="#F69571"/>
<path fill-rule="evenodd" clip-rule="evenodd" d="M426.592 99.4525C418.248 103.158 410.492 96.817 408.379 93.562C407.053 91.5217 405.68 90.2136 404.791 87.9417C404.495 87.1893 403.118 85.2953 403.839 85.7119C408.647 88.4874 415.921 89.2963 420.106 90.994C424.289 92.6918 425.905 95.7466 425.905 95.7466C425.905 95.7466 427.863 93.3948 430.483 89.2387C433.102 85.0825 431.909 76.8448 433.603 78.112C435.299 79.3793 438.942 84.398 439 89.4968C439.032 92.434 436.714 95.1819 435.466 96.7335C432.051 100.978 426.592 99.4525 426.592 99.4525Z" fill="#F69571"/>
<path fill-rule="evenodd" clip-rule="evenodd" d="M427.334 123.592C420.619 126.845 411.364 118.839 408.123 114.416C407.839 114.027 403.383 106.945 403.704 106.721C405.098 105.753 409.616 108.002 410.757 108.259C415.004 109.217 420.574 109.675 424.302 112.316C425.792 113.372 426.419 115.472 427.161 117.401C427.902 119.328 428.114 121.771 428.095 120.818C428.038 117.727 431.682 112.181 436.669 109.015C443.136 104.909 451.347 103.586 451.302 104.205C451.225 105.3 449.124 108.043 447.492 110.153C445.822 112.314 441.695 120.209 439.414 121.794C435.149 124.759 427.334 123.592 427.334 123.592Z" fill="#F69571"/>
<path fill-rule="evenodd" clip-rule="evenodd" d="M377.272 248.662C377.272 248.662 376.134 244.15 371.303 240.425C366.473 236.699 358.742 230.943 352.599 225.906C352.161 225.547 347.43 220.56 346.348 220.782C343.854 221.294 346.103 231.111 346.312 232.002C346.798 234.095 347.004 235.961 347.829 237.976C351.175 246.158 356.15 252.442 364.925 255.654C369.729 257.413 374.88 255.586 374.88 255.586C374.88 255.586 383.042 259.676 392.24 259.189C398.607 258.852 405.352 253.677 409.792 248.99C412.043 246.612 421.54 241.752 423.393 240.313C425.247 238.873 414.294 238.698 413.307 238.823C404.711 239.906 392.632 238.134 386.828 241.037C381.027 243.939 377.272 248.662 377.272 248.662Z" fill="#F69571"/>
<path fill-rule="evenodd" clip-rule="evenodd" d="M374.312 277.987C374.312 277.987 373.135 272.96 367.521 269.71C361.906 266.459 351.694 264.66 344.206 261.282C342.081 260.322 339.12 259.451 337.29 258.055C336.126 257.165 333.814 255.371 333.814 255.371C333.814 255.371 334.784 257.679 335.07 258.89C335.699 261.536 336.626 264.133 337.675 266.653C341.243 275.227 348.865 282.994 358.604 285.852C362.14 286.89 366.264 287.038 369.761 285.49C370.881 284.995 373.678 283.255 373.678 283.255C373.678 283.255 379.858 286.424 384.335 286.436C393.104 286.458 403.858 279.858 408.628 273.599C410.712 270.865 411.804 269.325 414.421 266.953C414.883 266.535 418.935 262.955 418.495 262.352C418.306 262.09 416.625 262.874 416.327 262.958C413.403 263.774 410.769 264.27 407.803 264.693C398.197 266.066 389.562 264.914 381.24 270.93C378.762 272.72 374.312 277.987 374.312 277.987Z" fill="#F69571"/>
<path fill-rule="evenodd" clip-rule="evenodd" d="M420.033 82.9938C414.049 78.274 415.269 70.4327 415.886 64.0029C415.977 63.0597 415.035 58.7729 414.809 57.1505C414.584 55.528 420.921 61.6983 421.41 62.4694C424.153 66.7931 426.077 68.3372 426.517 73.6482C426.591 74.5529 426.561 76.7157 426.235 78.35C425.908 79.9844 424.661 86.6453 420.033 82.9938Z" fill="#F69571"/>
<path d="M422.97 83.727C422.97 83.727 433.448 120.227 425.444 144.944C417.442 169.663 408.366 178.428 392.428 208.016C364.815 259.277 376.214 308.579 376.214 308.579" stroke="#F69571" stroke-width="1.5" stroke-linecap="round" stroke-linejoin="round"/>
<path d="M198.744 264.38C189.48 274.752 188.239 291.187 187.622 304.368C186.224 334.228 200.546 371.898 214.923 398.379C224.393 415.822 240.026 426.457 245.956 445.41" stroke="#F69571" stroke-width="1.5" stroke-linecap="round" stroke-linejoin="round"/>
<path fill-rule="evenodd" clip-rule="evenodd" d="M380.423 452.69C377.036 452.876 354.558 434.543 345.504 420.139C333.95 401.757 331.142 387.05 336.92 380.544C342.7 374.037 353.569 411.228 361.394 423.256C372.739 440.696 380.678 448.588 380.678 448.588C380.678 448.588 409.239 419.278 413.827 416.043C431.459 403.616 450.194 394.825 454.41 402.614C458.625 410.404 417.955 428.124 402.595 437.707C395.865 441.905 383.809 452.503 380.423 452.69Z" fill="#FF4500"/>
<path fill-rule="evenodd" clip-rule="evenodd" d="M383.04 411.73C380.684 415.276 362.575 386.104 360.614 383.469C356.628 378.116 342.122 349.368 347.01 337.857C353.079 323.564 357.554 336.379 361.527 353.324C365.499 370.27 383.445 406.056 383.445 406.056C383.445 406.056 396.466 389.801 404.628 380.728C413.882 370.438 424.224 362.574 439.639 356.64C442.097 355.692 450.941 354.205 451.56 358.497C452.295 363.594 437.666 372.062 433.915 374.705C422.825 382.523 385.396 408.182 383.04 411.73Z" fill="#FF4500"/>
<path fill-rule="evenodd" clip-rule="evenodd" d="M389.344 370.162C385.578 369.995 385.8 368.969 378.175 341.392C375.223 330.71 370.332 312.229 371.164 299.052C371.316 296.66 373.223 286.027 376.572 284.305C379.704 282.692 383.44 289.215 384.147 295.937C385.588 309.631 385.678 317.4 386.435 331.362C386.523 332.999 388.648 366.08 390.877 365.814C390.877 365.814 402.013 352.915 410.142 345.775C413.667 342.679 423.731 331.441 434.139 326.558C437.488 324.987 454.082 317.183 451.22 327.109C448.636 336.073 433.702 342.069 427.79 345.365C416.179 351.841 392.882 370.32 389.344 370.162Z" fill="#FF4500"/>
<path fill-rule="evenodd" clip-rule="evenodd" d="M392.139 271.076C392.248 266.115 393.071 255.501 396.901 256.405C404.814 258.273 402.117 286.848 401.607 294.902C400.921 305.776 400.49 324.277 400.49 324.277C400.49 324.277 412.803 310.743 424.873 304.814C440.173 297.298 452.301 297.488 452.764 302.79C453.225 308.091 428.733 314.107 417.382 319.699C412.94 321.887 400.612 330.584 397.934 329.707C397.027 329.41 391.531 298.666 392.139 271.076Z" fill="#FF4500"/>
<path fill-rule="evenodd" clip-rule="evenodd" d="M415.248 289.864C407.356 293.861 413.302 226.925 429.232 223.101C434.93 221.733 428.713 238.378 423.382 255.89C419.224 269.544 416.147 284.915 416.147 284.915C416.147 284.915 433.699 274.411 448.42 270.984C463.143 267.556 469.298 271.93 467.469 276.826C466.089 280.518 458.871 280.314 448.773 281.839C436.547 283.684 420.808 287.052 415.248 289.864Z" fill="#FF4500"/>
<path fill-rule="evenodd" clip-rule="evenodd" d="M433.733 255.692C431.241 253.005 444.287 199.304 452.7 205.559C457.533 209.151 449.443 225.879 443.459 237.749C440.348 243.921 437.244 250.804 437.244 250.804C437.244 250.804 447.645 246.512 459.353 245.167C471.041 243.825 480.72 243.341 478.148 249.897C475.578 256.451 436.224 258.379 433.733 255.692Z" fill="#FF4500"/>
<path fill-rule="evenodd" clip-rule="evenodd" d="M456.088 231.34C455.667 229.513 464.887 222.101 471.128 217.421C493.524 200.63 512.401 216.758 483.186 222.731C477.891 223.814 456.51 233.168 456.088 231.34Z" fill="#FF4500"/>
<path d="M464.246 226.723C446.611 234.451 433.112 255.643 422.695 272.891C399.094 311.967 386.609 371.974 382.464 417.028C381.004 432.897 382.88 447.333 383.771 461.817" stroke="#F69571" stroke-width="1.5" stroke-linecap="round" stroke-linejoin="round"/>
<path fill-rule="evenodd" clip-rule="evenodd" d="M230.924 421.326C229.283 422.461 211.891 422.246 202.552 419.385C190.637 415.732 184.338 410.793 185.08 406.411C185.823 402.027 203.646 413.335 211.576 415.642C223.076 418.988 229.69 419.623 229.69 419.623C229.69 419.623 234.308 399.087 235.54 396.37C240.274 385.933 246.888 371.587 252.61 371.268C258.558 370.935 253.424 379.473 251.328 383.027C246.461 391.284 241.629 399.857 237.092 408.456C235.104 412.225 232.565 420.191 230.924 421.326Z" fill="#F69571"/>
<path fill-rule="evenodd" clip-rule="evenodd" d="M216.193 284.122C216.193 284.122 224.95 283.081 226.866 281.927C237.266 275.673 235.336 269.36 239.111 257.289C239.268 256.788 241.283 249.113 242.378 246.679C243.051 245.185 234.246 252.363 233.629 253.114C228.461 259.405 221.695 257.552 216.994 266.973C215.842 269.283 215.459 278.391 214.767 278.533C214.767 278.533 207.427 271.509 207.067 271.293C198.305 266.056 194.07 267.422 183.706 266.685C182.961 266.633 174.12 264.613 172.046 264.617C170.908 264.62 176.888 271.158 177.517 271.94C183.892 279.852 193.361 283.396 200.793 286.088C208.227 288.779 216.193 284.122 216.193 284.122Z" fill="#F06937"/>
<path fill-rule="evenodd" clip-rule="evenodd" d="M226.338 317.06C239.037 314.164 246.867 303.085 247.344 293.096C247.394 292.062 248.581 281.065 247.263 280.461C246.329 280.032 241.839 284.601 241.174 285.078C235.133 289.409 226.048 295.569 224.027 302.902C223.24 305.76 222.672 311.667 222.672 311.667C222.672 311.667 218.701 306.69 215.785 305.544C207.981 302.481 199.658 301.33 191.294 300.733C189.636 300.615 184.781 298.994 183.531 299.89C183.433 299.959 187.772 306.801 195.196 313.145C204.729 321.293 213.703 319.942 226.338 317.06Z" fill="#F06937"/>
<path fill-rule="evenodd" clip-rule="evenodd" d="M207.646 254.104C210.145 255.525 217.163 252.38 218.875 250.897C226.165 244.58 229.003 235.754 230.903 227.057C231.074 226.275 233.208 219.11 232.591 218.576C232.026 218.088 224.865 222.517 224.304 222.783C218.275 225.654 211.11 231.645 208.683 237.766C208.325 238.666 205.542 247.491 205.542 247.491C205.542 247.491 201.045 242.362 199.515 241.209C193.21 236.463 183.792 233.755 175.81 233.511C174.891 233.482 169.741 232.226 169.146 233.134C168.608 233.957 173.854 239.112 174.243 239.699C179.47 247.604 190.971 255.345 195.684 256.336C200.397 257.328 207.522 254.035 207.646 254.104Z" fill="#F06937"/>
<path fill-rule="evenodd" clip-rule="evenodd" d="M198.473 221.279C198.473 221.279 210.824 222.524 216.289 214.378C221.753 206.231 219.934 201.835 221.436 198.935C221.524 198.765 226.102 189.24 225.69 189.037C223.896 188.151 219.287 192.19 218.375 192.898C211.701 198.081 204.728 201.192 199.905 208.264C198.365 210.522 197.77 216.062 197.77 216.062C197.77 216.062 197.492 215.017 197.255 214.529C196.007 211.968 194.201 209.448 191.749 207.775C184.682 202.955 177.806 202.406 169.671 200.7C168.734 200.504 164.208 199.144 163.481 199.707C162.744 200.28 166.017 202.647 168.036 204.744C170.054 206.843 170.336 208.035 174.638 213.422C178.939 218.809 181.933 221.019 186.64 222.479C191.348 223.939 198.473 221.279 198.473 221.279Z" fill="#F06937"/>
<path fill-rule="evenodd" clip-rule="evenodd" d="M184.815 165.033C194.992 167.259 202.407 158.197 204.109 153.992C205.176 151.355 206.45 149.54 206.979 146.743C207.154 145.818 208.311 143.335 207.585 143.981C202.747 148.283 194.721 150.938 190.36 153.867C185.999 156.795 184.817 160.654 184.817 160.654C184.817 160.654 182.473 156.837 181.413 155.895C177.273 152.216 172.164 150.504 166.743 149.177C166.233 149.052 161.073 147.301 160.575 147.744C160.238 148.043 163.518 151.768 163.824 152.537C165.565 156.906 169.751 162.524 174.25 164.057C179.621 165.888 184.815 165.033 184.815 165.033Z" fill="#F06937"/>
<path fill-rule="evenodd" clip-rule="evenodd" d="M192.355 191.427C200.483 193.928 209.755 183.043 212.754 177.374C213.017 176.875 216.985 167.931 216.583 167.733C214.854 166.878 210.069 170.287 208.812 170.793C204.138 172.67 197.883 174.217 194.059 177.932C192.53 179.417 192.143 181.942 191.598 184.291C191.053 186.639 191.191 189.482 191.064 188.384C190.119 180.215 178.927 176.987 171.574 175.663C171.124 175.582 161.89 172.337 162.148 173.58C162.405 174.821 165.214 177.583 167.393 179.705C169.622 181.878 175.527 190.18 178.362 191.582C183.662 194.2 192.355 191.427 192.355 191.427Z" fill="#F06937"/>
<path fill-rule="evenodd" clip-rule="evenodd" d="M227.674 340.354C227.674 340.354 229.241 335.146 235.041 330.952C240.841 326.757 250.113 320.286 257.508 314.606C258.034 314.201 263.788 308.539 265.03 308.827C267.892 309.492 264.745 320.834 264.455 321.864C263.776 324.281 263.434 326.443 262.369 328.76C258.043 338.173 251.934 345.334 241.593 348.821C235.93 350.731 230.064 348.464 230.064 348.464C230.064 348.464 220.384 352.988 209.757 352.165C202.399 351.596 194.871 345.398 189.986 339.828C187.506 337.003 176.773 331.093 174.706 329.368C172.638 327.644 185.335 327.747 186.472 327.919C196.37 329.417 210.46 327.696 217.022 331.228C223.585 334.762 227.674 340.354 227.674 340.354Z" fill="#F06937"/>
<path fill-rule="evenodd" clip-rule="evenodd" d="M230.735 374.141C230.735 374.141 231.953 368.245 238.301 364.17C244.65 360.096 256.302 357.46 264.793 353.138C267.204 351.911 270.572 350.742 272.633 349.021C273.942 347.927 276.545 345.721 276.545 345.721C276.545 345.721 275.494 348.452 275.197 349.873C274.545 352.978 273.55 356.043 272.414 359.024C268.548 369.169 260.016 378.592 248.935 382.431C244.908 383.826 240.188 384.217 236.142 382.608C234.846 382.092 231.598 380.221 231.598 380.221C231.598 380.221 224.599 384.232 219.47 384.486C209.425 384.981 196.934 377.894 191.307 370.884C188.849 367.822 187.557 366.093 184.498 363.48C183.958 363.019 179.223 359.081 179.711 358.356C179.922 358.041 181.868 358.863 182.212 358.943C185.582 359.734 188.613 360.168 192.022 360.502C203.062 361.582 212.925 359.782 222.615 366.321C225.499 368.266 230.735 374.141 230.735 374.141Z" fill="#F06937"/>
<path fill-rule="evenodd" clip-rule="evenodd" d="M186.368 145.678C193.111 139.891 191.526 130.851 190.667 123.418C190.541 122.327 191.518 117.302 191.738 115.407C191.957 113.512 184.845 121.001 184.302 121.92C181.263 127.081 179.094 128.972 178.716 135.16C178.652 136.215 178.739 138.724 179.151 140.604C179.563 142.486 181.151 150.154 186.368 145.678Z" fill="#F06937"/>
<path d="M183.862 143.185C182.9 152.983 186.352 175.599 191.704 195.427C197.055 215.255 208.094 255.4 217.184 293.125C228.036 338.157 234.423 385.714 233.024 432.499" stroke="#F69571" stroke-width="1.5" stroke-linecap="round" stroke-linejoin="round"/>
<path d="M155.41 110.106V114.185V114.396V114.427" stroke="#F69571" stroke-width="1.5" stroke-linecap="round" stroke-linejoin="round"/>
<path d="M155.41 120.117V120.323V125.22" stroke="#F69571" stroke-width="1.5" stroke-linecap="round" stroke-linejoin="round"/>
<path d="M149.223 117.243H152.374H152.483" stroke="#F69571" stroke-width="1.5" stroke-linecap="round" stroke-linejoin="round"/>
<path d="M158.25 117.243H158.704H161.627" stroke="#F69571" stroke-width="1.5" stroke-linecap="round" stroke-linejoin="round"/>
<path d="M215.918 1V5.07837V5.28929V5.3202" stroke="#F69571" stroke-width="1.5" stroke-linecap="round" stroke-linejoin="round"/>
<path d="M215.918 11.0105V11.2164V16.1138" stroke="#F69571" stroke-width="1.5" stroke-linecap="round" stroke-linejoin="round"/>
<path d="M209.73 8.13693H212.882H212.991" stroke="#F69571" stroke-width="1.5" stroke-linecap="round" stroke-linejoin="round"/>
<path d="M218.76 8.13693H219.214H222.136" stroke="#F69571" stroke-width="1.5" stroke-linecap="round" stroke-linejoin="round"/>
<path d="M453.631 46.7408V50.8192V51.0301V51.061" stroke="#F69571" stroke-width="1.5" stroke-linecap="round" stroke-linejoin="round"/>
<path d="M453.631 56.7513V56.9572V61.8546" stroke="#F69571" stroke-width="1.5" stroke-linecap="round" stroke-linejoin="round"/>
<path d="M447.441 53.8779H450.593H450.702" stroke="#F69571" stroke-width="1.5" stroke-linecap="round" stroke-linejoin="round"/>
<path d="M456.469 53.8779H456.923H459.845" stroke="#F69571" stroke-width="1.5" stroke-linecap="round" stroke-linejoin="round"/>
<path d="M478.064 169.276V173.355V173.566V173.596" stroke="#F69571" stroke-width="1.5" stroke-linecap="round" stroke-linejoin="round"/>
<path d="M478.064 179.286V179.493V184.39" stroke="#F69571" stroke-width="1.5" stroke-linecap="round" stroke-linejoin="round"/>
<path d="M471.877 176.413H475.029H475.137" stroke="#F69571" stroke-width="1.5" stroke-linecap="round" stroke-linejoin="round"/>
<path d="M480.906 176.413H481.36H484.283" stroke="#F69571" stroke-width="1.5" stroke-linecap="round" stroke-linejoin="round"/>
<path fill-rule="evenodd" clip-rule="evenodd" d="M207.074 84.483L208.573 51.0894L214.838 38.6224C214.838 38.6224 215.853 36.8052 219.154 34.7088C222.456 32.6126 228.044 30.237 228.044 30.237L369.009 8.20557C369.009 8.20557 380.107 6.95547 386.888 13.2056C393.668 19.4557 396.13 33.2059 396.13 33.2059L394.746 462.611C394.746 462.611 393.556 475.829 384.933 481.578C376.309 487.327 360.254 485.606 360.254 485.606L224.825 461.311C224.825 461.311 217.108 459.308 212.887 452.043C208.664 444.777 207.938 432.249 207.938 432.249L207.074 84.483Z" fill="#9CA4B5"/>
<path fill-rule="evenodd" clip-rule="evenodd" d="M231.932 37.3853L360.444 17.0014C360.444 17.0014 368.907 16.2725 374.027 21.4958C379.148 26.7191 380.927 37.8946 380.927 37.8946L379.239 456.147C379.239 456.147 378.672 467.48 372.792 472.849C366.911 478.218 355.719 477.62 355.719 477.62L232.005 454.749C232.005 454.749 223.88 453.526 219.165 446.278C214.451 439.03 213.146 425.759 213.146 425.759L213.386 92.5807L213.648 61.1464C213.648 61.1464 214.112 52.1587 218.683 46.2184C223.254 40.2781 231.932 37.3853 231.932 37.3853Z" fill="#C7D1E3"/>
<path fill-rule="evenodd" clip-rule="evenodd" d="M214.206 63.4491L381.075 43.6341L380.039 246.824L213.609 242.913L214.206 63.4491Z" fill="white"/>
<path fill-rule="evenodd" clip-rule="evenodd" d="M76.0536 88.6044C83.5933 78.7795 97.9975 77.3812 107.678 82.0091C111.479 83.8263 113.227 84.3529 115.413 87.6365C118.305 91.9833 121.027 99.4649 121.08 104.503C121.11 107.469 120.19 113.045 120.19 113.045C120.19 113.045 120.888 113.121 120.991 120.699C121.03 123.52 116.775 128.152 116.704 131.888C116.65 134.812 118.258 137.374 119.169 139.407C120.222 141.755 120.606 143.359 120.606 143.359L62.1725 144.367C62.1725 144.367 62.0831 142.56 62.9493 140.356C63.9443 137.822 66.139 136.015 65.8502 133.571C65.5344 130.899 64.9447 125.503 65.8258 122.201C66.7056 118.908 70.5364 111.896 71.4785 108.538C73.5268 101.235 71.7944 94.1554 76.0536 88.6044Z" fill="#C49D84"/>
<path fill-rule="evenodd" clip-rule="evenodd" d="M272.683 111.279C276.293 106.949 280.047 106.979 284.746 104.88C286.891 103.922 289.11 101.228 291.357 100.559C300.593 97.8087 311.542 104.973 317.764 111.893C323.212 117.951 324.54 123.731 324.54 123.731C324.54 123.731 327.189 134.709 329.347 150.318C330.342 157.515 329.953 167.732 331.443 174.669C333.724 185.297 339.629 193.925 341.991 200.383C344.512 207.283 343.418 211.656 343.418 211.656L248.836 209.883C248.836 209.883 249.541 206.901 251.265 204.038C253.292 200.673 256.415 197.08 256.884 192.861C257.497 187.344 254.776 180.374 255.307 173.197C256.098 162.511 258.871 152.181 261.485 141.497C264.386 129.644 267.345 117.68 272.683 111.279Z" fill="#C69E85"/>
<path fill-rule="evenodd" clip-rule="evenodd" d="M69.7975 140.742C69.7975 140.742 55.8636 145.877 52.1791 151.116C48.0609 156.972 42.6807 179.444 39.1209 196.684C36.4193 209.773 33.9535 218.205 38.5841 223.515C43.2758 228.892 62.3744 237.287 62.3744 237.287L60.318 249.093C60.318 249.093 62.7065 251.948 66.8017 253.699C73.7151 256.656 85.2781 259.226 96.494 259.557C106.356 259.848 116.627 257.984 123.37 255.621C128.838 253.706 131.777 251.24 131.777 251.24L134.683 267.293C134.683 267.293 139.768 268.578 143.225 267.74C146.68 266.904 148.5 263.939 148.5 263.939C148.5 263.939 145.665 247.237 142.643 227.539C139.846 209.31 136.879 188.519 135.891 175.934C135.17 166.76 133.664 154.33 131.598 150.937C128.034 145.087 114.604 141.279 114.604 141.279L69.7975 140.742ZM65.278 206.051C65.3105 206.444 65.2089 216.853 64.813 216.853C64.4186 216.853 55.9083 211.595 55.9083 211.201C55.9083 211.104 57.0511 206.143 58.5083 201.67C60.257 196.302 62.3744 191.259 62.3744 191.144C62.3744 190.749 64.813 200.398 65.278 206.051Z" fill="#FF4500"/>
<path fill-rule="evenodd" clip-rule="evenodd" d="M265.752 201.451L324.981 202.395L330.462 205.147C330.462 205.147 347.562 211.685 351.194 217.824C355.407 224.952 357.452 246.145 357.452 246.145L232.901 243.008C232.901 243.008 232.718 228.351 237.409 219.729C240.211 214.577 251.44 208.452 251.44 208.452L265.752 201.451Z" fill="#FF4500"/>
<path fill-rule="evenodd" clip-rule="evenodd" d="M79.5308 225.655C79.5308 225.655 83.1339 226.742 86.6801 227.371C89.5417 227.88 95.2215 222.262 99.0117 221.809C102.559 221.384 108.812 225.781 110.903 227.091C112.993 228.402 111.792 229.775 111.792 229.775C111.792 229.775 116.901 233.553 114.105 234.952C112.825 235.591 108.681 234.576 108.681 234.576L106.261 235.925C106.261 235.925 106.681 237.237 105.611 238.328C104.54 239.421 101.976 240.294 101.976 240.294C101.976 240.294 101.072 242.495 98.9927 242.354C96.9133 242.212 93.6585 239.727 93.6585 239.727C93.6585 239.727 88.4762 241.471 86.9092 240.871C79.8737 238.183 75.582 237.889 75.582 237.889L77.5395 232.234L79.5308 225.655Z" fill="#FFD9B7"/>
<path fill-rule="evenodd" clip-rule="evenodd" d="M91.4464 102.637C91.4464 102.637 97.0272 99.3427 99.2287 96.228C100.411 94.5552 100.648 91.4198 102.272 90.3445C105.239 88.3792 110.015 89.2917 111.146 91.9873C112.108 94.2842 113.971 97.8873 114.404 103.798C114.515 105.318 114.018 108.158 113.992 109.793C113.966 111.419 113.958 114.382 113.745 115.936C112.485 125.127 106.105 128.755 106.105 128.755L102.753 129.328C102.753 129.328 101.945 134.134 103.846 136.085C106.924 139.243 114.945 142.083 114.945 142.083C114.945 142.083 116.794 149.033 112.466 151.614C109.179 153.574 98.8667 153.317 94.6469 153.283C90.9773 153.254 84.3933 153.14 80.835 151.458C73.5935 148.037 70.3984 141.733 70.3984 141.733C70.3984 141.733 77.9598 138.634 80.9976 132.784C84.0341 126.934 82.5471 118.335 82.5471 118.335C82.5471 118.335 86.8754 116.886 88.8966 114.036C90.9191 111.186 90.5083 106.693 90.5083 106.693L91.4464 102.637Z" fill="#FFD9B7"/>
<path fill-rule="evenodd" clip-rule="evenodd" d="M137.266 268.269L142.319 267.983L146.287 266.307C146.287 266.307 147.644 271.193 149.76 276.284C151.233 279.832 153.732 282.924 153.64 286.866C153.612 288.045 151.969 298.765 151.73 299.551C150.882 302.327 144.285 304.559 142.163 303.794C140.828 303.312 143.494 300.02 143.494 300.02C143.494 300.02 139.909 300.001 139.069 299.165C138.229 298.329 140.137 296.673 140.137 296.673C140.137 296.673 138.139 295.398 137.903 294.991C136.868 293.21 140.359 292.632 140.359 292.632L137.687 281.143L138.296 273.471L137.266 268.269Z" fill="#FFD9B7"/>
<path fill-rule="evenodd" clip-rule="evenodd" d="M54.1948 438.288L61.8917 439.473L67.0388 438.902C67.0388 438.902 66.9358 447.211 68.2669 453.494C69.5981 459.777 70.7639 461.509 72.3648 464.035C74.0267 466.659 75.3661 467.219 72.9423 468.406C69.3826 470.15 60.8574 468.799 58.1151 468.321C54.8346 467.748 54.1988 464.931 53.3896 461.904C52.6196 459.018 51.6016 455.901 51.6016 455.901L54.1948 438.288Z" fill="#FFD9B7"/>
<path fill-rule="evenodd" clip-rule="evenodd" d="M110.439 435.36L117.14 435.869L123.887 434.776C123.887 434.776 124.311 443.252 129.52 449.232C134.729 455.211 144.72 458.692 144.72 458.692C144.72 458.692 135.008 463.303 126.596 461.191C118.187 459.077 111.078 450.242 111.078 450.242L110.439 435.36Z" fill="#FFD9B7"/>
<path fill-rule="evenodd" clip-rule="evenodd" d="M282.797 126.204C284.313 125.519 286.848 125.476 288.767 124.786C291.61 123.765 293.955 122.354 296.547 123.704C299.557 125.273 301.095 130.729 303.249 133.457C306.4 137.452 310.245 140.639 310.245 140.639L313.658 147.576L315.735 162.564C315.735 162.564 315.427 166.284 313.738 170.078C312.048 173.872 308.976 177.74 308.976 177.74C308.976 177.74 308.125 189.734 310.369 193.774C312.776 198.103 324.562 202.735 324.562 202.735C324.562 202.735 324.082 215.785 319.357 219.25C314.703 222.662 299.331 222.559 294.071 222.521C289.606 222.49 273.348 221.568 269.598 218.738C265.924 215.966 265.744 202.314 265.744 202.314C265.744 202.314 276.75 197.142 279.697 192.69C282.138 189.006 281.021 176.661 281.021 176.661C281.021 176.661 279.166 174.015 277.592 170.318C276.019 166.623 274.732 161.877 274.732 161.877L271.631 160.826L268.814 157.081C268.814 157.081 274.196 152.486 276.701 144.885C278.935 138.104 277.997 128.373 282.797 126.204Z" fill="#FFD9B7"/>
<path fill-rule="evenodd" clip-rule="evenodd" d="M49.8066 468.179L52.0243 456.568C52.0243 456.568 52.4744 464.698 56.7471 467.471C59.1302 469.016 65.1462 469.22 69.335 468.721C72.6575 468.324 74.5498 467.329 74.5498 467.329C74.5498 467.329 85.1273 477.788 80.0751 481.023C77.2366 482.839 70.597 482.378 64.7165 481.923C60.1266 481.566 56.0368 481.581 54.3397 480.268C53.0248 479.25 53.041 475.108 52.9488 473.201C52.7713 469.489 49.8066 468.179 49.8066 468.179Z" fill="white"/>
<path fill-rule="evenodd" clip-rule="evenodd" d="M110.812 451.093C110.812 451.093 114.001 451.836 116.824 454.68C119.648 457.524 125.913 459.441 131.486 460.606C139.937 462.373 144.615 458.161 144.615 458.161C144.615 458.161 150.228 460.772 152.796 463.89C154.407 465.847 154.335 468.326 152.427 469.481C147.478 472.477 124.818 470.141 124.818 470.141L122.717 468.366C122.717 468.366 111.131 467.303 109.59 465.815C108.314 464.584 109.191 462.766 109.534 460.171C110.068 456.13 110.812 451.093 110.812 451.093Z" fill="white"/>
<path fill-rule="evenodd" clip-rule="evenodd" d="M61.7767 250.115C61.7767 250.115 64.8986 252.842 69.9426 254.756C76.5605 257.267 86.4359 259.139 96.4034 259.271C106.927 259.407 117.914 257.34 124.804 254.927C129.413 253.311 132.033 251.035 132.033 251.035C132.033 251.035 133.833 259.858 134.544 273.736C135.43 291.109 135.129 315.699 133.413 332.727C131.899 347.749 130.448 371.697 129.387 392.44C128.285 413.997 127.603 432.073 127.603 432.073C127.603 432.073 123.162 435.589 117.946 435.715C110.203 435.903 106.801 433.734 106.801 433.734C106.801 433.734 104.48 412.195 103.288 387.646C102.537 372.16 103.136 355.437 102.207 342.286C99.8058 308.285 97.1936 297.733 97.1936 297.733C97.1936 297.733 93.558 315.102 87.0852 350.64C84.2371 366.283 78.5342 382.49 75.2456 398.634C71.2033 418.469 69.8179 436.805 69.8179 436.805C69.8179 436.805 66.5239 440.716 60.2585 439.55C53.0943 438.218 51.0352 435.801 51.0352 435.801C51.0352 435.801 50.3032 413.168 52.1793 382.504C52.8814 371.03 56.3761 356.892 56.898 344.623C57.7195 325.254 56.875 304.06 57.3074 290.14C58.2278 260.5 61.7767 250.115 61.7767 250.115Z" fill="#79A8C6"/>
<path fill-rule="evenodd" clip-rule="evenodd" d="M284.061 404.592C278.844 400.48 272.751 401.947 270.4 404.003C268.042 406.068 267.463 414.628 267.463 414.628L271.751 414.857C271.751 414.857 272.106 409.771 274.402 407.803C276.166 406.29 279.777 407.64 280.977 408.313C283.735 409.858 282.788 421.041 282.788 421.041L287.729 421.124C287.729 421.124 287.238 415.592 286.613 411.21C286.178 408.151 286.205 406.281 284.061 404.592Z" fill="#DEE8FD"/>
<path fill-rule="evenodd" clip-rule="evenodd" d="M207.693 172.518L207.465 60.4159C207.465 60.4159 207.3 48.6828 213.052 40.7996C220.014 31.2561 229.972 30.1742 229.972 30.1742L358.958 8.9299C363.432 8.55061 372.297 6.44189 380.63 15.9583C388.312 24.733 388.464 35.2652 388.644 39.2762L386.856 462.031C386.856 462.031 387.116 473.121 379.872 479.976C372.313 487.128 359.665 485.444 359.665 485.444L228.839 462.165C228.839 462.165 218.055 460.496 212.898 451.891C207.741 443.286 208.212 427.746 208.212 427.746L208.116 380.561L207.693 172.518Z" stroke="black" stroke-width="1.5" stroke-linecap="round" stroke-linejoin="round"/>
<path fill-rule="evenodd" clip-rule="evenodd" d="M213.485 170.83L213.442 65.4332C213.442 65.4332 213.306 54.067 218.651 46.522C225.123 37.3882 234.358 36.4961 234.358 36.4961L355.514 17.4607C360.842 16.8086 369.146 15.7423 375.017 23.0348C381.271 30.801 380.99 42.6596 380.99 42.6596L379.193 450.921C379.193 450.921 379.782 466.1 373.053 472.626C366.033 479.435 353.19 476.674 353.19 476.674L232.665 454.861C232.665 454.861 222.666 453.076 217.898 444.661C213.127 436.247 213.588 421.204 213.588 421.204L213.571 379.093L213.485 170.83Z" stroke="black" stroke-width="1.5" stroke-linecap="round" stroke-linejoin="round"/>
<path d="M360.993 8.70817C366.058 7.95691 380.578 5.26163 388.511 14.778C395.825 23.5527 395.97 34.085 396.141 38.0958L394.439 460.85C394.439 460.85 394.688 471.94 387.79 478.795C380.594 485.947 369.797 486.305 360.453 485.554" stroke="black" stroke-width="1.5" stroke-linecap="round" stroke-linejoin="round"/>
<path d="M75.7671 237.591C75.6342 237.657 79.4325 238.53 81.9485 239.427C89.5885 242.154 92.9394 240.009 92.9394 240.009" stroke="black" stroke-width="1.5" stroke-linecap="round" stroke-linejoin="round"/>
<path d="M72.2456 140.314C70.3966 139.944 66.6742 142.099 65.0123 142.75C60.5904 144.481 56.3068 146.755 53.1619 149.955C49.0464 154.141 45.6954 167.184 40.814 189.008C38.294 200.273 35.4039 212.189 36.3081 218.999C37.2109 225.809 49.1887 231.501 57.3994 234.852C62.2361 236.826 69.022 239.362 72.5669 240.569C75.1709 241.454 80.8426 225.568 78.9719 224.165C77.1026 222.763 71.7522 221.114 67.4225 218.647C62.7227 215.969 57.6895 211.341 55.0299 211.196C53.1578 211.093 48.0202 212.818 46.7135 213.546" stroke="black" stroke-width="1.5" stroke-linecap="round" stroke-linejoin="round"/>
<path d="M66.4349 178.956C62.0984 191.401 58.5292 200.326 56.0566 211.091" stroke="black" stroke-width="1.5" stroke-linecap="round" stroke-linejoin="round"/>
<path d="M91.9238 238.956C91.9238 238.956 96.5477 241.663 98.3302 242.323C100.111 242.983 102.585 241.088 101.022 239.28C99.4608 237.471 94.2757 234.012 94.2757 234.012" stroke="black" stroke-width="1.5" stroke-linecap="round" stroke-linejoin="round"/>
<path d="M97.2188 229.986C97.2188 229.986 104.867 234.386 105.897 236.739C106.927 239.093 102.077 240.155 102.077 240.155" stroke="black" stroke-width="1.5" stroke-linecap="round" stroke-linejoin="round"/>
<path d="M99.4453 226.26C103.433 227.801 108.605 230.239 109.25 232.639C109.895 235.038 106.058 235.986 106.058 235.986" stroke="black" stroke-width="1.5" stroke-linecap="round" stroke-linejoin="round"/>
<path d="M79.7891 225.582C83.0601 226.828 85.7631 227.56 87.2406 227.39C93.2567 226.701 95.6885 220.539 101.587 222.036C104.479 222.77 109.671 225.772 111.778 227.962C112.845 229.071 111.219 231.473 109.936 232.174" stroke="black" stroke-width="1.5" stroke-linecap="round" stroke-linejoin="round"/>
<path d="M111.879 230.417C111.879 230.417 115.733 232.879 114.665 234.522C113.596 236.163 109.87 234.913 109.244 234.729" stroke="black" stroke-width="1.5" stroke-linecap="round" stroke-linejoin="round"/>
<path d="M112.01 140.498C114.321 140.222 119.002 142.439 119.929 142.919C124.463 145.267 130.086 147.131 132.411 153.234C134.736 159.338 136.554 183.292 139.343 203.659C142.465 226.447 147.744 259.81 148.396 263.281C149.049 266.752 139.494 269.34 135.439 267.481" stroke="black" stroke-width="1.5" stroke-linecap="round" stroke-linejoin="round"/>
<path d="M127.41 163.044C126.908 174.417 130.426 176.292 130.587 183.783C130.705 189.191 129.027 197.783 128.833 210.462C128.638 223.14 132.861 242.513 133.666 248.788C134.052 251.8 119.758 258.292 102.233 259.227C83.2617 260.238 60.3973 253.326 60.522 248.409C60.6237 244.321 61.5007 240.52 62.3357 236.76" stroke="black" stroke-width="1.5" stroke-linecap="round" stroke-linejoin="round"/>
<path d="M65.1948 216.562C66.3565 207.615 64.6404 200.916 62.4688 190.348" stroke="black" stroke-width="1.5" stroke-linecap="round" stroke-linejoin="round"/>
<path d="M103.454 278.83C103.454 278.83 99.6192 286.079 98.3423 291.652C93.7401 311.731 89.7385 338.612 84.5046 362.243C81.6606 375.087 77.5506 386.543 75.2854 398.345C71.7487 416.777 70.404 432.743 70.2088 435.866C69.8767 441.158 51.4382 440.702 51.2213 434.737C51.0912 431.138 50.9136 419.958 51.7351 390.503C52.3139 369.729 54.6577 368.304 56.1393 351.635C57.6196 334.967 57.1967 325.238 56.9974 301.961C56.7561 273.813 61.4125 251.103 61.4125 251.103" stroke="black" stroke-width="1.5" stroke-linecap="round" stroke-linejoin="round"/>
<path d="M97.5391 296.069C97.5391 296.069 101.987 333.928 102.37 346.648C102.88 363.6 102.544 373.842 103.387 389.471C104.721 414.182 106.045 428.262 106.879 432.882C107.711 437.502 127.927 436.197 127.801 430.82C127.741 428.303 127.873 409.699 129.465 388.749C132.04 354.881 132.703 345.796 133.886 328.174C134.781 314.874 135.484 291.285 135.06 272.821C134.869 264.512 132.213 251.232 132.213 251.232" stroke="black" stroke-width="1.5" stroke-linecap="round" stroke-linejoin="round"/>
<path d="M110.284 435.752C110.824 441.944 111.003 443.961 110.814 449.024C110.624 454.086 109.225 461.074 110.441 462.831C111.658 464.588 116.801 464.257 123.53 466.536C130.261 468.816 151.703 468.455 152.972 466.351C154.397 463.99 150.375 461.09 147.654 459.815C144.933 458.539 139.325 456.881 133.822 453.176C128.87 449.844 124.761 444.928 124.167 434.972" stroke="black" stroke-width="1.5" stroke-linecap="round" stroke-linejoin="round"/>
<path d="M153.254 465.215C154.317 468.915 152.133 469.943 147.178 470.553C142.455 471.132 132.701 471.07 127.133 470.212C122.675 469.526 124.491 468.744 120.566 468.07C117.887 467.61 112.287 466.992 110.041 465.783C108.993 465.219 109.918 460.133 109.918 460.133" stroke="black" stroke-width="1.5" stroke-linecap="round" stroke-linejoin="round"/>
<path d="M53.9773 438.136C54.1481 448.402 50.2929 461.039 51.0317 463.155C51.9209 465.699 53.1857 467.213 53.4771 469.896C53.7672 472.577 52.9512 474.723 54.4477 476.668C56.1923 478.935 59.7697 478.94 64.8747 479.073C70.3255 479.216 76.6262 479.024 79.5122 477.81C82.3982 476.595 79.4864 472.569 76.5449 469.51C73.4501 466.289 70.2347 461.695 68.7449 456.278C67.636 452.246 66.961 445.195 67.2565 439.224" stroke="black" stroke-width="1.5" stroke-linecap="round" stroke-linejoin="round"/>
<path d="M51.1347 460.286C51.1347 460.286 49.5134 466.839 50.4786 468.627C51.4451 470.417 52.6895 470.577 52.9566 472.476C53.4744 476.144 51.7474 480.192 56.7766 481.123C63.6588 482.398 75.0157 482.192 78.6609 481.162C83.0502 479.919 81.2663 476.351 80.1859 474.254" stroke="black" stroke-width="1.5" stroke-linecap="round" stroke-linejoin="round"/>
<path d="M144.28 458.912C137.832 462.488 126.451 460.616 120.834 457.579C117.181 455.604 114.658 451.796 111.748 451.048" stroke="black" stroke-width="1.5" stroke-linecap="round" stroke-linejoin="round"/>
<path d="M73.8661 467.696C71.0777 469.533 61.4938 469.988 56.71 467.596C53.2614 465.873 53.191 459.876 52.1133 455.223" stroke="black" stroke-width="1.5" stroke-linecap="round" stroke-linejoin="round"/>
<path d="M58.7695 151.189C66.4027 156.28 67.452 166.312 68.0335 170.817" stroke="black" stroke-width="1.5" stroke-linecap="round" stroke-linejoin="round"/>
<path d="M137.477 268.369C137.477 268.369 138.348 271.331 138.286 273.573C138.229 275.623 137.683 279.101 137.796 281.149C137.998 284.737 139.528 286.992 140.161 290.759C140.794 294.526 140.643 297.667 142.812 297.221C144.981 296.774 144.642 291.454 144.317 288.071C143.99 284.687 144.904 284.393 146.316 285.593C147.128 286.281 148.02 287.104 148.317 289.341C148.519 290.855 148.4 293.843 148.11 295.821C147.768 298.137 146.112 298.713 143.59 300.404C141.069 302.095 141.425 304.088 143.724 304.019C146.023 303.95 150.632 301.687 151.227 300.279C152.43 297.428 153.409 291.712 153.498 287.309C153.589 282.905 148.08 276.49 146.423 266.374" stroke="black" stroke-width="1.5" stroke-linecap="round" stroke-linejoin="round"/>
<path d="M145.577 299.075C145.577 299.075 144.241 299.593 142.202 299.658C139.819 299.734 138.467 299.113 139.456 297.756C139.883 297.171 140.476 296.802 141.135 296.539" stroke="black" stroke-width="1.5" stroke-linecap="round" stroke-linejoin="round"/>
<path d="M144.496 295.596C145.126 295.364 145.636 295.042 145.9 294.495C146.82 292.581 147.137 289.96 147.618 287.163" stroke="black" stroke-width="1.5" stroke-linecap="round" stroke-linejoin="round"/>
<path d="M140.464 295.921C138.996 296.047 137.91 295.257 138.021 294.235C138.131 293.212 140.288 293.015 140.288 293.015" stroke="black" stroke-width="1.5" stroke-linecap="round" stroke-linejoin="round"/>
<path d="M114.681 102.494C114.659 102.934 114.621 103.321 114.588 103.641C114.402 105.422 114.035 107.061 113.96 108.881C113.864 111.203 114.119 112.367 113.919 115.927C113.788 118.253 112.364 121.404 109.977 124.585C108.782 126.177 107.098 127.905 105.681 128.631C103.006 130.005 97.1089 127.708 93.2686 125.453C90.369 123.75 89.4499 122.542 87.9141 120.362" stroke="black" stroke-width="1.5" stroke-linecap="round" stroke-linejoin="round"/>
<path fill-rule="evenodd" clip-rule="evenodd" d="M103.028 129.063C103.028 129.063 98.7882 128.295 95.3004 126.743C92.0673 125.306 88.3477 121.226 88.3477 121.226C88.3477 121.226 91.9318 128.026 95.4766 130.283C98.8194 132.411 102.612 131.671 102.612 131.671L103.028 129.063Z" fill="black"/>
<path d="M108.344 104.583C107.528 106.256 106.979 108.208 107.356 110.016C107.791 112.109 110.703 111.824 108.17 114.561" stroke="black" stroke-width="1.5" stroke-linecap="round" stroke-linejoin="round"/>
<path fill-rule="evenodd" clip-rule="evenodd" d="M105.539 118.348C103.59 118.36 100.984 117.992 100.984 117.992C100.984 117.992 101.697 121.753 104.787 122.268C107.876 122.784 109.302 118.11 109.302 118.11C109.302 118.11 107.488 118.335 105.539 118.348Z" fill="white" stroke="black" stroke-width="1.5" stroke-linecap="round" stroke-linejoin="round"/>
<path d="M98.791 99.9276C98.791 99.9276 100.795 98.5172 103.479 99.7797" stroke="black" stroke-width="1.5" stroke-linecap="round" stroke-linejoin="round"/>
<path d="M114.94 99.8443C114.94 99.8443 113.201 98.6133 110.855 99.6957" stroke="black" stroke-width="1.5" stroke-linecap="round" stroke-linejoin="round"/>
<path d="M106.891 83.8331C109.813 82.9618 111.688 83.8541 113.197 85.2042C117.28 88.857 121.383 97.967 120.532 108.593" stroke="black" stroke-width="1.5" stroke-linecap="round" stroke-linejoin="round"/>
<path d="M108.65 89.5778C112.687 91.0028 113.524 102.076 117.437 108.635C122.761 117.559 120.933 122.554 119.039 125.556C117.405 128.146 115.446 131.555 117.345 135.533C118.217 137.356 119.818 139.519 120.052 142.625" stroke="black" stroke-width="1.5" stroke-linecap="round" stroke-linejoin="round"/>
<path d="M106.256 87.931C104.671 85.2412 103.108 85.3496 102.241 87.3347C101.372 89.3198 101.589 93.7057 98.0885 97.8244C95.2974 101.108 90.5773 101.186 90.4472 107.49C90.3659 111.456 89.501 114.196 86.512 116.13C83.5216 118.065 76.2476 121.187 77.694 128.226" stroke="black" stroke-width="1.5" stroke-linecap="round" stroke-linejoin="round"/>
<path d="M106.46 81.3166C102.821 78.8197 86.8006 77.2228 79.3639 84.6512C77.7061 86.3069 74.7266 89.5584 73.4496 96.8449C72.9575 99.6506 72.7881 104.908 70.7425 111.2C68.697 117.491 63.337 119.426 65.735 132.069C66.9659 138.556 61.9381 138.302 62.075 143.365" stroke="black" stroke-width="1.5" stroke-linecap="round" stroke-linejoin="round"/>
<path d="M82.7035 118.592C82.7035 118.592 82.7808 129.43 81.2802 132.64C79.2482 136.984 75.9636 138.766 70.582 141.146" stroke="black" stroke-width="1.5" stroke-linecap="round" stroke-linejoin="round"/>
<path d="M102.785 129.582C102.621 131.829 102.175 135.411 103.896 136.743C106.946 139.105 110.121 139.969 114.043 141.424" stroke="black" stroke-width="1.5" stroke-linecap="round" stroke-linejoin="round"/>
<path fill-rule="evenodd" clip-rule="evenodd" d="M112.598 107.017C112.671 106.052 112.163 105.227 111.462 105.173C110.761 105.12 110.135 105.859 110.062 106.824C109.988 107.789 110.497 108.615 111.196 108.668C111.897 108.721 112.525 107.982 112.598 107.017Z" fill="black"/>
<path fill-rule="evenodd" clip-rule="evenodd" d="M102.081 106.975C102.117 106.008 101.53 105.2 100.768 105.171C100.006 105.142 99.3599 105.902 99.3219 106.869C99.2853 107.836 99.8723 108.644 100.634 108.673C101.396 108.702 102.043 107.942 102.081 106.975Z" fill="black"/>
<path d="M70.2109 141.146C70.8304 143.004 76.3042 148.863 78.4786 150.426C82.7256 153.482 100.482 153.909 110.569 152.165C114.873 151.42 115.498 146.19 114.689 141.978" stroke="black" stroke-width="1.5" stroke-linecap="round" stroke-linejoin="round"/>
<path d="M295.429 185.099C295.429 185.099 290.949 184.896 284.545 180.064C280.252 176.823 278.739 173.396 277.782 171.208C276.233 167.668 275.201 162.952 274.342 158.577" stroke="black" stroke-width="1.5" stroke-linecap="round" stroke-linejoin="round"/>
<path d="M295.566 185.099C295.566 185.099 299.427 185.168 305.831 180.336C310.124 177.094 312.258 173.396 313.215 171.209C314.351 168.611 315.209 165.381 315.924 162.118" stroke="black" stroke-width="1.5" stroke-linecap="round" stroke-linejoin="round"/>
<path d="M269.418 157.551C270.851 160.213 273.048 161.553 274.553 161.778" stroke="black" stroke-width="1.5" stroke-linecap="round" stroke-linejoin="round"/>
<path d="M272.33 153.831L272.959 154.837" stroke="black" stroke-width="1.5" stroke-linecap="round" stroke-linejoin="round"/>
<path d="M293.465 146.541C293.465 146.541 295.434 152.159 294.835 154.982C294.141 158.255 290.125 157.661 293.507 162.092" stroke="black" stroke-width="1.5" stroke-linecap="round" stroke-linejoin="round"/>
<path fill-rule="evenodd" clip-rule="evenodd" d="M294.623 167.86C291.09 167.87 287.949 167.425 287.949 167.425C287.949 167.425 289.058 173.338 294.623 173.895C300.21 174.455 302.08 167.388 302.08 167.388C302.08 167.388 298.155 167.851 294.623 167.86Z" fill="white" stroke="black" stroke-width="1.5" stroke-linecap="round" stroke-linejoin="round"/>
<path d="M281.869 138.709C281.869 138.709 284.582 136.396 288.345 138.257" stroke="black" stroke-width="1.5" stroke-linecap="round" stroke-linejoin="round"/>
<path d="M308.105 138.514C308.105 138.514 305.343 136.278 301.621 138.244" stroke="black" stroke-width="1.5" stroke-linecap="round" stroke-linejoin="round"/>
<path fill-rule="evenodd" clip-rule="evenodd" d="M281.066 177.485C281.066 177.485 288.775 184.776 295.721 184.962C300.986 185.103 308.42 178.198 308.42 178.198C308.42 178.198 300.779 188.495 293.878 189.773C287.889 190.883 281.473 184.328 281.473 184.328L281.066 177.485Z" fill="black"/>
<path d="M287.956 118.679C287.701 116.82 287.667 115.088 284.971 111.704" stroke="black" stroke-width="1.5" stroke-linecap="round" stroke-linejoin="round"/>
<path d="M285.957 125.435C280.845 124.853 278.646 131.013 277.531 140.258C276.891 145.557 275 149.925 272.59 153.224C270.796 155.68 268.716 157.547 266.652 158.766" stroke="black" stroke-width="1.5" stroke-linecap="round" stroke-linejoin="round"/>
<path d="M281.237 106.138C271.573 107.712 266.006 119.731 263.047 137.97" stroke="black" stroke-width="1.5" stroke-linecap="round" stroke-linejoin="round"/>
<path d="M286.482 103.868C291.323 97.758 302.635 100.096 308.573 103.636C319.97 110.43 323.839 120.723 326.164 130.203C328.585 140.07 329.783 151.843 330.083 156.792C330.528 164.141 329.808 170.536 333.061 181.112C336.315 191.69 342.467 196.161 343.565 207.699C343.685 208.96 343.293 211.287 343.293 211.287" stroke="black" stroke-width="1.5" stroke-linecap="round" stroke-linejoin="round"/>
<path d="M261.12 144.623C258.199 157.959 253.581 170.734 255.942 182.149C258.303 193.565 255.333 197.586 254.303 199.461C252.816 202.164 249.781 204.989 249.062 209.347" stroke="black" stroke-width="1.5" stroke-linecap="round" stroke-linejoin="round"/>
<path d="M280.993 177.215C280.993 177.215 281.496 186.211 280.688 190.391C279.703 195.496 273.28 198.586 266.666 201.606" stroke="black" stroke-width="1.5" stroke-linecap="round" stroke-linejoin="round"/>
<path d="M267.622 201.146C265.578 200.49 264.492 202.395 259.949 204.631C252.037 208.529 243.158 211.351 238.359 218.267C235.291 222.69 233.906 233.146 232.855 242.063" stroke="black" stroke-width="1.5" stroke-linecap="round" stroke-linejoin="round"/>
<path d="M308.842 177.65C308.842 177.65 308.339 186.647 309.146 190.826C310.222 196.4 316.912 199.552 324.266 202.915" stroke="black" stroke-width="1.5" stroke-linecap="round" stroke-linejoin="round"/>
<path d="M323.072 202.065C325.947 201.804 326.011 203.314 330.685 205.405C338.491 208.9 346.833 212.014 351.474 218.702C354.542 223.125 356.198 236.813 357.249 245.73" stroke="black" stroke-width="1.5" stroke-linecap="round" stroke-linejoin="round"/>
<path fill-rule="evenodd" clip-rule="evenodd" d="M283.092 150.1C283.092 148.576 283.946 147.341 285 147.341C286.055 147.341 286.91 148.576 286.91 150.1C286.91 151.622 286.055 152.857 285 152.857C283.946 152.857 283.092 151.622 283.092 150.1Z" fill="black"/>
<path fill-rule="evenodd" clip-rule="evenodd" d="M302.615 149.715C302.615 148.191 303.471 146.956 304.525 146.956C305.58 146.956 306.434 148.191 306.434 149.715C306.434 151.237 305.58 152.472 304.525 152.472C303.471 152.472 302.615 151.237 302.615 149.715Z" fill="black"/>
<path d="M290.768 124.363C294.011 121.454 296.298 123.026 297.852 124.751C299.404 126.475 300.482 129.538 302.53 132.83C304.384 135.811 307.613 137.566 309.793 140.258C311.765 142.691 313.978 146.392 314.349 153.372C314.721 160.352 316.115 165.534 321.973 167.543" stroke="black" stroke-width="1.5" stroke-linecap="round" stroke-linejoin="round"/>
<path d="M324.718 202.771C323.911 205.262 323.482 214.715 320.396 218.219C315.215 224.101 271.566 223.227 268.44 217.329C266.396 213.474 266.045 202.305 266.045 202.305" stroke="black" stroke-width="1.5" stroke-linecap="round" stroke-linejoin="round"/>
<path d="M214.287 62.9583L380.191 43.4853" stroke="black" stroke-width="1.5" stroke-linecap="round" stroke-linejoin="round"/>
<path d="M214.5 242.559L379.429 246.604" stroke="black" stroke-width="1.5" stroke-linecap="round" stroke-linejoin="round"/>
<path fill-rule="evenodd" clip-rule="evenodd" d="M220.367 252.445C221.16 251.633 222.695 251.478 222.695 251.478L371.201 255.454C371.201 255.454 372.663 255.428 373.369 256.244C374.075 257.061 374.026 258.718 374.026 258.718L373.807 306.643C373.807 306.643 373.724 307.983 373.053 308.609C372.381 309.236 371.12 309.152 371.12 309.152L222.483 298.5C222.483 298.5 221.038 298.46 220.318 297.748C219.597 297.038 219.603 295.658 219.603 295.658L219.525 254.726C219.525 254.726 219.576 253.257 220.367 252.445Z" fill="white" stroke="black" stroke-width="1.5" stroke-linecap="round" stroke-linejoin="round"/>
<path fill-rule="evenodd" clip-rule="evenodd" d="M127.177 59.8085C127.177 41.8749 149.211 27.3369 176.391 27.3369C203.572 27.3369 225.606 41.8749 225.606 59.8085C225.606 77.742 203.572 92.2801 176.391 92.2801C165.975 92.2801 156.314 90.1447 148.359 86.5012C148.359 86.5012 143.041 88.8402 137.448 90.1273C131.855 91.4144 125.988 91.6495 125.988 91.6495C125.988 91.6495 130.566 88.9983 133.451 86.018C136.334 83.038 137.523 79.7289 137.523 79.7289C131.038 74.2289 127.177 67.3162 127.177 59.8085Z" fill="white" stroke="black" stroke-width="1.5" stroke-linecap="round" stroke-linejoin="round"/>
<path fill-rule="evenodd" clip-rule="evenodd" d="M145.831 58.524C146.222 58.524 146.476 58.6186 146.591 58.8078C146.706 58.9971 146.763 59.2065 146.763 59.4364C146.763 59.6662 146.706 59.8756 146.591 60.0649C146.476 60.2541 146.222 60.3555 145.831 60.3691V64.3025C145.831 64.7215 145.726 65.0054 145.516 65.1541C145.307 65.3028 145.081 65.3771 144.837 65.3771C144.635 65.3771 144.448 65.2892 144.28 65.1135C144.11 64.9379 144.026 64.6674 144.026 64.3025V60.3691H138.49V64.2822C138.49 64.7013 138.386 64.9852 138.177 65.1339C137.967 65.2824 137.747 65.3569 137.518 65.3569C137.315 65.3569 137.132 65.269 136.971 65.0932C136.808 64.9175 136.727 64.6472 136.727 64.2822V53.7997C136.727 53.5699 136.76 53.3807 136.828 53.232C136.896 53.0834 136.987 52.9685 137.102 52.8874C137.217 52.8062 137.342 52.7522 137.478 52.7251C137.612 52.6982 137.741 52.6846 137.863 52.6846C138.037 52.6846 138.187 52.7589 138.309 52.9076C138.431 53.0563 138.49 53.2861 138.49 53.597V58.524H144.026V53.7997C144.026 53.5699 144.063 53.3807 144.137 53.232C144.212 53.0834 144.303 52.9685 144.411 52.8874C144.52 52.8062 144.644 52.7522 144.787 52.7251C144.928 52.6982 145.061 52.6846 145.181 52.6846C145.371 52.6846 145.527 52.7589 145.648 52.9076C145.77 53.0563 145.831 53.2861 145.831 53.597V58.524Z" fill="black" stroke="black" stroke-width="0.48" stroke-linecap="round" stroke-linejoin="round"/>
<path fill-rule="evenodd" clip-rule="evenodd" d="M155.155 62.7413C155.44 62.6332 155.682 62.6197 155.886 62.7008C156.088 62.7819 156.234 62.9102 156.321 63.0861C156.409 63.2617 156.423 63.4578 156.362 63.674C156.301 63.8903 156.142 64.0728 155.886 64.2215C155.44 64.4782 154.96 64.7148 154.446 64.9311C153.932 65.1473 153.412 65.296 152.885 65.3771C152.357 65.4583 151.837 65.4549 151.323 65.3671C150.809 65.2791 150.317 65.0731 149.844 64.7487C149.276 64.3566 148.844 63.8261 148.545 63.157C148.249 62.4879 148.093 61.7918 148.079 61.0686C148.066 60.3454 148.197 59.6493 148.475 58.9802C148.751 58.3111 149.188 57.7739 149.783 57.3683C150.404 56.9493 151.08 56.635 151.81 56.4255C152.54 56.216 153.276 56.1923 154.021 56.3546C154.385 56.4356 154.716 56.6079 155.014 56.8716C155.311 57.1351 155.551 57.4393 155.734 57.7839C155.916 58.1286 156.015 58.4935 156.027 58.8788C156.04 59.264 155.947 59.6257 155.743 59.9636C155.514 60.3421 155.182 60.6631 154.75 60.9266C154.317 61.1903 153.848 61.4133 153.341 61.5957C152.834 61.7782 152.327 61.9303 151.82 62.0519C151.313 62.1736 150.87 62.2884 150.492 62.3966C150.331 62.4372 150.175 62.4439 150.026 62.417C150.229 62.8495 150.53 63.2043 150.928 63.4813C151.327 63.7586 151.823 63.8768 152.418 63.8362C152.891 63.8091 153.369 63.6774 153.848 63.4408C154.328 63.2043 154.763 62.9711 155.155 62.7413ZM151.202 58.4226C150.702 58.6795 150.331 59.041 150.087 59.5074C149.844 59.9737 149.722 60.4637 149.722 60.9773C149.817 60.9098 149.917 60.8557 150.026 60.8152C150.27 60.7476 150.516 60.6765 150.766 60.6023C151.017 60.528 151.27 60.4569 151.526 60.3894C151.689 60.3488 151.909 60.288 152.185 60.2068C152.463 60.1258 152.749 60.0312 153.047 59.923C153.344 59.8149 153.615 59.6898 153.858 59.5479C154.102 59.406 154.263 59.2472 154.345 59.0714C154.372 58.6254 154.263 58.3212 154.021 58.1591C153.777 57.9969 153.486 57.9158 153.149 57.9158C152.81 57.9158 152.459 57.9731 152.094 58.0881C151.73 58.203 151.431 58.3145 151.202 58.4226Z" fill="black" stroke="black" stroke-width="0.48" stroke-linecap="round" stroke-linejoin="round"/>
<path fill-rule="evenodd" clip-rule="evenodd" d="M164.117 56.4356C164.225 56.2464 164.347 56.1112 164.483 56.03C164.617 55.949 164.759 55.9084 164.908 55.9084C165.137 55.9084 165.327 55.9963 165.476 56.1719C165.624 56.3478 165.699 56.5911 165.699 56.9019C165.415 57.9968 165.056 59.0579 164.624 60.0852C164.191 61.1124 163.718 62.1195 163.204 63.1062C162.691 64.0929 162.151 65.0696 161.583 66.036C161.015 67.0025 160.461 67.9792 159.92 68.9659C159.813 69.1146 159.691 69.2193 159.555 69.2802C159.42 69.341 159.292 69.3714 159.17 69.3714C158.967 69.3714 158.792 69.2971 158.643 69.1484C158.494 68.9997 158.419 68.7901 158.419 68.5198C158.419 68.4793 158.419 68.4354 158.419 68.3881C158.419 68.3408 158.426 68.29 158.44 68.236C158.886 67.4114 159.345 66.6005 159.818 65.8029C160.293 65.0054 160.752 64.2011 161.198 63.3901C160.657 62.9575 160.171 62.5149 159.738 62.062C159.306 61.6093 158.917 61.1294 158.572 60.6225C158.227 60.1156 157.926 59.5682 157.67 58.9801C157.413 58.3922 157.19 57.7535 157 57.0642C157 56.7127 157.072 56.4458 157.213 56.2633C157.355 56.0807 157.548 55.9895 157.792 55.9895C157.967 55.9895 158.133 56.047 158.288 56.1619C158.444 56.2767 158.555 56.4626 158.623 56.7195C158.772 57.2872 158.951 57.811 159.159 58.2908C159.37 58.7707 159.612 59.2167 159.89 59.629C160.167 60.0413 160.478 60.4333 160.823 60.805C161.167 61.1767 161.549 61.5382 161.968 61.8897C162.414 61.011 162.824 60.1257 163.195 59.2336C163.566 58.3415 163.874 57.4088 164.117 56.4356Z" fill="black" stroke="black" stroke-width="0.48" stroke-linecap="round" stroke-linejoin="round"/>
<path fill-rule="evenodd" clip-rule="evenodd" d="M181.801 61.8087C182.018 61.6329 182.24 61.545 182.47 61.545C182.686 61.545 182.869 61.6194 183.018 61.768C183.166 61.9167 183.24 62.1059 183.24 62.3357C183.24 62.4574 183.206 62.6061 183.139 62.7818C182.91 63.1333 182.656 63.4745 182.378 63.8058C182.102 64.137 181.794 64.4275 181.456 64.6776C181.119 64.9277 180.75 65.1305 180.352 65.2858C179.953 65.4413 179.51 65.519 179.023 65.519C178.294 65.519 177.627 65.3704 177.026 65.073C176.425 64.7756 175.904 64.3702 175.465 63.8564C175.026 63.3428 174.688 62.7379 174.451 62.0418C174.215 61.3456 174.096 60.5988 174.096 59.8013C174.096 59.2336 174.17 58.7065 174.319 58.2198C174.523 57.571 174.759 57.0033 175.028 56.5167C175.299 56.03 175.621 55.6008 175.992 55.2291C176.364 54.8574 176.789 54.5263 177.269 54.2357C177.749 53.945 178.301 53.6713 178.922 53.4146C179.327 53.2388 179.702 53.1036 180.047 53.009C180.392 52.9144 180.719 52.8671 181.031 52.8671C181.504 52.8671 181.93 53.0022 182.308 53.2726C182.686 53.5429 183.045 54.0025 183.383 54.6513C183.423 54.773 183.444 54.8946 183.444 55.0163C183.444 55.2596 183.369 55.4557 183.22 55.6042C183.071 55.7529 182.889 55.8274 182.672 55.8274C182.416 55.8274 182.179 55.7192 181.963 55.503C181.774 55.1379 181.606 54.8812 181.456 54.7325C181.307 54.5838 181.139 54.5093 180.949 54.5093C180.8 54.5093 180.625 54.5466 180.422 54.6209C180.219 54.6953 179.963 54.7866 179.652 54.8946C179.138 55.0974 178.645 55.3441 178.172 55.6347C177.699 55.9254 177.283 56.2767 176.925 56.6891C176.567 57.1013 176.282 57.5778 176.073 58.1184C175.863 58.6591 175.759 59.2742 175.759 59.9636C175.759 60.4501 175.834 60.9266 175.981 61.3929C176.13 61.8594 176.343 62.2784 176.621 62.6501C176.898 63.0218 177.239 63.3192 177.645 63.5422C178.05 63.7652 178.516 63.8767 179.044 63.8767C179.354 63.8767 179.645 63.8159 179.915 63.6943C180.186 63.5725 180.436 63.4104 180.666 63.2076C180.895 63.0048 181.105 62.7818 181.294 62.5385C181.484 62.2952 181.652 62.0519 181.801 61.8087Z" fill="black" stroke="black" stroke-width="0.48" stroke-linecap="round" stroke-linejoin="round"/>
<path fill-rule="evenodd" clip-rule="evenodd" d="M184.821 60.1461C184.968 59.7135 185.151 59.2911 185.368 58.8788C185.584 58.4665 185.841 58.0914 186.138 57.7535C186.435 57.4156 186.777 57.1249 187.162 56.8816C187.548 56.6384 187.976 56.4626 188.45 56.3546C189.233 56.1787 189.92 56.2396 190.507 56.537C191.096 56.8343 191.566 57.2601 191.917 57.8144C192.268 58.3685 192.501 59.0005 192.617 59.7101C192.732 60.4198 192.701 61.099 192.526 61.7478C192.322 62.5453 191.965 63.2887 191.451 63.9781C190.937 64.6674 190.288 65.1676 189.504 65.4785C188.923 65.7082 188.366 65.7928 187.831 65.732C187.297 65.6711 186.817 65.4988 186.392 65.215C185.966 64.9311 185.604 64.5594 185.307 64.0997C185.009 63.6402 184.807 63.1198 184.699 62.5385C184.631 62.1736 184.608 61.8153 184.628 61.464C184.649 61.1125 184.692 60.7611 184.76 60.4096L184.821 60.1461ZM186.401 60.6124C186.348 60.8963 186.31 61.1564 186.29 61.3929C186.27 61.6295 186.281 61.8965 186.321 62.1938C186.362 62.5589 186.476 62.8866 186.666 63.1773C186.855 63.4679 187.085 63.6909 187.354 63.8464C187.625 64.0017 187.926 64.0761 188.257 64.0694C188.588 64.0626 188.923 63.9578 189.26 63.7551C189.706 63.4847 190.061 63.1333 190.326 62.7008C190.589 62.2682 190.788 61.8019 190.923 61.3017C191.032 60.8962 191.055 60.4637 190.994 60.0042C190.933 59.5445 190.795 59.139 190.579 58.7875C190.362 58.4362 190.072 58.1827 189.706 58.0272C189.342 57.8718 188.909 57.8954 188.409 58.0982C187.868 58.328 187.442 58.6727 187.132 59.1322C186.822 59.5918 186.578 60.0852 186.401 60.6124Z" fill="black" stroke="black" stroke-width="0.48" stroke-linecap="round" stroke-linejoin="round"/>
<path fill-rule="evenodd" clip-rule="evenodd" d="M201.508 61.8087C201.723 61.6329 201.947 61.545 202.176 61.545C202.393 61.545 202.575 61.6194 202.724 61.768C202.873 61.9167 202.947 62.1059 202.947 62.3357C202.947 62.4574 202.914 62.6061 202.846 62.7818C202.615 63.1333 202.362 63.4745 202.085 63.8058C201.807 64.137 201.501 64.4275 201.162 64.6776C200.825 64.9277 200.456 65.1305 200.057 65.2858C199.659 65.4413 199.216 65.519 198.729 65.519C198 65.519 197.334 65.3704 196.732 65.073C196.13 64.7756 195.611 64.3702 195.17 63.8564C194.731 63.3428 194.394 62.7379 194.158 62.0418C193.921 61.3456 193.803 60.5988 193.803 59.8013C193.803 59.2336 193.877 58.7065 194.025 58.2198C194.228 57.571 194.464 57.0033 194.735 56.5167C195.005 56.03 195.326 55.6008 195.698 55.2291C196.071 54.8574 196.496 54.5263 196.976 54.2357C197.456 53.945 198.006 53.6713 198.629 53.4146C199.034 53.2388 199.409 53.1036 199.754 53.009C200.098 52.9144 200.426 52.8671 200.736 52.8671C201.21 52.8671 201.635 53.0022 202.015 53.2726C202.393 53.5429 202.751 54.0025 203.088 54.6513C203.129 54.773 203.149 54.8946 203.149 55.0163C203.149 55.2596 203.075 55.4557 202.927 55.6042C202.778 55.7529 202.595 55.8274 202.379 55.8274C202.122 55.8274 201.886 55.7192 201.669 55.503C201.481 55.1379 201.311 54.8812 201.162 54.7325C201.014 54.5838 200.845 54.5093 200.655 54.5093C200.507 54.5093 200.331 54.5466 200.129 54.6209C199.926 54.6953 199.668 54.7866 199.358 54.8946C198.844 55.0974 198.351 55.3441 197.878 55.6347C197.404 55.9254 196.99 56.2767 196.63 56.6891C196.273 57.1013 195.989 57.5778 195.779 58.1184C195.57 58.6591 195.465 59.2742 195.465 59.9636C195.465 60.4501 195.539 60.9266 195.688 61.3929C195.837 61.8594 196.05 62.2784 196.327 62.6501C196.603 63.0218 196.945 63.3192 197.35 63.5422C197.757 63.7652 198.223 63.8767 198.749 63.8767C199.061 63.8767 199.351 63.8159 199.622 63.6943C199.892 63.5725 200.141 63.4104 200.372 63.2076C200.602 63.0048 200.811 62.7818 201.001 62.5385C201.189 62.2952 201.359 62.0519 201.508 61.8087Z" fill="black" stroke="black" stroke-width="0.48" stroke-linecap="round" stroke-linejoin="round"/>
<path fill-rule="evenodd" clip-rule="evenodd" d="M204.526 60.1461C204.675 59.7135 204.858 59.2911 205.073 58.8788C205.29 58.4665 205.546 58.0914 205.843 57.7535C206.141 57.4156 206.483 57.1249 206.868 56.8816C207.253 56.6384 207.683 56.4626 208.156 56.3546C208.939 56.1787 209.625 56.2396 210.214 56.537C210.802 56.8343 211.271 57.2601 211.622 57.8144C211.974 58.3685 212.208 59.0005 212.321 59.7101C212.437 60.4198 212.407 61.099 212.231 61.7478C212.027 62.5453 211.669 63.2887 211.156 63.9781C210.642 64.6674 209.994 65.1676 209.209 65.4785C208.629 65.7082 208.07 65.7928 207.536 65.732C207.004 65.6711 206.524 65.4988 206.097 65.215C205.671 64.9311 205.31 64.5594 205.012 64.0997C204.715 63.6402 204.512 63.1198 204.405 62.5385C204.337 62.1736 204.313 61.8153 204.333 61.464C204.353 61.1125 204.398 60.7611 204.465 60.4096L204.526 60.1461ZM206.108 60.6124C206.053 60.8963 206.017 61.1564 205.996 61.3929C205.976 61.6295 205.986 61.8965 206.026 62.1938C206.067 62.5589 206.182 62.8866 206.371 63.1773C206.56 63.4679 206.789 63.6909 207.061 63.8464C207.33 64.0017 207.631 64.0761 207.963 64.0694C208.294 64.0626 208.629 63.9578 208.966 63.7551C209.412 63.4847 209.768 63.1333 210.031 62.7008C210.295 62.2682 210.494 61.8019 210.628 61.3017C210.737 60.8962 210.761 60.4637 210.7 60.0042C210.639 59.5445 210.501 59.139 210.284 58.7875C210.069 58.4362 209.777 58.1827 209.412 58.0272C209.048 57.8718 208.615 57.8954 208.115 58.0982C207.574 58.328 207.149 58.6727 206.837 59.1322C206.526 59.5918 206.284 60.0852 206.108 60.6124Z" fill="black" stroke="black" stroke-width="0.48" stroke-linecap="round" stroke-linejoin="round"/>
<path fill-rule="evenodd" clip-rule="evenodd" d="M213.977 64.0795C213.977 63.7685 214.085 63.505 214.302 63.2886C214.517 63.0724 214.775 62.9643 215.072 62.9643C215.382 62.9643 215.647 63.0724 215.862 63.2886C216.079 63.505 216.187 63.7685 216.187 64.0795C216.187 64.3768 216.079 64.6336 215.862 64.8499C215.647 65.0662 215.382 65.1744 215.072 65.1744C214.775 65.1744 214.517 65.0662 214.302 64.8499C214.085 64.6336 213.977 64.3768 213.977 64.0795ZM214.16 53.6172C214.214 53.3605 214.318 53.1644 214.474 53.0293C214.629 52.8941 214.791 52.8231 214.961 52.8163C215.129 52.8096 215.296 52.867 215.457 52.9888C215.619 53.1104 215.742 53.2996 215.821 53.5565V60.5515C215.808 60.8489 215.721 61.0753 215.559 61.2308C215.396 61.3862 215.217 61.4673 215.022 61.4741C214.825 61.4809 214.642 61.4132 214.474 61.2713C214.305 61.1294 214.2 60.9098 214.16 60.6123V53.6172Z" fill="black" stroke="black" stroke-width="0.48" stroke-linecap="round" stroke-linejoin="round"/>
<path fill-rule="evenodd" clip-rule="evenodd" d="M227.648 275.664C227.648 267.363 233.808 260.634 241.407 260.634C249.005 260.634 255.165 267.363 255.165 275.664C255.165 283.966 249.005 290.695 241.407 290.695C233.808 290.695 227.648 283.966 227.648 275.664Z" fill="#AFDD90" stroke="black" stroke-width="1.5" stroke-linecap="round" stroke-linejoin="round"/>
<path d="M357.333 277.356L357.266 282.967L357.254 283.997" stroke="black" stroke-width="1.5" stroke-linecap="round" stroke-linejoin="round"/>
<path d="M353.412 273.945L353.411 274.191L353.343 284.84L353.333 286.288L353.332 286.447" stroke="black" stroke-width="1.5" stroke-linecap="round" stroke-linejoin="round"/>
<path d="M349.224 268.489L349.07 290.688" stroke="black" stroke-width="1.5" stroke-linecap="round" stroke-linejoin="round"/>
<path d="M345.067 276.22L345.065 276.891L345.048 283.108L345.045 283.958" stroke="black" stroke-width="1.5" stroke-linecap="round" stroke-linejoin="round"/>
<path d="M341.632 272.968L341.549 286.311" stroke="black" stroke-width="1.5" stroke-linecap="round" stroke-linejoin="round"/>
<path d="M337.722 268.779L337.641 290.516" stroke="black" stroke-width="1.5" stroke-linecap="round" stroke-linejoin="round"/>
<path d="M333.775 268.214L333.727 290.215" stroke="black" stroke-width="1.5" stroke-linecap="round" stroke-linejoin="round"/>
<path d="M329.871 266.292L329.752 292.385" stroke="black" stroke-width="1.5" stroke-linecap="round" stroke-linejoin="round"/>
<path d="M325.607 268.428L325.62 289.924" stroke="black" stroke-width="1.5" stroke-linecap="round" stroke-linejoin="round"/>
<path d="M321.76 272.342L321.788 285.33" stroke="black" stroke-width="1.5" stroke-linecap="round" stroke-linejoin="round"/>
<path d="M317.874 275.751L317.844 282.597" stroke="black" stroke-width="1.5" stroke-linecap="round" stroke-linejoin="round"/>
<path d="M313.788 268.283L313.738 288.369" stroke="black" stroke-width="1.5" stroke-linecap="round" stroke-linejoin="round"/>
<path d="M309.764 272.003L309.93 284.889" stroke="black" stroke-width="1.5" stroke-linecap="round" stroke-linejoin="round"/>
<path d="M305.566 274.976L305.583 282.404" stroke="black" stroke-width="1.5" stroke-linecap="round" stroke-linejoin="round"/>
<path d="M301.861 267.727L301.886 288.35" stroke="black" stroke-width="1.5" stroke-linecap="round" stroke-linejoin="round"/>
<path d="M297.936 264.484L298.009 290.995" stroke="black" stroke-width="1.5" stroke-linecap="round" stroke-linejoin="round"/>
<path d="M294.125 261.495L294.13 293.414" stroke="black" stroke-width="1.5" stroke-linecap="round" stroke-linejoin="round"/>
<path d="M289.992 264.381L290.102 290.756" stroke="black" stroke-width="1.5" stroke-linecap="round" stroke-linejoin="round"/>
<path d="M286.35 266.444L286.279 288.22" stroke="black" stroke-width="1.5" stroke-linecap="round" stroke-linejoin="round"/>
<path d="M282.965 270.712V283.582" stroke="black" stroke-width="1.5" stroke-linecap="round" stroke-linejoin="round"/>
<path d="M279.66 273.641L279.623 280.006" stroke="black" stroke-width="1.5" stroke-linecap="round" stroke-linejoin="round"/>
<path d="M276.084 270.508L276.142 283.155" stroke="black" stroke-width="1.5" stroke-linecap="round" stroke-linejoin="round"/>
<path d="M272.463 266.158L272.548 287.607" stroke="black" stroke-width="1.5" stroke-linecap="round" stroke-linejoin="round"/>
<path d="M268.598 263.224L268.549 289.209" stroke="black" stroke-width="1.5" stroke-linecap="round" stroke-linejoin="round"/>
<path d="M264.838 268.478L264.891 284.801" stroke="black" stroke-width="1.5" stroke-linecap="round" stroke-linejoin="round"/>
<path d="M236.102 273.295L240.485 282.465L246.167 268.182" stroke="black" stroke-width="1.5" stroke-linecap="round" stroke-linejoin="round"/>
<path d="M260.46 212.796L240.18 212.415V195.362" stroke="#F06937" stroke-width="2" stroke-linecap="round" stroke-linejoin="round"/>
<path d="M352.419 195.363L352.363 214.521L333.533 214.688" stroke="#F06937" stroke-width="2" stroke-linecap="round" stroke-linejoin="round"/>
<path d="M338.709 81.5463L352.749 80.3632L352.735 97.4816" stroke="#F06937" stroke-width="2" stroke-linecap="round" stroke-linejoin="round"/>
<path d="M240.268 106.833L240.18 89.8504L256.353 88.504" stroke="#F06937" stroke-width="2" stroke-linecap="round" stroke-linejoin="round"/>
<path fill-rule="evenodd" clip-rule="evenodd" d="M304.592 424.594C303.31 423.18 300.735 422.989 300.735 422.989L281.846 420.735C281.846 420.735 279.671 420.468 278.549 421.728C277.426 422.989 277.357 425.779 277.357 425.779L277.228 441.356C277.228 441.356 277.143 443.26 278.119 444.502C279.095 445.742 281.536 445.981 281.536 445.981L300.838 449.063C300.838 449.063 303.475 449.547 304.634 448.394C305.793 447.24 305.75 444.673 305.75 444.673L305.866 428.647C305.866 428.647 305.876 426.008 304.592 424.594Z" fill="#8C95A7" stroke="black" stroke-width="1.5" stroke-linecap="round" stroke-linejoin="round"/>
<path d="M287.139 420.962C286.952 412.239 286.861 407.033 283.65 404.576C280.472 402.146 272.933 401.088 270.186 404.88C267.569 408.494 268.011 413.424 268.011 414.358C268.011 415.292 271.593 416.189 271.936 414.42C272.279 412.651 271.789 409.035 274.031 407.352C275.656 406.134 278.977 406.695 280.909 407.878C283.259 409.319 283.106 417.48 283.002 419.984" stroke="black" stroke-width="1.5" stroke-linecap="round" stroke-linejoin="round"/>
<path fill-rule="evenodd" clip-rule="evenodd" d="M294.315 431.139C294.315 429.437 292.846 428.059 291.031 428.059C289.217 428.059 287.746 429.437 287.746 431.139C287.746 432.353 288.497 433.405 289.588 433.905C289.774 433.991 289.691 438.475 289.808 440.14C289.908 441.591 292.115 441.511 292.21 440.64C292.374 439.12 292.179 434.071 292.659 433.815C293.648 433.283 294.315 432.284 294.315 431.139Z" fill="#4A566E" stroke="black" stroke-width="1.5" stroke-linecap="round" stroke-linejoin="round"/>
<path fill-rule="evenodd" clip-rule="evenodd" d="M293.455 179.605C293.455 178.68 294.176 177.929 295.067 177.929C295.956 177.929 296.677 178.68 296.677 179.605C296.677 180.53 295.956 181.28 295.067 181.28C294.176 181.28 293.455 180.53 293.455 179.605Z" fill="#F06937"/>
<path fill-rule="evenodd" clip-rule="evenodd" d="M282.568 172.236C282.568 171.31 283.29 170.56 284.179 170.56C285.069 170.56 285.791 171.31 285.791 172.236C285.791 173.16 285.069 173.911 284.179 173.911C283.29 173.911 282.568 173.16 282.568 172.236Z" fill="#F06937"/>
<path fill-rule="evenodd" clip-rule="evenodd" d="M304.004 172.268C304.004 171.342 304.725 170.593 305.616 170.593C306.505 170.593 307.226 171.342 307.226 172.268C307.226 173.194 306.505 173.944 305.616 173.944C304.725 173.944 304.004 173.194 304.004 172.268Z" fill="#F06937"/>
<path fill-rule="evenodd" clip-rule="evenodd" d="M292.398 142.957C292.398 142.031 293.121 141.281 294.01 141.281C294.901 141.281 295.622 142.031 295.622 142.957C295.622 143.883 294.901 144.632 294.01 144.632C293.121 144.632 292.398 143.883 292.398 142.957Z" fill="#F06937"/>
<path fill-rule="evenodd" clip-rule="evenodd" d="M283.189 145.363C283.189 144.437 283.911 143.687 284.8 143.687C285.691 143.687 286.412 144.437 286.412 145.363C286.412 146.289 285.691 147.038 284.8 147.038C283.911 147.038 283.189 146.289 283.189 145.363Z" fill="#F06937"/>
<path fill-rule="evenodd" clip-rule="evenodd" d="M302.619 144.879C302.619 143.953 303.34 143.204 304.23 143.204C305.12 143.204 305.841 143.953 305.841 144.879C305.841 145.804 305.12 146.554 304.23 146.554C303.34 146.554 302.619 145.804 302.619 144.879Z" fill="#F06937"/>
<path fill-rule="evenodd" clip-rule="evenodd" d="M310.857 152.005C310.857 151.081 311.579 150.33 312.469 150.33C313.358 150.33 314.08 151.081 314.08 152.005C314.08 152.931 313.358 153.682 312.469 153.682C311.579 153.682 310.857 152.931 310.857 152.005Z" fill="#F06937"/>
<path fill-rule="evenodd" clip-rule="evenodd" d="M275.584 152.499C275.584 151.574 276.305 150.823 277.194 150.823C278.085 150.823 278.806 151.574 278.806 152.499C278.806 153.425 278.085 154.174 277.194 154.174C276.305 154.174 275.584 153.425 275.584 152.499Z" fill="#F06937"/>
<path d="M285.047 145.645L293.022 143.157" stroke="#F06937" stroke-width="0.8" stroke-linecap="round" stroke-linejoin="round"/>
<path d="M294.359 143.048L303.962 144.929" stroke="#F06937" stroke-width="0.8" stroke-linecap="round" stroke-linejoin="round"/>
<path d="M276.986 152.217L284.282 145.593" stroke="#F06937" stroke-width="0.8" stroke-linecap="round" stroke-linejoin="round"/>
<path d="M304.523 145.031L312.397 151.422" stroke="#F06937" stroke-width="0.8" stroke-linecap="round" stroke-linejoin="round"/>
<path d="M284.381 172.625L294.999 179.763" stroke="#F06937" stroke-width="0.8" stroke-linecap="round" stroke-linejoin="round"/>
<path d="M305.557 172.153L294.762 179.763" stroke="#F06937" stroke-width="0.8" stroke-linecap="round" stroke-linejoin="round"/>
<path d="M276.861 152.771L283.97 172.302" stroke="#F06937" stroke-width="0.8" stroke-linecap="round" stroke-linejoin="round"/>
<path d="M306.096 172.009L312.554 152.291" stroke="#F06937" stroke-width="0.8" stroke-linecap="round" stroke-linejoin="round"/>
</svg>
