<svg width="612" height="410" viewBox="0 0 612 410" fill="none" xmlns="http://www.w3.org/2000/svg">
<path d="M100.799 353.178L85.6622 357.289L65.2891 346.264L65.8505 359.532L85.6622 371.68L101.547 367.569L101.36 354.86L100.799 353.178Z" fill="#0070C0"/>
<path d="M69.0295 393.544L87.3441 401.394L98.3696 397.47L98.7439 323.838L68.0938 308.698L69.0295 393.544Z" fill="#0070C0"/>
<path d="M184.654 308.822L114.469 280.539C114.535 278.953 115.611 241.461 115.83 239.865C118.903 217.83 136.653 202.1 155.478 204.727C172.55 207.099 184.644 223.229 184.476 242.742L184.508 243.532C184.796 257.488 184.574 293.331 184.66 308.822H184.654Z" fill="#E6F3FF"/>
<path d="M114.467 280.535L153.875 296.55L114.441 304.775L114.467 280.535Z" fill="#D2DCF0"/>
<path d="M151.822 204.228L34.4613 181.425C34.4613 181.425 5.86656 180.867 2.31403 213.198C-1.23851 245.53 1.94292 276.18 1.94292 276.18L114.818 330.936L142.29 325.519L114.444 304.775C114.444 304.775 115.006 261.789 115.193 244.781C115.38 227.773 128.648 204.041 151.822 204.228V204.228Z" fill="#0070C0"/>
<path d="M185.836 289.077L115.191 305.336C115.191 305.336 147.336 330.188 162.475 340.281C177.615 350.374 205.832 358.225 226.763 346.825C247.695 335.425 232.653 317.345 223.962 312.064C214.447 306.269 185.836 289.077 185.836 289.077V289.077Z" fill="#0070C0"/>
<path d="M185.834 174.139L155.371 170.216L155.558 187.408L186.018 192.267L185.834 174.139Z" fill="#0070C0"/>
<path d="M116.924 244.616C117.777 225.8 131.439 205.478 152.053 205.954C161.058 206.163 169.387 210.756 174.891 217.788C177.812 221.562 179.983 225.86 181.285 230.45C182.554 234.891 182.852 239.306 182.998 243.88C183.48 258.757 183.188 273.674 183.268 288.553C183.268 290.501 186.306 290.504 186.297 288.553C186.218 274.229 186.297 259.905 186.059 245.58C185.973 240.547 185.774 235.567 184.473 230.672C183.23 225.805 181.092 221.212 178.167 217.128C172.525 209.36 164.094 204.092 154.486 203.077C144.878 202.062 135.369 205.868 128.292 212.304C119.246 220.532 114.437 232.519 113.889 244.607C113.8 246.551 116.829 246.548 116.915 244.607L116.924 244.616Z" fill="black"/>
<path d="M115.957 304.908C115.808 284.805 116.084 264.704 116.931 244.613C117.01 242.669 113.984 242.672 113.902 244.613C113.058 264.704 112.782 284.805 112.928 304.908C112.944 306.856 115.973 306.859 115.957 304.908Z" fill="black"/>
<path d="M159.946 340.16C169.405 346.869 180.773 350.964 192.198 352.664C202.104 354.142 212.692 354.088 222.249 350.786C229.988 348.112 238.089 342.593 239.11 333.794C240.262 323.911 232.062 315.578 224.57 310.493C218.766 306.554 212.476 303.22 206.408 299.709C199.864 295.918 193.308 292.153 186.768 288.36C185.077 287.38 183.551 289.993 185.239 290.973C195.896 297.156 206.598 303.255 217.202 309.526C224.989 314.125 234.552 320.31 236.046 330.089C237.337 338.527 230.02 344.55 222.927 347.329C214.265 350.726 204.546 351.097 195.395 350.063C183.377 348.705 171.368 344.569 161.475 337.553C159.889 336.424 158.37 339.047 159.946 340.167V340.16Z" fill="black"/>
<path d="M115.321 306.576C129.887 318.177 144.762 329.369 159.947 340.154C161.533 341.286 163.049 338.66 161.476 337.54C146.524 326.878 131.852 315.843 117.463 304.435C115.953 303.236 113.799 305.361 115.321 306.576Z" fill="black"/>
<path d="M155.88 203.258L133.978 199.049L87.8239 190.136L47.4867 182.352L38.6625 180.652C34.9009 179.92 31.0309 179.945 27.2793 180.727C23.5277 181.509 19.9699 183.032 16.8144 185.207C7.20351 191.754 1.17689 203.173 0.707449 214.731C0.0730673 231.098 -0.123591 247.484 0.0730673 263.864C0.117474 267.867 0.184086 271.87 0.272899 275.873C0.271825 276.138 0.34043 276.398 0.471821 276.628C0.603212 276.858 0.792772 277.049 1.02147 277.183L39.2017 296.033L100.086 326.097L114.097 333.015C115.086 333.503 116.4 332.923 116.374 331.708C116.184 322.776 116.049 313.843 115.968 304.908C115.952 302.961 112.926 302.954 112.939 304.908C113.013 313.845 113.148 322.778 113.345 331.708L115.622 330.401L77.4295 311.547L16.548 281.484L2.53764 274.566L3.28621 275.873C2.94682 259.851 2.91193 243.836 3.31159 227.806C3.49239 220.574 3.0737 213.015 5.26231 206.046C6.96437 200.526 9.97792 195.5 14.0453 191.398C20.2337 185.248 28.9184 181.851 37.6189 183.526L45.1395 184.979L83.1834 192.315L129.201 201.196C137.693 202.836 146.171 204.594 154.684 206.113C154.815 206.135 154.945 206.164 155.075 206.189C156.978 206.557 157.793 203.636 155.88 203.268V203.258Z" fill="black"/>
<path d="M186.961 287.825V172.238L185.444 173.751H187.306L185.781 172.238V290.233C185.781 292.18 188.81 292.183 188.81 290.233V172.238C188.804 171.838 188.643 171.457 188.36 171.174C188.078 170.892 187.696 170.73 187.297 170.725H185.435C185.035 170.73 184.654 170.892 184.371 171.174C184.089 171.457 183.928 171.838 183.922 172.238V287.825C183.922 289.776 186.951 289.779 186.951 287.825H186.961Z" fill="black"/>
<path d="M185.446 172.294L159.224 169.29L155.478 168.858C154.663 168.766 153.965 169.629 153.965 170.371V187.068C153.965 187.665 154.428 188.429 155.075 188.527L182.135 192.616L185.976 193.196C187.879 193.485 188.704 190.57 186.778 190.278L159.722 186.186L155.881 185.609L156.991 187.068V170.371L155.478 171.884L181.7 174.894L185.446 175.323C187.381 175.545 187.349 172.516 185.446 172.294V172.294Z" fill="black"/>
<path d="M115.249 333.167L138.984 327.438L142.318 326.633C144.221 326.176 143.409 323.258 141.516 323.714L117.783 329.443C116.67 329.712 115.563 329.982 114.443 330.245C112.54 330.705 113.355 333.627 115.249 333.167V333.167Z" fill="black"/>
<path d="M115.249 306.367L139.407 301.143L177.923 292.814L186.782 290.911C188.685 290.501 187.88 287.583 185.977 287.992L161.819 293.216L123.296 301.53L114.437 303.449C112.534 303.858 113.343 306.78 115.243 306.367H115.249Z" fill="black"/>
<path d="M153.745 294.839L119.751 281.048L114.873 279.069C113.071 278.336 112.285 281.267 114.071 281.99L148.061 295.791L152.936 297.77C154.741 298.503 155.527 295.575 153.742 294.849L153.745 294.839Z" fill="black"/>
<path d="M100.14 397.703C100.121 389.358 100.101 381.013 100.08 372.667C100.08 371.465 100.08 370.266 100.08 369.063C100.08 367.116 97.0444 367.113 97.0508 369.063C97.0698 377.408 97.0899 385.752 97.1111 394.096V397.703C97.1111 399.65 100.143 399.653 100.137 397.703H100.14Z" fill="black"/>
<path d="M97.1133 323.704V353.837C97.1133 355.788 100.139 355.791 100.139 353.837V323.704C100.139 321.756 97.1133 321.753 97.1133 323.704Z" fill="black"/>
<path d="M88.3339 401.395V371.788C88.3339 369.84 85.3047 369.837 85.3047 371.788V401.395C85.3047 403.342 88.3339 403.345 88.3339 401.395Z" fill="black"/>
<path d="M88.3339 357.539V317.861C88.3339 315.914 85.3047 315.911 85.3047 317.861V357.539C85.3047 359.486 88.3339 359.489 88.3339 357.539V357.539Z" fill="black"/>
<path d="M70.5057 392.963V361.495C70.5057 359.544 67.4766 359.541 67.4766 361.495V392.963C67.4766 394.911 70.5057 394.914 70.5057 392.963Z" fill="black"/>
<path d="M67.4688 309.063V347.985C67.4688 349.933 70.4979 349.936 70.4979 347.985V309.063C70.4979 307.119 67.4688 307.115 67.4688 309.063Z" fill="black"/>
<path d="M86.1414 373.244L99.9265 370.008L101.887 369.548C102.204 369.457 102.484 369.266 102.684 369.003C102.884 368.74 102.994 368.42 102.997 368.089V353.838C102.993 353.607 102.937 353.381 102.833 353.175C102.729 352.969 102.58 352.789 102.397 352.649C102.214 352.509 102.002 352.412 101.776 352.365C101.551 352.318 101.317 352.323 101.094 352.379L87.3087 355.614L85.3484 356.074C85.0308 356.165 84.7511 356.356 84.551 356.619C84.3509 356.882 84.2412 357.203 84.2383 357.533V371.775C84.2383 373.722 87.2643 373.726 87.2643 371.775V357.533L86.1541 358.992L99.9392 355.76L101.899 355.3L99.9963 353.838V368.083C100.366 367.599 100.736 367.112 101.106 366.624L87.3214 369.859L85.3611 370.316C83.458 370.763 84.2668 373.681 86.1668 373.237L86.1414 373.244Z" fill="black"/>
<path d="M65.1502 360.921L82.4625 371.55L84.9746 373.091C85.2055 373.221 85.4662 373.288 85.7311 373.287C85.996 373.286 86.256 373.216 86.4856 373.083C86.7153 372.951 86.9066 372.762 87.041 372.534C87.1753 372.305 87.248 372.046 87.252 371.781V357.539C87.2513 357.275 87.1819 357.016 87.0506 356.787C86.9194 356.558 86.7308 356.367 86.5035 356.233L69.1373 346.327L66.6759 344.921C66.4449 344.792 66.1842 344.724 65.9193 344.726C65.6544 344.727 65.3944 344.797 65.1648 344.929C64.9352 345.061 64.7438 345.251 64.6095 345.479C64.4751 345.707 64.4024 345.967 64.3984 346.231V359.617C64.3984 361.564 67.4276 361.568 67.4276 359.617V346.225L65.1502 347.532L82.5164 357.438L84.9746 358.84L84.2229 357.533V371.775L86.5035 370.471L69.188 359.864L66.6759 358.323C65.0138 357.301 63.504 359.909 65.1502 360.936V360.921Z" fill="black"/>
<path d="M102.25 352.538C101.404 352.017 100.569 351.495 99.7439 350.971L99.3855 350.749C99.0313 350.547 98.6122 350.493 98.2182 350.596C97.8325 350.705 97.5054 350.962 97.3076 351.31C97.1099 351.659 97.0576 352.071 97.162 352.458C97.2767 352.835 97.5248 353.156 97.8598 353.362L100.366 354.929L100.724 355.154C101.078 355.354 101.495 355.409 101.888 355.307C102.275 355.199 102.604 354.942 102.802 354.592C103 354.243 103.053 353.829 102.948 353.442C102.831 353.066 102.583 352.745 102.25 352.538V352.538Z" fill="black"/>
<path d="M65.9128 347.744H68.9927C69.3928 347.739 69.7756 347.58 70.0616 347.3C70.2729 347.088 70.4167 346.819 70.4749 346.525C70.5331 346.232 70.5032 345.928 70.3888 345.652C70.2744 345.376 70.0808 345.14 69.8323 344.973C69.5838 344.807 69.2917 344.718 68.9927 344.718H65.9128C65.5132 344.723 65.1307 344.881 64.8438 345.159C64.6315 345.37 64.4868 345.64 64.4279 345.934C64.3691 346.227 64.3988 346.532 64.5133 346.809C64.6277 347.086 64.8219 347.322 65.071 347.489C65.3202 347.655 65.6132 347.744 65.9128 347.744Z" fill="black"/>
<path d="M192.632 300.531L149.176 312.067L142.994 313.71C141.113 314.208 141.913 317.13 143.8 316.629L187.255 305.092L193.44 303.453C195.321 302.951 194.522 300.03 192.635 300.531H192.632Z" fill="black"/>
<path d="M191.245 302.411L153.655 312.387L148.323 313.801C146.442 314.303 147.241 317.224 149.125 316.723L186.715 306.744L192.051 305.329C193.932 304.831 193.132 301.91 191.245 302.411V302.411Z" fill="black"/>
<path d="M414.999 368.987L412.889 398.879C412.141 413.641 563.742 414.294 562.997 397.293C562.001 374.674 559.035 366.551 559.035 366.551L414.999 368.987Z" fill="#9698A3"/>
<path d="M463.366 162.178C461.123 153.208 459.753 146.604 459.753 146.604C459.753 146.604 453.584 136.454 453.707 133.964C453.831 131.474 454.925 123.966 452.438 119.979C450.842 117.527 448.539 115.616 445.835 114.498L430.508 119.732C430.508 119.732 424.031 120.477 420.792 112.119C417.554 103.761 416.929 96.4213 411.448 94.4294C405.967 92.4374 402.976 90.3059 405.104 86.2046C407.232 82.1034 410.836 77.6088 410.461 73.8723C410.087 70.1358 404.118 57.7368 404.359 54.8091C404.6 51.8814 406.849 31.0198 406.849 31.0198L459.429 20.4288L486.073 62.0442C486.073 62.0442 488.294 77.0791 490.514 84.4316C492.734 91.784 490.016 102.511 498.364 108.354C498.862 110.844 486.901 130.034 480.795 135.265C474.689 140.495 467.838 146.728 467.838 146.728L465.228 163.425L463.366 162.178Z" fill="#FFD6BA"/>
<path d="M410.069 73.0102C401.47 73.7556 392.624 66.7774 394.371 51.3302C391.253 54.3213 389.011 60.6746 392.002 67.6528C385.274 59.6755 380.9 41.9857 395.738 35.8798C396.236 30.2751 394.742 24.9145 407.078 23.17C412.185 22.174 415.921 16.693 420.533 13.7019C425.145 10.7107 444.205 1.12207 455.047 1.12207C465.888 1.12207 475.905 3.77696 483.331 11.4625C490.756 19.148 494.169 22.802 501.518 26.4149C498.277 29.6534 493.046 28.2831 493.046 28.2831C497.658 38.0018 495.901 43.1086 492.922 46.972C494.54 51.5808 494.416 53.449 489.684 70.5202C488.561 78.7418 491.676 86.218 491.676 86.218H488.063L482.579 80.9843C482.579 80.9843 476.727 86.218 469.124 75.2559C473.111 69.1499 474.982 65.2866 471.617 59.1838C468.251 53.0811 465.349 52.304 462.272 54.3245C459.196 56.345 454.174 63.7926 452.056 64.1574C449.937 64.5221 446.324 64.7918 439.971 60.5446C434.988 60.0434 422.401 60.5446 409.07 47.3368C409.194 51.5713 411.814 55.9326 411.814 55.9326L404.325 51.5776C404.325 51.5776 403.827 57.4361 406.069 62.6793C408.312 67.9224 410.056 73.0229 410.056 73.0229L410.069 73.0102Z" fill="black"/>
<path d="M420.344 98.8166C420.344 98.8166 424.67 110.584 432.131 106.233C439.591 101.881 437.256 93.0723 437.256 93.0723C437.256 93.0723 432.562 95.3275 428.013 97.0371C425.537 97.9356 422.962 98.5331 420.344 98.8166V98.8166Z" fill="white"/>
<path d="M450.318 121.702L441.199 131.03C441.199 131.03 407.643 146.278 399.545 160.351C391.448 174.425 381.259 256.362 381.259 256.362C381.259 256.362 364.686 252.004 354.346 251.629C344.005 251.255 314.351 245.149 313.745 246.643C313.14 248.137 313.244 276.672 314.243 277.668C315.242 278.664 336.669 286.14 340.408 286.638C344.148 287.136 380.527 295.237 398.965 296.233C409.807 295.954 413.296 292.246 415.535 275.178C415.11 300.718 414.368 334.108 411.04 356.721C411.675 364.448 409.546 366.554 418.39 369.431C427.233 372.308 466.875 381.341 506.746 377.361C546.617 373.38 559.489 367.997 561.233 364.759C562.978 361.52 562.819 357.003 562.819 352.144C562.819 347.285 560.57 323.838 560.57 323.838C560.57 323.838 600.105 296.363 607.956 281.785C613.928 270.106 602.186 244.283 595.334 213.135C586.859 186.723 583.916 164.979 572.008 146.646C554.778 133.701 541.187 130.469 531.091 125.803C520.995 121.137 503.879 114.831 503.879 114.831L499.394 107.358L498.103 107.723L497.275 110.721C497.275 110.721 492.041 123.554 485.19 130.155C478.339 136.756 466.752 147.724 466.752 147.724L464.135 164.421L460.069 146.899C460.069 146.899 453.937 135.95 451.692 129.378C451.547 127.416 451.581 125.446 451.793 123.491L450.318 121.702Z" fill="#FFBF00"/>
<path d="M313.293 248.707L279.28 231.325L255.732 236.559L239.66 248.333L285.063 272.255C285.063 272.255 303.006 277.486 313.293 274.682C313.991 272.75 313.667 263.656 313.667 263.656L313.293 248.707Z" fill="#FFD6BA"/>
<path d="M284.075 255.248L284.325 297.609L209.195 297.485L209.57 248.146L256.914 248.27C256.914 248.27 254.671 253.006 259.53 254.75C264.39 256.495 274.73 254.252 274.73 254.252L284.075 255.248Z" fill="#32CD32"/>
<path d="M491.869 326.638L485.696 330.365L460.841 338.497L442.149 359.895L443.735 361.481L448.877 361.389C448.877 361.389 439.158 370.73 438.409 374.375C437.661 378.019 438.409 378.207 442.146 378.115C444.293 378.038 446.437 378.322 448.49 378.955C450.389 378.806 452.287 379.263 453.91 380.262C456.711 381.943 465.777 380.357 465.777 380.357C465.777 380.357 472.504 382.13 476.057 381.572C479.609 381.014 491.101 373.252 491.101 373.252C491.101 373.252 500.817 365.5 503.903 359.984C506.989 354.468 512.591 350.36 512.591 350.36L506.824 347.639L499.107 340.953L494.781 333.492L491.869 326.638Z" fill="#FFD6BA"/>
<path d="M463.786 80.1237C463.45 80.1254 463.123 80.0153 462.857 79.8108C462.59 79.6062 462.399 79.3188 462.314 78.9939C462.229 78.6689 462.255 78.325 462.387 78.0161C462.519 77.7073 462.75 77.4511 463.044 77.2881C468.648 74.1606 474.082 67.9087 470.973 60.5721C469.613 57.5398 468.157 55.8301 466.533 55.3797C464.909 54.9293 462.882 55.6335 460.071 57.581C459.908 57.6943 459.724 57.7743 459.53 57.8165C459.336 57.8587 459.135 57.8622 458.94 57.8269C458.744 57.7916 458.557 57.718 458.39 57.6105C458.223 57.503 458.079 57.3637 457.965 57.2004C457.852 57.0371 457.772 56.8531 457.73 56.6589C457.688 56.4647 457.684 56.264 457.719 56.0685C457.755 55.8729 457.828 55.6862 457.936 55.519C458.043 55.3519 458.183 55.2075 458.346 55.0942C460.617 53.5083 464.02 51.5322 467.348 52.4647C469.885 53.1721 471.976 55.4273 473.742 59.3604C477.415 67.9849 471.76 75.8988 464.544 79.9303C464.312 80.0598 464.051 80.1265 463.786 80.1237Z" fill="black"/>
<path d="M462.79 70.3674H462.638C462.239 70.3273 461.872 70.1305 461.617 69.8201C461.363 69.5098 461.242 69.1111 461.281 68.7117C461.414 67.3826 462.045 64.0807 465.039 62.0824C465.376 61.8599 465.787 61.7802 466.182 61.8608C466.577 61.9414 466.925 62.1757 467.147 62.5122C467.37 62.8487 467.449 63.2598 467.369 63.6551C467.288 64.0503 467.054 64.3974 466.717 64.6199C464.744 65.9331 464.364 68.3247 464.294 69.0257C464.252 69.395 464.075 69.7358 463.798 69.9833C463.521 70.2307 463.162 70.3675 462.79 70.3674V70.3674Z" fill="black"/>
<path d="M455.202 132.122C454.888 132.121 454.582 132.023 454.326 131.841C454.07 131.658 453.877 131.401 453.775 131.104L451.764 125.331C451.091 123.393 450.473 121.366 449.93 119.304C449.705 118.448 449.061 116.449 447.973 116.449H447.923C445.82 116.449 444.078 117.185 441.68 118.2C439.25 119.278 436.744 120.176 434.182 120.887C427.6 122.559 423.565 120.57 420.26 113.978C418.674 110.899 417.187 107.219 415.867 103.971C414.776 101.285 413.742 98.747 413.092 97.6781C412.264 96.3141 411.29 95.9843 409.815 95.4863C409.222 95.2864 408.604 95.0739 407.957 94.7916C405.102 93.5229 403.199 91.7402 402.805 89.8878C402.342 87.4265 403.814 85.4694 405.371 83.3981C407.449 80.6354 409.593 77.7807 408.512 73.0736C408.017 70.9833 407.183 68.8803 406.291 66.6505C404.591 62.3525 402.663 57.4837 403.046 51.7996C403.052 51.5954 403.099 51.3944 403.184 51.2088C403.269 51.0231 403.391 50.8566 403.542 50.7192C403.694 50.5819 403.871 50.4765 404.064 50.4093C404.257 50.3422 404.461 50.3148 404.665 50.3287C404.869 50.3426 405.068 50.3976 405.25 50.4902C405.432 50.5829 405.593 50.7114 405.725 50.8681C405.856 51.0247 405.954 51.2062 406.013 51.4017C406.072 51.5973 406.091 51.8027 406.069 52.0058C405.73 57.0047 407.446 61.3439 409.108 65.5371C410.031 67.8685 410.903 70.073 411.449 72.3853C412.851 78.4753 409.92 82.3704 407.782 85.2156C406.539 86.8714 405.562 88.1782 405.765 89.2852C405.904 89.9196 407.034 91.0805 409.168 92.0194C409.726 92.2636 410.263 92.4444 410.776 92.6189C412.492 93.1993 414.265 93.7988 415.671 96.108C416.445 97.3767 417.425 99.7905 418.662 102.836C419.959 106.007 421.428 109.639 422.95 112.615C425.653 117.985 428.196 119.276 433.417 117.959C435.838 117.288 438.207 116.44 440.503 115.422C443.041 114.35 445.207 113.427 447.926 113.427H447.996C449.312 113.427 451.691 114.109 452.861 118.54C453.385 120.525 453.978 122.479 454.628 124.341L456.636 130.114C456.714 130.342 456.738 130.586 456.703 130.825C456.669 131.064 456.578 131.292 456.438 131.489C456.298 131.685 456.113 131.846 455.899 131.957C455.685 132.069 455.447 132.127 455.205 132.128L455.202 132.122Z" fill="black"/>
<path fill-rule="evenodd" clip-rule="evenodd" d="M417.079 73.1239C416.47 70.8465 417.199 68.6135 418.684 68.1091C420.168 67.6048 422.011 69.1337 422.62 71.4079C423.229 73.6822 422.493 75.9152 421.012 76.4227C419.53 76.9302 417.684 75.3982 417.079 73.1239Z" fill="black"/>
<path d="M413.593 62.9167C413.285 62.9156 412.986 62.8212 412.733 62.6459C412.481 62.4706 412.288 62.2227 412.179 61.9352C412.071 61.6476 412.053 61.3339 412.127 61.0357C412.201 60.7374 412.363 60.4687 412.594 60.265C415.902 57.3532 420.841 56.833 424.85 58.9645C425.204 59.1526 425.47 59.4737 425.588 59.8574C425.705 60.2411 425.666 60.6558 425.478 61.0104C425.29 61.365 424.969 61.6304 424.585 61.7482C424.201 61.8659 423.787 61.8265 423.432 61.6385C421.002 60.3507 417.332 60.1255 414.592 62.5393C414.316 62.7834 413.961 62.9177 413.593 62.9167V62.9167Z" fill="black"/>
<path d="M428.871 108.722C422.444 108.722 419.066 99.7299 418.923 99.3461C418.845 99.1292 418.816 98.8973 418.84 98.6678C418.865 98.4384 418.941 98.2174 419.063 98.0218C419.185 97.8261 419.351 97.6609 419.546 97.5386C419.742 97.4163 419.963 97.3402 420.192 97.316C422.68 97.05 425.126 96.4888 427.481 95.6444C431.922 93.9729 436.569 91.7494 436.616 91.7271C436.817 91.6299 437.037 91.5784 437.26 91.5762C437.483 91.5741 437.704 91.6215 437.907 91.7149C438.109 91.8083 438.289 91.9455 438.432 92.1165C438.575 92.2876 438.679 92.4882 438.735 92.7041C439.639 96.1361 439.592 103.654 432.905 107.558C431.689 108.3 430.295 108.702 428.871 108.722V108.722ZM422.546 100.047C423.783 102.451 426.076 105.693 428.871 105.693C429.755 105.667 430.617 105.405 431.367 104.935C435.855 102.315 436.248 97.8235 436.068 95.305C434.269 96.1266 431.399 97.3922 428.547 98.477C426.602 99.1924 424.592 99.7182 422.546 100.047V100.047Z" fill="black"/>
<path d="M412.19 57.752C410.452 57.752 405.891 55.9408 400.835 48.8167C394.653 39.9988 392.398 31.5901 395.087 27.3873C398.894 21.6525 409.891 21.2719 410.357 21.256H410.401C410.803 21.2501 411.19 21.4039 411.478 21.6835C411.766 21.963 411.931 22.3455 411.937 22.7468C411.943 23.1481 411.789 23.5353 411.509 23.8232C411.23 24.1111 410.847 24.2761 410.446 24.282C407.699 24.3677 400.039 25.3827 397.625 29.0399C395.979 31.6091 397.397 38.6444 403.309 47.0722C405.399 50.0189 407.302 51.8491 408.803 52.9783C406.766 48.6208 405.317 44.0118 404.495 39.2725C404.423 38.8775 404.511 38.4701 404.74 38.14C404.968 37.8099 405.318 37.584 405.713 37.512C406.108 37.4401 406.516 37.528 406.846 37.7565C407.176 37.9849 407.402 38.3351 407.474 38.7301C409.06 47.4623 411.981 52.6864 413.082 54.6372C413.596 55.557 413.881 56.0645 413.602 56.7877C413.519 56.9988 413.391 57.1891 413.226 57.3453C413.062 57.5015 412.865 57.6197 412.65 57.6917C412.501 57.7353 412.346 57.7556 412.19 57.752V57.752Z" fill="black"/>
<path d="M443.482 62.0228C439.242 62.0228 430.985 61.5851 423.972 58.5845C415.119 54.8733 409.229 50.2995 405.984 44.6091C405.785 44.2604 405.733 43.8469 405.839 43.4597C405.945 43.0724 406.2 42.7431 406.549 42.5441C406.897 42.3452 407.311 42.2929 407.698 42.3988C408.085 42.5047 408.415 42.76 408.614 43.1087C411.516 48.1996 416.927 52.3485 425.152 55.7964C429.653 57.7217 434.833 58.5083 438.915 58.8128C432.955 55.7361 424.565 50.3883 420.159 42.9533C420.058 42.7825 419.991 42.5934 419.962 42.3967C419.934 42.2001 419.944 41.9997 419.993 41.8071C420.042 41.6144 420.128 41.4333 420.247 41.2741C420.366 41.1148 420.515 40.9805 420.686 40.8789C420.857 40.7773 421.046 40.7103 421.242 40.6817C421.439 40.6532 421.64 40.6636 421.832 40.7125C422.025 40.7614 422.206 40.8478 422.365 40.9667C422.524 41.0856 422.659 41.2346 422.76 41.4054C429.364 52.5071 446.55 58.9397 446.711 59.0032C447.037 59.1224 447.313 59.35 447.491 59.648C447.669 59.946 447.739 60.2961 447.689 60.6397C447.64 60.9833 447.474 61.2994 447.219 61.5351C446.964 61.7707 446.636 61.9116 446.29 61.934C446.147 61.9467 445.113 62.0228 443.482 62.0228Z" fill="black"/>
<path d="M408.603 74.5427C408.505 74.5414 408.407 74.5307 408.311 74.5109C400.464 72.9884 396.1 69.271 394.152 62.4577C393.536 60.2386 393.151 57.9617 393.004 55.6635C392.797 56.2938 392.632 56.9369 392.509 57.5888C391.64 62.518 393.66 67.6914 393.679 67.7389C393.803 68.0523 393.818 68.3977 393.723 68.7208C393.628 69.0438 393.429 69.3261 393.156 69.5232C392.883 69.7202 392.552 69.8207 392.215 69.809C391.879 69.7972 391.556 69.6737 391.297 69.4581C391.059 69.2583 385.48 64.4624 384.69 54.9308C384.088 47.1818 384.373 38.6081 395.322 34.8843C395.691 34.7908 396.081 34.8396 396.416 35.0208C396.75 35.2021 397.004 35.5025 397.126 35.8624C397.249 36.2223 397.232 36.6152 397.078 36.963C396.924 37.3107 396.645 37.5878 396.296 37.739C388.182 40.4954 387.018 45.8179 387.71 54.677C387.89 56.9221 388.425 59.1244 389.296 61.2016C389.225 59.8065 389.306 58.4078 389.54 57.0306C390.225 53.4209 392.078 50.0302 393.346 49.1706C393.424 49.1224 393.506 49.0811 393.591 49.0469L393.676 49.012C393.883 48.941 394.102 48.9123 394.32 48.9276C394.538 48.9428 394.75 49.0017 394.945 49.1008C395.859 49.5925 395.871 50.4076 395.897 52.1966C395.931 54.3218 395.992 57.8775 397.061 61.614C398.701 67.3234 402.136 70.2067 408.892 71.523C409.264 71.592 409.597 71.7978 409.825 72.1001C410.052 72.4023 410.159 72.7789 410.122 73.1556C410.086 73.5323 409.91 73.8817 409.629 74.135C409.348 74.3882 408.982 74.5269 408.603 74.5236V74.5427Z" fill="black"/>
<path d="M448.643 65.4794C445.64 65.4794 442.404 64.3534 439.182 62.095C439.012 61.984 438.866 61.8401 438.753 61.6718C438.64 61.5034 438.562 61.314 438.523 61.1149C438.485 60.9158 438.487 60.711 438.529 60.5126C438.572 60.3143 438.653 60.1265 438.77 59.9604C438.886 59.7943 439.035 59.6533 439.207 59.5457C439.379 59.4381 439.57 59.3662 439.771 59.3343C439.971 59.3023 440.175 59.3109 440.372 59.3596C440.569 59.4083 440.754 59.4961 440.917 59.6177C443.483 61.4162 450.004 65.0099 455.035 59.4972C455.164 59.3333 455.325 59.1979 455.509 59.0994C455.693 59.0009 455.895 58.9415 456.103 58.9248C456.31 58.9081 456.519 58.9345 456.717 59.0024C456.914 59.0704 457.095 59.1783 457.248 59.3195C457.401 59.4606 457.524 59.632 457.608 59.8228C457.692 60.0135 457.736 60.2196 457.737 60.4281C457.737 60.6366 457.695 60.843 457.612 61.0343C457.529 61.2256 457.408 61.3977 457.255 61.5399C454.87 64.163 451.904 65.4794 448.643 65.4794Z" fill="black"/>
<path d="M455.814 50.4986C448.934 50.5118 442.192 48.5739 436.37 44.9097C436.031 44.6957 435.79 44.3555 435.701 43.9641C435.613 43.5727 435.683 43.1621 435.897 42.8226C436.111 42.4832 436.452 42.2427 436.843 42.1541C437.234 42.0654 437.645 42.1359 437.984 42.35C447.852 48.567 458.719 48.2847 465.599 45.947C467.011 45.4395 468.238 44.9478 469.301 44.4815C464.958 44.6053 459.598 44.0026 455.367 41.0464C455.199 40.9348 455.055 40.7907 454.943 40.6227C454.832 40.4547 454.755 40.2662 454.718 40.0681C454.68 39.87 454.682 39.6664 454.725 39.4693C454.767 39.2722 454.848 39.0855 454.964 38.9202C455.079 38.7549 455.226 38.6143 455.397 38.5068C455.567 38.3992 455.758 38.3268 455.956 38.2938C456.155 38.2608 456.359 38.2678 456.555 38.3146C456.751 38.3613 456.936 38.4468 457.098 38.5659C464.254 43.5585 476.012 40.5833 476.13 40.5547C476.448 40.471 476.785 40.4934 477.09 40.6185C477.394 40.7436 477.65 40.9646 477.817 41.248C477.985 41.5314 478.055 41.8617 478.018 42.1888C477.981 42.5159 477.838 42.822 477.611 43.0605C477.348 43.3365 474.81 45.8486 466.598 48.8049C463.118 49.9467 459.476 50.5187 455.814 50.4986V50.4986Z" fill="black"/>
<path d="M487.882 53.5849C487.626 53.5854 487.374 53.5215 487.149 53.3989C486.924 53.2764 486.734 53.0992 486.595 52.8837C486.457 52.6682 486.375 52.4213 486.357 52.1658C486.339 51.9103 486.386 51.6544 486.493 51.4217C486.667 51.0442 490.724 41.9059 482.541 32.4663C482.41 32.3162 482.311 32.1419 482.248 31.9533C482.186 31.7648 482.161 31.5657 482.175 31.3675C482.189 31.1692 482.242 30.9757 482.331 30.798C482.42 30.6203 482.543 30.4618 482.693 30.3317C482.843 30.2015 483.017 30.1022 483.206 30.0394C483.394 29.9766 483.594 29.9515 483.792 29.9657C483.99 29.9798 484.183 30.0329 484.361 30.1218C484.539 30.2107 484.697 30.3337 484.828 30.4839C490.61 37.1449 491.07 43.7583 490.493 48.015C492.332 45.9977 494.299 42.94 494.254 39.3018C494.185 33.6875 492.424 30.7789 491.673 29.5387C491.355 29.0121 491.121 28.6315 491.121 28.1081C491.12 27.721 491.266 27.3479 491.53 27.0646C491.76 26.8358 492.052 26.6794 492.37 26.6146C492.688 26.5498 493.018 26.5794 493.319 26.6998C495.514 27.2898 497.442 27.2549 499.098 26.5951C496.757 25.4279 492.998 23.4232 489.696 20.2323C488.64 19.2458 487.524 18.012 486.344 16.7178C481.64 11.5445 475.201 4.45524 463.347 3.26578C448.56 1.78133 431.628 7.3163 416.879 18.4465C416.558 18.6884 416.155 18.793 415.757 18.7374C415.36 18.6818 415 18.4705 414.759 18.1499C414.517 17.8294 414.412 17.426 414.468 17.0283C414.523 16.6307 414.735 16.2714 415.055 16.0295C430.41 4.44255 448.125 -1.31128 463.649 0.252468C476.654 1.55929 483.549 9.1338 488.583 14.6815C489.719 15.9344 490.803 17.1175 491.784 18.0405C495.089 21.2441 498.99 23.1663 501.09 24.2004C502.717 25.0029 503.31 25.3042 503.526 26.1701C503.574 26.398 503.573 26.6334 503.523 26.8608C503.473 27.0883 503.376 27.3026 503.237 27.4896C503.173 27.5733 503.099 27.6499 503.018 27.718C501.474 29.028 498.981 30.3443 495.406 30.116C496.275 32.0191 497.227 35.0166 497.277 39.2669C497.363 46.3942 491.533 51.6374 489.278 53.0679C488.87 53.3676 488.387 53.5468 487.882 53.5849V53.5849Z" fill="black"/>
<path d="M479.586 83.6572C478.239 83.6456 476.904 83.3998 475.64 82.9309C472.256 81.7033 469.424 79.096 468.072 75.9527C467.914 75.5838 467.908 75.167 468.057 74.794C468.206 74.4211 468.496 74.1225 468.865 73.9639C469.234 73.8053 469.651 73.7998 470.024 73.9485C470.397 74.0972 470.695 74.388 470.854 74.7569C471.416 75.9924 472.221 77.1023 473.221 78.0205C474.221 78.9386 475.396 79.6464 476.674 80.1015C478.628 80.8089 480.601 80.8247 481.943 80.1428C482.12 80.0528 482.314 79.9986 482.512 79.9833C482.71 79.968 482.909 79.9919 483.098 80.0536C483.287 80.1153 483.462 80.2136 483.613 80.3429C483.764 80.4723 483.888 80.63 483.978 80.8073C484.068 80.9845 484.122 81.1777 484.137 81.3759C484.153 81.5741 484.129 81.7733 484.067 81.9623C484.005 82.1512 483.907 82.3262 483.778 82.4771C483.648 82.6281 483.491 82.7521 483.313 82.8421C482.152 83.403 480.875 83.6823 479.586 83.6572Z" fill="black"/>
<path d="M490.918 88.4787C490.539 88.4776 490.161 88.4361 489.791 88.355C486.62 87.6921 482.112 84.4726 479.886 77.5896C479.779 77.2119 479.822 76.8075 480.007 76.4613C480.192 76.1151 480.504 75.8542 480.878 75.7334C481.251 75.6126 481.657 75.6413 482.01 75.8136C482.362 75.9859 482.635 76.2882 482.769 76.657C484.65 82.4806 488.139 84.7073 489.988 85.2941C489.071 83.1245 487.574 78.8044 487.968 72.2893C488.095 68.7495 489.192 65.6283 490.258 62.6308C491.844 58.1331 493.347 53.8827 492.113 47.78C492.034 47.3863 492.114 46.9771 492.336 46.6425C492.558 46.3079 492.904 46.0753 493.298 45.9958C493.692 45.9163 494.101 45.9964 494.436 46.2186C494.77 46.4408 495.003 46.7868 495.082 47.1805C496.481 54.1016 494.689 59.1703 493.109 63.6395C492.078 66.5608 491.101 69.3204 490.99 72.4352C490.578 79.2707 492.431 83.3719 493.125 84.9167C493.265 85.2339 493.366 85.4591 493.414 85.6081C493.541 85.9556 493.573 86.3309 493.505 86.6948C493.438 87.0587 493.274 87.3977 493.03 87.6762C492.756 87.954 492.426 88.1695 492.061 88.308C491.697 88.4465 491.307 88.5047 490.918 88.4787V88.4787Z" fill="black"/>
<path d="M497.69 110.26C497.398 110.261 497.113 110.177 496.868 110.019C496.623 109.861 496.429 109.635 496.31 109.369C494.724 105.832 493.249 102.162 491.968 98.4671C491.333 96.6147 490.718 94.7084 490.157 92.802C489.877 91.8505 489.611 90.8989 489.351 89.9473L489.148 89.2368C488.954 88.5707 488.739 87.8222 488.634 87.2829C488.563 86.8917 488.648 86.488 488.872 86.1592C489.096 85.8305 489.44 85.6032 489.831 85.5265C490.221 85.4497 490.626 85.5298 490.957 85.7493C491.289 85.9688 491.521 86.3101 491.603 86.6993C491.695 87.1656 491.888 87.8126 492.053 88.3868L492.272 89.1512C492.526 90.1028 492.786 91.0194 493.062 91.9488C493.611 93.8107 494.204 95.6695 494.832 97.4775C496.078 101.087 497.506 104.671 499.07 108.126C499.172 108.356 499.216 108.609 499.197 108.861C499.177 109.113 499.095 109.356 498.958 109.568C498.821 109.78 498.634 109.955 498.412 110.076C498.191 110.198 497.942 110.262 497.69 110.263V110.26Z" fill="black"/>
<path fill-rule="evenodd" clip-rule="evenodd" d="M433.934 118.371C433.934 118.371 452.965 110.581 458.586 105.198C458.59 107.917 458.288 110.628 457.688 113.28C456.264 119.707 452.499 125.235 452.499 125.235L449.571 115.209L433.934 118.371Z" fill="black"/>
<path d="M504.075 117.213C519.44 123.173 535.058 128.454 549.963 135.559C555.422 138.16 561.56 140.209 566.524 143.695C572.04 147.565 575.462 153.569 577.74 159.755C580.017 165.94 581.819 172.322 583.811 178.605C586.348 186.641 588.773 194.713 591.084 202.823C593.396 210.933 595.524 219.088 597.745 227.224C599.965 235.36 602.442 243.36 604.368 251.524C605.294 255.457 605.995 259.454 606.648 263.425C606.966 265.303 607.254 267.181 607.559 269.055C607.863 270.93 608.368 272.862 608.371 274.765C608.371 280.75 603.553 285.974 599.613 289.958C589.536 300.153 578.701 309.986 566.727 317.906C553.214 326.841 539.372 335.298 525.539 343.719C522.39 345.622 519.145 347.766 515.491 348.559C511.929 349.33 508.633 347.36 506.016 345.124C503.333 342.812 500.932 340.191 498.864 337.315C496.84 334.508 494.794 331.095 494.287 327.609C494.049 325.975 495.352 325.227 496.561 324.342C498.147 323.187 499.733 322.055 501.293 320.903C504.338 318.673 507.357 316.406 510.349 314.103C516.465 309.367 522.402 304.4 527.931 298.976C533.523 293.479 538.218 287.167 543.81 281.68C548.818 276.766 554.064 271.983 559.79 267.907C562.7 265.844 565.728 263.951 568.858 262.239C570.565 261.287 569.039 258.683 567.332 259.622C560.876 263.222 554.834 267.52 549.316 272.44C543.27 277.762 537.926 283.542 532.629 289.594C521.686 302.097 508.376 311.968 495.032 321.728C492.552 323.542 490.687 325.141 491.369 328.411C492.111 331.983 493.82 335.358 495.889 338.333C499.489 343.513 504.846 349.936 511.285 351.465C518.428 353.162 525.635 347.154 531.404 343.782C539.017 339.342 546.388 334.476 553.798 329.693C560.89 325.109 568.192 320.846 574.97 315.793C581.551 310.842 587.814 305.483 593.723 299.747C598.186 295.452 602.953 291.427 606.699 286.456C608.51 284.052 610.106 281.381 610.892 278.451C611.758 275.209 611.121 272.208 610.575 268.967C609.179 260.428 607.698 252.016 605.418 243.661C603.064 235.04 600.66 226.435 598.332 217.804C593.891 201.291 588.835 185.003 583.814 168.665C581.911 162.476 580.125 155.91 576.633 150.398C574.714 147.296 572.301 144.528 569.489 142.205C567.025 140.222 564.211 138.839 561.353 137.526C546.763 130.83 532.143 124.35 517.055 118.85C512.976 117.359 508.896 115.878 504.849 114.308C503.032 113.6 502.242 116.528 504.043 117.226L504.075 117.213Z" fill="black"/>
<path d="M533.301 206.551C535.74 216.453 539.781 226.017 544.003 235.272C548.076 244.201 552.462 253.251 558.153 261.282C559.269 262.868 561.896 261.348 560.766 259.753C555.181 251.874 550.864 243.012 546.851 234.257C542.642 225.059 538.646 215.578 536.219 205.745C535.75 203.842 532.831 204.66 533.301 206.554V206.551Z" fill="black"/>
<path d="M445.939 125.092C437.524 130.995 428.329 135.598 419.796 141.31C415.813 143.981 411.746 146.538 407.791 149.24C404.6 151.419 401.552 153.903 399.503 157.23C397.136 161.084 396.172 165.956 395.062 170.282C393.761 175.288 392.677 180.341 391.646 185.406C389.562 195.67 387.402 205.935 385.483 216.237C383.31 227.925 381.55 239.69 380.503 251.534C380.335 253.475 383.358 253.462 383.532 251.534C385.334 231.101 389.625 211.13 393.6 191.046C395.503 181.435 397.406 171.757 400.489 162.435C403.277 153.976 412.393 149.941 419.289 145.307C428.487 139.112 438.4 134.085 447.481 127.712C449.067 126.602 447.551 123.976 445.952 125.099L445.939 125.092Z" fill="black"/>
<path d="M389.102 260.025C385.016 256.853 380.468 254.036 375.307 252.983C368.935 251.679 362.452 251.331 356.035 250.306C346.9 248.847 337.707 247.864 328.518 246.785C326.317 246.528 324.119 246.265 321.918 245.98C319.865 245.713 317.734 245.206 315.656 245.164C313.185 245.114 311.869 246.544 311.726 248.955C311.489 252.939 311.999 257.069 312.123 261.059C312.259 265.319 312.408 269.572 312.44 273.829C312.481 277.388 314.14 279.976 317.42 281.353C321.337 282.993 325.515 284.172 329.575 285.403C346.703 290.602 364.148 293.65 381.87 295.842C386.875 296.457 391.89 297.069 396.93 297.336C400.819 297.545 405.494 298.205 408.917 295.934C414.718 292.083 415.261 284.566 416.973 278.45C417.497 276.573 414.579 275.767 414.055 277.645C412.66 282.644 412.317 288.705 408.378 292.499C405.84 294.951 402.351 294.507 399.074 294.402C394.992 294.272 390.919 293.879 386.863 293.415C370.711 291.566 354.728 289.146 339.002 284.946C335.195 283.925 331.406 282.821 327.634 281.635C325.806 281.058 323.986 280.461 322.171 279.846C320.544 279.294 318.524 278.869 317.131 277.813C315.59 276.642 315.422 274.812 315.488 273.017C315.561 271.079 315.425 269.192 315.314 267.26C315.098 263.504 315.095 259.723 314.952 255.958C314.882 254.176 314.809 252.393 314.752 250.611C314.724 249.545 314.315 248.39 315.434 248.184C316.909 247.911 318.949 248.619 320.443 248.818C322.514 249.094 324.592 249.351 326.666 249.602C334.976 250.595 343.309 251.419 351.588 252.656C358.471 253.687 365.487 254.166 372.316 255.476C375.019 255.968 377.649 256.803 380.141 257.96C382.571 259.084 384.855 260.499 386.945 262.172C388.464 263.352 390.624 261.221 389.086 260.028L389.102 260.025Z" fill="black"/>
<path d="M312.395 247.188C310.666 246.468 309.058 245.476 307.348 244.708C305.722 244.038 304.056 243.469 302.359 243.005C298.686 241.879 295.248 241.2 291.387 241.419C287.264 241.663 283.213 242.538 279.115 243.005C275.2 243.411 271.329 244.165 267.547 245.257C265.625 245.821 263.608 246.107 261.635 246.446C259.966 246.729 257.959 246.741 256.493 247.683C253.6 249.542 255.253 253.11 257.388 254.773C259.754 256.612 262.977 257.396 265.952 257.117C270.164 256.717 274.31 255.914 278.557 255.848C283.191 255.787 287.28 257.653 291.651 258.864C295.872 259.998 300.282 260.248 304.605 259.597C306.527 259.327 305.709 256.425 303.799 256.679C300.235 257.182 296.608 256.991 293.116 256.117C289.871 255.305 286.81 253.945 283.515 253.304C280.159 252.651 276.832 252.819 273.447 253.145C270.351 253.44 267.002 254.386 263.896 254.097C262.436 253.978 261.024 253.518 259.773 252.755C259.237 252.413 258.466 251.911 258.247 251.283C257.841 250.11 258.986 249.919 259.954 249.761C263.459 249.19 266.9 248.622 270.291 247.541C273.615 246.487 277.092 246.272 280.533 245.847C284.022 245.406 287.511 244.699 291.038 244.457C294.997 244.191 298.397 244.943 302.14 246.088C305.48 247.106 308.382 248.752 311.583 250.091C313.381 250.839 314.165 247.908 312.389 247.169L312.395 247.188Z" fill="black"/>
<path d="M311.723 246.872C306.499 243.675 300.843 241.235 295.546 238.124C292.276 236.198 289.006 234.248 285.552 232.659C282.662 231.326 280.159 230.53 276.987 231.073C273.299 231.691 269.61 232.284 265.943 233.036C264.008 233.436 262.073 233.829 260.126 234.168C258.562 234.441 256.839 234.368 255.412 235.145C254.083 235.869 252.954 237.004 251.755 237.914C250.196 239.105 248.635 240.287 247.07 241.461C244.599 243.323 242.112 245.159 239.721 247.122C238.214 248.36 240.355 250.488 241.862 249.264C244.149 247.386 246.531 245.635 248.891 243.852C250.356 242.748 251.82 241.641 253.284 240.531C254.422 239.668 255.637 238.311 256.938 237.762C258.289 237.179 260.199 237.22 261.642 236.96C263.351 236.642 265.052 236.306 266.749 235.957C270.171 235.25 273.609 234.689 277.054 234.118C278.872 233.8 280.096 233.766 281.856 234.378C283.477 234.984 285.053 235.704 286.573 236.531C289.532 238.06 292.384 239.789 295.251 241.473C300.133 244.328 305.366 246.548 310.191 249.498C311.859 250.52 313.382 247.912 311.72 246.885L311.723 246.872Z" fill="black"/>
<path d="M254.585 249.517C257.535 248.695 260.076 246.919 263.016 246.047C265.957 245.174 269.078 244.921 272.104 244.321C274.007 243.941 273.205 241.022 271.301 241.4C268.272 241.999 265.176 242.247 262.211 243.129C260.735 243.557 259.303 244.122 257.932 244.816C256.612 245.548 255.22 246.144 253.78 246.595C251.905 247.116 252.701 250.037 254.585 249.517V249.517Z" fill="black"/>
<path d="M283.875 273.477C293.038 277.283 303.464 277.75 313.212 276.614C315.115 276.392 315.15 273.36 313.212 273.588C303.696 274.695 293.635 274.267 284.664 270.559C282.866 269.817 282.079 272.744 283.859 273.477H283.875Z" fill="black"/>
<path d="M257.042 246.551C241.144 246.643 225.247 246.764 209.349 246.767C208.949 246.772 208.567 246.933 208.285 247.215C208.002 247.498 207.841 247.88 207.836 248.28C207.904 262.627 207.971 276.973 208.039 291.316L208.067 297.432C208.073 297.831 208.234 298.213 208.517 298.495C208.799 298.778 209.181 298.939 209.58 298.945C234.48 298.945 259.379 298.627 284.279 298.627C284.679 298.622 285.061 298.461 285.343 298.179C285.626 297.896 285.787 297.514 285.792 297.114V255.562C285.792 253.615 282.763 253.612 282.763 255.562V297.114L284.279 295.598C259.379 295.598 234.48 295.915 209.58 295.915L211.093 297.428L210.894 254.392L210.865 248.277L209.349 249.793C225.247 249.793 241.144 249.669 257.042 249.577C258.989 249.577 258.992 246.538 257.042 246.548V246.551Z" fill="black"/>
<path d="M208.588 249.586C219.537 256.742 230.489 263.895 241.443 271.047L246.051 274.057C246.283 274.193 246.546 274.265 246.814 274.265C247.083 274.265 247.346 274.193 247.577 274.057L272.753 258.198L276.388 255.907C278.034 254.873 276.514 252.253 274.859 253.294L249.686 269.153L246.051 271.44H247.577L214.723 249.982L210.114 246.972C208.477 245.903 206.961 248.523 208.588 249.586V249.586Z" fill="black"/>
<path d="M484.856 379.508C501.848 380.142 518.796 377.922 535.391 374.35C539.504 373.466 543.599 372.499 547.676 371.448C551.21 370.541 555.006 369.862 558.407 368.511C565.22 365.805 564.303 358.678 564.31 352.604C564.31 348.239 563.358 343.878 563.133 339.513C562.892 334.81 562.68 330.104 562.498 325.395C562.425 323.454 559.399 323.444 559.472 325.395C559.758 332.865 559.878 340.389 560.881 347.801C561.35 351.249 561.29 354.732 561.303 358.205C561.303 361.612 560.551 364.489 557.109 365.777C553.956 366.957 550.48 367.597 547.222 368.435C543.387 369.422 539.536 370.342 535.67 371.194C527.801 372.923 519.858 374.366 511.856 375.318C502.898 376.408 493.869 376.8 484.85 376.488C482.903 376.415 482.906 379.444 484.85 379.517L484.856 379.508Z" fill="black"/>
<path d="M409.512 199.93C409.689 210.914 411.028 221.876 412.078 232.804C413.248 244.968 413.841 257.088 413.981 269.312C414.133 284.007 413.826 298.703 413.058 313.402C412.316 327.929 410.746 342.393 409.826 356.908C409.616 360.213 408.798 364.352 410.501 367.407C411.824 369.785 414.349 370.531 416.874 370.896C424.144 371.955 431.287 374.201 438.696 374.014C440.641 373.963 440.647 370.937 438.696 370.984C431.991 371.156 425.638 369.154 419.069 368.171C416.89 367.854 413.905 367.854 412.96 365.462C412.401 364.047 412.541 362.458 412.614 360.968C412.706 359.121 412.826 357.275 412.947 355.426C413.87 341.53 415.342 327.675 416.065 313.77C417.416 287.823 417.819 261.627 415.396 235.741C414.282 223.837 412.747 211.904 412.541 199.943C412.509 197.995 409.48 197.989 409.515 199.943L409.512 199.93Z" fill="black"/>
<path d="M412.835 370.743C411.836 380.461 411.344 390.223 411.36 399.992C411.36 401.939 414.392 401.946 414.389 399.992C414.37 390.223 414.862 380.46 415.864 370.743C416.067 368.805 413.034 368.821 412.835 370.743Z" fill="black"/>
<path d="M557.996 368.285C560.23 378.176 561.394 388.279 561.466 398.419C561.482 400.366 564.511 400.372 564.495 398.419C564.414 388.005 563.215 377.631 560.917 367.473C560.486 365.57 557.568 366.379 557.996 368.279V368.285Z" fill="black"/>
<path d="M511.219 349.65C509.24 350.818 507.73 352.052 506.37 353.926C504.91 355.956 503.515 358.031 502.024 360.038C500.438 362.173 498.96 364.428 497.307 366.515C495.763 368.466 493.574 370.046 491.56 371.486C487.379 374.477 482.732 376.726 478.213 379.136C476.979 379.793 475.811 380.573 474.375 380.611C473.198 380.604 472.023 380.508 470.86 380.326C468.472 380.009 466.102 379.603 463.704 379.349C461.769 379.143 461.782 382.172 463.704 382.378C468.269 382.863 473.734 384.789 478.067 382.648C482.824 380.301 487.639 377.795 492.023 374.832C494.101 373.45 496.077 371.919 497.935 370.252C499.772 368.574 501.022 366.42 502.49 364.438C504.124 362.24 505.84 360.086 507.385 357.824C508.971 355.503 510.271 353.72 512.739 352.264C514.417 351.278 512.894 348.661 511.213 349.65H511.219Z" fill="black"/>
<path d="M450.125 379.79C452.177 381.452 455.302 382.607 457.922 382.905C459.777 383.117 461.63 382.616 463.425 382.216C465.22 381.817 467 381.439 468.763 380.948C474.742 379.241 479.497 375.238 484.239 371.384C485.755 370.16 483.605 368.028 482.101 369.246C478.073 372.501 473.952 376.129 468.944 377.731C465.991 378.715 462.954 379.429 459.872 379.866C457.566 380.155 454.09 379.136 452.26 377.646C450.756 376.434 448.603 378.562 450.119 379.787L450.125 379.79Z" fill="black"/>
<path d="M443.254 379.302C445.706 380.964 449.28 380.501 451.932 379.673C455.24 378.672 458.488 377.483 461.66 376.111C464.623 374.798 467.154 372.958 469.638 370.912C472.844 368.27 476.191 365.805 479.229 362.982C480.654 361.65 478.513 359.512 477.088 360.841C474.51 363.252 471.696 365.386 468.956 367.597C466.542 369.538 464.261 371.429 461.495 372.863C458.641 374.35 455.491 375.184 452.474 376.295C450.254 377.116 446.984 378.198 444.779 376.704C443.165 375.606 441.649 378.229 443.254 379.317V379.302Z" fill="black"/>
<path d="M472.569 350.688C470.698 352.397 468.649 353.901 466.739 355.563C464.303 357.685 462.045 360.039 459.736 362.294C454.911 366.998 449.668 371.026 444.437 375.254C443.679 375.87 439.702 378.702 439.565 376.32C439.473 374.712 441.107 372.663 441.957 371.419C444.913 367.112 448.989 363.737 452.523 359.912C457.797 354.202 463.123 348.537 469.089 343.542C470.587 342.292 468.433 340.16 466.948 341.404C460.896 346.479 455.498 352.229 450.137 358.018C446.239 362.246 441.808 365.948 438.718 370.836C437.646 372.526 436.444 374.604 436.536 376.682C436.635 378.934 438.592 380.263 440.739 380.231C443.644 380.196 445.903 377.903 448.009 376.199C451.057 373.729 454.277 371.473 457.208 368.872C460.605 365.878 463.748 362.573 467.009 359.436C469.448 357.086 472.195 355.109 474.688 352.826C476.128 351.509 473.984 349.371 472.55 350.688H472.569Z" fill="black"/>
<path d="M491.024 326.011C488.634 327.472 486.079 328.643 483.412 329.5C480.468 330.452 477.493 331.277 474.549 332.212C471.812 333.084 469.125 334.115 466.391 334.985C464.13 335.708 461.817 336.475 459.952 337.995C457.732 339.79 455.921 342.026 454.062 344.17C451.959 346.59 449.885 349.033 447.864 351.526C447.085 352.557 446.224 353.523 445.288 354.416C444.457 355.155 443.487 355.716 442.678 356.49C441.441 357.676 440.248 359.38 441.219 361.099C443.027 364.299 448.457 362.368 450.988 361.267C452.771 360.496 451.233 357.886 449.46 358.65C448.058 359.256 446.164 359.878 444.626 359.748C444.423 359.732 443.972 359.77 443.836 359.592C443.94 359.729 444.61 358.834 444.819 358.641C445.625 357.87 446.598 357.312 447.43 356.566C449.682 354.539 451.458 351.872 453.415 349.563C455.499 347.104 457.564 344.58 459.813 342.267C461.909 340.11 464.076 338.93 466.921 338.007C469.766 337.084 472.526 336.05 475.358 335.153C478.4 334.182 481.474 333.31 484.519 332.342C487.339 331.432 490.04 330.186 492.563 328.631C494.234 327.635 492.715 325.015 491.037 326.018L491.024 326.011Z" fill="black"/>
<path d="M465.597 163.524C464.532 160.539 464.1 157.446 463.694 154.325C463.485 152.673 463.272 151.017 462.939 149.384C462.679 148.086 462.495 146.155 461.223 145.409C459.637 144.477 458.686 145.98 457.871 147.087C457.041 148.253 456.324 149.496 455.729 150.798C454.48 153.463 453.509 156.27 451.822 158.709C450.715 160.317 453.338 161.833 454.439 160.235C455.818 158.227 456.732 155.965 457.706 153.745C458.194 152.632 458.698 151.525 459.292 150.459C459.561 149.98 459.85 149.507 460.164 149.06C460.319 148.835 460.481 148.622 460.649 148.4C460.722 148.296 460.792 148.191 460.852 148.083C461.061 147.807 460.982 147.817 460.611 148.108H459.834C459.403 148.045 459.393 147.496 459.606 148.296C459.688 148.613 459.767 148.93 459.84 149.247C460.005 149.97 460.157 150.69 460.272 151.42C460.51 152.825 460.678 154.243 460.852 155.658C461.226 158.607 461.683 161.526 462.689 164.339C463.323 166.16 466.267 165.376 465.607 163.533L465.597 163.524Z" fill="black"/>
<path d="M465.752 164.357C466.626 161.28 467.216 158.13 467.515 154.946C467.642 153.614 467.744 152.278 467.95 150.956C468.102 149.969 468.213 148.253 468.965 147.495L467.896 147.939H468.181L467.109 147.492C468.397 149.011 469.352 150.854 470.69 152.38C472.306 154.234 474.029 155.991 475.851 157.642C477.326 158.974 479.207 160.779 481.154 161.404C483.057 162.007 484.111 160.395 485.087 159.05C490.87 151.048 494.603 141.967 498.536 132.977C500.395 128.724 502.568 124.651 504.192 120.29C504.782 118.704 505.746 116.969 505.933 115.294C506.177 113.102 504.791 112.208 503.586 110.641C502.685 109.47 502.035 107.196 500.658 106.489C498.854 105.566 497.832 107.291 497.087 108.639C494.683 112.979 492.672 117.521 489.96 121.698C483.987 130.897 475.499 138.769 466.849 145.408C465.323 146.575 466.83 149.214 468.378 148.022C475.128 142.842 481.532 137.031 487.057 130.548C489.775 127.401 492.196 124.01 494.289 120.417C495.418 118.45 496.44 116.42 497.461 114.39C497.931 113.47 498.413 112.553 498.885 111.643C499.152 111.142 499.415 110.647 499.688 110.152L500.005 109.569C500.498 108.907 500.453 108.816 499.872 109.296L498.8 108.855C499.624 109.572 500.176 110.955 500.776 111.872C501.132 112.426 501.544 112.943 502.006 113.413C502.834 114.26 503.018 114.806 502.619 115.951C501.753 118.422 500.773 120.899 499.732 123.303C498.299 126.611 496.592 129.79 495.19 133.114C493.756 136.52 492.288 139.911 490.695 143.264C489.236 146.331 487.673 149.351 485.938 152.263C485.092 153.684 484.194 155.076 483.245 156.44C483.054 156.713 482.15 158.403 481.909 158.448C481.392 158.543 479.901 157.135 479.54 156.862C476.75 154.604 474.211 152.052 471.968 149.249C470.896 147.939 469.26 143.714 466.97 145.24C464.993 146.559 464.917 150.632 464.698 152.697C464.299 156.389 463.852 159.973 462.824 163.555C462.285 165.432 465.206 166.232 465.745 164.36L465.752 164.357Z" fill="black"/>
<path d="M461.421 145.579C458.516 142.747 457.016 138.357 455.576 134.652C453.907 130.361 452.721 125.771 453.355 121.153C453.615 119.249 450.7 118.425 450.434 120.347C449.711 125.568 450.751 130.589 452.654 135.458C454.291 139.67 455.975 144.504 459.277 147.72C460.673 149.081 462.817 146.94 461.418 145.579H461.421Z" fill="black"/>
<path d="M449.961 118.124C448.524 119.789 447.385 121.93 446.472 123.915C445.13 126.802 445.349 130.767 445.701 133.856C446.199 138.237 446.938 142.649 447.699 146.991C448.483 151.473 450.17 155.641 451.699 159.904C452.334 161.721 455.277 160.938 454.617 159.098C453.295 155.406 451.782 151.765 450.954 147.92C450.078 143.854 449.609 139.674 448.984 135.566C448.679 133.663 448.547 131.736 448.588 129.809C448.626 128.461 448.559 126.872 449.019 125.59C449.768 123.666 450.811 121.869 452.112 120.265C453.38 118.793 451.246 116.642 449.971 118.124H449.961Z" fill="black"/>
<path d="M499.612 106.111C498.794 105.981 497.953 105.794 497.122 105.905C496.726 105.923 496.347 106.079 496.053 106.346C495.783 106.639 495.625 107.019 495.609 107.418C495.611 107.819 495.77 108.203 496.053 108.487C496.155 108.569 496.26 108.645 496.371 108.725C496.603 108.86 496.866 108.932 497.135 108.934C497.557 108.885 497.984 108.894 498.404 108.959L498.001 108.906C498.271 108.944 498.537 108.991 498.803 109.032C498.998 109.096 499.207 109.105 499.406 109.058C499.607 109.05 499.802 108.988 499.971 108.88C500.143 108.786 500.289 108.651 500.396 108.487C500.528 108.341 500.621 108.165 500.665 107.973C500.718 107.779 500.732 107.575 500.706 107.376C500.68 107.176 500.614 106.983 500.513 106.809L500.275 106.492C500.09 106.307 499.861 106.172 499.609 106.102L499.612 106.111Z" fill="black"/>
<path d="M261.43 206.148C261.864 209.637 262.3 213.126 262.737 216.615C262.801 217.11 262.861 217.605 262.924 218.1C263.026 218.912 263.559 219.616 264.437 219.616C265.176 219.616 266.055 218.918 265.95 218.1C265.517 214.609 265.081 211.119 264.644 207.632C264.58 207.138 264.52 206.643 264.456 206.148C264.355 205.336 263.822 204.632 262.943 204.632C262.201 204.632 261.326 205.33 261.43 206.148V206.148Z" fill="black"/>
<path d="M281.295 201.63L276.385 214.721L275.691 216.583C275.402 217.347 276.008 218.242 276.747 218.445C277.594 218.679 278.333 218.156 278.609 217.385C280.246 213.025 281.881 208.662 283.516 204.298C283.75 203.663 283.982 203.058 284.214 202.436C284.502 201.671 283.896 200.777 283.157 200.574C282.307 200.342 281.571 200.863 281.295 201.63Z" fill="black"/>
<path d="M297.517 209.12L290 219.587L288.921 221.091C288.445 221.754 288.804 222.775 289.463 223.162C290.228 223.609 291.049 223.282 291.535 222.62L299.052 212.152L300.131 210.652C300.61 209.986 300.248 208.964 299.588 208.581C298.827 208.133 298.002 208.457 297.517 209.123V209.12Z" fill="black"/>
<path d="M526.181 212.126C526.21 200.568 528.246 188.879 532.738 178.187C536.728 168.696 542.888 159.66 552.032 154.508C553.729 153.557 552.204 150.934 550.501 151.892C540.947 157.284 534.387 166.663 530.156 176.582C525.398 187.763 523.178 199.99 523.152 212.107C523.152 214.055 526.175 214.058 526.181 212.107V212.126Z" fill="black"/>
</svg>
