<svg width="609" height="450" viewBox="0 0 609 450" fill="none" xmlns="http://www.w3.org/2000/svg">
<path d="M67.1641 116.84H540.065" stroke="#DED8D5" stroke-width="1.97" stroke-miterlimit="10"/>
<path d="M533.891 85.8357H73.3385C69.9284 85.8357 67.1641 88.6001 67.1641 92.0101V372.245C67.1641 375.655 69.9284 378.419 73.3385 378.419H533.891C537.301 378.419 540.065 375.655 540.065 372.245V92.0101C540.065 88.6001 537.301 85.8357 533.891 85.8357Z" stroke="#DED8D5" stroke-width="1.97" stroke-miterlimit="10"/>
<path d="M98.3313 101.65C98.3332 102.507 98.081 103.344 97.6066 104.057C97.1322 104.77 96.4569 105.327 95.6663 105.656C94.8756 105.985 94.0052 106.072 93.1651 105.906C92.3249 105.74 91.5529 105.328 90.9467 104.723C90.3405 104.119 89.9274 103.347 89.7596 102.508C89.5919 101.668 89.677 100.797 90.0043 100.006C90.3316 99.2146 90.8863 98.5381 91.5982 98.0622C92.3101 97.5862 93.1472 97.3322 94.0035 97.3322C95.1497 97.3322 96.249 97.7868 97.0604 98.5964C97.8717 99.4059 98.3288 100.504 98.3313 101.65Z" fill="#FFB1A5"/>
<path d="M115.14 101.65C115.142 102.507 114.89 103.344 114.415 104.057C113.941 104.77 113.266 105.327 112.475 105.656C111.684 105.985 110.814 106.072 109.974 105.906C109.134 105.74 108.361 105.328 107.755 104.723C107.149 104.119 106.736 103.347 106.568 102.508C106.4 101.668 106.486 100.797 106.813 100.006C107.14 99.2146 107.695 98.5381 108.407 98.0622C109.119 97.5862 109.956 97.3322 110.812 97.3322C111.958 97.3322 113.058 97.7868 113.869 98.5964C114.68 99.4059 115.137 100.504 115.14 101.65Z" fill="#EAD254"/>
<path d="M131.952 101.65C131.954 102.507 131.702 103.344 131.228 104.057C130.753 104.77 130.078 105.327 129.287 105.656C128.497 105.985 127.626 106.072 126.786 105.906C125.946 105.74 125.174 105.328 124.568 104.723C123.962 104.119 123.548 103.347 123.381 102.508C123.213 101.668 123.298 100.797 123.625 100.006C123.953 99.2146 124.507 98.5382 125.219 98.0622C125.931 97.5862 126.768 97.3322 127.625 97.3322C128.193 97.3309 128.755 97.4417 129.28 97.6582C129.805 97.8746 130.282 98.1925 130.684 98.5936C131.086 98.9947 131.405 99.4712 131.623 99.9957C131.84 100.52 131.952 101.083 131.952 101.65Z" fill="#00857B"/>
<path d="M601.499 107.115H490.36C487.227 107.115 484.688 109.654 484.688 112.787V215.574C484.688 218.707 487.227 221.247 490.36 221.247H601.499C604.632 221.247 607.172 218.707 607.172 215.574V112.787C607.172 109.654 604.632 107.115 601.499 107.115Z" fill="#EDEDED"/>
<path d="M601.499 107.115H490.36C487.227 107.115 484.688 109.654 484.688 112.787V215.574C484.688 218.707 487.227 221.247 490.36 221.247H601.499C604.632 221.247 607.172 218.707 607.172 215.574V112.787C607.172 109.654 604.632 107.115 601.499 107.115Z" stroke="#DED8D5" stroke-width="1.97" stroke-miterlimit="10"/>
<path d="M517.228 191.558H574.994C578.143 191.558 580.695 189.006 580.695 185.857V138.517C580.695 135.368 578.143 132.816 574.994 132.816H517.228C514.079 132.816 511.527 135.368 511.527 138.517V185.857C511.527 189.006 514.079 191.558 517.228 191.558Z" fill="#C98BD2"/>
<path d="M561.886 171.956H534.85H529.973V150.553H561.886V155.904V171.956Z" stroke="white" stroke-width="1.65" stroke-linecap="round" stroke-linejoin="round"/>
<path d="M529.973 150.553L545.93 163.13L561.886 150.553" stroke="white" stroke-width="1.65" stroke-linecap="round" stroke-linejoin="round"/>
<path d="M112.405 204.087H6.40734C3.42095 204.087 1 206.508 1 209.494V301.912C1 304.898 3.42095 307.319 6.40734 307.319H112.405C115.391 307.319 117.812 304.898 117.812 301.912V209.494C117.812 206.508 115.391 204.087 112.405 204.087Z" fill="#EDEDED"/>
<path d="M112.405 204.087H6.40734C3.42095 204.087 1 206.508 1 209.494V301.912C1 304.898 3.42095 307.319 6.40734 307.319H112.405C115.391 307.319 117.812 304.898 117.812 301.912V209.494C117.812 206.508 115.391 204.087 112.405 204.087Z" stroke="#DED8D5" stroke-width="1.97" stroke-miterlimit="10"/>
<path d="M86.6205 221.767H31.6474C28.1746 221.767 25.3594 224.583 25.3594 228.055V281.144C25.3594 284.617 28.1746 287.432 31.6474 287.432H86.6205C90.0933 287.432 92.9086 284.617 92.9086 281.144V228.055C92.9086 224.583 90.0933 221.767 86.6205 221.767Z" fill="#FFB1A5"/>
<path d="M46.0382 241.711C43.3662 244.382 41.5464 247.786 40.8089 251.491C40.0714 255.196 40.4493 259.037 41.8948 262.528C43.3403 266.019 45.7885 269.002 48.9298 271.101C52.071 273.2 55.7642 274.321 59.5423 274.321C63.3204 274.321 67.0136 273.2 70.1549 271.101C73.2961 269.002 75.7443 266.019 77.1898 262.528C78.6354 259.037 79.0133 255.196 78.2757 251.491C77.5382 247.786 75.7184 244.382 73.0465 241.711C69.4548 238.149 64.601 236.15 59.5423 236.15C54.4836 236.15 49.6298 238.149 46.0382 241.711ZM72.9991 244.467H66.9194C66.2812 242.495 65.4896 240.576 64.5519 238.728C67.8843 239.741 70.8302 241.742 72.9991 244.467ZM52.5345 254.098C52.5508 251.6 52.8687 249.114 53.4815 246.692H65.6978C66.3105 249.114 66.6285 251.6 66.6448 254.098H52.5345ZM66.4838 256.352C66.3033 258.859 65.8621 261.341 65.1675 263.757H53.9266C53.235 261.341 52.797 258.859 52.6198 256.352H66.4838ZM59.5423 238.008C60.4461 238.006 61.3486 238.075 62.2412 238.217C63.367 240.21 64.2932 242.31 65.0065 244.486H54.0782C54.7937 242.311 55.7198 240.212 56.8434 238.217C57.7355 238.069 58.638 237.993 59.5423 237.989V238.008ZM54.5327 238.747C53.595 240.595 52.8034 242.514 52.1652 244.486H46.0855C48.2533 241.756 51.199 239.748 54.5327 238.728V238.747ZM44.5703 246.711H51.5402C50.9424 249.135 50.6246 251.62 50.5932 254.117H42.3543C42.517 251.505 43.275 248.966 44.5703 246.692V246.711ZM44.5703 263.757C43.2765 261.49 42.5185 258.957 42.3543 256.352H50.5932C50.7216 258.854 51.112 261.336 51.758 263.757H44.5703ZM46.0855 265.992H52.4209C53.0702 267.979 53.8549 269.918 54.7695 271.797C51.3432 270.799 48.3098 268.764 46.0855 265.973V265.992ZM59.5423 272.451C58.7886 272.448 58.0357 272.398 57.2885 272.299C56.2586 270.252 55.3664 268.139 54.6179 265.973H64.4667C63.7223 268.14 62.83 270.254 61.7962 272.299C61.0489 272.398 60.2961 272.448 59.5423 272.451ZM64.2773 271.778C65.1909 269.898 65.9786 267.958 66.6353 265.973H72.9612C70.7538 268.748 67.7446 270.775 64.3436 271.778H64.2773ZM74.4859 263.738H67.2887C67.9347 261.317 68.3251 258.835 68.4535 256.333H76.7019C76.5451 258.934 75.8004 261.466 74.5238 263.738H74.4859ZM76.7019 254.098H68.4914C68.4506 251.602 68.133 249.118 67.5444 246.692H74.5143C75.8059 248.961 76.5668 251.493 76.7397 254.098H76.7019Z" fill="white"/>
<path d="M106.091 58.8368H10.0657C9.11378 58.8368 8.20088 58.4587 7.52779 57.7856C6.8547 57.1125 6.47656 56.1996 6.47656 55.2477C6.47656 54.2958 6.8547 53.3829 7.52779 52.7098C8.20088 52.0367 9.11378 51.6586 10.0657 51.6586H106.091C107.043 51.6586 107.956 52.0367 108.629 52.7098C109.302 53.3829 109.68 54.2958 109.68 55.2477C109.68 56.1996 109.302 57.1125 108.629 57.7856C107.956 58.4587 107.043 58.8368 106.091 58.8368Z" fill="#C98BD2"/>
<path d="M605.411 293.398H558.8C557.847 293.396 556.934 293.015 556.262 292.341C555.589 291.666 555.211 290.752 555.211 289.8C555.211 288.848 555.589 287.935 556.262 287.262C556.935 286.589 557.848 286.21 558.8 286.21H605.411C606.363 286.21 607.276 286.589 607.949 287.262C608.622 287.935 609 288.848 609 289.8C609 290.752 608.622 291.666 607.95 292.341C607.277 293.015 606.364 293.396 605.411 293.398Z" fill="#56DFED"/>
<path d="M572.777 324.185H567.076C565.58 324.185 564.367 325.398 564.367 326.893V332.244C564.367 333.74 565.58 334.952 567.076 334.952H572.777C574.272 334.952 575.485 333.74 575.485 332.244V326.893C575.485 325.398 574.272 324.185 572.777 324.185Z" fill="#C98BD2"/>
<path d="M32.9406 349.063H27.2397C25.7438 349.063 24.5312 350.275 24.5312 351.771V357.122C24.5312 358.617 25.7438 359.83 27.2397 359.83H32.9406C34.4364 359.83 35.649 358.617 35.649 357.122V351.771C35.649 350.275 34.4364 349.063 32.9406 349.063Z" fill="#FFB1A5"/>
<path d="M468.819 26.2792H374.034C372.46 26.2792 371.184 27.5554 371.184 29.1296V52.2742C371.184 53.8485 372.46 55.1247 374.034 55.1247H468.819C470.393 55.1247 471.669 53.8485 471.669 52.2742V29.1296C471.669 27.5554 470.393 26.2792 468.819 26.2792Z" fill="#FFB1A5"/>
<path d="M384.875 36.5636H452.282" stroke="white" stroke-width="1.18" stroke-miterlimit="10"/>
<path d="M384.875 43.4766H412.328" stroke="white" stroke-width="1.18" stroke-miterlimit="10"/>
<path d="M382.129 51.867V63.1079L396.268 51.867H382.129Z" fill="#FFB1A5"/>
<path d="M188.123 6.68291e-05H235.955C237.578 6.68291e-05 239.134 0.644597 240.281 1.79187C241.429 2.93914 242.073 4.49517 242.073 6.11766V50.7211C242.074 51.5253 241.917 52.3218 241.61 53.0652C241.303 53.8085 240.853 54.484 240.285 55.0531C239.716 55.6221 239.042 56.0736 238.299 56.3816C237.556 56.6897 236.76 56.8482 235.955 56.8482H190.074C189.012 56.8519 187.959 56.646 186.977 56.2422C185.995 55.8384 185.102 55.2447 184.35 54.4951C183.598 53.7455 183.001 52.8548 182.594 51.874C182.186 50.8933 181.977 49.8418 181.977 48.7798V6.16501C181.97 5.35526 182.125 4.55233 182.431 3.80277C182.738 3.05321 183.19 2.37193 183.762 1.79846C184.333 1.22499 185.013 0.770724 185.762 0.462012C186.511 0.1533 187.313 -0.00371804 188.123 6.68291e-05Z" fill="#56DFED"/>
<path d="M226.053 32.624L222.635 29.2054C222.362 28.8885 222.025 28.6328 221.646 28.4549C221.268 28.277 220.856 28.181 220.438 28.1732C219.609 28.186 218.819 28.5264 218.241 29.1202L216.28 31.071L215.92 30.891C215.674 30.7679 215.494 30.7016 215.305 30.588C213.375 29.3237 211.663 27.7532 210.238 25.9383C209.595 25.1823 209.06 24.3409 208.648 23.4382C209.14 23.012 209.594 22.4912 209.992 22.0935L210.541 21.5442C210.867 21.265 211.129 20.9186 211.309 20.5288C211.488 20.1389 211.581 19.7148 211.581 19.2856C211.581 18.8564 211.488 18.4323 211.309 18.0425C211.129 17.6526 210.867 17.3062 210.541 17.027L208.837 15.313C208.637 15.1243 208.45 14.9217 208.278 14.7069L207.123 13.5421C206.541 12.9535 205.753 12.6139 204.926 12.5951C204.514 12.595 204.107 12.679 203.73 12.8418C203.352 13.0047 203.011 13.243 202.729 13.5421L200.589 15.6823C199.785 16.4849 199.289 17.544 199.187 18.6748C199.116 20.2599 199.384 21.8419 199.973 23.3151C201.042 26.2527 202.648 28.9661 204.708 31.3172C207.391 34.5216 210.722 37.1227 214.481 38.95C216.202 39.8227 218.065 40.3807 219.983 40.5977H220.409C221.097 40.6087 221.78 40.4734 222.412 40.2008C223.043 39.9281 223.61 39.5244 224.074 39.0163L224.131 38.95C224.468 38.5559 224.835 38.1886 225.229 37.8515L226.025 37.056C226.327 36.7722 226.568 36.43 226.734 36.0501C226.9 35.6702 226.987 35.2606 226.989 34.8461C226.992 34.4316 226.91 34.0209 226.75 33.6389C226.589 33.257 226.352 32.9117 226.053 32.624ZM224.652 35.806L223.923 36.5351C223.487 36.9045 223.127 37.3306 222.701 37.7568C222.422 38.0626 222.081 38.3054 221.7 38.4687C221.319 38.632 220.908 38.7122 220.494 38.7038H220.191C218.533 38.5271 216.924 38.0285 215.456 37.2359C211.938 35.5021 208.827 33.0428 206.327 30.0198C204.445 27.8192 202.938 25.3236 201.867 22.6332C201.301 21.4547 201.05 20.1497 201.138 18.8453C201.157 18.5086 201.241 18.1789 201.388 17.875C201.534 17.5711 201.739 17.2991 201.99 17.0744L204.064 15.0005C204.287 14.7548 204.595 14.6026 204.926 14.5743C205.09 14.5812 205.251 14.6228 205.398 14.6962C205.544 14.7697 205.674 14.8734 205.778 15.0005L206.877 16.099C207.067 16.3182 207.273 16.5238 207.492 16.7145L209.197 18.4191C209.435 18.6442 209.586 18.946 209.623 19.2714C209.598 19.6032 209.446 19.9123 209.197 20.1332L208.648 20.6824L207.123 22.2071L207.057 22.2639C206.844 22.4501 206.695 22.6982 206.631 22.9733C206.566 23.2484 206.589 23.5368 206.697 23.7981V23.8549C207.211 25.0514 207.89 26.1702 208.714 27.1788C210.27 29.1695 212.149 30.8852 214.273 32.2547C214.522 32.4185 214.785 32.561 215.059 32.6809C215.27 32.7686 215.476 32.8698 215.674 32.9839L215.731 33.0502C216.01 33.1975 216.331 33.2468 216.642 33.1901C216.953 33.1334 217.236 32.9741 217.445 32.7377L219.585 30.607C219.691 30.4815 219.821 30.3784 219.968 30.3036C220.114 30.2288 220.274 30.1839 220.438 30.1713C220.747 30.2153 221.03 30.3701 221.233 30.607L224.652 34.0256C224.783 34.134 224.888 34.27 224.961 34.4239C225.033 34.5778 225.071 34.7457 225.071 34.9158C225.071 35.0858 225.033 35.2538 224.961 35.4077C224.888 35.5616 224.783 35.6975 224.652 35.806Z" fill="white"/>
<path d="M435.568 272.053L401.003 267.451L401.278 270.888L371.722 274.818C371.722 274.818 352.631 322.641 369.421 427.758H393.465L402.111 321.174H405.189L413.57 427.758H437.605C454.395 322.641 435.568 272.053 435.568 272.053Z" fill="#8E716C"/>
<path d="M391.125 321.145H416.211" stroke="#282828" stroke-width="1.23" stroke-linecap="round" stroke-linejoin="round"/>
<path d="M455.719 221.635C452.764 216.9 436.144 217.08 435.273 216.976C430.784 216.455 438.114 252.185 447.489 283.426C447.915 284.837 448.633 286.141 449.596 287.256C450.559 288.37 451.746 289.269 453.08 289.895C454.414 290.52 455.864 290.857 457.337 290.885C458.81 290.913 460.272 290.63 461.628 290.055L461.817 289.98C464.026 289.046 465.848 287.383 466.98 285.269C468.112 283.154 468.486 280.716 468.039 278.36C463.598 254.827 459.137 227.09 455.719 221.635Z" fill="#FFB1A5"/>
<path d="M459.676 234.561L438.473 242.791L436.484 232.724L458.445 227.241L459.676 234.561Z" fill="#F3978E"/>
<path d="M463.683 254.694C463.683 254.694 453.635 268.18 454.118 267.564C454.601 266.949 461.997 245.783 461.997 245.783L463.683 254.694Z" fill="#F3978E"/>
<path d="M478.049 236.55L449.251 273.871C448.356 275.029 447.712 276.36 447.358 277.78C447.004 279.199 446.948 280.677 447.193 282.12C447.439 283.562 447.981 284.938 448.785 286.16C449.589 287.383 450.637 288.425 451.865 289.222C453.087 290.018 454.462 290.554 455.901 290.794C457.341 291.035 458.814 290.975 460.23 290.62C461.645 290.264 462.972 289.62 464.126 288.727C465.281 287.835 466.239 286.714 466.941 285.434L490.919 241.2L478.049 236.55Z" fill="#FFB1A5"/>
<path d="M485.504 246.134C483.27 245.41 481.301 244.04 479.846 242.198C478.39 240.355 477.514 238.122 477.327 235.782C477.14 233.441 477.651 231.098 478.796 229.048C479.94 226.998 481.667 225.333 483.757 224.264C485.848 223.195 488.209 222.769 490.541 223.041C492.873 223.313 495.072 224.271 496.86 225.793C498.649 227.314 499.946 229.332 500.587 231.591C501.229 233.849 501.187 236.247 500.466 238.482C499.987 239.967 499.22 241.344 498.208 242.533C497.197 243.721 495.961 244.699 494.571 245.41C493.182 246.12 491.666 246.55 490.11 246.674C488.554 246.799 486.989 246.615 485.504 246.134Z" fill="#FFB1A5"/>
<path d="M497.814 227.686C497.814 227.686 501.072 224.315 495.305 221.947C489.537 219.58 482.407 220.129 477.852 231.181L497.814 227.686Z" fill="#FFB1A5"/>
<path d="M503.756 204.106L515.821 209.333C515.981 209.407 516.124 209.513 516.239 209.645C516.355 209.778 516.441 209.933 516.493 210.102C516.544 210.27 516.558 210.448 516.536 210.622C516.513 210.796 516.453 210.964 516.361 211.114L500.536 240.745C500.365 241.078 500.077 241.335 499.727 241.468C499.378 241.601 498.991 241.6 498.642 241.465L486.587 236.238C486.428 236.165 486.285 236.06 486.17 235.929C486.054 235.797 485.967 235.643 485.915 235.475C485.863 235.308 485.847 235.132 485.868 234.958C485.89 234.784 485.947 234.617 486.038 234.467L501.9 204.835C502.069 204.51 502.35 204.256 502.691 204.122C503.033 203.988 503.411 203.982 503.756 204.106Z" fill="#372F5F"/>
<path d="M502.644 203.585L514.7 208.813C514.859 208.885 515.002 208.99 515.117 209.122C515.233 209.253 515.32 209.407 515.372 209.575C515.424 209.742 515.44 209.918 515.418 210.092C515.397 210.266 515.34 210.434 515.249 210.583L499.387 240.253C499.217 240.587 498.93 240.847 498.58 240.981C498.23 241.116 497.843 241.116 497.493 240.982L485.428 235.755C485.268 235.681 485.125 235.575 485.01 235.443C484.894 235.31 484.808 235.155 484.757 234.986C484.705 234.818 484.691 234.641 484.714 234.466C484.736 234.292 484.796 234.124 484.888 233.974L500.76 204.267C500.937 203.943 501.226 203.696 501.573 203.57C501.92 203.444 502.301 203.45 502.644 203.585Z" fill="#261B43"/>
<path d="M501.278 206.597L511.875 211.19L498.948 235.338L488.352 230.745L501.278 206.597Z" fill="#E6E6E6"/>
<path d="M511.875 211.19L488.352 230.745L501.278 206.597L511.875 211.19Z" fill="white"/>
<path d="M491.84 220.963C493.626 221.347 495.348 221.985 496.953 222.857C497.472 223.151 497.881 223.605 498.118 224.152C498.356 224.698 498.409 225.307 498.27 225.887C498.137 226.418 497.847 226.896 497.438 227.259C497.029 227.622 496.52 227.854 495.978 227.923L489.709 228.709C489.709 228.709 486.442 234.391 482.133 234.978L486.082 225.101L491.84 220.963Z" fill="#FFB1A5"/>
<path d="M411.78 174.645C411.088 174.645 456.232 180.895 463.684 232.412L440.303 235.963L435.568 274.79H370.225L357.242 202.989C357.242 202.989 371.722 182.24 398.616 174.579L411.78 174.645Z" fill="#56DFED"/>
<path d="M440.258 235.963L442.294 213.481" stroke="#282828" stroke-width="1.23" stroke-linecap="round" stroke-linejoin="round"/>
<path d="M416.07 175.384V157.504H395.113V175.592C393.184 176.212 391.304 176.975 389.488 177.874L405.824 187.609L422.538 177.874C420.498 176.771 418.324 175.934 416.07 175.384Z" fill="#FFB1A5"/>
<path d="M394.922 159.683C394.922 159.683 398.71 169.673 408.729 168.812C417.962 168.026 416.494 154.171 416.494 154.171L394.922 159.683Z" fill="#282828"/>
<path d="M385.785 146.396C382.499 149.379 375.15 138.082 378.332 134.909C381.514 131.737 383.92 136.708 383.92 136.708L385.34 140.08L386.41 144.654L386.666 145.847L385.785 146.396Z" fill="#F3978E"/>
<path d="M379.859 138.924C379.859 138.924 382.35 137.807 384.594 141.415" stroke="#282828" stroke-width="0.99" stroke-linecap="round" stroke-linejoin="round"/>
<path d="M424.622 146.055C427.643 149.303 435.92 138.659 433.022 135.231C430.124 131.803 427.34 136.557 427.34 136.557L425.645 139.796L424.196 144.265L423.836 145.43L424.622 146.055Z" fill="#F3978E"/>
<path d="M431.156 139.095C431.156 139.095 428.77 137.769 426.27 141.169" stroke="#282828" stroke-width="0.99" stroke-linecap="round" stroke-linejoin="round"/>
<path d="M380.016 124.123C380.016 139.085 391.427 146.178 405.49 146.178C419.553 146.178 430.964 139.085 430.964 124.123C430.964 109.16 419.6 98.9895 405.49 98.9895C391.38 98.9895 380.016 109.17 380.016 124.123Z" fill="#282828"/>
<path d="M383.484 125.165C383.494 132.814 384.365 140.438 386.079 147.892C387.348 153.404 390.909 157.249 395.956 160.345L396.903 160.914C399.557 162.523 402.595 163.39 405.698 163.423C408.802 163.456 411.858 162.655 414.546 161.103C420.01 157.921 423.836 153.726 425.01 147.845C426.376 140.366 427.171 132.793 427.387 125.193C427.387 125.193 429.423 102.02 405.757 102.465C382.092 102.91 383.484 125.165 383.484 125.165Z" fill="#FFB1A5"/>
<path d="M403.984 138.394V141.604C403.985 141.789 404.02 141.972 404.089 142.144C404.23 142.459 404.481 142.712 404.794 142.856C405.107 143 405.462 143.027 405.793 142.93L407.261 142.542" stroke="#282828" stroke-width="1.23" stroke-linecap="round" stroke-linejoin="round"/>
<path d="M400.227 125.96L388.465 128.716C388.465 128.716 388.995 125.723 393.806 124.634C398.617 123.545 400.227 125.96 400.227 125.96Z" fill="#282828"/>
<path d="M410.664 125.96L422.028 128.716C422.028 128.716 421.507 125.723 416.867 124.634C412.227 123.545 410.664 125.96 410.664 125.96Z" fill="#282828"/>
<path d="M395.757 136.576C396.85 136.576 397.736 135.69 397.736 134.597C397.736 133.503 396.85 132.617 395.757 132.617C394.663 132.617 393.777 133.503 393.777 134.597C393.777 135.69 394.663 136.576 395.757 136.576Z" fill="#282828"/>
<path d="M416.533 134.597C416.533 134.988 416.417 135.371 416.199 135.696C415.982 136.022 415.673 136.275 415.311 136.425C414.949 136.575 414.551 136.614 414.167 136.538C413.783 136.461 413.431 136.273 413.154 135.996C412.877 135.719 412.689 135.367 412.612 134.983C412.536 134.599 412.575 134.201 412.725 133.839C412.875 133.477 413.128 133.168 413.454 132.951C413.779 132.733 414.162 132.617 414.553 132.617C415.078 132.617 415.582 132.826 415.953 133.197C416.324 133.568 416.533 134.072 416.533 134.597Z" fill="#282828"/>
<path d="M397.734 146.661H413.028C413.028 146.661 406.21 154.91 397.734 146.661Z" fill="white"/>
<path d="M400.887 141.317C404.178 138.026 404.178 132.69 400.887 129.398C397.595 126.107 392.259 126.107 388.967 129.398C385.676 132.69 385.676 138.026 388.967 141.317C392.259 144.609 397.595 144.609 400.887 141.317Z" stroke="#C98BD2" stroke-width="1.34" stroke-miterlimit="10"/>
<path d="M421.594 141.323C424.885 138.031 424.885 132.695 421.594 129.403C418.302 126.112 412.966 126.112 409.675 129.403C406.383 132.695 406.383 138.031 409.675 141.323C412.966 144.614 418.302 144.614 421.594 141.323Z" stroke="#C98BD2" stroke-width="1.34" stroke-miterlimit="10"/>
<path d="M403.367 135.364C403.367 135.364 405.365 133.47 407.221 135.364" stroke="#C98BD2" stroke-width="1.34" stroke-miterlimit="10"/>
<path d="M386.484 135.364L383.832 135.297" stroke="#C98BD2" stroke-width="1.34" stroke-miterlimit="10"/>
<path d="M424.07 135.364L426.741 135.297" stroke="#C98BD2" stroke-width="1.34" stroke-miterlimit="10"/>
<path d="M427.044 132.854C427.044 132.854 417.574 120.06 419.762 107.105C422.056 108.458 424.034 110.288 425.562 112.47C427.089 114.653 428.131 117.138 428.616 119.757C430.453 128.877 427.044 132.854 427.044 132.854Z" fill="#282828"/>
<path d="M383.481 133.716C383.481 133.716 394.476 119.189 392.288 106.253C387.468 109.331 384.063 114.194 382.818 119.776C380.991 128.877 383.481 133.716 383.481 133.716Z" fill="#282828"/>
<path d="M426.259 112.21C426.259 112.21 414.109 125.468 380.879 123.233C380.879 123.233 385.964 103.715 402.073 101.641C402.073 101.641 420.672 99.4157 426.259 112.21Z" fill="#282828"/>
<path d="M441.082 99.1955C442.479 90.5419 436.596 82.3942 427.942 80.9973C419.289 79.6004 411.141 85.4831 409.744 94.1368C408.347 102.79 414.23 110.938 422.884 112.335C431.537 113.732 439.685 107.849 441.082 99.1955Z" fill="#282828"/>
<path d="M231.701 272.015L202.155 268.085L202.42 264.647L167.854 269.25C167.854 269.25 148.99 319.8 165.78 424.917H189.815L198.196 318.333H201.274L209.929 424.917H233.964C250.754 319.8 231.701 272.015 231.701 272.015Z" fill="#282828"/>
<path d="M229.349 128.223C224.937 122.939 221.569 116.866 219.424 110.325C216.498 102.058 206.933 105.42 206.933 105.42C206.933 105.42 198.96 95.1638 186.961 98.7339C174.963 102.304 170.796 110.846 170.55 120.988C170.303 131.131 162.32 132.731 156.174 144.474C145.322 165.204 163.589 182.657 196.895 177.818V177.496C200.862 178.591 204.991 178.976 209.092 178.632C249.008 176.264 245.22 146.87 229.349 128.223Z" fill="#282828"/>
<path d="M216.264 143.593C219.55 146.576 226.889 135.278 223.716 132.106C220.544 128.934 218.129 133.905 218.129 133.905L216.709 137.277L215.639 141.851L215.383 143.044L216.264 143.593Z" fill="#F3978E"/>
<path d="M222.18 136.083C222.18 136.083 219.699 134.966 217.492 138.574" stroke="#282828" stroke-width="0.99" stroke-linecap="round" stroke-linejoin="round"/>
<path d="M177.428 143.252C174.407 146.5 166.13 135.866 169.028 132.428C171.925 128.99 174.71 133.754 174.71 133.754L176.414 137.002L177.863 141.462L178.214 142.627L177.428 143.252Z" fill="#F3978E"/>
<path d="M170.891 136.292C170.891 136.292 173.268 134.966 175.777 138.366" stroke="#282828" stroke-width="0.99" stroke-linecap="round" stroke-linejoin="round"/>
<path d="M222.017 121.329C222.017 136.282 210.653 143.375 196.552 143.375C182.452 143.375 171.078 136.282 171.078 121.329C171.078 106.376 182.442 96.1958 196.552 96.1958C210.663 96.1958 222.017 106.367 222.017 121.329Z" fill="#282828"/>
<path d="M206.934 154.701H185.977V181.833H206.934V154.701Z" fill="#FFB1A5"/>
<path d="M182.918 153.006C182.918 153.006 188.751 164.645 195.93 166.463C197.858 166.928 199.881 166.812 201.744 166.131C204.443 165.184 207.862 161.15 208.449 156.662L208.714 154.114C208.714 154.114 195.977 161.093 182.918 153.006Z" fill="#282828"/>
<path d="M218.564 122.361C218.552 130.011 217.682 137.634 215.969 145.089C214.7 150.591 211.13 154.436 206.092 157.533L205.145 158.101C202.491 159.71 199.453 160.577 196.35 160.61C193.246 160.644 190.19 159.843 187.502 158.29C182.038 155.109 178.212 150.913 177.038 145.032C175.672 137.553 174.877 129.98 174.661 122.38C174.661 122.38 172.625 99.2074 196.281 99.6524C219.937 100.098 218.564 122.361 218.564 122.361Z" fill="#FFB1A5"/>
<path d="M194.977 136.851V138.745C194.977 138.929 195.013 139.113 195.081 139.284C195.222 139.599 195.473 139.852 195.786 139.996C196.099 140.141 196.454 140.167 196.785 140.07L198.253 139.682" stroke="#282828" stroke-width="1.23" stroke-linecap="round" stroke-linejoin="round"/>
<path d="M199.898 124.284L212.493 127.267C212.493 127.267 211.916 124.028 206.764 122.854C201.612 121.679 199.898 124.284 199.898 124.284Z" fill="#282828"/>
<path d="M193.29 124.284L180.543 127.267C180.543 127.267 181.121 124.028 186.339 122.854C191.557 121.679 193.29 124.284 193.29 124.284Z" fill="#282828"/>
<path d="M188.723 132.096C188.727 132.491 188.613 132.878 188.397 133.207C188.18 133.537 187.87 133.795 187.507 133.948C187.143 134.101 186.742 134.143 186.355 134.067C185.968 133.992 185.612 133.803 185.332 133.525C185.052 133.247 184.862 132.891 184.785 132.505C184.707 132.118 184.747 131.717 184.898 131.352C185.05 130.988 185.306 130.677 185.635 130.459C185.963 130.24 186.35 130.125 186.744 130.127C187.267 130.127 187.769 130.334 188.14 130.703C188.511 131.072 188.721 131.573 188.723 132.096Z" fill="#282828"/>
<path d="M207.521 132.096C207.523 132.488 207.408 132.872 207.192 133.199C206.976 133.525 206.667 133.781 206.306 133.932C205.944 134.083 205.546 134.124 205.161 134.048C204.777 133.973 204.423 133.785 204.146 133.509C203.868 133.232 203.678 132.88 203.601 132.496C203.524 132.111 203.563 131.713 203.712 131.351C203.862 130.989 204.115 130.679 204.441 130.461C204.767 130.243 205.15 130.127 205.542 130.127C205.801 130.125 206.058 130.176 206.298 130.274C206.538 130.372 206.757 130.517 206.941 130.7C207.125 130.883 207.271 131.101 207.37 131.34C207.47 131.58 207.521 131.837 207.521 132.096Z" fill="#282828"/>
<path d="M187.457 143.375H204.863C204.863 143.375 203.632 148.158 195.743 148.158C194.057 148.193 192.393 147.766 190.932 146.923C189.472 146.08 188.27 144.853 187.457 143.375Z" fill="white"/>
<path d="M174.991 130.051C174.991 130.051 184.461 117.257 182.273 104.302C179.978 105.655 178.001 107.485 176.473 109.667C174.946 111.85 173.904 114.335 173.419 116.954C171.591 126.083 174.991 130.051 174.991 130.051Z" fill="#282828"/>
<path d="M218.573 129.625C218.573 129.625 207.588 116.367 209.766 103.431C214.587 106.509 217.992 111.372 219.236 116.954C221.054 126.083 218.573 129.625 218.573 129.625Z" fill="#282828"/>
<path d="M175.789 109.406C175.789 109.406 186.642 124 219.872 121.717C219.872 121.717 216.084 100.883 199.985 98.8379C199.975 98.8379 181.376 96.6125 175.789 109.406Z" fill="#282828"/>
<path d="M145.497 336.193C145.014 336.96 173.159 213.746 164.797 215.603C164.04 215.773 149.409 217.137 147.23 221.559C140.923 234.372 136.406 335.265 136.406 335.265L145.497 336.193Z" fill="#FFB1A5"/>
<path d="M136.402 335.265C136.402 335.265 131.866 356.307 149.016 358.627C149.565 358.701 150.122 358.584 150.593 358.294C151.064 358.004 151.421 357.559 151.602 357.036L151.658 356.894C151.85 356.32 151.819 355.695 151.572 355.143C151.325 354.59 150.879 354.151 150.323 353.911C147.53 352.661 143.192 349.508 145.342 342.33C145.342 342.33 147.823 342.026 149.187 346.648C149.267 346.928 149.409 347.186 149.6 347.406C149.792 347.625 150.029 347.799 150.296 347.917C150.562 348.034 150.851 348.092 151.142 348.085C151.433 348.079 151.719 348.008 151.98 347.879C152.349 347.694 152.652 347.398 152.845 347.033C153.039 346.668 153.114 346.252 153.06 345.843C152.643 342.604 151.014 334.81 144.764 332.718L136.402 335.265Z" fill="#FFB1A5"/>
<path d="M142.172 251.162C142.172 251.162 158.384 273.994 158.47 273.559C158.555 273.123 164.152 241.493 164.152 241.493L144.473 232.97L142.172 251.162Z" fill="#F3978E"/>
<path d="M187.225 177.363C187.916 177.363 147.148 178.092 139.695 229.571L163.124 233.16L167.859 271.987H233.202L246.166 200.214C246.166 200.214 236.942 184.664 210.057 177.041L187.225 177.363Z" fill="#00857B"/>
<path d="M167.305 183.585C167.305 183.585 173.062 191.236 196.662 191.236C220.043 191.236 226.018 183.187 226.018 183.187C226.018 183.187 212.23 175.488 196.235 172.997C186.127 175.096 176.38 178.663 167.305 183.585Z" fill="#FFB1A5"/>
<path d="M247.516 346.667L247.563 449.321H298.35L302.261 346.667H247.516Z" fill="#005683"/>
<path d="M357.785 346.667L357.728 449.321H306.941L303.039 346.667H357.785Z" fill="#005683"/>
<path d="M330.046 346.667H277.535V382.331H330.046V346.667Z" fill="#005683"/>
<path d="M284.863 382.331H321.086" stroke="#282828" stroke-width="1.4" stroke-linecap="round" stroke-linejoin="round"/>
<path d="M389.868 257.072C393.012 291.864 389.688 317.206 390.606 381.213L360.302 382.492L355.785 262.668L389.868 257.072Z" fill="#FFB1A5"/>
<path d="M359.516 284.222C359.516 284.222 378.285 282.498 391.126 274.032L390.785 266.589L359.535 270.85L359.516 284.222Z" fill="#F3978E"/>
<path d="M329.398 176.984C329.398 176.984 389.059 191.975 399.826 267.659C399.826 267.659 370.65 280.311 341.406 274.866L347.978 249.552L329.398 176.984Z" fill="#C98BD2"/>
<path d="M151.306 208.453L195.702 260.878L182.122 299.137C182.122 299.137 148.38 252.223 133.219 215.962L151.306 208.453Z" fill="#FFB1A5"/>
<path d="M152.766 210.337C152.766 210.337 137.178 219.154 133.22 215.962C126.288 210.394 120.559 190.015 120.559 190.015C120.559 190.015 149.717 179.03 149.442 179.456C149.167 179.882 152.766 210.337 152.766 210.337Z" fill="#FFB1A5"/>
<path d="M152.767 210.337C152.492 208.775 158.553 191.842 160.627 185.498C160.729 185.119 160.752 184.724 160.694 184.337C160.636 183.95 160.499 183.579 160.291 183.247C160.083 182.915 159.808 182.63 159.485 182.41C159.161 182.189 158.796 182.038 158.411 181.965C157.731 181.786 157.011 181.834 156.36 182.1C155.709 182.367 155.162 182.838 154.803 183.443L147.492 195.943L152.767 210.337Z" fill="#FFB1A5"/>
<path d="M152.235 192.041L147.216 167.069C147.058 166.26 146.588 165.544 145.908 165.077C145.229 164.61 144.393 164.427 143.58 164.569C142.897 164.692 142.286 165.071 141.872 165.629C141.459 166.187 141.274 166.881 141.355 167.571L143.552 186.17L152.235 192.041Z" fill="#FFB1A5"/>
<path d="M142.255 182.827L135.437 164.995C135.154 164.245 134.596 163.632 133.876 163.28C133.156 162.928 132.329 162.864 131.564 163.101C130.919 163.313 130.377 163.76 130.047 164.353C129.717 164.947 129.623 165.642 129.783 166.302L134.84 186.909L142.255 182.827Z" fill="#FFB1A5"/>
<path d="M134.924 188.083L126.297 170.563C125.92 169.778 125.256 169.166 124.443 168.855C123.629 168.543 122.727 168.555 121.922 168.887C121.561 169.044 121.235 169.27 120.962 169.553C120.688 169.836 120.474 170.17 120.331 170.536C120.187 170.902 120.117 171.293 120.126 171.686C120.134 172.079 120.22 172.467 120.378 172.827L127.263 189.371L134.924 188.083Z" fill="#FFB1A5"/>
<path d="M120.559 190.062L113.798 179.333C113.66 179.042 113.58 178.727 113.565 178.406C113.55 178.084 113.599 177.763 113.709 177.461C113.819 177.158 113.988 176.881 114.207 176.645C114.425 176.408 114.689 176.218 114.982 176.084C115.568 175.83 116.224 175.785 116.84 175.958C117.456 176.13 117.993 176.509 118.362 177.031L127.264 189.342L120.559 190.062Z" fill="#FFB1A5"/>
<path d="M150.876 190.166C150.876 190.166 140.715 189.096 139.664 202.638" stroke="#282828" stroke-width="1.53" stroke-linecap="round" stroke-linejoin="round"/>
<path d="M173.117 281.239C173.117 281.239 181.47 310.132 198.108 306.296C214.747 302.461 240.676 266.92 240.676 266.92L234.871 206.237L188.174 263.719L173.117 281.239Z" fill="#FFB1A5"/>
<path d="M202.652 245.859C202.652 245.859 218.42 269.648 231.867 278.057L240.674 266.949L206.715 240.679L202.652 245.859Z" fill="#F3978E"/>
<path d="M271.635 175.668C271.635 175.668 225.337 186.104 200.715 239.903C200.715 239.903 215.621 262.356 239.542 272.337L255.546 252.744L271.635 175.668Z" fill="#C98BD2"/>
<path d="M271.634 175.507C260.741 181.096 250.803 188.377 242.191 197.079L245.752 354.337H359.704L359.335 197.894C359.335 197.894 344.969 183.831 329.4 176.984C316.18 171.122 284.494 168.916 271.634 175.507Z" fill="#C98BD2"/>
<path d="M309.713 220.432H341.409V236.285C341.409 240.489 339.738 244.522 336.765 247.495C333.792 250.467 329.76 252.138 325.556 252.138C321.351 252.138 317.319 250.467 314.346 247.495C311.373 244.522 309.703 240.489 309.703 236.285V220.432H309.713Z" stroke="#282828" stroke-width="1.4" stroke-linecap="round" stroke-linejoin="round"/>
<path d="M359.516 275.453L361.002 224.002" stroke="#282828" stroke-width="1.4" stroke-linecap="round" stroke-linejoin="round"/>
<path d="M243.943 266.873L241.48 222.279" stroke="#282828" stroke-width="1.4" stroke-linecap="round" stroke-linejoin="round"/>
<path d="M272.966 118.09L268.231 94.5955C267.957 92.7015 267.218 89.728 268.127 86.9533C269.633 82.3603 275.163 73.5438 284.614 77.578L286.66 86.887C286.66 86.887 276.84 88.8662 272.9 101.698L272.966 118.09Z" fill="#282828"/>
<path d="M283.908 82.3982C283.738 85.4854 281.01 98.999 271.436 103.923C271.436 103.886 263.036 85.8926 283.908 82.3982Z" fill="#282828"/>
<path d="M317.527 171.179V131.273H280.736V171.179L269.789 176.17C269.789 176.17 272.355 192.704 299.515 193.074C326.675 193.443 329.402 176.975 329.402 176.975L317.527 171.179Z" fill="#FFB1A5"/>
<path d="M284.609 77.5496C284.609 77.5496 291.361 59.7366 312.176 69.2065C324.781 74.9359 328.275 82.6255 329.809 88.0707C330.305 90.147 330.493 92.2847 330.368 94.4156L325.33 118.09L305.671 85.3718L286.655 86.8396L284.609 77.5496Z" fill="#282828"/>
<path d="M325.33 118.09C325.33 118.09 327.811 114.151 332.906 116.092C338.001 118.034 335.747 130.449 328.038 132.04C327.176 132.191 326.291 132.155 325.445 131.933C324.598 131.71 323.809 131.307 323.133 130.752C323.133 130.752 325.036 121.547 325.33 118.09Z" fill="#F3978E"/>
<path d="M331.91 120.448C331.91 120.448 327.63 119.019 324.59 125.326" stroke="#282828" stroke-width="1.4" stroke-linecap="round" stroke-linejoin="round"/>
<path d="M272.97 118.09C272.97 118.09 270.488 114.151 265.394 116.092C260.299 118.034 262.553 130.449 270.271 132.04C271.133 132.191 272.018 132.155 272.864 131.933C273.711 131.71 274.5 131.307 275.176 130.752C275.176 130.752 273.273 121.547 272.97 118.09Z" fill="#F3978E"/>
<path d="M266.391 120.449C266.391 120.449 270.681 119.019 273.72 125.326" stroke="#282828" stroke-width="1.4" stroke-linecap="round" stroke-linejoin="round"/>
<path d="M325.841 106.281C325.841 113.763 325.112 129.435 320.509 138.735C316.191 147.466 309.041 152.163 299.676 152.438C290.31 152.713 283.321 149.114 277.724 137.778C272.127 126.443 272.393 106.414 272.393 106.414C272.393 106.414 272.393 79.6614 298.833 79.6614C326.665 79.6614 325.841 106.281 325.841 106.281Z" fill="#FFB1A5"/>
<path d="M281.008 143.366C281.008 143.366 284.095 158.991 297.694 160.791C313.348 162.855 317.524 143.745 317.524 143.745C317.524 143.745 310.601 152.41 299.664 152.419C296.074 152.406 292.534 151.585 289.304 150.018C286.075 148.451 283.239 146.177 281.008 143.366Z" fill="#282828"/>
<path d="M297.234 117.38V123.574C297.233 123.833 297.281 124.09 297.376 124.331C297.572 124.771 297.921 125.125 298.359 125.327C298.796 125.529 299.291 125.565 299.753 125.43L301.808 124.89" stroke="#282828" stroke-width="1.4" stroke-linecap="round" stroke-linejoin="round"/>
<path d="M289.42 114.426C289.42 114.901 289.279 115.366 289.015 115.762C288.75 116.157 288.375 116.466 287.935 116.648C287.496 116.83 287.012 116.877 286.545 116.785C286.079 116.692 285.65 116.463 285.314 116.126C284.978 115.79 284.748 115.361 284.656 114.895C284.563 114.428 284.61 113.945 284.792 113.505C284.975 113.066 285.283 112.69 285.678 112.426C286.074 112.161 286.539 112.02 287.015 112.02C287.331 112.02 287.643 112.082 287.935 112.203C288.227 112.324 288.492 112.501 288.716 112.725C288.939 112.948 289.116 113.213 289.237 113.505C289.358 113.797 289.42 114.11 289.42 114.426Z" fill="#282828"/>
<path d="M311.987 114.426C311.987 114.901 311.845 115.366 311.581 115.762C311.317 116.157 310.941 116.466 310.502 116.648C310.062 116.83 309.578 116.877 309.112 116.785C308.645 116.692 308.217 116.463 307.88 116.126C307.544 115.79 307.315 115.361 307.222 114.895C307.129 114.428 307.177 113.945 307.359 113.505C307.541 113.066 307.849 112.69 308.245 112.426C308.64 112.161 309.105 112.02 309.581 112.02C310.219 112.02 310.831 112.274 311.282 112.725C311.733 113.176 311.987 113.788 311.987 114.426Z" fill="#282828"/>
<path d="M303.414 102.456L319.598 106.632C319.598 106.632 318.869 102.096 312.25 100.448C305.63 98.8002 303.414 102.456 303.414 102.456Z" fill="#282828"/>
<path d="M293.368 102.456L277.184 106.632C277.184 106.632 277.913 102.096 284.532 100.448C291.152 98.8002 293.368 102.456 293.368 102.456Z" fill="#282828"/>
<path d="M290.148 129.814C290.148 129.814 292.535 131.642 298.813 131.642C302 131.714 305.164 131.09 308.085 129.814" stroke="#282828" stroke-width="1.4" stroke-linecap="round" stroke-linejoin="round"/>
<path d="M286.368 125.354C292.017 125.354 296.596 120.775 296.596 115.126C296.596 109.478 292.017 104.899 286.368 104.899C280.72 104.899 276.141 109.478 276.141 115.126C276.141 120.775 280.72 125.354 286.368 125.354Z" stroke="white" stroke-width="1.95" stroke-miterlimit="10"/>
<path d="M311.493 125.354C317.142 125.354 321.721 120.775 321.721 115.126C321.721 109.478 317.142 104.899 311.493 104.899C305.845 104.899 301.266 109.478 301.266 115.126C301.266 120.775 305.845 125.354 311.493 125.354Z" stroke="white" stroke-width="1.95" stroke-miterlimit="10"/>
<path d="M296.598 115.126C296.598 115.126 299.012 112.872 301.266 115.126" stroke="white" stroke-width="1.95" stroke-miterlimit="10"/>
<path d="M276.139 115.126L272.711 115.041" stroke="white" stroke-width="1.95" stroke-miterlimit="10"/>
<path d="M321.719 115.126L325.545 115.07" stroke="white" stroke-width="1.95" stroke-miterlimit="10"/>
<path d="M281.008 83.0517C281.008 83.0517 285.923 97.0009 308.092 96.5748C323.149 96.2812 326.748 107.181 326.748 107.181C326.748 107.181 324.125 82.8244 323.433 83.0517C322.742 83.279 300.516 77.114 300.516 77.114L281.008 83.0517Z" fill="#282828"/>
</svg>
