<svg width="570" height="496" viewBox="0 0 570 496" fill="none" xmlns="http://www.w3.org/2000/svg">
<path d="M556.23 443.523H0" stroke="#A1A1A1" stroke-width="1.11" stroke-miterlimit="10"/>
<path d="M511.041 332.427C510.121 330.964 509.113 329.559 508.023 328.218C507.362 327.268 506.821 326.234 506.195 325.212C505.256 323.294 503.906 321.606 502.239 320.27C500.76 319.224 498.956 318.719 497.526 317.624C496.883 317.096 496.276 316.526 495.71 315.917L495.277 315.496C491.97 312.442 487.292 311.492 482.867 310.686C482.199 310.5 481.492 310.5 480.823 310.686C480.263 311.094 479.82 311.641 479.536 312.273C477.384 316.229 475.171 320.462 475.46 324.947C475.46 325.152 475.46 325.356 475.46 325.549C475.574 326.374 475.634 327.205 475.64 328.038C475.64 329.841 474.847 331.561 474.727 333.365C474.723 335.498 475.182 337.607 476.073 339.545C476.494 340.652 476.927 341.746 477.276 342.864C477.63 344.557 478.083 346.227 478.635 347.867C479.867 350.553 482.077 352.669 484.815 353.783C487.335 354.729 489.981 355.296 492.668 355.466C494.473 355.639 496.294 355.438 498.019 354.877C499.125 354.552 500.207 354.168 501.289 353.747C502.299 353.158 503.285 352.544 504.247 351.907C505.768 350.925 507.07 349.639 508.071 348.131C509.63 345.922 510.846 343.489 511.679 340.916C512.553 338.108 512.325 335.073 511.041 332.427Z" fill="#DBDBDB"/>
<path d="M485.129 319.993C485.129 319.993 510.008 354.708 508.649 415.674" stroke="black" stroke-width="0.49" stroke-miterlimit="10"/>
<path d="M493.077 367.37C492.285 366.583 491.446 365.844 490.564 365.158C490.011 364.665 489.494 364.1 488.977 363.546C488.109 362.477 487.017 361.611 485.778 361.009C484.708 360.564 483.493 360.516 482.435 360.035C481.958 359.791 481.496 359.517 481.052 359.218L480.716 359.025C478.202 357.582 475.124 357.666 472.226 357.823C471.778 357.811 471.335 357.914 470.939 358.123C470.643 358.465 470.443 358.881 470.362 359.326C469.593 362.116 468.811 365.098 469.641 367.875C469.641 367.996 469.725 368.116 469.761 368.248C469.952 368.746 470.108 369.256 470.23 369.775C470.458 370.978 470.23 372.108 470.434 373.25C470.736 374.595 471.331 375.856 472.178 376.942C472.599 377.579 473.032 378.205 473.38 378.854C473.848 379.866 474.374 380.849 474.956 381.8C476.118 383.309 477.813 384.315 479.693 384.614C481.415 384.848 483.162 384.824 484.876 384.542C486.031 384.382 487.143 383.994 488.147 383.399C488.784 383.027 489.421 382.63 490.035 382.197C490.588 381.692 491.117 381.163 491.622 380.622C492.435 379.78 493.07 378.782 493.486 377.688C494.13 376.08 494.535 374.387 494.688 372.661C494.843 370.757 494.267 368.865 493.077 367.37Z" fill="#DBDBDB"/>
<path d="M475.004 363.306C475.004 363.306 495.65 381.512 503.623 419.979" stroke="black" stroke-width="0.49" stroke-miterlimit="10"/>
<path d="M529.247 353.758C530.054 352.48 530.937 351.251 531.892 350.079C532.47 349.249 532.975 348.347 533.492 347.457C534.318 345.783 535.495 344.307 536.943 343.129C538.23 342.227 539.805 341.782 541.067 340.82C541.631 340.361 542.161 339.862 542.655 339.329L543.027 338.968C545.913 336.299 550.002 335.469 553.85 334.747C554.433 334.591 555.046 334.591 555.629 334.747C556.124 335.098 556.514 335.576 556.76 336.13C558.636 339.581 560.572 343.273 560.367 347.205C560.367 347.373 560.367 347.554 560.367 347.734C560.267 348.451 560.215 349.174 560.211 349.899C560.211 351.474 560.908 352.977 561.016 354.552C561.016 356.422 560.605 358.269 559.814 359.963C559.441 360.925 559.068 361.887 558.792 362.861C558.472 364.337 558.07 365.794 557.589 367.226C556.51 369.572 554.58 371.42 552.19 372.397C549.988 373.227 547.673 373.721 545.324 373.864C543.747 374.022 542.154 373.85 540.647 373.359C539.685 373.07 538.735 372.734 537.785 372.373C536.907 371.868 536.041 371.339 535.199 370.773C533.875 369.906 532.738 368.781 531.856 367.467C530.492 365.548 529.422 363.436 528.682 361.202C527.913 358.74 528.115 356.076 529.247 353.758Z" fill="#DBDBDB"/>
<path d="M552.02 342.708C552.02 342.708 527.141 377.423 528.512 438.389" stroke="black" stroke-width="0.49" stroke-miterlimit="10"/>
<path d="M508.672 308.257C509.494 306.429 510.422 304.651 511.449 302.93C512.063 301.727 512.556 300.453 513.061 299.19C513.828 296.836 515.1 294.677 516.788 292.865C518.315 291.422 520.3 290.544 521.767 289.053C522.424 288.343 523.031 287.588 523.582 286.793L524.003 286.24C527.298 282.199 532.517 280.347 537.459 278.676C538.215 278.348 539.047 278.231 539.864 278.339C540.58 278.71 541.182 279.266 541.607 279.951C544.722 284.135 547.945 288.62 548.353 293.827C548.365 294.06 548.365 294.292 548.353 294.525C548.361 295.49 548.429 296.454 548.558 297.411C548.919 299.479 550.049 301.331 550.482 303.423C550.839 305.873 550.658 308.372 549.953 310.746C549.652 312.081 549.327 313.416 549.147 314.75C549.019 316.768 548.766 318.776 548.389 320.763C547.424 324.052 545.233 326.845 542.269 328.567C539.531 330.069 536.585 331.155 533.527 331.789C531.487 332.284 529.366 332.353 527.298 331.994C525.975 331.789 524.653 331.525 523.354 331.224C522.151 330.719 520.865 330.178 519.65 329.601C517.749 328.713 516.047 327.449 514.648 325.885C512.49 323.624 510.686 321.05 509.297 318.249C507.808 315.124 507.584 311.544 508.672 308.257Z" fill="#DBDBDB"/>
<path d="M536.523 289.438C536.523 289.438 512.052 338.463 520.157 419.534" stroke="black" stroke-width="0.49" stroke-miterlimit="10"/>
<path d="M518.101 408.231H517.824L488.508 408.844L491.887 446.362C492.444 452.553 495.154 458.353 499.547 462.751L501.627 464.82C504.066 467.26 507.375 468.631 510.826 468.631H525.147C528.598 468.631 531.907 467.26 534.346 464.82L536.427 462.751C540.819 458.353 543.529 452.553 544.086 446.362L547.429 408.844L518.101 408.231Z" fill="#DBDBDB"/>
<path d="M540.527 485.803C531.833 484.6 523.476 480.019 518.509 472.78C513.543 465.541 512.377 455.596 516.381 447.792C519.471 441.78 525.207 437.463 531.268 434.409C537.328 431.355 543.857 429.37 550.05 426.581C556.886 423.5 563.263 419.49 569.001 414.664" stroke="white" stroke-width="0.63" stroke-miterlimit="10"/>
<path d="M548.391 471.842C543.107 472.099 537.841 471.05 533.059 468.788C526.686 465.541 524.581 456.763 530.353 451.76C532.915 449.56 536.113 448.526 539.047 447.047C542.255 445.434 545.36 443.623 548.342 441.624C554.257 437.647 559.612 432.895 564.263 427.494" stroke="white" stroke-width="0.63" stroke-miterlimit="10"/>
<path d="M524.581 389.268C525.783 398.479 526.793 408.423 522.284 416.54C517.222 425.642 506.652 429.887 497.321 434.433C487.99 438.978 478.081 445.808 476.734 456.149" stroke="white" stroke-width="0.63" stroke-miterlimit="10"/>
<path d="M514.794 398.719C516.177 406.692 514.169 414.592 506.305 418.163C505.115 418.754 503.811 419.081 502.482 419.12C501.154 419.16 499.832 418.911 498.609 418.392C492.08 415.241 491.935 404.347 492.657 398.322" stroke="white" stroke-width="0.63" stroke-miterlimit="10"/>
<path d="M448.046 386.73H88.5055C84.9753 386.675 81.5927 385.305 79.0196 382.888C76.4464 380.47 74.8679 377.179 74.5928 373.66V14.1191C74.4598 12.4436 74.6757 10.7587 75.2268 9.17085C75.7779 7.58301 76.6523 6.12668 77.7947 4.89386C78.9371 3.66104 80.3228 2.6785 81.8641 2.0083C83.4055 1.33809 85.0691 0.994789 86.7499 1.00006H446.29C449.828 1.04356 453.221 2.40904 455.802 4.82792C458.383 7.24679 459.966 10.544 460.239 14.071V373.612C460.372 375.29 460.156 376.978 459.602 378.568C459.049 380.159 458.171 381.617 457.025 382.85C455.879 384.083 454.489 385.065 452.943 385.733C451.397 386.401 449.73 386.741 448.046 386.73Z" fill="#DDDEE0" stroke="black" stroke-width="0.52" stroke-miterlimit="10"/>
<path d="M74.7344 36.6417H459.707" stroke="black" stroke-width="0.52" stroke-miterlimit="10"/>
<path d="M434.152 14.5039L443.363 23.7149" stroke="black" stroke-width="0.52" stroke-miterlimit="10"/>
<path d="M434.152 23.7149L443.363 14.5039" stroke="black" stroke-width="0.52" stroke-miterlimit="10"/>
<path d="M100.733 18.6645C100.733 17.5015 100.388 16.3647 99.7419 15.3977C99.0958 14.4307 98.1774 13.677 97.103 13.232C96.0285 12.7869 94.8462 12.6705 93.7056 12.8974C92.565 13.1243 91.5173 13.6843 90.6949 14.5066C89.8726 15.329 89.3125 16.3767 89.0856 17.5174C88.8588 18.658 88.9752 19.8403 89.4203 20.9147C89.8653 21.9892 90.619 22.9075 91.586 23.5536C92.5529 24.1998 93.6898 24.5446 94.8528 24.5446C95.6254 24.5462 96.3907 24.3952 97.1049 24.1003C97.819 23.8053 98.4678 23.3722 99.0142 22.8259C99.5605 22.2796 99.9936 21.6307 100.289 20.9166C100.583 20.2025 100.734 19.4371 100.733 18.6645Z" fill="#0070C0"/>
<path d="M121.752 18.6645C121.752 17.5015 121.408 16.3647 120.761 15.3977C120.115 14.4307 119.197 13.677 118.123 13.232C117.048 12.7869 115.866 12.6705 114.725 12.8974C113.585 13.1243 112.537 13.6843 111.714 14.5066C110.892 15.329 110.332 16.3767 110.105 17.5174C109.878 18.658 109.995 19.8403 110.44 20.9147C110.885 21.9892 111.639 22.9075 112.605 23.5536C113.572 24.1998 114.709 24.5446 115.872 24.5446C116.645 24.5462 117.41 24.3952 118.124 24.1003C118.839 23.8053 119.487 23.3722 120.034 22.8259C120.58 22.2796 121.013 21.6307 121.308 20.9166C121.603 20.2025 121.754 19.4371 121.752 18.6645Z" fill="#FFBF00"/>
<path d="M142.854 18.6645C142.854 17.501 142.509 16.3637 141.862 15.3964C141.216 14.4292 140.296 13.6755 139.221 13.2308C138.146 12.7861 136.963 12.6704 135.822 12.8983C134.681 13.1261 133.634 13.6873 132.812 14.5109C131.99 15.3344 131.431 16.3833 131.205 17.5247C130.98 18.6662 131.098 19.8488 131.545 20.9231C131.992 21.9973 132.747 22.9148 133.716 23.5595C134.684 24.2041 135.822 24.547 136.986 24.5446C137.758 24.5462 138.523 24.3951 139.236 24.1C139.95 23.8049 140.598 23.3717 141.143 22.8252C141.688 22.2787 142.12 21.6297 142.414 20.9157C142.708 20.2016 142.857 19.4366 142.854 18.6645Z" fill="#32CD32"/>
<path d="M438.687 146.103C438.687 143.87 437.801 141.729 436.222 140.151C434.644 138.572 432.503 137.685 430.27 137.685H196.605C194.372 137.685 192.231 138.572 190.653 140.151C189.074 141.729 188.188 143.87 188.188 146.103V188.189C188.188 190.422 189.074 192.563 190.653 194.141C192.231 195.72 194.372 196.607 196.605 196.607H413.508L423.272 204.495C423.549 204.721 423.886 204.86 424.242 204.893C424.598 204.927 424.956 204.854 425.27 204.684C425.585 204.514 425.841 204.254 426.008 203.938C426.174 203.622 426.243 203.263 426.206 202.908L425.725 198.098C425.698 197.809 425.752 197.519 425.882 197.259C426.011 197 426.211 196.782 426.458 196.631C431.352 196.631 438.026 196.45 438.483 190.029C438.618 189.433 438.687 188.824 438.687 188.213V146.103Z" fill="#32CD32" stroke="black" stroke-width="0.52" stroke-miterlimit="10"/>
<path d="M220.691 149.314L226.426 160.918L239.233 162.781L229.962 171.812L232.15 184.582L220.691 178.558L209.231 184.582L211.42 171.812L202.148 162.781L214.967 160.918L220.691 149.314Z" fill="#FFBF00"/>
<path d="M228.622 148.607L223.066 146.608L209.13 185.338L214.686 187.337L228.622 148.607Z" fill="#FFBF00"/>
<path d="M234.972 150.078L231.906 148.975L217.97 187.705L221.037 188.808L234.972 150.078Z" fill="#FFBF00"/>
<path d="M266.878 149.314L272.614 160.918L285.42 162.781L276.149 171.812L278.338 184.582L266.878 178.558L255.419 184.582L257.607 171.812L248.336 162.781L261.154 160.918L266.878 149.314Z" fill="#FFBF00"/>
<path d="M266.878 149.314L272.614 160.918L285.42 162.781L276.149 171.812L278.338 184.582L266.878 178.558L255.419 184.582L257.607 171.812L248.336 162.781L261.154 160.918L266.878 149.314Z" fill="#FFBF00"/>
<path d="M274.802 148.613L269.246 146.614L255.31 185.344L260.866 187.343L274.802 148.613Z" fill="#FFBF00"/>
<path d="M281.152 150.084L278.086 148.981L264.15 187.711L267.216 188.814L281.152 150.084Z" fill="#FFBF00"/>
<path d="M313.066 149.314L318.801 160.918L331.608 162.781L322.337 171.812L324.525 184.582L313.066 178.558L301.606 184.582L303.795 171.812L294.523 162.781L307.33 160.918L313.066 149.314Z" fill="#FFBF00"/>
<path d="M313.066 149.314L318.801 160.918L331.608 162.781L322.337 171.812L324.525 184.582L313.066 178.558L301.606 184.582L303.795 171.812L294.523 162.781L307.33 160.918L313.066 149.314Z" fill="#FFBF00"/>
<path d="M320.989 148.619L315.434 146.62L301.498 185.35L307.053 187.349L320.989 148.619Z" fill="#FFBF00"/>
<path d="M327.34 150.078L324.273 148.974L310.337 187.704L313.404 188.807L327.34 150.078Z" fill="#FFBF00"/>
<path d="M359.253 149.314L364.977 160.918L377.795 162.781L368.524 171.812L370.713 184.582L359.253 178.558L347.794 184.582L349.982 171.812L340.711 162.781L353.517 160.918L359.253 149.314Z" fill="#FFBF00"/>
<path d="M359.253 149.314L364.977 160.918L377.795 162.781L368.524 171.812L370.713 184.582L359.253 178.558L347.794 184.582L349.982 171.812L340.711 162.781L353.517 160.918L359.253 149.314Z" fill="#FFBF00"/>
<path d="M367.169 148.621L361.613 146.622L347.677 185.351L353.233 187.35L367.169 148.621Z" fill="#FFBF00"/>
<path d="M373.531 150.084L370.465 148.98L356.529 187.71L359.595 188.813L373.531 150.084Z" fill="#FFBF00"/>
<path d="M405.726 149.314L411.462 160.918L424.268 162.781L414.997 171.812L417.185 184.582L405.726 178.558L394.266 184.582L396.455 171.812L387.184 162.781L399.99 160.918L405.726 149.314Z" fill="white"/>
<path d="M106.959 55.496H230.621C232.59 55.5024 234.477 56.2873 235.869 57.6796C237.261 59.0719 238.046 60.9584 238.053 62.9273V110.75C238.046 112.719 237.261 114.605 235.869 115.998C234.477 117.39 232.59 118.175 230.621 118.181H225.811C225.577 118.183 225.346 118.234 225.132 118.331C224.918 118.427 224.727 118.567 224.57 118.741C224.413 118.915 224.293 119.119 224.219 119.342C224.145 119.564 224.118 119.8 224.14 120.033L224.645 125.3C224.685 125.684 224.61 126.072 224.43 126.413C224.249 126.755 223.971 127.035 223.63 127.218C223.29 127.401 222.903 127.479 222.518 127.441C222.134 127.404 221.769 127.253 221.47 127.007L210.528 118.181H106.959C104.99 118.175 103.103 117.39 101.711 115.998C100.319 114.605 99.5337 112.719 99.5273 110.75V62.9273C99.5337 60.9584 100.319 59.0719 101.711 57.6796C103.103 56.2873 104.99 55.5024 106.959 55.496Z" fill="#32CD32" stroke="black" stroke-width="0.52" stroke-miterlimit="10"/>
<path d="M136.074 84.8127C133.945 86.5544 131.279 87.506 128.528 87.506C125.777 87.506 123.111 86.5544 120.983 84.8127C117.541 86.2865 114.609 88.738 112.548 91.8631C110.488 94.9882 109.39 98.6495 109.391 102.393H147.653C147.654 98.6512 146.557 94.9916 144.499 91.8669C142.441 88.7422 139.511 86.2896 136.074 84.8127Z" fill="white"/>
<path d="M124.637 83.6583C126.388 84.5009 128.366 84.7512 130.272 84.3713C132.178 83.9915 133.909 83.0021 135.203 81.5525C136.497 80.1029 137.285 78.2717 137.448 76.3351C137.611 74.3984 137.139 72.4615 136.104 70.8164C135.07 69.1712 133.528 67.9072 131.712 67.2149C129.896 66.5226 127.904 66.4396 126.037 66.9784C124.17 67.5172 122.529 68.6486 121.361 70.202C120.193 71.7553 119.562 73.6463 119.563 75.5897C119.562 77.2762 120.038 78.9285 120.936 80.3561C121.834 81.7837 123.117 82.9284 124.637 83.6583Z" fill="white"/>
<path d="M228.194 68.6152H154.254V69.7335H228.194V68.6152Z" fill="white"/>
<path d="M228.194 74.7481H154.254V75.8664H228.194V74.7481Z" fill="white"/>
<path d="M228.194 80.8926H154.254V82.0109H228.194V80.8926Z" fill="white"/>
<path d="M228.194 87.0256H154.254V88.1439H228.194V87.0256Z" fill="white"/>
<path d="M228.194 93.1581H154.254V94.2763H228.194V93.1581Z" fill="white"/>
<path d="M190.088 99.2903H154.254V100.409H190.088V99.2903Z" fill="white"/>
<path d="M361.68 310.241H431.989C433.584 310.241 435.113 310.874 436.241 312.002C437.368 313.129 438.002 314.659 438.002 316.253V354.841C438.002 356.435 437.368 357.965 436.241 359.092C435.113 360.22 433.584 360.853 431.989 360.853H428.141C427.951 360.854 427.762 360.895 427.588 360.972C427.414 361.05 427.258 361.163 427.13 361.305C427.002 361.446 426.905 361.613 426.845 361.794C426.785 361.975 426.764 362.166 426.782 362.356L427.191 366.601C427.223 366.911 427.162 367.223 427.017 367.499C426.871 367.774 426.647 368 426.373 368.148C426.099 368.296 425.787 368.36 425.476 368.33C425.166 368.301 424.872 368.18 424.63 367.984L415.792 360.853H361.68C360.086 360.853 358.557 360.22 357.429 359.092C356.301 357.965 355.668 356.435 355.668 354.841V316.253C355.668 314.659 356.301 313.129 357.429 312.002C358.557 310.874 360.086 310.241 361.68 310.241Z" fill="#0070C0" stroke="black" stroke-width="0.52" stroke-miterlimit="10"/>
<path d="M411.223 338.235C412.512 338.235 413.556 337.191 413.556 335.902C413.556 334.614 412.512 333.569 411.223 333.569C409.935 333.569 408.891 334.614 408.891 335.902C408.891 337.191 409.935 338.235 411.223 338.235Z" fill="#F2F2F2"/>
<path d="M396.829 338.235C398.117 338.235 399.162 337.191 399.162 335.902C399.162 334.614 398.117 333.569 396.829 333.569C395.541 333.569 394.496 334.614 394.496 335.902C394.496 337.191 395.541 338.235 396.829 338.235Z" fill="#F2F2F2"/>
<path d="M382.434 338.235C383.723 338.235 384.767 337.191 384.767 335.902C384.767 334.614 383.723 333.569 382.434 333.569C381.146 333.569 380.102 334.614 380.102 335.902C380.102 337.191 381.146 338.235 382.434 338.235Z" fill="#F2F2F2"/>
<path d="M430.871 223.819H362.75C360.915 223.822 359.155 224.553 357.856 225.851C356.558 227.149 355.827 228.909 355.824 230.745V275.237C355.831 277.07 356.563 278.827 357.861 280.123C359.159 281.418 360.917 282.148 362.75 282.151H367.188C367.407 282.151 367.624 282.198 367.825 282.287C368.026 282.377 368.205 282.507 368.353 282.67C368.5 282.834 368.611 283.026 368.68 283.234C368.748 283.443 368.773 283.664 368.751 283.882L368.282 288.776C368.246 289.134 368.316 289.495 368.485 289.812C368.654 290.13 368.913 290.39 369.23 290.56C369.547 290.73 369.907 290.802 370.265 290.767C370.623 290.732 370.962 290.592 371.24 290.364L381.425 282.151H430.871C432.703 282.144 434.458 281.414 435.753 280.119C437.048 278.823 437.779 277.068 437.785 275.237V230.745C437.782 228.911 437.053 227.153 435.757 225.855C434.461 224.557 432.705 223.825 430.871 223.819Z" fill="#FFBF00" stroke="black" stroke-width="0.52" stroke-miterlimit="10"/>
<path d="M386.584 246.365H380.102C379.405 246.365 378.84 246.931 378.84 247.628V264.751C378.84 265.449 379.405 266.014 380.102 266.014H386.584C387.281 266.014 387.846 265.449 387.846 264.751V247.628C387.846 246.931 387.281 246.365 386.584 246.365Z" fill="#0061A8"/>
<path d="M414.781 249.179C414.783 248.768 414.703 248.361 414.546 247.981C414.39 247.601 414.159 247.255 413.869 246.965C413.578 246.674 413.233 246.444 412.853 246.287C412.473 246.131 412.066 246.051 411.655 246.053H401.782L403.273 238.91C403.312 238.748 403.332 238.583 403.333 238.417C403.328 237.796 403.082 237.201 402.648 236.757C402.201 236.331 401.607 236.093 400.989 236.093C400.371 236.093 399.776 236.331 399.329 236.757L390.683 245.403C390.101 245.993 389.772 246.787 389.77 247.616V263.248C389.773 264.076 390.103 264.87 390.689 265.455C391.274 266.041 392.068 266.371 392.896 266.374H406.965C407.579 266.375 408.18 266.193 408.691 265.853C409.202 265.513 409.602 265.029 409.839 264.463C409.839 264.463 414.781 252.702 414.781 252.306V249.179Z" fill="white"/>
<path d="M384.252 19.7108H288.607C286.032 19.7171 283.564 20.7428 281.743 22.5635C279.923 24.3843 278.897 26.8519 278.891 29.4268V91.9555C278.9 94.5295 279.927 96.9953 281.747 98.8153C283.567 100.635 286.033 101.662 288.607 101.672H294.835C295.142 101.67 295.446 101.733 295.728 101.856C296.009 101.979 296.261 102.16 296.468 102.387C296.676 102.613 296.833 102.88 296.931 103.171C297.029 103.463 297.065 103.771 297.036 104.077L296.363 110.955C296.314 111.457 296.415 111.962 296.653 112.407C296.891 112.852 297.255 113.217 297.699 113.456C298.144 113.695 298.649 113.797 299.151 113.75C299.654 113.703 300.131 113.509 300.523 113.191L314.833 101.66H384.252C386.828 101.653 389.297 100.628 391.119 98.8075C392.942 96.9871 393.97 94.5195 393.98 91.9435V29.4147C393.97 26.8399 392.941 24.3735 391.118 22.555C389.295 20.7366 386.827 19.7139 384.252 19.7108Z" fill="#FFBF00" stroke="black" stroke-width="0.52" stroke-miterlimit="10"/>
<path d="M302.073 45.7926C305.008 45.7926 307.388 43.413 307.388 40.4776C307.388 37.5423 305.008 35.1627 302.073 35.1627C299.137 35.1627 296.758 37.5423 296.758 40.4776C296.758 43.413 299.137 45.7926 302.073 45.7926Z" fill="white"/>
<path d="M300.919 43.2071L298.394 40.6699C298.347 40.6365 298.308 40.5933 298.279 40.5431C298.25 40.493 298.233 40.4372 298.228 40.3796C298.223 40.322 298.231 40.2641 298.251 40.2098C298.27 40.1555 298.302 40.1063 298.343 40.0654C298.384 40.0245 298.433 39.9931 298.487 39.9733C298.541 39.9534 298.599 39.9457 298.657 39.9506C298.715 39.9555 298.77 39.9729 298.82 40.0016C298.871 40.0303 298.914 40.0696 298.947 40.1168L300.919 42.0888L305.14 37.8802C305.177 37.8427 305.221 37.813 305.269 37.7927C305.318 37.7724 305.37 37.7619 305.423 37.7619C305.475 37.7619 305.527 37.7724 305.576 37.7927C305.624 37.813 305.668 37.8427 305.705 37.8802C305.742 37.916 305.772 37.959 305.792 38.0065C305.812 38.054 305.822 38.1051 305.822 38.1567C305.822 38.2083 305.812 38.2594 305.792 38.3069C305.772 38.3544 305.742 38.3974 305.705 38.4333L300.919 43.2071Z" fill="#FFB940"/>
<path d="M312.609 40.4774H376.112" stroke="white" stroke-width="1.33" stroke-miterlimit="10" stroke-linecap="round"/>
<path d="M302.073 64.082C305.008 64.082 307.388 61.7025 307.388 58.7671C307.388 55.8317 305.008 53.4521 302.073 53.4521C299.137 53.4521 296.758 55.8317 296.758 58.7671C296.758 61.7025 299.137 64.082 302.073 64.082Z" fill="white"/>
<path d="M300.921 61.4966L298.396 58.9714C298.358 58.9345 298.328 58.8905 298.308 58.842C298.288 58.7935 298.277 58.7414 298.277 58.6888C298.277 58.6363 298.288 58.5842 298.308 58.5357C298.328 58.4872 298.358 58.4432 298.396 58.4063C298.431 58.3692 298.474 58.3397 298.522 58.3195C298.569 58.2994 298.621 58.289 298.672 58.289C298.724 58.289 298.775 58.2994 298.822 58.3195C298.87 58.3397 298.913 58.3692 298.949 58.4063L300.921 60.3783L305.141 56.1576C305.216 56.0827 305.318 56.0406 305.424 56.0406C305.53 56.0406 305.632 56.0827 305.707 56.1576C305.782 56.2326 305.824 56.3342 305.824 56.4402C305.824 56.5462 305.782 56.6479 305.707 56.7228L300.921 61.4966Z" fill="#FFB940"/>
<path d="M312.609 58.7672H376.112" stroke="white" stroke-width="1.33" stroke-miterlimit="10" stroke-linecap="round"/>
<path d="M302.073 82.3836C305.008 82.3836 307.388 80.004 307.388 77.0686C307.388 74.1332 305.008 71.7537 302.073 71.7537C299.137 71.7537 296.758 74.1332 296.758 77.0686C296.758 80.004 299.137 82.3836 302.073 82.3836Z" fill="white"/>
<path d="M300.919 79.7983L298.394 77.2611C298.347 77.2277 298.308 77.1844 298.279 77.1343C298.25 77.0842 298.233 77.0283 298.228 76.9708C298.223 76.9132 298.231 76.8553 298.251 76.801C298.27 76.7467 298.302 76.6974 298.343 76.6566C298.384 76.6157 298.433 76.5843 298.487 76.5645C298.541 76.5446 298.599 76.5369 298.657 76.5418C298.715 76.5467 298.77 76.5641 298.82 76.5928C298.871 76.6215 298.914 76.6608 298.947 76.708L300.919 78.668L305.14 74.4593C305.177 74.4219 305.221 74.3921 305.269 74.3718C305.318 74.3516 305.37 74.3411 305.423 74.3411C305.475 74.3411 305.527 74.3516 305.576 74.3718C305.624 74.3921 305.668 74.4219 305.705 74.4593C305.742 74.4952 305.772 74.5382 305.792 74.5857C305.812 74.6332 305.822 74.6843 305.822 74.7359C305.822 74.7875 305.812 74.8386 305.792 74.8861C305.772 74.9336 305.742 74.9766 305.705 75.0125L300.919 79.7983Z" fill="#FFB940"/>
<path d="M312.609 77.0689H376.112" stroke="white" stroke-width="1.33" stroke-miterlimit="10" stroke-linecap="round"/>
<path d="M25.9716 137.926H99.5992C101.581 137.933 103.48 138.723 104.881 140.124C106.282 141.525 107.072 143.424 107.079 145.406V193.505C107.072 195.486 106.282 197.385 104.881 198.786C103.48 200.188 101.581 200.978 99.5992 200.984H94.7893C94.5518 200.983 94.3166 201.032 94.0991 201.127C93.8816 201.223 93.6866 201.363 93.5268 201.539C93.3669 201.714 93.2458 201.922 93.1712 202.147C93.0966 202.373 93.0702 202.612 93.0938 202.848L93.6109 208.139C93.6368 208.513 93.5553 208.887 93.3761 209.217C93.1969 209.547 92.9273 209.818 92.599 210C92.2707 210.182 91.8974 210.266 91.5228 210.243C91.1483 210.22 90.7881 210.091 90.4845 209.87L79.4698 200.984H25.9716C23.9899 200.978 22.0911 200.188 20.6899 198.786C19.2886 197.385 18.4985 195.486 18.4922 193.505V145.406C18.4985 143.424 19.2886 141.525 20.6899 140.124C22.0911 138.723 23.9899 137.933 25.9716 137.926Z" fill="#0070C0" stroke="black" stroke-width="0.52" stroke-miterlimit="10"/>
<path d="M59.5941 176.682C59.51 174.853 59.7377 173.023 60.2675 171.271C61.1302 169.737 62.2817 168.386 63.6584 167.29C65.0056 165.753 66.2739 164.147 67.4583 162.481C68.2362 161.262 68.63 159.837 68.5886 158.392C68.6537 157.582 68.5518 156.767 68.2891 155.997C68.0264 155.228 67.6086 154.52 67.0615 153.919C66.4797 153.383 65.7947 152.971 65.0483 152.708C64.302 152.446 63.5099 152.338 62.7205 152.392C61.2206 152.352 59.751 152.818 58.5479 153.715C57.9609 154.187 57.4969 154.795 57.1954 155.486C56.8939 156.177 56.7639 156.931 56.8164 157.683H51.766L51.6938 157.526C51.6171 156.209 51.8539 154.892 52.3848 153.684C52.9158 152.476 53.7257 151.411 54.7481 150.576C57.0062 148.777 59.836 147.851 62.7205 147.967C65.7112 147.782 68.659 148.75 70.9575 150.672C71.9572 151.649 72.7364 152.828 73.2425 154.13C73.7485 155.433 73.9699 156.829 73.8915 158.224C73.9046 160.482 73.243 162.693 71.9916 164.573C70.5392 166.713 68.8579 168.689 66.9773 170.465C66.1833 171.172 65.5831 172.07 65.2337 173.074C64.9868 174.26 64.8818 175.471 64.921 176.682H59.5941ZM62.3117 187.709C61.9485 187.709 61.5888 187.637 61.2533 187.498C60.9177 187.359 60.6129 187.155 60.356 186.899C60.0992 186.642 59.8955 186.337 59.7565 186.001C59.6175 185.666 59.546 185.306 59.546 184.943V184.883C59.546 184.52 59.6175 184.16 59.7565 183.824C59.8955 183.489 60.0992 183.184 60.356 182.927C60.6129 182.67 60.9177 182.467 61.2533 182.328C61.5888 182.189 61.9485 182.117 62.3117 182.117C62.6759 182.115 63.0368 182.186 63.3737 182.324C63.7107 182.462 64.017 182.666 64.2751 182.923C64.5332 183.18 64.738 183.485 64.8777 183.822C65.0175 184.158 65.0894 184.519 65.0894 184.883V184.943C65.0894 185.307 65.0175 185.668 64.8777 186.004C64.738 186.34 64.5332 186.646 64.2751 186.903C64.017 187.16 63.7107 187.363 63.3737 187.501C63.0368 187.64 62.6759 187.71 62.3117 187.709Z" fill="#F2F2F2"/>
<path d="M236.324 495.639C329.824 495.639 405.621 489.135 405.621 481.113C405.621 473.09 329.824 466.587 236.324 466.587C142.824 466.587 67.0273 473.09 67.0273 481.113C67.0273 489.135 142.824 495.639 236.324 495.639Z" fill="#DBDBDB"/>
<path d="M127.428 215.738C100.721 217.783 76.2384 235.495 61.1353 257.116C35.1979 294.248 38.2882 346.628 52.261 387.813C72.4506 447.323 125.961 478.828 189.596 479.971C225.009 480.62 258.546 481.257 287.946 463.136C310.565 449.163 332.282 414.099 330.61 384.626C329.191 359.542 316.553 330.13 289.45 324.671C285.842 323.937 282.066 323.973 278.387 323.468C271.485 322.566 265.749 325.128 259.472 327.833C252.257 330.936 245.234 334.387 237.996 337.381C224.828 342.84 210.339 346.76 196.378 343.598C188.454 341.806 180.746 337.393 176.802 330.298C171.871 321.46 173.567 310.602 174.312 300.513C175.549 283.342 173.604 266.089 168.577 249.624C166.556 242.986 163.935 236.565 161.855 229.94C160.436 225.454 158.331 222.304 154.039 220.127C145.97 216.015 136.338 215.053 127.428 215.738Z" fill="#0070C0"/>
<path d="M113.839 270.09C106.323 291.987 105.109 318.586 113.033 340.531C120.44 361.07 136.481 378.818 157.056 386.105C177.63 393.392 232.403 386.598 221.412 352.761C219.993 348.383 217.071 344.668 214.257 341.012C191.972 312.103 172.731 280.97 156.839 248.109C154.951 244.213 153.003 240.149 149.624 237.419C148.281 236.279 146.678 235.486 144.957 235.111C143.235 234.735 141.448 234.789 139.752 235.267C136.782 236.216 134.184 238.73 131.936 240.786C126.524 245.889 122.047 251.9 118.709 258.546C116.799 262.267 115.172 266.126 113.839 270.09Z" stroke="black" stroke-width="0.52" stroke-miterlimit="10"/>
<path d="M208.016 382.245C208.016 382.245 242.599 401.425 236.406 480.752" stroke="black" stroke-width="0.52" stroke-miterlimit="10"/>
<path d="M109.967 328.831C109.967 328.831 51.6103 329.264 40.3672 370.341" stroke="black" stroke-width="0.52" stroke-miterlimit="10"/>
<path d="M148.868 382.907C148.868 382.907 118.373 404.732 103.09 469.136" stroke="black" stroke-width="0.52" stroke-miterlimit="10"/>
<path d="M120.861 254.254C120.861 254.254 100.106 233.391 63.25 249.155" stroke="black" stroke-width="0.52" stroke-miterlimit="10"/>
<path d="M268.129 438.233V472.708C268.129 472.708 313.102 482.797 332.113 472.587C332.113 472.587 329.455 463.268 297.325 450.51L299.153 431.92L268.129 438.233Z" fill="#D68060"/>
<path d="M291.493 333.81C301.428 333.81 309.482 325.756 309.482 315.821C309.482 305.886 301.428 297.832 291.493 297.832C281.558 297.832 273.504 305.886 273.504 315.821C273.504 325.756 281.558 333.81 291.493 333.81Z" fill="#78374B"/>
<path d="M309.48 315.821L311.043 438.257L267.646 440.602L265.301 315.821" fill="#78374B"/>
<path d="M287.584 298.229L258.652 306.441L262.176 323.649L289.544 328.735L287.584 298.229Z" fill="#78374B"/>
<path d="M123.638 153.39C122.334 152.58 121.168 151.565 120.187 150.384C119.622 149.698 119.271 148.862 119.177 147.979C119.133 147.544 119.204 147.104 119.383 146.705C119.563 146.306 119.844 145.962 120.199 145.706C121.498 144.876 123.181 145.766 124.456 146.644L131.983 151.827C133.571 152.921 135.146 154.003 136.721 155.134C137.779 155.891 139.27 157.046 138.873 158.561C138.817 158.856 138.698 159.136 138.524 159.382C138.351 159.627 138.126 159.833 137.867 159.984C137.607 160.136 137.318 160.23 137.018 160.26C136.719 160.291 136.417 160.256 136.132 160.16C134.685 159.714 133.296 159.096 131.995 158.32C130.637 157.623 129.302 156.889 127.979 156.12C126.656 155.35 125.057 154.352 123.638 153.39Z" fill="#013741"/>
<path d="M121.136 160.076C119.669 159.63 118.282 158.956 117.024 158.08C116.306 157.571 115.75 156.865 115.424 156.048C115.278 155.647 115.237 155.214 115.306 154.793C115.376 154.372 115.553 153.975 115.821 153.643C116.855 152.5 118.707 152.921 120.174 153.426L128.796 156.456C130.612 157.094 132.403 157.731 134.231 158.405C135.434 158.861 137.189 159.607 137.213 161.146C137.236 161.446 137.195 161.747 137.091 162.029C136.988 162.311 136.826 162.568 136.615 162.782C136.404 162.996 136.15 163.163 135.869 163.271C135.589 163.378 135.289 163.425 134.989 163.407C133.476 163.358 131.974 163.128 130.515 162.721C129.024 162.409 127.533 162.048 126.066 161.639C124.407 161.134 122.759 160.629 121.136 160.076Z" fill="#013741"/>
<path d="M121.667 167.891C120.135 168.029 118.591 167.911 117.097 167.543C116.247 167.331 115.475 166.88 114.873 166.244C114.583 165.924 114.381 165.534 114.288 165.112C114.196 164.69 114.215 164.251 114.344 163.839C114.885 162.396 116.749 162.108 118.312 162.047L127.439 161.711C129.363 161.639 131.287 161.566 133.211 161.53C134.533 161.53 136.409 161.53 136.998 162.985C137.131 163.253 137.205 163.547 137.215 163.845C137.225 164.144 137.172 164.442 137.058 164.718C136.944 164.995 136.773 165.244 136.555 165.449C136.337 165.654 136.079 165.81 135.796 165.907C134.37 166.414 132.888 166.749 131.383 166.905C129.88 167.158 128.365 167.374 126.838 167.531C125.094 167.699 123.386 167.831 121.667 167.891Z" fill="#013741"/>
<path d="M133.308 168.433C133.057 166.981 133.241 165.488 133.837 164.14C134.617 161.954 135.846 159.955 137.445 158.272C138.167 157.482 139.065 156.872 140.066 156.492C140.569 156.312 141.107 156.249 141.638 156.307C142.17 156.366 142.681 156.544 143.133 156.829C143.285 156.925 143.406 157.063 143.481 157.226C143.674 157.647 143.325 158.092 143.024 158.428C141.353 160.299 140.007 162.437 139.044 164.753C138.554 165.924 138.153 167.13 137.842 168.361C137.613 169.287 137.289 170.994 136.038 170.982C135.378 170.885 134.763 170.589 134.275 170.134C133.788 169.678 133.45 169.085 133.308 168.433Z" fill="#FFBF00"/>
<path d="M139.584 189.789C137.091 184.491 136.029 178.633 136.506 172.798C136.77 168.337 137.708 163.767 140.426 160.172C142.251 157.818 144.597 155.921 147.28 154.628C152.933 151.811 159.438 151.214 165.509 152.957C174.973 155.735 184.112 165.511 181.61 175.984C175.031 171.685 167.19 169.74 159.365 170.465C157.591 170.505 155.87 171.075 154.422 172.1C153.257 173.155 152.467 174.561 152.174 176.105C151.63 178.938 151.683 181.854 152.33 184.666C152.859 187.564 153.641 190.426 153.929 193.372C154.104 194.79 154.104 196.223 153.929 197.641C153.773 198.711 153.521 200.046 152.354 200.407C151.226 200.625 150.058 200.397 149.095 199.769C147.836 199.1 146.654 198.294 145.572 197.364C143.372 195.5 141.531 193.251 140.137 190.727C139.909 190.426 139.788 190.114 139.584 189.789Z" fill="#013741"/>
<path d="M151.176 193.661C151.176 193.661 148.927 209.137 147.232 223.218C146.823 226.573 148.53 233.451 151.813 234.257L160.747 237.503C174.384 235.904 174.564 230.012 174.287 226.176L172.604 209.918L151.176 193.661Z" fill="#D68060"/>
<path d="M172.963 213.358C168.935 215.318 164.257 213.514 160.686 210.808C157.379 208.295 152.124 200.948 150.609 197.136C150.609 197.136 157.427 223.591 173.745 220.945L172.963 213.358Z" fill="#013741"/>
<path d="M183.545 168.962C186.487 176.64 187.718 184.868 187.152 193.072C186.647 200.347 184.363 210.856 177.749 215.161C173.661 217.831 168.057 217.326 163.836 214.885C160.578 212.84 157.84 210.066 155.84 206.78C155.203 205.794 150.056 197.761 150.898 196.908C150.268 197.519 149.45 197.9 148.577 197.987C147.703 198.075 146.826 197.864 146.088 197.388C145.374 196.877 144.786 196.209 144.369 195.436C143.953 194.663 143.718 193.805 143.683 192.927C143.593 192.235 143.661 191.532 143.882 190.869C144.103 190.207 144.47 189.603 144.957 189.103C146.436 187.781 148.697 188.045 150.657 188.406C148.252 182.754 146.725 170.453 150.381 165.499C152.242 163.031 154.705 161.081 157.534 159.834C160.363 158.588 163.464 158.088 166.542 158.38C169.174 158.8 171.767 159.431 174.298 160.268C176.703 160.917 179.108 161.326 180.611 163.443C181.807 165.158 182.792 167.011 183.545 168.962Z" fill="#D68060"/>
<path d="M149.514 195.898C149.514 195.898 149.37 189.344 145.426 190.354" stroke="black" stroke-width="0.52" stroke-miterlimit="10"/>
<path d="M165.844 203.497C165.844 203.497 168.694 207.73 173.455 206.672" stroke="black" stroke-width="0.52" stroke-miterlimit="10"/>
<path d="M177.066 189.32C176.793 192.754 177.881 196.157 180.096 198.795C180.503 199.155 180.754 199.66 180.794 200.202C180.761 200.435 180.674 200.657 180.541 200.852C180.158 201.441 179.616 201.911 178.978 202.206C178.34 202.502 177.631 202.612 176.934 202.523" stroke="black" stroke-width="0.52" stroke-miterlimit="10"/>
<path d="M181.167 188.791C181.127 189.014 181.138 189.243 181.199 189.462C181.261 189.68 181.371 189.881 181.522 190.05C181.673 190.219 181.861 190.352 182.071 190.437C182.28 190.523 182.507 190.56 182.733 190.545C182.96 190.53 183.179 190.463 183.376 190.35C183.573 190.238 183.741 190.081 183.868 189.894C183.996 189.706 184.078 189.492 184.11 189.267C184.142 189.043 184.123 188.814 184.053 188.598C183.981 187.576 183.283 186.795 182.49 186.855C182.059 186.939 181.679 187.19 181.432 187.552C181.185 187.914 181.089 188.359 181.167 188.791Z" fill="#013741"/>
<path d="M169.849 189.296C169.933 189.563 170.091 189.801 170.305 189.983C170.518 190.164 170.779 190.282 171.056 190.323C171.333 190.363 171.616 190.324 171.873 190.211C172.129 190.098 172.349 189.915 172.506 189.683C172.663 189.451 172.751 189.179 172.761 188.899C172.771 188.619 172.702 188.342 172.561 188.1C172.421 187.857 172.215 187.659 171.967 187.528C171.719 187.398 171.439 187.339 171.16 187.36C170.73 187.445 170.351 187.695 170.106 188.058C169.86 188.421 169.768 188.866 169.849 189.296Z" fill="#013741"/>
<path d="M180.504 183.981C180.374 183.988 180.246 183.963 180.128 183.908C180.011 183.854 179.909 183.771 179.83 183.668C179.801 183.6 179.785 183.526 179.785 183.452C179.785 183.377 179.801 183.304 179.83 183.235C179.948 183.014 180.12 182.826 180.33 182.689C180.541 182.552 180.783 182.471 181.033 182.454C182.84 182.133 184.702 182.412 186.336 183.248C186.781 183.476 187.478 183.897 187.43 184.45C187.382 185.003 186.793 184.979 186.432 184.871C185.201 184.504 183.936 184.262 182.656 184.149C181.959 184.089 181.225 183.981 180.504 183.981Z" fill="#013741"/>
<path d="M173.457 184.233C173.587 184.236 173.715 184.207 173.832 184.151C173.949 184.095 174.051 184.012 174.13 183.908C174.16 183.84 174.175 183.767 174.175 183.692C174.175 183.618 174.16 183.544 174.13 183.476C173.95 182.983 173.373 182.79 172.928 182.694C171.114 182.392 169.252 182.692 167.625 183.548C167.192 183.776 166.483 184.221 166.543 184.81C166.603 185.4 167.18 185.339 167.553 185.219C168.778 184.839 170.039 184.59 171.316 184.474C172.038 184.389 172.771 184.329 173.457 184.233Z" fill="#013741"/>
<path d="M155.132 191.869C155.366 191.628 155.51 191.314 155.541 190.979C155.974 188.574 155.324 186.097 154.927 183.68C154.531 181.263 154.446 178.57 155.841 176.55C157.465 174.145 160.651 173.387 163.549 173.591C166.447 173.796 169.201 174.794 172.075 175.046C175.295 175.295 178.528 174.784 181.514 173.555C189.775 169.768 176.32 157.538 171.221 155.422C168.696 154.376 169.814 156.42 167.097 156.625C165.729 156.71 164.372 156.923 163.044 157.262C162.434 157.483 161.807 157.652 161.168 157.767C160.604 157.826 160.057 157.993 159.557 158.26C158.968 158.548 158.355 158.873 157.825 159.21C155.212 160.737 152.741 162.495 150.442 164.465C147.027 167.399 143.793 171.367 144.189 175.852C144.454 178.786 146.149 181.504 147.328 184.149C148.25 186.029 149.519 187.718 151.068 189.127C151.765 189.837 152.462 190.546 153.184 191.244C153.629 191.653 154.471 192.398 155.132 191.869Z" fill="#013741"/>
<path d="M175.73 189.993C175.733 188.946 175.424 187.922 174.844 187.051C174.264 186.179 173.439 185.499 172.472 185.097C171.506 184.694 170.442 184.588 169.415 184.791C168.387 184.993 167.444 185.496 166.702 186.236C165.961 186.975 165.456 187.918 165.251 188.945C165.046 189.971 165.15 191.036 165.55 192.003C165.95 192.971 166.628 193.798 167.499 194.38C168.369 194.962 169.392 195.272 170.439 195.272C171.134 195.274 171.821 195.138 172.463 194.874C173.105 194.609 173.688 194.221 174.18 193.73C174.671 193.24 175.061 192.658 175.327 192.016C175.593 191.375 175.73 190.688 175.73 189.993V189.993Z" stroke="white" stroke-width="0.7" stroke-miterlimit="10"/>
<path d="M189.823 189.993C189.823 188.949 189.514 187.928 188.934 187.06C188.354 186.192 187.529 185.515 186.565 185.116C185.6 184.716 184.539 184.612 183.515 184.815C182.491 185.019 181.55 185.522 180.812 186.26C180.074 186.998 179.571 187.939 179.367 188.963C179.163 189.987 179.268 191.048 179.667 192.013C180.067 192.978 180.744 193.802 181.612 194.382C182.48 194.962 183.5 195.272 184.545 195.272C185.238 195.273 185.925 195.138 186.567 194.873C187.208 194.608 187.79 194.22 188.281 193.729C188.771 193.239 189.16 192.656 189.425 192.015C189.69 191.374 189.825 190.687 189.823 189.993Z" stroke="white" stroke-width="0.7" stroke-miterlimit="10"/>
<path d="M175.598 189.007C175.636 188.528 175.853 188.08 176.206 187.754C176.56 187.428 177.023 187.247 177.504 187.247C177.984 187.247 178.448 187.428 178.801 187.754C179.154 188.08 179.371 188.528 179.41 189.007" stroke="white" stroke-width="0.74" stroke-miterlimit="10"/>
<path d="M165.787 187.456L148.82 187.937" stroke="white" stroke-width="0.74" stroke-miterlimit="10"/>
<path d="M210.877 256.647C215.301 268.078 218.968 279.787 221.856 291.699L255.778 281.381L260.588 306.116C244.327 315.081 227.497 322.97 210.204 329.733C207.967 330.611 205.394 331.465 203.23 330.443C200.668 329.24 199.851 326.029 199.334 323.228L186.996 256.478C185.939 250.104 184.53 243.794 182.776 237.575C181.958 234.87 180.659 232.224 180.13 229.447C179.781 227.691 179.613 225.406 180.719 223.879C182.066 222.015 184.555 222.797 186.311 223.542C188.77 224.704 191.047 226.219 193.069 228.04C197.043 231.538 200.425 235.655 203.085 240.233C205.828 244.911 208.184 249.806 210.132 254.867C210.408 255.432 210.649 256.045 210.877 256.647Z" fill="#FFBF00"/>
<path d="M196.303 247.267C195.943 246.149 195.57 245.031 195.185 243.924C192.912 237.371 190.375 229.759 185.084 225.009C182.066 222.328 177.869 220.728 173.925 221.715C174.839 225.803 172.29 230.216 168.502 232.032C166.574 232.86 164.474 233.211 162.381 233.056C160.288 232.901 158.263 232.245 156.477 231.142C152.912 228.875 150.129 225.567 148.505 221.666C148.318 221.038 147.913 220.496 147.363 220.139C146.745 219.936 146.075 219.961 145.475 220.211C141.114 221.278 136.89 222.839 132.885 224.865C122.736 230.517 120.427 241.7 122.363 252.522C123.445 258.534 125.634 264.354 127.558 270.198C134.64 291.675 138.224 314.125 142.156 336.395C142.208 337.072 142.464 337.717 142.889 338.247C143.337 338.621 143.877 338.87 144.453 338.968C155.5 341.711 166.985 342.205 178.227 340.42C189.469 338.635 200.237 334.608 209.891 328.579C210.557 328.244 211.106 327.716 211.467 327.063C211.672 326.365 211.672 325.622 211.467 324.923C210.216 317.436 208.957 309.952 207.691 302.473C205.623 290.22 203.554 277.966 200.981 265.809C199.706 259.568 198.179 253.352 196.303 247.267Z" fill="#FFBF00"/>
<path d="M177.162 220.548C177.647 223.411 177.232 226.353 175.974 228.97C174.716 231.586 172.678 233.749 170.14 235.158C165.234 237.72 159.197 236.914 154.508 233.896C149.818 230.877 146.403 225.887 144.178 220.476C143.947 219.607 143.425 218.843 142.699 218.312" stroke="black" stroke-width="0.52" stroke-miterlimit="10"/>
<path d="M122.363 252.522C123.446 258.534 125.634 264.354 127.558 270.199C134.641 291.675 138.224 314.125 142.156 336.395C142.208 337.072 142.464 337.717 142.89 338.247C143.337 338.621 143.877 338.87 144.453 338.968C155.5 341.711 166.986 342.205 178.227 340.42C189.469 338.635 200.237 334.608 209.892 328.579C210.558 328.244 211.107 327.716 211.467 327.064C211.672 326.365 211.672 325.622 211.467 324.923C210.216 317.436 208.958 309.952 207.691 302.473C205.623 290.22 203.555 277.966 200.981 265.809C199.658 259.581 198.131 253.364 196.171 247.279C195.811 246.161 195.438 245.043 195.053 243.936C192.78 237.383 190.243 229.771 184.952 225.021C184.062 224.231 183.081 223.549 182.03 222.989" stroke="black" stroke-width="0.52" stroke-miterlimit="10"/>
<path d="M320.52 441.311L341.082 469.413C341.082 469.413 385.297 456.39 396.949 438.233C396.949 438.233 390.095 431.378 355.824 435.828L344.509 420.749L320.52 441.311Z" fill="#D68060"/>
<path d="M134.062 349.37C134.062 349.37 139.005 377.135 159.543 380.177C175.8 382.582 218.308 372.217 235.299 367.779C237.489 367.212 239.792 367.24 241.967 367.862C244.143 368.483 246.113 369.676 247.673 371.315L318.955 445.977L353.947 422.396L269.077 306.393C269.077 306.393 223.058 302.593 134.062 349.37Z" fill="#9E4963"/>
<path d="M152.92 320.402C152.92 320.402 149.794 350.139 170.332 353.181C186.59 355.586 223.77 343.874 240.761 339.449C242.951 338.883 245.252 338.91 247.427 339.53C249.602 340.149 251.572 341.337 253.135 342.972L318.61 418.464" stroke="black" stroke-width="0.52" stroke-miterlimit="10"/>
<path d="M300.512 431.234L344.282 401.665" stroke="black" stroke-width="0.52" stroke-miterlimit="10"/>
<path d="M192.698 315.051L206.61 308.317C208.446 307.277 210.462 306.592 212.551 306.297C214.096 306.239 215.641 306.417 217.132 306.826C223.145 308.185 230.901 310.542 236.853 307.043C242.805 303.543 239.077 298.156 234.869 295.018C229.602 291.05 222.844 288.597 216.17 289.438C214.034 289.762 211.93 290.269 209.881 290.953C202.158 293.355 194.592 296.234 187.227 299.575C188.326 304.31 189.752 308.963 191.495 313.5C191.88 314.474 192.012 314.173 192.698 315.051Z" fill="#D68060"/>
<path d="M146.352 302.749C147.554 307.944 150.705 311.648 157.246 309.135C169.271 304.505 181.296 299.936 193.597 296.064C194.342 295.835 195.617 295.318 195.87 296.064C198.731 304.144 200.908 312.574 203.084 320.847C203.186 321.13 203.186 321.441 203.084 321.725C202.967 321.921 202.796 322.079 202.591 322.181C189.052 330.863 175.355 339.305 160.709 346.015L157.823 347.325C144.981 353.013 127.196 362.068 120.126 343.622C113.825 327.184 113.163 307.824 113.404 290.412C113.552 280.14 114.411 269.89 115.977 259.737C117.432 250.321 118.502 239.162 123.757 231.058C128.062 224.408 136.984 222.857 141.073 230.685C145.762 239.728 144.259 252.402 144.572 262.262C144.572 269.14 145.017 276.042 145.245 282.909C145.45 289.342 144.861 296.436 146.352 302.749Z" fill="#FFBF00"/>
<path d="M132.742 225.406C135.953 225.25 139.103 226.837 141.075 230.661C145.765 239.704 144.262 252.378 144.575 262.238C144.575 269.116 145.019 276.019 145.248 282.885C145.452 289.342 144.863 296.437 146.354 302.75C147.557 307.944 150.707 311.648 157.249 309.135C169.273 304.505 181.298 299.936 193.6 296.064C194.345 295.835 195.62 295.318 195.872 296.064" stroke="black" stroke-width="0.52" stroke-miterlimit="10"/>
<path d="M183.004 300.212L191.794 328.988" stroke="black" stroke-width="0.52" stroke-miterlimit="10"/>
<path d="M289.026 294.854L203.629 312.212C202.803 312.38 202.269 313.187 202.437 314.013L203.242 317.972C203.41 318.799 204.216 319.333 205.043 319.165L290.44 301.806C291.266 301.638 291.8 300.832 291.632 300.005L290.827 296.046C290.659 295.219 289.853 294.686 289.026 294.854Z" fill="#FF0066"/>
<path d="M214.128 313.068L210.345 313.837C210.221 313.862 210.141 313.983 210.167 314.106L210.456 315.532C210.482 315.656 210.602 315.736 210.726 315.71L214.508 314.942C214.632 314.916 214.712 314.796 214.687 314.672L214.397 313.246C214.372 313.123 214.251 313.043 214.128 313.068Z" fill="#FFBF00"/>
<path d="M220.862 311.644L217.079 312.413C216.956 312.438 216.876 312.559 216.901 312.682L217.191 314.108C217.216 314.232 217.337 314.312 217.46 314.287L221.243 313.518C221.366 313.493 221.446 313.372 221.421 313.248L221.131 311.823C221.106 311.699 220.986 311.619 220.862 311.644Z" fill="#FFBF00"/>
<path d="M335.033 221.041L251.209 238.08L251.148 309.928L334.973 292.889L335.033 221.041Z" fill="#FF0066"/>
<path d="M338.869 220.259L255.045 237.298L254.984 309.146L338.809 292.107L338.869 220.259Z" fill="white"/>
<path d="M304.331 272.778C308.799 269.688 309.916 263.561 306.826 259.093C303.735 254.625 297.608 253.508 293.141 256.598C288.673 259.689 287.556 265.816 290.646 270.283C293.736 274.751 299.863 275.868 304.331 272.778Z" fill="#FF0066"/>
</svg>
