<svg width="100" height="100" viewBox="0 0 100 100" fill="none" xmlns="http://www.w3.org/2000/svg">
<rect width="100" height="100" fill="#F6F6F6"/>
<g clip-path="url(#clip0_1001_835)">
<path fill-rule="evenodd" clip-rule="evenodd" d="M27.2462 59.6973L27.2623 78.2817L24.4742 78.2989C22.9408 78.3083 24.181 78.3157 27.2302 78.3153L32.7742 78.3145L32.7901 59.7137L32.8058 41.113H30.0181H27.2302L27.2462 59.6973ZM56.8717 63.3835V78.283H54.1206C52.6077 78.283 51.3872 78.3005 51.4086 78.322C51.43 78.3435 53.9579 78.3398 57.0262 78.314L62.6047 78.2669V63.3754V48.484H59.7382H56.8717V63.3835Z" fill="#5CC46C"/>
<path fill-rule="evenodd" clip-rule="evenodd" d="M21.6562 59.698V78.283H24.4598H27.2633V59.7977C27.2633 49.6307 27.2461 41.2675 27.225 41.2127C27.191 41.1238 26.8849 41.113 24.4215 41.113H21.6562V59.698ZM51.2663 63.3835V78.283H54.0698H56.8733V63.3835V48.484H54.0698H51.2663V63.3835ZM39.2805 78.3302C40.8138 78.3397 43.3227 78.3397 44.856 78.3302C46.3893 78.3208 45.1348 78.3131 42.0683 78.3131C39.0017 78.3131 37.7472 78.3208 39.2805 78.3302ZM69.0212 78.3302C70.5572 78.3397 73.052 78.3397 74.5652 78.3302C76.0786 78.3208 74.822 78.3131 71.7728 78.3131C68.7236 78.3131 67.4854 78.3208 69.0212 78.3302Z" fill="#94DC3C"/>
<path fill-rule="evenodd" clip-rule="evenodd" d="M18 80.11V82H49.5H81V80.11V78.22H79.1768C78.0291 78.22 77.3391 78.2433 77.3145 78.283C77.2587 78.3732 66.3068 78.3696 66.2164 78.2792C66.1693 78.2321 63.9879 78.2356 58.8364 78.291C53.1907 78.3516 51.4859 78.3524 51.3591 78.2948C51.1493 78.199 47.7631 78.1882 47.7045 78.283C47.679 78.3242 45.731 78.346 42.066 78.346C38.401 78.346 36.453 78.3242 36.4275 78.283C36.4031 78.2434 35.7246 78.22 34.6005 78.22C33.4764 78.22 32.7979 78.2434 32.7735 78.283C32.748 78.3242 30.8315 78.346 27.2295 78.346C23.6275 78.346 21.711 78.3242 21.6855 78.283C21.6609 78.2433 20.9709 78.22 19.8232 78.22H18V80.11Z" fill="#34445C"/>
<path fill-rule="evenodd" clip-rule="evenodd" d="M36.3984 67.069V78.283H39.2649H42.1314V67.069V55.855H39.2649H36.3984V67.069ZM66.1974 68.9268V78.283H69.0011H71.8049L71.7888 68.9432L71.7729 59.6035L68.9852 59.5871L66.1974 59.5707V68.9268Z" fill="#FCDC44"/>
<path fill-rule="evenodd" clip-rule="evenodd" d="M19.899 19.5002C19.6251 19.7754 19.4079 20.0092 19.4166 20.02C19.4251 20.0307 19.337 20.1324 19.2208 20.246C19.1046 20.3597 19.0094 20.4389 19.0094 20.4222C19.0094 20.4055 18.7826 20.6177 18.5054 20.8938C17.7685 21.6277 17.7707 21.6395 18.8275 22.654C19.5528 23.3501 21.6304 25.3709 21.9216 25.6633C22.0078 25.7498 24.3602 28.1052 24.5756 28.3205C24.7372 28.4821 27.1106 30.8556 27.1586 30.9035C27.1881 30.933 27.765 31.5101 28.4407 32.1857C29.1164 32.8614 29.6945 33.4383 29.7254 33.4678C29.7564 33.4974 30.3612 34.1027 31.0695 34.813C31.7778 35.5233 32.3946 36.1412 32.4401 36.1859C32.521 36.2656 34.935 38.6752 35.0259 38.767C35.5216 39.268 37.4133 41.1574 37.7047 41.4425C37.9212 41.6543 38.0984 41.8512 38.0984 41.8799C38.0984 41.9085 38.1457 41.932 38.2035 41.932C38.2611 41.932 38.2904 41.9499 38.2685 41.972C38.2465 41.9939 38.6002 42.3695 39.0546 42.8067C39.5088 43.2438 40.3633 44.0905 40.9534 44.6882C41.5434 45.286 42.0641 45.775 42.1106 45.775C42.1569 45.775 45.502 42.4703 49.5441 38.4314L56.8935 31.0878L57.5243 31.7061C57.8714 32.0462 58.3981 32.5726 58.6952 32.8759C58.9921 33.1791 59.2575 33.4271 59.285 33.4271C59.3126 33.427 59.8153 33.916 60.4022 34.5137C60.989 35.1115 61.5477 35.6788 61.6436 35.7745C69.393 43.5087 72.6355 46.72 72.695 46.72C72.736 46.72 72.7525 46.7368 72.7319 46.7576C72.7111 46.7783 73.0607 47.1602 73.5088 47.6064C73.9569 48.0526 74.3234 48.4325 74.3234 48.4508C74.3234 48.469 72.4949 48.484 70.2599 48.484H66.1964V50.374V52.264H73.5989H81.0014V44.83V37.396H79.1114H77.2214V41.4595C77.2214 43.6944 77.2095 45.523 77.1948 45.523C77.18 45.523 76.6595 45.0198 76.0378 44.4047C75.4162 43.7897 74.433 42.8329 73.8531 42.2785C73.2732 41.7241 72.5676 41.0364 72.2854 40.7506C71.5143 39.9697 69.7847 38.2413 68.4096 36.8773C67.9811 36.4522 67.4065 35.8777 67.1328 35.6005C66.3602 34.818 64.3053 32.7609 63.1833 31.6469C62.791 31.2573 62.1531 30.6169 61.7658 30.2238C61.3787 29.8306 60.7984 29.2495 60.4763 28.9323C60.1543 28.615 59.2449 27.7105 58.4555 26.9222C57.4711 25.9391 56.9775 25.489 56.8842 25.489C56.7877 25.489 54.6383 27.6041 49.457 32.7976C45.4469 36.8173 42.1443 40.0989 42.1177 40.0899C42.0627 40.0711 38.6355 36.7696 37.8236 35.9531C37.759 35.8882 37.1818 35.3107 36.5408 34.6697C35.8997 34.0286 35.3146 33.4434 35.2406 33.3689C35.1666 33.2944 34.5531 32.6817 33.8774 32.0071C33.2018 31.3327 32.5922 30.7232 32.5229 30.6526C32.4536 30.5822 31.8725 30.001 31.2314 29.3613C30.5904 28.7215 30.0092 28.1402 29.9399 28.0695C29.8706 27.9988 29.2895 27.418 28.6484 26.7791C28.0074 26.1401 27.433 25.5671 27.3719 25.5058C26.5441 24.6747 24.888 23.0199 24.7386 22.8745C24.6319 22.7705 24.1658 22.3028 23.7031 21.835C20.423 18.5193 20.7041 18.6918 19.899 19.5002ZM42.1304 67.069V78.283H44.9339H47.7374V67.069V55.855H44.9339H42.1304V67.069ZM71.7881 68.9275L71.8042 78.283H74.5759H77.3474V68.9275V59.572H74.5597H71.7719L71.7881 68.9275Z" fill="#FCBC2C"/>
</g>
<defs>
<clipPath id="clip0_1001_835">
<rect width="63" height="63" fill="white" transform="translate(18 19)"/>
</clipPath>
</defs>
</svg>
