<svg width="100" height="100" viewBox="0 0 100 100" fill="none" xmlns="http://www.w3.org/2000/svg">
<rect width="100" height="100" fill="#F6F6F6"/>
<g clip-path="url(#clip0_1001_808)">
<path fill-rule="evenodd" clip-rule="evenodd" d="M45.3903 18.0466C45.1911 18.0591 45.0281 18.0962 45.0281 18.1292C45.0281 18.1621 44.858 18.189 44.6501 18.189C44.4401 18.189 44.2721 18.217 44.2721 18.252C44.2721 18.2867 44.1746 18.315 44.0554 18.315C43.9361 18.315 43.821 18.3434 43.7996 18.378C43.7782 18.4127 43.663 18.441 43.5438 18.441C43.4246 18.441 43.3271 18.4694 43.3271 18.504C43.3271 18.5387 43.2438 18.567 43.1419 18.567C43.04 18.567 42.939 18.5954 42.9176 18.63C42.8962 18.6647 42.8094 18.693 42.7248 18.693C42.6402 18.693 42.5711 18.7214 42.5711 18.756C42.5711 18.7907 42.486 18.819 42.3821 18.819C42.2781 18.819 42.1931 18.8474 42.1931 18.882C42.1931 18.9167 42.1239 18.945 42.0394 18.945C41.9548 18.945 41.868 18.9734 41.8466 19.008C41.8252 19.0427 41.7526 19.071 41.6853 19.071C41.6181 19.071 41.5631 19.0994 41.5631 19.134C41.5631 19.1687 41.4763 19.197 41.3703 19.197C41.258 19.197 41.1939 19.2233 41.2166 19.26C41.238 19.2947 41.1953 19.323 41.1218 19.323C40.9877 19.323 39.7433 19.9455 39.6101 20.0792C39.5928 20.0965 39.5006 20.1508 39.4053 20.2C39.31 20.2491 39.2321 20.3129 39.2321 20.3417C39.2321 20.3704 39.1754 20.394 39.1061 20.394C39.0368 20.394 38.9801 20.4224 38.9801 20.457C38.9801 20.4917 38.9347 20.52 38.8793 20.52C38.824 20.52 38.6993 20.6051 38.6021 20.709C38.5049 20.813 38.3915 20.898 38.3501 20.898C38.3087 20.898 38.1953 20.9831 38.0981 21.087C38.0009 21.191 37.9023 21.276 37.8788 21.276C37.8554 21.276 37.7273 21.3894 37.5941 21.528C37.4608 21.6666 37.3285 21.7803 37.2997 21.7808C37.1662 21.7828 35.9104 22.9765 35.636 23.3623C35.5527 23.4796 35.3922 23.6736 35.2793 23.7933C35.1664 23.9132 35.0741 24.0507 35.0741 24.0989C35.0741 24.1471 34.989 24.2658 34.8851 24.363C34.7811 24.4602 34.6961 24.5645 34.6961 24.5949C34.6961 24.6252 34.6394 24.6911 34.5701 24.741C34.5008 24.7909 34.4441 24.876 34.4441 24.93C34.4441 24.984 34.3874 25.0691 34.3181 25.119C34.2488 25.1689 34.1921 25.2603 34.1921 25.3219C34.1921 25.3836 34.1637 25.434 34.1291 25.434C34.0944 25.434 34.0661 25.4712 34.0661 25.5167C34.0661 25.5621 34.0094 25.6602 33.9401 25.7345C33.8708 25.8089 33.8141 25.9134 33.8141 25.9668C33.8141 26.0202 33.7928 26.0642 33.7668 26.0645C33.7103 26.0651 33.5621 26.3702 33.5621 26.4861C33.5621 26.5312 33.5337 26.568 33.4991 26.568C33.4644 26.568 33.4361 26.6247 33.4361 26.694C33.4361 26.7633 33.4077 26.82 33.3731 26.82C33.3384 26.82 33.3101 26.8743 33.3101 26.9408C33.3101 27.0071 33.2888 27.0709 33.2628 27.0826C33.2052 27.1081 32.9321 27.6272 32.9321 27.711C32.9321 27.7441 32.8754 27.8885 32.8061 28.0318C32.7368 28.1753 32.6801 28.3424 32.6801 28.4032C32.6801 28.4638 32.6544 28.5295 32.6229 28.5489C32.5916 28.5683 32.5464 28.7258 32.5226 28.899C32.4988 29.0723 32.4536 29.2298 32.4223 29.2491C32.3908 29.2685 32.3651 29.3962 32.3651 29.5328C32.3651 29.6693 32.3367 29.781 32.3021 29.781C32.2674 29.781 32.2391 29.8802 32.2391 30.0015C32.2391 30.1228 32.2107 30.222 32.1761 30.222C32.1414 30.222 32.1131 30.3337 32.1131 30.4702C32.1131 30.6068 32.0847 30.7361 32.0501 30.7575C32.0154 30.7789 31.9871 30.9791 31.9871 31.2023C31.9871 31.4308 31.9595 31.608 31.9241 31.608C31.8868 31.608 31.8611 31.8391 31.8611 32.175C31.8611 32.511 31.8354 32.742 31.7981 32.742C31.7151 32.742 31.7122 35.655 31.7951 35.7378C31.8282 35.7709 31.8636 36.0246 31.8738 36.3017L31.8926 36.8055L32.2706 36.9874C34.6367 38.126 38.7435 38.6544 41.6261 38.1912C41.9553 38.1384 42.4372 38.066 42.6971 38.0304C45.1357 37.6963 48.9511 36.3792 52.0526 34.8007C53.6466 33.9894 56.7406 32.1369 57.4076 31.5945C57.6545 31.3937 58.3357 30.915 58.3746 30.915C58.4009 30.915 58.5411 31.1676 58.6862 31.4762C59.2718 32.7231 59.861 33.5212 60.868 34.4315C61.398 34.9106 61.9494 35.2773 62.8256 35.7332C63.3071 35.9838 63.4241 36.0276 63.4241 35.9577C63.4241 35.8997 63.0725 35.703 62.9691 35.703C62.9372 35.703 62.7876 35.618 62.6366 35.514C62.4855 35.4101 62.3438 35.325 62.3216 35.325C62.2994 35.325 62.1576 35.24 62.0066 35.136C61.8555 35.0321 61.7015 34.947 61.6645 34.947C61.6275 34.947 61.5971 34.9248 61.5971 34.8976C61.5971 34.8705 61.5068 34.7949 61.3966 34.7297C60.9953 34.4926 59.7668 33.2161 59.486 32.7444C59.4557 32.6937 59.408 32.4102 59.38 32.1144C59.3003 31.2766 59.2634 31.0196 59.2034 30.8835C59.1728 30.8142 59.1309 30.6441 59.11 30.5055C59.0892 30.3669 59.0561 30.1472 59.0366 30.0173C59.0169 29.8873 58.9755 29.781 58.9445 29.781C58.9134 29.781 58.8881 29.6977 58.8881 29.5958C58.8881 29.4939 58.8597 29.3929 58.8251 29.3715C58.7904 29.3501 58.7621 29.2509 58.7621 29.151C58.7621 29.0512 58.7337 28.9519 58.6991 28.9305C58.6644 28.9091 58.6361 28.8362 58.6361 28.7684C58.6361 28.7007 58.611 28.5961 58.5805 28.536C58.5088 28.395 58.4301 28.2013 58.2545 27.7335C58.0655 27.2301 57.4961 26.1087 57.1852 25.6277C57.0477 25.415 56.9351 25.2134 56.9351 25.18C56.9351 25.1464 56.9138 25.1182 56.8878 25.1173C56.8618 25.1163 56.7711 25.0029 56.6862 24.8653C56.6012 24.7276 56.509 24.615 56.4815 24.615C56.4538 24.615 56.4311 24.5767 56.4311 24.5298C56.4311 24.483 56.346 24.3558 56.2421 24.2469C56.1381 24.1381 56.0531 24.0324 56.0531 24.0119C56.0531 23.9266 54.8873 22.6444 54.5012 22.3053C54.2711 22.103 54.0229 21.8808 53.9497 21.8114C53.8764 21.7419 53.6892 21.586 53.5332 21.4649C53.3775 21.3437 53.1932 21.1968 53.1237 21.1385C52.8908 20.9429 52.1813 20.4589 51.8951 20.3003C51.7392 20.2138 51.4698 20.0581 51.2966 19.9541C51.1233 19.8503 50.8824 19.7194 50.7611 19.6634C50.6398 19.6075 50.3563 19.4761 50.1311 19.3715C49.7408 19.1904 49.6069 19.1329 49.2491 18.9923C49.1625 18.9582 49.0423 18.9053 48.9821 18.8746C48.922 18.8441 48.8204 18.819 48.7564 18.819C48.6925 18.819 48.6207 18.7996 48.5969 18.7759C48.5277 18.7067 48.0963 18.5691 47.9456 18.568C47.8697 18.5675 47.79 18.5387 47.7686 18.504C47.7472 18.4694 47.6479 18.441 47.5481 18.441C47.4482 18.441 47.3514 18.4164 47.3328 18.3864C47.3142 18.3563 47.1778 18.3138 47.0297 18.2919C46.233 18.1742 46.1619 18.1422 46.6781 18.1339C46.9445 18.1296 47.1802 18.0977 47.2016 18.063C47.2394 18.0019 46.2449 17.9929 45.3903 18.0466ZM50.9501 18.0588C51.0076 18.1005 51.3371 18.1244 51.7902 18.1196C52.2649 18.1144 52.5613 18.137 52.606 18.1818C52.6446 18.2204 52.8407 18.252 53.0417 18.252C53.2647 18.252 53.4071 18.2789 53.4071 18.3212C53.4071 18.3649 53.5224 18.3823 53.7221 18.3684C53.9438 18.353 54.0371 18.3698 54.0371 18.4253C54.0371 18.473 54.1224 18.504 54.2538 18.504C54.373 18.504 54.4882 18.5324 54.5096 18.567C54.531 18.6017 54.6444 18.63 54.7616 18.63C54.8788 18.63 54.9922 18.6584 55.0136 18.693C55.035 18.7277 55.136 18.756 55.2379 18.756C55.3398 18.756 55.4231 18.7844 55.4231 18.819C55.4231 18.8537 55.4801 18.882 55.5499 18.882C55.6196 18.882 55.726 18.9071 55.7861 18.9376C55.8463 18.9683 55.9806 19.0283 56.0846 19.071C56.1885 19.1137 56.3229 19.1737 56.383 19.2044C56.4432 19.235 56.5283 19.26 56.572 19.26C56.6158 19.2602 57.0605 19.4657 57.5602 19.7168C58.6989 20.2893 58.7889 20.3384 58.8145 20.4038C58.8262 20.4331 58.8594 20.457 58.8887 20.457C58.9412 20.457 59.898 21.0714 59.9591 21.1443C59.9764 21.165 60.1607 21.3088 60.3686 21.4641C61.0397 21.9652 62.5123 23.416 62.9363 23.9938C63.0472 24.1449 63.2009 24.3536 63.2781 24.4575C63.5702 24.8514 63.9911 25.5033 63.9911 25.5619C63.9911 25.5956 64.0147 25.623 64.0434 25.623C64.0722 25.623 64.136 25.701 64.1851 25.7963C64.2343 25.8915 64.2894 25.9837 64.3077 26.001C64.3759 26.0654 64.9999 27.3585 64.9996 27.4343C64.9992 27.4776 65.0274 27.513 65.0621 27.513C65.0967 27.513 65.1251 27.5697 65.1251 27.639C65.1251 27.7083 65.1534 27.765 65.1881 27.765C65.2227 27.765 65.2511 27.822 65.2511 27.8918C65.2511 27.9616 65.2761 28.0679 65.3067 28.128C65.3374 28.1882 65.3974 28.3226 65.4401 28.4265C65.4828 28.5305 65.5428 28.6648 65.5735 28.725C65.604 28.7851 65.6291 28.8915 65.6291 28.9612C65.6291 29.031 65.6574 29.088 65.6921 29.088C65.7267 29.088 65.7551 29.1713 65.7551 29.2732C65.7551 29.3751 65.7848 29.4769 65.8211 29.4994C65.8575 29.5218 65.8825 29.5873 65.8768 29.6448C65.8541 29.8763 65.8863 29.97 65.9882 29.97C66.0715 29.97 66.0784 29.9869 66.0197 30.0456C65.9184 30.1469 65.9235 30.4071 66.0272 30.4469C66.0794 30.4669 66.1005 30.5474 66.0838 30.6614C66.069 30.7619 66.1021 30.9345 66.1572 31.0451C66.2137 31.1585 66.2411 31.3114 66.2199 31.396C66.1761 31.5701 66.2446 32.0024 66.3095 31.9624C66.3337 31.9474 66.3537 32.3103 66.3541 32.7688C66.3544 33.4771 66.3709 33.6188 66.4643 33.7122C66.5687 33.8166 66.5741 33.7791 66.5741 32.9482C66.5741 32.4675 66.5478 32.0473 66.5158 32.0144C66.4837 31.9814 66.4509 31.7986 66.4427 31.608C66.4345 31.4174 66.4071 31.2332 66.3818 31.1985C66.3564 31.1639 66.3192 31.0079 66.2994 30.852C66.2186 30.2206 66.1802 30.0306 66.1265 29.9974C66.0954 29.9782 66.0701 29.8809 66.0701 29.781C66.0701 29.6812 66.0417 29.5819 66.0071 29.5605C65.9724 29.5391 65.9441 29.4257 65.9441 29.3085C65.9441 29.1913 65.9157 29.0779 65.8811 29.0565C65.8464 29.0351 65.8181 28.95 65.8181 28.8675C65.8181 28.785 65.7897 28.6999 65.7551 28.6785C65.7204 28.6571 65.6921 28.5845 65.6921 28.5172C65.6921 28.45 65.6637 28.395 65.6291 28.395C65.5944 28.395 65.5661 28.31 65.5661 28.206C65.5661 28.1021 65.5377 28.017 65.5031 28.017C65.4684 28.017 65.4401 27.9479 65.4401 27.8633C65.4401 27.7787 65.4117 27.6919 65.3771 27.6705C65.3424 27.6491 65.3141 27.5765 65.3141 27.5092C65.3141 27.442 65.2857 27.387 65.2511 27.387C65.2164 27.387 65.1881 27.3445 65.1881 27.2925C65.1881 27.2405 65.1597 27.198 65.1251 27.198C65.0904 27.198 65.0621 27.1413 65.0621 27.072C65.0621 27.0027 65.0337 26.946 64.9991 26.946C64.9644 26.946 64.9361 26.8893 64.9361 26.82C64.9361 26.7507 64.9077 26.694 64.8731 26.694C64.8384 26.694 64.8101 26.6373 64.8101 26.568C64.8101 26.4987 64.7817 26.442 64.7471 26.442C64.7124 26.442 64.6841 26.3853 64.6841 26.316C64.6841 26.2467 64.6557 26.19 64.6211 26.19C64.5864 26.19 64.5581 26.1333 64.5581 26.064C64.5581 25.9947 64.5297 25.938 64.4951 25.938C64.4604 25.938 64.4321 25.8876 64.4321 25.8259C64.4321 25.7643 64.3754 25.6729 64.3061 25.623C64.2368 25.5731 64.1801 25.4817 64.1801 25.4202C64.1801 25.3584 64.1517 25.308 64.1171 25.308C64.0824 25.308 64.0541 25.2655 64.0541 25.2135C64.0541 25.1615 64.0327 25.119 64.0065 25.119C63.9802 25.119 63.9235 25.041 63.8804 24.9458C63.8372 24.8505 63.7169 24.6766 63.6129 24.5593C63.5091 24.4419 63.4241 24.3227 63.4241 24.2943C63.4241 24.266 63.3532 24.1718 63.2666 24.0852C63.18 23.9986 63.1091 23.9011 63.1091 23.8683C63.1091 23.8357 62.9035 23.5966 62.6523 23.3372C62.1285 22.796 61.9751 22.6176 61.9751 22.5489C61.9751 22.5222 61.8971 22.4541 61.8018 22.3976C61.5209 22.2314 61.343 22.0771 61.0361 21.7328C60.9357 21.6202 60.8223 21.528 60.7844 21.528C60.7463 21.528 60.7151 21.4997 60.7151 21.465C60.7151 21.4304 60.6789 21.402 60.6344 21.402C60.5902 21.402 60.513 21.3453 60.4631 21.276C60.4132 21.2067 60.3344 21.15 60.2879 21.15C60.2416 21.15 60.2212 21.1217 60.2426 21.087C60.264 21.0524 60.236 21.024 60.1804 21.024C60.1248 21.024 60.0085 20.9531 59.9219 20.8665C59.8353 20.7799 59.7417 20.709 59.714 20.709C59.6863 20.709 59.5812 20.6381 59.4806 20.5515C59.38 20.465 59.2621 20.3942 59.2188 20.394C59.1755 20.394 59.1401 20.3657 59.1401 20.331C59.1401 20.2964 59.0857 20.268 59.0193 20.268C58.953 20.268 58.8892 20.2468 58.8775 20.2208C58.8456 20.1488 58.5148 19.9366 58.1636 19.7626C57.9903 19.6768 57.8391 19.5853 57.8276 19.5593C57.816 19.5333 57.7539 19.512 57.6895 19.512C57.6252 19.512 57.5537 19.4818 57.5309 19.4448C57.5081 19.4077 57.4496 19.3926 57.4013 19.4112C57.3528 19.4298 57.3131 19.4177 57.3131 19.384C57.3131 19.3504 57.2564 19.323 57.1871 19.323C57.1178 19.323 57.0611 19.2947 57.0611 19.26C57.0611 19.2254 57.0044 19.197 56.9351 19.197C56.8658 19.197 56.8091 19.1687 56.8091 19.134C56.8091 19.0994 56.724 19.071 56.6201 19.071C56.5161 19.071 56.4311 19.0427 56.4311 19.008C56.4311 18.9734 56.3619 18.945 56.2774 18.945C56.1928 18.945 56.106 18.9167 56.0846 18.882C56.0632 18.8474 55.9906 18.819 55.9233 18.819C55.8561 18.819 55.8011 18.7907 55.8011 18.756C55.8011 18.7214 55.7302 18.693 55.6436 18.693C55.557 18.693 55.4861 18.6647 55.4861 18.63C55.4861 18.5954 55.3727 18.567 55.2341 18.567C55.0955 18.567 54.9821 18.5387 54.9821 18.504C54.9821 18.4694 54.8687 18.441 54.7301 18.441C54.5915 18.441 54.4781 18.4158 54.4781 18.3849C54.4781 18.3262 54.2217 18.2693 53.6906 18.2103C53.5173 18.1911 53.3595 18.1495 53.3397 18.1181C53.32 18.0866 52.753 18.0449 52.0797 18.0254C51.1857 17.9994 50.8811 18.0084 50.9501 18.0588ZM31.7351 46.2484C31.7351 47.9121 31.7571 48.807 31.7981 48.807C31.8327 48.807 31.8611 48.9328 31.8611 49.0867C31.8611 49.2406 31.8894 49.3841 31.9241 49.4055C31.9587 49.4269 31.9871 49.5279 31.9871 49.6298C31.9871 49.7317 32.0154 49.815 32.0501 49.815C32.0847 49.815 32.1131 49.87 32.1131 49.9372C32.1131 50.0045 32.1414 50.0771 32.1761 50.0985C32.2107 50.1199 32.2391 50.1925 32.2391 50.2598C32.2391 50.327 32.2674 50.382 32.3021 50.382C32.3367 50.382 32.3651 50.4245 32.3651 50.4765C32.3651 50.5285 32.3934 50.571 32.4281 50.571C32.4627 50.571 32.4911 50.6091 32.4911 50.6559C32.4911 50.7025 32.5407 50.7991 32.6013 50.8704C32.662 50.9419 32.7541 51.063 32.8061 51.1397C32.9524 51.3557 33.3564 51.768 33.4218 51.768C33.454 51.768 33.5693 51.8531 33.6782 51.957C33.787 52.061 33.9187 52.146 33.971 52.146C34.0232 52.146 34.0661 52.1744 34.0661 52.209C34.0661 52.2437 34.1228 52.272 34.1921 52.272C34.2614 52.272 34.3181 52.3004 34.3181 52.335C34.3181 52.3697 34.3748 52.398 34.4441 52.398C34.5134 52.398 34.5701 52.4264 34.5701 52.461C34.5701 52.4957 34.6362 52.524 34.717 52.524C34.798 52.524 34.8835 52.5434 34.9073 52.5672C34.9764 52.6363 35.4078 52.774 35.5586 52.7751C35.6345 52.7755 35.7142 52.8044 35.7356 52.839C35.757 52.8737 35.8704 52.902 35.9876 52.902C36.1048 52.902 36.2182 52.9304 36.2396 52.965C36.261 52.9997 36.3744 53.028 36.4916 53.028C36.6088 53.028 36.7203 53.0532 36.7393 53.0841C36.7584 53.1148 36.8663 53.1553 36.9792 53.174C37.0921 53.1926 37.3122 53.2409 37.4681 53.2813C37.624 53.3217 37.9571 53.3862 38.2083 53.4244C38.4595 53.4627 38.6651 53.5167 38.6651 53.5444C38.6651 53.5723 38.7626 53.595 38.8818 53.595C39.001 53.595 39.1162 53.6234 39.1376 53.658C39.159 53.6927 39.2741 53.721 39.3934 53.721C39.5126 53.721 39.6101 53.7435 39.6101 53.7711C39.6101 53.7987 39.7164 53.8284 39.8462 53.8371C39.9761 53.8459 40.1094 53.8801 40.1423 53.913C40.1753 53.9461 40.2941 53.973 40.4064 53.973C40.5187 53.973 40.6282 54.0014 40.6496 54.036C40.671 54.0707 40.7844 54.099 40.9016 54.099C41.0188 54.099 41.1322 54.1274 41.1536 54.162C41.175 54.1967 41.2742 54.225 41.3741 54.225C41.4739 54.225 41.5732 54.2534 41.5946 54.288C41.616 54.3227 41.7436 54.351 41.8781 54.351C42.0126 54.351 42.1402 54.3794 42.1616 54.414C42.183 54.4487 42.2964 54.477 42.4136 54.477C42.5308 54.477 42.6423 54.5022 42.6613 54.5331C42.6938 54.5857 42.7865 54.608 43.3743 54.7049C43.5043 54.7263 43.6422 54.7693 43.681 54.8002C43.8305 54.9197 43.8994 54.6852 43.8809 54.1211L43.8626 53.5635L43.3586 53.3104C42.6298 52.9444 41.3643 52.1712 41.2481 52.021C41.2308 51.9986 41.0748 51.8838 40.9016 51.766C38.9407 50.4324 36.8345 47.2498 36.0873 44.4915L35.9166 43.8615L34.0306 43.8228C32.9934 43.8015 32.0524 43.7628 31.9398 43.7368L31.7351 43.6897V46.2484ZM63.0881 43.8721C63.065 43.8951 63.0478 43.973 63.05 44.0453C63.0538 44.166 63.059 44.1644 63.1144 44.0256C63.1762 43.8714 63.1633 43.7968 63.0881 43.8721ZM62.9505 44.4443C62.8739 44.8224 62.6246 45.5603 62.4717 45.861C62.4411 45.9211 62.4161 46.0026 62.4161 46.0418C62.4161 46.1487 61.8028 47.3846 61.4816 47.925C61.109 48.552 61.1166 48.5359 61.2385 48.437C61.297 48.3895 61.3451 48.3115 61.3451 48.2638C61.3451 48.2161 61.3701 48.177 61.4007 48.177C61.4314 48.177 61.4722 48.1274 61.4914 48.0668C61.5256 47.9589 61.7237 47.6094 61.7861 47.547C61.8614 47.4717 61.9751 47.2259 61.9751 47.1383C61.9751 47.0858 62.0034 47.043 62.0381 47.043C62.0727 47.043 62.1011 46.9863 62.1011 46.917C62.1011 46.8477 62.1294 46.791 62.1641 46.791C62.1987 46.791 62.2271 46.7512 62.2271 46.7025C62.2271 46.6538 62.2879 46.4908 62.3621 46.3402C62.6722 45.711 63.1307 44.271 63.0207 44.271C63.0014 44.271 62.9697 44.349 62.9505 44.4443ZM66.3802 48.4448C66.3777 48.5227 66.3652 48.6413 66.3526 48.7083C66.3172 48.8979 66.3941 49.1926 66.4722 49.1664C66.5769 49.1315 66.5714 48.303 66.4664 48.303C66.4216 48.303 66.3829 48.3668 66.3802 48.4448ZM66.2591 49.4003C66.2591 49.5244 66.2369 49.626 66.2099 49.626C66.149 49.626 65.9866 50.0067 66.0016 50.1143C66.0077 50.1576 65.983 50.193 65.9469 50.193C65.9107 50.193 65.8811 50.2497 65.8811 50.319C65.8811 50.3883 65.8575 50.445 65.8288 50.445C65.8 50.445 65.7362 50.523 65.687 50.6183C65.5933 50.7997 65.2048 51.2536 64.9361 51.4954C64.5393 51.8523 64.3801 51.9644 63.9945 52.1583C63.7674 52.2725 63.5721 52.3873 63.5606 52.4134C63.549 52.4396 63.4568 52.461 63.3559 52.461C63.2548 52.461 63.1721 52.4894 63.1721 52.524C63.1721 52.5587 63.0888 52.587 62.9869 52.587C62.885 52.587 62.784 52.6154 62.7626 52.65C62.7412 52.6847 62.626 52.713 62.5068 52.713C62.3876 52.713 62.2901 52.7414 62.2901 52.776C62.2901 52.8107 62.1767 52.839 62.0381 52.839C61.8995 52.839 61.7861 52.8674 61.7861 52.902C61.7861 52.9367 61.6886 52.965 61.5694 52.965C61.4501 52.965 61.3353 52.9929 61.3141 53.0271C61.2929 53.0612 61.2134 53.079 61.1372 53.0666C61.061 53.0542 60.9419 53.0738 60.8726 53.1102C60.8033 53.1466 60.6811 53.1795 60.6012 53.1831C60.5212 53.1869 60.4319 53.2285 60.4028 53.2758C60.3727 53.3244 60.3043 53.3439 60.2443 53.321C60.1864 53.2986 60.0772 53.3147 60.0018 53.3565C59.9263 53.3984 59.8381 53.4251 59.8057 53.4155C59.7031 53.3855 59.4551 53.4688 59.4551 53.5333C59.4551 53.5671 59.5543 53.595 59.6756 53.595C59.7969 53.595 59.8961 53.5667 59.8961 53.532C59.8961 53.4974 60.0095 53.469 60.1481 53.469C60.2867 53.469 60.4001 53.4394 60.4001 53.4032C60.4001 53.3621 60.4828 53.3528 60.6206 53.3786C60.7652 53.4058 60.8411 53.3959 60.8411 53.3501C60.8411 53.3115 60.9386 53.28 61.0578 53.28C61.177 53.28 61.2922 53.2517 61.3136 53.217C61.335 53.1824 61.4126 53.154 61.486 53.154C61.5596 53.154 61.7067 53.1275 61.8132 53.0953C61.9195 53.063 62.1342 53.0034 62.2901 52.9631C62.446 52.9228 62.6229 52.8642 62.683 52.8329C62.7432 52.8015 62.8761 52.776 62.9785 52.776C63.0809 52.776 63.1822 52.7477 63.2036 52.713C63.225 52.6784 63.3101 52.65 63.3926 52.65C63.4751 52.65 63.5602 52.6217 63.5816 52.587C63.603 52.5524 63.6703 52.524 63.7309 52.524C63.7917 52.524 63.9022 52.4673 63.9766 52.398C64.0509 52.3287 64.1555 52.272 64.2089 52.272C64.2623 52.272 64.3061 52.2437 64.3061 52.209C64.3061 52.1744 64.3514 52.146 64.4069 52.146C64.4622 52.146 64.5869 52.061 64.6841 51.957C64.7813 51.8531 64.9107 51.768 64.9718 51.768C65.0331 51.768 65.0682 51.7532 65.0501 51.7349C65.0318 51.7168 65.1193 51.5938 65.2443 51.4617C65.5752 51.1119 65.8181 50.8258 65.8181 50.786C65.8181 50.7669 65.9031 50.6275 66.0071 50.4765C66.111 50.3255 66.1961 50.1711 66.1961 50.1336C66.1961 50.096 66.2211 50.0161 66.2517 49.956C66.475 49.5172 66.5048 49.2554 66.3378 49.2004C66.2846 49.183 66.2591 49.2479 66.2591 49.4003ZM58.6847 51.2949C58.5209 51.4436 58.1318 51.7579 57.8198 51.9934C57.5078 52.2289 57.2633 52.4322 57.2765 52.4454C57.2898 52.4586 57.4758 52.333 57.6901 52.166C57.9043 51.9991 58.1442 51.82 58.223 51.768C58.4264 51.6337 59.0344 51.0741 59.0062 51.047C58.9931 51.0345 58.8485 51.146 58.6847 51.2949ZM56.8834 52.6253C56.7338 52.7149 56.6248 52.8018 56.6413 52.8182C56.6733 52.8503 57.1871 52.5429 57.1871 52.4917C57.1871 52.4451 57.1759 52.4501 56.8834 52.6253ZM55.8326 53.2164L55.1396 53.5794V54.1385V54.6975L55.3842 54.7175C55.5187 54.7285 55.659 54.7073 55.696 54.6703C55.733 54.6332 55.8568 54.603 55.9712 54.603C56.0855 54.603 56.1791 54.5778 56.1791 54.5469C56.1791 54.5161 56.2783 54.4735 56.3996 54.4524C56.5209 54.4313 56.7193 54.3967 56.8406 54.3756C56.9619 54.3545 57.0611 54.3034 57.0611 54.2623C57.0611 54.2141 57.1375 54.1962 57.2742 54.2122C57.3914 54.2258 57.5063 54.2059 57.5298 54.168C57.5533 54.13 57.6843 54.099 57.8209 54.099C57.9574 54.099 58.0691 54.0707 58.0691 54.036C58.0691 54.0014 58.1683 53.973 58.2896 53.973C58.4109 53.973 58.5101 53.9447 58.5101 53.91C58.5101 53.8754 58.6235 53.847 58.7621 53.847C58.9007 53.847 59.0141 53.8187 59.0141 53.784C59.0141 53.7494 59.1168 53.721 59.2423 53.721C59.4381 53.721 59.4593 53.7076 59.3921 53.6265C59.2936 53.5079 59.1132 53.5049 58.9982 53.6199C58.9465 53.6716 58.8413 53.6945 58.7426 53.6756C58.6276 53.6538 58.5628 53.6742 58.5375 53.7405C58.5101 53.8119 58.4438 53.8283 58.2858 53.8027C58.1307 53.7775 58.0614 53.7938 58.0355 53.8612C58.0118 53.9231 57.9447 53.9437 57.8355 53.9229C57.7369 53.904 57.6438 53.9267 57.6024 53.9795C57.5646 54.028 57.4485 54.0733 57.3446 54.0806C57.0086 54.1037 56.6828 54.1744 56.6473 54.2319C56.6283 54.2628 56.5142 54.288 56.3939 54.288C56.2728 54.288 56.1611 54.3245 56.1438 54.3696C56.1236 54.4222 56.0347 54.4422 55.8939 54.4258C55.7603 54.4102 55.6751 54.4274 55.6751 54.4701C55.6751 54.5096 55.5656 54.54 55.4231 54.54H55.1711V54.0748V53.6093L55.4073 53.5013C55.5373 53.4419 55.7853 53.3219 55.9586 53.2345C56.1318 53.1472 56.3372 53.0438 56.4149 53.0047C56.519 52.9522 56.639 52.8018 56.5413 52.8461C56.5327 52.85 56.2137 53.0167 55.8326 53.2164ZM33.5386 71.1109C33.3123 71.3799 33.2997 71.5102 33.3217 73.3455C33.3433 75.13 33.3606 75.218 33.7234 75.3832C33.9927 75.5059 41.2621 75.4847 41.5021 75.3604C41.8603 75.1752 41.8781 75.0697 41.8781 73.1304V71.3654L41.6826 71.1427L41.487 70.92H37.5931H33.6993L33.5386 71.1109Z" fill="#FA9528"/>
<path fill-rule="evenodd" clip-rule="evenodd" d="M47.2029 18.061C47.1808 18.0968 46.9447 18.1296 46.6782 18.1338C46.1621 18.1422 46.2331 18.1741 47.0299 18.2918C47.178 18.3137 47.3144 18.3562 47.333 18.3863C47.3515 18.4164 47.4484 18.4409 47.5483 18.4409C47.6481 18.4409 47.7473 18.4693 47.7688 18.5039C47.7902 18.5386 47.8699 18.5674 47.9458 18.5679C48.0965 18.569 48.5279 18.7066 48.597 18.7758C48.6208 18.7996 48.6926 18.8189 48.7566 18.8189C48.8205 18.8189 48.9221 18.844 48.9823 18.8745C49.0425 18.9052 49.1626 18.9582 49.2493 18.9922C49.6071 19.1328 49.741 19.1903 50.1313 19.3714C50.3565 19.476 50.64 19.6074 50.7613 19.6633C50.8825 19.7194 51.1235 19.8502 51.2968 19.954C51.47 20.058 51.7393 20.2137 51.8953 20.3002C52.1814 20.4588 52.891 20.9428 53.1239 21.1384C53.1934 21.1967 53.3776 21.3437 53.5334 21.4648C53.6893 21.5859 53.8766 21.7418 53.9498 21.8113C54.0231 21.8807 54.2713 22.103 54.5014 22.3052C54.8874 22.6443 56.0533 23.9265 56.0533 24.0119C56.0533 24.0323 56.1383 24.138 56.2423 24.2469C56.3462 24.3557 56.4313 24.4829 56.4313 24.5297C56.4313 24.5767 56.4539 24.6149 56.4817 24.6149C56.5092 24.6149 56.6014 24.7275 56.6864 24.8652C56.7713 25.0029 56.862 25.1163 56.888 25.1172C56.914 25.1181 56.9353 25.1463 56.9353 25.1799C56.9353 25.2133 57.0479 25.4149 57.1854 25.6277C57.4963 26.1087 58.0656 27.2301 58.2546 27.7334C58.4302 28.2012 58.509 28.3949 58.5807 28.5359C58.6112 28.5961 58.6363 28.7006 58.6363 28.7684C58.6363 28.8361 58.6646 28.909 58.6993 28.9304C58.7339 28.9518 58.7623 29.0511 58.7623 29.1509C58.7623 29.2508 58.7906 29.35 58.8253 29.3714C58.8599 29.3928 58.8883 29.4938 58.8883 29.5957C58.8883 29.6976 58.9136 29.7809 58.9446 29.7809C58.9757 29.7809 59.0171 29.8872 59.0368 30.0172C59.0563 30.1471 59.0894 30.3668 59.1102 30.5054C59.1311 30.644 59.173 30.8141 59.2036 30.8834C59.2636 31.0195 59.3004 31.2765 59.3801 32.1143C59.4082 32.4101 59.4559 32.6936 59.4861 32.7443C59.7669 33.216 60.9954 34.4925 61.3968 34.7296C61.507 34.7948 61.5973 34.8704 61.5973 34.8975C61.5973 34.9247 61.6277 34.9469 61.6647 34.9469C61.7017 34.9469 61.8557 35.032 62.0068 35.1359C62.1578 35.2399 62.2995 35.3249 62.3218 35.3249C62.344 35.3249 62.4857 35.41 62.6368 35.5139C62.7878 35.6179 62.9374 35.7029 62.9692 35.7029C63.0859 35.7029 63.4131 35.8978 63.4476 35.988C63.4673 36.039 63.5271 36.0809 63.5807 36.0809C63.6342 36.0809 63.7271 36.106 63.7873 36.1365C63.9812 36.2351 64.2058 36.3228 64.4638 36.4005C64.6024 36.4422 64.7725 36.4986 64.8418 36.5259C65.0703 36.6158 65.9554 36.785 66.2593 36.7968L66.4798 36.8054L66.5187 36.0809C66.6009 34.5544 66.5842 33.832 66.4645 33.7121C66.3711 33.6187 66.3545 33.477 66.3542 32.7687C66.3539 32.3102 66.3339 31.9473 66.3097 31.9623C66.2448 32.0023 66.1763 31.57 66.22 31.3959C66.2413 31.3114 66.2139 31.1584 66.1574 31.045C66.1022 30.9345 66.0692 30.7618 66.084 30.6614C66.1007 30.5473 66.0796 30.4668 66.0274 30.4468C65.9236 30.407 65.9186 30.1468 66.0199 30.0455C66.0786 29.9868 66.0717 29.9699 65.9884 29.9699C65.8865 29.9699 65.8543 29.8762 65.877 29.6447C65.8827 29.5872 65.8576 29.5217 65.8212 29.4993C65.785 29.4768 65.7553 29.375 65.7553 29.2731C65.7553 29.1712 65.7269 29.0879 65.6923 29.0879C65.6576 29.0879 65.6293 29.0309 65.6293 28.9611C65.6293 28.8914 65.6042 28.7851 65.5737 28.7249C65.5429 28.6647 65.4829 28.5304 65.4403 28.4264C65.3976 28.3225 65.3376 28.1881 65.3069 28.128C65.2763 28.0678 65.2513 27.9615 65.2513 27.8917C65.2513 27.8219 65.2229 27.7649 65.1883 27.7649C65.1536 27.7649 65.1253 27.7082 65.1253 27.6389C65.1253 27.5696 65.0969 27.5129 65.0623 27.5129C65.0276 27.5129 64.9994 27.4775 64.9997 27.4342C65 27.3584 64.376 26.0653 64.3078 26.0009C64.2896 25.9836 64.2344 25.8915 64.1853 25.7962C64.1362 25.7009 64.0724 25.6229 64.0435 25.6229C64.0149 25.6229 63.9913 25.5955 63.9913 25.5618C63.9913 25.5032 63.5704 24.8513 63.2783 24.4574C63.2011 24.3535 63.0474 24.1448 62.9365 23.9937C62.5125 23.4159 61.0399 21.9651 60.3688 21.464C60.1609 21.3087 59.9766 21.1649 59.9593 21.1443C59.8981 21.0713 58.9413 20.4569 58.8889 20.4569C58.8596 20.4569 58.8264 20.433 58.8147 20.4037C58.789 20.3383 58.6991 20.2892 57.5604 19.7167C57.0606 19.4656 56.616 19.2601 56.5722 19.2599C56.5284 19.2599 56.4434 19.2349 56.3832 19.2043C56.3231 19.1736 56.1887 19.1136 56.0848 19.0709C55.9808 19.0282 55.8465 18.9682 55.7863 18.9375C55.7261 18.907 55.6198 18.8819 55.55 18.8819C55.4803 18.8819 55.4233 18.8536 55.4233 18.8189C55.4233 18.7843 55.3399 18.7559 55.238 18.7559C55.1361 18.7559 55.0352 18.7276 55.0138 18.6929C54.9923 18.6583 54.8789 18.6299 54.7618 18.6299C54.6446 18.6299 54.5312 18.6016 54.5098 18.5669C54.4883 18.5323 54.3732 18.5039 54.254 18.5039C54.1226 18.5039 54.0373 18.4729 54.0373 18.4252C54.0373 18.3697 53.944 18.3529 53.7223 18.3683C53.5225 18.3822 53.4073 18.3649 53.4073 18.3211C53.4073 18.2787 53.2636 18.2519 53.037 18.2519C52.7847 18.2519 52.6416 18.2218 52.5883 18.1574C52.5254 18.0817 52.526 18.0629 52.5911 18.0629C52.6357 18.0629 52.6541 18.0447 52.6317 18.0225C52.6095 18.0002 52.5501 18.0162 52.4999 18.0579C52.4339 18.1125 52.2006 18.1231 51.6636 18.0958C50.1226 18.0176 47.2436 17.995 47.2029 18.061ZM63.1187 44.0347C63.0837 44.1473 63.0374 44.3387 63.0155 44.4599C62.9445 44.8548 62.5862 45.8858 62.3622 46.3402C62.2881 46.4907 62.2273 46.6537 62.2273 46.7024C62.2273 46.7511 62.1989 46.7909 62.1643 46.7909C62.1296 46.7909 62.1013 46.8476 62.1013 46.9169C62.1013 46.9862 62.0729 47.0429 62.0383 47.0429C62.0036 47.0429 61.9753 47.0858 61.9753 47.1382C61.9753 47.2258 61.8615 47.4716 61.7863 47.5469C61.7239 47.6093 61.5258 47.9588 61.4916 48.0667C61.4724 48.1273 61.4316 48.1769 61.4009 48.1769C61.3703 48.1769 61.3453 48.2105 61.3453 48.2516C61.3453 48.2927 61.2815 48.3965 61.2035 48.4822C61.077 48.6212 61.0748 48.6334 61.1827 48.5945C61.2492 48.5704 61.4286 48.5226 61.5812 48.4885C62.5186 48.2784 63.3991 47.376 63.7334 46.2825C63.7722 46.156 63.8023 45.5695 63.8023 44.9438V43.8299H63.4921C63.1973 43.8299 63.1789 43.84 63.1187 44.0347ZM65.7553 44.5944C65.7553 48.3273 64.3009 50.0172 60.5578 50.6328C59.2162 50.8535 59.0724 50.8881 59.0291 51.0015C58.9867 51.1124 58.4655 51.6081 58.2231 51.7679C58.1444 51.8199 57.907 51.9971 57.6958 52.1617C57.4846 52.3263 57.2994 52.4609 57.2843 52.4609C57.269 52.4609 57.1306 52.546 56.9765 52.6499C56.8225 52.7539 56.6651 52.8389 56.6269 52.8389C56.5886 52.8389 56.5571 52.8602 56.5568 52.8862C56.5565 52.9122 56.4927 52.9654 56.415 53.0046C56.3374 53.0437 56.132 53.1472 55.9588 53.2344C55.7855 53.3218 55.5374 53.4418 55.4075 53.5012L55.1713 53.6093V54.0747V54.5399H55.4233C55.5658 54.5399 55.6753 54.5095 55.6753 54.47C55.6753 54.4273 55.7605 54.4101 55.894 54.4257C56.0348 54.4421 56.1238 54.4221 56.144 54.3695C56.1613 54.3245 56.273 54.2879 56.3941 54.2879C56.5144 54.2879 56.6321 54.2569 56.6555 54.2189C56.679 54.181 56.7921 54.1608 56.9067 54.1742C57.0216 54.1876 57.1021 54.177 57.0858 54.1506C57.0468 54.0876 57.3503 54.0125 57.4654 54.0567C57.5145 54.0755 57.5717 54.0471 57.5923 53.9934C57.618 53.9261 57.6875 53.9043 57.8155 53.9232C57.9325 53.9403 58.0132 53.9195 58.0333 53.8671C58.0708 53.7693 58.2814 53.7581 58.4441 53.8452C58.535 53.8939 58.5569 53.8841 58.5503 53.7979C58.544 53.7167 58.5892 53.6904 58.7308 53.6934C58.8347 53.6956 58.9572 53.6601 59.0031 53.6146C59.1173 53.5011 59.2644 53.511 59.4115 53.6422C59.5305 53.7485 59.5334 53.7474 59.4915 53.6127C59.4299 53.4144 59.7446 53.3294 59.883 53.5069C59.9619 53.6082 59.9704 53.6097 59.9386 53.5171C59.8821 53.3532 60.0897 53.2661 60.3343 53.3513C60.4434 53.3894 60.5502 53.4031 60.5715 53.3817C60.5929 53.3604 60.563 53.3429 60.5053 53.3429C60.4475 53.3429 60.4003 53.3165 60.4003 53.2842C60.4003 53.2216 60.6031 53.1391 60.693 53.1651C60.7225 53.1738 60.8035 53.15 60.8728 53.1123C60.9421 53.0747 61.0611 53.0541 61.1374 53.0665C61.2136 53.079 61.2931 53.0612 61.3142 53.027C61.3355 52.9928 61.4503 52.9649 61.5695 52.9649C61.6888 52.9649 61.7863 52.9366 61.7863 52.9019C61.7863 52.8673 61.8997 52.8389 62.0383 52.8389C62.1769 52.8389 62.2903 52.8106 62.2903 52.7759C62.2903 52.7413 62.3877 52.7129 62.507 52.7129C62.6262 52.7129 62.7413 52.6846 62.7628 52.6499C62.7842 52.6153 62.8851 52.5869 62.987 52.5869C63.0889 52.5869 63.1723 52.5586 63.1723 52.5239C63.1723 52.4893 63.2549 52.4609 63.3561 52.4609C63.457 52.4609 63.5492 52.4395 63.5608 52.4134C63.5723 52.3872 63.7676 52.2724 63.9947 52.1582C64.3803 51.9643 64.5395 51.8522 64.9363 51.4953C65.205 51.2535 65.5935 50.7996 65.6872 50.6182C65.7364 50.5229 65.8001 50.4449 65.829 50.4449C65.8576 50.4449 65.8813 50.3882 65.8813 50.3189C65.8813 50.2496 65.9109 50.1929 65.9471 50.1929C65.9832 50.1929 66.0079 50.1575 66.0017 50.1142C65.9868 50.0066 66.1492 49.6259 66.2101 49.6259C66.2371 49.6259 66.2593 49.5237 66.2593 49.3987C66.2593 49.2298 66.2819 49.1802 66.3475 49.2052C66.4182 49.2325 66.4249 49.1994 66.3813 49.0388C66.3514 48.9285 66.3379 48.7817 66.3512 48.7124C66.3646 48.6431 66.3779 48.5226 66.3804 48.4447C66.3832 48.3623 66.4251 48.3029 66.4805 48.3029C66.5642 48.3029 66.5738 48.0298 66.5593 46.0822L66.5428 43.8614L66.149 43.8427L65.7553 43.8239V44.5944ZM54.5413 48.848C54.2929 48.8857 53.0901 49.1133 52.7773 49.1818L52.4938 49.2438L52.8088 49.2125C52.982 49.1952 53.2513 49.1558 53.4073 49.1248C54.2694 48.9536 54.5077 48.9147 54.9589 48.8718C55.4283 48.8271 55.4346 48.8246 55.0768 48.8243C54.8689 48.8243 54.6279 48.8348 54.5413 48.848ZM55.6912 48.9599C55.8211 49.0062 56.0196 49.1133 56.1322 49.1977C56.4505 49.4368 56.5453 49.4851 56.4396 49.3549C56.3182 49.2051 55.7148 48.8695 55.573 48.8728C55.508 48.8742 55.5611 48.9134 55.6912 48.9599ZM51.9583 49.3141C51.8521 49.3501 51.9033 49.3557 52.1158 49.3311C52.289 49.3111 52.4426 49.2843 52.4571 49.2714C52.5067 49.2271 52.1156 49.2605 51.9583 49.3141ZM51.3913 49.4369C51.2709 49.5147 51.4004 49.5147 51.6433 49.4369L51.8008 49.3865L51.6433 49.3812C51.5566 49.3782 51.4432 49.4034 51.3913 49.4369ZM50.7802 49.7992C50.6718 49.8945 50.5362 50.0575 50.4785 50.1614C50.3741 50.3498 50.3741 50.3498 50.4888 50.1947C50.5519 50.1091 50.7019 49.9461 50.8216 49.8324C51.0857 49.5821 51.055 49.5574 50.7802 49.7992ZM50.1709 50.8387C50.1212 51.0244 50.1284 51.392 50.1846 51.5344C50.2092 51.5964 50.2292 51.4334 50.2292 51.1721C50.2292 50.6497 50.2262 50.6325 50.1709 50.8387ZM56.7001 51.4367C56.5245 51.8311 56.1183 52.1829 55.6571 52.3401C55.4557 52.4088 55.3844 52.4538 55.4726 52.4565C55.8953 52.4694 56.8946 51.6145 56.7974 51.323C56.7864 51.2899 56.7426 51.3411 56.7001 51.4367ZM50.3866 52.0584C50.3823 52.1483 50.8778 52.7129 50.961 52.7129C50.9958 52.7129 50.9295 52.6203 50.8139 52.5072C50.6983 52.3941 50.5556 52.2311 50.4968 52.145C50.4381 52.0588 50.3885 52.0199 50.3866 52.0584ZM54.7618 52.5239L54.5728 52.572L54.7933 52.5732C54.9145 52.5739 55.0846 52.5516 55.1713 52.5239C55.3916 52.4534 55.0391 52.4534 54.7618 52.5239ZM53.2498 52.7843C52.168 52.9802 51.6188 52.9848 51.2413 52.801L51.0448 52.7054L51.2004 52.8301C51.302 52.9115 51.4991 52.9689 51.7674 52.9949C52.1411 53.0311 52.4311 53.0026 53.3758 52.8364C53.549 52.8059 53.8709 52.7532 54.0911 52.7192C54.4959 52.657 54.6904 52.5808 54.4101 52.5943C54.3263 52.5984 53.8042 52.6838 53.2498 52.7843ZM57.1243 57.628C56.9907 57.6699 57.0069 57.6783 57.2307 57.6836C57.3759 57.6871 57.5086 57.6676 57.5256 57.6403C57.5665 57.574 57.3207 57.5664 57.1243 57.628ZM56.51 57.8608C56.4747 57.9618 55.9106 58.5521 55.1971 59.2342C52.9915 61.3428 52.5919 61.7312 52.6487 61.7106C52.8195 61.6487 56.5317 58.0345 56.571 57.8922C56.6329 57.6665 56.5861 57.6424 56.51 57.8608ZM42.43 57.9112C42.4462 57.9961 42.5909 58.1829 42.7516 58.3261C42.9122 58.4692 43.5541 59.0734 44.1778 59.6688C44.8015 60.2639 45.4677 60.8891 45.6583 61.0579C46.1249 61.4715 45.2697 60.629 43.752 59.18C43.0679 58.5269 42.5083 57.9545 42.5083 57.9079C42.5083 57.8614 42.484 57.8084 42.4544 57.7901C42.4248 57.7717 42.4138 57.8263 42.43 57.9112ZM36.6808 59.0759C36.6593 59.1106 36.5743 59.1389 36.4918 59.1389C36.4092 59.1389 36.3242 59.1673 36.3028 59.2019C36.2813 59.2366 36.1963 59.2649 36.1138 59.2649C36.0312 59.2649 35.9462 59.2933 35.9248 59.3279C35.9033 59.3626 35.8304 59.3909 35.7627 59.3909C35.695 59.3909 35.5904 59.4158 35.5302 59.4462C35.3464 59.539 34.9785 59.6429 34.8336 59.6429C34.758 59.6429 34.6963 59.6713 34.6963 59.7059C34.6963 59.7406 34.6112 59.7689 34.5073 59.7689C34.4033 59.7689 34.3183 59.7973 34.3183 59.8319C34.3183 59.8666 34.2332 59.8949 34.1293 59.8949C34.0253 59.8949 33.9403 59.9233 33.9403 59.9579C33.9403 59.9926 33.8552 60.0209 33.7513 60.0209C33.6473 60.0209 33.5623 60.0493 33.5623 60.0839C33.5623 60.1186 33.4789 60.1469 33.377 60.1469C33.2751 60.1469 33.1742 60.1753 33.1528 60.2099C33.1313 60.2446 33.0304 60.2729 32.9285 60.2729C32.8266 60.2729 32.7433 60.3013 32.7433 60.3359C32.7433 60.3706 32.6582 60.3989 32.5543 60.3989C32.4503 60.3989 32.3653 60.4273 32.3653 60.4619C32.3653 60.4966 32.2802 60.5249 32.1763 60.5249C32.0723 60.5249 31.9873 60.5533 31.9873 60.5879C31.9873 60.6226 31.9022 60.6509 31.7983 60.6509C31.6943 60.6509 31.6093 60.6793 31.6093 60.7139C31.6093 60.7486 31.5118 60.7769 31.3925 60.7769C31.2733 60.7769 31.1582 60.8053 31.1368 60.8399C31.1153 60.8746 31.0144 60.9029 30.9125 60.9029C30.8106 60.9029 30.7273 60.9313 30.7273 60.9659C30.7273 61.0006 30.6422 61.0289 30.5383 61.0289C30.4343 61.0289 30.3493 61.0573 30.3493 61.0919C30.3493 61.1266 30.2922 61.1549 30.2225 61.1549C30.1527 61.1549 30.0464 61.1812 29.9862 61.2134C29.926 61.2455 29.6854 61.323 29.4515 61.3858C29.2176 61.4485 29.0263 61.5214 29.0263 61.5479C29.0263 61.5743 28.9809 61.5959 28.9256 61.5959C28.8053 61.5959 27.7439 62.1037 27.7138 62.1757C27.7021 62.2032 27.6525 62.2259 27.6036 62.2259C27.5544 62.2259 27.5143 62.2473 27.5143 62.2735C27.5143 62.2998 27.4346 62.3565 27.3371 62.3996C27.2396 62.4426 27.0991 62.5346 27.0247 62.6039C26.9504 62.6732 26.8572 62.7299 26.8176 62.7299C26.7781 62.7299 26.6664 62.815 26.5693 62.9189C26.4721 63.0229 26.3599 63.1079 26.3199 63.1079C26.2799 63.1079 26.0804 63.278 25.8763 63.4859C25.6721 63.6938 25.4776 63.8639 25.4438 63.8639C25.4101 63.8639 25.2171 64.0512 25.015 64.28C24.813 64.5087 24.5556 64.7913 24.443 64.9078C24.3304 65.0244 24.2383 65.1518 24.2383 65.191C24.2383 65.2302 24.1532 65.3417 24.0493 65.4389C23.9453 65.5361 23.8603 65.6545 23.8603 65.7023C23.8603 65.75 23.8036 65.83 23.7343 65.8799C23.665 65.9298 23.6083 66.0212 23.6083 66.0828C23.6083 66.1445 23.5799 66.1949 23.5453 66.1949C23.5106 66.1949 23.4823 66.2321 23.4823 66.2776C23.4823 66.323 23.4311 66.4151 23.3685 66.4824C23.3059 66.5495 23.214 66.6966 23.1641 66.8092C23.1143 66.9218 23.0521 67.0139 23.0258 67.0139C22.9997 67.0139 22.9783 67.0706 22.9783 67.1399C22.9783 67.2092 22.9499 67.2659 22.9153 67.2659C22.8806 67.2659 22.8523 67.3226 22.8523 67.3919C22.8523 67.4612 22.8239 67.5179 22.7893 67.5179C22.7546 67.5179 22.7263 67.5729 22.7263 67.6401C22.7263 67.7074 22.6979 67.78 22.6633 67.8014C22.6286 67.8228 22.6003 67.9096 22.6003 67.9942C22.6003 68.0788 22.5719 68.1479 22.5373 68.1479C22.5026 68.1479 22.4743 68.233 22.4743 68.3369C22.4743 68.4409 22.4459 68.5259 22.4113 68.5259C22.3766 68.5259 22.3483 68.5951 22.3483 68.6796C22.3483 68.7642 22.3199 68.851 22.2853 68.8724C22.2506 68.8938 22.2222 68.9809 22.2222 69.066C22.2222 69.151 22.1972 69.2698 22.1667 69.33C22.0537 69.5525 21.9556 70.0855 21.9233 70.6522C21.905 70.9727 21.8657 71.2349 21.8356 71.2349C21.8057 71.2349 21.7812 73.266 21.7812 75.7709C21.7812 78.7529 21.8028 80.3069 21.8442 80.3069C21.8789 80.3069 21.9072 80.3482 21.9072 80.3984C21.9072 80.5331 22.0444 80.8109 22.1109 80.8109C22.1424 80.8109 22.2108 80.8534 22.2627 80.9054C22.344 80.9867 22.7593 80.9999 25.2193 80.9999H28.0813V76.1058C28.0813 71.3404 28.0846 71.2048 28.2073 70.9514C28.5254 70.294 29.3995 70.2338 29.812 70.8407L29.9713 71.0752V76.0376V80.9999H49.5013H69.0313V76.0692C69.0313 71.3912 69.0372 71.1272 69.148 70.919C69.5072 70.2428 70.477 70.2435 70.8268 70.9201C70.9083 71.0777 70.9213 71.7773 70.9213 76.0513V80.9999H73.7646C76.9838 80.9999 76.9792 81.0005 77.0686 80.5236C77.091 80.4044 77.1345 80.3069 77.1653 80.3069C77.1975 80.3069 77.2213 78.3742 77.2213 75.7709C77.2213 73.2761 77.1972 71.2349 77.1677 71.2349C77.1383 71.2349 77.0972 70.933 77.0762 70.5638C77.0554 70.1946 77.0085 69.8629 76.9723 69.8267C76.936 69.7905 76.9063 69.653 76.9063 69.5213C76.9063 69.3896 76.8779 69.2819 76.8433 69.2819C76.8086 69.2819 76.7803 69.22 76.7803 69.1444C76.7803 68.986 76.5409 68.2717 76.4579 68.1826C76.4273 68.1497 76.4023 68.0433 76.4023 67.9463C76.4023 67.8493 76.3739 67.7699 76.3393 67.7699C76.3046 67.7699 76.2763 67.7132 76.2763 67.6439C76.2763 67.5746 76.2479 67.5179 76.2133 67.5179C76.1786 67.5179 76.1503 67.4612 76.1503 67.3919C76.1503 67.3226 76.1219 67.2659 76.0873 67.2659C76.0526 67.2659 76.0243 67.2092 76.0243 67.1399C76.0243 67.0706 76.0013 67.0139 75.9731 67.0139C75.9449 67.0139 75.8828 66.9147 75.8353 66.7934C75.7877 66.6721 75.7291 66.5729 75.7052 66.5729C75.6812 66.5729 75.6263 66.4879 75.5833 66.3839C75.5403 66.28 75.4801 66.1949 75.4495 66.1949C75.4191 66.1949 75.3943 66.1577 75.3943 66.1122C75.3943 66.0669 75.3376 65.9688 75.2683 65.8944C75.199 65.8201 75.1423 65.7268 75.1423 65.6873C75.1423 65.6478 75.0572 65.5361 74.9533 65.4389C74.8493 65.3417 74.7643 65.2312 74.7643 65.1932C74.7643 65.1551 74.7359 65.1239 74.7013 65.1239C74.6666 65.1239 74.6383 65.0943 74.6383 65.0582C74.6383 64.977 74.6594 65.0028 73.9038 64.1572C73.7597 63.9959 73.6093 63.8639 73.5695 63.8639C73.5298 63.8639 73.3304 63.6938 73.1263 63.4859C72.9221 63.278 72.7226 63.1079 72.6826 63.1079C72.6426 63.1079 72.5304 63.0229 72.4333 62.9189C72.3361 62.815 72.2217 62.7299 72.1791 62.7299C72.1365 62.7299 72.0557 62.6781 71.9997 62.6149C71.9436 62.5516 71.8056 62.4596 71.693 62.4105C71.5804 62.3614 71.4883 62.3042 71.4883 62.2834C71.4883 62.2628 71.3536 62.1779 71.189 62.0949C71.0244 62.012 70.8756 61.9295 70.8583 61.9117C70.8409 61.8939 70.7842 61.8703 70.7323 61.8589C70.6803 61.8478 70.6283 61.8123 70.6168 61.7802C70.6052 61.7482 70.5431 61.7219 70.4787 61.7219C70.4144 61.7219 70.3442 61.6936 70.3228 61.6589C70.3013 61.6243 70.2146 61.5959 70.13 61.5959C70.0454 61.5959 69.9763 61.5739 69.9763 61.5469C69.9763 61.4869 69.3001 61.2809 69.1032 61.2809C69.0243 61.2809 68.9782 61.2529 68.9998 61.2179C69.0224 61.1812 68.9583 61.1549 68.846 61.1549C68.74 61.1549 68.6533 61.1266 68.6533 61.0919C68.6533 61.0573 68.5523 61.0289 68.429 61.0289C68.2956 61.0289 68.2206 61.0034 68.2438 60.9659C68.2664 60.9292 68.2023 60.9029 68.09 60.9029C67.984 60.9029 67.8973 60.8746 67.8973 60.8399C67.8973 60.8053 67.7839 60.7769 67.6453 60.7769C67.5067 60.7769 67.3933 60.7486 67.3933 60.7139C67.3933 60.6793 67.3082 60.6509 67.2043 60.6509C67.1003 60.6509 67.0153 60.6226 67.0153 60.5879C67.0153 60.5533 66.9302 60.5249 66.8263 60.5249C66.7223 60.5249 66.6373 60.4966 66.6373 60.4619C66.6373 60.4273 66.5681 60.3989 66.4835 60.3989C66.399 60.3989 66.3122 60.3706 66.2908 60.3359C66.2693 60.3013 66.1843 60.2729 66.1018 60.2729C66.0192 60.2729 65.9342 60.2446 65.9128 60.2099C65.8913 60.1753 65.7762 60.1469 65.657 60.1469C65.5378 60.1469 65.4403 60.1186 65.4403 60.0839C65.4403 60.0493 65.3552 60.0209 65.2513 60.0209C65.1473 60.0209 65.0623 59.9926 65.0623 59.9579C65.0623 59.9233 64.9789 59.8949 64.877 59.8949C64.7751 59.8949 64.6742 59.8666 64.6528 59.8319C64.6313 59.7973 64.5446 59.7689 64.46 59.7689C64.3754 59.7689 64.3063 59.7467 64.3063 59.7196C64.3063 59.6925 64.2296 59.664 64.1358 59.6563C64.042 59.6486 63.9371 59.6139 63.9027 59.5796C63.8682 59.5451 63.7607 59.5169 63.6637 59.5169C63.5666 59.5169 63.4873 59.4886 63.4873 59.4539C63.4873 59.4193 63.4022 59.3909 63.2983 59.3909C63.1943 59.3909 63.1093 59.3626 63.1093 59.3279C63.1093 59.2933 63.0242 59.2649 62.9203 59.2649C62.8163 59.2649 62.7313 59.2366 62.7313 59.2019C62.7313 59.1673 62.632 59.1389 62.5108 59.1389C62.3777 59.1389 62.2893 59.1077 62.2877 59.0602C62.2865 59.0169 62.243 59.0791 62.1912 59.1985C62.1394 59.3178 61.9049 59.6297 61.67 59.8915C61.435 60.1532 61.1596 60.4638 61.0578 60.5816C60.9561 60.6994 60.8265 60.8412 60.7697 60.8966C60.7131 60.9521 60.4296 61.2683 60.1398 61.5995C59.5365 62.2886 57.9573 64.0882 57.6286 64.4608C56.4089 65.8435 55.8627 66.1458 54.5728 66.1519L53.8168 66.1555L52.5883 65.7331C51.9126 65.5007 50.9699 65.1789 50.4935 65.0181C49.5469 64.6984 49.5383 64.6906 49.8229 64.4246C49.9306 64.3241 49.9956 64.2419 49.9676 64.2419C49.9397 64.2419 49.8229 64.3328 49.7082 64.444L49.4998 64.6461L49.1225 64.2726C48.915 64.0674 48.7453 63.9233 48.7453 63.9526C48.7453 63.9817 48.887 64.1343 49.0603 64.2914C49.4912 64.6824 49.488 64.6865 48.509 65.0179C48.0326 65.179 47.0191 65.5257 46.2568 65.7881C44.91 66.2515 44.8537 66.265 44.2723 66.2649C43.1521 66.2644 42.679 65.9743 41.4363 64.5254C41.1093 64.1443 40.8258 63.8182 40.8062 63.8009C40.7865 63.7836 40.4885 63.4434 40.1439 63.0449C39.7993 62.6464 39.5022 62.3062 39.4838 62.2889C39.4309 62.2393 37.7379 60.3071 37.2292 59.7157C36.9764 59.4218 36.7842 59.1435 36.802 59.0972C36.8394 58.9997 36.7387 58.982 36.6808 59.0759ZM46.9664 62.3077C47.3385 62.6646 47.827 63.1219 48.0523 63.324C48.2775 63.5262 47.994 63.2352 47.4223 62.6773C46.8505 62.1194 46.362 61.6621 46.3365 61.661C46.3109 61.6599 46.5944 61.9509 46.9664 62.3077ZM51.3528 62.9038C50.7946 63.4492 50.5253 63.7266 50.7543 63.5204C51.4007 62.9381 52.4583 61.9109 52.4106 61.9115C52.3871 61.9119 51.911 62.3584 51.3528 62.9038ZM41.6828 71.1426L41.8783 71.3653V73.1303C41.8783 75.0696 41.8605 75.1751 41.5023 75.3603C41.2623 75.4846 33.9929 75.5058 33.7235 75.3832C33.3608 75.2179 33.3435 75.1299 33.3219 73.3454C33.2999 71.5101 33.3125 71.3798 33.5388 71.1108L33.6994 70.9199H37.5933H41.4872L41.6828 71.1426Z" fill="#F94C45"/>
<path fill-rule="evenodd" clip-rule="evenodd" d="M57.8801 31.2347C57.6549 31.4043 57.4422 31.5662 57.4076 31.5944C56.7455 32.134 53.647 33.9894 52.0526 34.8008C48.9513 36.3793 45.1366 37.6961 42.6971 38.0305C42.4372 38.0661 41.9269 38.1437 41.5631 38.203C40.2013 38.4247 36.8526 38.3403 35.7189 38.0559L35.5625 38.0165L35.5992 40.1516C35.6194 41.3259 35.6633 42.4426 35.6967 42.6331C35.7302 42.8237 35.7869 43.1639 35.8228 43.3891C36.2947 46.3467 38.6534 50.2372 40.9016 51.7661C41.0748 51.8839 41.2308 51.9987 41.2481 52.0211C41.3643 52.1713 42.6298 52.9445 43.3586 53.3105L43.8626 53.5636L43.8809 54.125C43.8917 54.4552 43.8724 54.7131 43.8336 54.7518C43.796 54.7894 43.7681 55.1199 43.7681 55.5292C43.7681 55.9619 43.7434 56.2411 43.7051 56.2411C43.6704 56.2411 43.6415 56.3191 43.6407 56.4144C43.6399 56.5097 43.5838 56.6585 43.5161 56.7451C43.4484 56.8318 43.3923 56.9311 43.3915 56.9659C43.3891 57.0691 42.6995 57.7621 42.6372 57.7237C42.6059 57.7041 42.5602 57.7509 42.536 57.8273C42.4879 57.979 42.7484 58.2467 45.2218 60.5881C45.8624 61.1945 47.0746 62.3427 47.9157 63.1396C48.7569 63.9366 49.4696 64.5886 49.4997 64.5886C49.5631 64.5886 49.9482 64.2402 50.9194 63.3042C51.3008 62.9365 52.123 62.1542 52.7464 61.5659C53.3696 60.9775 54.1051 60.2829 54.3808 60.0224C56.1063 58.3916 56.5102 57.9662 56.4659 57.8264C56.4418 57.7505 56.3971 57.7037 56.3665 57.7226C56.3059 57.7601 55.6151 57.0675 55.6115 56.9656C55.6104 56.931 55.5538 56.8318 55.4861 56.7451C55.4184 56.6585 55.3623 56.5097 55.3615 56.4144C55.3607 56.3191 55.3317 56.2411 55.2971 56.2411C55.2587 56.2411 55.2341 55.9513 55.2341 55.4977C55.2341 55.0657 55.2065 54.7268 55.1684 54.6887C55.1301 54.6504 55.1105 54.4045 55.1212 54.0999L55.1396 53.5769L55.7696 53.2552C57.206 52.5219 59.5663 50.782 58.9511 50.9099C58.8645 50.9279 58.4392 51.0019 58.0061 51.0743C56.8341 51.2701 56.8797 51.2558 56.7729 51.4621C56.4755 52.0371 55.9376 52.392 55.1711 52.5186C54.9112 52.5616 54.5852 52.6208 54.4466 52.6501C54.308 52.6794 53.982 52.7361 53.7221 52.7761C53.4622 52.8161 53.122 52.8815 52.9661 52.9213C52.4509 53.0533 51.4467 53.0133 51.2199 52.8519C51.1128 52.7755 50.9966 52.7131 50.9614 52.7131C50.7093 52.7131 50.1289 51.6401 50.1305 51.1769C50.133 50.476 50.6868 49.6995 51.3596 49.4538C51.565 49.3787 51.6484 49.3618 52.6826 49.1862C53.0637 49.1215 53.6024 49.0191 53.8796 48.9588C55.0141 48.7118 55.8348 48.8226 56.3824 49.2968C56.4549 49.3596 56.5601 49.3787 56.6974 49.3541C56.9168 49.3149 58.2042 49.0916 58.5731 49.0287C58.6944 49.0081 58.9353 48.9643 59.1086 48.9312C59.2818 48.8982 59.7071 48.8245 60.0536 48.7671C60.4001 48.7099 60.7754 48.6458 60.8876 48.6249C61.0644 48.5917 61.1362 48.511 61.426 48.0196C61.7962 47.3923 62.4161 46.1539 62.4161 46.0419C62.4161 46.0027 62.4411 45.9213 62.4717 45.8611C62.6139 45.5817 62.6914 45.3566 62.9884 44.3612C63.0201 44.2547 63.0461 44.1076 63.0461 44.0341C63.0461 43.9607 63.0703 43.8856 63.1001 43.8671C63.1297 43.8489 63.1733 43.6841 63.1968 43.5013C63.2203 43.3183 63.2704 42.9985 63.308 42.7906C63.3488 42.5657 63.3872 41.1196 63.403 39.2195L63.4294 36.0265L62.97 35.8022C61.6384 35.1525 60.7135 34.426 59.7512 33.274C59.494 32.9661 58.9719 32.085 58.6862 31.4763C58.3803 30.8254 58.4113 30.8346 57.8801 31.2347Z" fill="#F9D7A5"/>
<path fill-rule="evenodd" clip-rule="evenodd" d="M66.498 36.1599L66.4801 36.8056L66.2596 36.797C65.9557 36.7852 65.0706 36.616 64.8421 36.5261C64.7728 36.4988 64.6027 36.4424 64.4641 36.4007C64.3255 36.359 64.1483 36.2983 64.0703 36.266C63.7761 36.1438 63.6418 36.0915 63.5375 36.0583C63.4373 36.0265 63.4282 36.2424 63.4035 39.2184C63.3877 41.1192 63.3493 42.5657 63.3085 42.7906C63.2708 42.9985 63.2209 43.3175 63.1974 43.4994L63.1549 43.8301H63.4787H63.8026V44.944C63.8026 46.1295 63.7788 46.2701 63.4687 46.9171C63.0058 47.8832 62.1453 48.4479 60.8416 48.6411C60.4598 48.6977 59.4371 48.869 59.1091 48.9314C58.9358 48.9643 58.6948 49.0081 58.5736 49.0287C58.2061 49.0913 56.9179 49.3147 56.6969 49.3543C56.5831 49.3748 56.4982 49.4088 56.5083 49.43C56.5185 49.4513 56.6084 49.6242 56.7083 49.8142C56.8981 50.1758 56.9606 50.7582 56.8526 51.1592C56.8214 51.2748 56.8269 51.3238 56.8683 51.2983C56.9034 51.2766 57.3227 51.1918 57.8001 51.1099C58.2775 51.028 59.1784 50.8708 59.8021 50.7604C60.4258 50.6502 61.092 50.5357 61.2826 50.5061C64.23 50.0489 65.7556 48.0306 65.7556 44.5886V43.8122L66.3856 43.8555C66.8096 43.8848 67.0156 43.8774 67.0156 43.833C67.0156 43.7967 67.0811 43.7671 67.1612 43.7671C67.2413 43.7671 67.3677 43.7104 67.4421 43.6411C67.5164 43.5718 67.5923 43.5151 67.6108 43.5151C67.6766 43.5151 67.8976 43.2967 67.8976 43.2315C67.8976 43.1949 67.9543 43.1241 68.0236 43.0741C68.0929 43.0242 68.1496 42.9328 68.1496 42.8713C68.1496 42.8095 68.1779 42.7591 68.2126 42.7591C68.2472 42.7591 68.2756 42.6333 68.2756 42.4794C68.2756 42.3255 68.3039 42.182 68.3386 42.1606C68.3787 42.1357 68.4016 41.2582 68.4016 39.7351C68.4016 38.2121 68.3787 37.3345 68.3386 37.3096C68.3039 37.2882 68.2756 37.1465 68.2756 36.9946C68.2756 36.8428 68.2472 36.701 68.2126 36.6796C68.1779 36.6582 68.1496 36.5856 68.1496 36.5183C68.1496 36.4511 68.1212 36.3961 68.0866 36.3961C68.0519 36.3961 68.0236 36.356 68.0236 36.3067C68.0236 36.0517 67.1633 35.5141 66.7551 35.5141H66.516L66.498 36.1599ZM31.5464 35.7545C31.2988 35.9087 30.9796 36.2238 30.9796 36.3139C30.9796 36.3591 30.9512 36.3961 30.9166 36.3961C30.8819 36.3961 30.8536 36.4511 30.8536 36.5183C30.8536 36.5856 30.8252 36.6582 30.7906 36.6796C30.7559 36.701 30.7276 36.8428 30.7276 36.9946C30.7276 37.1465 30.6992 37.2882 30.6646 37.3096C30.6244 37.3345 30.6016 38.2016 30.6016 39.7036C30.6016 41.2057 30.6244 42.0727 30.6646 42.0976C30.6992 42.119 30.7276 42.2608 30.7276 42.4126C30.7276 42.5645 30.7559 42.7062 30.7906 42.7276C30.8252 42.749 30.8536 42.8154 30.8536 42.8749C30.8536 42.9346 30.9103 43.0242 30.9796 43.0741C31.0489 43.1241 31.1056 43.1979 31.1056 43.2382C31.1056 43.2786 31.1783 43.3594 31.2672 43.4176C31.3561 43.4758 31.4809 43.568 31.5445 43.6225C31.6987 43.7545 31.8995 43.7692 34.0473 43.8049L35.8865 43.8355L35.8537 43.5966C35.8356 43.4652 35.7951 43.2159 35.7635 43.0426C35.639 42.3583 35.5787 41.2678 35.5786 39.6987V38.0559L34.9013 37.8889C34.0642 37.6824 33.062 37.3551 32.3971 37.071L31.8931 36.8557L31.8745 36.3648C31.8515 35.7576 31.7737 35.6129 31.5464 35.7545Z" fill="#3E6483"/>
<path fill-rule="evenodd" clip-rule="evenodd" d="M54.4162 48.9371C53.5988 49.0875 53.3767 49.1267 52.6585 49.2466C51.3098 49.4717 51.1141 49.5388 50.7542 49.8987C49.6988 50.9541 50.3007 52.7502 51.7708 52.9319C52.4134 53.0115 55.6288 52.4284 56.0775 52.1511C56.8164 51.6945 57.1224 50.6079 56.7288 49.838C56.3402 49.0779 55.4771 48.7417 54.4162 48.9371ZM41.5012 57.627C41.5012 57.6617 41.402 57.69 41.2807 57.69C41.1594 57.69 41.0602 57.7184 41.0602 57.753C41.0602 57.7877 40.9769 57.816 40.875 57.816C40.7731 57.816 40.6721 57.8444 40.6507 57.879C40.6293 57.9137 40.5283 57.942 40.4264 57.942C40.3245 57.942 40.2412 57.9704 40.2412 58.005C40.2412 58.0397 40.1562 58.068 40.0522 58.068C39.9483 58.068 39.8632 58.0964 39.8632 58.131C39.8632 58.1657 39.7782 58.194 39.6742 58.194C39.5703 58.194 39.4852 58.2224 39.4852 58.257C39.4852 58.2917 39.4002 58.32 39.2962 58.32C39.1923 58.32 39.1072 58.3484 39.1072 58.383C39.1072 58.4177 39.0103 58.446 38.8919 58.446C38.7736 58.446 38.6673 58.4741 38.6557 58.5085C38.6442 58.5429 38.5567 58.5774 38.4615 58.5852C38.3662 58.5931 38.2882 58.6216 38.2882 58.6487C38.2882 58.6758 38.2049 58.698 38.103 58.698C38.0011 58.698 37.9 58.7265 37.8784 58.7615C37.8568 58.7965 37.7718 58.8128 37.6894 58.7979C37.6069 58.7829 37.5308 58.7966 37.5201 58.8283C37.5094 58.8599 37.4227 58.8924 37.3275 58.9002C37.2322 58.9081 37.1542 58.9347 37.1542 58.9596C37.1542 58.9844 37.0785 59.0136 36.9858 59.0245C36.6428 59.0652 36.6118 59.0215 38.5705 61.2538C39.0548 61.8058 39.4663 62.2717 39.4847 62.289C39.5032 62.3063 39.8002 62.6465 40.1448 63.045C40.4894 63.4435 40.7874 63.7837 40.8071 63.801C40.8268 63.8183 41.1103 64.1444 41.4373 64.5255C42.4308 65.6838 42.5913 65.8159 43.4227 66.1604C44.0266 66.4105 44.7101 66.3207 46.2577 65.7882C47.02 65.5258 48.0335 65.1791 48.51 65.018C48.9864 64.8567 49.3762 64.6942 49.3762 64.6567C49.3762 64.6192 49.0147 64.2483 48.573 63.8325C47.6006 62.9173 46.6819 62.0422 46.2909 61.659C46.132 61.5031 45.8468 61.235 45.6573 61.0632C45.4677 60.8915 44.8024 60.2645 44.1787 59.6701C43.555 59.0755 42.9096 58.4648 42.7445 58.3128C42.5428 58.1271 42.4402 57.9798 42.4316 57.8633C42.4209 57.7188 42.3895 57.69 42.2435 57.69C42.1471 57.69 42.0682 57.6617 42.0682 57.627C42.0682 57.5924 41.9406 57.564 41.7847 57.564C41.6288 57.564 41.5012 57.5924 41.5012 57.627ZM56.9362 57.627C56.9362 57.6617 56.8937 57.69 56.8417 57.69C56.7897 57.69 56.7467 57.7255 56.7463 57.7688C56.7456 57.8234 56.7278 57.82 56.6881 57.7571C56.644 57.6877 56.6188 57.7114 56.5788 57.86C56.5415 57.9984 56.09 58.4682 54.9832 59.5199C54.1343 60.3266 52.9294 61.4716 52.3057 62.0643C51.682 62.6571 50.9752 63.3257 50.7348 63.5503C50.01 64.2275 49.6282 64.6143 49.6282 64.6714C49.6282 64.7011 50.018 64.8572 50.4945 65.0182C50.9709 65.179 51.9135 65.5008 52.5892 65.7332L53.8177 66.1556L54.5737 66.152C55.8636 66.1459 56.4098 65.8436 57.6295 64.4609C57.9582 64.0883 59.5375 62.2887 60.1407 61.5996C60.4305 61.2684 60.714 60.9522 60.7707 60.8967C60.8274 60.8413 60.957 60.6995 61.0588 60.5817C61.1605 60.4639 61.4331 60.1549 61.6647 59.895C62.2764 59.208 62.3593 59.013 62.0392 59.013C61.9353 59.013 61.8502 58.9799 61.8502 58.9395C61.8502 58.8992 61.8338 58.8823 61.814 58.9023C61.794 58.9221 61.6877 58.911 61.5777 58.8771C61.4676 58.8434 61.3431 58.8091 61.3008 58.8007C61.2585 58.7925 61.2041 58.7659 61.18 58.7418C61.1559 58.7177 61.0559 58.698 60.9577 58.698C60.8595 58.698 60.7792 58.6697 60.7792 58.635C60.7792 58.6004 60.6641 58.572 60.5234 58.572C60.3828 58.572 60.2826 58.5479 60.3009 58.5185C60.319 58.4892 60.2432 58.4626 60.1325 58.4594C60.0218 58.4563 59.9212 58.4235 59.909 58.3868C59.8967 58.3501 59.7756 58.32 59.64 58.32C59.5042 58.32 59.3932 58.2917 59.3932 58.257C59.3932 58.2224 59.3082 58.194 59.2042 58.194C59.1003 58.194 59.0152 58.1657 59.0152 58.131C59.0152 58.0964 58.9302 58.068 58.8262 58.068C58.7223 58.068 58.6372 58.0397 58.6372 58.005C58.6372 57.9704 58.5862 57.942 58.5238 57.942C58.4614 57.942 58.3723 57.9066 58.3255 57.8633C58.2567 57.7993 58.2501 57.8022 58.2907 57.879C58.3313 57.9559 58.3247 57.9587 58.2559 57.8948C58.2091 57.8515 58.12 57.816 58.0576 57.816C57.9952 57.816 57.9442 57.7877 57.9442 57.753C57.9442 57.7184 57.8648 57.69 57.7678 57.69C57.6708 57.69 57.5533 57.6546 57.5065 57.6113C57.4386 57.5483 57.4306 57.5483 57.4662 57.6113C57.499 57.6694 57.4393 57.6884 57.2392 57.6837C57.0098 57.6784 56.9921 57.6697 57.1252 57.627L57.2827 57.5766L57.1095 57.5703C57.0142 57.5669 56.9362 57.5924 56.9362 57.627ZM28.57 70.5562C28.058 70.8529 28.0822 70.5765 28.0822 76.1059V81H29.0272H29.9722V76.0377V71.0753L29.813 70.8408C29.5191 70.4085 29.0214 70.2944 28.57 70.5562ZM69.4732 70.5578C69.007 70.8759 69.0322 70.5619 69.0322 76.0693V81H69.9772H70.9222V76.0514C70.9222 70.5932 70.9446 70.8986 70.5226 70.5768C70.2409 70.3618 69.7726 70.3533 69.4732 70.5578Z" fill="#D4145B"/>
</g>
<defs>
<clipPath id="clip0_1001_808">
<rect width="63" height="63" fill="white" transform="translate(18 18)"/>
</clipPath>
</defs>
</svg>
