<svg width="100" height="100" viewBox="0 0 100 100" fill="none" xmlns="http://www.w3.org/2000/svg">
<rect width="100" height="100" fill="#F6F6F6"/>
<path fill-rule="evenodd" clip-rule="evenodd" d="M48.8636 35.8674C48.304 36.0811 47.8866 36.516 47.6687 37.1123C47.5512 37.4335 47.5462 37.6551 47.5462 42.5089V47.5707L43.4944 47.5713C40.1074 47.5719 39.3923 47.5872 39.1363 47.665C37.3379 48.2106 37.239 50.6898 38.9896 51.3447C39.5315 51.5474 49.571 51.5594 50.122 51.3581C50.7414 51.1315 51.1682 50.6888 51.3587 50.0751C51.4501 49.7799 51.4588 49.1075 51.4425 43.5031L51.4246 37.2599L51.2612 36.913C50.8428 36.0249 49.7261 35.5381 48.8636 35.8674Z" fill="#FBCB04"/>
<path fill-rule="evenodd" clip-rule="evenodd" d="M46.0788 18.0412C45.7753 18.0527 45.527 18.0871 45.527 18.1177C45.527 18.1481 45.3355 18.1888 45.1014 18.2078C44.2308 18.2793 43.9173 18.3221 43.859 18.3781C43.8261 18.4098 43.6788 18.4357 43.5317 18.4357C43.3846 18.4357 43.2467 18.464 43.2252 18.4987C43.2038 18.5334 43.0619 18.5618 42.9099 18.5618C42.7579 18.5618 42.616 18.5902 42.5946 18.6249C42.5732 18.6595 42.4437 18.6879 42.307 18.6879C42.1703 18.6879 42.0586 18.7163 42.0586 18.751C42.0586 18.7857 41.961 18.814 41.8416 18.814C41.7223 18.814 41.607 18.8424 41.5856 18.8771C41.5641 18.9118 41.4489 18.9402 41.3296 18.9402C41.2102 18.9402 41.1126 18.9685 41.1126 19.0032C41.1126 19.0379 41.0292 19.0663 40.9272 19.0663C40.8252 19.0663 40.7241 19.0947 40.7027 19.1294C40.6813 19.164 40.5819 19.1924 40.482 19.1924C40.382 19.1924 40.2827 19.2208 40.2613 19.2555C40.2398 19.2902 40.1536 19.3185 40.0697 19.3185C39.9103 19.3185 39.017 19.5916 38.8274 19.6983C38.7671 19.7322 38.6803 19.76 38.6344 19.76C38.5884 19.76 38.4332 19.8167 38.2896 19.8861C38.1461 19.9555 37.9705 20.0122 37.8994 20.0122C37.8284 20.0122 37.7703 20.0337 37.7703 20.0599C37.7703 20.1062 37.6583 20.16 37.2027 20.3318C37.0813 20.3775 36.889 20.4663 36.7751 20.5289C36.6613 20.5916 36.5265 20.6429 36.4756 20.6429C36.4247 20.6429 36.3829 20.6651 36.3829 20.6922C36.3829 20.7193 36.2552 20.7792 36.0991 20.8253C35.943 20.8713 35.8153 20.9342 35.8153 20.9651C35.8153 20.996 35.7657 21.0219 35.705 21.0227C35.6443 21.0235 35.5237 21.0796 35.4369 21.1474C35.3502 21.2152 35.2296 21.2713 35.1689 21.2721C35.1082 21.2729 35.0586 21.3019 35.0586 21.3366C35.0586 21.3712 35.0018 21.3996 34.9324 21.3996C34.8631 21.3996 34.8063 21.4261 34.8063 21.4586C34.8063 21.4911 34.707 21.5535 34.5856 21.5973C34.4642 21.6413 34.3649 21.7 34.3649 21.7276C34.3649 21.7553 34.3223 21.778 34.2703 21.778C34.2182 21.778 34.1757 21.8064 34.1757 21.8411C34.1757 21.8758 34.1358 21.9041 34.0869 21.9041C33.9693 21.9041 33.357 22.2202 33.2021 22.3607C33.1348 22.4217 33.0426 22.4717 32.9972 22.4717C32.9516 22.4717 32.9144 22.5001 32.9144 22.5348C32.9144 22.5694 32.8763 22.5978 32.8296 22.5978C32.7829 22.5978 32.6934 22.6546 32.6306 22.724C32.5679 22.7933 32.4783 22.8501 32.4317 22.8501C32.385 22.8501 32.3468 22.8785 32.3468 22.9131C32.3468 22.9478 32.3096 22.9762 32.2641 22.9762C32.2187 22.9762 32.1205 23.033 32.046 23.1023C31.9716 23.1717 31.8732 23.2285 31.8274 23.2285C31.7815 23.2285 31.7031 23.2852 31.6532 23.3546C31.6032 23.424 31.5256 23.4807 31.481 23.4807C31.4364 23.4807 31.3107 23.5658 31.2018 23.6699C31.0928 23.774 30.9718 23.8591 30.9325 23.8591C30.8932 23.8591 30.8202 23.9158 30.7703 23.9852C30.7203 24.0546 30.6575 24.1113 30.6309 24.1113C30.5846 24.1113 30.407 24.2446 30.2317 24.4109C30.186 24.4542 30.1327 24.4897 30.1132 24.4897C30.0936 24.4897 30.0135 24.5447 29.9352 24.6121C29.8568 24.6792 29.7245 24.7927 29.6413 24.8643C29.5579 24.9357 29.471 24.9942 29.4483 24.9942C29.4256 24.9942 29.264 25.129 29.0893 25.2938C28.7313 25.6316 28.5132 25.814 28.4677 25.814C28.4508 25.814 28.1524 26.1049 27.8047 26.4604C27.0505 27.2315 27.2028 27.0789 26.426 27.8421C26.0752 28.1868 25.7883 28.4813 25.7883 28.4966C25.7883 28.5404 25.5909 28.7714 25.2978 29.0703C25.1496 29.2217 25.0452 29.3456 25.0659 29.3456C25.0867 29.3456 25.0661 29.3872 25.0203 29.438C24.9076 29.5628 24.8397 29.6486 24.6197 29.9434C24.3839 30.2595 24.2644 30.4094 24.1644 30.5148C24.1211 30.5605 24.0856 30.622 24.0856 30.6515C24.0856 30.6809 24.0288 30.746 23.9595 30.796C23.8901 30.846 23.8333 30.9261 23.8333 30.9739C23.8333 31.0216 23.7482 31.1402 23.6441 31.2375C23.5401 31.3347 23.455 31.4533 23.455 31.5011C23.455 31.5488 23.3982 31.6289 23.3288 31.6789C23.2595 31.7289 23.2027 31.8072 23.2027 31.8531C23.2027 31.899 23.1459 31.9974 23.0766 32.0718C23.0072 32.1462 22.9505 32.2444 22.9505 32.2898C22.9505 32.3354 22.9221 32.3726 22.8874 32.3726C22.8527 32.3726 22.8243 32.4108 22.8243 32.4574C22.8243 32.5041 22.7676 32.5936 22.6982 32.6564C22.6288 32.7191 22.5721 32.8087 22.5721 32.8553C22.5721 32.902 22.547 32.9402 22.5164 32.9402C22.4857 32.9402 22.4448 32.9898 22.4256 33.0505C22.3884 33.1681 22.1866 33.5181 22.1257 33.5708C22.0606 33.6271 21.8784 34.0293 21.8784 34.1165C21.8784 34.1633 21.85 34.2014 21.8153 34.2014C21.7806 34.2014 21.7523 34.244 21.7523 34.296C21.7523 34.3481 21.731 34.3908 21.705 34.3908C21.6789 34.3909 21.5867 34.547 21.5 34.7375C21.4133 34.9279 21.3211 35.084 21.295 35.0842C21.269 35.0842 21.2471 35.134 21.2463 35.1947C21.2455 35.2554 21.1894 35.376 21.1216 35.4627C21.0538 35.5494 20.9977 35.67 20.9969 35.7307C20.9961 35.7914 20.9671 35.8411 20.9324 35.8411C20.8977 35.8411 20.8694 35.8698 20.8694 35.9048C20.8694 35.9689 20.7554 36.2358 20.4202 36.9565C20.3204 37.1711 20.2387 37.3711 20.2387 37.4011C20.2387 37.4957 20.0831 37.7951 20.0338 37.7956C20.0078 37.7959 19.9865 37.8662 19.9865 37.9518C19.9865 38.0374 19.9297 38.2086 19.8604 38.3321C19.791 38.4555 19.7342 38.5987 19.7342 38.6502C19.7342 38.7016 19.7065 38.7929 19.6726 38.8531C19.5659 39.0428 19.2928 39.9361 19.2928 40.0955C19.2928 40.1793 19.2644 40.2656 19.2297 40.287C19.195 40.3085 19.1667 40.4078 19.1667 40.5077C19.1667 40.6077 19.1383 40.707 19.1036 40.7285C19.0689 40.7499 19.0405 40.851 19.0405 40.953C19.0405 41.055 19.0122 41.1384 18.9775 41.1384C18.9428 41.1384 18.9144 41.236 18.9144 41.3553C18.9144 41.4746 18.886 41.5899 18.8514 41.6113C18.8167 41.6328 18.7883 41.748 18.7883 41.8674C18.7883 41.9867 18.7599 42.0843 18.7252 42.0843C18.6905 42.0843 18.6622 42.2262 18.6622 42.3996C18.6622 42.573 18.6338 42.7149 18.5991 42.7149C18.5644 42.7149 18.536 42.8267 18.536 42.9634C18.536 43.1001 18.5077 43.2295 18.473 43.251C18.4383 43.2724 18.4099 43.4143 18.4099 43.5663C18.4099 43.7183 18.3815 43.8602 18.3468 43.8816C18.3122 43.903 18.2838 44.0892 18.2838 44.2953C18.2838 44.5029 18.2557 44.6699 18.2207 44.6699C18.1854 44.6699 18.1577 44.8444 18.1577 45.0672C18.1577 45.301 18.1252 45.497 18.0788 45.5433C18.0175 45.6047 18 46.4897 18 49.5395C18 52.6171 18.0169 53.4623 18.0788 53.483C18.1318 53.5006 18.1577 53.6526 18.1577 53.9454C18.1577 54.1942 18.1848 54.3816 18.2207 54.3816C18.2557 54.3816 18.2838 54.5486 18.2838 54.7562C18.2838 54.9623 18.3122 55.1485 18.3468 55.1699C18.3815 55.1913 18.4099 55.335 18.4099 55.489C18.4099 55.643 18.4383 55.769 18.473 55.769C18.5077 55.769 18.536 55.8967 18.536 56.0528C18.536 56.2089 18.5644 56.3366 18.5991 56.3366C18.6338 56.3366 18.6622 56.4785 18.6622 56.6519C18.6622 56.8253 18.6905 56.9672 18.7252 56.9672C18.7599 56.9672 18.7883 57.0807 18.7883 57.2194C18.7883 57.3582 18.8167 57.4717 18.8514 57.4717C18.886 57.4717 18.9144 57.5551 18.9144 57.6571C18.9144 57.7591 18.9428 57.8602 18.9775 57.8816C19.0122 57.903 19.0405 58.0183 19.0405 58.1376C19.0405 58.257 19.0689 58.3546 19.1036 58.3546C19.1383 58.3546 19.1667 58.4397 19.1667 58.5438C19.1667 58.6478 19.195 58.733 19.2297 58.733C19.2644 58.733 19.2928 58.8186 19.2928 58.9233C19.2928 59.169 19.6486 60.2388 19.9327 60.8467C19.9654 60.9167 19.9969 61.0373 20.0027 61.1147C20.0086 61.1921 20.0357 61.2555 20.063 61.2555C20.0902 61.2555 20.1126 61.3122 20.1126 61.3816C20.1126 61.451 20.141 61.5077 20.1757 61.5077C20.2104 61.5077 20.2387 61.5628 20.2387 61.6301C20.2387 61.6974 20.2671 61.7701 20.3018 61.7915C20.3365 61.813 20.3649 61.8998 20.3649 61.9845C20.3649 62.0692 20.3861 62.1385 20.4122 62.1388C20.4688 62.1395 20.6171 62.4449 20.6171 62.5609C20.6171 62.606 20.6455 62.6429 20.6802 62.6429C20.7149 62.6429 20.7432 62.7138 20.7432 62.8005C20.7432 62.8872 20.7716 62.9582 20.8063 62.9582C20.841 62.9582 20.8694 62.9981 20.8694 63.0468C20.8694 63.1518 21.1323 63.6741 21.2005 63.7044C21.2265 63.7161 21.2477 63.7799 21.2477 63.8463C21.2477 63.9128 21.269 63.9674 21.295 63.9677C21.3526 63.9683 21.5 64.2745 21.5 64.3933C21.5 64.4405 21.5236 64.4646 21.5523 64.4468C21.5812 64.429 21.6433 64.5124 21.6903 64.6322C21.7373 64.752 21.7989 64.8501 21.8271 64.8501C21.8554 64.8501 21.8804 64.8997 21.883 64.9604C21.8855 65.0211 21.9419 65.1559 22.0084 65.26C22.0748 65.364 22.1489 65.4917 22.1729 65.5438C22.218 65.6418 22.4124 65.9598 22.6932 66.3951C22.7827 66.5339 22.8771 66.6568 22.9032 66.6683C22.9292 66.68 22.9505 66.7243 22.9505 66.7669C22.9505 66.8095 23.0001 66.8993 23.0608 66.9666C23.1215 67.0338 23.2114 67.1669 23.2607 67.2622C23.3099 67.3576 23.3738 67.4357 23.4026 67.4357C23.4313 67.4357 23.455 67.4811 23.455 67.5366C23.455 67.5919 23.533 67.7125 23.6284 67.8046C23.7238 67.8965 23.842 68.0497 23.8914 68.1451C23.9405 68.2405 24.0044 68.3186 24.0332 68.3186C24.0619 68.3186 24.0856 68.3542 24.0856 68.3977C24.0856 68.4412 24.1991 68.5974 24.3378 68.7447C24.4766 68.892 24.5901 69.0286 24.5901 69.0483C24.5901 69.0682 24.6256 69.1224 24.6689 69.169C24.7892 69.2982 25.0388 69.6306 25.0517 69.6788C25.0579 69.7023 25.2262 69.8947 25.4257 70.1062C25.6251 70.3178 25.7883 70.5133 25.7883 70.5407C25.7883 70.5682 26.0792 70.8731 26.4347 71.2183C26.7902 71.5636 27.1014 71.8684 27.1263 71.8955C27.5118 72.3147 28.4453 73.2375 28.4841 73.2375C28.5123 73.2375 28.6777 73.3723 28.8514 73.537C29.0252 73.7018 29.2798 73.9141 29.4171 74.0089C29.5543 74.1035 29.7423 74.2454 29.8347 74.3242C30.2073 74.6411 30.2692 74.6879 30.3156 74.6879C30.3422 74.6879 30.405 74.7447 30.455 74.814C30.5049 74.8834 30.5759 74.9402 30.6126 74.9402C30.6493 74.9402 30.7203 74.9969 30.7703 75.0663C30.8202 75.1357 30.8904 75.1924 30.926 75.1924C30.9618 75.1926 31.0734 75.2635 31.1742 75.3501C31.2749 75.4368 31.3769 75.5077 31.4009 75.5077C31.4249 75.5077 31.5269 75.5787 31.6276 75.6654C31.7284 75.7519 31.8463 75.8229 31.8896 75.8231C31.933 75.8231 31.9685 75.8467 31.9685 75.8754C31.9685 75.9042 32.0465 75.9681 32.1419 76.0173C32.2373 76.0665 32.3295 76.121 32.3468 76.1384C32.3861 76.1781 32.7415 76.4094 33.3559 76.7952C33.616 76.9587 33.9069 77.1083 34.0023 77.1277C34.0976 77.1472 34.1757 77.1862 34.1757 77.2142C34.1757 77.2423 34.2734 77.3008 34.3931 77.344C34.5126 77.3872 34.596 77.4458 34.5785 77.4742C34.561 77.5026 34.5881 77.5258 34.639 77.5258C34.7273 77.5258 35.2451 77.7714 35.3108 77.8445C35.3707 77.9112 35.9405 78.1564 36.0354 78.1564C36.0877 78.1564 36.1306 78.1848 36.1306 78.2195C36.1306 78.2541 36.1874 78.2825 36.2568 78.2825C36.3261 78.2825 36.3829 78.3109 36.3829 78.3456C36.3829 78.3803 36.4396 78.4086 36.509 78.4086C36.5784 78.4086 36.6351 78.437 36.6351 78.4717C36.6351 78.5064 36.6919 78.5348 36.7613 78.5348C36.8306 78.5348 36.8874 78.5579 36.8874 78.5865C36.8874 78.6149 37.0293 78.6767 37.2027 78.724C37.3761 78.7713 37.518 78.828 37.518 78.8501C37.518 78.8722 37.6599 78.9289 37.8333 78.9762C38.0068 79.0235 38.1487 79.0853 38.1487 79.1137C38.1487 79.1422 38.2139 79.1654 38.2937 79.1654C38.3735 79.1654 38.4657 79.1898 38.4987 79.2198C38.604 79.3152 39.9122 79.733 40.106 79.733C40.2088 79.733 40.2928 79.7613 40.2928 79.796C40.2928 79.8307 40.3762 79.8591 40.4782 79.8591C40.5802 79.8591 40.6813 79.8875 40.7027 79.9222C40.7241 79.9568 40.8093 79.9852 40.8919 79.9852C40.9745 79.9852 41.0596 80.0136 41.0811 80.0483C41.1025 80.083 41.2178 80.1113 41.3371 80.1113C41.4565 80.1113 41.5541 80.1397 41.5541 80.1744C41.5541 80.2091 41.6676 80.2375 41.8063 80.2375C41.945 80.2375 42.0586 80.2659 42.0586 80.3005C42.0586 80.3352 42.2005 80.3636 42.3739 80.3636C42.5473 80.3636 42.6892 80.392 42.6892 80.4267C42.6892 80.4613 42.801 80.4897 42.9377 80.4897C43.0744 80.4897 43.2038 80.5181 43.2252 80.5528C43.2467 80.5875 43.4045 80.6158 43.5759 80.6158C43.7472 80.6158 43.8874 80.6442 43.8874 80.6789C43.8874 80.7136 44.0417 80.742 44.2305 80.742C44.4192 80.742 44.5912 80.7704 44.6126 80.805C44.6341 80.8397 44.843 80.8681 45.0768 80.8681C45.3326 80.8681 45.5332 80.8995 45.5806 80.9469C45.642 81.0083 46.5053 81.0258 49.4685 81.0258C52.4316 81.0258 53.295 81.0083 53.3563 80.9469C53.4025 80.9007 53.598 80.8681 53.8287 80.8681C54.0451 80.8681 54.2398 80.8397 54.2613 80.805C54.2827 80.7704 54.4689 80.742 54.675 80.742C54.8826 80.742 55.0496 80.7139 55.0496 80.6789C55.0496 80.6442 55.1914 80.6158 55.3649 80.6158C55.5383 80.6158 55.6802 80.5875 55.6802 80.5528C55.6802 80.5181 55.8062 80.4897 55.9602 80.4897C56.1142 80.4897 56.2578 80.4613 56.2793 80.4267C56.3007 80.392 56.4302 80.3636 56.5669 80.3636C56.7035 80.3636 56.8153 80.3352 56.8153 80.3005C56.8153 80.2659 56.9271 80.2375 57.0638 80.2375C57.2005 80.2375 57.3299 80.2091 57.3514 80.1744C57.3728 80.1397 57.488 80.1113 57.6074 80.1113C57.7267 80.1113 57.8243 80.083 57.8243 80.0483C57.8243 80.0136 57.9219 79.9852 58.0413 79.9852C58.1606 79.9852 58.2759 79.9568 58.2973 79.9222C58.3187 79.8875 58.4039 79.8591 58.4865 79.8591C58.5691 79.8591 58.6527 79.8334 58.6721 79.8019C58.6914 79.7705 58.8553 79.7244 59.0358 79.6995C59.2164 79.6748 59.4151 79.6295 59.4772 79.5991C59.5393 79.5687 59.6465 79.5154 59.7154 79.4807C59.7843 79.446 59.912 79.4176 59.9992 79.4176C60.0864 79.4176 60.1577 79.3954 60.1577 79.3683C60.1577 79.3412 60.2925 79.2805 60.4572 79.2332C60.622 79.1859 60.8685 79.0946 61.0051 79.0303C61.1416 78.9658 61.3048 78.9131 61.3677 78.9131C61.4306 78.9131 61.482 78.8848 61.482 78.8501C61.482 78.8154 61.5387 78.787 61.6081 78.787C61.6775 78.787 61.7342 78.7586 61.7342 78.724C61.7342 78.6893 61.8052 78.6609 61.8919 78.6609C61.9786 78.6609 62.0496 78.6325 62.0496 78.5978C62.0496 78.5631 62.1205 78.5348 62.2072 78.5348C62.2939 78.5348 62.3649 78.5064 62.3649 78.4717C62.3649 78.437 62.4216 78.4086 62.491 78.4086C62.5604 78.4086 62.6171 78.3803 62.6171 78.3456C62.6171 78.3109 62.6739 78.2825 62.7432 78.2825C62.8126 78.2825 62.8694 78.2541 62.8694 78.2195C62.8694 78.1848 62.9261 78.1564 62.9955 78.1564C63.0649 78.1564 63.1216 78.128 63.1216 78.0933C63.1216 78.0586 63.1943 78.0303 63.2831 78.0303C63.3745 78.0303 63.4275 78.003 63.4054 77.9672C63.384 77.9325 63.4248 77.9041 63.4962 77.9041C63.5676 77.9041 63.6261 77.8758 63.6261 77.8411C63.6261 77.8064 63.6829 77.778 63.7523 77.778C63.8216 77.778 63.8784 77.7496 63.8784 77.7149C63.8784 77.6803 63.9209 77.6519 63.973 77.6519C64.025 77.6519 64.0676 77.6235 64.0676 77.5888C64.0676 77.5541 64.1243 77.5258 64.1937 77.5258C64.2631 77.5258 64.3198 77.4974 64.3198 77.4627C64.3198 77.428 64.3766 77.3996 64.4459 77.3996C64.5153 77.3996 64.5721 77.3713 64.5721 77.3366C64.5721 77.3019 64.6288 77.2735 64.6982 77.2735C64.7676 77.2735 64.8243 77.2473 64.8243 77.2155C64.8243 77.1835 64.9095 77.1387 65.0135 77.1158C65.1176 77.093 65.2027 77.0517 65.2027 77.0239C65.2027 76.9962 65.2923 76.9364 65.4018 76.891C65.5114 76.8456 65.8102 76.6719 66.0659 76.5049C66.3218 76.338 66.5584 76.2014 66.592 76.2014C66.6257 76.2014 66.6532 76.1749 66.6532 76.1426C66.6532 76.1103 66.7064 76.067 66.7716 76.0463C66.8367 76.0255 66.9715 75.9386 67.0711 75.8529C67.1707 75.7672 67.2814 75.6971 67.3172 75.6969C67.3528 75.6969 67.423 75.6402 67.473 75.5708C67.523 75.5014 67.6081 75.4447 67.6622 75.4447C67.7162 75.4447 67.8014 75.3879 67.8514 75.3186C67.9013 75.2492 67.9743 75.1924 68.0136 75.1924C68.0528 75.1924 68.1739 75.1073 68.2829 75.0032C68.3918 74.8992 68.4968 74.814 68.5164 74.814C68.5488 74.814 69.4182 74.1416 69.491 74.0603C69.5083 74.0409 69.6218 73.9507 69.7432 73.8601C69.8646 73.7692 70.0917 73.5756 70.2477 73.43C70.4038 73.2841 70.6241 73.0926 70.737 73.0041C70.85 72.9157 71.1338 72.6492 71.3676 72.4123C71.8879 71.8848 71.859 71.9136 72.3865 71.3933C72.6235 71.1595 72.8904 70.8726 72.9796 70.7558C73.0687 70.639 73.2584 70.4219 73.4009 70.2735C73.5434 70.1251 73.7366 69.9017 73.83 69.7772C73.9942 69.5585 74.1841 69.3236 74.3155 69.1773C74.3502 69.1385 74.4495 69.0006 74.5362 68.8708C74.6227 68.7409 74.715 68.6345 74.741 68.6343C74.767 68.634 74.7883 68.5976 74.7883 68.5531C74.7883 68.5088 74.845 68.4316 74.9144 68.3816C74.9838 68.3316 75.0405 68.2544 75.0405 68.2101C75.0405 68.1656 75.0689 68.1294 75.1036 68.1294C75.1383 68.1294 75.1667 68.0868 75.1667 68.0348C75.1667 67.9827 75.1903 67.9402 75.219 67.9402C75.2479 67.9402 75.3116 67.8621 75.3606 67.7668C75.4095 67.6714 75.4925 67.5508 75.545 67.4987C75.5975 67.4467 75.6806 67.3261 75.7295 67.2307C75.7785 67.1353 75.8422 67.0573 75.8711 67.0573C75.8998 67.0573 75.9234 67.0068 75.9234 66.945C75.9234 66.8834 75.9802 66.792 76.0495 66.742C76.1189 66.692 76.1757 66.6201 76.1757 66.5823C76.1757 66.5444 76.2269 66.4585 76.2895 66.3912C76.3523 66.324 76.4442 66.1768 76.4941 66.064C76.544 65.9513 76.6062 65.8591 76.6326 65.8591C76.6587 65.8591 76.6802 65.8165 76.6802 65.7645C76.6802 65.7125 76.7032 65.6699 76.7314 65.6699C76.7596 65.6699 76.8218 65.5706 76.8694 65.4492C76.917 65.3278 76.9767 65.2285 77.0023 65.2285C77.0277 65.2285 77.0672 65.1433 77.0901 65.0393C77.113 64.9352 77.1577 64.8501 77.1897 64.8501C77.2216 64.8501 77.2477 64.7933 77.2477 64.724C77.2477 64.6546 77.2761 64.5978 77.3108 64.5978C77.3455 64.5978 77.3739 64.5411 77.3739 64.4717C77.3739 64.4023 77.4023 64.3456 77.4369 64.3456C77.4716 64.3456 77.5 64.2888 77.5 64.2195C77.5 64.1501 77.5284 64.0933 77.5631 64.0933C77.5978 64.0933 77.6261 64.0508 77.6261 63.9987C77.6261 63.9467 77.6545 63.9041 77.6892 63.9041C77.7239 63.9041 77.7523 63.8474 77.7523 63.778C77.7523 63.7086 77.7806 63.6519 77.8153 63.6519C77.85 63.6519 77.8784 63.5951 77.8784 63.5258C77.8784 63.4564 77.9068 63.3996 77.9414 63.3996C77.9761 63.3996 78.0045 63.3429 78.0045 63.2735C78.0045 63.2041 78.0329 63.1474 78.0676 63.1474C78.1023 63.1474 78.1306 63.1105 78.1306 63.0654C78.1306 62.9494 78.279 62.644 78.3356 62.6433C78.3616 62.643 78.3829 62.6 78.3829 62.5476C78.3829 62.4606 78.5615 62.0133 78.7034 61.745C78.7352 61.6848 78.7613 61.5784 78.7613 61.5085C78.7613 61.4387 78.7896 61.3816 78.8243 61.3816C78.859 61.3816 78.8874 61.3249 78.8874 61.2555C78.8874 61.1861 78.9158 61.1294 78.9505 61.1294C78.9851 61.1294 79.0135 61.0584 79.0135 60.9717C79.0135 60.885 79.0419 60.814 79.0766 60.814C79.1113 60.814 79.1396 60.757 79.1396 60.6871C79.1396 60.6173 79.168 60.5038 79.2027 60.4349C79.2374 60.366 79.2941 60.2531 79.3288 60.1842C79.3635 60.1153 79.3919 60.0035 79.3919 59.9357C79.3919 59.8679 79.4203 59.7949 79.455 59.7735C79.4896 59.7521 79.518 59.6669 79.518 59.5843C79.518 59.5017 79.5443 59.4178 79.5767 59.3978C79.609 59.3779 79.6549 59.2056 79.6787 59.0149C79.7025 58.8242 79.7469 58.6527 79.7777 58.6338C79.8083 58.6149 79.8333 58.5318 79.8333 58.4492C79.8333 58.3666 79.8617 58.2814 79.8964 58.26C79.9311 58.2385 79.9595 58.125 79.9595 58.0077C79.9595 57.8904 79.9878 57.7769 80.0225 57.7555C80.0572 57.734 80.0856 57.6188 80.0856 57.4994C80.0856 57.3801 80.114 57.2825 80.1487 57.2825C80.1833 57.2825 80.2117 57.1849 80.2117 57.0656C80.2117 56.9462 80.2401 56.831 80.2748 56.8095C80.3095 56.7881 80.3378 56.6445 80.3378 56.4904C80.3378 56.3364 80.3662 56.2104 80.4009 56.2104C80.4356 56.2104 80.464 56.0827 80.464 55.9267C80.464 55.7706 80.4923 55.6429 80.527 55.6429C80.5617 55.6429 80.5901 55.4868 80.5901 55.296C80.5901 55.1053 80.6185 54.9492 80.6532 54.9492C80.6882 54.9492 80.7162 54.7822 80.7162 54.5746C80.7162 54.3685 80.7446 54.1823 80.7793 54.1609C80.814 54.1394 80.8423 53.9272 80.8423 53.6895C80.8423 53.3996 80.8684 53.2484 80.9212 53.2307C80.983 53.2101 81 52.4126 81 49.5258C81 46.6389 80.983 45.8415 80.9212 45.8208C80.8676 45.803 80.8423 45.6456 80.8423 45.3305C80.8423 45.0754 80.814 44.849 80.7793 44.8276C80.7446 44.8061 80.7162 44.6358 80.7162 44.4492C80.7162 44.2625 80.6878 44.0922 80.6532 44.0708C80.6185 44.0494 80.5901 43.8774 80.5901 43.6886C80.5901 43.4999 80.5617 43.3456 80.527 43.3456C80.4923 43.3456 80.464 43.2338 80.464 43.0971C80.464 42.9604 80.4356 42.831 80.4009 42.8095C80.3662 42.7881 80.3378 42.6445 80.3378 42.4904C80.3378 42.3364 80.3095 42.2104 80.2748 42.2104C80.2401 42.2104 80.2117 42.1128 80.2117 41.9935C80.2117 41.8742 80.1833 41.7589 80.1487 41.7375C80.114 41.716 80.0856 41.6008 80.0856 41.4814C80.0856 41.3621 80.0572 41.2645 80.0225 41.2645C79.9878 41.2645 79.9595 41.1652 79.9595 41.0438C79.9595 40.9224 79.9311 40.823 79.8964 40.823C79.8617 40.823 79.8333 40.7396 79.8333 40.6376C79.8333 40.5356 79.8083 40.4366 79.7777 40.4177C79.7469 40.3988 79.7025 40.2273 79.6787 40.0367C79.6549 39.8459 79.609 39.6736 79.5767 39.6537C79.5443 39.6337 79.518 39.5498 79.518 39.4672C79.518 39.3846 79.4896 39.2994 79.455 39.278C79.4203 39.2566 79.3919 39.1754 79.3919 39.0976C79.3919 39.0199 79.3681 38.9294 79.3391 38.8965C79.3099 38.8635 79.2216 38.6521 79.1428 38.4267C79.0641 38.2012 78.9743 37.9898 78.9435 37.9568C78.9126 37.9239 78.8874 37.8458 78.8874 37.7834C78.8874 37.721 78.859 37.6699 78.8243 37.6699C78.7896 37.6699 78.7613 37.6128 78.7613 37.543C78.7613 37.4731 78.7329 37.3596 78.6982 37.2907C78.6635 37.2218 78.6068 37.109 78.5721 37.0401C78.5374 36.9712 78.509 36.8718 78.509 36.8193C78.509 36.7668 78.4806 36.724 78.4459 36.724C78.4113 36.724 78.3829 36.6689 78.3829 36.6016C78.3829 36.5343 78.3545 36.4616 78.3198 36.4402C78.2851 36.4187 78.2568 36.346 78.2568 36.2787C78.2568 36.2114 78.2284 36.1564 78.1937 36.1564C78.159 36.1564 78.1306 36.0996 78.1306 36.0303C78.1306 35.9609 78.1023 35.9041 78.0676 35.9041C78.0329 35.9041 78.0045 35.8474 78.0045 35.778C78.0045 35.7086 77.9832 35.6517 77.9572 35.6517C77.9312 35.6516 77.839 35.4955 77.7523 35.305C77.6655 35.1146 77.5733 34.9585 77.5473 34.9583C77.5213 34.9583 77.5 34.9014 77.5 34.8321C77.5 34.7627 77.4716 34.7059 77.4369 34.7059C77.4023 34.7059 77.3739 34.6492 77.3739 34.5798C77.3739 34.5104 77.3455 34.4537 77.3108 34.4537C77.2761 34.4537 77.2477 34.3969 77.2477 34.3276C77.2477 34.2582 77.2194 34.2014 77.1847 34.2014C77.15 34.2014 77.1216 34.1464 77.1216 34.0791C77.1216 34.0118 77.094 33.9396 77.0603 33.9187C77.0266 33.8978 76.9493 33.7756 76.8888 33.6469C76.8282 33.5183 76.6997 33.2955 76.6032 33.1517C76.5069 33.008 76.4279 32.859 76.4279 32.8207C76.4279 32.7824 76.4043 32.751 76.3756 32.751C76.3467 32.751 76.283 32.6729 76.234 32.5776C76.1851 32.4822 76.1022 32.3616 76.05 32.3095C75.9977 32.2575 75.9461 32.1741 75.9352 32.1243C75.9244 32.0745 75.8605 31.986 75.7934 31.9277C75.7262 31.8695 75.6712 31.7858 75.6712 31.742C75.6712 31.6981 75.6214 31.6163 75.5603 31.5602C75.4995 31.5041 75.4095 31.3801 75.3606 31.2848C75.3116 31.1894 75.2479 31.1113 75.219 31.1113C75.1903 31.1113 75.1667 31.0528 75.1667 30.9814C75.1667 30.91 75.1383 30.8692 75.1036 30.8906C75.0689 30.9121 75.0405 30.8916 75.0405 30.8452C75.0405 30.7987 74.9838 30.7199 74.9144 30.6699C74.845 30.6199 74.7883 30.5572 74.7883 30.5305C74.7883 30.4749 74.2428 29.7394 74.0963 29.5978C74.0426 29.5458 73.9248 29.4039 73.8345 29.2825C73.7443 29.1611 73.5251 28.9057 73.3476 28.7149C73.1699 28.5242 73.0243 28.3482 73.0236 28.3241C73.023 28.2998 72.7742 28.0381 72.4707 27.7422C72.1672 27.4464 71.8905 27.1754 71.8559 27.1398C71.2546 26.5224 70.5935 25.8771 70.5626 25.8771C70.5407 25.8771 70.362 25.7251 70.1658 25.5396C69.9695 25.3538 69.8 25.2107 69.7894 25.2214C69.7787 25.232 69.6151 25.1003 69.4256 24.9285C69.2361 24.7568 69.0582 24.6162 69.0303 24.6162C69.0024 24.616 68.8889 24.5309 68.7781 24.427C68.6672 24.3231 68.555 24.2379 68.5287 24.2378C68.5023 24.2376 68.3918 24.1523 68.2829 24.0483C68.1739 23.9442 68.0528 23.8591 68.0136 23.8591C67.9743 23.8591 67.9013 23.8023 67.8514 23.733C67.8014 23.6636 67.7284 23.6068 67.6891 23.6068C67.6499 23.6068 67.5335 23.5288 67.4307 23.4334C67.3278 23.338 67.207 23.2519 67.1622 23.242C67.1176 23.2321 67.0396 23.1824 66.9888 23.1317C66.9379 23.0809 66.8721 23.0393 66.8423 23.0393C66.8125 23.0393 66.7507 23.0038 66.705 22.9604C66.6591 22.9171 66.5441 22.8416 66.4493 22.7927C66.3544 22.7438 66.2253 22.6587 66.1622 22.6035C66.0991 22.5483 65.9814 22.4651 65.9003 22.4184C65.4614 22.166 65.3288 22.0987 65.3288 22.1283C65.3288 22.1465 65.2667 22.1034 65.1909 22.0328C65.1149 21.962 65.0014 21.9041 64.9386 21.9041C64.8757 21.9041 64.8243 21.8758 64.8243 21.8411C64.8243 21.8064 64.7676 21.778 64.6982 21.778C64.6288 21.778 64.5721 21.7496 64.5721 21.7149C64.5721 21.6803 64.5153 21.6519 64.4459 21.6519C64.3766 21.6519 64.3198 21.6289 64.3198 21.6006C64.3198 21.5724 64.2205 21.5103 64.0991 21.4627C63.9777 21.4151 63.8784 21.353 63.8784 21.3247C63.8784 21.2965 63.8216 21.2735 63.7523 21.2735C63.6829 21.2735 63.6261 21.2451 63.6261 21.2104C63.6261 21.1758 63.5676 21.1474 63.4962 21.1474C63.4248 21.1474 63.384 21.119 63.4054 21.0843C63.4275 21.0485 63.3745 21.0212 63.2831 21.0212C63.1943 21.0212 63.1216 20.9929 63.1216 20.9582C63.1216 20.9235 63.0649 20.8951 62.9955 20.8951C62.9261 20.8951 62.8694 20.8667 62.8694 20.8321C62.8694 20.7974 62.8126 20.769 62.7432 20.769C62.6739 20.769 62.6171 20.7406 62.6171 20.7059C62.6171 20.6712 62.5742 20.6429 62.5217 20.6429C62.4692 20.6429 62.3628 20.6101 62.2852 20.57C61.9893 20.4169 61.9223 20.3906 61.8296 20.3906C61.7771 20.3906 61.7342 20.3622 61.7342 20.3276C61.7342 20.2929 61.6902 20.2645 61.6366 20.2645C61.5829 20.2645 61.4214 20.2077 61.278 20.1384C61.1343 20.069 60.9797 20.0122 60.9341 20.0122C60.8886 20.0122 60.8514 19.9839 60.8514 19.9492C60.8514 19.9145 60.8036 19.8861 60.7452 19.8861C60.6496 19.8861 60.0706 19.7053 59.7477 19.5746C59.6784 19.5464 59.5447 19.4926 59.4507 19.4551C59.3568 19.4174 59.1368 19.3676 58.962 19.3444C58.7871 19.3212 58.6441 19.2776 58.6441 19.2473C58.6441 19.2172 58.559 19.1924 58.455 19.1924C58.3509 19.1924 58.2658 19.164 58.2658 19.1294C58.2658 19.0947 58.1682 19.0663 58.0488 19.0663C57.9295 19.0663 57.8142 19.0379 57.7928 19.0032C57.7417 18.9206 56.9414 18.9206 56.9414 19.0032C56.9414 19.0379 56.8842 19.0663 56.8142 19.0663C56.5013 19.0663 55.6171 19.6898 55.6171 19.9104C55.6171 19.9664 55.5887 20.0122 55.5541 20.0122C55.5194 20.0122 55.491 20.069 55.491 20.1384C55.491 20.2077 55.4626 20.2645 55.4279 20.2645C55.3932 20.2645 55.3649 20.3903 55.3649 20.5442C55.3649 20.698 55.3376 20.8956 55.3042 20.9834C55.2654 21.0856 55.2654 21.1564 55.3042 21.1803C55.3376 21.201 55.3649 21.3582 55.3649 21.5295C55.3649 21.7009 55.3932 21.8411 55.4279 21.8411C55.4626 21.8411 55.491 21.8874 55.491 21.944C55.491 22.0006 55.5408 22.0928 55.6018 22.149C55.6627 22.2051 55.7492 22.3219 55.794 22.4086C55.8913 22.5972 56.4466 22.9762 56.6253 22.9762C56.6952 22.9762 56.7523 23.0046 56.7523 23.0393C56.7523 23.074 56.8374 23.1023 56.9414 23.1023C57.0455 23.1023 57.1306 23.1307 57.1306 23.1654C57.1306 23.2001 57.214 23.2285 57.316 23.2285C57.418 23.2285 57.5191 23.2568 57.5405 23.2915C57.562 23.3262 57.6613 23.3546 57.7613 23.3546C57.8612 23.3546 57.9605 23.383 57.982 23.4176C58.0034 23.4523 58.0903 23.4807 58.175 23.4807C58.2596 23.4807 58.3288 23.5091 58.3288 23.5438C58.3288 23.5785 58.414 23.6068 58.518 23.6068C58.6221 23.6068 58.7072 23.6352 58.7072 23.6699C58.7072 23.7046 58.7583 23.733 58.8207 23.733C58.8832 23.733 58.9612 23.7565 58.9941 23.785C59.0271 23.8137 59.1818 23.8763 59.3378 23.924C59.4939 23.9718 59.7146 24.0618 59.8285 24.1241C59.9423 24.1865 60.0722 24.2375 60.1173 24.2375C60.1624 24.2375 60.339 24.3083 60.5096 24.3948C60.6801 24.4814 60.8695 24.5523 60.9302 24.5525C60.9909 24.5526 61.0405 24.5812 61.0405 24.6158C61.0405 24.6505 61.074 24.6789 61.115 24.6789C61.234 24.6789 61.7973 24.9485 61.7973 25.0054C61.7973 25.034 61.8541 25.0573 61.9234 25.0573C61.9928 25.0573 62.0496 25.0857 62.0496 25.1203C62.0496 25.155 62.1063 25.1834 62.1757 25.1834C62.245 25.1834 62.302 25.2047 62.302 25.2307C62.3021 25.2567 62.4582 25.349 62.6486 25.4357C62.8391 25.5224 62.9952 25.6146 62.9953 25.6406C62.9953 25.6666 63.0393 25.6879 63.0928 25.6879C63.1462 25.6879 63.2509 25.7447 63.3253 25.814C63.3997 25.8834 63.498 25.9402 63.5434 25.9402C63.5889 25.9402 63.6261 25.9685 63.6261 26.0032C63.6261 26.0379 63.6805 26.0663 63.7471 26.0663C63.8134 26.0663 63.8773 26.089 63.8889 26.1167C63.9005 26.1443 64.1653 26.3349 64.4775 26.5399C64.7896 26.745 65.0592 26.9281 65.0766 26.9468C65.151 27.0269 65.5175 27.2645 65.5666 27.2645C65.5962 27.2645 65.6754 27.3149 65.7427 27.3766C65.8098 27.4382 65.9642 27.5577 66.0856 27.6421C66.207 27.7266 66.3815 27.8748 66.4734 27.9716C66.5655 28.0682 66.6648 28.1488 66.6941 28.1505C66.7236 28.1521 66.8613 28.2655 67 28.4023C67.1387 28.539 67.2729 28.6512 67.298 28.6514C67.4252 28.6527 70.0291 31.2507 70.3214 31.6682C70.4054 31.7882 70.6242 32.044 71.1779 32.6701C71.2907 32.7975 71.3829 32.9324 71.3829 32.9701C71.3829 33.0076 71.4396 33.0794 71.509 33.1294C71.5784 33.1793 71.6355 33.2495 71.6359 33.2851C71.6364 33.3209 71.6932 33.421 71.7619 33.5077C71.9544 33.7502 72.455 34.5059 72.455 34.5538C72.455 34.5773 72.5048 34.6424 72.5658 34.6985C72.6266 34.7547 72.7167 34.8786 72.7655 34.974C72.8146 35.0693 72.8783 35.1474 72.9071 35.1474C72.9358 35.1474 72.9595 35.2041 72.9595 35.2735C72.9595 35.3429 72.9878 35.3996 73.0225 35.3996C73.0572 35.3996 73.0856 35.4368 73.0856 35.4824C73.0856 35.5278 73.1423 35.626 73.2117 35.7004C73.2811 35.7749 73.3378 35.8795 73.3378 35.933C73.3378 35.9864 73.3662 36.0303 73.4009 36.0303C73.4356 36.0303 73.464 36.087 73.464 36.1564C73.464 36.2258 73.4923 36.2825 73.527 36.2825C73.5617 36.2825 73.5907 36.318 73.5915 36.3613C73.5923 36.4047 73.6484 36.5111 73.7162 36.5978C73.784 36.6845 73.8401 36.8051 73.8409 36.8658C73.8417 36.9265 73.8636 36.9764 73.8896 36.9767C73.9462 36.9773 74.0946 37.2827 74.0946 37.3987C74.0946 37.4438 74.123 37.4807 74.1577 37.4807C74.1923 37.4807 74.2207 37.5375 74.2207 37.6068C74.2207 37.6762 74.2491 37.733 74.2838 37.733C74.3185 37.733 74.3469 37.7897 74.3469 37.8591C74.3469 37.9285 74.3752 37.9852 74.4099 37.9852C74.4446 37.9852 74.473 38.0268 74.473 38.0776C74.473 38.1285 74.5195 38.2775 74.5762 38.4087C74.6332 38.54 74.7005 38.7041 74.726 38.7735C74.7514 38.8429 74.8343 39.0291 74.9103 39.1874C74.9862 39.3456 75.0565 39.5159 75.0664 39.5657C75.0913 39.6904 75.1643 39.887 75.2343 40.0182C75.2665 40.0784 75.2928 40.1707 75.2928 40.2232C75.2928 40.2757 75.3212 40.3185 75.3559 40.3185C75.3905 40.3185 75.4189 40.4037 75.4189 40.5077C75.4189 40.6118 75.4473 40.6969 75.482 40.6969C75.5167 40.6969 75.545 40.7821 75.545 40.8861C75.545 40.9902 75.5734 41.0753 75.6081 41.0753C75.6428 41.0753 75.6712 41.1604 75.6712 41.2645C75.6712 41.3685 75.6996 41.4537 75.7342 41.4537C75.7689 41.4537 75.7973 41.5371 75.7973 41.6391C75.7973 41.7411 75.8257 41.8421 75.8604 41.8636C75.8951 41.885 75.9234 41.9844 75.9234 42.0843C75.9234 42.1843 75.9518 42.2836 75.9865 42.305C76.0212 42.3265 76.0495 42.4258 76.0495 42.5258C76.0495 42.6257 76.0779 42.725 76.1126 42.7465C76.1473 42.7679 76.1757 42.8974 76.1757 43.034C76.1757 43.1707 76.2041 43.2825 76.2387 43.2825C76.2734 43.2825 76.3018 43.3943 76.3018 43.531C76.3018 43.6677 76.3302 43.7971 76.3649 43.8185C76.3996 43.84 76.4279 43.9677 76.4279 44.1023C76.4279 44.237 76.4563 44.3647 76.491 44.3861C76.5257 44.4076 76.5541 44.5636 76.5541 44.733C76.5541 44.9023 76.5824 45.0584 76.6171 45.0798C76.6518 45.1012 76.6802 45.3016 76.6802 45.525C76.6802 45.7538 76.7078 45.9312 76.7432 45.9312C76.7803 45.9312 76.8063 46.1476 76.8063 46.4546C76.8063 46.7425 76.8352 47.0069 76.8706 47.0423C76.9583 47.13 76.9575 51.9453 76.8697 51.9747C76.8336 51.9866 76.8063 52.2357 76.8063 52.5544C76.8063 52.8615 76.7779 53.1304 76.7432 53.1519C76.7086 53.1733 76.6802 53.3595 76.6802 53.5656C76.6802 53.7732 76.6521 53.9402 76.6171 53.9402C76.5824 53.9402 76.5541 54.0803 76.5541 54.2517C76.5541 54.4231 76.5257 54.5809 76.491 54.6023C76.4563 54.6238 76.4279 54.7657 76.4279 54.9176C76.4279 55.0696 76.3996 55.2115 76.3649 55.233C76.3302 55.2544 76.3018 55.3838 76.3018 55.5205C76.3018 55.6572 76.2734 55.769 76.2387 55.769C76.2041 55.769 76.1757 55.8825 76.1757 56.0212C76.1757 56.16 76.1473 56.2735 76.1126 56.2735C76.0779 56.2735 76.0495 56.3711 76.0495 56.4904C76.0495 56.6098 76.0212 56.725 75.9865 56.7465C75.9518 56.7679 75.9234 56.8672 75.9234 56.9672C75.9234 57.0672 75.8951 57.1665 75.8604 57.1879C75.8257 57.2094 75.7973 57.3104 75.7973 57.4124C75.7973 57.5144 75.7689 57.5978 75.7342 57.5978C75.6996 57.5978 75.6712 57.683 75.6712 57.787C75.6712 57.8911 75.6428 57.9762 75.6081 57.9762C75.5734 57.9762 75.545 58.0596 75.545 58.1616C75.545 58.2636 75.5167 58.3647 75.482 58.3861C75.4473 58.4076 75.4189 58.4944 75.4189 58.5791C75.4189 58.6638 75.3905 58.733 75.3559 58.733C75.3212 58.733 75.2928 58.8022 75.2928 58.8868C75.2928 58.9715 75.2644 59.0584 75.2297 59.0798C75.195 59.1013 75.1667 59.159 75.1667 59.2081C75.1667 59.2572 75.0815 59.4833 74.9775 59.7104C74.8734 59.9376 74.7883 60.1459 74.7883 60.1732C74.7883 60.2004 74.7173 60.3699 74.6306 60.5497C74.5439 60.7294 74.473 60.9351 74.473 61.0067C74.473 61.0783 74.4504 61.1229 74.423 61.1059C74.3956 61.089 74.3684 61.1365 74.3628 61.2117C74.3571 61.2867 74.3229 61.3581 74.2866 61.3701C74.2504 61.3822 74.2207 61.4466 74.2207 61.5129C74.2207 61.5795 74.1923 61.6339 74.1577 61.6339C74.123 61.6339 74.0946 61.6883 74.0946 61.7548C74.0946 61.8212 74.0733 61.885 74.0473 61.8967C74.0052 61.9153 73.677 62.5035 73.4994 62.8789C73.4625 62.9566 73.4112 63.0205 73.3851 63.0208C73.3591 63.0211 73.3378 63.078 73.3378 63.1474C73.3378 63.2167 73.3095 63.2735 73.2748 63.2735C73.2401 63.2735 73.2117 63.3161 73.2117 63.3681C73.2117 63.4201 73.1887 63.4627 73.1605 63.4627C73.1323 63.4627 73.0701 63.562 73.0225 63.6834C72.9749 63.8048 72.9128 63.9041 72.8846 63.9041C72.8564 63.9041 72.8333 63.9338 72.8333 63.9699C72.8333 64.006 72.7766 64.0965 72.7072 64.1709C72.6378 64.2453 72.5811 64.3435 72.5811 64.3889C72.5811 64.4345 72.5546 64.4717 72.5223 64.4717C72.49 64.4717 72.4455 64.5283 72.4236 64.5975C72.4017 64.6666 72.3455 64.7613 72.299 64.8078C72.1847 64.9221 71.7613 65.5876 71.7613 65.6529C71.7613 65.6816 71.7045 65.7461 71.6351 65.796C71.5658 65.846 71.509 65.9198 71.509 65.96C71.509 66.0002 71.3955 66.15 71.2568 66.293C71.118 66.436 71.0045 66.5673 71.0045 66.5849C71.0045 66.6195 70.7447 66.9245 70.5158 67.1587C70.4377 67.2384 70.3739 67.3212 70.3739 67.3423C70.3739 67.3635 70.2249 67.5345 70.0428 67.7224C69.8607 67.9102 69.6266 68.1705 69.5225 68.3009C69.1591 68.7557 68.8436 69.0753 68.7577 69.0753C68.7101 69.0753 68.6701 69.1108 68.6687 69.1541C68.6672 69.1975 68.5217 69.3465 68.3451 69.4852C68.1686 69.624 67.8498 69.9077 67.6368 70.1158C67.4236 70.324 67.173 70.534 67.0795 70.5825C66.9861 70.6311 66.9246 70.6949 66.9428 70.7244C66.9611 70.7539 66.9379 70.778 66.8915 70.778C66.845 70.778 66.7662 70.8348 66.7162 70.9041C66.6662 70.9735 66.6022 71.0303 66.574 71.0303C66.5459 71.0303 66.4228 71.1302 66.3006 71.2524C66.1784 71.3747 66.0473 71.4555 66.0091 71.432C65.9677 71.4063 65.9579 71.4183 65.985 71.4619C66.0104 71.5031 65.9934 71.5348 65.9456 71.5348C65.8991 71.5348 65.8203 71.5915 65.7703 71.6609C65.7203 71.7303 65.6418 71.787 65.5959 71.787C65.55 71.787 65.436 71.858 65.3425 71.9447C65.2489 72.0314 65.1437 72.1023 65.1087 72.1025C65.0737 72.1025 64.9457 72.1876 64.8243 72.2915C64.7029 72.3954 64.5681 72.4806 64.5248 72.4806C64.4814 72.4807 64.4459 72.5091 64.4459 72.5438C64.4459 72.5785 64.4087 72.6068 64.3632 72.6068C64.3178 72.6068 64.2196 72.6636 64.1451 72.733C64.0707 72.8023 63.9802 72.8591 63.9441 72.8591C63.908 72.8591 63.8784 72.8875 63.8784 72.9222C63.8784 72.9568 63.8412 72.9852 63.7956 72.9852C63.7502 72.9852 63.652 73.042 63.5776 73.1113C63.5032 73.1807 63.3985 73.2375 63.345 73.2375C63.2916 73.2375 63.2477 73.2658 63.2477 73.3005C63.2477 73.3352 63.191 73.3636 63.1216 73.3636C63.0523 73.3636 62.9955 73.392 62.9955 73.4267C62.9955 73.4613 62.9387 73.4897 62.8694 73.4897C62.8 73.4897 62.7432 73.5181 62.7432 73.5528C62.7432 73.5875 62.706 73.6158 62.6605 73.6158C62.6151 73.6158 62.5168 73.6726 62.4424 73.742C62.368 73.8113 62.2633 73.8681 62.2099 73.8681C62.1564 73.8681 62.1126 73.8965 62.1126 73.9312C62.1126 73.9658 62.0559 73.9942 61.9865 73.9942C61.9171 73.9942 61.8604 74.0226 61.8604 74.0573C61.8604 74.092 61.8036 74.1203 61.7342 74.1203C61.6649 74.1203 61.6081 74.1487 61.6081 74.1834C61.6081 74.2181 61.5655 74.2465 61.5135 74.2465C61.4615 74.2465 61.4189 74.2749 61.4189 74.3095C61.4189 74.3442 61.3622 74.3726 61.2928 74.3726C61.2234 74.3726 61.1667 74.3978 61.1667 74.4286C61.1667 74.4595 61.0639 74.5039 60.9382 74.5276C60.8126 74.5511 60.6636 74.5933 60.6071 74.6212C60.0943 74.8755 59.9447 74.9402 59.8698 74.9402C59.8222 74.9402 59.682 74.9969 59.5586 75.0663C59.4351 75.1357 59.2781 75.1924 59.2098 75.1924C59.1416 75.1924 59.0856 75.2208 59.0856 75.2555C59.0856 75.2902 59.0285 75.3186 58.9587 75.3186C58.8888 75.3186 58.7824 75.3436 58.7222 75.3742C58.5286 75.4727 58.3042 75.5546 58.0135 75.6328C57.8574 75.6749 57.6804 75.7348 57.6202 75.7661C57.5599 75.7975 57.4393 75.8231 57.3521 75.8231C57.265 75.8231 57.1937 75.8514 57.1937 75.8861C57.1937 75.9208 57.1086 75.9492 57.0045 75.9492C56.9005 75.9492 56.8153 75.9744 56.8153 76.0053C56.8153 76.0581 56.6703 76.0936 56.1059 76.1789C55.9758 76.1986 55.8694 76.2401 55.8694 76.2711C55.8694 76.3022 55.7434 76.3276 55.5894 76.3276C55.4353 76.3276 55.2917 76.3559 55.2703 76.3906C55.2488 76.4253 55.1211 76.4537 54.9865 76.4537C54.8518 76.4537 54.7241 76.4821 54.7027 76.5168C54.6813 76.5514 54.5252 76.5798 54.3559 76.5798C54.1865 76.5798 54.0305 76.6082 54.009 76.6429C53.9876 76.6776 53.8212 76.7059 53.6395 76.7059C53.4577 76.7059 53.2821 76.7321 53.2491 76.7643C53.18 76.8316 52.5469 76.8866 51.3131 76.9325C50.8319 76.9505 50.4459 76.9915 50.4459 77.0246C50.4459 77.0596 50.0535 77.0843 49.5 77.0843C48.9115 77.0843 48.5541 77.0605 48.5541 77.0213C48.5541 76.9822 48.2178 76.9582 47.6712 76.9582C47.1246 76.9582 46.7883 76.9342 46.7883 76.8951C46.7883 76.8584 46.5794 76.8321 46.2876 76.8321C46.0121 76.8321 45.7692 76.8037 45.7477 76.769C45.7263 76.7343 45.5401 76.7059 45.3341 76.7059C45.1264 76.7059 44.9595 76.6779 44.9595 76.6429C44.9595 76.6082 44.8193 76.5798 44.6479 76.5798C44.4766 76.5798 44.3187 76.5514 44.2973 76.5168C44.2759 76.4821 44.118 76.4537 43.9467 76.4537C43.7753 76.4537 43.6351 76.4253 43.6351 76.3906C43.6351 76.3559 43.5216 76.3276 43.3829 76.3276C43.2441 76.3276 43.1306 76.2992 43.1306 76.2645C43.1306 76.2298 43.0171 76.2014 42.8784 76.2014C42.7396 76.2014 42.6261 76.1731 42.6261 76.1384C42.6261 76.1037 42.5268 76.0753 42.4054 76.0753C42.284 76.0753 42.1847 76.0469 42.1847 76.0122C42.1847 75.9776 42.0854 75.9492 41.964 75.9492C41.8426 75.9492 41.7432 75.9208 41.7432 75.8861C41.7432 75.8514 41.6439 75.8231 41.5225 75.8231C41.4011 75.8231 41.3018 75.7947 41.3018 75.76C41.3018 75.7253 41.2167 75.6969 41.1126 75.6969C41.0086 75.6969 40.9234 75.6686 40.9234 75.6339C40.9234 75.5992 40.8383 75.5708 40.7342 75.5708C40.6302 75.5708 40.545 75.5476 40.545 75.5191C40.545 75.4907 40.4032 75.4289 40.2297 75.3816C40.0563 75.3343 39.9144 75.2725 39.9144 75.2441C39.9144 75.2156 39.8562 75.1924 39.7853 75.1924C39.7142 75.1924 39.5386 75.1357 39.3951 75.0663C39.2515 74.9969 39.108 74.9402 39.0761 74.9402C39.0443 74.9402 38.8723 74.8669 38.6938 74.7771C38.5154 74.6876 38.3552 74.6132 38.3378 74.6119C38.3205 74.6108 38.2406 74.5848 38.1603 74.5542C38.0801 74.5236 37.9736 74.4987 37.9238 74.4987C37.874 74.4987 37.8332 74.4774 37.8329 74.4514C37.8322 74.3939 37.5261 74.2465 37.4072 74.2465C37.36 74.2465 37.3389 74.2181 37.3604 74.1834C37.3818 74.1487 37.341 74.1203 37.2696 74.1203C37.1981 74.1203 37.1396 74.092 37.1396 74.0573C37.1396 74.0226 37.0829 73.9942 37.0135 73.9942C36.9441 73.9942 36.8874 73.9658 36.8874 73.9312C36.8874 73.8965 36.8306 73.8681 36.7613 73.8681C36.6919 73.8681 36.6351 73.8397 36.6351 73.805C36.6351 73.7704 36.5807 73.742 36.5142 73.742C36.4478 73.742 36.384 73.7207 36.3723 73.6947C36.346 73.6354 36.0102 73.4306 35.8626 73.3839C35.8019 73.3647 35.7523 73.3239 35.7523 73.2931C35.7523 73.2625 35.6955 73.2375 35.6261 73.2375C35.5568 73.2375 35.5 73.2091 35.5 73.1744C35.5 73.1397 35.4628 73.1113 35.4172 73.1113C35.3718 73.1113 35.2736 73.0546 35.1992 72.9852C35.1248 72.9158 35.0464 72.8591 35.025 72.8591C35.0035 72.8591 34.6726 72.6463 34.2895 72.3861C33.9064 72.126 33.5651 71.9131 33.5312 71.9131C33.4973 71.9131 33.3901 71.828 33.2928 71.724C33.1955 71.6199 33.0891 71.5348 33.0561 71.5348C33.0232 71.5348 32.9072 71.4496 32.7982 71.3456C32.6893 71.2415 32.5862 71.1564 32.5688 71.1564C32.5242 71.1564 32.3186 70.9814 31.5168 70.2615C30.9459 69.749 30.8138 69.635 30.5436 69.4222C30.1937 69.1467 29.582 68.5054 29.1924 68.0059C29.072 67.8514 28.8669 67.6195 28.7366 67.4907C28.6064 67.3617 28.5 67.2376 28.5 67.2146C28.5 67.1918 28.3581 67.0303 28.1847 66.8561C28.0113 66.6817 27.8694 66.5135 27.8694 66.4823C27.8694 66.4511 27.7842 66.3365 27.6802 66.2275C27.5761 66.1186 27.491 66.0044 27.491 65.9735C27.491 65.9428 27.433 65.8548 27.3619 65.7781C27.2286 65.6338 26.4189 64.4257 26.4189 64.3711C26.4189 64.3541 26.3622 64.2794 26.2928 64.2049C26.2234 64.1305 26.1667 64.0323 26.1667 63.9869C26.1667 63.9413 26.1383 63.9041 26.1036 63.9041C26.0689 63.9041 26.0405 63.8669 26.0405 63.8214C26.0405 63.776 25.9838 63.6777 25.9144 63.6033C25.845 63.5289 25.7883 63.4266 25.7883 63.376C25.7883 63.3254 25.767 63.2746 25.741 63.2629C25.6817 63.2366 25.4769 62.9008 25.4302 62.7532C25.411 62.6925 25.3702 62.6429 25.3394 62.6429C25.3089 62.6429 25.2838 62.5861 25.2838 62.5167C25.2838 62.4474 25.2608 62.3906 25.2325 62.3906C25.2043 62.3906 25.1422 62.2913 25.0946 62.1699C25.047 62.0485 24.9849 61.9492 24.9566 61.9492C24.9284 61.9492 24.9054 61.8782 24.9054 61.7915C24.9054 61.7048 24.877 61.6339 24.8423 61.6339C24.8077 61.6339 24.7793 61.5913 24.7793 61.5393C24.7793 61.4872 24.7509 61.4447 24.7162 61.4447C24.6815 61.4447 24.6532 61.3879 24.6532 61.3185C24.6532 61.2492 24.6279 61.1924 24.5972 61.1924C24.5663 61.1924 24.5229 61.0959 24.5009 60.978C24.4788 60.8601 24.4219 60.6827 24.3746 60.5839C24.253 60.3299 24.0118 59.7642 23.8879 59.4424C23.7818 59.1667 23.6919 58.9524 23.6367 58.8441C23.6061 58.7839 23.5811 58.6792 23.5811 58.6114C23.5811 58.5436 23.5527 58.4706 23.518 58.4492C23.4833 58.4277 23.455 58.3426 23.455 58.26C23.455 58.1774 23.4266 58.0922 23.3919 58.0708C23.3572 58.0494 23.3288 57.9764 23.3288 57.9086C23.3288 57.8408 23.3039 57.7361 23.2735 57.6759C23.1806 57.4919 23.0766 57.1236 23.0766 56.9785C23.0766 56.9029 23.0482 56.8411 23.0135 56.8411C22.9788 56.8411 22.9505 56.7417 22.9505 56.6203C22.9505 56.499 22.9221 56.3996 22.8874 56.3996C22.8527 56.3996 22.8243 56.2861 22.8243 56.1474C22.8243 56.0086 22.7959 55.8951 22.7613 55.8951C22.7266 55.8951 22.6982 55.7816 22.6982 55.6429C22.6982 55.5041 22.6698 55.3906 22.6351 55.3906C22.6005 55.3906 22.5721 55.2505 22.5721 55.0791C22.5721 54.9077 22.5437 54.7499 22.509 54.7285C22.4743 54.707 22.4459 54.5651 22.4459 54.4131C22.4459 54.2612 22.4176 54.1193 22.3829 54.0978C22.3482 54.0764 22.3198 53.8919 22.3198 53.6879C22.3198 53.4839 22.2914 53.2994 22.2568 53.278C22.2221 53.2566 22.1937 53.0403 22.1937 52.7971C22.1937 52.5542 22.1666 52.3046 22.1335 52.2427C22.1002 52.1807 22.069 51.7285 22.0641 51.2378C22.0592 50.7471 22.0296 50.3456 21.9984 50.3456C21.967 50.3456 21.9414 49.9483 21.9414 49.4627C21.9414 48.9161 21.9654 48.5798 22.0045 48.5798C22.0436 48.5798 22.0676 48.2435 22.0676 47.6969C22.0676 47.1503 22.0915 46.814 22.1306 46.814C22.1677 46.814 22.1937 46.5933 22.1937 46.278C22.1937 45.9627 22.2197 45.742 22.2568 45.742C22.2918 45.742 22.3198 45.5737 22.3198 45.3636C22.3198 45.1534 22.3479 44.9852 22.3829 44.9852C22.4176 44.9852 22.4459 44.8291 22.4459 44.6384C22.4459 44.4476 22.4743 44.2915 22.509 44.2915C22.5437 44.2915 22.5721 44.1656 22.5721 44.0115C22.5721 43.8575 22.6005 43.7139 22.6351 43.6924C22.6698 43.671 22.6982 43.5415 22.6982 43.4049C22.6982 43.2682 22.7266 43.1564 22.7613 43.1564C22.7959 43.1564 22.8243 43.0429 22.8243 42.9041C22.8243 42.7654 22.8527 42.6519 22.8874 42.6519C22.9221 42.6519 22.9505 42.5526 22.9505 42.4312C22.9505 42.3098 22.9788 42.2104 23.0135 42.2104C23.0482 42.2104 23.0766 42.1253 23.0766 42.0212C23.0766 41.9172 23.105 41.8321 23.1396 41.8321C23.1743 41.8321 23.2027 41.7487 23.2027 41.6467C23.2027 41.5446 23.2311 41.4436 23.2658 41.4221C23.3005 41.4007 23.3288 41.2855 23.3288 41.1661C23.3288 41.0468 23.3572 40.9492 23.3919 40.9492C23.4266 40.9492 23.455 40.9063 23.455 40.8538C23.455 40.8013 23.4795 40.7091 23.5097 40.6488C23.5833 40.5017 23.7777 39.9432 23.8166 39.7667C23.834 39.6887 23.8731 39.6249 23.9038 39.6249C23.9344 39.6249 23.9595 39.5539 23.9595 39.4672C23.9595 39.3805 23.9878 39.3095 24.0225 39.3095C24.0572 39.3095 24.0856 39.2386 24.0856 39.1519C24.0856 39.0652 24.114 38.9942 24.1486 38.9942C24.1833 38.9942 24.2117 38.957 24.2117 38.9115C24.2117 38.8659 24.2718 38.7043 24.3452 38.5523C24.4187 38.4002 24.4923 38.1891 24.5086 38.0831C24.525 37.9773 24.5642 37.8812 24.5958 37.8696C24.6273 37.858 24.6532 37.8083 24.6532 37.7593C24.6532 37.7101 24.6815 37.6699 24.7162 37.6699C24.7509 37.6699 24.7793 37.6131 24.7793 37.5438C24.7793 37.4744 24.8077 37.4176 24.8423 37.4176C24.877 37.4176 24.9054 37.3609 24.9054 37.2915C24.9054 37.2221 24.9338 37.1654 24.9685 37.1654C25.0032 37.1654 25.0315 37.1086 25.0315 37.0393C25.0315 36.9699 25.0599 36.9131 25.0946 36.9131C25.1293 36.9131 25.1577 36.8564 25.1577 36.787C25.1577 36.7176 25.186 36.6609 25.2207 36.6609C25.2554 36.6609 25.2838 36.6237 25.2838 36.5781C25.2838 36.5327 25.3405 36.4345 25.4099 36.3601C25.4793 36.2857 25.536 36.181 25.536 36.1275C25.536 36.0741 25.5644 36.0303 25.5991 36.0303C25.6338 36.0303 25.6622 35.9759 25.6622 35.9093C25.6622 35.843 25.6834 35.7791 25.7095 35.7674C25.7687 35.7411 25.9735 35.4053 26.0202 35.2577C26.0394 35.197 26.0803 35.1474 26.111 35.1474C26.1416 35.1474 26.1667 35.1048 26.1667 35.0528C26.1667 35.0008 26.195 34.9582 26.2297 34.9582C26.2644 34.9582 26.2928 34.9156 26.2928 34.8636C26.2928 34.8116 26.3212 34.769 26.3559 34.769C26.3905 34.769 26.4189 34.7395 26.4189 34.7034C26.4189 34.6344 26.6259 34.3244 26.8131 34.1131C26.8738 34.0446 26.9234 33.9512 26.9234 33.9058C26.9234 33.8603 26.9474 33.8231 26.9766 33.8231C27.0057 33.8231 27.0838 33.7168 27.15 33.5867C27.2162 33.4568 27.3483 33.2752 27.4437 33.1831C27.5391 33.091 27.6171 32.9816 27.6171 32.9402C27.6171 32.8987 27.7023 32.7852 27.8063 32.6879C27.9104 32.5906 27.9955 32.4913 27.9955 32.4672C27.9955 32.4431 28.0806 32.3437 28.1847 32.2465C28.2887 32.1492 28.3739 32.053 28.3739 32.0327C28.3739 31.9871 28.5248 31.8025 28.8153 31.4927C28.9367 31.3633 29.1921 31.0765 29.3829 30.8556C29.8417 30.3245 30.3202 29.846 30.8929 29.3456C31.151 29.1201 31.4263 28.8718 31.5048 28.7938C31.5832 28.7157 31.6708 28.6519 31.6995 28.6519C31.728 28.6519 31.7924 28.5951 31.8423 28.5258C31.8923 28.4564 31.9563 28.3996 31.9846 28.3996C32.0126 28.3996 32.1318 28.3074 32.2491 28.1947C32.6484 27.8111 32.8534 27.6429 32.9217 27.6429C32.9592 27.6429 33.0694 27.5577 33.1667 27.4537C33.2639 27.3496 33.3888 27.2645 33.4441 27.2645C33.4996 27.2645 33.545 27.2426 33.545 27.2158C33.545 27.189 33.6387 27.1166 33.7533 27.055C33.8678 26.9932 34.0593 26.8587 34.179 26.7559C34.2985 26.6533 34.4744 26.5342 34.5698 26.4915C34.6652 26.4488 34.7432 26.3925 34.7432 26.3662C34.7432 26.34 34.7805 26.3185 34.826 26.3185C34.8714 26.3185 34.9636 26.2689 35.031 26.2082C35.0981 26.1475 35.2312 26.0576 35.3266 26.0083C35.422 25.9591 35.5 25.8952 35.5 25.8664C35.5 25.8377 35.5568 25.814 35.6261 25.814C35.6955 25.814 35.7523 25.7857 35.7523 25.751C35.7523 25.7163 35.8066 25.6879 35.8732 25.6879C35.9396 25.6879 36.0034 25.6666 36.0151 25.6406C36.0414 25.5813 36.3772 25.3765 36.5248 25.3299C36.5855 25.3106 36.6351 25.2698 36.6351 25.2391C36.6351 25.2085 36.678 25.1834 36.7305 25.1834C36.8182 25.1834 37.0643 25.0696 37.1396 24.9942C37.215 24.9189 37.4611 24.805 37.5488 24.805C37.6013 24.805 37.6443 24.7837 37.6446 24.7577C37.6453 24.6988 37.9527 24.5528 38.0761 24.5528C38.1264 24.5528 38.3265 24.4776 38.5207 24.3855C38.715 24.2936 38.9306 24.198 39 24.1733C39.0694 24.1485 39.2042 24.096 39.2996 24.0568C39.3949 24.0174 39.551 23.9535 39.6464 23.9147C39.7418 23.8761 39.8692 23.8194 39.9294 23.7886C39.9896 23.758 40.096 23.733 40.1659 23.733C40.2357 23.733 40.2928 23.7046 40.2928 23.6699C40.2928 23.6352 40.362 23.6068 40.4467 23.6068C40.5313 23.6068 40.6182 23.5785 40.6396 23.5438C40.6611 23.5091 40.7621 23.4807 40.8641 23.4807C40.9662 23.4807 41.0496 23.4523 41.0496 23.4176C41.0496 23.383 41.1188 23.3546 41.2034 23.3546C41.2881 23.3546 41.375 23.3262 41.3964 23.2915C41.4178 23.2568 41.5172 23.2285 41.6171 23.2285C41.7171 23.2285 41.8164 23.2001 41.8378 23.1654C41.8593 23.1307 41.9586 23.1023 42.0586 23.1023C42.1585 23.1023 42.2578 23.074 42.2793 23.0393C42.3007 23.0046 42.416 22.9762 42.5353 22.9762C42.6547 22.9762 42.7523 22.9478 42.7523 22.9131C42.7523 22.8785 42.8498 22.8501 42.9692 22.8501C43.0885 22.8501 43.2038 22.8217 43.2252 22.787C43.2467 22.7523 43.3761 22.724 43.5128 22.724C43.6495 22.724 43.7613 22.6956 43.7613 22.6609C43.7613 22.6262 43.9032 22.5978 44.0766 22.5978C44.25 22.5978 44.3919 22.5694 44.3919 22.5348C44.3919 22.5001 44.548 22.4717 44.7387 22.4717C44.9295 22.4717 45.0856 22.4457 45.0856 22.4138C45.0856 22.382 45.2842 22.3465 45.5272 22.335C45.9127 22.3167 46.0765 22.3519 45.9194 22.4192C45.8925 22.4307 45.7932 22.6141 45.6987 22.8264C45.338 23.6379 45.4906 24.9061 46.0019 25.3474C46.0864 25.4204 46.137 25.4984 46.1145 25.5208C46.0919 25.5433 46.1156 25.5618 46.1668 25.5618C46.218 25.5618 46.321 25.6185 46.3954 25.6879C46.4698 25.7573 46.5745 25.814 46.628 25.814C46.6814 25.814 46.7252 25.8424 46.7252 25.8771C46.7252 25.9156 47.0183 25.9402 47.4782 25.9402C47.9122 25.9402 48.2479 25.9135 48.2703 25.8771C48.2917 25.8424 48.3644 25.814 48.4317 25.814C48.499 25.814 48.5541 25.7857 48.5541 25.751C48.5541 25.7163 48.5995 25.6879 48.655 25.6879C48.7741 25.6879 49.3108 25.138 49.3108 25.0157C49.3108 24.9692 49.3392 24.9312 49.3739 24.9312C49.4086 24.9312 49.4369 24.8768 49.4369 24.8102C49.4369 24.7439 49.4585 24.68 49.485 24.6683C49.5115 24.6568 49.6884 24.3352 49.8784 23.9537C50.0684 23.5721 50.2453 23.2505 50.2717 23.239C50.2982 23.2274 50.3198 23.1635 50.3198 23.0971C50.3198 23.0306 50.3482 22.9762 50.3829 22.9762C50.4176 22.9762 50.4459 22.9321 50.4459 22.8781C50.4459 22.8242 50.529 22.6185 50.6306 22.4209C50.7321 22.2234 50.8943 21.8915 50.991 21.6834C51.0875 21.4753 51.1888 21.2956 51.2161 21.2841C51.2434 21.2724 51.2658 21.2085 51.2658 21.1422C51.2658 21.0756 51.2941 21.0212 51.3288 21.0212C51.3635 21.0212 51.3919 20.9662 51.3919 20.8989C51.3919 20.8316 51.4203 20.7589 51.455 20.7375C51.4911 20.7152 51.518 20.3912 51.518 19.9807C51.518 19.5702 51.4911 19.2462 51.455 19.224C51.4203 19.2025 51.3919 19.1298 51.3919 19.0625C51.3919 18.9952 51.3635 18.9402 51.3288 18.9402C51.2941 18.9402 51.2658 18.8998 51.2658 18.8506C51.2658 18.7228 50.7471 18.2209 50.4879 18.098C50.2743 17.9966 48.0139 17.9674 46.0788 18.0412ZM56.9414 38.9048C56.0116 39.1576 55.5197 39.801 55.5263 40.7556C55.531 41.4562 55.6603 41.7122 56.3791 42.4461C57.1242 43.2067 57.5826 43.7851 57.9423 44.4176C58.2095 44.8876 58.5112 45.5028 58.6385 45.8366C58.7176 46.0447 58.8057 46.2717 58.8343 46.3411C58.8627 46.4104 58.9043 46.5381 58.927 46.6249C58.9495 46.7116 58.9943 46.8818 59.0266 47.0032C59.2748 47.9374 59.3022 48.1876 59.3043 49.5258C59.3055 50.3717 59.2784 50.9883 59.2319 51.1654C59.1909 51.3215 59.1239 51.5911 59.0828 51.7645C58.9044 52.517 58.6 53.3633 58.3113 53.9086C57.7617 54.9471 57.3368 55.5454 56.5962 56.3236C55.6422 57.3259 54.1143 58.3407 52.9685 58.7331C52.8471 58.7747 52.691 58.832 52.6216 58.8602C52.5523 58.8884 52.4246 58.93 52.3378 58.9527C52.2511 58.9753 52.0809 59.0201 51.9595 59.0524C51.0564 59.2922 50.7641 59.3251 49.5 59.3286C48.2537 59.3319 48.1082 59.3176 47.1667 59.0979C45.4296 58.6929 43.8697 57.8037 42.4062 56.3843C41.6598 55.6605 41.4383 55.5527 40.7027 55.5554C38.9691 55.5615 38.2092 57.4673 39.4017 58.8183C40.9955 60.6236 43.1964 61.9787 45.8108 62.7641C47.7856 63.3575 51.0889 63.4181 52.8108 62.8924C52.9149 62.8608 53.2128 62.7745 53.473 62.7009C53.9403 62.5686 54.1574 62.4918 54.3708 62.3832C54.4311 62.3526 54.5083 62.3276 54.5427 62.3276C54.619 62.3276 55.3247 62.0111 55.8378 61.7469C56.0459 61.6397 56.2799 61.5208 56.3576 61.4825C56.4354 61.4444 56.4992 61.3919 56.4995 61.3658C56.4998 61.3398 56.5296 61.3185 56.5659 61.3185C56.6654 61.3185 57.5305 60.7234 58.1778 60.2099C59.9907 58.7713 61.5804 56.58 62.3601 54.4447C62.4044 54.3233 62.465 54.1672 62.4949 54.0978C64.0579 50.4616 63.2068 44.9363 60.5267 41.3219C59.0552 39.3374 57.9903 38.6196 56.9414 38.9048Z" fill="#53A3FB"/>
<path fill-rule="evenodd" clip-rule="evenodd" d="M47.197 27.8255C47.1631 27.8583 46.9369 27.9007 46.6941 27.9198C45.8517 27.9859 45.5274 28.0332 45.5274 28.0901C45.5274 28.1216 45.3872 28.1473 45.2159 28.1473C45.0445 28.1473 44.8886 28.1727 44.8693 28.2038C44.8503 28.2348 44.7208 28.2774 44.5819 28.2984C44.4429 28.3193 44.2157 28.3537 44.077 28.3747C43.9382 28.3956 43.8247 28.4382 43.8247 28.4693C43.8247 28.5003 43.7413 28.5257 43.6393 28.5257C43.5373 28.5257 43.4362 28.5541 43.4148 28.5888C43.3934 28.6234 43.2781 28.6518 43.1588 28.6518C43.0394 28.6518 42.9418 28.6802 42.9418 28.7149C42.9418 28.7496 42.8726 28.778 42.7879 28.778C42.7033 28.778 42.6164 28.8063 42.595 28.841C42.5735 28.8757 42.5005 28.9041 42.4327 28.9041C42.365 28.9041 42.2532 28.9325 42.1843 28.9671C42.1154 29.0018 42.0025 29.0586 41.9336 29.0933C41.8647 29.128 41.7512 29.1563 41.6813 29.1563C41.6115 29.1563 41.5544 29.1847 41.5544 29.2194C41.5544 29.2541 41.5115 29.2825 41.459 29.2825C41.4065 29.2825 41.3143 29.3077 41.2541 29.3386C41.1005 29.4174 40.5391 29.6673 40.3878 29.7244C40.176 29.804 39.0024 30.3733 38.9688 30.4125C38.9515 30.4327 38.8522 30.4909 38.7481 30.5418C38.6441 30.5927 38.4404 30.7134 38.2953 30.8098C38.1503 30.9062 38.0144 30.9852 37.9931 30.9852C37.972 30.9852 37.8936 31.0419 37.8192 31.1113C37.7448 31.1807 37.6466 31.2374 37.6012 31.2374C37.5556 31.2374 37.5184 31.2658 37.5184 31.3005C37.5184 31.3352 37.4801 31.3635 37.4331 31.3635C37.3863 31.3635 37.2589 31.4487 37.15 31.5527C37.041 31.6568 36.9154 31.7419 36.8707 31.7419C36.8261 31.7419 36.7486 31.7987 36.6986 31.868C36.6486 31.9374 36.5756 31.9942 36.5363 31.9942C36.4971 31.9942 36.3828 32.0725 36.2822 32.1682C36.1818 32.2641 36.0002 32.4118 35.8788 32.4965C35.1152 33.0295 33.0042 35.1405 32.4711 35.9041C32.3865 36.0255 32.2388 36.2071 32.1429 36.3075C32.0472 36.4081 31.9688 36.5224 31.9688 36.5617C31.9688 36.6009 31.9121 36.6739 31.8427 36.7239C31.7734 36.7739 31.7166 36.8514 31.7166 36.8961C31.7166 36.9407 31.6315 37.0663 31.5274 37.1753C31.4234 37.2842 31.3382 37.4116 31.3382 37.4584C31.3382 37.5054 31.3098 37.5437 31.2752 37.5437C31.2405 37.5437 31.2121 37.5809 31.2121 37.6265C31.2121 37.6719 31.1553 37.7701 31.086 37.8445C31.0166 37.9189 30.9598 38.0041 30.9598 38.0337C30.9598 38.0634 30.9102 38.1425 30.8493 38.2098C30.7886 38.277 30.6685 38.4739 30.5822 38.6473C30.496 38.8207 30.4068 38.9768 30.3838 38.9942C30.3607 39.0115 30.2091 39.3095 30.0465 39.6563C29.8841 40.0032 29.7252 40.3363 29.6934 40.3965C29.6615 40.4568 29.6355 40.549 29.6355 40.6015C29.6355 40.654 29.6071 40.6969 29.5725 40.6969C29.5378 40.6969 29.5094 40.7519 29.5094 40.8192C29.5094 40.8865 29.481 40.9592 29.4463 40.9807C29.4116 41.0021 29.3833 41.0748 29.3833 41.1421C29.3833 41.2094 29.3549 41.2644 29.3202 41.2644C29.2855 41.2644 29.2571 41.3354 29.2571 41.4221C29.2571 41.5088 29.2288 41.5798 29.1941 41.5798C29.1594 41.5798 29.131 41.6368 29.131 41.7067C29.131 41.8293 29.1086 41.8902 28.9516 42.1938C28.9116 42.2714 28.8788 42.3903 28.8788 42.4581C28.8788 42.5259 28.8504 42.5989 28.8157 42.6203C28.781 42.6417 28.7526 42.7286 28.7526 42.8133C28.7526 42.8979 28.7243 42.9671 28.6896 42.9671C28.6549 42.9671 28.6265 43.0647 28.6265 43.1841C28.6265 43.3034 28.5981 43.4187 28.5634 43.4401C28.5288 43.4616 28.5004 43.5626 28.5004 43.6646C28.5004 43.7666 28.472 43.85 28.4373 43.85C28.4026 43.85 28.3743 43.9476 28.3743 44.067C28.3743 44.1863 28.3459 44.3016 28.3112 44.323C28.2765 44.3444 28.2481 44.4721 28.2481 44.6068C28.2481 44.7414 28.2197 44.8691 28.1851 44.8906C28.1504 44.912 28.122 45.0698 28.122 45.2412C28.122 45.4126 28.0963 45.5527 28.0648 45.5527C28.0332 45.5527 27.9913 45.7017 27.9714 45.8838C27.9516 46.0659 27.9032 46.4561 27.8639 46.7509C27.7693 47.4591 27.7693 51.5923 27.8639 52.3005C27.9032 52.5953 27.9516 52.9855 27.9714 53.1676C27.9913 53.3497 28.0332 53.4987 28.0648 53.4987C28.0963 53.4987 28.122 53.6388 28.122 53.8102C28.122 53.9816 28.1504 54.1394 28.1851 54.1608C28.2197 54.1823 28.2481 54.31 28.2481 54.4446C28.2481 54.5793 28.2765 54.707 28.3112 54.7284C28.3459 54.7498 28.3743 54.8634 28.3743 54.9807C28.3743 55.098 28.4026 55.2115 28.4373 55.2329C28.472 55.2543 28.5004 55.3395 28.5004 55.4221C28.5004 55.5047 28.5288 55.5898 28.5634 55.6113C28.5981 55.6327 28.6265 55.748 28.6265 55.8673C28.6265 55.9867 28.6549 56.0843 28.6896 56.0843C28.7243 56.0843 28.7526 56.1535 28.7526 56.2381C28.7526 56.3228 28.781 56.4097 28.8157 56.4311C28.8504 56.4525 28.8788 56.5377 28.8788 56.6203C28.8788 56.7029 28.9071 56.788 28.9418 56.8095C28.9765 56.8309 29.0049 56.9178 29.0049 57.0025C29.0049 57.0871 29.0333 57.1563 29.0679 57.1563C29.1026 57.1563 29.131 57.2273 29.131 57.314C29.131 57.4007 29.1594 57.4716 29.1941 57.4716C29.2288 57.4716 29.2571 57.5426 29.2571 57.6293C29.2571 57.716 29.2855 57.787 29.3202 57.787C29.3549 57.787 29.3833 57.8579 29.3833 57.9446C29.3833 58.0313 29.4116 58.1023 29.4463 58.1023C29.481 58.1023 29.5094 58.159 29.5094 58.2284C29.5094 58.2978 29.5378 58.3545 29.5725 58.3545C29.6071 58.3545 29.6355 58.3974 29.6355 58.4499C29.6355 58.5024 29.6618 58.5946 29.6938 58.6549C29.726 58.7151 29.8876 59.0553 30.053 59.4108C30.2184 59.7664 30.3765 60.0572 30.4046 60.0572C30.4325 60.0572 30.4553 60.1116 30.4553 60.1782C30.4553 60.2445 30.4766 60.3084 30.5026 60.32C30.5619 60.3464 30.7667 60.6822 30.8134 60.8298C30.8326 60.8905 30.8734 60.9401 30.9042 60.9401C30.9348 60.9401 30.9598 60.9827 30.9598 61.0347C30.9598 61.0867 30.9882 61.1293 31.0229 61.1293C31.0576 61.1293 31.086 61.1719 31.086 61.2239C31.086 61.2759 31.1143 61.3185 31.149 61.3185C31.1837 61.3185 31.2121 61.3611 31.2121 61.4131C31.2121 61.4651 31.2405 61.5077 31.2752 61.5077C31.3098 61.5077 31.3382 61.546 31.3382 61.593C31.3382 61.6398 31.4234 61.7672 31.5274 61.8761C31.6315 61.9851 31.7166 62.1107 31.7166 62.1553C31.7166 62.2 31.7734 62.2775 31.8427 62.3275C31.9121 62.3775 31.9688 62.4513 31.9688 62.4915C31.9688 62.5317 32.0753 62.6767 32.2053 62.8139C32.3354 62.9509 32.4817 63.1317 32.5304 63.2156C32.8396 63.748 35.4493 66.3389 35.9696 66.6301C36.0339 66.6661 36.1717 66.7769 36.2757 66.8764C36.3798 66.9759 36.4971 67.0572 36.5363 67.0572C36.5756 67.0572 36.6486 67.114 36.6986 67.1834C36.7486 67.2527 36.8296 67.3095 36.8785 67.3095C36.9275 67.3095 37.0134 67.3593 37.0695 67.4203C37.1257 67.4812 37.2496 67.5712 37.345 67.6201C37.4404 67.6691 37.5184 67.7328 37.5184 67.7616C37.5184 67.7903 37.5688 67.814 37.6306 67.814C37.6923 67.814 37.7837 67.8707 37.8337 67.9401C37.8837 68.0095 37.9486 68.0662 37.9781 68.0662C38.0076 68.0662 38.1555 68.1514 38.3067 68.2554C38.4579 68.3595 38.6121 68.4446 38.6491 68.4446C38.6862 68.4446 38.7166 68.473 38.7166 68.5077C38.7166 68.5424 38.7734 68.5707 38.8427 68.5707C38.9121 68.5707 38.9688 68.5931 38.9688 68.6206C38.9688 68.648 39.2597 68.8079 39.6152 68.9759C39.9708 69.1441 40.311 69.3061 40.3712 69.336C40.4314 69.366 40.5237 69.3906 40.5762 69.3906C40.6287 69.3906 40.6715 69.4189 40.6715 69.4536C40.6715 69.4883 40.7266 69.5167 40.7939 69.5167C40.8612 69.5167 40.9339 69.5451 40.9553 69.5798C40.9768 69.6144 41.0495 69.6428 41.1168 69.6428C41.1841 69.6428 41.2391 69.6712 41.2391 69.7059C41.2391 69.7406 41.3101 69.7689 41.3968 69.7689C41.4835 69.7689 41.5544 69.7973 41.5544 69.832C41.5544 69.8667 41.6115 69.8951 41.6813 69.8951C41.804 69.8951 41.8649 69.9175 42.1685 70.0745C42.2461 70.1145 42.365 70.1473 42.4327 70.1473C42.5005 70.1473 42.5735 70.1757 42.595 70.2104C42.6164 70.2451 42.7033 70.2734 42.7879 70.2734C42.8726 70.2734 42.9418 70.3018 42.9418 70.3365C42.9418 70.3712 43.0553 70.3996 43.1941 70.3996C43.3328 70.3996 43.4463 70.428 43.4463 70.4626C43.4463 70.4973 43.5315 70.5257 43.6355 70.5257C43.7396 70.5257 43.8247 70.5541 43.8247 70.5888C43.8247 70.6235 43.9223 70.6518 44.0416 70.6518C44.161 70.6518 44.2762 70.6802 44.2977 70.7149C44.3191 70.7496 44.4468 70.778 44.5815 70.778C44.7161 70.778 44.8438 70.8063 44.8652 70.841C44.8867 70.8757 45.0445 70.9041 45.2159 70.9041C45.3872 70.9041 45.5274 70.9298 45.5274 70.9613C45.5274 71.0182 45.8517 71.0655 46.6941 71.1316C46.9369 71.1507 47.1625 71.1923 47.1954 71.2243C47.2795 71.3058 51.7517 71.3011 51.8022 71.2194C51.8236 71.1847 52.0506 71.1563 52.3067 71.1563C52.5627 71.1563 52.7897 71.128 52.8112 71.0933C52.8326 71.0586 52.9904 71.0302 53.1618 71.0302C53.3332 71.0302 53.4734 71.0018 53.4734 70.9671C53.4734 70.9325 53.6135 70.9041 53.7849 70.9041C53.9563 70.9041 54.1141 70.8757 54.1355 70.841C54.157 70.8063 54.2847 70.778 54.4193 70.778C54.5539 70.778 54.6816 70.7496 54.7031 70.7149C54.7245 70.6802 54.8398 70.6518 54.9591 70.6518C55.0785 70.6518 55.1761 70.6235 55.1761 70.5888C55.1761 70.5541 55.2754 70.5257 55.3968 70.5257C55.5182 70.5257 55.6175 70.4973 55.6175 70.4626C55.6175 70.428 55.7168 70.3996 55.8382 70.3996C55.9596 70.3996 56.0589 70.3712 56.0589 70.3365C56.0589 70.3018 56.1441 70.2734 56.2481 70.2734C56.3522 70.2734 56.4373 70.2451 56.4373 70.2104C56.4373 70.1757 56.4944 70.1473 56.5642 70.1473C56.6341 70.1473 56.7476 70.1189 56.8165 70.0843C56.8854 70.0496 56.9983 69.9928 57.0672 69.9581C57.1361 69.9235 57.2496 69.8951 57.3194 69.8951C57.3893 69.8951 57.4463 69.8667 57.4463 69.832C57.4463 69.7973 57.5155 69.7689 57.6002 69.7689C57.6849 69.7689 57.7717 69.7406 57.7932 69.7059C57.8146 69.6712 57.8873 69.6428 57.9546 69.6428C58.0219 69.6428 58.077 69.6144 58.077 69.5798C58.077 69.5451 58.1337 69.5167 58.2031 69.5167C58.2725 69.5167 58.3292 69.4883 58.3292 69.4536C58.3292 69.4189 58.3721 69.3906 58.4246 69.3906C58.4771 69.3906 58.5693 69.366 58.6295 69.336C58.6898 69.3061 59.03 69.1441 59.3855 68.9759C59.741 68.8079 60.0319 68.648 60.0319 68.6206C60.0319 68.5931 60.0887 68.5707 60.158 68.5707C60.2274 68.5707 60.2842 68.5477 60.2842 68.5195C60.2842 68.4913 60.3835 68.4292 60.5049 68.3816C60.6263 68.3339 60.7256 68.2718 60.7256 68.2436C60.7256 68.2154 60.7682 68.1924 60.8202 68.1924C60.8722 68.1924 60.9148 68.164 60.9148 68.1293C60.9148 68.0946 60.9574 68.0662 61.0094 68.0662C61.0614 68.0662 61.104 68.0379 61.104 68.0032C61.104 67.9685 61.1466 67.9401 61.1986 67.9401C61.2506 67.9401 61.2932 67.9117 61.2932 67.8771C61.2932 67.8424 61.3357 67.814 61.3878 67.814C61.4398 67.814 61.4824 67.7856 61.4824 67.7509C61.4824 67.7162 61.5207 67.6879 61.5677 67.6879C61.6145 67.6879 61.7419 67.6027 61.8508 67.4987C61.9598 67.3946 62.0854 67.3095 62.13 67.3095C62.1746 67.3095 62.2522 67.2527 62.3022 67.1834C62.3522 67.114 62.4252 67.0572 62.4644 67.0572C62.5037 67.0572 62.618 66.979 62.7186 66.8835C62.819 66.788 62.99 66.6532 63.0985 66.5839C63.725 66.1841 66.3322 63.5752 66.5867 63.0934C66.6297 63.0117 66.7475 62.8587 66.8484 62.753C66.9493 62.6474 67.0319 62.529 67.0319 62.4897C67.0319 62.4505 67.0887 62.3775 67.158 62.3275C67.2274 62.2775 67.2842 62.2 67.2842 62.1553C67.2842 62.1107 67.3693 61.9851 67.4734 61.8761C67.5774 61.7672 67.6625 61.6398 67.6625 61.593C67.6625 61.546 67.6909 61.5077 67.7256 61.5077C67.7603 61.5077 67.7887 61.4651 67.7887 61.4131C67.7887 61.3611 67.817 61.3185 67.8517 61.3185C67.8864 61.3185 67.9148 61.2759 67.9148 61.2239C67.9148 61.1719 67.9432 61.1293 67.9779 61.1293C68.0125 61.1293 68.0409 61.0891 68.0409 61.0399C68.0409 60.9909 68.0622 60.9412 68.0882 60.9296C68.1475 60.9032 68.3523 60.5674 68.399 60.4198C68.4182 60.3591 68.459 60.3095 68.4898 60.3095C68.5204 60.3095 68.5454 60.2527 68.5454 60.1834C68.5454 60.114 68.5678 60.0572 68.5952 60.0572C68.6227 60.0572 68.7825 59.7664 68.9506 59.4108C69.1188 59.0553 69.2807 58.7151 69.3107 58.6549C69.3407 58.5946 69.3652 58.5024 69.3652 58.4499C69.3652 58.3974 69.3936 58.3545 69.4283 58.3545C69.463 58.3545 69.4914 58.2978 69.4914 58.2284C69.4914 58.159 69.5198 58.1023 69.5544 58.1023C69.5891 58.1023 69.6175 58.0313 69.6175 57.9446C69.6175 57.8579 69.6459 57.787 69.6806 57.787C69.7152 57.787 69.7436 57.716 69.7436 57.6293C69.7436 57.5426 69.772 57.4716 69.8067 57.4716C69.8414 57.4716 69.8698 57.4146 69.8698 57.3447C69.8698 57.2749 69.8981 57.1614 69.9328 57.0925C69.9675 57.0236 70.0243 56.9107 70.0589 56.8418C70.0936 56.7729 70.122 56.6611 70.122 56.5933C70.122 56.5255 70.1504 56.4525 70.1851 56.4311C70.2198 56.4097 70.2481 56.3228 70.2481 56.2381C70.2481 56.1535 70.2765 56.0843 70.3112 56.0843C70.3459 56.0843 70.3743 55.9867 70.3743 55.8673C70.3743 55.748 70.4026 55.6327 70.4373 55.6113C70.472 55.5898 70.5004 55.4888 70.5004 55.3868C70.5004 55.2848 70.5288 55.2014 70.5634 55.2014C70.5981 55.2014 70.6265 55.1038 70.6265 54.9844C70.6265 54.8651 70.6549 54.7498 70.6896 54.7284C70.7243 54.707 70.7526 54.5793 70.7526 54.4446C70.7526 54.31 70.781 54.1823 70.8157 54.1608C70.8504 54.1394 70.8788 53.9816 70.8788 53.8102C70.8788 53.6388 70.9045 53.4987 70.936 53.4987C70.9929 53.4987 71.0402 53.1744 71.1063 52.332C71.1253 52.0892 71.167 51.8636 71.199 51.8307C71.2759 51.7514 71.2759 47.3 71.199 47.2207C71.167 47.1878 71.1253 46.9622 71.1063 46.7194C71.0402 45.877 70.9929 45.5527 70.936 45.5527C70.9045 45.5527 70.8788 45.4126 70.8788 45.2412C70.8788 45.0698 70.8504 44.912 70.8157 44.8906C70.781 44.8691 70.7526 44.7414 70.7526 44.6068C70.7526 44.4721 70.7243 44.3444 70.6896 44.323C70.6549 44.3016 70.6265 44.1863 70.6265 44.067C70.6265 43.9476 70.5981 43.85 70.5634 43.85C70.5288 43.85 70.5004 43.7666 70.5004 43.6646C70.5004 43.5626 70.472 43.4616 70.4373 43.4401C70.4026 43.4187 70.3743 43.3034 70.3743 43.1841C70.3743 43.0647 70.3459 42.9671 70.3112 42.9671C70.2765 42.9671 70.2481 42.882 70.2481 42.778C70.2481 42.6739 70.2198 42.5888 70.1851 42.5888C70.1504 42.5888 70.122 42.5317 70.122 42.4619C70.122 42.392 70.0936 42.2785 70.0589 42.2096C70.0243 42.1407 69.9675 42.0278 69.9328 41.9589C69.8981 41.89 69.8698 41.7765 69.8698 41.7067C69.8698 41.6368 69.8414 41.5798 69.8067 41.5798C69.772 41.5798 69.7436 41.5088 69.7436 41.4221C69.7436 41.3354 69.7152 41.2644 69.6806 41.2644C69.6459 41.2644 69.6175 41.2094 69.6175 41.1421C69.6175 41.0748 69.5891 41.0021 69.5544 40.9807C69.5198 40.9592 69.4914 40.8865 69.4914 40.8192C69.4914 40.7519 69.463 40.6969 69.4283 40.6969C69.3936 40.6969 69.3652 40.654 69.3652 40.6015C69.3652 40.549 69.3407 40.4568 69.3107 40.3965C69.2807 40.3363 69.1188 39.9961 68.9506 39.6406C68.7825 39.285 68.6227 38.9942 68.5952 38.9942C68.5678 38.9942 68.5454 38.9398 68.5454 38.8732C68.5454 38.8069 68.5241 38.743 68.4981 38.7314C68.4389 38.705 68.2341 38.3692 68.1874 38.2216C68.1682 38.1609 68.1273 38.1113 68.0966 38.1113C68.066 38.1113 68.0409 38.0816 68.0409 38.0455C68.0409 38.0094 67.9842 37.9189 67.9148 37.8445C67.8454 37.7701 67.7887 37.6719 67.7887 37.6265C67.7887 37.5809 67.7603 37.5437 67.7256 37.5437C67.6909 37.5437 67.6625 37.5054 67.6625 37.4584C67.6625 37.4116 67.5774 37.2842 67.4734 37.1753C67.3693 37.0663 67.2842 36.9407 67.2842 36.8961C67.2842 36.8514 67.2274 36.7739 67.158 36.7239C67.0887 36.6739 67.0319 36.6009 67.0319 36.5617C67.0319 36.5224 66.9506 36.4051 66.8511 36.3011C66.7516 36.197 66.6434 36.0639 66.6107 36.0055C66.4123 35.651 64.2904 33.3991 63.8926 33.1208C63.8136 33.0655 63.6238 32.9029 63.4707 32.7594C63.3177 32.616 63.1684 32.4987 63.1389 32.4987C63.1095 32.4987 62.9599 32.3852 62.8067 32.2464C62.6534 32.1077 62.4977 31.9942 62.4605 31.9942C62.4234 31.9942 62.3522 31.9374 62.3022 31.868C62.2522 31.7987 62.1746 31.7419 62.13 31.7419C62.0854 31.7419 61.9598 31.6568 61.8508 31.5527C61.7419 31.4487 61.6145 31.3635 61.5677 31.3635C61.5207 31.3635 61.4824 31.3352 61.4824 31.3005C61.4824 31.2658 61.4398 31.2374 61.3878 31.2374C61.3357 31.2374 61.2932 31.209 61.2932 31.1743C61.2932 31.1397 61.2506 31.1113 61.1986 31.1113C61.1466 31.1113 61.104 31.0829 61.104 31.0482C61.104 31.0135 61.0638 30.9852 61.0146 30.9852C60.9656 30.9852 60.9159 30.9639 60.9042 30.9379C60.8779 30.8786 60.5421 30.6738 60.3945 30.6271C60.3338 30.6079 60.2842 30.5671 60.2842 30.5363C60.2842 30.5057 60.2298 30.4807 60.1632 30.4807C60.0969 30.4807 60.033 30.455 60.0213 30.4236C59.9953 30.3526 58.8477 29.787 58.7301 29.787C58.683 29.787 58.6445 29.7586 58.6445 29.7239C58.6445 29.6892 58.5736 29.6608 58.4869 29.6608C58.4002 29.6608 58.3292 29.6325 58.3292 29.5978C58.3292 29.5631 58.2725 29.5347 58.2031 29.5347C58.1337 29.5347 58.077 29.5063 58.077 29.4716C58.077 29.437 58.006 29.4086 57.9193 29.4086C57.8326 29.4086 57.7616 29.3802 57.7616 29.3455C57.7616 29.3108 57.6907 29.2825 57.604 29.2825C57.5173 29.2825 57.4463 29.2541 57.4463 29.2194C57.4463 29.1847 57.3754 29.1563 57.2887 29.1563C57.202 29.1563 57.131 29.128 57.131 29.0933C57.131 29.0586 57.0618 29.0302 56.9771 29.0302C56.8925 29.0302 56.8056 29.0018 56.7842 28.9671C56.7627 28.9325 56.6776 28.9041 56.595 28.9041C56.5124 28.9041 56.4272 28.8757 56.4058 28.841C56.3843 28.8063 56.2975 28.778 56.2128 28.778C56.1282 28.778 56.0589 28.7496 56.0589 28.7149C56.0589 28.6802 55.9613 28.6518 55.842 28.6518C55.7227 28.6518 55.6074 28.6234 55.586 28.5888C55.5645 28.5541 55.4794 28.5257 55.3968 28.5257C55.3142 28.5257 55.229 28.4973 55.2076 28.4626C55.1861 28.428 55.0726 28.3996 54.9553 28.3996C54.838 28.3996 54.7245 28.3712 54.7031 28.3365C54.6816 28.3018 54.5539 28.2734 54.4193 28.2734C54.2847 28.2734 54.157 28.2451 54.1355 28.2104C54.1141 28.1757 53.9563 28.1473 53.7849 28.1473C53.6135 28.1473 53.4734 28.1189 53.4734 28.0843C53.4734 28.0496 53.3371 28.0212 53.1707 28.0212C53.0042 28.0212 52.841 27.995 52.808 27.9629C52.6709 27.8293 47.3277 27.6985 47.197 27.8255ZM50.2992 35.8448C50.7858 36.0523 51.2482 36.5625 51.4386 37.1023C51.5517 37.4225 51.5517 49.8349 51.4386 50.1592C51.2427 50.7214 50.6961 51.268 50.1338 51.4639C49.8103 51.5767 39.3526 51.5767 39.0291 51.4639C38.5801 51.3074 38.0223 50.8246 37.8421 50.4366C37.7948 50.3345 37.7309 50.2016 37.7002 50.1414C37.6236 49.9908 37.6297 48.9747 37.7076 48.9266C37.7423 48.9052 37.7713 48.8396 37.7722 48.7809C37.7747 48.6097 38.1941 48.0853 38.5023 47.8681C39.0166 47.5056 38.9605 47.5097 43.399 47.5086L47.4824 47.5077L47.4833 42.4153C47.4843 37.0376 47.4791 37.1395 47.7778 36.6608C48.3011 35.8223 49.4067 35.4644 50.2992 35.8448ZM58.3295 38.9748C59.0532 39.3502 61.4824 42.1778 61.4824 42.6446C61.4824 42.6775 61.5057 42.7138 61.5342 42.7255C61.5628 42.737 61.7316 43.0444 61.9096 43.4086C62.551 44.7212 62.939 45.9313 63.194 47.4131C63.2987 48.022 63.337 50.6768 63.2494 51.2599C62.9517 53.2422 62.2006 55.4539 61.483 56.4617C61.4133 56.5596 61.3562 56.658 61.3562 56.6802C61.3562 56.7472 60.7264 57.6626 60.3561 58.1338C59.4178 59.3274 57.8627 60.6939 56.6532 61.3872C55.4641 62.0688 54.751 62.388 53.6625 62.7262C53.0154 62.9274 52.5277 63.036 51.2308 63.2681C50.74 63.3559 48.4125 63.357 47.868 63.2695C45.7536 62.9304 44.2081 62.4289 42.863 61.6455C42.7329 61.5696 42.5202 61.4475 42.3903 61.374C41.1259 60.6581 39.2895 59.0252 38.9356 58.3023C38.2767 56.9569 39.2165 55.4852 40.7346 55.4852C41.5046 55.4852 41.7154 55.5917 42.5461 56.401C43.7036 57.5289 45.1668 58.434 46.4103 58.7917C46.5664 58.8366 46.7508 58.8956 46.8202 58.9227C46.8896 58.9498 47.1166 59.0058 47.3247 59.0473C47.5328 59.0887 47.8439 59.1527 48.016 59.1895C48.4253 59.277 50.5146 59.2778 50.9193 59.1906C51.0927 59.1532 51.4049 59.088 51.613 59.0455C54.675 58.4215 57.4643 56.0357 58.577 53.0888C58.6556 52.8807 58.7416 52.6536 58.7681 52.5843C58.8895 52.2663 58.9892 51.8627 59.1492 51.0392C59.2972 50.2782 59.2682 48.5829 59.0915 47.6653C58.7139 45.7044 57.8479 44.0786 56.3774 42.5698C55.6512 41.8246 55.4824 41.5247 55.442 40.9083C55.3388 39.3298 56.9432 38.2555 58.3295 38.9748Z" fill="#04449C"/>
<path fill-rule="evenodd" clip-rule="evenodd" d="M30.2043 29.9446C30.1228 30.0313 30.0766 30.1023 30.1015 30.1023C30.1266 30.1023 30.2179 30.0313 30.3046 29.9446C30.3913 29.8579 30.4377 29.787 30.4074 29.787C30.3771 29.787 30.2858 29.8579 30.2043 29.9446ZM29.8572 30.2918C29.6932 30.4729 29.766 30.4933 29.9385 30.3145C30.0178 30.2325 30.0577 30.1653 30.0271 30.1653C29.9965 30.1653 29.9201 30.2222 29.8572 30.2918ZM57.0692 38.7823C56.0365 38.9705 55.3733 39.8378 55.4433 40.9083C55.4836 41.5247 55.6525 41.8246 56.3786 42.5698C57.8491 44.0786 58.7151 45.7044 59.0927 47.6653C59.2695 48.5829 59.2985 50.2782 59.1504 51.0392C58.9904 51.8627 58.8908 52.2663 58.7694 52.5843C58.7429 52.6536 58.6568 52.8807 58.5783 53.0888C57.4655 56.0357 54.6763 58.4215 51.6142 59.0455C51.4061 59.0879 51.094 59.1532 50.9205 59.1906C50.5158 59.2778 48.4266 59.277 48.0173 59.1895C47.8451 59.1527 47.5341 59.0887 47.3259 59.0473C47.1178 59.0058 46.8908 58.9498 46.8214 58.9227C46.7521 58.8956 46.5676 58.8366 46.4115 58.7917C45.1681 58.434 43.7049 57.5289 42.5473 56.401C41.7166 55.5917 41.5059 55.4852 40.7359 55.4852C39.2178 55.4852 38.278 56.9569 38.9368 58.3023C39.2908 59.0252 41.1272 60.6581 42.3916 61.374C42.5215 61.4475 42.7342 61.5696 42.8642 61.6455C44.2094 62.4289 45.7549 62.9304 47.8692 63.2695C48.4138 63.357 50.7413 63.3559 51.2321 63.2681C52.529 63.036 53.0166 62.9274 53.6638 62.7262C54.7523 62.388 55.4653 62.0688 56.6544 61.3872C57.8639 60.6938 59.4191 59.3274 60.3573 58.1338C60.7276 57.6626 61.3575 56.7472 61.3575 56.6802C61.3575 56.658 61.4146 56.5596 61.4842 56.4617C62.2019 55.4539 62.953 53.2422 63.2506 51.2599C63.3383 50.6768 63.3 48.022 63.1953 47.4131C62.9402 45.9313 62.5522 44.7212 61.9109 43.4086C61.7329 43.0444 61.564 42.737 61.5355 42.7254C61.5069 42.7138 61.4836 42.6775 61.4836 42.6446C61.4836 42.5339 60.5889 41.2373 60.1394 40.6969C58.8414 39.1361 58.0016 38.6123 57.0692 38.7823ZM58.0845 38.9689C59.2857 39.3506 61.5076 42.3386 62.4176 44.796C63.4728 47.6458 63.5076 51.7457 62.4966 54.0978C62.4666 54.1671 62.4061 54.3232 62.3618 54.4446C61.582 56.5799 59.9923 58.7712 58.1794 60.2098C57.5321 60.7233 56.667 61.3185 56.5675 61.3185C56.5313 61.3185 56.5015 61.3398 56.5011 61.3658C56.5008 61.3918 56.437 61.4443 56.3593 61.4825C56.2815 61.5208 56.0476 61.6396 55.8395 61.7468C55.3263 62.0111 54.6206 62.3275 54.5443 62.3275C54.5099 62.3275 54.4327 62.3526 54.3725 62.3832C54.159 62.4918 53.9419 62.5686 53.4746 62.7008C53.2145 62.7745 52.9165 62.8607 52.8124 62.8924C51.2914 63.3567 48.2883 63.3693 46.4115 62.9192C43.6815 62.2646 41.1253 60.7687 39.4033 58.8182C38.2108 57.4672 38.9707 55.5615 40.7043 55.5553C41.44 55.5526 41.6615 55.6605 42.4078 56.3843C43.8714 57.8037 45.4312 58.6929 47.1683 59.0979C48.1098 59.3175 48.2553 59.3318 49.5016 59.3285C50.7657 59.3251 51.058 59.2921 51.9611 59.0523C52.0825 59.02 52.2527 58.9752 52.3395 58.9527C52.4262 58.93 52.5539 58.8884 52.6232 58.8601C52.6926 58.8319 52.8487 58.7747 52.9701 58.7331C54.1159 58.3407 55.6438 57.3258 56.5978 56.3236C57.3385 55.5454 57.7634 54.9471 58.313 53.9086C58.6016 53.3632 58.9061 52.5169 59.0844 51.7644C59.1255 51.591 59.1925 51.3214 59.2335 51.1653C59.28 50.9883 59.3071 50.3717 59.3059 49.5257C59.3038 48.1875 59.2764 47.9373 59.0282 47.0032C58.9959 46.8818 58.9511 46.7115 58.9286 46.6248C58.9059 46.5381 58.8643 46.4104 58.8359 46.341C58.8074 46.2716 58.7192 46.0446 58.6401 45.8365C58.5129 45.5027 58.2111 44.8876 57.9439 44.4176C57.5843 43.7851 57.1258 43.2066 56.3807 42.4461C55.6619 41.7122 55.5327 41.4561 55.5279 40.7555C55.5183 39.3677 56.7127 38.533 58.0845 38.9689ZM29.1953 67.969C29.1953 67.9942 29.2521 68.0869 29.3214 68.1752C29.3908 68.2633 29.4476 68.3149 29.4476 68.2896C29.4476 68.2644 29.3908 68.1717 29.3214 68.0834C29.2521 67.9953 29.1953 67.9437 29.1953 67.969ZM68.9977 68.8001C68.8817 68.9215 68.7983 69.0327 68.8126 69.0469C68.827 69.0612 68.949 68.96 69.0838 68.8219C69.2188 68.6838 69.302 68.5726 69.2689 68.575C69.2359 68.5775 69.1138 68.6787 68.9977 68.8001Z" fill="#2A74CC"/>
<path fill-rule="evenodd" clip-rule="evenodd" d="M48.6632 35.8644C48.1729 36.0965 47.747 36.5748 47.5608 37.1025C47.5016 37.2705 47.4828 38.5379 47.482 42.4155L47.4811 47.5079L43.3977 47.5088C38.9592 47.5099 39.0153 47.5058 38.501 47.8683C38.1928 48.0855 37.7734 48.6099 37.7709 48.7811C37.77 48.8398 37.741 48.9054 37.7063 48.9268C37.6284 48.9749 37.6223 49.991 37.6989 50.1415C37.7296 50.2018 37.7935 50.3347 37.8408 50.4368C38.021 50.8248 38.5788 51.3076 39.0278 51.4641C39.3513 51.5769 49.809 51.5769 50.1326 51.4641C50.6948 51.2682 51.2414 50.7216 51.4373 50.1594C51.5504 49.8351 51.5504 37.4227 51.4373 37.1025C51.034 35.9593 49.7103 35.3686 48.6632 35.8644ZM50.3189 35.9506C50.7146 36.1444 51.0667 36.505 51.2592 36.9133L51.4225 37.2601L51.4405 43.5034C51.4567 49.1078 51.448 49.7802 51.3566 50.0753C51.1662 50.6891 50.7394 51.1318 50.1199 51.3584C49.5689 51.5597 39.5294 51.5477 38.9876 51.3449C37.2369 50.69 37.3358 48.2109 39.1342 47.6652C39.3902 47.5875 40.1054 47.5722 43.4923 47.5716L47.5441 47.5709V42.5092C47.5441 36.8483 47.5233 37.1236 47.9969 36.5067C48.5251 35.8188 49.5491 35.5737 50.3189 35.9506Z" fill="#5C7464"/>
</svg>
