<svg width="529" height="468" viewBox="0 0 529 468" fill="none" xmlns="http://www.w3.org/2000/svg">
<path d="M154.499 79.5983C154.499 80.4865 154.146 81.3384 153.518 81.9664C152.89 82.5945 152.038 82.9473 151.15 82.9473C150.487 82.9473 149.84 82.7509 149.289 82.3829C148.738 82.0149 148.309 81.4919 148.056 80.8799C147.802 80.268 147.736 79.5946 147.865 78.945C147.994 78.2953 148.313 77.6986 148.782 77.2302C149.25 76.7619 149.847 76.4429 150.496 76.3137C151.146 76.1845 151.819 76.2508 152.431 76.5043C153.043 76.7577 153.566 77.187 153.934 77.7377C154.302 78.2885 154.499 78.936 154.499 79.5983Z" fill="black"/>
<path d="M153.521 68.9485C153.521 70.9877 152.457 71.743 151.139 71.743C149.822 71.743 148.758 70.9988 148.758 68.9485V39.2317C148.758 37.1963 149.826 36.4409 151.139 36.4409C152.453 36.4409 153.521 37.1851 153.521 39.2317V68.9485Z" fill="black"/>
<path d="M140.431 81.3175C142.317 80.551 143.408 81.2543 143.914 82.4748C144.42 83.6953 144.107 84.9642 142.221 85.7308L122.149 93.88C120.262 94.6465 119.172 93.9433 118.666 92.7227C118.16 91.5022 118.469 90.2333 120.355 89.4668L140.431 81.3175Z" fill="black"/>
<path d="M279.594 219.091C280.338 208.326 286.865 188.523 290.296 178.185C293.496 168.54 297.529 154.995 299.412 139.583C301.12 125.61 299.286 76.8782 299.904 69.4249C303.279 28.716 324.608 15.4688 337.36 12.4175C342.793 7.03308 349.119 2.69427 363.78 2.68683C397.173 2.99568 430.797 41.7287 445.976 70.8426C459.907 97.575 454.698 139.047 453.913 149.109C453.191 158.356 458.356 179.157 461.448 186.889C464.54 194.621 324.738 262.066 279.594 219.091Z" fill="#4B4B4B"/>
<path d="M324.113 53.1598C317.832 78.9731 319.224 96.7674 327.905 119.44C322.323 121.915 317.14 122.417 321.493 132.62C324.046 138.6 335.209 147.717 344.683 141.034C354.887 152.163 355.065 153.804 364.342 156.897C365.272 166.482 365.332 181.791 365.023 184.883C364.714 187.975 365.272 196.474 348.576 200.802C351.355 212.241 358.158 245.016 368.052 255.837C377.946 266.658 381.347 266.04 393.408 257.073C405.468 248.105 427.727 218.745 436.695 202.655C445.663 186.565 443.189 183.179 443.189 183.179C443.189 183.179 433.294 183.488 428.658 181.94C424.021 180.392 422.473 176.377 422.164 169.575C421.855 162.772 423.281 138.901 423.281 138.901C423.281 138.901 426.741 129.446 427.002 125.729C427.262 122.011 426.782 117.077 425.044 105.635C429.681 102.234 432.989 103.075 434.719 90.7057C423.429 84.6292 416.646 79.2671 411.247 71.996C403.402 70.7048 394.267 71.2109 383.74 63.2328C371.062 53.6286 364.327 40.0057 348.118 36.9134C328.322 33.1402 324.113 53.1598 324.113 53.1598Z" fill="#FCDFC4"/>
<path d="M370.559 131.366C381.722 128.706 396.13 121.223 399.654 118.465C401.325 126.715 401.514 135.869 393.004 140.278C383.519 145.183 375.887 138.76 370.559 131.348V131.366Z" fill="white"/>
<path d="M465.354 457.127C465.354 457.127 471.985 421.892 471.985 410.524C483.792 407.919 488.514 404.838 491.577 402.214C494.639 399.591 500.321 382.537 507.317 348.433C514.313 314.329 526.994 236.488 527.433 226.872C527.872 217.257 524.371 201.074 513.877 195.392C503.384 189.71 442.603 184.02 442.603 184.02C442.603 184.02 442.603 192.768 439.106 198.904C435.608 205.041 416.805 235.196 404.559 247.003C392.313 258.811 378.76 268.865 372.185 261.43C365.61 253.995 356.445 234.757 354.261 223.847C352.076 212.937 349.453 200.199 349.453 200.199C349.453 200.199 343.767 202.804 334.568 204.572C325.37 206.339 297.837 210.697 290.403 212.881C282.968 215.065 274.662 224.249 271.165 229.06C267.667 233.872 263.722 254.42 262.416 271.481C261.11 288.542 252.797 310.396 252.797 310.396C252.797 310.396 243.614 299.903 237.931 286.786C232.249 273.669 217.409 236.488 216.982 231.245C216.554 226.002 219.698 216.36 211.4 223.356C203.102 230.352 193.382 250.047 191.194 253.984C189.006 257.921 189.01 260.98 191.194 269.289C193.379 277.598 203.437 315.2 207.374 328.756C211.311 342.312 215.244 358.927 226.176 370.295C237.109 381.663 250.583 394.062 256.265 395.81C261.947 397.559 270.833 392.61 278.819 383.732C286.696 374.98 292.092 361.472 293.525 379.237C294.418 390.262 300.725 410.524 301.16 419.268C301.596 428.013 304.32 456.985 304.32 456.985C304.32 456.985 331.234 466.485 373.201 467.192C409.668 467.806 455.81 463.371 465.377 457.145L465.354 457.127Z" fill="#FFBF00"/>
<path d="M278.799 389.946C273.961 392.115 272.328 394.181 274.501 397.258C276.674 400.335 276.897 402.438 274.97 403.822C273.042 405.206 271.513 408.209 274.069 410.52C276.626 412.831 276.808 415.729 275.067 417.739C273.325 419.748 273.351 422.264 275.48 423.507C278.479 425.252 278.111 428.095 277.497 429.769C276.451 432.634 284.909 434.476 287.484 435.057C289.802 435.574 303.034 431.31 305.394 429.643C307.753 427.976 309.308 425.207 307.184 422.599C307.184 422.599 326.161 416.243 323.798 414.595C320.49 412.284 323.835 378.831 327.519 379.244L297.378 384.081C297.378 384.081 283.659 387.75 278.814 389.92L278.799 389.946Z" fill="#FCDFC4"/>
<path d="M194.015 260.541C194.015 260.541 199.701 258.792 213.692 229.06C210.195 220.97 204.293 202.607 200.356 196.266C196.419 189.925 194.626 187.648 185.006 185.683C175.387 183.718 166.959 184.66 162.464 184.351C157.969 184.042 147.148 180.355 139.349 176.641C130.046 172.205 128.208 168.28 128.208 168.28C128.208 168.28 127.768 163.472 125.145 162.158C122.522 160.845 119.679 160.629 120.773 166.531C120.337 168.06 118.588 166.97 116.836 168.719C115.083 170.468 115.087 174.185 117.055 176.369C118.496 177.919 120.029 179.379 121.647 180.742L122.741 191.019L117.93 190.8C117.93 190.8 112.903 179.867 109.185 174.185C105.468 168.503 102.625 162.378 99.7857 161.503C96.9465 160.629 94.0999 161.064 94.0999 164.108C88.414 161.92 83.1673 160.61 82.9366 162.795C82.7059 164.979 91.0262 175.041 91.0262 175.041C91.0262 175.041 85.3553 173.973 83.1673 173.973C80.9793 173.973 80.5625 177.694 80.5625 177.694L105.267 194.964L109.204 204.367L137.856 208.088L145.507 213.554L183.332 219.675C183.332 219.675 183.987 218.801 185.3 222.738C186.614 226.675 189.643 247.651 194.015 260.541Z" fill="#FCDFC4"/>
<path d="M363.552 156.614C363.359 156.665 363.179 156.754 363.021 156.876C362.863 156.997 362.73 157.149 362.631 157.322C362.531 157.495 362.467 157.686 362.442 157.884C362.417 158.081 362.431 158.282 362.484 158.475C363.009 160.432 363.269 165.016 363.374 169.638C363.478 174.26 363.467 179.015 363.697 181.988C363.898 184.63 363.697 188.098 360.665 191.712C357.632 195.325 351.5 199.154 339.518 201.792C322.631 205.513 304.989 206.257 290.689 211.954C276.389 217.651 265.575 228.725 263.123 252.079C260.727 274.975 258.007 288.006 255.897 295.899C253.787 303.791 252.176 306.47 252.176 309.518C252.177 309.919 252.337 310.303 252.621 310.587C252.905 310.87 253.289 311.029 253.69 311.029V311.029C254.091 311.029 254.476 310.87 254.76 310.587C255.044 310.303 255.204 309.919 255.205 309.518V309.518C255.205 307.754 256.66 304.748 258.818 296.676C260.976 288.605 263.719 275.407 266.13 252.395C268.493 229.838 278.227 220.182 291.806 214.764C305.384 209.346 322.936 208.546 340.18 204.743C352.545 202.015 359.329 197.985 362.983 193.661C364.375 192.03 365.423 190.134 366.066 188.089C366.708 186.043 366.932 183.888 366.723 181.754C366.514 179.041 366.507 174.241 366.403 169.567C366.298 164.894 366.15 160.424 365.416 157.686C365.365 157.493 365.276 157.312 365.155 157.154C365.033 156.996 364.882 156.864 364.709 156.764C364.536 156.665 364.345 156.601 364.147 156.576C363.949 156.551 363.748 156.565 363.556 156.618L363.552 156.614Z" fill="black"/>
<path d="M423.469 135.646C423.068 135.628 422.676 135.771 422.38 136.043C422.085 136.314 421.909 136.692 421.891 137.093V137.093C421.46 146.854 420.239 157.701 420.451 166.49C420.555 170.877 421.002 174.751 422.208 177.821C423.413 180.891 425.612 183.25 428.798 183.774C434.208 184.675 447.913 186.085 462.18 187.562C476.446 189.04 491.227 190.573 498.345 191.656C505.255 192.701 512.381 195.957 517.635 201.576C522.889 207.195 526.343 215.162 525.922 225.957C525.078 247.502 503.458 368.87 498.434 385.618C497.125 389.983 496.001 393.589 493.999 396.64C491.997 399.692 489.117 402.289 483.974 404.678C473.685 409.456 454.41 413.11 417.106 416.463C381.141 419.696 357.631 418.651 343.097 416.894C337.873 416.303 332.69 415.394 327.576 414.174C325.961 413.78 324.796 413.452 323.989 413.233L323.833 413.195C323.565 411.119 323.397 406.907 323.684 401.66C323.996 395.974 324.741 389.54 326.002 384.666C326.337 383.378 326.709 382.615 327.055 382.202C327.377 381.793 327.845 381.526 328.361 381.458C329.682 381.168 332.332 381.413 336.347 381.413C344.611 381.413 370.294 378.34 391.884 371.739C401.987 368.646 414.032 363.712 424.485 359.459C429.694 357.327 434.532 355.366 438.502 353.877C442.473 352.389 445.636 351.421 447.154 351.243C450.704 350.826 453.93 351.049 456.244 351.689C458.559 352.329 459.746 353.382 459.966 354.089C460.089 354.459 460.351 354.767 460.696 354.949C461.041 355.13 461.442 355.172 461.817 355.065C462.192 354.958 462.511 354.711 462.708 354.375C462.906 354.038 462.965 353.639 462.876 353.26C462.202 350.904 459.899 349.538 457.067 348.772C454.235 348.005 450.693 347.782 446.811 348.24C444.612 348.497 441.487 349.538 437.457 351.042C433.427 352.545 428.586 354.517 423.357 356.65C412.901 360.914 400.897 365.818 391.013 368.847C369.803 375.333 343.837 378.399 336.362 378.399C332.503 378.399 329.976 378.027 327.729 378.515C326.57 378.752 325.523 379.367 324.752 380.264C323.978 381.198 323.494 382.385 323.1 383.903C321.749 389.112 321.012 395.669 320.692 401.489C320.372 407.309 320.435 412.25 320.889 414.729C320.945 415.028 321.09 415.304 321.305 415.521C321.52 415.737 321.795 415.883 322.095 415.94C322.394 415.997 322.704 415.963 322.984 415.841C323.263 415.719 323.499 415.515 323.661 415.257C323.472 415.556 323.181 415.778 322.843 415.882C322.723 415.922 322.597 415.94 322.471 415.938C322.348 415.938 322.37 415.938 322.43 415.938C322.489 415.938 322.828 416.031 323.219 416.135C323.993 416.343 325.209 416.686 326.877 417.095C332.108 418.342 337.411 419.271 342.754 419.879C357.531 421.665 381.257 422.707 417.392 419.454C454.801 416.105 474.221 412.533 485.269 407.402C490.791 404.838 494.237 401.82 496.548 398.281C498.859 394.742 500.038 390.839 501.352 386.463C506.822 368.23 528.058 249.106 528.962 226.054C529.416 214.548 525.651 205.677 519.864 199.489C514.078 193.3 506.338 189.777 498.818 188.638C491.509 187.522 476.774 186.007 462.507 184.545C448.24 183.082 434.402 181.635 429.315 180.786C427.253 180.444 426.014 179.183 425.043 176.693C424.072 174.204 423.595 170.609 423.491 166.397C423.287 157.969 424.492 147.136 424.935 137.22C424.952 136.819 424.81 136.428 424.539 136.132C424.269 135.837 423.892 135.66 423.491 135.642L423.469 135.646Z" fill="black"/>
<path d="M462.407 245.481C462.007 245.447 461.611 245.573 461.305 245.832C460.998 246.09 460.807 246.459 460.773 246.858C459.679 259.73 457.495 281.26 454.983 301.402C452.471 321.545 449.565 340.474 447.284 347.544C447.173 347.922 447.214 348.329 447.398 348.678C447.582 349.026 447.895 349.29 448.27 349.411C448.645 349.533 449.053 349.503 449.407 349.329C449.76 349.155 450.032 348.849 450.164 348.478V348.478C452.691 340.664 455.47 321.984 457.978 301.793C460.486 281.602 462.682 260.057 463.776 247.13C463.793 246.932 463.77 246.733 463.71 246.543C463.65 246.354 463.553 246.178 463.424 246.027C463.296 245.875 463.139 245.75 462.963 245.659C462.786 245.568 462.593 245.513 462.395 245.496L462.407 245.481Z" fill="black"/>
<path d="M443.026 182.569C442.739 182.486 442.433 182.49 442.148 182.58C441.864 182.671 441.612 182.843 441.425 183.077C441.238 183.31 441.124 183.593 441.098 183.891C441.071 184.188 441.134 184.487 441.277 184.749V184.749C441.571 185.282 441.705 186.636 441.277 188.59C440.653 191.101 439.773 193.541 438.65 195.872C436.045 201.535 431.911 208.553 427.021 215.802C417.246 230.314 404.449 245.802 395.258 253.709C386.067 261.616 380.411 262.945 376.727 261.895C373.043 260.846 370.602 257.173 368.261 253.675C365.519 249.582 361.37 238.791 357.932 228.104C354.493 217.417 351.606 206.577 351.01 202.268C350.953 201.871 350.741 201.513 350.42 201.272C350.099 201.032 349.696 200.928 349.299 200.985V200.985C349.102 201.012 348.912 201.079 348.741 201.18C348.57 201.281 348.42 201.415 348.3 201.574C348.181 201.733 348.094 201.914 348.044 202.106C347.994 202.299 347.983 202.499 348.011 202.696V202.696C348.711 207.571 351.576 218.25 355.048 229.034C358.519 239.818 362.46 250.457 365.746 255.357C368.053 258.803 370.829 263.376 375.904 264.809C380.98 266.242 387.663 264.232 397.234 255.994C406.804 247.755 419.631 232.179 429.533 217.488C434.482 210.142 438.694 203.035 441.403 197.122C442.623 194.596 443.572 191.948 444.235 189.222C444.734 186.93 444.83 184.932 443.923 183.268C443.827 183.095 443.697 182.941 443.542 182.817C443.387 182.694 443.209 182.602 443.018 182.546L443.026 182.569Z" fill="black"/>
<path d="M293.196 251.893C292.822 252.04 292.522 252.329 292.362 252.697C292.202 253.064 292.194 253.48 292.34 253.854C295.473 261.825 297.668 269.513 295.782 276.791C291.603 292.915 284.618 308.156 281.385 322.118C278.24 335.67 281.798 349.654 289.199 362.775C291.495 368.446 293.166 376.45 293.988 382.47C294.042 382.868 294.251 383.228 294.57 383.471C294.889 383.715 295.291 383.822 295.689 383.769V383.769C295.886 383.742 296.076 383.677 296.248 383.577C296.42 383.477 296.571 383.344 296.691 383.186C296.812 383.028 296.9 382.847 296.951 382.655C297.002 382.462 297.014 382.262 296.987 382.065V382.065C296.139 375.862 294.476 367.75 292.005 361.643C291.98 361.582 291.951 361.522 291.919 361.465C284.708 348.742 281.392 335.469 284.336 322.817C287.465 309.325 294.453 294.027 298.718 277.565C300.876 269.248 298.346 260.894 295.16 252.764C295.089 252.577 294.982 252.407 294.844 252.262C294.707 252.117 294.542 252.001 294.359 251.92C294.176 251.839 293.98 251.795 293.78 251.79C293.58 251.786 293.382 251.821 293.196 251.893V251.893Z" fill="black"/>
<path d="M471.943 410.39C471.543 410.355 471.146 410.48 470.838 410.737C470.531 410.994 470.338 411.363 470.302 411.763V411.763C469.439 421.229 464.72 456.788 464.72 456.788C464.687 457.176 464.805 457.562 465.049 457.865C465.293 458.168 465.644 458.366 466.03 458.417C466.416 458.468 466.806 458.369 467.121 458.14C467.436 457.911 467.65 457.569 467.719 457.186C467.719 457.186 472.415 421.81 473.301 412.035C473.336 411.635 473.212 411.238 472.955 410.93C472.699 410.622 472.331 410.428 471.932 410.39H471.943Z" fill="black"/>
<path d="M301.775 430.037C301.378 430.09 301.018 430.298 300.773 430.615C300.529 430.932 300.419 431.333 300.469 431.73C300.636 433.025 301.094 438.89 301.522 444.423C301.734 447.192 301.942 449.908 302.117 452.018C302.203 453.075 302.285 453.979 302.348 454.667C302.381 455.156 302.439 455.643 302.523 456.126C302.563 456.321 302.641 456.505 302.753 456.67C302.865 456.834 303.008 456.975 303.174 457.083C303.341 457.192 303.527 457.267 303.722 457.304C303.917 457.341 304.118 457.339 304.313 457.298V457.298C304.705 457.215 305.049 456.979 305.268 456.643C305.487 456.307 305.564 455.897 305.481 455.505C305.503 455.601 305.422 455.043 305.358 454.388C305.295 453.733 305.217 452.829 305.131 451.783C304.96 449.688 304.759 446.976 304.536 444.207C304.108 438.674 303.684 433.044 303.468 431.358C303.444 431.16 303.381 430.969 303.283 430.795C303.185 430.621 303.053 430.469 302.896 430.346C302.739 430.223 302.559 430.133 302.366 430.08C302.174 430.027 301.973 430.012 301.775 430.037V430.037Z" fill="black"/>
<path d="M124.523 159.993C123.676 159.707 122.756 159.723 121.919 160.037C120.259 160.685 119.262 162.486 119.262 164.562C119.262 168.179 120.378 178.487 121.23 188.75C121.684 194.056 122.953 197.081 125.197 199.448C127.441 201.814 130.358 203.5 134.429 207.035C138.597 210.656 140.963 212.594 142.816 213.759C144.274 214.699 145.93 215.289 147.654 215.482C148.971 215.668 154.795 216.836 161.124 217.986C167.454 219.136 174.379 220.29 178.613 220.52C180.533 220.625 181.78 220.892 182.509 221.22C183.239 221.547 183.447 221.8 183.626 222.161C183.998 222.883 183.827 224.547 184.206 226.709C184.95 230.835 190.74 254.851 192.114 259.655C192.225 260.042 192.485 260.368 192.838 260.562C193.19 260.757 193.604 260.803 193.991 260.692C194.377 260.58 194.703 260.32 194.898 259.968C195.092 259.615 195.139 259.201 195.027 258.814C193.777 254.434 187.771 229.477 187.19 226.173C186.915 224.614 187.306 222.779 186.35 220.825C185.784 219.743 184.851 218.898 183.719 218.44C182.48 217.901 180.913 217.607 178.785 217.491C174.933 217.283 167.971 216.144 161.667 214.998C155.364 213.852 149.827 212.725 148.082 212.475C146.593 212.263 145.949 212.159 144.413 211.192C142.876 210.224 140.539 208.337 136.397 204.743C132.159 201.063 129.178 199.254 127.377 197.356C125.576 195.459 124.657 193.453 124.233 188.485C123.359 178.189 122.268 167.506 122.268 164.562C122.268 163.36 122.693 162.977 123.013 162.862C123.333 162.746 123.883 162.735 124.68 163.606C125.293 164.535 125.793 165.535 126.168 166.583C126.767 168.116 127.392 170.036 127.973 172.027C128.989 175.461 129.804 178.951 130.414 182.479C130.723 184.653 130.63 186.398 131.415 188.307C132.2 190.216 133.837 191.898 137.03 193.836C143.155 197.557 142.333 196.999 144.32 198.543C145.018 199.084 145.864 199.399 146.746 199.448C147.848 199.428 148.946 199.304 150.024 199.076C152.938 198.607 157.995 197.747 167.885 196.876C177.776 196.006 183.667 195.786 187.019 195.786C190.372 195.786 191.019 195.965 191.019 195.965C191.213 196.01 191.413 196.017 191.609 195.985C191.805 195.953 191.993 195.883 192.162 195.778C192.33 195.674 192.477 195.537 192.593 195.376C192.709 195.215 192.792 195.032 192.837 194.839C192.883 194.646 192.89 194.446 192.858 194.25C192.826 194.054 192.755 193.866 192.651 193.697C192.546 193.528 192.41 193.382 192.248 193.266C192.087 193.15 191.905 193.067 191.712 193.021C191.712 193.021 190.499 192.761 187.019 192.761C183.54 192.761 177.597 192.984 167.621 193.877C157.645 194.77 152.413 195.641 149.533 196.11C148.644 196.282 147.743 196.389 146.839 196.43C146.444 196.43 146.511 196.43 146.162 196.162C144.215 194.647 144.703 194.968 138.585 191.254C135.653 189.475 134.671 188.314 134.198 187.161C133.726 186.007 133.741 184.478 133.394 182.059C132.772 178.389 131.925 174.76 130.86 171.193C130.265 169.139 129.621 167.152 128.97 165.489C128.319 163.826 127.761 162.512 126.894 161.578C126.248 160.848 125.421 160.302 124.497 159.993H124.523Z" fill="black"/>
<path d="M96.9673 159.833C95.9093 159.925 94.9156 160.38 94.1541 161.12C93.424 161.836 92.9595 162.778 92.8371 163.793C92.7146 164.808 92.9416 165.834 93.4806 166.702C95.0993 169.247 96.6249 170.795 97.5738 172.529C97.6929 172.741 98.3664 174.293 99.1255 176.28C99.8846 178.267 100.819 180.816 101.756 183.521C103.617 188.928 105.537 195.023 106.155 198.309C106.828 201.907 107.517 203.891 109.132 205.029C110.747 206.168 112.362 205.993 114.427 206.302C116.723 206.648 120.879 207.028 125.184 207.519C129.49 208.01 133.948 208.635 136.471 209.338C136.856 209.445 137.269 209.394 137.617 209.198C137.966 209.001 138.223 208.674 138.331 208.289V208.289C138.439 207.904 138.389 207.491 138.193 207.143C137.997 206.794 137.671 206.537 137.285 206.428C134.338 205.606 129.877 205.014 125.527 204.52C121.177 204.025 116.968 203.63 114.877 203.318C112.57 202.972 111.364 202.908 110.884 202.573C110.404 202.239 109.768 201.159 109.143 197.762C108.447 194.041 106.538 188.009 104.633 182.539C103.684 179.808 102.742 177.233 101.968 175.208C101.469 173.797 100.89 172.416 100.234 171.071C99.0102 168.871 97.4771 167.349 96.0333 165.087C95.8646 164.802 95.7984 164.467 95.8457 164.139C95.8931 163.811 96.0512 163.508 96.2938 163.282C96.7812 162.795 97.5255 162.441 99.0511 163.282C99.4716 163.517 101.046 165.094 102.649 167.23C104.253 169.366 106.077 172.094 107.825 174.87C111.323 180.429 114.605 186.405 115.219 187.894C115.964 189.646 115.885 190.636 116.972 191.719C117.531 192.228 118.248 192.531 119.004 192.575C119.838 192.623 120.675 192.613 121.508 192.545C121.707 192.535 121.901 192.486 122.081 192.401C122.261 192.315 122.422 192.196 122.555 192.048C122.689 191.901 122.792 191.728 122.858 191.541C122.925 191.353 122.954 191.155 122.944 190.956V190.956C122.922 190.555 122.742 190.18 122.444 189.911C122.145 189.643 121.753 189.503 121.352 189.523C120.662 189.576 119.97 189.589 119.279 189.564C118.929 189.531 119.059 189.535 119.112 189.564C119.164 189.594 118.829 188.686 118.018 186.725C117.106 184.493 113.943 178.889 110.386 173.24C108.611 170.416 106.754 167.636 105.072 165.396C103.39 163.156 102.069 161.474 100.521 160.618C99.445 159.998 98.2046 159.722 96.9673 159.829V159.833Z" fill="black"/>
<path d="M130.353 170.996C129.975 170.861 129.559 170.88 129.196 171.05C128.833 171.22 128.552 171.527 128.414 171.904V171.904C128.346 172.091 128.317 172.289 128.326 172.488C128.335 172.686 128.384 172.881 128.468 173.061C128.553 173.24 128.672 173.402 128.819 173.535C128.967 173.669 129.139 173.772 129.326 173.839C134.61 175.744 140.489 179.019 147.075 182.524C154.097 186.253 163.028 186.498 167.247 186.498C169.283 186.498 174.377 186.584 179.46 186.941C182.002 187.12 184.543 187.365 186.683 187.685C188.822 188.005 190.601 188.478 191.375 188.865C195.513 190.934 197.928 193.289 200.246 199.619C202.721 206.361 209.02 219.668 211.13 228.312C211.225 228.703 211.47 229.039 211.813 229.249C212.155 229.458 212.567 229.523 212.957 229.429V229.429C213.151 229.382 213.333 229.298 213.494 229.181C213.655 229.064 213.791 228.917 213.895 228.747C213.999 228.577 214.068 228.389 214.099 228.192C214.129 227.996 214.121 227.795 214.074 227.602C211.811 218.317 205.43 204.955 203.093 198.577C200.603 191.79 197.34 188.456 192.729 186.156C191.315 185.445 189.421 185.04 187.148 184.693C184.874 184.347 182.269 184.094 179.676 183.912C174.489 183.54 169.368 183.458 167.251 183.458C163.158 183.458 154.599 183.086 148.504 179.837C141.955 176.362 136.001 173.02 130.353 170.996Z" fill="black"/>
<path d="M86.5579 160.532C85.2332 160.484 83.9755 160.644 82.9336 161.448C81.8916 162.252 81.4898 163.882 81.9512 165.262C82.7512 167.658 84.556 169.727 86.5319 171.785C88.5078 173.843 90.7367 175.919 92.5117 178.007C94.2866 180.094 97.2114 183.845 99.7269 187.362C100.985 189.118 102.153 190.833 103.046 192.274C103.686 193.251 104.229 194.288 104.669 195.369C104.779 195.753 105.036 196.078 105.384 196.273C105.733 196.469 106.144 196.518 106.529 196.411V196.411C106.912 196.3 107.237 196.043 107.432 195.695C107.627 195.347 107.677 194.936 107.571 194.551V194.551C107.247 193.435 106.555 192.221 105.606 190.696C104.657 189.17 103.463 187.41 102.179 185.616C99.6115 182.026 96.7091 178.301 94.8039 176.061C92.8987 173.821 90.599 171.681 88.705 169.705C86.811 167.729 85.3225 165.857 84.809 164.321C84.6155 163.733 84.6527 163.948 84.7718 163.859C85.2941 163.624 85.8681 163.526 86.4388 163.576C88.7983 163.771 91.0515 164.642 92.9284 166.084C93.2421 166.334 93.6418 166.449 94.04 166.404C94.4383 166.36 94.8026 166.159 95.0532 165.846V165.846C95.1774 165.691 95.2699 165.514 95.3253 165.323C95.3808 165.132 95.3981 164.933 95.3763 164.735C95.3546 164.538 95.2941 164.347 95.1984 164.173C95.1028 163.999 94.9738 163.846 94.8188 163.721C92.4592 161.833 89.5742 160.72 86.5579 160.532V160.532Z" fill="black"/>
<path d="M86.0365 172.95C84.7229 172.796 83.3918 172.908 82.1219 173.277C81.4885 173.461 80.8998 173.774 80.3927 174.196C79.8856 174.618 79.471 175.14 79.1748 175.729C78.9801 176.196 78.8959 176.701 78.9288 177.205C78.9618 177.709 79.1109 178.199 79.3646 178.636C79.881 179.455 80.5476 180.17 81.3293 180.742C82.9778 182.055 85.2998 183.417 88.0683 185.095C93.8471 188.601 97.9775 190.469 105.524 197.583C105.668 197.72 105.838 197.827 106.024 197.899C106.209 197.97 106.407 198.003 106.606 197.998C106.805 197.992 107.001 197.948 107.182 197.866C107.364 197.785 107.527 197.669 107.664 197.524V197.524C107.8 197.379 107.907 197.209 107.978 197.024C108.049 196.838 108.082 196.64 108.076 196.441C108.07 196.242 108.025 196.046 107.944 195.865C107.862 195.684 107.745 195.52 107.6 195.384V195.384C99.8418 188.072 95.276 185.933 89.6386 182.513C86.8589 180.827 84.5667 179.45 83.2197 178.375C82.7463 178.028 82.3317 177.607 81.9917 177.128C81.8503 176.89 81.8987 177.054 81.9173 177.013C82.0959 176.641 82.3936 176.373 83.0336 176.161C83.9204 175.928 84.8429 175.862 85.7537 175.967C88.107 176.233 90.384 176.964 92.4517 178.118C92.6236 178.218 92.8136 178.284 93.0108 178.31C93.2079 178.337 93.4084 178.324 93.6006 178.273C93.7928 178.222 93.973 178.133 94.1309 178.012C94.2888 177.891 94.4213 177.74 94.5207 177.568V177.568C94.7208 177.22 94.7753 176.807 94.6721 176.42C94.5689 176.032 94.3164 175.701 93.9699 175.499V175.499C91.529 174.104 88.8225 173.237 86.0254 172.953L86.0365 172.95Z" fill="black"/>
<path d="M214.952 220.23C213.836 220.23 213.337 220.74 212.772 221.164C212.005 221.761 211.29 222.422 210.636 223.14C210.384 223.439 210.259 223.824 210.284 224.213C210.31 224.603 210.485 224.968 210.773 225.231C211.061 225.495 211.44 225.637 211.83 225.628C212.221 225.619 212.593 225.46 212.868 225.183V225.183C212.868 225.183 213.345 224.755 213.612 224.498C212.917 228.387 210.323 237.091 199.993 252.035C196.972 256.407 194.706 259.045 193.202 260.355C192.766 260.766 192.262 261.099 191.714 261.341C191.688 261.289 191.695 261.341 191.654 261.114C191.574 260.568 191.561 260.015 191.613 259.466C191.759 257.915 192.093 256.388 192.607 254.918C192.681 254.728 192.715 254.525 192.709 254.322C192.703 254.118 192.655 253.918 192.569 253.733C192.484 253.548 192.361 253.382 192.21 253.245C192.059 253.109 191.881 253.004 191.689 252.938C191.496 252.871 191.292 252.844 191.088 252.859C190.885 252.873 190.687 252.928 190.505 253.021C190.324 253.114 190.163 253.243 190.032 253.399C189.902 253.556 189.804 253.737 189.745 253.932C189.142 255.645 188.755 257.426 188.592 259.235C188.516 260.049 188.546 260.87 188.681 261.676C188.789 262.514 189.196 263.284 189.827 263.845C190.214 264.128 190.663 264.315 191.137 264.39C191.611 264.465 192.095 264.426 192.551 264.277C193.532 263.918 194.428 263.359 195.182 262.636C197.042 261.01 199.379 258.238 202.475 253.754C214.826 235.892 216.705 226.039 216.954 222.839C217.032 222.288 216.933 221.726 216.671 221.235C216.483 220.945 216.229 220.704 215.931 220.53C215.632 220.356 215.297 220.255 214.952 220.234V220.23Z" fill="black"/>
<path d="M215.951 220.993C215.754 221.012 215.562 221.07 215.386 221.163C215.211 221.257 215.056 221.384 214.93 221.537C214.804 221.691 214.709 221.868 214.651 222.058C214.593 222.248 214.574 222.447 214.593 222.645V222.645C215.166 228.513 217.76 238.062 221.161 248.518C224.562 258.974 228.786 270.26 232.637 279.277C240.414 297.51 255.816 317.887 259.801 322.326C263.072 325.984 268.255 337.21 270.388 346.364C270.424 346.566 270.502 346.758 270.615 346.929C270.728 347.099 270.875 347.245 271.046 347.358C271.218 347.47 271.41 347.547 271.612 347.583C271.813 347.619 272.02 347.613 272.22 347.567C272.42 347.52 272.608 347.434 272.773 347.313C272.938 347.192 273.077 347.038 273.181 346.862C273.285 346.685 273.353 346.49 273.379 346.287C273.406 346.083 273.39 345.877 273.335 345.68C271.102 336.038 266.22 324.961 262.056 320.309C258.595 316.443 242.956 295.724 235.431 278.09C231.625 269.181 227.427 257.947 224.052 247.576C220.677 237.206 218.132 227.628 217.615 222.344C217.594 222.146 217.535 221.954 217.44 221.779C217.346 221.604 217.218 221.449 217.063 221.324C216.909 221.198 216.731 221.104 216.54 221.048C216.349 220.991 216.149 220.972 215.951 220.993V220.993Z" fill="black"/>
<path d="M190.26 261.65C190.07 261.708 189.893 261.803 189.74 261.93C189.587 262.056 189.46 262.212 189.367 262.387C189.274 262.563 189.217 262.755 189.198 262.953C189.179 263.151 189.2 263.35 189.259 263.54C190.405 267.287 192.783 277.77 195.655 289.9C198.528 302.031 201.933 315.892 205.248 326.791C211.716 348.05 213.379 355.905 228.691 374.537C234.705 381.845 241.19 387.609 246.925 391.576C252.659 395.543 257.414 397.801 260.916 397.801C263.78 397.801 266.572 396.906 268.902 395.241C271.287 393.611 273.568 391.323 276.4 388.431C276.4 388.431 279.838 385.083 283.626 381.06C287.414 377.037 291.503 372.464 293.107 369.253C293.264 368.897 293.278 368.495 293.147 368.129C293.015 367.763 292.747 367.462 292.4 367.287C292.052 367.113 291.651 367.08 291.279 367.193C290.907 367.307 290.593 367.56 290.402 367.898C289.256 370.191 285.148 375.013 281.416 378.991C277.683 382.969 274.286 386.262 274.286 386.262L274.264 386.288C271.428 389.179 269.225 391.356 267.193 392.741C265.162 394.125 263.353 394.776 260.912 394.776C258.948 394.776 254.118 392.882 248.633 389.09C243.148 385.298 236.855 379.702 231.024 372.613C215.894 354.216 214.614 347.231 208.128 325.909C204.85 315.144 201.46 301.313 198.587 289.201C195.715 277.089 193.397 266.774 192.139 262.654C192.021 262.271 191.756 261.949 191.402 261.76C191.048 261.571 190.633 261.53 190.248 261.646L190.26 261.65Z" fill="black"/>
<path d="M151.143 18.7211C117.537 18.7211 90.2617 45.9931 90.2617 79.5984C90.2617 113.204 117.537 140.483 151.143 140.483C184.748 140.483 212.02 113.207 212.02 79.6021C212.02 45.9968 184.744 18.7211 151.143 18.7211ZM151.143 21.7464C162.585 21.7464 173.77 25.1394 183.284 31.4962C192.797 37.8531 200.212 46.8883 204.591 57.4594C208.97 68.0305 210.115 79.6626 207.883 90.8848C205.651 102.107 200.141 112.415 192.05 120.506C183.96 128.597 173.651 134.107 162.429 136.339C151.207 138.571 139.575 137.425 129.004 133.047C118.433 128.668 109.397 121.253 103.041 111.739C96.6836 102.226 93.2907 91.0405 93.2907 79.5984C93.2873 72.0002 94.7813 64.4758 97.6874 57.4554C100.594 50.4349 104.855 44.056 110.228 38.6832C115.6 33.3105 121.979 29.0493 129 26.1431C136.02 23.237 143.545 21.743 151.143 21.7464V21.7464Z" fill="black"/>
<path d="M151.143 9.0722C112.209 9.0722 80.6133 40.6681 80.6133 79.5983C80.6133 118.529 112.209 150.124 151.143 150.124C190.077 150.124 221.669 118.529 221.669 79.5983C221.669 40.6681 190.073 9.0722 151.143 9.0722ZM151.143 12.0975C164.494 12.0975 177.544 16.0563 188.645 23.4734C199.745 30.8905 208.397 41.4327 213.506 53.7668C218.615 66.101 219.951 79.6732 217.347 92.7671C214.742 105.861 208.314 117.888 198.873 127.329C189.433 136.769 177.406 143.198 164.312 145.802C151.218 148.407 137.646 147.07 125.312 141.961C112.977 136.852 102.435 128.2 95.0182 117.1C87.6011 105.999 83.6422 92.9487 83.6422 79.5983C83.6398 70.7336 85.3842 61.9554 88.7756 53.7651C92.1671 45.5748 97.1392 38.1331 103.408 31.8652C109.676 25.5973 117.119 20.626 125.309 17.2354C133.5 13.8449 142.278 12.1015 151.143 12.1049V12.0975Z" fill="black"/>
<path d="M151.62 22.7102C151.219 22.7102 150.834 22.8693 150.55 23.1525C150.266 23.4357 150.106 23.82 150.105 24.221V29.144C150.105 29.5457 150.265 29.9309 150.549 30.2149C150.833 30.4989 151.218 30.6585 151.62 30.6585C152.022 30.6585 152.407 30.4989 152.691 30.2149C152.975 29.9309 153.134 29.5457 153.134 29.144V29.144V24.221C153.133 23.82 152.973 23.4357 152.69 23.1525C152.406 22.8693 152.021 22.7102 151.62 22.7102V22.7102Z" fill="black"/>
<path d="M151.62 127.98C151.219 127.98 150.834 128.139 150.55 128.422C150.266 128.706 150.106 129.09 150.105 129.491V134.414C150.105 134.816 150.265 135.201 150.549 135.485C150.833 135.769 151.218 135.929 151.62 135.929C152.022 135.929 152.407 135.769 152.691 135.485C152.975 135.201 153.134 134.816 153.134 134.414V134.414V129.491C153.133 129.09 152.973 128.706 152.69 128.422C152.406 128.139 152.021 127.98 151.62 127.98V127.98Z" fill="black"/>
<path d="M208.23 79.3155C208.229 78.9145 208.069 78.5302 207.785 78.247C207.501 77.9638 207.116 77.8047 206.715 77.8047H201.796C201.394 77.8047 201.009 77.9643 200.725 78.2483C200.441 78.5324 200.281 78.9176 200.281 79.3192C200.281 79.7209 200.441 80.1061 200.725 80.3901C201.009 80.6742 201.394 80.8337 201.796 80.8337H206.715C207.116 80.8328 207.501 80.6729 207.785 80.3891C208.069 80.1052 208.229 79.7206 208.23 79.3192V79.3155Z" fill="black"/>
<path d="M102.956 79.3156C102.956 78.9149 102.797 78.5306 102.514 78.2473C102.23 77.964 101.846 77.8048 101.446 77.8048H96.5262C96.1245 77.8048 95.7393 77.9644 95.4553 78.2484C95.1713 78.5324 95.0117 78.9176 95.0117 79.3193C95.0117 79.721 95.1713 80.1062 95.4553 80.3902C95.7393 80.6742 96.1245 80.8338 96.5262 80.8338H101.449C101.85 80.8328 102.235 80.6728 102.518 80.3889C102.801 80.105 102.96 79.7203 102.96 79.3193L102.956 79.3156Z" fill="black"/>
<path d="M121.173 167.186C118.416 166.441 116.072 167.513 114.866 169.136C113.835 170.531 114.021 172.302 114.896 174.345C115.77 176.388 117.527 178.695 120.555 180.987C120.876 181.219 121.275 181.316 121.667 181.258C122.059 181.199 122.412 180.989 122.651 180.674C122.889 180.358 122.995 179.961 122.945 179.568C122.895 179.176 122.693 178.818 122.383 178.572V178.572C119.685 176.533 118.289 174.594 117.675 173.154C117.061 171.714 117.419 170.784 117.303 170.94C117.932 170.092 118.565 169.619 120.392 170.11C120.584 170.163 120.785 170.178 120.983 170.153C121.181 170.127 121.372 170.063 121.544 169.964C121.717 169.865 121.869 169.732 121.991 169.574C122.112 169.416 122.201 169.235 122.252 169.043C122.306 168.85 122.32 168.649 122.296 168.451C122.271 168.253 122.207 168.062 122.107 167.889C122.008 167.716 121.875 167.564 121.717 167.443C121.558 167.322 121.377 167.233 121.184 167.182L121.173 167.186Z" fill="black"/>
<path d="M322.923 414.252C317.14 417.635 300.224 423.581 288.342 424.958C288.145 424.981 287.954 425.042 287.781 425.138C287.607 425.235 287.455 425.364 287.331 425.52C287.208 425.675 287.116 425.854 287.062 426.045C287.007 426.235 286.991 426.435 287.014 426.632C287.037 426.83 287.098 427.02 287.194 427.194C287.291 427.367 287.42 427.52 287.576 427.643C287.731 427.767 287.91 427.858 288.101 427.913C288.291 427.967 288.491 427.984 288.688 427.961C301.206 426.513 317.843 420.731 324.452 416.864C324.779 416.653 325.012 416.324 325.102 415.945C325.192 415.567 325.133 415.168 324.936 414.832C324.739 414.496 324.42 414.249 324.046 414.142C323.672 414.036 323.27 414.078 322.926 414.26L322.923 414.252Z" fill="black"/>
<path d="M325.815 378.34C319.437 378.433 310.428 379.248 301.698 380.766C292.968 382.284 284.562 384.454 279.211 387.539C276.904 388.871 275.144 389.816 274.002 391.26C273.389 392.012 273.061 392.957 273.075 393.928C273.15 394.951 273.504 395.934 274.099 396.771C275.04 398.237 275.435 399.375 275.457 399.997C275.479 400.618 275.39 400.827 274.713 401.266C273.341 402.135 272.321 403.461 271.833 405.009C271.577 405.935 271.577 406.914 271.832 407.84C272.088 408.767 272.589 409.607 273.284 410.271C274.303 411.287 274.724 412.273 274.772 413.121C274.807 413.543 274.748 413.968 274.6 414.365C274.452 414.761 274.219 415.121 273.916 415.417C272.811 416.521 272.173 418.008 272.134 419.57C272.152 420.359 272.365 421.132 272.755 421.819C273.145 422.506 273.698 423.086 274.367 423.507C275.483 424.225 275.658 424.791 275.729 425.576C275.799 426.361 275.557 427.332 275.427 428.393C275.315 429.167 275.365 429.956 275.575 430.71C275.785 431.463 276.151 432.164 276.648 432.769C277.576 433.779 278.764 434.514 280.082 434.893C282.594 435.723 285.344 435.745 286.602 435.809C289.846 435.969 293.839 435.158 297.43 434.131C301.021 433.103 304.039 431.961 305.616 430.942C307.087 430.061 308.243 428.739 308.921 427.165C309.251 426.276 309.35 425.317 309.207 424.38C309.065 423.442 308.686 422.557 308.106 421.806C307.867 421.484 307.509 421.271 307.113 421.213C306.716 421.154 306.312 421.256 305.99 421.496C305.669 421.735 305.455 422.092 305.397 422.489C305.339 422.886 305.44 423.289 305.68 423.611C306.424 424.608 306.424 425.271 306.1 426.067C305.638 427.035 304.9 427.845 303.979 428.396C303.135 428.94 300.005 430.257 296.593 431.221C293.181 432.184 289.325 432.914 286.743 432.783C285.366 432.717 282.899 432.638 281.027 432.039C280.235 431.818 279.513 431.395 278.932 430.811C278.516 430.328 278.296 429.814 278.423 428.783C278.512 428.073 278.862 426.811 278.735 425.334C278.644 424.446 278.349 423.591 277.874 422.836C277.399 422.08 276.757 421.444 275.996 420.976C275.737 420.847 275.519 420.646 275.371 420.396C275.222 420.147 275.149 419.86 275.159 419.57C275.211 418.788 275.554 418.054 276.119 417.512C276.701 416.905 277.15 416.182 277.437 415.392C277.724 414.601 277.843 413.759 277.786 412.92C277.664 411.235 276.834 409.571 275.401 408.146C274.512 407.26 274.493 406.658 274.72 405.891C275.03 405.042 275.603 404.314 276.357 403.815C277.011 403.396 277.548 402.818 277.916 402.134C278.284 401.45 278.471 400.684 278.46 399.908C278.404 398.363 277.716 396.852 276.622 395.152C276.334 394.766 276.146 394.315 276.075 393.838C276.069 393.712 276.091 393.585 276.138 393.468C276.186 393.35 276.258 393.244 276.35 393.157C276.864 392.514 278.426 391.487 280.719 390.181C285.389 387.486 293.646 385.254 302.208 383.765C310.77 382.277 319.697 381.477 325.852 381.388C326.253 381.381 326.635 381.215 326.914 380.927C327.193 380.639 327.346 380.252 327.34 379.851V379.851C327.333 379.45 327.168 379.069 326.881 378.79C326.594 378.511 326.208 378.357 325.807 378.362L325.815 378.34Z" fill="black"/>
<path d="M331.639 39.9761C331.479 39.859 331.297 39.7748 331.103 39.7282C330.91 39.6817 330.709 39.6737 330.513 39.7048C330.317 39.7359 330.128 39.8055 329.959 39.9095C329.79 40.0135 329.642 40.15 329.526 40.311V40.311C321.711 51.1022 312.133 80.2496 325.351 116.635C325.488 117.011 325.77 117.318 326.133 117.488C326.496 117.659 326.912 117.678 327.289 117.543C327.665 117.405 327.971 117.124 328.141 116.762C328.31 116.399 328.329 115.984 328.194 115.608C315.315 80.1566 325.008 51.6864 331.974 42.0971C332.091 41.9365 332.176 41.7543 332.222 41.561C332.269 41.3677 332.277 41.1672 332.246 40.9708C332.214 40.7745 332.145 40.5862 332.041 40.4168C331.937 40.2474 331.8 40.1001 331.639 39.9836V39.9761Z" fill="black"/>
<path d="M351.665 35.667C351.274 35.578 350.864 35.6479 350.524 35.8614C350.184 36.0749 349.943 36.4145 349.853 36.8057V36.8057C349.765 37.1974 349.836 37.608 350.05 37.9476C350.264 38.2872 350.604 38.5282 350.996 38.6178V38.6178C354.627 39.4365 359.26 43.3883 364.127 48.1848C368.995 52.9813 374.174 58.5295 379.652 62.2878C390.346 69.6072 401.405 74.6865 412.025 73.2129C412.415 73.1488 412.765 72.9348 412.999 72.6167C413.233 72.2985 413.334 71.9015 413.28 71.5101C413.225 71.1188 413.02 70.7642 412.708 70.522C412.396 70.2798 412.001 70.1692 411.609 70.2137V70.2137C402.224 71.5161 391.783 66.9206 381.36 59.7946C376.292 56.3266 371.175 50.8938 366.248 46.0266C361.322 41.1594 356.648 36.7908 351.665 35.667Z" fill="black"/>
<path d="M405.62 60.085C405.242 60.2212 404.935 60.5012 404.763 60.8637C404.592 61.2263 404.57 61.6419 404.704 62.02C407.469 69.7636 414.625 77.8793 420.78 82.8916C425.293 86.5607 430.373 88.8454 434.328 91.7888C438.284 94.7322 441.149 98.1482 441.8 104.541C441.857 104.926 442.06 105.275 442.368 105.515C442.675 105.754 443.063 105.866 443.451 105.826C443.839 105.787 444.196 105.6 444.449 105.304C444.703 105.007 444.832 104.625 444.81 104.236V104.236C444.066 97.0133 440.468 92.5963 436.137 89.3515C431.805 86.1067 426.8 83.874 422.692 80.5325C416.906 75.8216 409.977 67.7728 407.555 60.993C407.488 60.8057 407.386 60.6333 407.253 60.4857C407.12 60.3381 406.959 60.2182 406.78 60.1328C406.6 60.0474 406.406 59.9983 406.207 59.9882C406.009 59.978 405.811 60.0072 405.623 60.0738L405.62 60.085Z" fill="black"/>
<path d="M336.274 11.4873C325.929 13.7869 311.715 20.8756 305.151 40.8356C298.695 60.4868 296.737 80.4878 298.687 118.082C299.647 136.602 296.216 154.087 292.075 168.615C287.933 183.142 283.103 194.625 281.231 201.528C279.404 208.271 278.694 212.87 278.441 215.828C278.188 218.786 278.441 220.249 278.441 220.249C278.51 220.643 278.734 220.994 279.062 221.224C279.39 221.454 279.797 221.544 280.191 221.475C280.586 221.405 280.937 221.182 281.167 220.853C281.397 220.525 281.487 220.119 281.417 219.724C281.417 219.724 281.239 218.824 281.473 216.085C281.708 213.346 282.381 208.914 284.171 202.317C285.913 195.883 290.806 184.165 295.003 169.445C299.201 154.724 302.71 136.918 301.727 117.926C299.785 80.4915 301.727 61.0301 308.053 41.7808C314.279 22.8367 327.295 16.5889 336.955 14.4418C337.347 14.3547 337.688 14.1157 337.903 13.7773C338.119 13.439 338.191 13.0289 338.105 12.6371V12.6371C338.061 12.4407 337.979 12.2549 337.863 12.0905C337.748 11.9261 337.6 11.7863 337.43 11.6793C337.26 11.5723 337.07 11.5003 336.871 11.4673C336.673 11.4343 336.47 11.4411 336.274 11.4873V11.4873Z" fill="black"/>
<path d="M366.345 0.822587C364.361 0.698256 362.37 0.735597 360.392 0.934227C352.823 1.67845 346.787 4.65533 341.518 7.15219C341.173 7.33443 340.912 7.64281 340.788 8.01304C340.665 8.38327 340.69 8.78678 340.857 9.13945C341.024 9.49212 341.32 9.76673 341.685 9.90603C342.049 10.0453 342.453 10.0386 342.813 9.88721V9.88721C348.104 7.3829 353.738 4.64789 360.674 3.93344C367.61 3.21898 375.931 4.53253 386.722 10.3933C408.371 22.178 434.65 46.1754 445.791 73.8195C453.185 92.1757 455.388 112.66 454.848 123.195C454.197 135.891 452.593 146.638 452.548 156.711C452.504 166.784 454.067 176.161 459.786 185.735C459.886 185.908 460.019 186.059 460.178 186.179C460.337 186.299 460.519 186.386 460.712 186.435C460.905 186.483 461.106 186.492 461.303 186.462C461.5 186.431 461.689 186.361 461.859 186.256C462.029 186.155 462.178 186.02 462.296 185.861C462.414 185.702 462.5 185.521 462.549 185.328C462.597 185.136 462.607 184.935 462.578 184.739C462.549 184.543 462.482 184.354 462.38 184.184C456.98 175.142 455.529 166.464 455.574 156.722C455.618 146.98 457.211 136.204 457.87 123.344C458.439 112.203 456.203 91.5655 448.593 72.6846C437.057 44.0842 410.422 19.8449 388.166 7.72896C379.79 3.17432 372.608 1.20214 366.345 0.822587Z" fill="black"/>
<path d="M422.429 85.6899C422.034 85.7639 421.685 85.9917 421.458 86.3232C421.232 86.6547 421.146 87.0626 421.22 87.4574V87.4574C421.22 87.4574 425.964 113.111 423.746 127.709C421.253 144.126 412.211 156.651 400.359 161.325C388.686 165.932 372.559 160.715 362.062 154.393C351.33 147.929 344.945 138.649 334.153 124.538C334.033 124.38 333.882 124.247 333.71 124.148C333.539 124.048 333.349 123.983 333.152 123.957C332.955 123.93 332.754 123.943 332.562 123.994C332.37 124.046 332.19 124.134 332.032 124.255C331.874 124.376 331.742 124.526 331.642 124.698C331.542 124.87 331.477 125.06 331.451 125.257C331.424 125.454 331.437 125.655 331.489 125.847C331.54 126.039 331.629 126.219 331.75 126.376V126.376C342.518 140.435 349.135 150.136 360.506 156.986C371.521 163.621 388.243 169.366 401.476 164.142C414.533 158.984 424.119 145.429 426.742 128.163C429.131 112.445 424.2 86.8955 424.2 86.8955C424.126 86.5008 423.899 86.1516 423.567 85.9248C423.236 85.698 422.828 85.6122 422.433 85.6861L422.429 85.6899Z" fill="black"/>
<path d="M366.349 87.5131C366.053 87.5551 365.775 87.6839 365.552 87.8834C365.329 88.0829 365.17 88.3441 365.095 88.634C365.02 88.9239 365.033 89.2295 365.132 89.5122C365.23 89.7948 365.411 90.0419 365.65 90.2221V90.2221C367.797 91.837 369.616 93.4408 370.833 95.3498C372.05 97.2587 372.727 99.443 372.534 102.602C372.329 105.925 371.73 108.162 372.497 110.417C372.934 111.606 373.765 112.611 374.852 113.263C375.994 113.989 377.457 114.54 379.425 115.094C379.811 115.199 380.223 115.148 380.571 114.952C380.92 114.755 381.176 114.429 381.286 114.045V114.045C381.392 113.659 381.342 113.247 381.146 112.899C380.951 112.55 380.625 112.293 380.24 112.184V112.184C378.406 111.671 377.185 111.172 376.467 110.718C375.749 110.264 375.518 109.936 375.351 109.449C375.019 108.474 375.328 106.308 375.544 102.799C375.771 99.1081 374.904 96.1312 373.375 93.7274C371.845 91.3235 369.713 89.5076 367.458 87.8108C367.3 87.6915 367.12 87.6045 366.929 87.5547C366.737 87.5049 366.538 87.4933 366.342 87.5206L366.349 87.5131Z" fill="black"/>
<path d="M400.179 117.04C399.936 116.951 399.675 116.925 399.419 116.966C399.164 117.006 398.923 117.111 398.72 117.271C397.231 118.439 392.699 121.059 387.326 123.597C381.953 126.134 375.612 128.62 370.209 129.923C369.967 129.98 369.744 130.097 369.558 130.261C369.372 130.426 369.229 130.634 369.142 130.866C369.056 131.099 369.027 131.35 369.06 131.596C369.093 131.842 369.186 132.076 369.331 132.278C372.069 136.085 375.429 139.72 379.53 141.808C383.631 143.895 388.572 144.301 393.7 141.648C395.741 140.626 397.518 139.146 398.893 137.325C400.269 135.503 401.205 133.389 401.63 131.147C402.508 126.938 402.002 122.41 401.135 118.19C401.089 117.932 400.976 117.69 400.809 117.489C400.641 117.287 400.424 117.133 400.179 117.04V117.04ZM398.456 120.839C398.999 124.188 399.278 127.571 398.672 130.514C397.927 134.049 396.182 136.941 392.308 138.946C387.955 141.179 384.323 140.84 380.903 139.099C378.049 137.64 375.482 135.006 373.182 132.137C378.471 130.615 383.63 128.674 388.61 126.332C392.028 124.762 395.319 122.931 398.456 120.854V120.839Z" fill="black"/>
<path d="M434.634 89.6639C434.436 89.6812 434.243 89.7374 434.067 89.8293C433.891 89.9212 433.734 90.047 433.607 90.1994C433.479 90.3519 433.383 90.528 433.324 90.7177C433.264 90.9074 433.243 91.1069 433.261 91.3049V91.3049C433.786 97.1061 432.145 99.8039 430.511 101.251C429.614 102.092 428.492 102.653 427.281 102.866C427.083 102.887 426.892 102.947 426.717 103.041C426.542 103.136 426.388 103.265 426.263 103.419C426.138 103.573 426.045 103.751 425.988 103.942C425.932 104.132 425.913 104.332 425.934 104.53C425.955 104.727 426.014 104.919 426.109 105.094C426.204 105.268 426.332 105.423 426.487 105.548C426.641 105.673 426.819 105.766 427.009 105.823C427.2 105.879 427.4 105.897 427.597 105.877C429.431 105.572 431.14 104.751 432.524 103.51C434.846 101.43 436.856 97.5266 436.271 91.0369C436.254 90.8388 436.197 90.646 436.105 90.4698C436.012 90.2935 435.886 90.1371 435.733 90.0096C435.581 89.8821 435.404 89.7859 435.214 89.7266C435.024 89.6673 434.825 89.646 434.627 89.6639H434.634Z" fill="black"/>
<path d="M427.648 86.0062C427.259 86.1092 426.927 86.3621 426.725 86.7095C425.95 88.1262 425.537 89.7126 425.523 91.3274C425.509 91.5307 425.536 91.7348 425.603 91.9275C425.669 92.1202 425.774 92.2974 425.911 92.4486C426.047 92.5998 426.213 92.7218 426.398 92.8074C426.583 92.8929 426.784 92.9403 426.987 92.9465C427.191 92.9528 427.394 92.9179 427.584 92.8438C427.774 92.7698 427.947 92.6582 428.093 92.5157C428.238 92.3732 428.354 92.2027 428.432 92.0145C428.511 91.8263 428.55 91.6242 428.548 91.4204V91.4204C428.545 90.3066 428.819 89.2095 429.345 88.2277C429.498 87.9686 429.57 87.6699 429.553 87.3695C429.535 87.0692 429.428 86.7809 429.246 86.5413C429.064 86.3018 428.815 86.1219 428.53 86.0246C428.246 85.9273 427.939 85.917 427.648 85.995V86.0062Z" fill="black"/>
<path d="M325.024 118.625C323.673 118.558 322.333 118.901 321.18 119.61C320.028 120.318 319.117 121.359 318.568 122.596C317.757 124.43 317.745 126.793 318.787 129.48C319.829 132.167 321.895 135.233 325.377 138.783C330.959 144.498 335.462 145.987 338.699 145.76C340.61 145.633 342.41 144.819 343.767 143.468C343.896 143.316 343.994 143.141 344.054 142.952C344.115 142.763 344.138 142.563 344.122 142.365C344.106 142.167 344.051 141.974 343.96 141.797C343.869 141.621 343.744 141.464 343.592 141.335C343.441 141.206 343.266 141.108 343.077 141.047C342.888 140.986 342.689 140.963 342.491 140.979C342.293 140.995 342.1 141.049 341.923 141.14C341.746 141.23 341.589 141.355 341.46 141.507V141.507C341.46 141.507 340.623 142.586 338.483 142.738C336.344 142.891 332.76 141.994 327.539 136.662C324.254 133.313 322.442 130.518 321.612 128.378C320.782 126.239 320.901 124.795 321.336 123.813C322.203 121.852 324.875 121.338 326.14 121.952C326.5 122.111 326.908 122.123 327.277 121.986C327.646 121.85 327.947 121.575 328.117 121.22C328.287 120.865 328.312 120.457 328.187 120.084C328.061 119.711 327.796 119.402 327.446 119.221C326.686 118.864 325.863 118.661 325.024 118.625V118.625Z" fill="black"/>
<path d="M330.273 128.914C328.966 128.613 327.598 128.728 326.359 129.242C325.998 129.406 325.716 129.706 325.574 130.076C325.431 130.446 325.44 130.857 325.597 131.221C325.754 131.585 326.048 131.872 326.415 132.022C326.782 132.172 327.194 132.171 327.561 132.021C328.677 131.534 330.418 131.597 332.558 133.42C332.863 133.68 333.259 133.809 333.659 133.777C334.059 133.746 334.429 133.557 334.69 133.253V133.253C334.82 133.102 334.918 132.927 334.979 132.737C335.041 132.548 335.065 132.349 335.049 132.15C335.034 131.952 334.979 131.759 334.889 131.581C334.799 131.404 334.674 131.246 334.523 131.117V131.117C333.311 130.042 331.85 129.285 330.273 128.914V128.914Z" fill="black"/>
<path d="M379.223 60.0365C375.703 61.4096 372.566 63.9251 371.353 67.3373C371.219 67.7153 371.24 68.1311 371.412 68.4933C371.585 68.8555 371.894 69.1343 372.272 69.2686C372.65 69.4028 373.066 69.3813 373.428 69.209C373.79 69.0366 374.069 68.7274 374.203 68.3494C375.003 66.1168 377.429 63.9846 380.321 62.8534C380.694 62.7053 380.994 62.415 381.153 62.0462C381.313 61.6774 381.319 61.2603 381.171 60.8868C381.023 60.5132 380.733 60.2138 380.364 60.0543C379.995 59.8949 379.578 59.8885 379.204 60.0365H379.223Z" fill="black"/>
<path d="M346.475 78.4932C343.613 78.4039 340.521 79.5017 337.79 81.098C334.121 83.219 330.921 86.2741 329.935 89.7943C329.827 90.1796 329.877 90.5919 330.073 90.9407C330.269 91.2896 330.595 91.5464 330.98 91.6548C331.366 91.7614 331.777 91.7113 332.126 91.5154C332.475 91.3195 332.731 90.9937 332.841 90.6092V90.6092C333.458 88.41 336.112 85.5596 339.297 83.714C342.482 81.8683 346.114 81.0906 348.228 81.8534C348.417 81.9308 348.619 81.9692 348.824 81.9662C349.028 81.9633 349.229 81.919 349.416 81.8361C349.603 81.7531 349.771 81.6333 349.91 81.4838C350.049 81.3342 350.157 81.1581 350.226 80.9659C350.295 80.7737 350.325 80.5695 350.314 80.3655C350.302 80.1616 350.249 79.962 350.158 79.779C350.068 79.596 349.941 79.4332 349.785 79.3005C349.63 79.1678 349.449 79.0679 349.255 79.0068V79.0068C348.361 78.6895 347.423 78.5162 346.475 78.4932V78.4932Z" fill="black"/>
<path d="M395.438 81.3697C396.826 83.9744 396.306 86.9811 394.274 88.0676C392.242 89.143 389.47 87.8927 388.082 85.2768C386.694 82.6609 387.215 79.6617 389.247 78.5788C391.278 77.496 394.051 78.75 395.438 81.3697Z" fill="black"/>
<path d="M354.177 102.439C355.565 105.043 355.044 108.05 353.012 109.136C350.98 110.223 348.208 108.965 346.82 106.349C345.432 103.733 345.953 100.734 347.985 99.6514C350.017 98.5686 352.804 99.8188 354.177 102.439Z" fill="black"/>
<path d="M47.4058 156.484C47.2117 156.451 47.0132 156.458 46.8215 156.502C46.6299 156.547 46.4491 156.629 46.2894 156.744L22.5451 173.683C22.2398 173.924 22.0388 174.273 21.9839 174.658C21.929 175.043 22.0243 175.434 22.2501 175.751C22.4759 176.068 22.8148 176.285 23.1967 176.359C23.5786 176.433 23.9742 176.356 24.3014 176.146L48.0421 159.193C48.285 159.019 48.4709 158.777 48.5765 158.497C48.682 158.217 48.7024 157.913 48.6352 157.621C48.568 157.33 48.416 157.065 48.1986 156.86C47.9812 156.655 47.7079 156.519 47.4132 156.469L47.4058 156.484Z" fill="black"/>
<path d="M214.156 155.699C213.998 155.577 213.818 155.487 213.626 155.434C213.433 155.382 213.232 155.367 213.035 155.392C212.837 155.417 212.646 155.481 212.473 155.58C212.3 155.679 212.148 155.811 212.025 155.968C211.903 156.126 211.813 156.306 211.761 156.499C211.708 156.691 211.694 156.892 211.719 157.09C211.744 157.287 211.808 157.478 211.907 157.651C212.006 157.825 212.138 157.977 212.295 158.099L235.675 176.046C235.993 176.292 236.396 176.403 236.796 176.352C237.195 176.301 237.558 176.094 237.805 175.776C238.052 175.458 238.162 175.054 238.112 174.655C238.061 174.255 237.854 173.892 237.535 173.646L214.156 155.699Z" fill="black"/>
<path d="M54.1983 133.242L1.474 137.134C1.26934 137.14 1.06791 137.186 0.881895 137.272C0.695876 137.357 0.529129 137.48 0.391728 137.632C0.254327 137.783 0.149126 137.961 0.0824837 138.155C0.0158412 138.349 -0.0108634 138.554 0.00399166 138.758C0.0188468 138.962 0.0749546 139.161 0.168914 139.343C0.262873 139.525 0.392732 139.686 0.550654 139.816C0.708576 139.946 0.891272 140.043 1.08771 140.101C1.28415 140.159 1.49025 140.176 1.69355 140.152L54.4216 136.271C54.626 136.265 54.827 136.217 55.0126 136.131C55.1981 136.045 55.3644 135.923 55.5013 135.771C55.6382 135.619 55.7429 135.441 55.8091 135.247C55.8753 135.054 55.9017 134.849 55.8866 134.645C55.8715 134.441 55.8153 134.243 55.7213 134.061C55.6273 133.879 55.4976 133.719 55.3398 133.589C55.1821 133.458 54.9996 133.362 54.8034 133.304C54.6072 133.246 54.4014 133.229 54.1983 133.253V133.242Z" fill="black"/>
<path d="M216.932 143.761C216.542 143.769 216.169 143.926 215.892 144.201C215.615 144.477 215.455 144.848 215.446 145.238C215.436 145.629 215.578 146.008 215.841 146.296C216.104 146.585 216.468 146.76 216.857 146.787L271.863 148.134C272.062 148.139 272.261 148.104 272.447 148.032C272.633 147.959 272.803 147.851 272.947 147.712C273.091 147.574 273.206 147.408 273.286 147.225C273.365 147.042 273.408 146.845 273.411 146.645C273.415 146.446 273.38 146.247 273.308 146.061C273.235 145.875 273.127 145.706 272.988 145.562C272.85 145.418 272.685 145.303 272.502 145.223C272.319 145.143 272.122 145.101 271.922 145.097L216.932 143.761Z" fill="black"/>
<path d="M27.9107 92.7673C27.7277 92.6902 27.5313 92.65 27.3327 92.6488C27.1342 92.6477 26.9373 92.6857 26.7535 92.7607C26.5696 92.8357 26.4023 92.9462 26.2612 93.0859C26.1201 93.2256 26.0079 93.3917 25.931 93.5748C25.8539 93.7578 25.8137 93.9542 25.8125 94.1528C25.8114 94.3513 25.8494 94.5482 25.9244 94.732C25.9994 94.9159 26.1099 95.0831 26.2496 95.2243C26.3893 95.3654 26.5554 95.4776 26.7385 95.5544L50.3973 105.505C50.7641 105.643 51.1704 105.634 51.5307 105.479C51.891 105.325 52.1772 105.036 52.3291 104.674C52.4809 104.313 52.4866 103.907 52.3449 103.541C52.2033 103.175 51.9253 102.879 51.5694 102.714V102.714L27.9107 92.7673Z" fill="black"/>
</svg>
