<svg width="515" height="503" viewBox="0 0 515 503" fill="none" xmlns="http://www.w3.org/2000/svg">
<path fill-rule="evenodd" clip-rule="evenodd" d="M0.277344 126.515C0.277344 57.0856 57.2276 0.804199 127.473 0.804199C197.719 0.804199 254.669 57.0856 254.669 126.515C254.669 195.944 197.722 252.226 127.473 252.226C57.2244 252.226 0.277344 195.947 0.277344 126.515Z" fill="#D2D2D2"/>
<path fill-rule="evenodd" clip-rule="evenodd" d="M204.781 388.5C204.781 388.5 207.921 373.088 212.054 352.947C215.219 337.56 218.262 318.471 225.148 306.993C230.647 297.827 242.68 293.308 253.554 290.413C260.375 288.621 267.296 287.231 274.28 286.252L373.651 292.489C373.651 292.489 395.12 295.186 402.873 307.103C409.593 317.438 411.939 334.875 416.756 349.009C423.928 370.048 432.174 388.029 432.868 399.044C433.088 402.499 433.292 407.878 432.94 412.594C432.416 419.591 430.786 426.125 427.131 430.77C423.658 435.185 415.801 435.521 411.194 434.883C397.469 432.999 380.735 404.634 380.735 404.634L377.733 433.059L379.554 456.664L380.477 471.341L262.168 470.713L204.781 388.5Z" fill="#32CD32"/>
<path fill-rule="evenodd" clip-rule="evenodd" d="M188.422 43.2594C188.422 23.5045 216.473 7.48962 251.078 7.48962C285.683 7.48962 313.74 23.5045 313.74 43.2594C313.74 63.0142 285.686 79.0291 251.078 79.0291C246.996 79.0291 242.565 79.3745 238.706 78.9506C238.706 78.9506 229.241 82.5493 217.459 86.1887C206.063 89.712 192.397 93.2949 189.003 92.4251C186.864 91.8819 193.581 89.7936 199.824 85.4131C207.181 80.2475 214.366 72.6703 212.699 71.9292C198.006 65.3819 188.422 54.7242 188.422 43.2594Z" fill="white"/>
<path fill-rule="evenodd" clip-rule="evenodd" d="M67.5917 99.0853C68.4082 90.2175 83.8139 80.8723 85.5316 76.8183C88.0877 70.808 90.0911 57.6256 91.746 53.5088C98.0483 37.8268 109.645 29.4237 124.3 29.4237C128.696 29.4237 134.22 30.3657 134.22 30.3657C134.22 30.3657 137.024 27.6243 140.463 28.984C143.901 30.3437 147.977 35.7982 147.977 35.7982C147.977 35.7982 155.702 39.6198 158.026 41.4505C162.946 45.3318 168.275 50.2933 168.275 56.7338C168.275 60.6339 162.538 71.995 165.449 81.045C168.216 89.6585 179.53 95.9295 183.348 101.324C189.534 110.048 182.664 127.673 189.346 136.849C192.938 141.789 198.682 146.502 201.213 151.262C202.836 154.321 193.902 168.998 195.774 174.126C196.521 176.161 198.232 177.825 198.939 179.238C200.823 183.029 192.075 176.786 192.075 176.786C192.075 176.786 55.3105 171.652 50.7949 160.221C48.8009 155.166 48.8888 147.877 51.1372 143.403C54.6291 136.447 62.1718 132.412 66.2101 124.182C69.8495 116.783 67.2652 102.646 67.5917 99.0853Z" fill="#4B4B4B"/>
<path fill-rule="evenodd" clip-rule="evenodd" d="M261.738 219.002C261.738 210.747 267.287 190.502 276.497 178.061C288.515 161.836 306.056 154.032 318.359 154.032C325.719 154.032 332.16 156.5 336.509 159.97C338.961 161.996 341.023 164.452 342.595 167.218C342.595 167.218 354.885 171.966 361.122 190.87C362.899 196.255 365.308 210.763 362.551 215.049C361.269 217.037 358.154 242.836 358.154 242.836C358.154 242.836 358.515 248.872 356.082 253.343C352.288 260.299 339.624 259.53 336.908 259.815C328.232 260.723 326.737 222.921 318.381 222.921C310.452 222.921 285.161 254.289 285.161 254.289C284.83 256.799 283.924 259.2 282.514 261.304C280.275 264.714 275.995 268.391 273.583 268.372C270.839 268.35 277.27 258.952 275.429 251.447C273.464 243.408 267.679 235.693 264.332 229.108C262.754 225.964 261.869 222.518 261.738 219.002Z" fill="#4B4B4B"/>
<path fill-rule="evenodd" clip-rule="evenodd" d="M105.588 88.2392C105.566 86.9831 101.308 88.0194 99.7758 86.4838C96.868 83.576 95.7909 77.952 96.0076 75.7727C96.7832 67.9631 110.801 75.2137 117.546 71.2728C120.121 69.7687 123.644 65.0113 126.317 60.075C129.3 54.564 129.064 50.6042 134.764 48.9148C142.441 46.6381 148.869 49.2288 152.437 53.2262C156.88 58.2034 154.098 67.8469 154.352 76.564C154.471 80.5646 154.299 87.9252 153.674 91.4328C153.011 95.1507 149.573 101.224 146.828 104.329C143.038 108.613 139.772 109.354 139.772 109.354C139.772 109.354 138.679 116.686 142.404 120.749C146.128 124.813 154.65 125.61 154.65 125.61C154.65 125.61 151.473 131.121 146.734 134.786C141.895 138.529 135.411 140.438 127.375 140.382C119.587 140.332 110.512 137.775 103.484 134.073C98.9711 131.672 94.789 128.694 91.043 125.215C91.043 125.215 100.894 124.081 103.817 118.595C107.903 110.921 105.733 97.0317 105.588 88.2392Z" fill="#FFDDC0"/>
<path fill-rule="evenodd" clip-rule="evenodd" d="M104.787 497.627L77.8537 391.024C77.8537 391.024 77.4109 389.112 78.2902 388.27C79.2919 387.328 80.8023 387.489 80.8023 387.489L238.587 388.867C242.016 389.015 242.528 391.693 242.528 391.693L266.28 484.448L327.199 484.589L328.069 487.346L326.917 488.828L269.822 498.959L267.891 501.471L110.226 500.067L106.929 499.879L104.787 497.627Z" fill="#A0AEC8"/>
<path fill-rule="evenodd" clip-rule="evenodd" d="M35.4102 213.083C35.4102 213.083 39.6086 195.812 46.1872 175.122C50.4861 161.6 54.5809 145.215 63.4111 136.099C67.2358 132.155 74.0061 129.19 79.112 127.934C82.2208 127.165 89.911 125.108 89.911 125.108C92.9023 127.888 96.227 130.285 99.8089 132.246C108.011 136.752 119.928 141.057 129.239 140.664C146.136 139.955 154.429 126.135 154.429 126.135C154.429 126.135 176.724 127.915 183.319 143.283C188.092 154.374 190.883 170.289 192.815 184.536C194.611 197.809 195.707 209.83 195.707 209.83C195.707 209.83 102.99 242.758 94.9039 246.708C93.4909 247.399 80.054 242.783 80.054 242.783L81.3101 220.554C81.3101 220.554 78.889 195.611 76.2073 198.572C75.7332 199.103 70.4702 238.534 70.4702 238.534C70.4702 238.534 59.9726 232.694 51.2115 226.328C45.6608 222.263 40.3824 217.839 35.4102 213.083Z" fill="#FFBF00"/>
<path fill-rule="evenodd" clip-rule="evenodd" d="M84.2461 239.206C84.2461 218.202 114.706 201.176 152.309 201.176C186.65 201.176 213.857 214.763 218.495 233.237C218.495 233.237 222.549 239.596 229.887 242.183C240.693 245.989 256.152 246.623 256.152 247.704C256.152 248.555 245.136 250.633 234.651 250.335C226.119 250.09 217.719 247.509 217.719 247.509C210.855 264.466 184.713 277.231 152.309 277.231C114.718 277.24 84.2461 260.211 84.2461 239.206Z" fill="white"/>
<path fill-rule="evenodd" clip-rule="evenodd" d="M339.279 229.814C339.279 226.015 340.937 219.452 343.267 215.702C346.178 211.02 349.886 209.532 349.886 209.532C349.886 209.532 349.365 197.813 345.142 187.635C342.042 180.162 336.701 174.365 329.334 170.364C321.342 166.015 309.683 164.822 300.13 166.012C293.27 166.885 286.582 168.796 280.297 171.68C280.297 171.68 283.638 164.065 293.847 161.317C308.273 157.452 324.718 160.102 334.867 164.624C353.918 173.103 356.496 205.635 356.496 205.635C356.496 205.635 360.704 199.719 364.739 195.018C367.452 191.859 370.078 188.888 371.368 189.994C371.937 190.474 368.354 194.883 365.349 199.442C361.163 205.792 357.002 212.76 357.002 212.76L358.641 214.644L359.69 222.705L351.271 220.576C351.271 220.576 356.864 230.229 356.864 231.001C356.864 234.063 359.2 238.572 358.151 240.971C356.267 245.27 350.087 247.226 346.341 247.226C345.01 247.226 341.7 243.458 341.7 243.458C341.7 243.458 332.483 253.789 325.622 258.004C321.389 260.607 318.284 258.079 318.114 257.715C318.035 257.548 318.302 255.994 319.511 255.548C321.465 254.829 325.135 254.87 328.269 252.351C334.135 247.641 339.916 239.643 339.916 239.643C339.916 239.643 339.279 233.114 339.279 229.814Z" fill="#4C576E"/>
<path fill-rule="evenodd" clip-rule="evenodd" d="M280.033 231.745C279.754 229.77 278.705 217.388 278.705 217.388C278.705 217.388 282.906 212.907 288.066 207.921C294.858 201.352 299.515 187.409 308.624 182.614C313.096 180.262 324.755 180.064 328.455 188.401C329.227 190.141 331.761 196.026 335.209 201.562C337.875 205.75 340.775 209.784 343.895 213.645C343.895 213.645 339.455 219.665 338.707 227.041C338.265 231.466 339.734 240.029 339.734 240.029C339.734 240.029 334.082 248.134 328.536 252.455C325.104 255.127 321.465 254.75 319.477 255.576C318.5 255.984 318.111 257.686 317.976 258.226C317.662 259.398 320.011 259.837 322.874 259.093C328.307 257.683 337.414 248.526 337.414 248.526C337.414 248.526 336.343 254.207 336.252 255.906C336.019 260.437 336.588 264.934 336.456 270.891C336.387 274.103 337.322 278.741 339.213 281.278C341.105 283.738 343.712 285.55 346.677 286.466C346.677 286.466 345.129 274.533 343.147 263.747C341.932 257.115 339.298 250.423 340.472 248.614C341.263 247.396 343.98 247.003 346.225 249.198C349.217 252.125 350.156 260.905 352.819 264.161C355.017 266.834 359.191 264.592 359.649 262.5C360.236 259.825 361.015 249.541 360.955 247.28C360.875 244.846 359.905 242.525 358.23 240.758C358.23 240.758 349.023 232.257 349.086 229.842C349.195 225.669 358.214 231.098 358.214 231.098C358.214 231.098 350.555 222.507 351.544 220.193C353.205 216.308 359.684 223.069 359.684 223.069C359.684 223.069 357.988 215.831 358.516 214.682C359.323 212.92 360.528 213.331 361.304 213.482C362.846 213.796 366.036 221.549 368.95 230.518C369.98 233.689 372.138 237.834 372.562 240.714C373.431 246.595 374.898 254.216 375.256 260.158C375.403 262.601 374.028 269.041 373.334 275.965C372.583 283.502 372.502 291.471 372.502 291.471C373.096 294.024 373.874 296.53 374.832 298.97C375.965 301.712 377.246 304.39 378.669 306.993C378.669 306.993 377.021 314.162 372.122 317.708C367.223 321.253 359.087 321.162 359.087 321.162L354.98 305.483L348.169 292.068C348.169 292.068 341.888 300.861 332.807 307.326C326.266 311.983 318.177 315.039 310.458 314.467C300.469 313.723 290.091 307.804 283.277 300.512C277.524 294.36 274.484 286.592 274.484 286.592C274.484 286.592 285.704 283.489 290.223 277.231C293.011 273.368 291.821 261.037 291.821 261.037C291.821 261.037 286.103 255.385 283.343 248.891C281.405 244.359 281.082 239.184 280.033 231.745Z" fill="#FFDDC0"/>
<path d="M359.002 322.066C358.758 322.067 358.522 321.984 358.331 321.832C358.141 321.681 358.007 321.468 357.953 321.231L357.887 320.942C356.546 315.082 355.736 311.543 354.461 307.998C353.168 304.48 351.672 301.04 349.98 297.695C348.118 293.871 346.504 290.567 345.634 286.077C345.113 283.401 344.717 279.982 344.331 276.672C344.017 274.084 343.719 271.409 343.348 269.073C342.799 265.587 341.778 261.555 340.905 257.997C340.475 256.273 340.063 254.628 339.727 253.146C339.278 251.164 339.015 249.145 340.12 247.807C340.789 246.994 341.819 246.576 343.201 246.636C346.265 246.718 348.294 249.877 349.556 252.244C350.42 253.877 350.872 255.648 351.312 257.363C351.836 259.413 352.376 261.539 353.642 263.411C353.759 263.627 353.926 263.813 354.128 263.953C354.33 264.093 354.563 264.184 354.807 264.218C355.786 264.343 357.287 263.59 358.889 262.114C358.992 262.012 359.115 261.931 359.251 261.878C359.386 261.824 359.531 261.799 359.676 261.803C359.821 261.807 359.965 261.84 360.097 261.901C360.229 261.962 360.347 262.049 360.445 262.156C360.543 262.264 360.617 262.391 360.665 262.528C360.712 262.666 360.731 262.812 360.721 262.957C360.71 263.102 360.671 263.243 360.604 263.373C360.538 263.502 360.445 263.616 360.333 263.709C358.851 265.056 356.634 266.601 354.546 266.356C353.997 266.282 353.47 266.088 353.005 265.787C352.539 265.487 352.145 265.087 351.852 264.617C350.379 262.419 349.792 260.126 349.223 257.894C348.796 256.229 348.394 254.659 347.653 253.255C346.083 250.288 344.601 248.828 343.144 248.787C342.441 248.787 342.007 248.9 341.784 249.173C341.194 249.889 341.656 251.915 341.828 252.678C342.161 254.147 342.566 255.777 342.993 257.485C343.891 261.084 344.909 265.166 345.477 268.743C345.854 271.126 346.165 273.824 346.469 276.433C346.849 279.702 347.242 283.081 347.748 285.675C348.564 289.886 350.043 292.919 351.918 296.76C353.643 300.175 355.168 303.687 356.487 307.279C357.802 310.947 358.625 314.533 359.985 320.468L360.051 320.757C360.082 320.895 360.086 321.037 360.063 321.177C360.039 321.317 359.988 321.45 359.913 321.57C359.838 321.69 359.74 321.794 359.624 321.876C359.509 321.957 359.379 322.016 359.241 322.047C359.162 322.063 359.082 322.069 359.002 322.066Z" fill="black"/>
<path d="M352.27 289.688H352.238C351.956 289.676 351.69 289.553 351.497 289.346C351.304 289.139 351.201 288.865 351.208 288.583C351.4 282.152 353.683 276.198 355.89 270.436C356.974 267.609 357.997 264.931 358.717 262.35C359.703 258.776 360.422 250.527 359.853 245.989C359.476 242.972 356.305 239.922 352.945 236.694C351.805 235.602 350.631 234.471 349.55 233.322C348.206 231.899 347.776 229.726 348.568 228.382C348.882 227.858 349.842 226.699 352.11 227.28C354.553 227.908 360.937 232.499 365.135 236.239C367.88 238.685 369.503 245.368 370.932 251.262C371.334 252.907 371.714 254.483 372.097 255.862C372.392 256.917 373.199 259.797 373.017 262.525C373.01 262.667 372.974 262.807 372.912 262.935C372.85 263.063 372.763 263.177 372.657 263.271C372.55 263.364 372.425 263.436 372.29 263.48C372.155 263.525 372.012 263.542 371.871 263.53C371.586 263.51 371.321 263.378 371.134 263.164C370.946 262.949 370.851 262.669 370.869 262.384C371.026 260.023 370.294 257.407 370.053 256.55C369.635 255.039 369.246 253.441 368.841 251.767C367.553 246.457 365.948 239.835 363.703 237.847C358.927 233.589 353.262 229.792 351.582 229.368C351.293 229.299 350.609 229.161 350.423 229.478C350.153 229.934 350.405 231.095 351.117 231.852C352.16 232.961 353.315 234.072 354.437 235.146C358.079 238.648 361.518 241.951 361.973 245.726C362.532 250.191 361.938 258.71 360.777 262.924C360.035 265.606 358.993 268.328 357.891 271.208C355.746 276.801 353.532 282.585 353.35 288.649C353.339 288.928 353.221 289.192 353.02 289.386C352.818 289.58 352.549 289.688 352.27 289.688Z" fill="black"/>
<path d="M378.598 308.136C378.386 308.136 378.179 308.073 378.002 307.955C377.826 307.837 377.688 307.67 377.606 307.474C377.292 306.679 376.837 305.838 376.328 304.861C374.811 301.944 372.729 297.953 371.932 291.77C371.059 284.861 372.359 275.469 373.401 267.93C374.029 263.408 374.57 259.501 374.325 258.088C373.957 256.006 373.605 253.937 373.269 251.956C372.327 246.322 371.486 241.458 370.826 239.049C369.95 235.859 368.06 233.039 364.7 229.912C363.613 228.897 362.502 227.82 361.387 226.771C358.388 223.892 354.981 220.629 353.691 220.124C353.417 220.014 352.748 219.794 352.529 220.083C352.215 220.504 352.306 221.687 352.918 222.526C355.097 225.525 357.983 229.042 362.025 233.601C362.205 233.816 362.295 234.094 362.274 234.374C362.253 234.654 362.124 234.915 361.913 235.102C361.702 235.288 361.427 235.384 361.147 235.37C360.866 235.356 360.602 235.233 360.41 235.027C356.328 230.414 353.411 226.862 351.194 223.794C350.042 222.224 349.885 220.001 350.839 218.77C351.213 218.29 352.309 217.263 354.494 218.123C356.181 218.786 359.293 221.769 362.894 225.22C363.987 226.269 365.092 227.337 366.185 228.345C369.803 231.714 371.944 234.939 372.918 238.49C373.605 241.003 374.441 245.914 375.408 251.604C375.744 253.582 376.096 255.648 376.46 257.727C376.774 259.47 376.256 263.147 375.549 268.234C374.522 275.648 373.244 284.877 374.083 291.509C374.818 297.306 376.714 300.949 378.237 303.875C378.746 304.855 379.226 305.778 379.594 306.654C379.648 306.785 379.677 306.925 379.677 307.066C379.677 307.208 379.65 307.348 379.596 307.478C379.542 307.609 379.462 307.728 379.362 307.828C379.262 307.928 379.144 308.007 379.013 308.061C378.881 308.114 378.74 308.139 378.598 308.136Z" fill="black"/>
<path d="M369.927 235.347C369.697 235.348 369.473 235.275 369.288 235.138C369.103 235.002 368.967 234.81 368.9 234.59C366.73 227.607 362.711 215.972 361.147 214.493C360.911 214.27 360.468 213.919 360.06 214.085C359.891 214.176 359.751 214.313 359.656 214.479C359.56 214.646 359.513 214.835 359.52 215.027C359.432 217.539 360.701 221.053 361.542 223.371C361.69 223.776 361.828 224.152 361.944 224.492C361.998 224.627 362.024 224.771 362.021 224.917C362.017 225.062 361.985 225.205 361.924 225.338C361.864 225.47 361.778 225.589 361.67 225.687C361.563 225.785 361.437 225.86 361.299 225.908C361.162 225.956 361.016 225.976 360.871 225.966C360.726 225.956 360.585 225.917 360.455 225.851C360.325 225.785 360.211 225.693 360.117 225.582C360.024 225.47 359.954 225.341 359.913 225.201C359.8 224.887 359.665 224.501 359.52 224.105C358.578 221.483 357.265 217.897 357.369 214.952C357.375 214.344 357.556 213.751 357.89 213.244C358.224 212.737 358.698 212.336 359.253 212.091C360.365 211.639 361.602 211.947 362.638 212.936C365.066 215.25 369.996 230.857 370.96 233.975C371.044 234.247 371.017 234.541 370.885 234.793C370.752 235.045 370.525 235.234 370.253 235.319C370.147 235.345 370.036 235.355 369.927 235.347Z" fill="black"/>
<path d="M357.942 322.239C354.977 322.239 352.428 321.586 351.291 319.805C349.846 317.544 351.14 314.301 355.138 310.156C355.336 309.95 355.608 309.831 355.893 309.826C356.179 309.821 356.455 309.929 356.661 310.127C356.866 310.325 356.985 310.597 356.99 310.883C356.995 311.169 356.887 311.445 356.689 311.65C353.608 314.841 352.293 317.39 353.103 318.647C354.412 320.697 361.267 320.531 367.783 318.257C373.285 316.348 377.244 310.683 377.492 306.591C377.565 305.445 377.354 303.932 375.96 303.25C375.718 303.117 375.536 302.896 375.452 302.632C375.369 302.369 375.389 302.083 375.51 301.835C375.632 301.586 375.844 301.394 376.103 301.297C376.362 301.201 376.648 301.207 376.902 301.316C378.821 302.258 379.794 304.177 379.637 306.723C379.348 311.487 375.005 318.028 368.486 320.292C365.488 321.335 361.427 322.239 357.942 322.239Z" fill="black"/>
<path d="M428.92 395.769C428.709 395.77 428.503 395.708 428.327 395.593C428.152 395.477 428.013 395.313 427.93 395.119C423.242 384.286 418.824 377.142 413.702 368.871C410.301 363.375 406.445 357.145 402.084 349.069C398.601 342.616 395.235 336.031 392.267 330.228C385.563 317.108 379.776 305.778 376.607 303.709C376.484 303.634 376.377 303.535 376.293 303.417C376.208 303.3 376.148 303.167 376.116 303.026C376.085 302.886 376.081 302.74 376.107 302.598C376.132 302.456 376.186 302.32 376.265 302.199C376.344 302.078 376.447 301.975 376.567 301.894C376.686 301.814 376.821 301.758 376.963 301.731C377.105 301.703 377.251 301.705 377.392 301.735C377.533 301.765 377.667 301.823 377.785 301.906C381.434 304.287 386.782 314.756 394.183 329.248C397.147 335.051 400.507 341.626 403.977 348.054C408.307 356.074 412.142 362.276 415.53 367.746C420.695 376.09 425.154 383.296 429.906 394.275C429.976 394.438 430.005 394.617 429.99 394.795C429.974 394.973 429.915 395.144 429.817 395.293C429.719 395.443 429.585 395.565 429.428 395.65C429.271 395.734 429.095 395.779 428.916 395.779L428.92 395.769Z" fill="black"/>
<path d="M416.595 436.293C413.712 436.293 410.506 435.505 407.102 433.948C396.325 429.011 384.236 416.435 380.7 406.484C365.68 364.217 352.856 325.781 350.868 318.936C350.796 318.663 350.833 318.374 350.972 318.128C351.111 317.883 351.34 317.702 351.611 317.624C351.881 317.546 352.172 317.577 352.42 317.711C352.668 317.845 352.854 318.07 352.937 318.339C354.913 325.159 367.718 363.532 382.722 405.765C386.091 415.251 397.663 427.259 407.991 431.991C412.896 434.236 417.264 434.733 420.618 433.433C433.423 428.459 432.12 404.832 431.69 397.069C431.464 392.965 427.84 382.895 423.252 370.142C421.528 365.347 419.65 360.128 417.732 354.617C414.755 346.082 412.802 338.728 411.078 332.24C407.881 320.217 405.57 311.515 399.202 304.18C392.962 296.979 382.395 294.411 372.881 292.85C372.741 292.827 372.607 292.777 372.487 292.702C372.367 292.628 372.263 292.53 372.18 292.415C372.098 292.301 372.038 292.171 372.006 292.033C371.974 291.895 371.969 291.752 371.992 291.613C372.015 291.473 372.065 291.34 372.14 291.219C372.214 291.099 372.312 290.995 372.427 290.912C372.541 290.83 372.671 290.771 372.809 290.738C372.947 290.706 373.09 290.701 373.229 290.724C383.124 292.348 394.14 295.051 400.828 302.77C407.517 310.488 409.888 319.385 413.157 331.688C414.871 338.138 416.818 345.451 419.751 353.911C421.67 359.412 423.544 364.622 425.268 369.414C430.095 382.835 433.583 392.532 433.819 396.812C434.325 405.962 435.647 429.9 421.384 435.436C419.854 436.015 418.231 436.306 416.595 436.293Z" fill="black"/>
<path d="M346.115 287.64C345.975 287.64 345.836 287.614 345.706 287.562C341.276 285.741 338.412 283.225 336.942 279.865C333.802 272.687 335.658 253.193 335.74 252.367C335.747 252.221 335.783 252.078 335.847 251.947C335.911 251.816 336 251.699 336.111 251.604C336.221 251.508 336.35 251.436 336.489 251.392C336.627 251.348 336.774 251.332 336.919 251.346C337.064 251.36 337.205 251.404 337.333 251.474C337.461 251.544 337.573 251.639 337.663 251.754C337.753 251.869 337.819 252.001 337.856 252.142C337.894 252.283 337.902 252.43 337.881 252.574C337.862 252.772 335.997 272.335 338.914 279.005C340.148 281.831 342.639 283.973 346.523 285.571C346.754 285.665 346.946 285.836 347.065 286.056C347.183 286.275 347.222 286.529 347.174 286.774C347.125 287.019 346.993 287.24 346.8 287.398C346.607 287.556 346.364 287.642 346.115 287.64Z" fill="black"/>
<path d="M205.25 389.586C205.175 389.585 205.101 389.578 205.027 389.564C204.748 389.505 204.503 389.338 204.347 389.099C204.191 388.86 204.136 388.569 204.195 388.289C204.236 388.088 208.399 368.032 212.209 346.93C217.098 319.852 220.229 309.386 229.128 300.769C236.733 293.406 249.31 290.721 261.472 288.108C274.346 285.351 286.524 282.748 289.966 274.869C291.055 272.376 290.697 264.431 290.468 261.58C290.456 261.439 290.473 261.297 290.516 261.162C290.559 261.028 290.629 260.903 290.72 260.795C290.812 260.687 290.924 260.598 291.05 260.533C291.176 260.469 291.313 260.43 291.454 260.418C291.737 260.401 292.016 260.495 292.232 260.678C292.448 260.862 292.584 261.122 292.613 261.404C292.701 262.51 293.439 272.294 291.938 275.73C288.056 284.623 275.361 287.348 261.924 290.215C250.057 292.756 237.785 295.384 230.623 302.314C222.662 310.024 219.462 318.854 214.325 347.31C210.51 368.443 206.34 388.528 206.299 388.729C206.248 388.97 206.117 389.187 205.926 389.343C205.735 389.499 205.496 389.585 205.25 389.586Z" fill="black"/>
<path d="M265.504 503C265.241 503 265.049 503 264.98 503L108.825 501.022C108.562 501.022 106.407 500.915 105.016 499.85C103.566 498.745 103.182 496.811 103.132 496.594L77.1975 391.967C77.0719 391.524 76.4721 389.09 77.5994 387.646C78.7361 386.179 81.2106 386.236 81.6816 386.261L237.547 387.831C237.811 387.831 240.311 387.831 242.016 389.26C243.721 390.688 244.324 393.204 244.39 393.49L270.105 496.544C270.193 496.826 271.047 499.835 269.741 501.505C268.717 502.834 266.534 503 265.504 503ZM81.4179 388.384C80.6391 388.384 79.606 388.563 79.3108 388.943C78.9779 389.373 79.0847 390.645 79.292 391.398L105.249 496.123C105.333 496.553 105.657 497.612 106.323 498.117C107.042 498.667 108.408 498.833 108.872 498.849L265.068 500.827C266.06 500.89 267.637 500.723 268.079 500.161C268.522 499.599 268.331 498.007 268.06 497.109L242.311 393.983C242.173 393.38 241.611 391.696 240.656 390.905C239.541 389.963 237.538 389.998 237.566 389.963L81.6283 388.377L81.4179 388.384Z" fill="black"/>
<path fill-rule="evenodd" clip-rule="evenodd" d="M161.001 445.591C159.798 440.787 161.918 436.067 165.739 435.05C169.561 434.032 173.634 437.103 174.846 441.908C176.058 446.712 173.929 451.429 170.107 452.446C166.286 453.464 162.204 450.399 161.001 445.591Z" fill="white"/>
<path d="M168.622 453.721C167.261 453.709 165.929 453.333 164.763 452.632C162.445 451.266 160.68 448.794 159.955 445.858C158.614 440.495 161.082 435.182 165.463 434.017C166.408 433.778 167.392 433.731 168.356 433.88C169.32 434.028 170.244 434.368 171.074 434.88C173.395 436.246 175.157 438.714 175.882 441.654C177.226 447.017 174.755 452.33 170.374 453.492C169.803 453.645 169.213 453.722 168.622 453.721ZM162.027 445.337C162.627 447.717 164.015 449.702 165.84 450.776C166.424 451.143 167.077 451.388 167.758 451.496C168.44 451.603 169.136 451.572 169.806 451.404C173.056 450.537 174.83 446.38 173.778 442.169C173.181 439.782 171.79 437.801 169.966 436.724C169.381 436.356 168.729 436.111 168.047 436.004C167.365 435.896 166.669 435.927 166 436.096C162.753 436.959 160.976 441.12 162.027 445.337Z" fill="black"/>
<path d="M269.529 496.927C269.259 496.925 268.999 496.82 268.802 496.635C268.604 496.45 268.484 496.197 268.465 495.927C268.445 495.657 268.528 495.39 268.697 495.178C268.866 494.967 269.108 494.827 269.375 494.785L272.76 494.296L323.044 485.271L266.113 485.472C265.838 485.457 265.578 485.337 265.389 485.137C265.199 484.937 265.094 484.672 265.094 484.396C265.094 484.121 265.199 483.855 265.389 483.655C265.578 483.455 265.838 483.336 266.113 483.321H270.132L325.471 483.104C327.67 483.104 328.835 483.65 328.926 484.721C329.017 485.792 327.984 486.539 325.713 486.973L273.106 496.418L269.683 496.914C269.632 496.922 269.581 496.926 269.529 496.927Z" fill="black"/>
<path d="M269.849 500.02C269.578 500.018 269.318 499.913 269.121 499.728C268.924 499.543 268.803 499.29 268.784 499.02C268.765 498.75 268.848 498.483 269.016 498.271C269.185 498.06 269.427 497.92 269.695 497.878L273.08 497.389L324.952 488.147C325.552 488.059 326.488 487.723 326.705 487.265C326.945 486.619 327.006 485.92 326.88 485.242C326.821 484.963 326.875 484.672 327.031 484.433C327.186 484.194 327.43 484.027 327.709 483.967C327.988 483.908 328.279 483.962 328.519 484.118C328.758 484.273 328.925 484.517 328.984 484.796C329.209 485.932 329.093 487.109 328.651 488.178C327.854 489.874 325.549 490.235 325.288 490.273L273.422 499.514L270.002 500.008C269.951 500.015 269.9 500.019 269.849 500.02Z" fill="black"/>
<path d="M96.8722 472.173H8.31927C8.17782 472.173 8.03776 472.145 7.90708 472.091C7.7764 472.037 7.65768 471.957 7.55766 471.857C7.45765 471.757 7.37831 471.639 7.32418 471.508C7.27005 471.377 7.24219 471.237 7.24219 471.096C7.24219 470.954 7.27005 470.814 7.32418 470.684C7.37831 470.553 7.45765 470.434 7.55766 470.334C7.65768 470.234 7.7764 470.155 7.90708 470.101C8.03776 470.047 8.17782 470.019 8.31927 470.019H96.8722C97.1579 470.019 97.4319 470.132 97.6339 470.334C97.8359 470.536 97.9493 470.81 97.9493 471.096C97.9493 471.381 97.8359 471.655 97.6339 471.857C97.4319 472.059 97.1579 472.173 96.8722 472.173Z" fill="black"/>
<path d="M513.379 472.173H263.314C263.025 472.174 262.747 472.062 262.538 471.861C262.33 471.66 262.209 471.385 262.2 471.096C262.196 470.957 262.219 470.818 262.269 470.688C262.319 470.558 262.395 470.44 262.491 470.339C262.588 470.239 262.703 470.159 262.831 470.104C262.959 470.049 263.097 470.02 263.236 470.019H513.379C513.521 470.019 513.661 470.047 513.791 470.101C513.922 470.155 514.041 470.234 514.141 470.334C514.241 470.434 514.32 470.553 514.374 470.684C514.428 470.814 514.456 470.954 514.456 471.096C514.456 471.237 514.428 471.377 514.374 471.508C514.32 471.639 514.241 471.757 514.141 471.857C514.041 471.957 513.922 472.037 513.791 472.091C513.661 472.145 513.521 472.173 513.379 472.173Z" fill="black"/>
<path d="M312.295 315.117C310.344 315.116 308.397 314.952 306.473 314.627C290.016 311.864 276.921 298.053 273.771 286.303C273.719 286.162 273.696 286.011 273.705 285.861C273.714 285.711 273.754 285.564 273.824 285.43C273.893 285.297 273.989 285.179 274.107 285.085C274.224 284.991 274.36 284.922 274.506 284.884C274.651 284.845 274.803 284.838 274.952 284.862C275.1 284.886 275.242 284.941 275.368 285.023C275.495 285.105 275.602 285.213 275.684 285.339C275.766 285.466 275.82 285.608 275.844 285.756C278.755 296.612 291.426 309.936 306.825 312.517C317.118 314.25 332.377 311.889 346.627 290.821C346.791 290.595 347.036 290.442 347.312 290.393C347.587 290.345 347.87 290.405 348.102 290.562C348.333 290.718 348.495 290.959 348.552 291.232C348.61 291.506 348.559 291.791 348.41 292.027C335.991 310.378 322.698 315.117 312.295 315.117Z" fill="black"/>
<path fill-rule="evenodd" clip-rule="evenodd" d="M321.132 244.03C317.181 244.656 313.18 244.914 309.18 244.799C305.293 244.68 301.436 244.066 297.703 242.975C297.703 242.975 298.783 254.826 307.46 256.094C317.511 257.567 321.132 244.03 321.132 244.03Z" fill="white"/>
<path d="M308.97 257.284C308.413 257.283 307.857 257.242 307.306 257.162C297.885 255.787 296.683 243.59 296.629 243.072C296.613 242.895 296.642 242.716 296.712 242.553C296.782 242.389 296.891 242.245 297.03 242.134C297.169 242.023 297.333 241.948 297.508 241.916C297.683 241.884 297.864 241.896 298.033 241.951C301.671 243.007 305.426 243.603 309.212 243.725C313.136 243.83 317.062 243.578 320.941 242.971C321.119 242.939 321.303 242.953 321.474 243.011C321.646 243.069 321.801 243.169 321.923 243.302C322.046 243.436 322.133 243.598 322.177 243.774C322.22 243.95 322.218 244.134 322.171 244.309C322.14 244.444 318.589 257.284 308.97 257.284ZM299.035 244.463C299.663 247.556 301.701 254.166 307.617 255.03C314.626 256.057 318.268 248.702 319.549 245.352C316.1 245.795 312.622 245.971 309.146 245.876C305.736 245.759 302.347 245.285 299.035 244.463Z" fill="black"/>
<path d="M308.722 273.079C304.954 273.079 302.056 271.531 299.82 270.008C291.674 264.46 283.535 253.051 281.701 246.567C280.502 242.321 279.531 233.852 278.596 225.663C278.316 223.229 278.037 220.799 277.754 218.475C277.737 218.334 277.748 218.192 277.786 218.055C277.824 217.919 277.889 217.791 277.976 217.68C278.064 217.568 278.172 217.475 278.296 217.406C278.419 217.336 278.555 217.292 278.696 217.275C278.979 217.245 279.263 217.327 279.487 217.503C279.711 217.678 279.858 217.935 279.896 218.217C280.181 220.544 280.458 222.981 280.74 225.421C281.682 233.526 282.624 241.907 283.777 245.983C285.513 252.116 293.263 262.94 301.048 268.231C303.927 270.194 307.604 271.965 312.999 270.209C316.187 269.173 327.171 264.906 334.632 253.544C335.706 251.908 336.905 249.296 338.196 245.772C338.304 245.52 338.505 245.318 338.757 245.209C339.01 245.099 339.294 245.09 339.552 245.184C339.811 245.278 340.024 245.466 340.148 245.712C340.272 245.957 340.297 246.241 340.218 246.504C338.868 250.178 337.596 252.942 336.431 254.713C328.581 266.661 317.022 271.151 313.665 272.244C312.072 272.783 310.404 273.065 308.722 273.079Z" fill="black"/>
<path d="M309.968 236.455C309.717 236.456 309.474 236.368 309.28 236.207C308.86 235.856 305.179 232.69 305.723 229.71C305.87 228.913 306.376 228.178 307.016 227.248C308.841 224.601 311.592 220.607 307.933 212.053C307.834 211.793 307.84 211.505 307.948 211.249C308.057 210.994 308.26 210.789 308.516 210.68C308.771 210.57 309.059 210.564 309.319 210.662C309.579 210.76 309.792 210.955 309.912 211.205C314.038 220.849 310.624 225.807 308.787 228.476C308.332 229.136 307.905 229.761 307.845 230.106C307.594 231.478 309.638 233.698 310.671 234.559C310.841 234.701 310.963 234.891 311.02 235.105C311.078 235.318 311.068 235.544 310.992 235.752C310.917 235.96 310.779 236.14 310.598 236.267C310.417 236.394 310.202 236.462 309.981 236.462L309.968 236.455Z" fill="black"/>
<path d="M301.977 206.426C301.769 206.426 301.565 206.366 301.39 206.253C298.761 204.548 295.976 203.926 293.128 204.41C292.846 204.458 292.557 204.391 292.324 204.225C292.091 204.059 291.934 203.808 291.886 203.526C291.839 203.244 291.905 202.955 292.071 202.722C292.237 202.489 292.488 202.332 292.77 202.284C296.177 201.713 299.471 202.441 302.564 204.448C302.758 204.575 302.906 204.761 302.986 204.978C303.065 205.196 303.073 205.433 303.007 205.655C302.941 205.878 302.805 206.073 302.62 206.211C302.434 206.35 302.209 206.425 301.977 206.426Z" fill="black"/>
<path fill-rule="evenodd" clip-rule="evenodd" d="M292.047 219.555C292.135 216.77 293.83 214.565 295.831 214.628C297.831 214.691 299.382 217.002 299.285 219.787C299.188 222.573 297.498 224.78 295.498 224.718C293.498 224.655 291.956 222.34 292.047 219.555Z" fill="black"/>
<path fill-rule="evenodd" clip-rule="evenodd" d="M336.176 254.276C336.176 254.276 327.892 263.967 322.341 267.273C316.547 270.728 309.403 273.014 306.049 272.166C302.696 271.318 292.273 263.461 292.273 263.461C292.273 263.461 305.399 277.677 314 278.135C321.421 278.531 335.724 263.266 335.724 263.266L336.176 254.276Z" fill="black"/>
<path d="M363.093 197.847C362.841 197.846 362.598 197.758 362.405 197.596C362.212 197.435 362.081 197.212 362.035 196.965C361.746 195.28 361.311 193.624 360.735 192.016C355.412 177.687 346.506 167.667 340.493 169.205C340.216 169.276 339.922 169.234 339.677 169.088C339.431 168.943 339.253 168.705 339.182 168.428C339.111 168.151 339.153 167.858 339.299 167.612C339.445 167.366 339.682 167.188 339.959 167.117C347.182 165.277 356.957 175.665 362.751 191.265C363.373 192.992 363.843 194.77 364.154 196.578C364.206 196.86 364.143 197.15 363.981 197.386C363.818 197.621 363.569 197.783 363.288 197.834C363.223 197.843 363.158 197.848 363.093 197.847Z" fill="black"/>
<path d="M363.378 216.826H363.24C363.098 216.81 362.962 216.765 362.838 216.695C362.714 216.626 362.605 216.532 362.517 216.42C362.43 216.308 362.365 216.179 362.328 216.042C362.29 215.905 362.28 215.762 362.298 215.62C362.861 211.248 362.994 206.83 362.693 202.432C362.673 202.147 362.767 201.867 362.954 201.651C363.14 201.436 363.405 201.303 363.689 201.282C363.973 201.265 364.253 201.36 364.469 201.547C364.684 201.733 364.818 201.997 364.841 202.281C365.151 206.821 365.014 211.38 364.433 215.894C364.398 216.15 364.273 216.385 364.079 216.556C363.885 216.728 363.636 216.823 363.378 216.826Z" fill="black"/>
<path d="M334.168 261.439C334.069 261.439 333.969 261.426 333.873 261.398C333.599 261.319 333.367 261.135 333.229 260.885C333.09 260.635 333.057 260.341 333.135 260.067C334.228 256.242 336.225 252.97 339.416 249.77C339.514 249.662 339.632 249.575 339.765 249.514C339.897 249.453 340.041 249.42 340.187 249.416C340.333 249.412 340.478 249.438 340.613 249.492C340.749 249.546 340.872 249.627 340.975 249.73C341.078 249.833 341.16 249.956 341.214 250.092C341.268 250.227 341.294 250.372 341.291 250.518C341.288 250.664 341.255 250.807 341.194 250.94C341.133 251.073 341.047 251.192 340.939 251.29C338.015 254.223 336.194 257.2 335.205 260.657C335.141 260.882 335.005 261.081 334.818 261.222C334.631 261.363 334.403 261.439 334.168 261.439Z" fill="black"/>
<path d="M273.844 231.431C273.562 231.43 273.291 231.319 273.091 231.121C272.89 230.923 272.775 230.655 272.77 230.373C272.619 221.794 276.754 217.781 283.603 211.133C291.171 203.788 295.9 196.456 300.073 189.984C302.272 186.596 304.322 183.39 306.608 180.45C309.704 176.469 312.575 174.591 315.341 174.66C318.902 174.767 321.603 178.036 323.779 181.22C323.922 181.456 323.97 181.737 323.912 182.007C323.853 182.277 323.694 182.514 323.466 182.67C323.238 182.825 322.958 182.887 322.686 182.843C322.413 182.799 322.168 182.652 322.001 182.432C319.386 178.607 317.313 176.874 315.275 176.811C313.237 176.748 310.951 178.381 308.307 181.772C306.081 184.639 304.043 187.802 301.882 191.152C297.646 197.718 292.848 205.164 285.104 212.675C278.237 219.345 274.789 222.692 274.921 230.335C274.925 230.621 274.816 230.896 274.618 231.102C274.419 231.307 274.148 231.425 273.862 231.431H273.844Z" fill="black"/>
<path d="M343.325 169.322C343.143 169.322 342.964 169.276 342.805 169.188C342.646 169.1 342.511 168.973 342.414 168.819C338.678 162.925 332.247 158.111 325.633 156.259C319.887 154.648 313.465 154.965 306.554 157.201C302.772 158.427 299.134 160.06 295.704 162.071C295.582 162.143 295.447 162.189 295.307 162.209C295.167 162.228 295.024 162.22 294.887 162.184C294.751 162.148 294.622 162.086 294.509 162.001C294.396 161.915 294.302 161.808 294.23 161.686C294.158 161.564 294.112 161.429 294.092 161.289C294.073 161.149 294.081 161.006 294.117 160.87C294.153 160.733 294.215 160.604 294.3 160.491C294.386 160.379 294.493 160.284 294.615 160.212C298.18 158.124 301.961 156.428 305.891 155.153C313.214 152.782 320.05 152.456 326.214 154.183C333.317 156.171 340.223 161.336 344.233 167.661C344.335 167.824 344.392 168.011 344.398 168.203C344.403 168.396 344.358 168.586 344.265 168.755C344.172 168.923 344.037 169.064 343.871 169.163C343.706 169.262 343.517 169.314 343.325 169.315V169.322Z" fill="black"/>
<path d="M272.391 269.801C272.198 269.801 272.009 269.75 271.843 269.652C271.678 269.555 271.541 269.415 271.448 269.246C271.354 269.078 271.308 268.888 271.313 268.695C271.318 268.503 271.375 268.316 271.477 268.153C271.552 268.04 278.552 256.565 271.448 243.822C270.224 241.624 269.059 239.649 267.994 237.825C262.433 228.404 259.073 222.699 261.168 209.745C262.807 199.631 269.103 183.311 281.462 170.606C281.665 170.417 281.932 170.313 282.209 170.316C282.486 170.318 282.751 170.428 282.95 170.621C283.148 170.814 283.264 171.076 283.275 171.353C283.285 171.63 283.188 171.9 283.004 172.107C270.984 184.454 264.87 200.284 263.284 210.078C261.315 222.265 264.339 227.399 269.838 236.723C270.921 238.56 272.092 240.547 273.329 242.767C279.11 253.13 276.419 262.525 274.554 266.827C278.008 265.314 283.975 261.423 284.135 252.558C284.141 252.276 284.256 252.008 284.458 251.81C284.659 251.612 284.93 251.501 285.212 251.5H285.231C285.372 251.503 285.512 251.533 285.641 251.589C285.771 251.646 285.889 251.727 285.987 251.829C286.085 251.931 286.162 252.051 286.214 252.183C286.266 252.314 286.291 252.455 286.289 252.596C286.057 266.542 272.764 269.735 272.629 269.767C272.551 269.786 272.471 269.797 272.391 269.801Z" fill="black"/>
<path d="M333.36 209.654C333.103 209.655 332.855 209.563 332.66 209.397C330.461 207.513 325.852 204.752 319.813 207.513C319.684 207.578 319.543 207.617 319.398 207.626C319.254 207.636 319.109 207.616 318.972 207.568C318.835 207.52 318.709 207.445 318.602 207.348C318.495 207.25 318.409 207.132 318.348 207.001C318.288 206.869 318.255 206.727 318.25 206.582C318.246 206.437 318.271 206.293 318.324 206.158C318.377 206.023 318.457 205.9 318.558 205.797C318.66 205.694 318.781 205.612 318.915 205.556C326.304 202.168 331.969 205.961 334.06 207.754C334.223 207.898 334.339 208.089 334.392 208.3C334.444 208.511 334.432 208.733 334.356 208.937C334.281 209.141 334.145 209.317 333.967 209.442C333.789 209.567 333.577 209.636 333.36 209.638V209.654Z" fill="black"/>
<path d="M343.775 214.474C343.612 214.474 343.45 214.437 343.304 214.365C343.157 214.293 343.028 214.189 342.928 214.06C342.818 213.922 332.015 200.03 326.781 188.552C326.716 188.423 326.679 188.282 326.67 188.137C326.661 187.993 326.682 187.848 326.73 187.712C326.778 187.576 326.854 187.451 326.951 187.344C327.049 187.238 327.167 187.152 327.299 187.092C327.43 187.032 327.573 186.999 327.717 186.996C327.862 186.992 328.006 187.017 328.14 187.07C328.275 187.123 328.397 187.203 328.5 187.304C328.603 187.406 328.685 187.527 328.74 187.66C333.871 198.908 344.516 212.597 344.623 212.735C344.747 212.894 344.824 213.084 344.845 213.285C344.866 213.485 344.831 213.688 344.742 213.869C344.654 214.05 344.516 214.203 344.346 214.31C344.175 214.417 343.977 214.474 343.775 214.474Z" fill="black"/>
<path d="M329.248 181.788C329.067 181.787 328.89 181.741 328.732 181.653C328.574 181.566 328.44 181.441 328.343 181.289C328.246 181.137 328.188 180.964 328.175 180.784C328.162 180.604 328.194 180.423 328.268 180.259C329.559 177.478 331.54 175.074 334.024 173.275C334.138 173.185 334.268 173.119 334.408 173.081C334.548 173.043 334.695 173.033 334.838 173.053C334.982 173.073 335.12 173.122 335.244 173.197C335.369 173.271 335.477 173.371 335.562 173.488C335.647 173.606 335.707 173.739 335.739 173.881C335.771 174.022 335.773 174.169 335.747 174.312C335.721 174.454 335.666 174.59 335.585 174.711C335.505 174.832 335.401 174.935 335.28 175.015C333.097 176.599 331.355 178.714 330.218 181.16C330.133 181.346 329.996 181.504 329.824 181.615C329.652 181.727 329.452 181.786 329.248 181.788Z" fill="black"/>
<path fill-rule="evenodd" clip-rule="evenodd" d="M321.312 220.698C321.403 217.913 323.096 215.705 325.099 215.768C327.103 215.831 328.648 218.145 328.554 220.931C328.459 223.716 326.77 225.923 324.767 225.858C322.763 225.792 321.221 223.484 321.312 220.698Z" fill="black"/>
<path fill-rule="evenodd" clip-rule="evenodd" d="M278.438 219.48C278.438 219.48 273.863 223.031 273.508 227.368C273.15 231.764 280.975 237.658 280.975 237.658L278.438 219.48Z" fill="black"/>
<path d="M351.085 258.958C350.855 258.958 350.631 258.885 350.446 258.748C350.261 258.612 350.124 258.42 350.056 258.2C349.988 257.98 349.992 257.744 350.068 257.527C350.143 257.31 350.286 257.122 350.476 256.992C351.549 256.242 352.547 255.389 353.456 254.446C358.396 249.387 357.278 243.163 356.169 239.9C356.093 239.634 356.121 239.349 356.25 239.103C356.378 238.857 356.596 238.671 356.859 238.582C357.121 238.493 357.408 238.508 357.659 238.625C357.91 238.742 358.107 238.951 358.207 239.21C359.464 242.937 360.738 250.068 354.995 255.95C353.99 256.998 352.885 257.944 351.695 258.776C351.515 258.897 351.302 258.961 351.085 258.958Z" fill="black"/>
<path d="M341.875 261.426H341.791C340.849 261.366 339.954 261.253 339.084 261.144C337.956 260.97 336.817 260.883 335.677 260.883C335.535 260.89 335.394 260.869 335.26 260.821C335.127 260.773 335.005 260.699 334.9 260.603C334.796 260.507 334.712 260.391 334.653 260.262C334.593 260.134 334.56 259.995 334.556 259.853C334.544 259.568 334.646 259.289 334.839 259.079C335.032 258.869 335.3 258.744 335.586 258.732C336.847 258.719 338.107 258.81 339.354 259.005C340.18 259.112 341.037 259.222 341.929 259.278C342.206 259.299 342.464 259.426 342.649 259.633C342.834 259.839 342.933 260.109 342.924 260.387C342.915 260.664 342.799 260.928 342.601 261.122C342.403 261.316 342.137 261.426 341.86 261.429L341.875 261.426Z" fill="black"/>
<path d="M350.171 257.671C349.988 257.668 349.808 257.619 349.649 257.527C349.49 257.436 349.357 257.305 349.263 257.148C349.169 256.991 349.116 256.812 349.11 256.629C349.104 256.445 349.145 256.264 349.229 256.1C350.516 253.686 351.069 250.024 350.708 246.306C350.687 246.162 350.695 246.015 350.733 245.874C350.77 245.733 350.836 245.601 350.926 245.486C351.016 245.371 351.128 245.276 351.256 245.206C351.384 245.136 351.525 245.092 351.67 245.078C351.815 245.064 351.962 245.08 352.101 245.124C352.24 245.168 352.368 245.24 352.478 245.336C352.589 245.431 352.679 245.548 352.742 245.679C352.806 245.811 352.843 245.953 352.85 246.099C353.251 250.219 352.608 254.339 351.132 257.112C351.037 257.283 350.898 257.425 350.729 257.524C350.559 257.622 350.367 257.673 350.171 257.671Z" fill="black"/>
<path d="M350.676 246.724C350.431 246.723 350.187 246.709 349.944 246.683C344.022 246.014 340.269 237.595 341.406 227.528C342.543 217.461 348.069 210.078 353.995 210.731C355.879 210.942 357.681 211.987 359.22 213.711C359.323 213.815 359.403 213.94 359.456 214.076C359.509 214.212 359.534 214.358 359.529 214.504C359.524 214.65 359.489 214.794 359.427 214.926C359.364 215.058 359.276 215.176 359.166 215.273C359.057 215.37 358.928 215.444 358.79 215.49C358.651 215.535 358.504 215.552 358.358 215.54C358.213 215.527 358.071 215.485 357.942 215.415C357.813 215.346 357.7 215.251 357.609 215.137C356.428 213.805 355.097 213.02 353.753 212.87C349.222 212.367 344.511 219.175 343.544 227.757C342.577 236.339 345.617 244.03 350.183 244.545C352.277 244.777 354.639 243.518 356.692 241.09C356.781 240.976 356.893 240.881 357.019 240.811C357.146 240.741 357.286 240.697 357.43 240.682C357.574 240.667 357.719 240.682 357.858 240.724C357.996 240.767 358.125 240.837 358.235 240.93C358.346 241.024 358.437 241.139 358.502 241.268C358.567 241.397 358.606 241.538 358.616 241.683C358.625 241.827 358.605 241.972 358.558 242.109C358.51 242.246 358.435 242.371 358.338 242.478C356.026 245.207 353.276 246.724 350.676 246.724Z" fill="black"/>
<path d="M347.313 248.332C346.223 248.331 345.153 248.036 344.217 247.477C339.456 244.651 337.343 235.102 338.046 227.478C338.765 219.687 343.629 210.065 349.458 208.715C349.733 208.659 350.018 208.713 350.255 208.864C350.491 209.016 350.658 209.254 350.722 209.527C350.785 209.8 350.739 210.088 350.594 210.328C350.449 210.568 350.216 210.742 349.944 210.813C345.548 211.827 340.91 219.866 340.191 227.676C339.563 234.48 341.34 243.279 345.313 245.625C346.917 246.567 348.738 246.325 350.889 244.868C351.126 244.722 351.409 244.673 351.68 244.731C351.952 244.789 352.19 244.95 352.346 245.179C352.502 245.409 352.564 245.69 352.517 245.964C352.471 246.237 352.321 246.483 352.098 246.648C350.268 247.895 348.657 248.332 347.313 248.332Z" fill="black"/>
<path fill-rule="evenodd" clip-rule="evenodd" d="M353.621 313.465L356.218 311.399L358.752 321.165C358.752 321.165 353.815 321.071 352.157 319.096C350.499 317.12 353.621 313.465 353.621 313.465Z" fill="black"/>
<path d="M380.167 471.027C379.888 471.026 379.62 470.918 379.419 470.724C379.218 470.53 379.1 470.266 379.09 469.987C378.735 458.997 378.148 451.774 377.658 446C377.049 438.689 376.65 433.86 377.209 426.976C377.856 418.991 378.744 411.429 379.457 405.356L379.702 403.262C379.741 402.981 379.886 402.726 380.109 402.55C380.331 402.374 380.613 402.292 380.895 402.32C381.179 402.354 381.437 402.499 381.613 402.724C381.79 402.948 381.87 403.233 381.837 403.516L381.592 405.607C380.88 411.668 379.997 419.208 379.35 427.152C378.804 433.863 379.2 438.62 379.799 445.824C380.28 451.639 380.883 458.874 381.241 469.918C381.245 470.06 381.222 470.201 381.172 470.333C381.122 470.466 381.047 470.587 380.95 470.69C380.853 470.793 380.737 470.876 380.608 470.935C380.479 470.993 380.34 471.025 380.198 471.03L380.167 471.027Z" fill="black"/>
<path d="M187.676 93.5775C187.436 93.577 187.203 93.4962 187.014 93.348C186.825 93.1997 186.691 92.9926 186.633 92.7594C186.575 92.5262 186.597 92.2805 186.695 92.0611C186.793 91.8418 186.962 91.6616 187.174 91.549C187.287 91.4893 198.538 85.5261 204.759 80.5772C209.051 77.1513 210.958 74.1744 211.695 72.755C196.139 65.6896 187.243 55.079 187.243 43.5325C187.243 23.0743 215.922 6.42822 251.174 6.42822C286.425 6.42822 315.108 23.0712 315.108 43.5325C315.108 63.9939 286.429 80.64 251.174 80.64C246.801 80.6421 242.431 80.3831 238.089 79.8644C237.702 79.9931 236.622 80.4296 235.482 80.8881C231.042 82.678 222.777 86.0129 213.771 88.4685C201.254 91.8818 187.959 93.5524 187.824 93.5713L187.676 93.5775ZM251.158 8.57925C217.093 8.57925 189.378 24.2581 189.378 43.5325C189.378 54.429 198.171 64.5246 213.536 71.2258C213.781 71.3328 213.977 71.527 214.087 71.7708C214.196 72.0145 214.211 72.2903 214.129 72.5446C214.069 72.7236 212.619 77.0445 206.084 82.2603C202.432 85.1744 197.226 88.3523 193.363 90.5755C200.039 89.5154 206.656 88.1184 213.19 86.3897C222.074 83.9686 230.263 80.6651 234.663 78.8909C237.511 77.7416 237.74 77.6568 238.151 77.7071C242.467 78.2286 246.811 78.4887 251.158 78.4858C285.226 78.4858 312.941 62.8069 312.941 43.5325C312.941 24.2581 285.226 8.57925 251.158 8.57925Z" fill="black"/>
<path d="M151.78 278.025C114.026 278.025 83.3242 260.569 83.3242 239.112C83.3242 217.655 114.038 200.196 151.78 200.196C185.474 200.196 214.546 214.412 219.495 233.281C219.853 233.909 222.852 238.723 232.95 242.042C248.629 247.195 262.986 244.758 263.131 244.733C263.394 244.687 263.664 244.74 263.89 244.882C264.117 245.024 264.282 245.245 264.354 245.502C264.426 245.759 264.401 246.034 264.282 246.273C264.163 246.512 263.96 246.699 263.712 246.796C263.181 247.003 250.564 251.886 235.183 251.478C226.077 251.227 220.424 249.469 218.207 248.63C210.611 265.992 183.556 278.025 151.78 278.025ZM151.78 202.347C115.213 202.347 85.4627 218.839 85.4627 239.109C85.4627 259.379 115.213 275.871 151.78 275.871C182.805 275.871 210.074 263.656 216.618 246.831C216.672 246.692 216.754 246.566 216.859 246.461C216.964 246.355 217.089 246.272 217.228 246.218C217.366 246.163 217.514 246.138 217.663 246.143C217.811 246.149 217.957 246.185 218.091 246.25C218.148 246.278 223.982 249.013 235.243 249.324C241.358 249.444 247.466 248.832 253.437 247.503C246.251 247.444 239.117 246.29 232.278 244.083C220.515 240.218 217.63 234.377 217.52 234.132C217.49 234.069 217.465 234.004 217.447 233.937C212.822 215.931 184.595 202.35 151.78 202.35V202.347Z" fill="black"/>
<path d="M84.6089 245.584C84.4848 245.583 84.3618 245.562 84.2447 245.521C33.8574 227.415 0 179.6 0 126.549C0 56.7653 57.3836 0.000285311 127.918 0.000285311C153.354 -0.0533565 178.23 7.45809 199.385 21.5796C199.511 21.6542 199.62 21.7536 199.707 21.8718C199.793 21.99 199.854 22.1244 199.886 22.267C199.919 22.4096 199.922 22.5572 199.895 22.701C199.869 22.8448 199.813 22.9817 199.732 23.1033C199.651 23.225 199.546 23.3289 199.423 23.4086C199.301 23.4884 199.163 23.5423 199.019 23.5672C198.875 23.5921 198.728 23.5874 198.585 23.5534C198.443 23.5194 198.309 23.4568 198.192 23.3695C177.39 9.48404 152.929 2.09829 127.918 2.15131C58.5706 2.15131 2.15416 57.9585 2.15416 126.556C2.15416 178.714 35.44 225.719 84.9763 243.515C85.2154 243.6 85.4167 243.767 85.5445 243.987C85.6724 244.206 85.7186 244.464 85.675 244.714C85.6314 244.964 85.5009 245.191 85.3064 245.354C85.1119 245.517 84.866 245.606 84.612 245.606L84.6089 245.584Z" fill="black"/>
<path d="M211.497 222.011C211.279 222.009 211.067 221.941 210.889 221.816C210.71 221.691 210.574 221.515 210.498 221.31C210.422 221.106 210.409 220.884 210.462 220.673C210.515 220.461 210.63 220.271 210.793 220.127C238.05 196.487 253.682 162.379 253.682 126.549C253.682 109.677 250.451 92.7454 244.82 80.0748C244.718 79.8166 244.72 79.529 244.825 79.272C244.93 79.015 245.13 78.8085 245.384 78.6955C245.637 78.5825 245.925 78.5717 246.186 78.6655C246.447 78.7592 246.662 78.9502 246.786 79.1987C252.536 92.1205 255.833 109.373 255.833 126.534C255.833 162.985 239.931 197.684 212.203 221.734C212.009 221.909 211.758 222.007 211.497 222.011Z" fill="black"/>
<path d="M191.332 236.085H111.675C111.389 236.085 111.115 235.971 110.913 235.769C110.711 235.567 110.598 235.294 110.598 235.008C110.598 234.722 110.711 234.448 110.913 234.246C111.115 234.044 111.389 233.931 111.675 233.931H191.332C191.617 233.931 191.891 234.044 192.093 234.246C192.295 234.448 192.409 234.722 192.409 235.008C192.409 235.294 192.295 235.567 192.093 235.769C191.891 235.971 191.617 236.085 191.332 236.085Z" fill="black"/>
<path d="M191.332 224.815H111.675C111.389 224.815 111.115 224.701 110.913 224.499C110.711 224.297 110.598 224.024 110.598 223.738C110.598 223.452 110.711 223.178 110.913 222.976C111.115 222.774 111.389 222.661 111.675 222.661H191.332C191.617 222.661 191.891 222.774 192.093 222.976C192.295 223.178 192.409 223.452 192.409 223.738C192.409 224.024 192.295 224.297 192.093 224.499C191.891 224.701 191.617 224.815 191.332 224.815Z" fill="black"/>
<path d="M191.471 258.361H111.811C111.526 258.361 111.252 258.248 111.05 258.046C110.848 257.844 110.734 257.57 110.734 257.284C110.734 256.999 110.848 256.725 111.05 256.523C111.252 256.321 111.526 256.207 111.811 256.207H191.471C191.757 256.207 192.031 256.321 192.233 256.523C192.435 256.725 192.549 256.999 192.549 257.284C192.549 257.57 192.435 257.844 192.233 258.046C192.031 258.248 191.757 258.361 191.471 258.361Z" fill="black"/>
<path d="M191.472 247.088H111.812C111.537 247.073 111.278 246.954 111.088 246.754C110.899 246.553 110.793 246.288 110.793 246.013C110.793 245.737 110.899 245.472 111.088 245.272C111.278 245.072 111.537 244.952 111.812 244.937H191.472C191.618 244.929 191.764 244.951 191.902 245.002C192.039 245.052 192.165 245.13 192.271 245.231C192.377 245.331 192.462 245.453 192.519 245.587C192.577 245.722 192.607 245.866 192.607 246.013C192.607 246.159 192.577 246.304 192.519 246.438C192.462 246.573 192.377 246.694 192.271 246.795C192.165 246.895 192.039 246.973 191.902 247.024C191.764 247.074 191.618 247.096 191.472 247.088Z" fill="black"/>
<path d="M291.014 43.9785H211.354C211.069 43.9785 210.795 43.865 210.593 43.663C210.391 43.461 210.277 43.1871 210.277 42.9014C210.277 42.6158 210.391 42.3418 210.593 42.1398C210.795 41.9378 211.069 41.8243 211.354 41.8243H291.014C291.3 41.8243 291.574 41.9378 291.776 42.1398C291.978 42.3418 292.092 42.6158 292.092 42.9014C292.092 43.1871 291.978 43.461 291.776 43.663C291.574 43.865 291.3 43.9785 291.014 43.9785Z" fill="black"/>
<path d="M291.014 32.7084H211.354C211.069 32.7084 210.795 32.5949 210.593 32.3929C210.391 32.1909 210.277 31.9169 210.277 31.6313C210.277 31.3456 210.391 31.0717 210.593 30.8697C210.795 30.6677 211.069 30.5542 211.354 30.5542H291.014C291.3 30.5542 291.574 30.6677 291.776 30.8697C291.978 31.0717 292.092 31.3456 292.092 31.6313C292.092 31.9169 291.978 32.1909 291.776 32.3929C291.574 32.5949 291.3 32.7084 291.014 32.7084Z" fill="black"/>
<path d="M291.155 54.9847H211.495C211.209 54.9847 210.935 54.8712 210.733 54.6693C210.531 54.4673 210.418 54.1933 210.418 53.9077C210.418 53.622 210.531 53.348 210.733 53.146C210.935 52.944 211.209 52.8306 211.495 52.8306H291.155C291.441 52.8306 291.715 52.944 291.917 53.146C292.119 53.348 292.232 53.622 292.232 53.9077C292.232 54.1933 292.119 54.4673 291.917 54.6693C291.715 54.8712 291.441 54.9847 291.155 54.9847Z" fill="black"/>
<path d="M70.8837 238.735C70.8231 238.74 70.7622 238.74 70.7016 238.735C70.561 238.712 70.4265 238.66 70.3059 238.584C70.1854 238.507 70.0812 238.408 69.9994 238.291C69.9176 238.174 69.8598 238.042 69.8294 237.903C69.799 237.764 69.7966 237.62 69.8223 237.479C71.2354 229.161 71.964 222.271 72.6077 216.192C73.8072 204.887 74.7556 195.935 79.4376 185.761C79.5633 185.512 79.7805 185.322 80.0435 185.23C80.3065 185.138 80.5949 185.152 80.8481 185.268C81.1013 185.384 81.2997 185.594 81.4014 185.853C81.5032 186.113 81.5005 186.401 81.3939 186.659C76.8595 196.516 75.9739 204.872 74.7493 216.418C74.1024 222.529 73.3676 229.453 71.942 237.837C71.8997 238.088 71.7704 238.315 71.5768 238.48C71.3831 238.644 71.1377 238.734 70.8837 238.735Z" fill="black"/>
<path d="M83.8603 169.808C83.604 169.808 83.3563 169.716 83.1618 169.549C82.9672 169.382 82.8386 169.151 82.799 168.898C80.9996 157.351 76.1135 147.117 70.3482 142.834C70.1323 142.659 69.9923 142.408 69.9576 142.132C69.923 141.856 69.9962 141.578 70.162 141.355C70.3278 141.132 70.5734 140.982 70.8475 140.935C71.1215 140.889 71.4028 140.951 71.6325 141.107C77.8281 145.704 83.0376 156.491 84.9217 168.568C84.9436 168.708 84.9377 168.85 84.9044 168.988C84.8711 169.125 84.811 169.254 84.7275 169.368C84.6441 169.482 84.539 169.579 84.4182 169.652C84.2974 169.726 84.1633 169.774 84.0236 169.796C83.9696 169.804 83.915 169.809 83.8603 169.808Z" fill="black"/>
<path d="M35.7521 212.92C35.6543 212.92 35.5571 212.906 35.4632 212.879C35.3268 212.841 35.1993 212.776 35.088 212.689C34.9766 212.602 34.8836 212.493 34.8142 212.37C34.7447 212.247 34.7003 212.111 34.6835 211.97C34.6666 211.83 34.6776 211.687 34.7158 211.551C36.0567 206.778 37.6864 201.377 39.4104 195.655C40.7512 191.212 42.1737 186.505 43.6119 181.581C49.7007 160.765 54.9166 145.39 60.5406 138.027C66.4881 130.245 78.5338 126.983 88.2118 124.364C94.8062 122.58 101.011 120.91 102.71 118.369C107.467 111.307 105.037 92.7297 105.012 92.5444C104.985 92.4008 104.987 92.2531 105.019 92.1105C105.051 91.9679 105.112 91.8332 105.198 91.7148C105.283 91.5964 105.392 91.4966 105.518 91.4216C105.643 91.3466 105.782 91.2979 105.927 91.2785C106.072 91.259 106.22 91.2693 106.36 91.3087C106.501 91.348 106.632 91.4156 106.746 91.5073C106.86 91.599 106.954 91.7129 107.022 91.8421C107.091 91.9712 107.132 92.113 107.144 92.2587C107.251 93.0531 109.706 111.838 104.497 119.578C102.346 122.769 96.3575 124.392 88.7739 126.446C79.4099 128.983 67.7567 132.139 62.2489 139.339C56.8195 146.439 51.6979 161.606 45.6782 182.19C44.2368 187.12 42.8143 191.837 41.4703 196.283C39.7495 201.992 38.1229 207.384 36.7883 212.141C36.7236 212.366 36.5874 212.563 36.4005 212.704C36.2135 212.844 35.9859 212.92 35.7521 212.92Z" fill="black"/>
<path d="M80.1118 243.424C79.832 243.424 79.5632 243.315 79.3621 243.12C79.1611 242.926 79.0437 242.661 79.0347 242.381C78.8965 237.759 79.3079 233.275 79.7067 228.935C80.1652 223.911 80.6016 219.137 79.961 215.448C79.5183 212.91 78.9154 210.053 78.2748 207.029C77.4709 203.226 76.6387 199.292 76.0955 195.793C76.0671 195.517 76.1464 195.241 76.3167 195.022C76.487 194.803 76.7353 194.658 77.0098 194.618C77.2843 194.577 77.5638 194.644 77.7901 194.805C78.0164 194.965 78.172 195.207 78.2245 195.479C78.7552 198.918 79.5811 202.824 80.3787 206.599C81.0256 209.645 81.6348 212.518 82.0807 215.077C82.7715 219.053 82.3225 223.948 81.8483 229.133C81.4589 233.406 81.0538 237.825 81.1857 242.321C81.1942 242.607 81.0891 242.883 80.8937 243.091C80.6982 243.299 80.4283 243.421 80.1432 243.43L80.1118 243.424Z" fill="black"/>
<path d="M176.632 204.661C176.548 204.662 176.464 204.651 176.383 204.63C176.246 204.597 176.116 204.538 176.002 204.456C175.888 204.373 175.79 204.269 175.716 204.148C175.642 204.028 175.593 203.895 175.57 203.755C175.548 203.616 175.553 203.474 175.586 203.336C176.503 199.461 177.426 194.387 176.427 189.519C176.01 187.497 175.485 185.324 174.917 183.026C173.18 175.91 171.208 167.846 172.047 161.28C172.059 161.135 172.1 160.994 172.168 160.866C172.237 160.738 172.33 160.625 172.443 160.533C172.556 160.442 172.686 160.375 172.825 160.335C172.965 160.295 173.111 160.284 173.255 160.302C173.399 160.32 173.538 160.368 173.663 160.441C173.789 160.514 173.898 160.612 173.985 160.728C174.071 160.845 174.133 160.978 174.167 161.119C174.201 161.26 174.206 161.407 174.182 161.55C173.394 167.72 175.316 175.58 177.008 182.514C177.577 184.834 178.111 187.023 178.534 189.086C179.621 194.371 178.647 199.763 177.68 203.845C177.621 204.078 177.486 204.285 177.296 204.433C177.106 204.581 176.872 204.661 176.632 204.661Z" fill="black"/>
<path d="M196.115 211.67C195.858 211.67 195.61 211.578 195.415 211.41C195.221 211.242 195.092 211.011 195.054 210.756C193.798 202.542 192.718 194.465 191.707 185.349C189.251 163.258 184.669 145.993 179.46 139.167C173.958 131.976 163.643 129.357 155.356 127.253C148.865 125.604 143.26 124.182 141.118 120.972C138.229 116.639 139.08 109.872 139.118 109.586C139.161 109.308 139.311 109.059 139.536 108.89C139.761 108.721 140.043 108.647 140.322 108.684C140.601 108.72 140.854 108.864 141.028 109.085C141.202 109.306 141.283 109.586 141.253 109.866C141.253 109.928 140.471 116.124 142.911 119.779C144.595 122.291 149.82 123.632 155.883 125.171C164.497 127.369 175.214 130.079 181.168 137.867C186.698 145.089 191.32 162.319 193.854 185.117C194.866 194.205 195.924 202.25 197.189 210.436C197.211 210.576 197.205 210.718 197.172 210.856C197.139 210.993 197.079 211.122 196.995 211.236C196.912 211.35 196.807 211.447 196.686 211.52C196.565 211.594 196.431 211.642 196.291 211.664C196.233 211.669 196.174 211.671 196.115 211.67Z" fill="black"/>
<path d="M105.776 89.2911H105.71C98.6882 88.8672 94.8321 82.8443 95.1555 77.2642C95.3094 74.6547 96.6032 72.5069 98.7008 71.3701C99.8357 70.7894 101.099 70.505 102.373 70.5435C103.647 70.5819 104.891 70.9419 105.989 71.5899C106.229 71.7357 106.403 71.9696 106.473 72.2417C106.544 72.5138 106.505 72.8026 106.365 73.0464C106.225 73.2902 105.996 73.4698 105.726 73.5467C105.455 73.6237 105.166 73.592 104.918 73.4583C104.139 72.9903 103.255 72.727 102.346 72.6929C101.438 72.6589 100.536 72.8552 99.7245 73.2636C98.2737 74.0487 97.4165 75.5152 97.3066 77.393C97.0459 81.852 99.9474 86.7884 105.838 87.1432C106.115 87.1639 106.373 87.2903 106.558 87.4962C106.744 87.7021 106.843 87.9717 106.835 88.2487C106.827 88.5258 106.712 88.7891 106.515 88.9838C106.318 89.1786 106.053 89.2897 105.776 89.2942V89.2911Z" fill="black"/>
<path d="M103.881 82.0216C103.668 82.022 103.459 81.9589 103.282 81.8404C103.105 81.7218 102.967 81.5532 102.886 81.3559C102.443 80.2851 101.859 79.7418 100.65 79.2834C100.393 79.1749 100.189 78.9711 100.079 78.7149C99.9694 78.4588 99.9634 78.1701 100.062 77.9095C100.161 77.649 100.357 77.4368 100.609 77.3177C100.861 77.1985 101.149 77.1816 101.413 77.2705C103.171 77.9394 104.208 78.9128 104.867 80.5363C104.921 80.6668 104.949 80.8067 104.949 80.9479C104.948 81.0891 104.92 81.2289 104.866 81.3593C104.812 81.4897 104.733 81.6081 104.632 81.7077C104.532 81.8073 104.414 81.8863 104.283 81.94C104.156 81.9933 104.019 82.021 103.881 82.0216Z" fill="black"/>
<path d="M138.094 110.535C132.755 110.535 121.856 106.019 114.25 99.478C114.043 99.2892 113.918 99.0271 113.9 98.7473C113.883 98.4675 113.976 98.1921 114.159 97.9795C114.341 97.767 114.6 97.634 114.879 97.6089C115.158 97.5838 115.436 97.6685 115.654 97.8451C123.715 104.779 134.63 108.716 138.599 108.362C144.217 107.875 150.749 98.2187 152.416 90.5504C153.229 86.8011 153.22 83.9215 153.21 80.2758C153.21 78.5581 153.21 76.6112 153.289 74.388C153.358 72.6703 153.575 70.8929 153.807 69.012C154.369 64.4273 154.95 59.6888 153.355 55.5689C153.297 55.4358 153.266 55.2924 153.265 55.1473C153.264 55.0022 153.292 54.8584 153.348 54.7244C153.404 54.5905 153.486 54.4692 153.59 54.3679C153.694 54.2665 153.817 54.1872 153.953 54.1347C154.088 54.0822 154.232 54.0576 154.378 54.0623C154.523 54.0671 154.665 54.1011 154.797 54.1623C154.928 54.2235 155.046 54.3107 155.143 54.4185C155.24 54.5264 155.314 54.6528 155.361 54.7901C157.151 59.4156 156.511 64.6534 155.942 69.2726C155.716 71.1096 155.506 72.843 155.44 74.4759C155.352 76.6489 155.355 78.489 155.361 80.2695C155.361 83.8964 155.383 87.0303 154.52 91.0058C152.846 98.7243 146.041 109.878 138.788 110.506C138.565 110.535 138.335 110.535 138.094 110.535Z" fill="black"/>
<path d="M139.936 85.2153C139.705 85.2147 139.479 85.1394 139.294 85.0006C139.108 84.8618 138.972 84.6668 138.906 84.4447C138.84 84.2225 138.848 83.985 138.928 83.7675C139.007 83.5499 139.155 83.3639 139.349 83.237C141.44 81.8741 141.82 81.1299 141.861 80.8065C141.912 80.4045 141.384 79.8299 140.825 79.2207C140.475 78.8525 140.144 78.4668 139.833 78.0651C137.264 74.6454 139.494 70.1738 140.225 68.7042C140.288 68.5776 140.376 68.4647 140.482 68.3719C140.589 68.2791 140.713 68.2082 140.847 68.1633C140.981 68.1184 141.123 68.1003 141.264 68.1102C141.405 68.12 141.543 68.1575 141.67 68.2206C141.796 68.2837 141.909 68.3711 142.002 68.4779C142.095 68.5846 142.166 68.7086 142.211 68.8427C142.256 68.9768 142.274 69.1185 142.264 69.2596C142.254 69.4007 142.216 69.5385 142.153 69.6651C140.558 72.8618 140.363 75.1855 141.554 76.7713C141.82 77.1262 142.122 77.4528 142.408 77.7636C143.237 78.6649 144.172 79.6823 143.997 81.0734C143.836 82.3546 142.766 83.5855 140.524 85.0394C140.349 85.1542 140.145 85.2153 139.936 85.2153Z" fill="black"/>
<path fill-rule="evenodd" clip-rule="evenodd" d="M127.344 72.5006C127.169 70.5632 128.161 68.8109 129.561 68.5848C130.962 68.3588 132.24 69.7436 132.416 71.6779C132.592 73.6123 131.602 75.3676 130.199 75.5937C128.795 75.8198 127.52 74.4224 127.344 72.5006Z" fill="black"/>
<path d="M145.342 63.0141C145.117 63.0146 144.898 62.9444 144.715 62.8136C144.532 62.6827 144.395 62.4977 144.322 62.2848C144.25 62.0718 144.247 61.8415 144.312 61.6265C144.378 61.4114 144.51 61.2224 144.689 61.0861C145.9 60.2142 147.351 59.7365 148.844 59.718C150.337 59.6994 151.799 60.1409 153.032 60.9824C153.258 61.1465 153.412 61.3922 153.46 61.6674C153.509 61.9427 153.448 62.226 153.292 62.4575C153.135 62.689 152.895 62.8507 152.621 62.9082C152.348 62.9658 152.063 62.9148 151.826 62.7661C148.821 60.7406 146.102 62.7158 145.989 62.8006C145.802 62.9397 145.575 63.0146 145.342 63.0141Z" fill="black"/>
<path d="M125.023 63.4695C124.781 63.4695 124.546 63.3884 124.357 63.239C124.167 63.0897 124.032 62.8808 123.976 62.646C123.919 62.4112 123.942 62.1641 124.043 61.9444C124.143 61.7247 124.315 61.5452 124.53 61.4346C130.474 58.3855 135.348 60.7218 135.552 60.8223C135.787 60.9588 135.963 61.1796 136.042 61.4402C136.122 61.7007 136.099 61.9818 135.98 62.2266C135.861 62.4714 135.653 62.6619 135.398 62.7597C135.144 62.8575 134.862 62.8553 134.61 62.7535C134.437 62.6719 130.461 60.8129 125.503 63.3501C125.355 63.4275 125.19 63.4684 125.023 63.4695Z" fill="black"/>
<path d="M199.126 181.411C196.868 181.411 193.298 180.598 190.767 176.114C190.627 175.864 190.591 175.569 190.669 175.293C190.746 175.017 190.93 174.783 191.18 174.643C191.43 174.502 191.725 174.467 192.001 174.545C192.277 174.622 192.511 174.806 192.651 175.056C194.117 177.659 195.958 178.708 197.503 179.091C195.339 177.065 193.521 173.781 194.724 169.309C195.169 167.648 196.08 165.808 197.044 163.861C199.242 159.402 201.754 154.346 199.22 150.223C197.455 147.353 195.534 145.56 193.672 143.827C190.431 140.809 187.369 137.958 186.066 130.352C185.363 126.248 185.438 122.521 185.498 118.919C185.617 112.255 185.724 106.499 180.979 100.106C178.335 96.5419 175.49 94.1931 172.981 92.1205C168.296 88.255 164.254 84.917 163.83 75.9706C163.626 71.7125 164.694 67.9004 165.636 64.5404C166.625 61.0108 167.479 57.9617 166.688 55.2674C165.039 49.6654 159.959 43.878 152.375 38.9636C152.149 38.8027 151.993 38.5606 151.941 38.2878C151.889 38.0149 151.944 37.7325 152.095 37.4995C152.247 37.2664 152.482 37.1008 152.752 37.0372C153.023 36.9736 153.307 37.0169 153.546 37.158C161.56 42.3519 166.961 48.5663 168.754 54.6582C169.721 57.9491 168.754 61.4316 167.709 65.1213C166.767 68.4844 165.793 71.9575 165.978 75.8701C166.358 83.8619 169.709 86.6315 174.35 90.4625C176.956 92.6104 179.908 95.0503 182.709 98.8248C187.891 105.805 187.771 112.196 187.649 118.96C187.586 122.461 187.52 126.082 188.189 129.988C189.37 136.877 192.042 139.368 195.138 142.235C197.022 143.984 199.135 145.959 201.054 149.08C204.194 154.218 201.305 160.087 198.972 164.8C198.058 166.649 197.192 168.395 196.802 169.852C195.066 176.309 201.114 179.006 201.374 179.116C201.576 179.203 201.746 179.35 201.862 179.537C201.977 179.724 202.033 179.942 202.021 180.161C202.01 180.38 201.931 180.591 201.797 180.765C201.662 180.938 201.477 181.066 201.268 181.132C200.57 181.322 199.849 181.416 199.126 181.411Z" fill="black"/>
<path d="M110.987 73.7473C110.39 73.7473 109.778 73.7191 109.14 73.6563C108.999 73.6425 108.863 73.601 108.738 73.5344C108.613 73.4677 108.503 73.3771 108.413 73.2678C108.323 73.1584 108.256 73.0325 108.214 72.8971C108.173 72.7617 108.159 72.6195 108.173 72.4787C108.187 72.3379 108.228 72.2011 108.295 72.0763C108.362 71.9515 108.452 71.841 108.562 71.7512C108.671 71.6614 108.797 71.594 108.932 71.5529C109.068 71.5118 109.21 71.4977 109.351 71.5115C119.641 72.5258 123.507 63.7019 127.62 54.363C129.124 50.9528 130.679 47.4232 132.563 44.4495C135.232 40.2385 137.995 39.7392 139.842 40.0878C143.899 40.8226 146.64 45.8186 147.14 48.2051C147.169 48.3433 147.17 48.4858 147.144 48.6246C147.118 48.7633 147.065 48.8956 146.988 49.0138C146.911 49.1321 146.811 49.234 146.695 49.3137C146.578 49.3934 146.447 49.4494 146.309 49.4785C146.171 49.5076 146.028 49.5091 145.89 49.4831C145.751 49.4571 145.619 49.404 145.5 49.3269C145.382 49.2498 145.28 49.1501 145.2 49.0336C145.121 48.9171 145.065 48.7861 145.036 48.6479C144.631 46.7293 142.297 42.7193 139.459 42.2074C137.713 41.8934 136.005 43.0364 134.381 45.6019C132.582 48.4281 131.062 51.8823 129.592 55.2329C125.579 64.3425 121.434 73.7473 110.987 73.7473Z" fill="black"/>
<path d="M158.088 77.2078C157.931 77.208 157.777 77.1737 157.635 77.1073C157.377 76.9872 157.176 76.7693 157.078 76.5014C156.979 76.2335 156.991 75.9376 157.111 75.6785C159.419 70.6699 158.006 64.1729 155.911 59.761C154.005 55.7478 151.33 52.8714 148.928 52.2497C148.791 52.2144 148.663 52.1526 148.55 52.0677C148.437 51.9828 148.342 51.8765 148.27 51.7549C148.198 51.6333 148.151 51.4988 148.132 51.359C148.112 51.2192 148.12 51.0769 148.155 50.9402C148.19 50.8035 148.252 50.6751 148.337 50.5623C148.422 50.4495 148.528 50.3545 148.65 50.2828C148.771 50.211 148.906 50.164 149.046 50.1442C149.186 50.1245 149.328 50.1325 149.465 50.1677C152.514 50.9528 155.651 54.1966 157.855 58.8409C160.157 63.6893 161.686 70.896 159.064 76.5798C158.978 76.7668 158.841 76.9253 158.668 77.0366C158.495 77.1479 158.293 77.2073 158.088 77.2078Z" fill="black"/>
<path d="M51.1117 161.584C50.8878 161.584 50.6694 161.514 50.4871 161.384C50.3047 161.254 50.1674 161.071 50.0943 160.859C45.0386 146.128 52.1385 139.126 58.4001 132.946C61.4115 129.978 64.2534 127.174 65.6382 123.723C68.1503 117.468 67.5662 112.915 67.0104 108.515C66.5991 105.275 66.2128 102.213 67.0827 98.7808C69.0107 91.1408 74.5092 86.4745 78.5223 83.0799C80.0579 81.7736 81.3862 80.6463 82.1838 79.6257C86.2377 74.4821 87.1515 70.0168 88.5363 63.2591C88.9163 61.3907 89.3339 59.3622 89.8552 57.1169C90.7596 53.2357 93.8307 43.4446 102.79 36.351C105.964 33.8388 117.58 25.8942 133.767 29.2133C133.912 29.2352 134.051 29.2863 134.175 29.3634C134.299 29.4406 134.406 29.5423 134.49 29.6622C134.574 29.7822 134.632 29.9179 134.661 30.0611C134.691 30.2043 134.691 30.3521 134.661 30.4953C134.632 30.6385 134.574 30.7743 134.49 30.8942C134.406 31.0142 134.299 31.1159 134.175 31.1931C134.051 31.2703 133.912 31.3214 133.768 31.3433C133.623 31.3652 133.476 31.3574 133.334 31.3204C128.27 30.2762 123.039 30.3357 118 31.4948C112.96 32.6539 108.23 34.8853 104.13 38.0372C95.7054 44.7101 92.8258 53.9454 91.9591 57.6037C91.441 59.8301 91.0171 61.8398 90.6497 63.6893C89.2586 70.4972 88.2537 75.4148 83.8795 80.9603C82.9374 82.141 81.5463 83.3311 79.9228 84.7097C75.916 88.1105 70.9356 92.3372 69.174 99.3115C68.4078 102.357 68.7689 105.224 69.152 108.255C69.7141 112.714 70.3547 117.763 67.6416 124.533C66.0903 128.402 63.0915 131.36 59.9199 134.491C53.8217 140.504 47.5194 146.738 52.1354 160.171C52.1815 160.305 52.2007 160.447 52.192 160.588C52.1833 160.729 52.1468 160.867 52.0847 160.994C52.0226 161.122 51.936 161.235 51.83 161.329C51.7239 161.423 51.6004 161.494 51.4666 161.54C51.3514 161.574 51.2316 161.589 51.1117 161.584Z" fill="black"/>
<path fill-rule="evenodd" clip-rule="evenodd" d="M139.95 109.379L140.264 113.91C140.264 113.91 136.122 117.016 130.168 114.362C121.951 110.698 115.695 99.5439 115.695 99.5439C115.695 99.5439 123.332 104.983 128.382 106.857C133.431 108.732 139.95 109.379 139.95 109.379Z" fill="black"/>
<path fill-rule="evenodd" clip-rule="evenodd" d="M155.773 57.7795C155.773 57.7795 155.339 64.4807 154.652 69.9917C153.964 75.5027 154.689 75.1636 154.689 75.1636C154.689 75.1636 158.85 73.0063 159.177 68.3086C159.503 63.6108 155.773 57.7795 155.773 57.7795Z" fill="black"/>
<path fill-rule="evenodd" clip-rule="evenodd" d="M145.979 72.6263C145.822 70.692 146.723 68.9366 147.992 68.7105C149.26 68.4844 150.419 69.8661 150.579 71.8004C150.739 73.7348 149.835 75.4901 148.566 75.7194C147.298 75.9486 146.139 74.5607 145.979 72.6263Z" fill="black"/>
<path d="M174.488 133.602C174.365 133.602 174.243 133.582 174.127 133.543C173.858 133.447 173.638 133.248 173.516 132.99C173.393 132.732 173.378 132.436 173.474 132.167C177.364 121.255 172.795 116.758 168.763 112.789C168.091 112.13 167.441 111.486 166.848 110.839C161.899 105.441 159.773 99.2015 160.345 91.7687C160.366 91.4843 160.5 91.2202 160.716 91.0344C160.933 90.8486 161.214 90.7564 161.499 90.778C161.783 90.7997 162.047 90.9334 162.233 91.1498C162.419 91.3663 162.511 91.6476 162.489 91.932C161.959 98.8404 163.849 104.383 168.434 109.385C169.005 110.013 169.63 110.622 170.274 111.269C174.544 115.471 179.858 120.69 175.505 132.902C175.428 133.109 175.289 133.287 175.107 133.412C174.925 133.538 174.709 133.604 174.488 133.602Z" fill="black"/>
<path d="M83.9042 127.382C83.6458 127.38 83.3966 127.286 83.2014 127.117C83.0062 126.947 82.8779 126.714 82.8397 126.458C81.9353 120.122 84.8117 116.595 88.4512 112.136C89.2268 111.194 90.0433 110.183 90.8754 109.093C95.4287 103.111 96.0661 100.175 94.6719 91.6307C94.649 91.4911 94.6538 91.3484 94.6861 91.2107C94.7184 91.0729 94.7775 90.9429 94.86 90.828C94.9425 90.7131 95.0468 90.6156 95.1671 90.5411C95.2873 90.4665 95.421 90.4164 95.5606 90.3935C95.7001 90.3706 95.8429 90.3754 95.9806 90.4077C96.1183 90.44 96.2483 90.499 96.3632 90.5816C96.4781 90.6641 96.5756 90.7684 96.6502 90.8886C96.7247 91.0088 96.7749 91.1426 96.7978 91.2821C98.2799 100.389 97.4949 103.953 92.5868 110.396C91.7421 111.508 90.9099 112.529 90.1186 113.496C86.6833 117.707 84.1994 120.75 84.9719 126.154C85.0122 126.437 84.9386 126.724 84.7673 126.952C84.5959 127.181 84.3408 127.332 84.0581 127.372C84.007 127.378 83.9557 127.382 83.9042 127.382Z" fill="black"/>
<path d="M109.46 63.3C109.208 63.3001 108.964 63.2116 108.77 63.0501C108.576 62.8885 108.445 62.6641 108.4 62.416C108.355 62.1678 108.398 61.9117 108.523 61.6922C108.647 61.4727 108.844 61.3038 109.08 61.2149C116.855 58.2694 120.938 50.6545 125.259 42.5936C127.504 38.4015 129.824 34.0712 132.773 30.1742C134.591 27.7689 137.376 26.9179 140.407 27.8191C145.202 29.2542 150.455 35.2268 150.951 42.7381C150.961 42.8793 150.942 43.021 150.897 43.155C150.851 43.2891 150.78 43.4129 150.686 43.5193C150.593 43.6257 150.48 43.7127 150.353 43.7754C150.226 43.838 150.088 43.875 149.947 43.8843C149.805 43.8935 149.664 43.8749 149.53 43.8294C149.396 43.7839 149.272 43.7125 149.165 43.6192C149.059 43.5259 148.972 43.4125 148.909 43.2856C148.847 43.1587 148.81 43.0206 148.8 42.8794C148.373 36.3887 143.792 31.0786 139.791 29.8822C138.265 29.4269 136.108 29.3327 134.491 31.4711C131.643 35.2393 129.36 39.4911 127.155 43.6079C122.64 52.0361 118.363 59.9965 109.843 63.2277C109.722 63.2761 109.591 63.3006 109.46 63.3Z" fill="black"/>
<path d="M99.6444 66.7793C99.4019 66.7786 99.1667 66.6961 98.9769 66.5452C98.7871 66.3942 98.6538 66.1836 98.5986 65.9475C98.5434 65.7114 98.5695 65.4635 98.6726 65.2441C98.7758 65.0246 98.95 64.8464 99.167 64.7382C106.075 61.328 110.858 53.9988 113.665 48.4501C113.726 48.3189 113.812 48.2011 113.919 48.104C114.027 48.0068 114.152 47.9323 114.289 47.8847C114.425 47.8371 114.57 47.8175 114.714 47.8271C114.859 47.8366 114.999 47.8751 115.128 47.9403C115.258 48.0055 115.372 48.096 115.466 48.2064C115.559 48.3168 115.629 48.4449 115.672 48.5831C115.715 48.7212 115.729 48.8665 115.715 49.0104C115.7 49.1542 115.657 49.2937 115.587 49.4204C112.632 55.2612 107.551 62.9954 100.122 66.6694C99.973 66.742 99.8098 66.7796 99.6444 66.7793Z" fill="black"/>
<path d="M127.788 141.308C112.144 141.308 96.7631 133.018 90.2943 126.549C90.0982 126.346 89.9897 126.074 89.9922 125.792C89.9947 125.509 90.108 125.239 90.3076 125.04C90.5073 124.84 90.7774 124.727 91.0598 124.724C91.3421 124.722 91.6142 124.83 91.8173 125.026C98.3395 131.552 115.479 140.501 131.55 138.981C140.851 138.105 148.13 133.894 153.186 126.465C153.352 126.242 153.597 126.092 153.871 126.046C154.144 125.999 154.425 126.061 154.655 126.217C154.885 126.373 155.045 126.611 155.103 126.883C155.161 127.154 155.112 127.437 154.966 127.674C149.531 135.659 141.721 140.184 131.751 141.126C130.432 141.248 129.111 141.308 127.788 141.308Z" fill="black"/>
<path fill-rule="evenodd" clip-rule="evenodd" d="M130.309 89.1405C133.023 89.7203 135.786 90.0462 138.561 90.114C141.257 90.1754 143.95 89.8936 146.575 89.2755C146.575 89.2755 145.391 97.44 139.333 98.0021C132.318 98.6521 130.309 89.1405 130.309 89.1405Z" fill="white"/>
<path d="M138.67 99.1105C132.877 99.1105 129.988 92.8302 129.25 89.376C129.212 89.1988 129.22 89.0151 129.273 88.8418C129.325 88.6685 129.42 88.5112 129.55 88.3845C129.679 88.2577 129.838 88.1656 130.012 88.1166C130.186 88.0676 130.37 88.0633 130.547 88.1042C133.188 88.6653 135.876 88.9807 138.576 89.0462C141.171 89.1062 143.764 88.8372 146.292 88.2455C146.463 88.1994 146.644 88.1967 146.817 88.2377C146.991 88.2787 147.151 88.3622 147.284 88.4805C147.417 88.5988 147.518 88.7484 147.579 88.9156C147.64 89.0829 147.658 89.2627 147.632 89.4388C147.579 89.8062 146.248 98.4542 139.427 99.0854C139.173 99.098 138.934 99.1105 138.67 99.1105ZM131.85 90.5378C132.729 92.9934 134.89 97.3269 139.236 96.9312C142.866 96.5984 144.495 92.849 145.139 90.676C142.962 91.0576 140.754 91.23 138.545 91.191C136.3 91.1335 134.063 90.9153 131.85 90.5378Z" fill="black"/>
<path d="M233.918 389.165C233.675 389.165 233.438 389.083 233.248 388.931C233.057 388.779 232.924 388.567 232.869 388.33C231.497 382.364 231.18 377.443 231.864 372.88C232.354 369.618 233.007 366.138 233.701 362.455C235.786 351.367 238.151 338.8 236.374 329.056C236.322 328.775 236.385 328.485 236.548 328.25C236.71 328.015 236.959 327.854 237.24 327.803C237.521 327.752 237.811 327.815 238.046 327.977C238.281 328.14 238.442 328.389 238.493 328.67C240.343 338.806 237.938 351.593 235.818 362.854C235.127 366.518 234.477 369.979 233.993 373.216C233.365 377.503 233.657 382.157 234.967 387.862C234.998 388 235.003 388.143 234.979 388.283C234.955 388.422 234.905 388.556 234.829 388.675C234.754 388.795 234.656 388.899 234.541 388.981C234.425 389.063 234.295 389.121 234.157 389.153C234.078 389.166 233.998 389.17 233.918 389.165Z" fill="black"/>
<path d="M320.946 260.5C319.517 260.5 318.337 260.073 317.636 259.244C316.936 258.415 316.823 257.269 317.363 256.104C318.431 253.83 319.897 253.887 321.191 253.934C322.814 254.063 324.437 253.678 325.829 252.835C329.814 250.615 334.198 246.102 338.851 239.429C339.015 239.195 339.264 239.035 339.546 238.985C339.827 238.934 340.116 238.998 340.351 239.161C340.585 239.324 340.745 239.574 340.796 239.855C340.846 240.136 340.783 240.426 340.619 240.66C335.774 247.606 331.152 252.335 326.875 254.716C325.139 255.75 323.128 256.228 321.113 256.085C319.929 256.038 319.775 256.035 319.313 257.027C319.053 257.586 319.219 257.78 319.272 257.843C319.586 258.226 320.88 258.613 322.893 258.025C327.917 256.553 336.129 248.605 340.629 242.13C340.707 242.008 340.809 241.902 340.928 241.82C341.048 241.738 341.183 241.681 341.325 241.653C341.467 241.624 341.614 241.624 341.756 241.654C341.898 241.683 342.032 241.741 342.152 241.824C342.271 241.907 342.372 242.013 342.449 242.135C342.526 242.258 342.578 242.395 342.601 242.539C342.624 242.682 342.617 242.828 342.582 242.969C342.547 243.11 342.484 243.242 342.397 243.358C337.708 250.118 329.148 258.431 323.499 260.092C322.672 260.348 321.812 260.485 320.946 260.5Z" fill="black"/>
<path d="M350.316 213.077H350.288C350.003 213.07 349.732 212.949 349.536 212.743C349.339 212.536 349.233 212.26 349.239 211.975C349.478 202.463 346.476 182.247 333.41 173.806C314.854 161.81 290.333 165.45 278.259 175.69C278.041 175.874 277.76 175.965 277.476 175.942C277.191 175.919 276.928 175.783 276.744 175.566C276.559 175.349 276.469 175.067 276.492 174.783C276.515 174.499 276.65 174.235 276.868 174.051C289.532 163.305 315.178 159.468 334.578 171.994C348.448 180.953 351.642 202.096 351.393 212.025C351.387 212.306 351.271 212.574 351.069 212.77C350.868 212.967 350.598 213.077 350.316 213.077Z" fill="black"/>
<path d="M356.481 207.861C356.212 207.861 355.953 207.759 355.755 207.578C355.557 207.396 355.434 207.146 355.41 206.878C354.644 198.152 351.45 176.943 338.356 168.48C323.321 158.764 302.844 157.634 287.41 165.673C284.898 166.973 283.434 168.772 281.569 171.052L281.095 171.627C279.418 173.668 277.119 176.463 277.355 178.143C277.394 178.426 277.319 178.713 277.146 178.941C276.974 179.169 276.718 179.319 276.435 179.358C276.152 179.397 275.864 179.322 275.637 179.149C275.409 178.977 275.259 178.721 275.22 178.438C274.858 175.825 277.289 172.867 279.434 170.273L279.905 169.702C281.845 167.328 283.522 165.28 286.414 163.776C302.514 155.389 323.861 156.554 339.524 166.687C353.419 175.662 356.76 197.662 357.555 206.702C357.567 206.843 357.552 206.985 357.509 207.12C357.467 207.255 357.398 207.38 357.307 207.488C357.216 207.597 357.105 207.686 356.979 207.751C356.853 207.816 356.716 207.856 356.575 207.867L356.481 207.861Z" fill="black"/>
<path d="M356.708 213.733C356.534 213.733 356.362 213.69 356.208 213.608C356.083 213.542 355.972 213.453 355.881 213.344C355.791 213.235 355.722 213.11 355.68 212.975C355.638 212.84 355.623 212.698 355.636 212.557C355.649 212.416 355.69 212.279 355.756 212.154C359.418 205.164 363.982 198.684 369.331 192.883L369.702 192.471C370 192.157 370.255 191.806 370.462 191.425C370.31 191.46 370.163 191.51 370.022 191.576C368.59 192.28 358.758 203.383 354.89 212.251C354.767 212.499 354.553 212.69 354.293 212.784C354.034 212.879 353.747 212.87 353.494 212.76C353.241 212.649 353.039 212.445 352.932 212.19C352.825 211.936 352.82 211.649 352.918 211.391C356.767 202.564 366.976 190.6 369.13 189.617C370.484 188.989 371.759 189.155 372.38 190.006C372.792 190.565 373.194 191.815 371.3 193.912L370.923 194.33C365.697 200.003 361.238 206.338 357.659 213.171C357.567 213.343 357.429 213.485 357.262 213.584C357.094 213.684 356.902 213.735 356.708 213.733Z" fill="black"/>
</svg>
