<svg width="1540" height="871" viewBox="0 0 1540 871" fill="none" xmlns="http://www.w3.org/2000/svg">
<path d="M5 834.068L25.9307 830.096C89.9145 817.953 143.946 775.349 170.678 715.962L177.872 699.98C213.206 621.482 299.535 579.391 383.14 599.898V599.898C445.118 615.1 510.496 596.055 554.614 549.947L722.895 374.074C761.438 333.793 810.443 305.048 864.412 291.066L1222.11 198.391C1301.92 177.714 1369.7 125.106 1409.53 52.9243L1481.5 -77.5" stroke="black" stroke-opacity="0.29"/>
<path d="M-1 870L43.5814 861.707C107.752 849.771 162.003 807.154 188.794 747.634L195.872 731.911C231.206 653.414 317.535 611.323 401.14 631.83V631.83C463.118 647.032 528.496 627.987 572.614 581.879L740.895 406.006C779.438 365.725 828.443 336.98 882.412 322.997L1251.58 227.35C1324.59 208.435 1387.79 162.716 1428.61 99.2978L1539.5 -73" stroke="black" stroke-opacity="0.29"/>
<path d="M1433.5 -165L1332.34 26.7692C1292.95 101.441 1223.92 156.06 1142.19 177.221L820.033 260.631C766.079 274.6 717.083 303.323 678.539 343.579L523.248 505.766C481.637 549.225 419.996 567.175 361.558 552.851C282.714 533.524 201.307 573.211 167.968 647.227L161.224 662.198C136.015 718.166 85.081 758.312 24.7721 769.75L5 773.5V-165H1433.5Z" fill="url(#paint0_linear_1001_7)"/>
<defs>
<linearGradient id="paint0_linear_1001_7" x1="719.25" y1="-165" x2="719.25" y2="773.5" gradientUnits="userSpaceOnUse">
<stop stop-color="white" stop-opacity="0"/>
<stop offset="0.0001" stop-color="white" stop-opacity="0"/>
<stop offset="1" stop-color="#C6C6C6" stop-opacity="0.15"/>
</linearGradient>
</defs>
</svg>
