<svg width="623" height="490" viewBox="0 0 623 490" fill="none" xmlns="http://www.w3.org/2000/svg">
<path d="M320.019 376.473C319.889 371.715 317.908 367.196 314.497 363.877C311.086 360.558 306.514 358.7 301.754 358.7C296.995 358.7 292.423 360.558 289.012 363.877C285.601 367.196 283.62 371.715 283.49 376.473H248.145V483.802H355.473V376.473H320.019Z" fill="#0070C0"/>
<path d="M308.259 237.537C308.38 232.695 306.572 228.003 303.234 224.494C299.895 220.984 295.299 218.945 290.457 218.824C285.615 218.703 280.923 220.511 277.414 223.85C273.904 227.188 271.865 231.784 271.744 236.626L236.399 235.729L233.68 343.017L272.125 343.982C272.125 338.97 274.116 334.164 277.66 330.62C281.203 327.076 286.01 325.085 291.021 325.085C296.033 325.085 300.839 327.076 304.383 330.62C307.927 334.164 309.918 338.97 309.918 343.982C309.918 344.281 309.918 344.58 309.918 344.879L341.008 345.668L343.727 238.38L308.259 237.537Z" fill="#FF0066"/>
<path opacity="0.5" d="M540.264 164.629C585.725 164.629 622.579 127.776 622.579 82.3147C622.579 36.8536 585.725 0 540.264 0C494.803 0 457.949 36.8536 457.949 82.3147C457.949 127.776 494.803 164.629 540.264 164.629Z" fill="#0070C0"/>
<path d="M377.551 122.541C377.551 122.541 357.622 114.887 357.391 116.518C357.16 118.15 363.563 121.385 363.563 121.385C363.563 121.385 354.046 122.595 348.772 122.908C347.782 122.989 346.847 123.394 346.11 124.06C345.373 124.726 344.875 125.615 344.693 126.592L343.688 131.812C343.688 131.812 353.367 132.859 358.641 133.049C363.916 133.24 379.74 132.9 379.74 132.9L377.551 122.541Z" fill="#D8948F"/>
<path d="M344.828 126.089L356.982 125.6" stroke="black" stroke-width="0.5" stroke-linecap="round" stroke-linejoin="round"/>
<path d="M344.23 129.433L356.384 128.93" stroke="black" stroke-width="0.5" stroke-linecap="round" stroke-linejoin="round"/>
<path d="M556.469 187.074C556.469 187.074 543.106 203.741 544.601 204.448C546.097 205.155 551.113 200.043 551.113 200.043C551.113 200.043 549.359 209.492 548.054 214.617C547.83 215.585 547.929 216.599 548.336 217.505C548.744 218.412 549.438 219.159 550.311 219.633L554.987 222.175C554.987 222.175 558.93 213.284 560.711 208.309C562.491 203.333 566.991 188.162 566.991 188.162L556.469 187.074Z" fill="#D8948F"/>
<path d="M549.887 219.307L553.109 207.574" stroke="black" stroke-width="0.5" stroke-linecap="round" stroke-linejoin="round"/>
<path d="M552.879 220.898L556.114 209.152" stroke="black" stroke-width="0.5" stroke-linecap="round" stroke-linejoin="round"/>
<path d="M492.573 85.4413C494.274 83.7718 495.247 81.4983 495.28 79.1154C495.313 76.7325 494.404 74.4329 492.75 72.7168L480.066 59.6797C478.399 57.9757 476.124 57.0008 473.74 56.9677C471.356 56.9346 469.056 57.846 467.342 59.503C465.638 61.1706 464.663 63.4447 464.63 65.8287C464.597 68.2128 465.508 70.513 467.165 72.2274L479.849 85.2645C481.516 86.9685 483.791 87.9434 486.175 87.9766C488.559 88.0097 490.859 87.0982 492.573 85.4413Z" fill="#D8948F"/>
<path d="M466.841 60.0338L467.929 58.9734C469.495 57.4556 471.598 56.6194 473.778 56.6474C475.959 56.6754 478.039 57.5654 479.566 59.1229L484.065 63.7586C483.359 71.2084 479.606 78.7942 476.235 81.5131L466.719 71.6706C465.198 70.1084 464.356 68.0075 464.379 65.827C464.402 63.6465 465.287 61.5637 466.841 60.0338Z" fill="#C67775"/>
<path d="M443.417 68.177C441.996 66.7132 440.829 65.0224 439.964 63.1742L439.869 63.0246C438.098 59.1922 437.676 54.8729 438.673 50.7702C439.669 46.6675 442.025 43.023 445.358 40.4301C448.69 37.8373 452.801 36.4489 457.023 36.4909C461.245 36.533 465.328 38.003 468.608 40.6617C472.17 42.7281 476.506 51.3062 478.722 56.105C479.73 58.2871 480.107 60.7076 479.81 63.0926C478.831 71.2493 473.651 87.7666 464.407 86.0401C456.128 84.4904 448.461 75.0422 443.417 68.177Z" fill="#D8948F"/>
<path d="M457.691 74.6614C458.638 74.5725 459.527 74.1629 460.209 73.5003C460.891 72.8378 461.327 71.962 461.444 71.0181" stroke="black" stroke-width="0.5" stroke-linecap="round" stroke-linejoin="round"/>
<path d="M465.482 54.7452C465.55 54.6853 465.6 54.607 465.626 54.5196C465.651 54.4322 465.651 54.3394 465.625 54.2521C465.599 54.1648 465.549 54.0868 465.48 54.0272C465.412 53.9676 465.327 53.9289 465.237 53.9159C460.615 53.0866 458.44 58.2933 458.44 58.3477C458.393 58.4667 458.395 58.5994 458.446 58.7167C458.497 58.834 458.593 58.9262 458.712 58.973C458.831 59.0199 458.963 59.0176 459.081 58.9666C459.198 58.9156 459.29 58.8201 459.337 58.7012C459.405 58.5244 461.186 54.1742 465.02 54.8675C465.1 54.8912 465.186 54.8923 465.268 54.8707C465.349 54.8492 465.423 54.8057 465.482 54.7452Z" fill="black"/>
<path d="M445.7 71.2083L445.102 70.4334C446.006 69.4838 447.099 68.7336 448.31 68.2311C448.426 68.2026 448.549 68.2177 448.655 68.2738C448.761 68.3299 448.843 68.423 448.885 68.5354C448.927 68.6477 448.926 68.7716 448.883 68.8834C448.839 68.9953 448.756 69.0873 448.65 69.142C447.52 69.5935 446.51 70.3008 445.7 71.2083Z" fill="black"/>
<path d="M461.156 67.4425C461.156 67.4425 467.41 65.9743 468.157 57.2058C468.198 57.1378 458.967 60.6452 461.156 67.4425Z" fill="white"/>
<path d="M461.007 67.7691C461.061 67.72 461.103 67.6586 461.129 67.5901C461.155 67.5215 461.165 67.4477 461.157 67.3749C460.979 65.2031 461.622 63.0436 462.958 61.3224C464.295 59.6011 466.227 58.443 468.375 58.0762C468.499 58.044 468.607 57.9655 468.675 57.8569C468.743 57.7482 468.767 57.6176 468.742 57.4917C468.71 57.3682 468.631 57.2621 468.522 57.1961C468.413 57.1301 468.282 57.1093 468.158 57.1382C465.796 57.5881 463.681 58.8879 462.213 60.7918C460.745 62.6957 460.026 65.0716 460.191 67.47C460.196 67.5339 460.214 67.5961 460.244 67.6528C460.274 67.7096 460.314 67.7598 460.364 67.8004C460.413 67.841 460.471 67.8712 460.532 67.8892C460.593 67.9072 460.658 67.9126 460.722 67.9051C460.829 67.8907 460.928 67.8432 461.007 67.7691Z" fill="black"/>
<path d="M482.349 46.6563C481.352 45.6316 480.074 44.9254 478.675 44.627C477.277 44.3286 475.821 44.4514 474.493 44.9799C473.164 45.5083 472.022 46.4187 471.211 47.596C470.399 48.7733 469.955 50.1647 469.934 51.5944C469.913 53.0241 470.317 54.4279 471.093 55.6284C471.87 56.8289 472.985 57.7723 474.298 58.3393C475.61 58.9063 477.061 59.0716 478.468 58.8141C479.874 58.5567 481.173 57.8882 482.2 56.893C483.575 55.5545 484.364 53.7248 484.392 51.8056C484.42 49.8864 483.685 48.0345 482.349 46.6563Z" fill="#D8948F"/>
<path d="M475.281 54.5006C475.281 54.5006 472.834 48.655 478.218 45.2563" stroke="black" stroke-width="0.5" stroke-linecap="round" stroke-linejoin="round"/>
<path d="M463.466 66.2325C462.896 66.1196 462.365 65.8569 461.93 65.4713C461.488 65.0729 461.155 64.5672 460.965 64.003C461.477 62.1751 462.594 60.5747 464.132 59.4625C464.996 59.4438 465.835 59.7494 466.484 60.3189C466.797 60.5891 467.056 60.9167 467.245 61.2841C466.532 63.2869 465.211 65.0168 463.466 66.2325Z" fill="black"/>
<path d="M451.762 72.6225C452.891 72.4361 454.044 72.4361 455.174 72.6225C454.634 73.545 453.996 74.4064 453.271 75.1918C453.234 74.7812 453.123 74.3805 452.944 74.0091C452.687 73.4455 452.278 72.9652 451.762 72.6225Z" fill="white"/>
<path d="M450.759 77.1352H450.881L451.289 76.877L451.67 76.6187L452.119 76.2652L452.472 75.9797L453.002 75.4767L453.274 75.2048C453.237 74.7942 453.127 74.3935 452.948 74.0221C452.687 73.4685 452.277 72.998 451.765 72.6627C452.895 72.4763 454.048 72.4763 455.177 72.6627H455.558C455.682 72.6822 455.809 72.6518 455.911 72.5779C456.013 72.504 456.082 72.3927 456.102 72.2684C456.113 72.2058 456.112 72.1416 456.099 72.0794C456.085 72.0172 456.059 71.9583 456.022 71.9064C455.986 71.8544 455.939 71.8103 455.885 71.7768C455.831 71.7432 455.77 71.7209 455.707 71.711C454.292 71.404 452.826 71.4155 451.415 71.7447C450.004 72.0739 448.684 72.7125 447.551 73.6143L447.768 73.8862L448.149 74.3212C449.019 75.2456 449.875 76.1972 450.759 77.1352Z" fill="black"/>
<path d="M463.643 81.0374C465.196 81.2287 466.769 80.914 468.129 80.1401C469.374 79.4147 470.423 78.3968 471.186 77.1745C471.948 75.9522 472.402 74.5623 472.506 73.1254C472.685 71.5975 472.34 70.0543 471.528 68.7479C470.63 67.4972 468.945 67.0758 468.197 68.7479C467.449 70.4201 467.599 72.1194 466.837 73.6827C466.561 74.2621 466.189 74.7906 465.736 75.2461C465.361 75.5008 464.954 75.7064 464.526 75.8579C463.316 76.2657 460.122 76.4832 460.217 78.3321C460.312 79.841 462.242 80.7655 463.643 81.0374Z" fill="black"/>
<path d="M467.561 75.3139C468.157 74.6379 468.92 74.1302 469.774 73.8416C470.629 73.5529 471.543 73.4934 472.428 73.6689C472.243 74.9918 471.76 76.2554 471.016 77.3646C470.272 78.4737 469.286 79.3994 468.132 80.0719C467.659 80.3232 467.162 80.5281 466.65 80.6837C466.288 79.7924 466.182 78.8178 466.342 77.8694C466.503 76.921 466.925 76.0361 467.561 75.3139Z" fill="#FF8DCC"/>
<path d="M476.194 81.5127L431.046 116.287C413.323 120.208 395.137 121.613 377.022 120.461L373.637 136.774C373.637 136.774 408.384 155.168 442.452 140.39C476.52 125.613 495.24 101.429 495.24 101.429L476.194 81.5127Z" fill="#FFBF00"/>
<path d="M562.001 122.079C549.643 101.809 514.814 69.699 506.793 69.699C501.445 69.7026 496.317 71.8297 492.537 75.6127C488.756 79.3957 486.633 84.525 486.633 89.8732C486.633 99.0223 536.932 138.31 536.932 138.31C536.932 138.31 548.787 158.879 551.22 189.63L567.819 190.731C567.819 190.731 581.305 153.795 562.001 122.079Z" fill="#FFBF00"/>
<path d="M620.457 103.088C625.815 82.007 622.63 59.663 611.593 40.9199C595.158 41.5725 518.403 44.6176 505.556 45.6508C491.119 46.8063 483.261 62.9158 483.261 62.9158C486.945 76.8502 476.641 81.9481 476.641 81.9481C485.586 102.163 550.853 122.908 550.853 122.908L620.457 103.088Z" fill="#FFBF00"/>
<path d="M476.602 81.9067L495.634 101.877" stroke="white" stroke-width="0.5" stroke-linecap="round" stroke-linejoin="round"/>
<path d="M560.819 120.026C560.819 120.026 521.938 68.8564 508.521 68.367C495.103 67.8776 486.185 78.9027 487.639 93.5304" stroke="white" stroke-width="0.5" stroke-linecap="round" stroke-linejoin="round"/>
<path d="M565.564 128.332C564.602 126.331 563.54 124.38 562.383 122.486C557.264 114.594 551.4 107.21 544.873 100.436C541.328 103.235 539.012 107.305 538.417 111.783C537.822 116.26 538.994 120.794 541.685 124.422C544.376 128.05 548.374 130.487 552.832 131.217C557.29 131.947 561.856 130.912 565.564 128.332Z" fill="black"/>
<path d="M455.122 134.124C453.337 130.662 450.441 127.9 446.899 126.281C443.356 124.662 439.372 124.281 435.587 125.198C431.801 126.116 428.434 128.278 426.025 131.339C423.616 134.4 422.306 138.182 422.305 142.077C422.304 143.268 422.422 144.457 422.658 145.625C429.479 144.869 436.149 143.106 442.452 140.391C446.952 138.433 451.166 136.326 455.122 134.124Z" fill="black"/>
<path d="M452.932 41.3006C452.932 41.3006 463.522 52.8016 470.917 51.211C470.9 49.1306 471.678 47.1221 473.092 45.5965C471.968 43.6618 470.454 41.9815 468.647 40.6617C465.367 38.003 461.284 36.533 457.062 36.4909C452.84 36.4489 448.729 37.8373 445.397 40.4301C442.065 43.023 439.708 46.6675 438.712 50.7702C437.715 54.8729 438.137 59.1922 439.908 63.0246L440.003 63.1742C440.868 65.0224 442.035 66.7132 443.456 68.177C447.888 65.4722 451.251 61.3213 452.977 56.425C454.703 51.5286 454.687 46.1866 452.932 41.3006Z" fill="black"/>
<path opacity="0.5" d="M514.57 224.201C530.61 234.006 544.561 246.875 555.627 262.072C566.693 277.27 574.658 294.498 579.066 312.773C583.474 331.048 584.24 350.013 581.319 368.584C578.398 387.155 571.848 404.969 562.042 421.009C552.236 437.048 539.368 450.999 524.171 462.066C508.973 473.132 491.745 481.097 473.47 485.505C436.561 494.408 397.628 488.284 365.234 468.481L514.57 224.201Z" fill="#0070C0"/>
<path d="M501.301 341.82H430.351C431.031 341.358 431.711 340.896 432.472 340.461C430.354 339.892 428.359 338.938 426.586 337.647C424.069 336.17 421.917 334.144 420.292 331.72C419.637 330.645 419.326 329.396 419.402 328.14C419.477 326.883 419.935 325.68 420.713 324.691C422.688 322.407 425.169 320.615 427.959 319.458C430.423 318.301 433.008 317.421 435.667 316.834C434.173 315.933 432.945 314.652 432.109 313.121C431.273 311.59 430.858 309.864 430.909 308.12C430.98 305.913 431.918 303.822 433.519 302.301C435.457 300.627 437.854 299.576 440.398 299.283C442.769 298.98 445.167 298.934 447.549 299.147C446.692 297.122 447.97 294.634 449.887 293.139C452.705 291.107 456.121 290.073 459.593 290.202C463.056 290.211 466.413 291.4 469.109 293.574C470.35 294.632 471.374 295.92 472.127 297.366C473.626 298.255 474.892 299.485 475.823 300.957C476.754 302.43 477.323 304.101 477.484 305.836C481.807 304.476 487.435 306.76 490.086 309.588C493.688 313.435 491.309 317.908 488.359 321.497C490.552 321.563 492.683 322.242 494.511 323.455C496.338 324.668 497.791 326.367 498.705 328.362C500.295 332.44 498.378 336.872 495.088 340.108C497.254 340.252 499.367 340.835 501.301 341.82Z" fill="black"/>
<path d="M465.14 360.825C467.551 360.709 469.819 359.643 471.446 357.86C473.074 356.076 473.93 353.721 473.827 351.309L472.956 332.875C472.833 330.466 471.765 328.203 469.983 326.576C468.202 324.95 465.851 324.092 463.44 324.188C461.031 324.312 458.768 325.38 457.142 327.162C455.515 328.943 454.657 331.294 454.753 333.704L455.637 352.152C455.753 354.56 456.818 356.824 458.599 358.449C460.379 360.075 462.731 360.929 465.14 360.825Z" fill="#D8948F"/>
<path d="M462.624 324.202L464.174 324.12C466.386 324.02 468.548 324.801 470.187 326.292C471.825 327.782 472.806 329.861 472.915 332.073L473.228 338.598C467.681 343.791 459.728 347.04 455.337 346.836L454.685 332.929C454.582 330.719 455.36 328.559 456.848 326.922C458.337 325.286 460.414 324.307 462.624 324.202Z" fill="#C67775"/>
<path d="M439.379 314.672C439.29 312.607 439.538 310.54 440.113 308.555C440.113 308.46 440.113 308.405 440.113 308.378C441.343 304.276 443.925 300.712 447.439 298.264C450.953 295.817 455.191 294.63 459.465 294.898C463.739 295.166 467.796 296.872 470.976 299.74C474.157 302.607 476.273 306.466 476.982 310.689C478.341 314.672 475.84 324.093 474.263 329.246C473.559 331.576 472.223 333.666 470.402 335.281C464.216 340.719 449.126 349.896 443.213 342.378C438.074 335.621 438.604 323.291 439.379 314.672Z" fill="#D8948F"/>
<path d="M445.875 329.191C446.652 329.76 447.6 330.047 448.562 330.002C449.525 329.958 450.443 329.585 451.163 328.946" stroke="black" stroke-width="0.5" stroke-linecap="round" stroke-linejoin="round"/>
<path d="M465.18 319.294C465.285 319.293 465.387 319.255 465.466 319.185C465.517 319.146 465.559 319.098 465.591 319.043C465.623 318.987 465.643 318.926 465.651 318.862C465.658 318.799 465.653 318.735 465.635 318.673C465.618 318.612 465.588 318.555 465.547 318.505C462.597 314.753 457.486 317.295 457.391 317.323C457.332 317.351 457.28 317.392 457.237 317.441C457.194 317.49 457.162 317.548 457.141 317.61C457.121 317.672 457.113 317.737 457.119 317.802C457.124 317.868 457.143 317.931 457.173 317.989C457.234 318.104 457.338 318.192 457.462 318.233C457.586 318.273 457.722 318.264 457.839 318.206C458.016 318.111 462.285 316.004 464.732 319.103C464.782 319.173 464.851 319.227 464.93 319.26C465.009 319.294 465.095 319.305 465.18 319.294Z" fill="black"/>
<path d="M439.078 318.506C439.078 318.18 439.078 317.853 439.146 317.527C440.475 317.414 441.812 317.576 443.075 318.003C443.194 318.054 443.288 318.149 443.339 318.268C443.389 318.387 443.392 318.521 443.347 318.642C443.324 318.703 443.29 318.759 443.245 318.807C443.201 318.854 443.147 318.892 443.087 318.919C443.028 318.946 442.964 318.96 442.898 318.961C442.833 318.963 442.769 318.951 442.708 318.927C441.545 318.514 440.304 318.37 439.078 318.506Z" fill="black"/>
<path d="M453.029 326.187C453.103 326.184 453.177 326.165 453.243 326.129C453.309 326.094 453.366 326.044 453.409 325.983C454.741 324.22 456.683 323.016 458.854 322.607C461.026 322.197 463.272 322.611 465.155 323.767C465.21 323.798 465.271 323.818 465.334 323.825C465.397 323.832 465.46 323.827 465.521 323.809C465.582 323.791 465.638 323.762 465.688 323.722C465.737 323.682 465.777 323.633 465.807 323.577C465.84 323.52 465.861 323.458 465.868 323.393C465.876 323.328 465.87 323.262 465.85 323.199C465.831 323.137 465.799 323.079 465.757 323.029C465.715 322.98 465.662 322.939 465.603 322.911C463.506 321.668 461.025 321.236 458.631 321.697C456.236 322.158 454.094 323.479 452.607 325.412C452.532 325.517 452.501 325.647 452.522 325.774C452.542 325.902 452.612 326.016 452.716 326.092C452.807 326.156 452.917 326.189 453.029 326.187Z" fill="black"/>
<path d="M438.916 322.339C441.538 322.307 444.072 323.28 445.999 325.058C446.098 325.143 446.159 325.264 446.169 325.394C446.18 325.524 446.138 325.653 446.053 325.752C445.968 325.851 445.848 325.912 445.718 325.922C445.588 325.933 445.459 325.891 445.36 325.806C443.607 324.176 441.296 323.28 438.902 323.305C438.902 323.019 438.902 322.666 438.916 322.339Z" fill="black"/>
<path d="M483.439 324.488C483.371 323.037 482.873 321.64 482.011 320.473C481.148 319.305 479.958 318.42 478.592 317.928C477.226 317.437 475.745 317.361 474.336 317.711C472.927 318.062 471.653 318.822 470.676 319.896C469.7 320.97 469.063 322.309 468.847 323.745C468.631 325.18 468.846 326.648 469.464 327.961C470.082 329.275 471.076 330.376 472.32 331.125C473.564 331.874 475.002 332.237 476.452 332.169C477.415 332.123 478.36 331.889 479.232 331.478C480.105 331.067 480.888 330.489 481.537 329.776C482.186 329.062 482.688 328.228 483.014 327.321C483.341 326.414 483.485 325.451 483.439 324.488Z" fill="#D8948F"/>
<path d="M472.793 325.738C472.793 325.738 474.859 319.648 481.235 320.681" stroke="black" stroke-width="0.5" stroke-linecap="round" stroke-linejoin="round"/>
<path d="M447.629 336.07C447.629 336.07 454.739 338.218 457.811 331.502" stroke="black" stroke-width="0.5" stroke-linecap="round" stroke-linejoin="round"/>
<path d="M439.38 314.672C439.291 312.607 439.539 310.54 440.114 308.555C440.114 308.46 440.114 308.405 440.114 308.378C441.344 304.276 443.926 300.712 447.44 298.264C450.954 295.817 455.192 294.63 459.466 294.898C463.74 295.166 467.797 296.872 470.977 299.74C474.158 302.607 476.274 306.466 476.983 310.689C477.59 313.054 478.044 315.457 478.342 317.881C476.344 318.914 473.502 321.524 472.904 323.549C472.879 323.645 472.829 323.731 472.759 323.801C472.689 323.87 472.602 323.92 472.506 323.945C472.411 323.97 472.311 323.969 472.216 323.942C472.121 323.916 472.035 323.865 471.966 323.794C470.644 322.323 469.79 320.49 469.514 318.532C469.238 316.573 469.552 314.576 470.416 312.796C468.214 313.095 465.957 311.437 464.748 309.629C463.816 308.167 463.196 306.528 462.926 304.816C462.759 305.144 462.558 305.454 462.328 305.741C461.42 306.89 460.097 307.637 458.644 307.821C457.819 307.883 456.991 307.741 456.235 307.407C455.478 307.072 454.816 306.556 454.307 305.904C454.242 306.567 454.068 307.215 453.79 307.821C453.518 308.482 453.086 309.065 452.534 309.518C451.981 309.971 451.324 310.28 450.623 310.417C449.916 310.492 449.201 310.381 448.55 310.095C447.899 309.809 447.334 309.358 446.912 308.786L446.789 308.596C446.779 309.466 446.564 310.321 446.163 311.093C445.761 311.865 445.184 312.532 444.478 313.041C443.982 313.384 443.389 313.561 442.786 313.546C442.183 313.532 441.599 313.326 441.12 312.959L440.808 312.647C440.537 313.749 440.005 314.77 439.258 315.624L439.38 314.672Z" fill="black"/>
<path d="M482.323 331.244C482.323 330.405 482.074 329.585 481.608 328.887C481.142 328.19 480.479 327.646 479.704 327.325C478.929 327.004 478.077 326.92 477.254 327.084C476.431 327.248 475.675 327.652 475.082 328.245C474.489 328.838 474.085 329.594 473.921 330.416C473.758 331.239 473.842 332.092 474.163 332.867C474.484 333.642 475.027 334.305 475.725 334.771C476.422 335.237 477.242 335.485 478.081 335.485C479.206 335.485 480.285 335.039 481.08 334.243C481.876 333.448 482.323 332.369 482.323 331.244Z" fill="white"/>
<path d="M341.51 431.898C341.694 430.924 342.193 430.037 342.93 429.374C343.666 428.711 344.6 428.308 345.588 428.227C350.863 427.915 360.393 426.691 360.393 426.691C360.393 426.691 353.976 423.469 354.207 421.838C354.397 420.478 367.095 425.128 372.233 427.045C378.718 427.561 422.832 429.899 439.553 398.931L468.632 422.137C468.632 422.137 457.158 469.296 370.874 438.314C365.803 438.396 358.639 438.478 355.458 438.314C350.17 438.138 340.504 437.091 340.504 437.091L341.51 431.898Z" fill="#D8948F"/>
<path d="M341.66 431.409L353.827 430.906" stroke="black" stroke-width="0.5" stroke-linecap="round" stroke-linejoin="round"/>
<path d="M341.062 434.739L353.23 434.236" stroke="black" stroke-width="0.5" stroke-linecap="round" stroke-linejoin="round"/>
<path d="M430.133 407.509L455.283 349.311C455.283 349.311 466.852 350.983 473.826 342.745C513.63 349.773 533.737 412.648 541.404 444.282C517.059 469.657 484.225 485.181 449.165 487.894V447.518L430.133 407.509Z" fill="#FFBF00"/>
<path d="M449.164 447.518C449.164 447.518 482.607 429.369 477.237 387.24" stroke="white" stroke-width="0.5" stroke-linecap="round" stroke-linejoin="round"/>
<path opacity="0.5" d="M232.375 431.408L181.287 343.329L0.738281 365.597V451.46L232.375 431.408Z" fill="#0070C0"/>
<path d="M149.842 185.579C149.489 187.795 149.135 190.011 148.768 192.24C148.401 194.47 150.005 196.495 147.409 199.038H61.043C61.5053 197.22 62.1005 195.439 62.8238 193.708C64.4144 189.888 66.807 186.136 71.0893 185.103C73.382 184.691 75.7232 184.623 78.0361 184.899C80.2112 184.994 82.196 184.75 83.27 182.643C84.1225 180.639 84.7296 178.539 85.078 176.389C85.4831 174.385 86.1361 172.44 87.0221 170.598C90.8149 163.311 99.8009 163.801 106.218 160.402C106.743 160.114 107.251 159.796 107.74 159.45C108.637 158.431 109.439 157.302 110.214 156.228C112.063 153.632 113.79 150.94 115.747 148.412C118.901 144.333 122.952 140.595 127.982 139.222C129.016 138.799 130.098 138.506 131.204 138.352C134.781 137.978 138.38 138.826 141.414 140.758C144.744 142.746 147.51 145.554 149.448 148.915C151.277 152.27 152.366 155.979 152.643 159.79C152.911 164.103 152.674 168.433 151.936 172.691C151.283 176.974 150.549 181.27 149.842 185.579Z" fill="black"/>
<path d="M125.618 206.527C123.132 206.383 120.802 205.271 119.127 203.428C117.452 201.585 116.566 199.16 116.659 196.671L117.57 177.639C117.693 175.146 118.8 172.803 120.647 171.124C122.494 169.444 124.932 168.566 127.426 168.68C129.912 168.824 132.242 169.937 133.917 171.78C135.592 173.622 136.478 176.048 136.385 178.536L135.474 197.569C135.33 200.055 134.217 202.385 132.374 204.06C130.532 205.735 128.106 206.621 125.618 206.527Z" fill="#D8948F"/>
<path d="M128.16 168.736L126.57 168.654C124.296 168.55 122.072 169.349 120.384 170.877C118.696 172.405 117.68 174.537 117.557 176.811L117.23 183.608C122.954 188.964 131.151 192.308 135.678 192.105L136.358 177.762C136.413 176.631 136.244 175.5 135.862 174.435C135.48 173.369 134.891 172.389 134.13 171.55C133.368 170.712 132.449 170.032 131.425 169.549C130.401 169.066 129.292 168.79 128.16 168.736Z" fill="#C67775"/>
<path d="M152.155 158.906C152.244 156.771 151.982 154.635 151.38 152.585C151.38 152.503 151.38 152.435 151.38 152.408C150.124 148.16 147.464 144.464 143.834 141.924C140.205 139.385 135.821 138.153 131.399 138.429C126.978 138.705 122.782 140.474 119.497 143.446C116.211 146.417 114.032 150.416 113.315 154.787C111.956 158.865 114.511 168.613 116.034 173.928C116.754 176.335 118.134 178.492 120.017 180.154C126.393 185.823 141.959 195.231 148.008 187.468C153.487 180.521 152.943 167.797 152.155 158.906Z" fill="#D8948F"/>
<path d="M145.438 173.888C144.637 174.47 143.662 174.761 142.674 174.715C141.685 174.668 140.742 174.285 140 173.63" stroke="black" stroke-width="0.5" stroke-linecap="round" stroke-linejoin="round"/>
<path d="M125.523 163.678C125.42 163.669 125.321 163.631 125.237 163.57C125.186 163.528 125.142 163.478 125.11 163.42C125.078 163.362 125.058 163.299 125.05 163.233C125.043 163.167 125.048 163.101 125.066 163.037C125.084 162.974 125.115 162.914 125.156 162.863C128.187 159.002 133.476 161.612 133.517 161.639C133.576 161.669 133.63 161.71 133.674 161.76C133.718 161.81 133.751 161.868 133.773 161.931C133.794 161.994 133.803 162.061 133.799 162.127C133.794 162.194 133.777 162.259 133.748 162.319C133.718 162.379 133.677 162.432 133.627 162.476C133.577 162.52 133.519 162.554 133.456 162.575C133.392 162.597 133.326 162.605 133.259 162.601C133.193 162.597 133.128 162.579 133.068 162.55C132.878 162.455 128.473 160.28 125.944 163.488C125.892 163.548 125.827 163.596 125.754 163.629C125.682 163.662 125.603 163.679 125.523 163.678Z" fill="black"/>
<path d="M152.455 162.863C152.455 162.523 152.455 162.183 152.387 161.843C151.007 161.719 149.617 161.891 148.309 162.346C148.186 162.397 148.089 162.494 148.036 162.615C147.982 162.737 147.978 162.874 148.023 162.999C148.047 163.062 148.084 163.12 148.13 163.169C148.177 163.217 148.233 163.256 148.296 163.283C148.358 163.31 148.425 163.324 148.492 163.324C148.56 163.324 148.627 163.31 148.689 163.284C149.898 162.867 151.184 162.723 152.455 162.863Z" fill="black"/>
<path d="M138.07 170.761C137.993 170.756 137.917 170.734 137.849 170.697C137.781 170.659 137.722 170.607 137.676 170.544C136.303 168.725 134.3 167.483 132.059 167.063C129.819 166.644 127.502 167.075 125.564 168.274C125.444 168.332 125.307 168.342 125.18 168.301C125.053 168.261 124.947 168.173 124.884 168.056C124.821 167.939 124.807 167.801 124.845 167.674C124.884 167.547 124.971 167.44 125.088 167.376C127.254 166.094 129.814 165.648 132.286 166.124C134.758 166.6 136.97 167.964 138.505 169.959C138.581 170.07 138.61 170.206 138.587 170.337C138.564 170.469 138.491 170.587 138.383 170.666C138.292 170.73 138.182 170.763 138.07 170.761Z" fill="black"/>
<path d="M152.617 166.818C149.916 166.776 147.302 167.774 145.317 169.605C145.226 169.703 145.176 169.832 145.176 169.966C145.176 170.099 145.226 170.228 145.317 170.326C145.413 170.42 145.543 170.472 145.677 170.472C145.812 170.472 145.941 170.42 146.037 170.326C147.843 168.64 150.229 167.715 152.699 167.743C152.644 167.471 152.631 167.145 152.617 166.818Z" fill="black"/>
<path d="M106.696 169.034C106.764 167.538 107.276 166.095 108.165 164.89C109.054 163.684 110.28 162.769 111.689 162.26C113.098 161.752 114.627 161.673 116.081 162.033C117.535 162.393 118.85 163.177 119.858 164.284C120.867 165.392 121.524 166.774 121.747 168.255C121.97 169.737 121.749 171.251 121.111 172.606C120.473 173.962 119.448 175.098 118.164 175.87C116.881 176.643 115.397 177.017 113.901 176.946C111.896 176.851 110.012 175.965 108.661 174.481C107.31 172.998 106.603 171.039 106.696 169.034Z" fill="#D8948F"/>
<path d="M117.679 170.272C117.679 170.272 115.545 164.004 108.965 165.051" stroke="black" stroke-width="0.5" stroke-linecap="round" stroke-linejoin="round"/>
<path d="M143.63 180.984C143.63 180.984 136.302 183.186 133.121 176.267" stroke="black" stroke-width="0.5" stroke-linecap="round" stroke-linejoin="round"/>
<path d="M113.272 154.814C113.989 150.443 116.168 146.444 119.453 143.472C122.739 140.501 126.935 138.732 131.356 138.456C135.777 138.18 140.161 139.412 143.791 141.951C147.421 144.491 150.081 148.187 151.337 152.435C151.337 152.435 151.337 152.53 151.337 152.612C151.941 154.065 152.211 155.635 152.125 157.207C152.125 157.207 147.979 155.113 139.102 146.793C138.011 144.51 137.071 142.157 136.287 139.751L138.694 146.548C138.694 146.548 137.661 163.881 112.864 161.815L113.095 161.095C112.735 159.01 112.795 156.875 113.272 154.814Z" fill="black"/>
<path d="M115.067 175.927C115.07 174.717 114.713 173.532 114.043 172.525C113.372 171.517 112.418 170.731 111.3 170.265C110.182 169.8 108.952 169.677 107.764 169.912C106.577 170.146 105.486 170.728 104.629 171.583C103.772 172.438 103.188 173.528 102.951 174.715C102.713 175.902 102.834 177.133 103.296 178.251C103.759 179.37 104.543 180.326 105.549 180.999C106.556 181.672 107.739 182.031 108.95 182.031C110.57 182.031 112.124 181.388 113.27 180.244C114.417 179.1 115.063 177.547 115.067 175.927Z" stroke="#FFBF00" stroke-width="0.5" stroke-linecap="round" stroke-linejoin="round"/>
<path d="M86.4241 340.882C86.4241 340.882 73.7541 335.254 67.9628 345.586C67.9628 345.586 25.8878 355.102 25.1945 358.324C24.9486 359.171 24.9622 360.071 25.2336 360.91C25.505 361.748 26.0218 362.486 26.7171 363.028H85.5269L86.4241 340.882Z" fill="#D8948F"/>
<path d="M52.7112 293.438L195.888 299.99C195.888 299.99 218.265 303.28 218.265 332.413C218.265 361.546 176.979 365.597 176.979 365.597L79.7235 364.061L81.2732 323.917C81.2732 323.917 49.0543 326.037 52.7112 293.438Z" fill="black"/>
<path d="M81.2734 323.916L188.262 329.517" stroke="white" stroke-width="0.5" stroke-linecap="round" stroke-linejoin="round"/>
<path d="M216.525 270.626C216.525 270.626 236.454 262.973 236.685 264.604C236.916 266.235 230.5 269.471 230.5 269.471C230.5 269.471 240.016 270.681 245.304 270.994C246.294 271.075 247.229 271.48 247.966 272.146C248.703 272.812 249.201 273.701 249.383 274.678L250.389 279.898C250.389 279.898 240.709 280.945 235.435 281.135C230.16 281.325 214.336 280.985 214.336 280.985L216.525 270.626Z" fill="#D8948F"/>
<path d="M249.247 274.174L237.094 273.671" stroke="black" stroke-width="0.5" stroke-linecap="round" stroke-linejoin="round"/>
<path d="M249.843 277.518L237.676 277.015" stroke="black" stroke-width="0.5" stroke-linecap="round" stroke-linejoin="round"/>
<path d="M52.7109 293.437C52.7109 293.437 63.6953 194.959 117.135 185.524L116.592 180.834L137.092 190.446L135.733 192.09L154.343 241.724C155.375 246.154 157.679 250.187 160.97 253.326C164.262 256.466 168.399 258.576 172.873 259.397L218.319 267.689V286.559C218.319 286.559 155.485 296.292 141.837 290.338L142.693 297.597L52.7109 293.437Z" fill="#FFBF00"/>
<path d="M141.781 290.297C141.781 290.297 108.339 272.148 113.709 230.019" stroke="white" stroke-width="0.5" stroke-linecap="round" stroke-linejoin="round"/>
<path d="M218.265 267.649L210.258 266.181L210.734 287.606L218.265 286.518V267.649Z" fill="white"/>
<path d="M249.641 111.176C247.277 110.77 244.857 110.834 242.517 111.363C240.178 111.892 237.966 112.877 236.008 114.261C234.049 115.645 232.382 117.402 231.103 119.43C229.823 121.459 228.955 123.719 228.549 126.083C228.143 128.446 228.206 130.867 228.735 133.206C229.265 135.545 230.25 137.757 231.634 139.716C233.018 141.674 234.774 143.341 236.803 144.621C238.831 145.901 241.092 146.768 243.455 147.175L237.474 182.058L272.371 188.04C272.776 185.676 273.643 183.415 274.922 181.387C276.201 179.358 277.867 177.601 279.825 176.216C281.783 174.831 283.994 173.846 286.333 173.316C288.672 172.786 291.092 172.721 293.456 173.127C295.82 173.532 298.08 174.399 300.109 175.678C302.138 176.957 303.895 178.623 305.279 180.58C306.664 182.538 307.65 184.75 308.18 187.089C308.71 189.428 308.774 191.848 308.369 194.212L343.253 200.193L361.401 94.4144L255.622 76.2793L249.641 111.176Z" fill="#0070C0"/>
<path d="M517.696 188.556C517.18 190.16 516.853 191.275 516.5 192.308L507.895 218.613C507.052 221.183 506.644 221.4 504.156 220.598C494.64 217.512 485.192 214.372 475.689 211.327C473.786 210.715 473.188 209.804 473.84 207.847C477.04 198.24 480.184 188.615 483.275 178.972C483.819 177.273 484.716 176.688 486.47 177.273C496.23 180.481 506.018 183.635 515.766 186.897C516.568 187.169 517.139 188.08 517.696 188.556ZM477.402 208.214L504.741 217.132C507.745 207.901 510.668 198.942 513.659 189.793L486.32 180.875C483.316 190.065 480.434 199.024 477.402 208.214Z" fill="#32CD32"/>
<path d="M181.356 77.0269L184.877 78.7941L209.51 91.4098C211.916 92.6469 212.066 93.082 210.869 95.4882C206.329 104.379 201.747 113.243 197.275 122.147C196.364 123.928 195.372 124.39 193.536 123.438C184.564 118.735 175.555 114.117 166.51 109.586C164.92 108.784 164.485 107.805 165.328 106.16C170.045 97.0244 174.681 87.8617 179.425 78.7398C179.819 77.9241 180.825 77.4755 181.356 77.0269ZM194.461 119.904L207.552 94.3055L181.954 81.214L168.876 106.867L194.461 119.904Z" fill="#32CD32"/>
<path d="M398.092 295.544C397.753 301.907 397.44 308.269 397.086 314.577C396.951 317.01 395.972 317.554 393.946 316.262C383.234 309.374 372.53 302.455 361.836 295.504C359.946 294.28 360.014 293.07 362.013 292.037C373.341 286.209 384.67 280.391 395.999 274.582C398.147 273.48 399.071 274.147 398.963 276.594C398.704 282.956 398.392 289.25 398.092 295.544ZM365.153 293.994L394.096 312.66C394.667 301.091 395.224 289.93 395.795 278.293L365.153 293.994Z" fill="#0070C0"/>
<path d="M81.5839 107.601L99.8957 113.147C102.22 113.868 102.519 114.942 100.779 116.6C91.517 125.355 82.241 134.097 72.9514 142.824C71.3065 144.36 70.1509 144.007 69.6208 141.818C66.6753 129.393 63.7343 116.995 60.7979 104.624C60.2541 102.285 61.1106 101.538 63.5168 102.231C69.512 103.998 75.548 105.806 81.5839 107.601ZM72.2037 139.208L97.2584 115.581L64.2917 105.711C66.9834 117.117 69.5392 127.952 72.2037 139.208Z" fill="#0070C0"/>
<path d="M338.166 52.8424C338.859 54.0659 340.137 56.3633 341.483 58.6064C343.685 62.2634 346.921 62.3313 349.259 58.7424C350.537 56.7984 351.543 54.664 352.848 52.7608C357.592 45.7596 366.442 45.9635 370.833 53.1958C371.88 54.9359 372.777 56.7576 373.824 58.4977C376.244 62.4945 379.507 62.576 381.981 58.5792C383.232 56.6216 384.251 54.5009 385.556 52.5977C386.41 51.2153 387.588 50.062 388.988 49.2376C390.388 48.4133 391.968 47.9427 393.591 47.8668C394.95 47.8668 396.065 48.2202 395.888 49.6069C395.732 50.0507 395.467 50.4486 395.118 50.7643C394.769 51.08 394.347 51.3037 393.89 51.4149C392.689 51.5341 391.535 51.9458 390.53 52.6142C389.525 53.2825 388.7 54.1871 388.126 55.2486C386.834 57.3557 385.706 59.5716 384.251 61.57C380.785 66.3689 375.156 66.4097 371.635 61.57C370.3 59.574 369.07 57.5094 367.951 55.3845C364.702 49.9467 358.979 49.77 355.526 55.1534C354.234 57.1654 353.188 59.3541 351.787 61.2981C348.158 66.3281 342.108 66.165 338.75 60.9855C337.391 58.9055 336.263 56.7032 334.957 54.5961C334.422 53.6043 333.641 52.767 332.689 52.1646C331.736 51.5623 330.645 51.2151 329.52 51.1566C328.16 51.1566 327.127 50.4361 327.548 49.0903C327.781 48.6757 328.113 48.3249 328.514 48.0688C328.914 47.8128 329.372 47.6593 329.846 47.6221C333.054 47.7036 335.542 49.2942 338.166 52.8424Z" fill="#32CD32"/>
<path d="M153.418 468.643C154.125 469.867 155.389 472.164 156.748 474.407C158.951 478.064 162.186 478.132 164.511 474.543C165.789 472.599 166.808 470.465 168.113 468.562C172.844 461.561 181.708 461.765 186.085 468.997C187.146 470.737 188.029 472.559 189.076 474.299C191.496 478.295 194.772 478.377 197.233 474.38C198.484 472.423 199.517 470.302 200.822 468.399C201.671 467.015 202.846 465.86 204.244 465.036C205.642 464.211 207.221 463.741 208.843 463.668C210.134 463.668 211.317 464.021 211.14 465.408C210.986 465.851 210.724 466.248 210.377 466.564C210.031 466.88 209.611 467.104 209.155 467.216C207.954 467.333 206.799 467.744 205.794 468.412C204.789 469.081 203.964 469.987 203.391 471.05C202.032 473.157 200.958 475.373 199.517 477.371C196.037 482.17 190.408 482.211 186.887 477.371C185.562 475.372 184.336 473.307 183.217 471.186C179.968 465.748 174.245 465.571 170.792 470.954C169.432 472.966 168.44 475.155 167.039 477.099C163.423 482.129 157.374 481.966 154.016 476.786C152.656 474.707 151.528 472.504 150.223 470.397C149.685 469.408 148.903 468.573 147.951 467.971C146.999 467.369 145.91 467.02 144.785 466.958C143.426 466.89 142.393 466.237 142.814 464.891C143.049 464.478 143.381 464.129 143.781 463.873C144.181 463.617 144.638 463.463 145.112 463.423C148.306 463.505 150.808 465.095 153.418 468.643Z" fill="#32CD32"/>
<path d="M216.918 196.02L239.648 209.791L216.918 222.284V196.02Z" fill="#32CD32"/>
<path d="M383.18 227.654C385.087 227.654 386.633 226.108 386.633 224.201C386.633 222.294 385.087 220.748 383.18 220.748C381.272 220.748 379.727 222.294 379.727 224.201C379.727 226.108 381.272 227.654 383.18 227.654Z" fill="#FF0066"/>
<path d="M140.176 80.6835C140.176 80.0005 140.378 79.3329 140.758 78.7651C141.137 78.1973 141.676 77.7547 142.307 77.4933C142.938 77.232 143.633 77.1636 144.302 77.2968C144.972 77.4301 145.588 77.7589 146.07 78.2418C146.553 78.7247 146.882 79.34 147.015 80.0098C147.149 80.6797 147.08 81.3739 146.819 82.0049C146.558 82.6358 146.115 83.1751 145.547 83.5545C144.979 83.934 144.312 84.1365 143.629 84.1365C142.713 84.1365 141.835 83.7727 141.187 83.1251C140.54 82.4776 140.176 81.5993 140.176 80.6835Z" fill="#1C1C1C"/>
<path d="M214.812 373.577C214.812 372.894 215.015 372.226 215.394 371.659C215.774 371.091 216.313 370.648 216.944 370.387C217.575 370.126 218.269 370.057 218.939 370.19C219.609 370.324 220.224 370.652 220.707 371.135C221.19 371.618 221.519 372.234 221.652 372.903C221.785 373.573 221.717 374.267 221.456 374.898C221.194 375.529 220.752 376.069 220.184 376.448C219.616 376.828 218.948 377.03 218.265 377.03C217.351 377.026 216.475 376.662 215.828 376.015C215.181 375.368 214.816 374.492 214.812 373.577Z" fill="#FF0066"/>
<path d="M200.66 40.9196C200.663 40.2373 200.868 39.571 201.249 39.005C201.63 38.4389 202.17 37.9985 202.801 37.7392C203.432 37.4799 204.126 37.4135 204.795 37.5482C205.464 37.683 206.078 38.0129 206.56 38.4964C207.041 38.9798 207.369 39.5951 207.501 40.2646C207.633 40.934 207.564 41.6276 207.302 42.2578C207.04 42.8879 206.598 43.4264 206.03 43.8052C205.463 44.184 204.796 44.3862 204.113 44.3862C203.659 44.3862 203.208 44.2965 202.789 44.1221C202.369 43.9477 201.988 43.6921 201.667 43.3701C201.346 43.048 201.092 42.6657 200.919 42.2452C200.746 41.8247 200.658 41.3742 200.66 40.9196Z" fill="#1C1C1C"/>
<path d="M376.639 389.918C378.118 389.918 379.317 388.719 379.317 387.24C379.317 385.761 378.118 384.562 376.639 384.562C375.16 384.562 373.961 385.761 373.961 387.24C373.961 388.719 375.16 389.918 376.639 389.918Z" fill="#FF0066"/>
<path d="M430.078 269.634C431.985 269.634 433.531 268.088 433.531 266.181C433.531 264.274 431.985 262.728 430.078 262.728C428.171 262.728 426.625 264.274 426.625 266.181C426.625 268.088 428.171 269.634 430.078 269.634Z" fill="#FF0066"/>
<path d="M21.6055 320.042C21.6082 319.358 21.8141 318.69 22.197 318.123C22.5799 317.556 23.1225 317.116 23.7561 316.858C24.3896 316.6 25.0856 316.536 25.7556 316.674C26.4256 316.812 27.0395 317.146 27.5193 317.634C27.9992 318.121 28.3235 318.74 28.451 319.412C28.5785 320.085 28.5035 320.779 28.2355 321.409C27.9675 322.038 27.5185 322.574 26.9457 322.948C26.3728 323.322 25.7018 323.517 25.0177 323.509C24.1066 323.498 23.2368 323.128 22.5976 322.478C21.9585 321.829 21.6018 320.953 21.6055 320.042Z" fill="#FF0066"/>
<path d="M581.211 253.687C581.208 253.001 581.41 252.329 581.79 251.756C582.169 251.184 582.711 250.738 583.345 250.474C583.979 250.21 584.677 250.14 585.351 250.273C586.024 250.407 586.643 250.737 587.129 251.223C587.614 251.708 587.945 252.327 588.078 253.001C588.211 253.675 588.142 254.373 587.878 255.007C587.614 255.641 587.167 256.182 586.595 256.562C586.023 256.942 585.351 257.143 584.664 257.14C583.748 257.14 582.87 256.777 582.222 256.129C581.575 255.482 581.211 254.603 581.211 253.687Z" fill="#FFBF00"/>
<path d="M36.4374 225.928C37.391 225.928 38.1639 225.155 38.1639 224.201C38.1639 223.248 37.391 222.475 36.4374 222.475C35.4839 222.475 34.7109 223.248 34.7109 224.201C34.7109 225.155 35.4839 225.928 36.4374 225.928Z" fill="#FF0066"/>
<path d="M596.871 297.298C597.825 297.298 598.598 296.525 598.598 295.572C598.598 294.618 597.825 293.845 596.871 293.845C595.917 293.845 595.145 294.618 595.145 295.572C595.145 296.525 595.917 297.298 596.871 297.298Z" fill="#FFBF00"/>
<path d="M361.754 253.674C363.661 253.674 365.207 252.128 365.207 250.221C365.207 248.314 363.661 246.768 361.754 246.768C359.847 246.768 358.301 248.314 358.301 250.221C358.301 252.128 359.847 253.674 361.754 253.674Z" fill="#1C1C1C"/>
<path d="M88.1523 463.45C88.1523 463.109 88.2536 462.775 88.4433 462.491C88.633 462.207 88.9027 461.986 89.2181 461.855C89.5336 461.725 89.8808 461.69 90.2157 461.757C90.5506 461.824 90.8582 461.988 91.0997 462.23C91.3411 462.471 91.5056 462.779 91.5722 463.114C91.6388 463.448 91.6046 463.796 91.4739 464.111C91.3432 464.427 91.122 464.696 90.838 464.886C90.5541 465.076 90.2203 465.177 89.8788 465.177C89.4209 465.177 88.9818 464.995 88.658 464.671C88.3342 464.347 88.1523 463.908 88.1523 463.45Z" fill="#FFBF00"/>
<path d="M184.809 227.654C184.809 226.971 185.011 226.303 185.391 225.736C185.77 225.168 186.309 224.725 186.94 224.464C187.571 224.202 188.265 224.134 188.935 224.267C189.605 224.401 190.22 224.729 190.703 225.212C191.186 225.695 191.515 226.31 191.648 226.98C191.782 227.65 191.713 228.344 191.452 228.975C191.19 229.606 190.748 230.146 190.18 230.525C189.612 230.904 188.945 231.107 188.262 231.107C187.346 231.107 186.468 230.743 185.82 230.096C185.172 229.448 184.809 228.57 184.809 227.654Z" fill="#1C1C1C"/>
<path d="M117.68 31.9337C118.633 31.9337 119.406 31.1607 119.406 30.2072C119.406 29.2537 118.633 28.4807 117.68 28.4807C116.726 28.4807 115.953 29.2537 115.953 30.2072C115.953 31.1607 116.726 31.9337 117.68 31.9337Z" fill="#FF0066"/>
<path d="M288.656 60.5908C290.563 60.5908 292.109 59.0449 292.109 57.1378C292.109 55.2308 290.563 53.6848 288.656 53.6848C286.749 53.6848 285.203 55.2308 285.203 57.1378C285.203 59.0449 286.749 60.5908 288.656 60.5908Z" fill="#FFBF00"/>
<path d="M327.453 74.5656C328.407 74.5656 329.18 73.7926 329.18 72.8391C329.18 71.8855 328.407 71.1125 327.453 71.1125C326.5 71.1125 325.727 71.8855 325.727 72.8391C325.727 73.7926 326.5 74.5656 327.453 74.5656Z" fill="#FFBF00"/>
<path d="M393.824 86.1756C393.822 85.1533 394.122 84.1532 394.688 83.3019C395.254 82.4506 396.06 81.7863 397.004 81.3932C397.948 81.0002 398.987 80.8959 399.99 81.0937C400.993 81.2915 401.914 81.7824 402.638 82.5044C403.362 83.2263 403.855 84.1467 404.056 85.1492C404.256 86.1517 404.155 87.191 403.764 88.1358C403.374 89.0805 402.711 89.8881 401.862 90.4564C401.012 91.0246 400.012 91.3279 398.99 91.3279C397.622 91.3279 396.31 90.7855 395.342 89.8197C394.374 88.8538 393.828 87.5433 393.824 86.1756Z" fill="#FFBF00"/>
<path d="M422.305 214.303C425.15 214.303 427.457 211.997 427.457 209.151C427.457 206.306 425.15 203.999 422.305 203.999C419.459 203.999 417.152 206.306 417.152 209.151C417.152 211.997 419.459 214.303 422.305 214.303Z" fill="#1C1C1C"/>
<path d="M371.488 322.095C371.486 321.072 371.787 320.071 372.353 319.22C372.92 318.368 373.727 317.704 374.671 317.311C375.616 316.918 376.655 316.815 377.659 317.014C378.662 317.213 379.584 317.705 380.307 318.428C381.03 319.152 381.523 320.073 381.722 321.077C381.92 322.08 381.817 323.12 381.424 324.064C381.032 325.009 380.367 325.816 379.516 326.382C378.664 326.949 377.663 327.25 376.641 327.247C375.275 327.243 373.967 326.7 373.001 325.734C372.036 324.769 371.492 323.46 371.488 322.095Z" fill="#FF0066"/>
</svg>
