<svg width="100" height="100" viewBox="0 0 100 100" fill="none" xmlns="http://www.w3.org/2000/svg">
<rect width="100" height="100" fill="#F6F6F6"/>
<path fill-rule="evenodd" clip-rule="evenodd" d="M28.2319 36.5074C27.2162 37.0271 27.2139 38.3632 28.2279 38.8813L28.5316 39.0364H37.423H46.3146L46.62 38.8885C47.4182 38.5023 47.5854 37.3608 46.9332 36.7504C46.4763 36.323 47.0595 36.3475 37.3701 36.3495L28.5367 36.3516L28.2319 36.5074ZM51.4599 43.6555V49.7224H56.3892C59.1757 49.7224 61.3186 49.7487 61.3186 49.7829C61.3186 49.8163 61.4116 49.8821 61.5254 49.9292C61.6392 49.9762 61.7322 50.0421 61.7322 50.0755C61.7322 50.1088 61.7962 50.136 61.8743 50.136C61.9523 50.136 61.9999 50.1624 61.9799 50.1946C61.9601 50.2268 62.028 50.2963 62.1311 50.3492C62.234 50.4021 62.3684 50.4999 62.4297 50.5664C62.4911 50.6331 62.5919 50.6876 62.6538 50.6876C62.7157 50.6876 62.7664 50.7113 62.7664 50.7403C62.7664 50.7692 62.8905 50.8696 63.0421 50.9633C63.1938 51.0571 63.3179 51.1574 63.3179 51.1863C63.3179 51.2153 63.3751 51.2391 63.4451 51.2391C63.5151 51.2391 63.6285 51.3011 63.6971 51.377C63.7657 51.4528 63.8636 51.5149 63.9146 51.5149C63.9656 51.5149 64.0073 51.5412 64.0073 51.5735C64.0073 51.6386 64.669 52.0664 64.7696 52.0664C64.8048 52.0664 64.8722 52.1284 64.9196 52.2043C64.967 52.2801 65.0585 52.3422 65.1231 52.3422C65.1876 52.3422 65.2838 52.404 65.3367 52.4795C65.3896 52.5552 65.4515 52.5986 65.4739 52.576C65.4964 52.5536 65.5849 52.6003 65.6704 52.68C65.7558 52.7596 65.8596 52.8248 65.901 52.8248C65.9423 52.8248 66.0209 52.8868 66.0756 52.9626C66.1302 53.0385 66.2302 53.1005 66.2976 53.1005C66.3651 53.1005 66.4203 53.1264 66.4203 53.1577C66.4203 53.1893 66.5056 53.2591 66.6099 53.3129C66.7141 53.3668 66.84 53.465 66.8896 53.5314C67.0335 53.7241 67.3165 53.6898 67.3165 53.4797C67.3165 53.3849 67.2855 53.3073 67.2476 53.3073C67.2097 53.3073 67.1786 53.2317 67.1786 53.1391C67.1786 53.0466 67.1476 52.9516 67.1097 52.9282C67.0718 52.9047 67.0407 52.8116 67.0407 52.7213C67.0407 52.631 67.0097 52.538 66.9718 52.5145C66.9339 52.4911 66.9029 52.398 66.9029 52.3077C66.9029 52.2174 66.8718 52.1243 66.8339 52.1009C66.796 52.0774 66.765 51.9652 66.765 51.8515C66.765 51.7213 66.7374 51.6615 66.6907 51.6905C66.6412 51.721 66.628 51.6636 66.6509 51.518C66.6745 51.368 66.6547 51.2879 66.5873 51.262C66.5282 51.2393 66.5008 51.1608 66.5182 51.0647C66.5361 50.9661 66.508 50.8899 66.4449 50.8656C66.3886 50.8441 66.3636 50.7925 66.3891 50.7512C66.4148 50.7096 66.3877 50.5776 66.3289 50.4576C66.1888 50.1712 66.1233 49.9873 66.1161 49.8602C66.1109 49.7706 66.3641 49.7568 68.0059 49.7568C69.1902 49.7568 69.9208 49.731 69.9525 49.6879C70.0892 49.5019 70.0102 37.7341 69.8718 37.66C69.7819 37.6119 66.7674 37.5886 60.5992 37.5886H51.4599V43.6555ZM28.3299 40.4485C27.2612 40.8254 27.186 42.3863 28.2131 42.8785C28.4845 43.0086 45.9882 43.0752 46.4432 42.9478C47.4604 42.6632 47.6395 41.1183 46.7219 40.5436L46.4616 40.3807L37.5337 40.3659C29.9987 40.3535 28.5626 40.3664 28.3299 40.4485ZM28.5781 44.349C27.2615 44.6143 27.0716 46.3671 28.3042 46.8764C28.788 47.0762 36.4482 47.1234 37.0976 46.9306C38.3086 46.5709 38.413 45.0059 37.2643 44.4337C36.9875 44.296 29.2182 44.2201 28.5781 44.349ZM36.1403 56.1445C36.0914 56.1753 35.9196 56.2013 35.7584 56.2019C35.5972 56.2024 35.4654 56.2274 35.4654 56.2572C35.4654 56.3075 35.3325 56.3396 35.0345 56.3615C34.9682 56.3663 34.9139 56.3947 34.9139 56.4245C34.9139 56.4544 34.8518 56.4787 34.776 56.4787C34.7001 56.4787 34.6381 56.5097 34.6381 56.5476C34.6381 56.5855 34.5605 56.6166 34.4657 56.6166C34.3709 56.6166 34.2934 56.6476 34.2934 56.6855C34.2934 56.7234 34.2469 56.7544 34.19 56.7544C34.1331 56.7544 34.0866 56.7874 34.0866 56.8275C34.0866 56.8677 34.059 56.8835 34.0254 56.8627C33.9918 56.8418 33.9259 56.8711 33.879 56.9275C33.8322 56.984 33.7587 57.0302 33.7158 57.0302C33.6729 57.0302 33.5059 57.1543 33.3449 57.306C33.1839 57.4576 33.0345 57.5817 33.013 57.5817C32.9912 57.5817 32.9271 57.6283 32.8703 57.6851C32.8134 57.742 32.7846 57.7886 32.8061 57.7886C32.8277 57.7886 32.721 57.917 32.5688 58.0736C32.4164 58.2305 32.2736 58.4321 32.2512 58.5218C32.2286 58.6116 32.1826 58.6848 32.1488 58.6848C32.1148 58.6848 32.0872 58.7288 32.0872 58.7825C32.0872 58.8361 32.064 58.8904 32.0355 58.9032C31.9509 58.9408 31.6736 59.5149 31.6736 59.6524C31.6736 59.7224 31.6426 59.7989 31.6047 59.8223C31.5667 59.8458 31.5357 59.9735 31.5357 60.1062C31.5357 60.2496 31.5078 60.3303 31.4668 60.3049C31.4232 60.2781 31.3978 60.4523 31.3978 60.7794C31.3978 61.0638 31.3716 61.3127 31.3394 61.3325C31.2591 61.3822 31.2537 61.7872 31.3335 61.7872C31.3689 61.7872 31.3978 62.018 31.3978 62.3001C31.3978 62.5823 31.4289 62.8323 31.4668 62.8558C31.5047 62.8792 31.5357 62.9835 31.5357 63.0874C31.5357 63.1914 31.5614 63.3058 31.5926 63.3418C31.624 63.3778 31.691 63.5392 31.7415 63.7003C31.7922 63.8615 31.8596 63.9933 31.8915 63.9933C31.9233 63.9933 31.9494 64.0412 31.9494 64.0997C31.9494 64.1581 32.0114 64.2725 32.0872 64.3539C32.1631 64.4352 32.2251 64.5426 32.2251 64.5923C32.2251 64.6421 32.2524 64.6827 32.2856 64.6827C32.3191 64.6827 32.3854 64.777 32.4332 64.8923C32.4809 65.0076 32.5845 65.1472 32.6636 65.2026C32.7427 65.2579 32.7839 65.3032 32.7551 65.3032C32.7263 65.3032 32.7737 65.3766 32.8604 65.4664C32.9471 65.5562 33.0414 65.6164 33.0702 65.6C33.0988 65.5836 33.141 65.6188 33.1638 65.6781C33.1865 65.7374 33.2456 65.7858 33.2953 65.7858C33.3451 65.7858 33.3959 65.8108 33.4087 65.8415C33.442 65.9223 34.014 66.2984 34.2762 66.4118C34.3994 66.4652 34.5002 66.5323 34.5002 66.5611C34.5002 66.5897 34.5759 66.6131 34.6684 66.6131C34.761 66.6131 34.8535 66.6402 34.8739 66.6731C34.9719 66.8317 38.101 66.9618 38.1941 66.8111C38.2145 66.7781 38.3051 66.751 38.3954 66.751C38.4857 66.751 38.5788 66.72 38.6023 66.6821C38.6257 66.6441 38.6922 66.6131 38.7501 66.6131C38.8909 66.6131 39.7398 66.1879 39.7398 66.1173C39.7398 66.0866 39.7863 66.0616 39.8432 66.0616C39.9001 66.0616 39.9466 66.0306 39.9466 65.9926C39.9466 65.9547 39.9782 65.9237 40.0166 65.9237C40.0802 65.9237 40.3175 65.6877 40.9096 65.0362C41.0257 64.9084 41.1736 64.7145 41.2381 64.6054C41.3025 64.4963 41.3796 64.407 41.4092 64.407C41.439 64.407 41.4633 64.3449 41.4633 64.2691C41.4633 64.1933 41.4944 64.1312 41.5323 64.1312C41.5702 64.1312 41.6012 64.0692 41.6012 63.9933C41.6012 63.9175 41.6322 63.8554 41.6702 63.8554C41.7081 63.8554 41.7391 63.7934 41.7391 63.7176C41.7391 63.6417 41.7667 63.5797 41.8003 63.5797C41.8611 63.5797 41.9199 63.3625 41.9916 62.8725C42.0125 62.7301 42.0571 62.5964 42.0911 62.5755C42.1771 62.5223 42.1702 60.6341 42.0838 60.5807C42.0459 60.5573 42.0149 60.4158 42.0149 60.2663C42.0149 60.1169 41.9838 59.9947 41.9459 59.9947C41.908 59.9947 41.877 59.9016 41.877 59.7879C41.877 59.6741 41.846 59.581 41.808 59.581C41.7701 59.581 41.7391 59.5331 41.7391 59.4745C41.7391 59.3237 41.4232 58.7481 41.3697 58.8015C41.3454 58.8258 41.3255 58.7784 41.3255 58.6964C41.3255 58.6141 41.3008 58.5469 41.2708 58.5469C41.2407 58.5469 41.1243 58.3925 41.0123 58.2036C40.9001 58.0147 40.7677 57.8596 40.7181 57.8589C40.6684 57.8582 40.6471 57.8265 40.6705 57.7886C40.6939 57.7506 40.6596 57.7196 40.5942 57.7196C40.5287 57.7196 40.4944 57.7005 40.5178 57.6769C40.5942 57.6007 39.4458 56.7544 39.2662 56.7544C39.2232 56.7544 39.1883 56.7234 39.1883 56.6855C39.1883 56.6476 39.1314 56.6166 39.0619 56.6166C38.9923 56.6166 38.9142 56.5954 38.8882 56.5693C38.8196 56.5006 38.3468 56.343 38.2058 56.3418C38.1395 56.3413 38.0852 56.3144 38.0852 56.282C38.0852 56.1765 36.2899 56.0495 36.1403 56.1445ZM61.4565 56.1396C61.3617 56.1669 61.1542 56.1922 60.9952 56.196C60.8363 56.1998 60.6871 56.2339 60.6636 56.2718C60.6402 56.3098 60.5449 56.3408 60.4518 56.3408C60.3587 56.3408 60.2288 56.3678 60.1629 56.4011C59.6502 56.6593 59.4308 56.7544 59.3472 56.7544C59.2939 56.7544 59.2498 56.7777 59.2493 56.8061C59.2486 56.8346 59.0937 56.9337 58.9049 57.0264C58.7162 57.119 58.544 57.2508 58.5221 57.3194C58.5004 57.3878 58.4451 57.4438 58.3991 57.4438C58.3532 57.4438 58.27 57.5099 58.2141 57.5905C58.1585 57.6714 57.9675 57.8884 57.79 58.0729C57.6126 58.2575 57.4475 58.4707 57.4234 58.5466C57.3994 58.6226 57.3506 58.6848 57.3153 58.6848C57.28 58.6848 57.251 58.7313 57.251 58.7882C57.251 58.8451 57.22 58.8916 57.1821 58.8916C57.1441 58.8916 57.1131 58.9537 57.1131 59.0295C57.1131 59.1054 57.0821 59.1674 57.0442 59.1674C57.0063 59.1674 56.9752 59.2275 56.9752 59.3011C56.9752 59.3747 56.9442 59.4542 56.9063 59.4776C56.8684 59.5011 56.8374 59.596 56.8374 59.6886C56.8374 59.7812 56.8098 59.8568 56.776 59.8568C56.6195 59.8568 56.4785 62.6279 56.6273 62.7767C56.6671 62.8165 56.6995 62.9513 56.6995 63.0764C56.6995 63.2015 56.7305 63.3039 56.7684 63.3039C56.8063 63.3039 56.8374 63.3815 56.8374 63.4763C56.8374 63.5711 56.8684 63.6486 56.9063 63.6486C56.9442 63.6486 56.9752 63.6922 56.9752 63.7455C56.9752 63.876 57.2622 64.407 57.3327 64.407C57.3636 64.407 57.3889 64.4566 57.3889 64.5173C57.3889 64.5778 57.482 64.7143 57.5957 64.8206C57.7095 64.927 57.8032 65.0402 57.8041 65.0723C57.8069 65.171 58.2358 65.6114 58.5089 65.796C58.6509 65.8918 58.7465 65.9909 58.7214 66.0159C58.6964 66.0411 58.7431 66.0616 58.8251 66.0616C58.9073 66.0616 58.9746 66.0888 58.9746 66.1221C58.9746 66.1555 59.0676 66.2214 59.1814 66.2684C59.2951 66.3155 59.3882 66.3758 59.3882 66.4022C59.3882 66.4287 59.5433 66.4925 59.7329 66.5442C59.9225 66.5959 60.0776 66.6634 60.0776 66.6945C60.0776 66.7257 60.1655 66.751 60.2729 66.751C60.3805 66.751 60.4906 66.7732 60.5176 66.8005C60.5838 66.8665 63.3868 66.8687 63.3868 66.8027C63.3868 66.7743 63.4411 66.7505 63.5075 66.75C63.6485 66.7488 64.1212 66.5912 64.1898 66.5225C64.2159 66.4964 64.2939 66.4752 64.3636 66.4752C64.433 66.4752 64.4899 66.448 64.4899 66.4147C64.4899 66.3813 64.583 66.3155 64.6967 66.2684C64.8105 66.2214 64.9036 66.1555 64.9036 66.1221C64.9036 66.0888 64.9513 66.0616 65.0097 66.0616C65.1431 66.0616 66.4203 64.7777 66.4203 64.6436C66.4203 64.5893 66.4442 64.5449 66.4735 64.5449C66.5028 64.5449 66.5838 64.4285 66.6535 64.2863C66.7233 64.1441 66.8079 63.9739 66.8415 63.908C66.8753 63.8422 66.9029 63.7413 66.9029 63.6839C66.9029 63.6266 66.9339 63.5797 66.9718 63.5797C67.0097 63.5797 67.0407 63.5021 67.0407 63.4073C67.0407 63.3125 67.0718 63.235 67.1097 63.235C67.1476 63.235 67.1786 63.0954 67.1786 62.9247C67.1786 62.7541 67.2097 62.6145 67.2476 62.6145C67.337 62.6145 67.3405 60.5979 67.2512 60.5083C67.2153 60.4723 67.1783 60.311 67.1688 60.1498C67.1593 59.9887 67.1268 59.8568 67.0962 59.8568C67.0657 59.8568 67.0407 59.7948 67.0407 59.7189C67.0407 59.6431 67.0097 59.581 66.9718 59.581C66.9339 59.581 66.9029 59.4861 66.9029 59.3701C66.9029 59.2472 66.8741 59.1771 66.8339 59.2019C66.796 59.2253 66.765 59.1957 66.765 59.136C66.765 59.0019 66.6414 58.7812 66.4375 58.5511C66.3522 58.4547 66.2824 58.3394 66.2824 58.2948C66.2824 58.0935 64.9285 56.8923 64.7016 56.8923C64.661 56.8923 64.6278 56.8663 64.6278 56.8344C64.6278 56.8025 64.5037 56.7355 64.352 56.6855C64.2003 56.6355 64.0763 56.5685 64.0763 56.5366C64.0763 56.5047 63.9987 56.4787 63.9039 56.4787C63.8091 56.4787 63.7315 56.4476 63.7315 56.4097C63.7315 56.3718 63.6292 56.3408 63.504 56.3408C63.3789 56.3408 63.2471 56.3127 63.211 56.2786C63.0871 56.1608 61.7507 56.055 61.4565 56.1396Z" fill="#FBEACF"/>
<path fill-rule="evenodd" clip-rule="evenodd" d="M35.1371 66.87C34.8622 66.8838 34.6373 66.9246 34.6373 66.961C34.6373 66.9972 34.5387 67.0268 34.418 67.0268C34.2975 67.0268 34.1036 67.0554 33.9871 67.0904C33.8708 67.1254 33.5893 67.2045 33.3618 67.2664C33.1343 67.3283 32.8861 67.4057 32.8103 67.4384C32.7345 67.4711 32.5716 67.5391 32.4484 67.5894C32.3251 67.6397 32.2243 67.7043 32.2243 67.7331C32.2243 67.7617 32.1807 67.7852 32.1274 67.7852C32.0382 67.7852 31.4763 68.0504 31.397 68.1301C31.378 68.149 31.2772 68.2085 31.1729 68.2623C31.0687 68.316 30.9833 68.3858 30.9833 68.4174C30.9833 68.4487 30.9282 68.4746 30.8606 68.4746C30.7932 68.4746 30.6933 68.5366 30.6386 68.6125C30.584 68.6883 30.5042 68.7504 30.4613 68.7504C30.4184 68.7504 30.286 68.8434 30.1669 68.9572C30.0478 69.0709 29.9299 69.164 29.9049 69.164C29.8455 69.164 28.4325 70.577 28.4325 70.6364C28.4325 70.6614 28.3394 70.7793 28.2257 70.8984C28.1119 71.0175 28.0188 71.1454 28.0188 71.1826C28.0188 71.22 27.9646 71.3009 27.8982 71.3622C27.761 71.4892 27.5464 71.8283 27.4895 72.0079C27.4685 72.0742 27.4239 72.1285 27.3903 72.1285C27.3568 72.1285 27.3294 72.1906 27.3294 72.2664C27.3294 72.3422 27.3062 72.4045 27.2777 72.4048C27.2158 72.4055 27.0537 72.7393 27.0537 72.8662C27.0537 72.9155 27.0304 72.956 27.002 72.9563C26.9285 72.9572 26.8368 73.1769 26.6136 73.8865C26.3153 74.8352 26.2953 74.9143 26.2953 75.1495C26.2953 75.2702 26.2643 75.3688 26.2264 75.3688C26.1874 75.3688 26.1574 75.5641 26.1574 75.8169C26.1574 76.0697 26.1274 76.265 26.0885 76.265C26.0452 76.265 26.0195 76.7131 26.0195 77.4715C26.0195 78.2299 26.0452 78.678 26.0885 78.678C26.1273 78.678 26.1574 78.8719 26.1574 79.122C26.1574 79.3662 26.1884 79.5853 26.2264 79.6087C26.2643 79.6321 26.2953 79.7736 26.2953 79.9231C26.2953 80.0725 26.3263 80.1947 26.3642 80.1947C26.4022 80.1947 26.4337 80.28 26.4342 80.3843C26.4354 80.6292 26.65 81.316 26.7705 81.4612C26.9325 81.6564 46.7021 81.6311 46.7021 81.4357C46.7021 81.3598 46.7331 81.2978 46.771 81.2978C46.8089 81.2978 46.84 81.2221 46.84 81.1296C46.84 81.037 46.871 80.942 46.9089 80.9186C46.9468 80.8952 46.9778 80.7847 46.9778 80.6732C46.9778 80.5616 47.0089 80.4705 47.0468 80.4705C47.0847 80.4705 47.1157 80.3638 47.1157 80.2333C47.1157 80.1028 47.1468 79.9768 47.1847 79.9534C47.2226 79.93 47.2536 79.7748 47.2536 79.6087C47.2536 79.4425 47.2846 79.2874 47.3226 79.264C47.361 79.2402 47.3915 78.92 47.3915 78.5401C47.3915 78.1602 47.422 77.84 47.4604 77.8162C47.5502 77.7607 47.5502 77.1134 47.4604 77.0579C47.4223 77.0344 47.3915 76.7252 47.3915 76.3684C47.3915 76.0117 47.3606 75.7025 47.3226 75.679C47.2846 75.6556 47.2536 75.483 47.2536 75.2957C47.2536 75.1084 47.2226 74.9551 47.1847 74.9551C47.1468 74.9551 47.1157 74.831 47.1157 74.6794C47.1157 74.5277 47.0847 74.4036 47.0468 74.4036C47.0089 74.4036 46.9778 74.3105 46.9778 74.1968C46.9778 74.083 46.9468 73.9899 46.9089 73.9899C46.871 73.9899 46.84 73.9143 46.84 73.8217C46.84 73.7292 46.8089 73.6342 46.771 73.6108C46.7331 73.5873 46.7021 73.5079 46.7021 73.4343C46.7021 73.3607 46.6711 73.3005 46.6331 73.3005C46.5952 73.3005 46.5642 73.2378 46.5642 73.1609C46.5642 73.0034 46.0975 72.0375 46.0042 72.0022C45.9709 71.9894 45.9437 71.931 45.9437 71.8724C45.9437 71.8136 45.8893 71.7154 45.8226 71.654C45.756 71.5927 45.6576 71.4572 45.6042 71.3529C45.5506 71.2486 45.4809 71.1633 45.4494 71.1633C45.418 71.1633 45.3922 71.1168 45.3922 71.0599C45.3922 71.003 45.3612 70.9565 45.3232 70.9565C45.2853 70.9565 45.2543 70.926 45.2543 70.8888C45.2543 70.7519 43.9821 69.4398 43.8494 69.4398C43.7931 69.4398 43.7288 69.3827 43.7066 69.3129C43.6845 69.2431 43.5894 69.1449 43.4951 69.0944C43.401 69.0441 43.3239 68.977 43.3239 68.9455C43.3239 68.9141 43.2926 68.8882 43.2543 68.8882C43.216 68.8882 43.0875 68.7952 42.9684 68.6814C42.8493 68.5677 42.71 68.4746 42.6588 68.4746C42.6074 68.4746 42.5656 68.4436 42.5656 68.4057C42.5656 68.3677 42.5249 68.3367 42.4751 68.3367C42.4254 68.3367 42.3181 68.2747 42.2367 68.1988C42.1554 68.123 42.0409 68.0609 41.9825 68.0609C41.9241 68.0609 41.8761 68.0299 41.8761 67.992C41.8761 67.9541 41.8339 67.9231 41.7824 67.9231C41.7309 67.9231 41.4904 67.8259 41.2481 67.7071C40.5425 67.3614 39.9659 67.1647 39.6578 67.1647C39.5507 67.1647 39.4632 67.1337 39.4632 67.0958C39.4632 67.0578 39.3453 67.0268 39.2012 67.0268C39.0571 67.0268 38.907 66.9946 38.8677 66.9553C38.791 66.8786 36.942 66.8364 36.8687 66.9096C36.8451 66.9332 37.4037 68.3946 38.11 70.1575C38.8163 71.9203 39.3942 73.4074 39.3942 73.4624C39.3942 73.5766 36.8579 76.1271 36.7443 76.1271C36.651 76.1271 34.0859 73.5656 34.0856 73.4722C34.0852 73.3996 34.7015 71.8109 34.9206 71.3191C34.9923 71.1585 35.0509 70.9951 35.0509 70.9563C35.0509 70.9176 35.0793 70.8319 35.1142 70.766C35.2455 70.5179 35.4646 69.9901 35.4646 69.9222C35.4646 69.8834 35.493 69.7978 35.5278 69.7319C35.674 69.4556 35.8782 68.9522 35.8782 68.8683C35.8782 68.8186 35.9046 68.7485 35.9366 68.7124C35.9689 68.6764 36.129 68.3057 36.2924 67.8886C36.4559 67.4715 36.6173 67.0942 36.6509 67.0503C36.7658 66.9001 36.1066 66.8215 35.1371 66.87Z" fill="#64B4FC"/>
<path fill-rule="evenodd" clip-rule="evenodd" d="M23.332 41.6906V51.1011H26.0208C28.6635 51.1011 28.7095 51.1036 28.7095 51.239C28.7095 51.3149 28.6785 51.3769 28.6406 51.3769C28.6026 51.3769 28.5716 51.439 28.5716 51.5148C28.5716 51.5906 28.5406 51.6527 28.5027 51.6527C28.4648 51.6527 28.4337 51.7458 28.4337 51.8595C28.4337 51.9733 28.4027 52.0663 28.3648 52.0663C28.3269 52.0663 28.2958 52.1284 28.2958 52.2042C28.2958 52.2801 28.2648 52.3421 28.2269 52.3421C28.189 52.3421 28.158 52.389 28.158 52.4464C28.158 52.5038 28.1269 52.6123 28.089 52.6877C28.0511 52.763 27.9891 52.8864 27.9511 52.9617C27.9132 53.037 27.8822 53.1456 27.8822 53.203C27.8822 53.2604 27.8546 53.3073 27.8208 53.3073C27.7871 53.3073 27.7183 53.4469 27.668 53.6175C27.6176 53.7882 27.5521 53.9278 27.5225 53.9278C27.4928 53.9278 27.4685 53.9898 27.4685 54.0656C27.4685 54.1415 27.4375 54.2035 27.3996 54.2035C27.3617 54.2035 27.3307 54.2637 27.3307 54.3373C27.3307 54.4109 27.2996 54.4903 27.2617 54.5138C27.2238 54.5372 27.1928 54.6322 27.1928 54.7247C27.1928 54.8173 27.1618 54.8929 27.1238 54.8929C27.0859 54.8929 27.0549 54.955 27.0549 55.0308C27.0549 55.1067 27.0306 55.1687 27.0009 55.1687C26.9713 55.1687 26.9043 55.3161 26.8519 55.4962C26.7995 55.6763 26.7384 55.8392 26.7162 55.8581C26.6557 55.9097 26.4925 56.3485 26.4532 56.5648C26.4342 56.6691 26.3913 56.7544 26.3577 56.7544C26.3241 56.7544 26.2965 56.8164 26.2965 56.8923C26.2965 56.9681 26.2655 57.0301 26.2276 57.0301C26.1897 57.0301 26.1586 57.0922 26.1586 57.168C26.1586 57.2439 26.1276 57.3059 26.0897 57.3059C26.0518 57.3059 26.0208 57.399 26.0208 57.5127C26.0208 57.8045 26.1981 57.7825 26.5723 57.4438C26.7398 57.2921 26.9046 57.168 26.9384 57.168C26.972 57.168 27.0864 57.075 27.1928 56.9612C27.2991 56.8474 27.4136 56.7544 27.4472 56.7544C27.481 56.7544 27.6457 56.6303 27.8133 56.4786C27.9808 56.3269 28.1455 56.2028 28.1793 56.2028C28.2129 56.2028 28.3274 56.1098 28.4337 55.996C28.5401 55.8823 28.6581 55.7892 28.6962 55.7892C28.7719 55.7892 29.2357 55.4309 29.5866 55.1015C29.7086 54.9869 29.8341 54.8929 29.8651 54.8929C29.8962 54.8929 30.0587 54.7689 30.2262 54.6172C30.3937 54.4655 30.5585 54.3414 30.5923 54.3414C30.6259 54.3414 30.7403 54.2483 30.8467 54.1346C30.953 54.0208 31.068 53.9278 31.1021 53.9278C31.1364 53.9278 31.2762 53.8269 31.4129 53.7037C31.8033 53.3518 31.9472 53.2383 32.0042 53.2383C32.0334 53.2383 32.1019 53.1763 32.1566 53.1005C32.2112 53.0246 32.2814 52.9626 32.3126 52.9626C32.3731 52.9626 32.4777 52.8829 32.7428 52.6351C32.8339 52.5498 32.9365 52.48 32.9704 52.48C33.0046 52.48 33.1297 52.3869 33.2488 52.2732C33.3679 52.1594 33.4928 52.0663 33.5265 52.0663C33.5602 52.0663 33.7155 51.9422 33.8719 51.7906C34.0282 51.6389 34.1824 51.5148 34.2147 51.5148C34.2469 51.5148 34.3707 51.4217 34.4897 51.308L34.7062 51.1011H43.0659L51.4258 51.101L51.4348 41.6906L51.4439 32.28H37.3879H23.332V41.6906ZM46.4708 36.4574C47.5522 36.9022 47.6438 38.3931 46.6204 38.8884L46.315 39.0363H37.4234H28.532L28.2283 38.8812C27.2143 38.3631 27.2166 37.027 28.2322 36.5074L28.5371 36.3516L37.3705 36.3495C45.2969 36.3478 46.2312 36.3588 46.4708 36.4574ZM46.7223 40.5436C47.6399 41.1182 47.4608 42.6632 46.4436 42.9477C45.9886 43.0751 28.4849 43.0086 28.2135 42.8785C27.4339 42.5048 27.226 41.4695 27.8017 40.8276C28.2583 40.3186 27.6057 40.3495 37.534 40.3659L46.462 40.3807L46.7223 40.5436ZM37.2647 44.4336C38.4134 45.0058 38.309 46.5708 37.098 46.9305C36.4486 47.1234 28.7884 47.0761 28.3046 46.8764C27.072 46.3671 27.2619 44.6142 28.5785 44.349C29.2186 44.2201 36.9879 44.2959 37.2647 44.4336Z" fill="#84AC54"/>
<path fill-rule="evenodd" clip-rule="evenodd" d="M60.6299 37.588C65.6919 37.6074 69.8724 37.6482 69.9198 37.6789C69.9758 37.7151 70.0059 37.6968 70.0059 37.6272C70.0059 37.5301 69.0913 37.5213 60.716 37.5363L51.4261 37.5531L60.6299 37.588ZM51.4256 43.6899L51.4261 49.7568L56.3727 49.7913C59.0933 49.8102 61.3193 49.8025 61.3193 49.774C61.3193 49.7456 59.1012 49.7223 56.3903 49.7223H51.4613L51.4432 43.6727L51.4249 37.623L51.4256 43.6899ZM66.1212 49.774C66.1037 49.8025 66.6369 49.8178 67.3065 49.808C69.6049 49.7745 69.831 49.7511 67.9935 49.7368C66.9815 49.7289 66.1388 49.7456 66.1212 49.774ZM66.2196 50.2091C66.2165 50.268 66.2624 50.3766 66.3213 50.4504C66.4268 50.582 66.4275 50.5819 66.3651 50.4462C66.3303 50.3704 66.2845 50.2618 66.2634 50.2049C66.2302 50.1156 66.2243 50.1162 66.2196 50.2091ZM64.6974 52.1272C64.6974 52.1608 64.7612 52.2049 64.8393 52.2253C64.9556 52.2556 64.9665 52.2447 64.8998 52.1644C64.8088 52.0546 64.6974 52.0343 64.6974 52.1272ZM65.1628 52.4131C65.2481 52.4474 65.3179 52.5127 65.3179 52.5582C65.3179 52.6038 65.3379 52.621 65.3622 52.5965C65.4294 52.5293 65.2474 52.3416 65.1199 52.3464C65.0438 52.3495 65.0578 52.3711 65.1628 52.4131ZM60.423 66.8199C60.498 66.8683 60.4373 66.8869 60.2031 66.8878C60.0252 66.8883 59.8605 66.9199 59.837 66.9578C59.8136 66.9957 59.6566 67.0267 59.4882 67.0267C59.3198 67.0267 59.1821 67.0577 59.1821 67.0957C59.1821 67.1336 59.0787 67.1646 58.9523 67.1646C58.8258 67.1646 58.701 67.1862 58.6747 67.2123C58.6485 67.2385 58.5597 67.2703 58.4775 67.2828C58.3953 67.2954 58.2362 67.3514 58.124 67.4075C58.0118 67.4635 57.8627 67.5093 57.7927 67.5093C57.7226 67.5093 57.6653 67.5403 57.6653 67.5783C57.6653 67.6162 57.6033 67.6472 57.5275 67.6472C57.4516 67.6472 57.3896 67.6782 57.3896 67.7161C57.3896 67.7541 57.3275 67.7851 57.2517 67.7851C57.1759 67.7851 57.1138 67.8161 57.1138 67.854C57.1138 67.8919 57.0518 67.923 56.9759 67.923C56.9001 67.923 56.838 67.954 56.838 67.9919C56.838 68.0298 56.776 68.0609 56.7002 68.0609C56.6243 68.0609 56.5623 68.0919 56.5623 68.1298C56.5623 68.1677 56.5071 68.1987 56.4396 68.1987C56.3722 68.1987 56.2722 68.2608 56.2176 68.3366C56.1629 68.4125 56.0699 68.4745 56.0107 68.4745C55.9516 68.4745 55.8586 68.5366 55.8039 68.6124C55.7493 68.6882 55.6683 68.7503 55.6242 68.7503C55.5799 68.7503 55.4704 68.843 55.3808 68.9564C55.2912 69.0698 55.1824 69.1629 55.1391 69.1632C55.0531 69.1639 53.5978 70.5564 53.5978 70.6381C53.5978 70.6656 53.5049 70.7873 53.3913 70.9085C53.2777 71.0297 53.1846 71.1606 53.1845 71.1998C53.1843 71.2387 53.1221 71.3154 53.0462 71.3701C52.9704 71.4247 52.9084 71.5247 52.9084 71.5921C52.9084 71.6596 52.881 71.7148 52.8475 71.7148C52.7941 71.7148 52.4075 72.4324 52.3958 72.5536C52.3934 72.5788 52.368 72.6227 52.3396 72.6512C52.3112 72.6796 52.2879 72.7598 52.2879 72.8294C52.2879 72.8988 52.2569 72.9557 52.2189 72.9557C52.181 72.9557 52.15 73.0197 52.15 73.0977C52.15 73.1758 52.119 73.2205 52.0811 73.197C52.0419 73.1729 52.0121 73.2308 52.0121 73.3308C52.0121 73.4278 51.9811 73.5073 51.9432 73.5073C51.9053 73.5073 51.8742 73.5848 51.8742 73.6796C51.8742 73.7744 51.8432 73.852 51.8053 73.852C51.7674 73.852 51.7364 73.945 51.7364 74.0588C51.7364 74.1725 51.7053 74.2656 51.6674 74.2656C51.6295 74.2656 51.5985 74.3897 51.5985 74.5414C51.5985 74.6931 51.5674 74.8172 51.5295 74.8172C51.4916 74.8172 51.4606 74.935 51.4606 75.0791C51.4606 75.2232 51.4321 75.3706 51.3972 75.4066C51.2615 75.5469 51.1212 78.54 51.2503 78.54C51.2939 78.54 51.3227 78.7318 51.3227 79.0226C51.3227 79.2984 51.3522 79.5052 51.3916 79.5052C51.4296 79.5052 51.4606 79.6603 51.4606 79.8499C51.4606 80.0395 51.4916 80.1946 51.5295 80.1946C51.5674 80.1946 51.5985 80.2858 51.5985 80.3973C51.5985 80.5088 51.6295 80.6193 51.6674 80.6427C51.7053 80.6662 51.7364 80.746 51.7364 80.8201C51.7364 80.8942 51.7638 81.0086 51.7972 81.0745C51.8308 81.1403 51.898 81.2796 51.9468 81.3839L52.0354 81.5734H61.9525H71.8696L71.9803 81.3149C72.0413 81.1727 72.1183 81.0024 72.1516 80.9366C72.1848 80.8708 72.2121 80.7606 72.2121 80.6919C72.2121 80.6231 72.2429 80.536 72.2807 80.4983C72.3184 80.4606 72.3696 80.1896 72.3944 79.8961C72.4192 79.6027 72.466 79.3465 72.4982 79.3265C72.5304 79.3065 72.5568 79.0283 72.5568 78.7082C72.5568 78.3663 72.5852 78.1264 72.6257 78.1264C72.6667 78.1264 72.6947 77.8635 72.6947 77.4755C72.6947 77.1158 72.6638 76.8056 72.6257 76.782C72.5878 76.7586 72.5568 76.493 72.5568 76.1918C72.5568 75.8907 72.5302 75.6445 72.4978 75.6445C72.4654 75.6445 72.4206 75.4266 72.3982 75.1603C72.3536 74.6274 72.2174 74.1307 71.9972 73.6977C71.9637 73.6319 71.9363 73.5174 71.9363 73.4433C71.9363 73.3692 71.9053 73.2894 71.8674 73.266C71.8294 73.2425 71.7984 73.1631 71.7984 73.0895C71.7984 73.0159 71.7674 72.9557 71.7295 72.9557C71.6916 72.9557 71.6605 72.8937 71.6605 72.8178C71.6605 72.742 71.6295 72.68 71.5916 72.68C71.5537 72.68 71.5227 72.6205 71.5227 72.5478C71.5227 72.4752 71.4939 72.4054 71.4589 72.3926C71.4237 72.3801 71.3849 72.3244 71.3727 72.2691C71.3603 72.2136 71.296 72.1069 71.2297 72.0319C71.1633 71.9569 71.109 71.8549 71.109 71.8053C71.109 71.7554 71.078 71.7148 71.0401 71.7148C71.0021 71.7148 70.9711 71.6682 70.9711 71.6114C70.9711 71.5545 70.9401 71.5079 70.9022 71.5079C70.8643 71.5079 70.8332 71.4614 70.8332 71.4045C70.8332 71.3477 70.8074 71.3011 70.776 71.3011C70.7445 71.3011 70.6747 71.2158 70.6209 71.1115C70.5669 71.0073 70.4377 70.8397 70.3334 70.7392C70.2291 70.6386 70.1438 70.5374 70.1438 70.5141C70.1438 70.4554 69.008 69.3018 68.9501 69.3018C68.9242 69.3018 68.7714 69.1777 68.6104 69.026C68.4494 68.8744 68.2855 68.7503 68.2462 68.7503C68.2071 68.7503 68.1302 68.6882 68.0756 68.6124C68.0209 68.5366 67.921 68.4745 67.8536 68.4745C67.786 68.4745 67.7309 68.4495 67.7309 68.4192C67.7309 68.3887 67.5763 68.2878 67.3872 68.1951C67.1983 68.1022 67.0432 68.0031 67.0425 67.9747C67.042 67.9462 66.982 67.923 66.9092 67.923C66.8367 67.923 66.7669 67.8997 66.7541 67.8713C66.7003 67.7501 65.3179 67.1837 65.3179 67.2828C65.3179 67.3089 65.2807 67.2928 65.2352 67.2473C65.1897 67.2018 65.0345 67.1646 64.8905 67.1646C64.7464 67.1646 64.6285 67.1336 64.6285 67.0957C64.6285 67.0577 64.507 67.0267 64.3584 67.0267C64.21 67.0267 64.0776 66.9945 64.0645 66.9552C64.0375 66.8738 62.1204 66.8246 62.0407 66.9033C61.9921 66.9514 62.5251 68.3773 62.6397 68.5055C62.6717 68.5415 62.6981 68.6117 62.6981 68.6613C62.6981 68.7111 62.7633 68.8988 62.8429 69.0784C62.9968 69.4261 63.0885 69.6438 63.1979 69.9223C63.2352 70.0171 63.2931 70.1486 63.3267 70.2144C63.3601 70.2803 63.3875 70.3659 63.3875 70.4047C63.3875 70.4435 63.4527 70.6224 63.5323 70.802C63.6119 70.9817 63.7019 71.1908 63.7324 71.2666C64.3758 72.868 64.5602 73.3537 64.5599 73.4459C64.5595 73.5509 62.0947 76.064 61.9423 76.1146C61.8344 76.1507 59.32 73.6086 59.32 73.4635C59.32 73.3459 60.8013 69.555 61.1559 68.7654C61.2457 68.5653 61.3193 68.3709 61.3193 68.3337C61.3193 68.2963 61.3467 68.212 61.3801 68.1462C61.4137 68.0803 61.4758 67.9411 61.518 67.8368C61.5604 67.7325 61.6298 67.5619 61.6724 67.4576C61.715 67.3533 61.7927 67.1851 61.8453 67.0839L61.941 66.8999L61.4935 66.852C61.2474 66.8256 60.9392 66.824 60.8088 66.8485C60.6709 66.8745 60.5533 66.8633 60.5278 66.822C60.5035 66.783 60.4468 66.7515 60.4017 66.752C60.3524 66.7527 60.3608 66.7797 60.423 66.8199Z" fill="#EB737B"/>
<path fill-rule="evenodd" clip-rule="evenodd" d="M73.6 27.0773C73.3594 27.1295 73.1189 27.2085 73.0657 27.2528C73.0124 27.2969 72.9688 27.3117 72.9688 27.2855C72.9688 27.1164 71.767 28.2453 71.5955 28.5756C71.5417 28.6792 71.4719 28.764 71.4404 28.764C71.409 28.764 71.3832 28.857 71.3832 28.9708C71.3832 29.0845 71.3521 29.1776 71.3142 29.1776C71.2763 29.1776 71.2453 29.2707 71.2453 29.3844C71.2453 29.4982 71.2142 29.5913 71.1763 29.5913C71.1341 29.5913 71.1074 29.9244 71.1074 30.453C71.1074 30.9816 71.1341 31.3148 71.1763 31.3148C71.2142 31.3148 71.2453 31.4079 71.2453 31.5216C71.2453 31.6354 71.2763 31.7285 71.3142 31.7285C71.3521 31.7285 71.3832 31.7905 71.3832 31.8663C71.3832 31.9422 71.4142 32.0042 71.4521 32.0042C71.49 32.0042 71.521 32.0504 71.521 32.1068C71.521 32.2653 72.3313 33.1762 72.4723 33.1762C72.506 33.1762 72.59 33.2383 72.6586 33.3141C72.7272 33.39 72.8251 33.452 72.8761 33.452C72.9271 33.452 72.9688 33.483 72.9688 33.5209C72.9688 33.5589 73.0619 33.5899 73.1756 33.5899C73.2894 33.5899 73.3825 33.6209 73.3825 33.6588C73.3825 33.6967 73.5066 33.7278 73.6582 33.7278C73.8099 33.7278 73.934 33.7588 73.934 33.7967C73.934 33.8372 74.1739 33.8657 74.5159 33.8657C74.8359 33.8657 75.117 33.8346 75.1405 33.7967C75.1639 33.7588 75.2899 33.7278 75.4204 33.7278C75.5509 33.7278 75.6575 33.6967 75.6575 33.6588C75.6575 33.6209 75.7506 33.5899 75.8644 33.5899C75.9781 33.5899 76.0712 33.5589 76.0712 33.5209C76.0712 33.483 76.1264 33.452 76.1939 33.452C76.2613 33.452 76.3613 33.39 76.4159 33.3141C76.4705 33.2383 76.5559 33.1762 76.6053 33.1762C76.7113 33.1762 77.3121 32.5918 77.3121 32.4887C77.3121 32.4498 77.3383 32.4179 77.3702 32.4179C77.4221 32.4179 77.6512 31.9937 77.7984 31.625C78.0173 31.0761 78.0086 29.1776 77.7872 29.1776C77.7534 29.1776 77.7258 29.1156 77.7258 29.0397C77.7258 28.9639 77.6948 28.9018 77.6569 28.9018C77.6189 28.9018 77.5879 28.8398 77.5879 28.764C77.5879 28.6881 77.5569 28.6261 77.519 28.6261C77.4811 28.6261 77.45 28.579 77.45 28.5215C77.45 28.385 76.5881 27.523 76.4516 27.523C76.394 27.523 76.347 27.4973 76.347 27.4658C76.347 27.1175 74.5721 26.8663 73.6 27.0773ZM57.1811 28.4882C57.1265 28.564 57.041 28.6261 56.9914 28.6261C56.9417 28.6261 56.8809 28.6804 56.8563 28.7467C56.8316 28.8131 56.7551 28.9175 56.6861 28.9789C56.5448 29.1044 56.4936 30.3496 56.6296 30.3496C56.6675 30.3496 56.6985 30.3972 56.6985 30.4553C56.6985 30.5925 57.1451 31.039 57.2823 31.039C57.3404 31.039 57.388 31.0701 57.388 31.108C57.388 31.1485 57.6293 31.1769 57.974 31.1769C58.3187 31.1769 58.56 31.1485 58.56 31.108C58.56 31.0701 58.6075 31.039 58.6656 31.039C58.8028 31.039 59.2494 30.5925 59.2494 30.4553C59.2494 30.3972 59.2804 30.3496 59.3183 30.3496C59.3588 30.3496 59.3873 30.1083 59.3873 29.7636C59.3873 29.4189 59.3588 29.1776 59.3183 29.1776C59.2804 29.1776 59.2494 29.13 59.2494 29.072C59.2494 28.9348 58.8028 28.4882 58.6656 28.4882C58.6075 28.4882 58.56 28.4572 58.56 28.4192C58.56 28.2722 57.2911 28.3357 57.1811 28.4882ZM64.1098 30.9937C63.996 31.0366 63.8875 31.0876 63.8685 31.1071C63.8495 31.1266 63.774 31.1755 63.7008 31.216C63.6274 31.2564 63.5343 31.3494 63.494 31.4229C63.4535 31.4961 63.4049 31.5716 63.3859 31.5906C63.1905 31.786 63.0712 33.0384 63.248 33.0384C63.2859 33.0384 63.317 33.0771 63.317 33.1245C63.3171 33.2581 63.63 33.5899 63.7559 33.5899C63.8178 33.5899 63.8685 33.6209 63.8685 33.6588C63.8685 33.6967 63.9305 33.7278 64.0064 33.7278C64.0822 33.7278 64.1443 33.7588 64.1443 33.7967C64.1443 33.8357 64.3395 33.8657 64.5924 33.8657C64.8452 33.8657 65.0405 33.8357 65.0405 33.7967C65.0405 33.7588 65.1026 33.7278 65.1784 33.7278C65.2542 33.7278 65.3163 33.6967 65.3163 33.6588C65.3163 33.6209 65.3642 33.5899 65.4228 33.5899C65.5446 33.5899 65.8223 33.3226 65.8557 33.1731C65.868 33.118 65.9068 33.0625 65.9419 33.0499C66.0296 33.0182 66.0247 31.7285 65.9368 31.7285C65.8988 31.7285 65.8678 31.6897 65.8678 31.6423C65.8676 31.5087 65.5548 31.1769 65.4288 31.1769C65.3669 31.1769 65.3163 31.1459 65.3163 31.108C65.3163 31.0701 65.2561 31.039 65.1825 31.039C65.1089 31.039 65.0295 31.008 65.006 30.9701C64.95 30.8794 64.3726 30.8948 64.1098 30.9937ZM19.1597 38.8984C19.1363 38.9363 19.0472 38.9673 18.9615 38.9673C18.7755 38.9673 18.1601 39.5565 18.1601 39.7343C18.1601 39.801 18.129 39.8746 18.0911 39.8981C17.7964 40.0802 18.2804 41.5182 18.6365 41.5182C18.6778 41.5182 18.7116 41.5492 18.7116 41.5871C18.7116 41.6251 18.7737 41.6561 18.8495 41.6561C18.9253 41.6561 18.9874 41.6871 18.9874 41.725C18.9874 41.7645 19.1942 41.794 19.47 41.794C19.7457 41.794 19.9526 41.7645 19.9526 41.725C19.9526 41.6871 20.0224 41.6561 20.1077 41.6559C20.3004 41.6557 20.7109 41.3143 20.7109 41.1542C20.7109 41.089 20.7419 41.0356 20.7799 41.0356C20.8178 41.0356 20.8488 40.9425 20.8488 40.8288C20.8488 40.715 20.8798 40.622 20.9177 40.622C20.9557 40.622 20.9867 40.4979 20.9867 40.3462C20.9867 40.1945 20.9557 40.0704 20.9177 40.0704C20.8798 40.0704 20.8488 39.9773 20.8488 39.8636C20.8488 39.7498 20.8178 39.6568 20.7799 39.6568C20.7419 39.6568 20.7109 39.6001 20.7109 39.5309C20.7109 39.3834 20.4862 39.1711 20.1939 39.0423C20.0801 38.9922 19.9331 38.9239 19.8672 38.8903C19.7045 38.8076 19.2125 38.8131 19.1597 38.8984ZM74.3477 53.583C74.3477 53.6209 74.2546 53.652 74.1408 53.652C74.0271 53.652 73.934 53.683 73.934 53.7209C73.934 53.7588 73.8885 53.7898 73.8328 53.7898C73.7773 53.7898 73.6182 53.8907 73.4793 54.0139C73.2277 54.2373 73.1365 54.3328 72.8544 54.6676C72.4071 55.1988 72.3023 56.7116 72.6598 57.4782C72.8721 57.9338 73.4797 58.6158 73.6731 58.6158C73.7408 58.6158 73.7961 58.6468 73.7961 58.6847C73.7961 58.7226 73.8582 58.7537 73.934 58.7537C74.0098 58.7537 74.0719 58.7847 74.0719 58.8226C74.0719 58.8605 74.165 58.8915 74.2787 58.8915C74.3925 58.8915 74.4855 58.9226 74.4855 58.9605C74.4855 59.0017 74.7498 59.0294 75.1405 59.0294C75.5312 59.0294 75.7954 59.0017 75.7954 58.9605C75.7954 58.9226 75.9021 58.8915 76.0326 58.8915C76.1631 58.8915 76.2891 58.8605 76.3125 58.8226C76.3359 58.7847 76.4154 58.7537 76.489 58.7537C76.5626 58.7537 76.6227 58.7276 76.6227 58.6957C76.6227 58.664 76.7005 58.6025 76.7954 58.5592C77.0221 58.456 77.45 58.0644 77.45 57.9605C77.45 57.9155 77.5073 57.8269 77.5772 57.7636C77.6472 57.7004 77.7434 57.5172 77.7913 57.3565C77.839 57.1959 77.9059 56.9934 77.9399 56.9062C78.024 56.6904 78.0183 55.6697 77.9326 55.6168C77.8947 55.5934 77.8637 55.4829 77.8637 55.3714C77.8637 55.2599 77.8327 55.1687 77.7947 55.1687C77.7568 55.1687 77.7258 55.1066 77.7258 55.0308C77.7258 54.955 77.6948 54.8929 77.6569 54.8929C77.6189 54.8929 77.5879 54.8457 77.5879 54.7879C77.5879 54.6514 76.8642 53.9277 76.7277 53.9277C76.67 53.9277 76.6227 53.8967 76.6227 53.8588C76.6227 53.8209 76.5762 53.7898 76.5193 53.7898C76.4624 53.7898 76.4159 53.7588 76.4159 53.7209C76.4159 53.683 76.3402 53.652 76.2477 53.652C76.1551 53.652 76.0602 53.6209 76.0367 53.583C76.0123 53.5432 75.6453 53.5141 75.1708 53.5141C74.6681 53.5141 74.3477 53.541 74.3477 53.583ZM49.5975 57.5127C49.5975 57.5506 49.5355 57.5816 49.4597 57.5816C49.3838 57.5816 49.3218 57.6146 49.3218 57.6547C49.3218 57.6949 49.2938 57.7104 49.2599 57.6894C49.1742 57.6364 48.7702 58.0255 48.7702 58.1608C48.7702 58.2214 48.7392 58.2711 48.7013 58.2711C48.6634 58.2711 48.6324 58.3952 48.6324 58.5468C48.6324 58.6985 48.6013 58.8226 48.5634 58.8226C48.5255 58.8226 48.4945 58.8691 48.4945 58.926C48.4945 58.9829 48.5255 59.0294 48.5634 59.0294C48.6013 59.0294 48.6324 59.1535 48.6324 59.3052C48.6324 59.4569 48.6634 59.581 48.7013 59.581C48.7392 59.581 48.7702 59.6289 48.7702 59.6875C48.7702 59.7461 48.8464 59.8702 48.9395 59.9632C49.0326 60.0563 49.1567 60.1325 49.2153 60.1325C49.2739 60.1325 49.3218 60.1635 49.3218 60.2014C49.3218 60.2393 49.3838 60.2704 49.4597 60.2704C49.5355 60.2704 49.5975 60.3014 49.5975 60.3393C49.5975 60.3772 49.7682 60.4083 49.9767 60.4083C50.1853 60.4083 50.3559 60.3772 50.3559 60.3393C50.3559 60.3014 50.4343 60.2704 50.5301 60.2704C50.7247 60.2704 51.3211 59.7261 51.3211 59.5484C51.3211 59.4905 51.3521 59.4431 51.39 59.4431C51.4298 59.4431 51.459 59.2247 51.459 58.926C51.459 58.6273 51.4298 58.4089 51.39 58.4089C51.3521 58.4089 51.3211 58.3469 51.3211 58.2711C51.3211 58.1952 51.2921 58.1332 51.2568 58.1332C51.2215 58.1332 51.1729 58.0711 51.1487 57.9953C51.1246 57.9195 51.0674 57.8574 51.0214 57.8574C50.9755 57.8574 50.8931 57.7954 50.8385 57.7195C50.7839 57.6437 50.6858 57.5816 50.6205 57.5816C50.5553 57.5816 50.4828 57.5506 50.4593 57.5127C50.4359 57.4748 50.2323 57.4438 50.0071 57.4438C49.7801 57.4438 49.5975 57.4744 49.5975 57.5127ZM21.228 62.8902C21.2045 62.9281 21.1251 62.9591 21.0515 62.9591C20.9779 62.9591 20.9177 62.9901 20.9177 63.028C20.9177 63.066 20.8707 63.097 20.8133 63.097C20.677 63.097 19.6768 64.0972 19.6768 64.2335C19.6768 64.2909 19.6458 64.3379 19.6078 64.3379C19.5699 64.3379 19.5389 64.431 19.5389 64.5448C19.5389 64.6585 19.5079 64.7516 19.47 64.7516C19.4281 64.7516 19.401 65.0618 19.401 65.5444C19.401 66.027 19.4281 66.3372 19.47 66.3372C19.5079 66.3372 19.5389 66.4303 19.5389 66.5441C19.5389 66.6578 19.5623 66.7509 19.591 66.7509C19.6197 66.7509 19.6825 66.8398 19.7306 66.9486C19.8421 67.2004 20.3914 67.785 20.5165 67.785C20.5687 67.785 20.6563 67.8471 20.7109 67.9229C20.7656 67.9988 20.8636 68.0608 20.9289 68.0608C20.9941 68.0608 21.0667 68.0918 21.0901 68.1297C21.1135 68.1677 21.224 68.1987 21.3355 68.1987C21.447 68.1987 21.5382 68.2297 21.5382 68.2676C21.5382 68.3085 21.7911 68.3366 22.1587 68.3366C22.5263 68.3366 22.7792 68.3085 22.7792 68.2676C22.7792 68.2297 22.8703 68.1987 22.9819 68.1987C23.0934 68.1987 23.2039 68.1677 23.2273 68.1297C23.2507 68.0918 23.3233 68.0608 23.3884 68.0608C23.4538 68.0608 23.5518 67.9988 23.6065 67.9229C23.6611 67.8471 23.7487 67.785 23.8009 67.785C23.926 67.785 24.4753 67.2004 24.5868 66.9486C24.6349 66.8398 24.6976 66.7509 24.7264 66.7509C24.755 66.7509 24.7785 66.6578 24.7785 66.5441C24.7785 66.4303 24.8095 66.3372 24.8474 66.3372C24.8893 66.3372 24.9164 66.027 24.9164 65.5444C24.9164 65.0618 24.8893 64.7516 24.8474 64.7516C24.8095 64.7516 24.7785 64.6585 24.7785 64.5448C24.7785 64.431 24.7475 64.3379 24.7095 64.3379C24.6716 64.3379 24.6406 64.2883 24.6406 64.2276C24.6406 64.1671 24.5475 64.0306 24.4338 63.9243C24.32 63.8179 24.2269 63.6918 24.2269 63.6439C24.2269 63.5958 24.2076 63.576 24.184 63.5994C24.1606 63.623 24.0287 63.5274 23.891 63.3869C23.7535 63.2464 23.5479 63.0891 23.4341 63.0372C23.3204 62.9855 23.1733 62.9157 23.1075 62.8821C22.9408 62.7973 21.2811 62.8043 21.228 62.8902ZM74.7613 65.441C74.7613 65.4789 74.6993 65.51 74.6234 65.51C74.5476 65.51 74.4855 65.541 74.4855 65.5789C74.4855 65.6168 74.4376 65.6478 74.379 65.6478C74.3204 65.6478 74.1963 65.724 74.1033 65.8171C74.0102 65.9102 73.934 66.0343 73.934 66.0929C73.934 66.1515 73.903 66.1994 73.8651 66.1994C73.8239 66.1994 73.7961 66.4636 73.7961 66.8543C73.7961 67.245 73.8239 67.5093 73.8651 67.5093C73.903 67.5093 73.934 67.5572 73.934 67.6158C73.934 67.6744 74.0102 67.7985 74.1033 67.8915C74.1963 67.9846 74.3204 68.0608 74.379 68.0608C74.4376 68.0608 74.4855 68.0918 74.4855 68.1297C74.4855 68.1677 74.5476 68.1987 74.6234 68.1987C74.6993 68.1987 74.7613 68.2297 74.7613 68.2676C74.7613 68.3066 74.9566 68.3366 75.2094 68.3366C75.4623 68.3366 75.6575 68.3066 75.6575 68.2676C75.6575 68.2297 75.7196 68.1987 75.7954 68.1987C75.8713 68.1987 75.9333 68.1752 75.9333 68.1466C75.9333 68.1178 76.0264 68.0532 76.1401 68.0029C76.2661 67.9472 76.347 67.8597 76.347 67.7792C76.347 67.7066 76.378 67.6471 76.4159 67.6471C76.4538 67.6471 76.4849 67.5851 76.4849 67.5093C76.4849 67.4334 76.5159 67.3714 76.5538 67.3714C76.5936 67.3714 76.6227 67.153 76.6227 66.8543C76.6227 66.5556 76.5936 66.3372 76.5538 66.3372C76.5159 66.3372 76.4849 66.2752 76.4849 66.1994C76.4849 66.1235 76.4538 66.0615 76.4159 66.0615C76.378 66.0615 76.347 66.0139 76.347 65.9558C76.347 65.8979 76.2927 65.8302 76.2263 65.8055C76.16 65.7809 76.0555 65.7044 75.9942 65.6354C75.9328 65.5663 75.8009 65.51 75.7012 65.51C75.6014 65.51 75.5197 65.4789 75.5197 65.441C75.5197 65.4031 75.349 65.3721 75.1405 65.3721C74.9319 65.3721 74.7613 65.4031 74.7613 65.441ZM36.6589 66.9341C36.6839 66.9591 36.6784 67.0134 36.6468 67.0548C36.6153 67.0961 36.4558 67.4713 36.2923 67.8884C36.1289 68.3055 35.9688 68.6763 35.9365 68.7123C35.9045 68.7483 35.8781 68.8185 35.8781 68.8681C35.8781 68.952 35.6739 69.4555 35.5277 69.7318C35.4929 69.7976 35.4645 69.8833 35.4645 69.9221C35.4645 69.99 35.2454 70.5177 35.1141 70.7659C35.0793 70.8317 35.0508 70.9174 35.0508 70.9562C35.0508 70.995 34.9922 71.1583 34.9205 71.319C34.6994 71.8152 34.0851 73.3998 34.0855 73.4734C34.0858 73.5668 36.6522 76.127 36.7456 76.127C36.9097 76.127 39.4017 73.5579 39.3805 73.4105C39.3304 73.062 36.804 66.8905 36.7111 66.8896C36.6575 66.8891 36.6339 66.9091 36.6589 66.9341ZM61.8461 67.0534C61.783 67.1497 61.7313 67.2612 61.7313 67.3009C61.7313 67.3407 61.7039 67.427 61.6705 67.4929C61.6369 67.5587 61.5712 67.7057 61.5245 67.8195C61.4778 67.9333 61.4121 68.0803 61.3785 68.1461C61.3451 68.212 61.3176 68.2962 61.3176 68.3336C61.3176 68.3709 61.2441 68.5653 61.1543 68.7654C60.7997 69.5549 59.3183 73.3459 59.3183 73.4634C59.3183 73.6085 61.8328 76.1506 61.9407 76.1146C62.0931 76.0639 64.5579 73.5508 64.5583 73.4458C64.5586 73.3536 64.3742 72.8679 63.7308 71.2666C63.7003 71.1908 63.6103 70.9817 63.5307 70.8019C63.4511 70.6223 63.3859 70.4434 63.3859 70.4046C63.3859 70.3659 63.3585 70.2802 63.3251 70.2144C63.2915 70.1485 63.2335 70.017 63.1963 69.9222C63.0869 69.6437 62.9952 69.426 62.8413 69.0784C62.7616 68.8988 62.6965 68.7199 62.6965 68.6811C62.6965 68.6423 62.6646 68.5567 62.6255 68.4908C62.5865 68.425 62.4211 68.0351 62.2578 67.6246L61.9609 66.8783L61.8461 67.0534ZM21.8829 73.3693C21.8261 73.406 21.7247 73.4367 21.6578 73.4372C21.4701 73.4388 21.1084 73.7064 20.921 73.9822C20.5296 74.558 20.7942 75.9891 21.2919 75.9891C21.3516 75.9891 21.4003 76.0201 21.4003 76.058C21.4003 76.096 21.4624 76.127 21.5382 76.127C21.6141 76.127 21.6761 76.158 21.6761 76.1959C21.6761 76.2354 21.8829 76.2649 22.1587 76.2649C22.4345 76.2649 22.6413 76.2354 22.6413 76.1959C22.6413 76.158 22.7033 76.127 22.7792 76.127C22.855 76.127 22.9171 76.096 22.9171 76.058C22.9171 76.0201 22.9658 75.9891 23.0255 75.9891C23.1632 75.9891 23.2866 75.865 23.465 75.5474C23.6877 75.1511 23.634 73.9898 23.3933 73.9898C23.364 73.9898 23.3223 73.9355 23.3005 73.8691C23.2512 73.7182 22.8264 73.4383 22.6463 73.4383C22.5722 73.4383 22.4924 73.4072 22.4689 73.3693C22.4146 73.2814 22.0187 73.2814 21.8829 73.3693Z" fill="#74849C"/>
</svg>
