<svg width="669" height="387" viewBox="0 0 669 387" fill="none" xmlns="http://www.w3.org/2000/svg">
<path d="M662.698 249.338C647.198 209.014 605.291 178.139 603.924 135.135C603.374 117.571 609.965 100.322 609.225 82.7689C607.667 45.7643 573.359 16.5924 536.72 5.87396C487.148 -8.57639 430.088 4.17073 392.138 38.2137C373.846 54.5842 359.377 75.6739 337.331 86.9022C305.04 103.338 265.039 94.2359 232.323 78.6139C212.149 68.9803 192.848 56.9167 171.004 51.6768C140.911 44.4625 107.623 51.5575 83.0887 69.9025C58.5544 88.2475 43.0986 117.365 41.4398 147.307C40.8906 157.353 41.7761 167.583 39.1982 177.336C34.8383 194.065 21.187 206.844 12.8259 222.087C0.0599747 245.379 0.36259 274.16 10.1023 298.765C15.538 312.531 22.5373 325.67 30.9716 337.939C52.9056 369.161 96.5159 389.47 138.972 386.758C182.055 384.002 222.37 366.254 264.098 355.525C339.153 336.397 418.459 339.959 491.362 365.733C511.144 372.785 530.59 381.507 551.493 384.176C586.876 388.732 624.255 374.184 646.514 347.171C668.773 320.158 675.184 281.722 662.698 249.338Z" fill="#F0F0F0"/>
<path d="M359.536 112.062L359.73 114.621C359.909 116.963 361.12 118.811 362.655 119.084L364.324 119.369L362.655 119.653C361.12 119.937 359.909 121.774 359.73 124.116L359.536 126.675L359.34 124.116C359.161 121.774 357.95 119.926 356.415 119.653L354.746 119.369L356.415 119.084C357.95 118.8 359.161 116.963 359.34 114.621L359.536 112.062Z" fill="#0070C0"/>
<path d="M228.423 94.0266L228.627 96.699C228.815 99.161 230.089 101.103 231.703 101.387L233.455 101.7L231.703 102.01C230.089 102.294 228.815 104.238 228.627 106.7L228.423 109.373L228.218 106.7C228.03 104.238 226.759 102.297 225.145 102.01L223.391 101.7L225.145 101.387C226.759 101.103 228.03 99.161 228.218 96.699L228.423 94.0266Z" fill="#0070C0"/>
<path d="M372.333 37.6227L372.578 40.8295C372.802 43.7805 374.329 46.1089 376.273 46.4529L378.374 46.8253L376.273 47.2005C374.337 47.5445 372.811 49.8701 372.578 52.8239L372.333 56.0307L372.086 52.8239C371.861 49.8701 370.335 47.5445 368.39 47.2005L366.289 46.8253L368.39 46.4529C370.326 46.1089 371.853 43.7805 372.086 40.8295L372.333 37.6227Z" fill="#0070C0"/>
<path d="M303.191 21L303.416 23.9396C303.624 26.6461 305.022 28.7726 306.799 29.0967L308.727 29.4407L306.799 29.7818C305.022 30.0974 303.624 32.2325 303.416 34.9389L303.191 37.8814L302.967 34.9389C302.762 32.2325 301.361 30.1059 299.587 29.7818L297.656 29.4407L299.587 29.0967C301.361 28.7811 302.762 26.6461 302.967 23.9396L303.191 21Z" fill="#32CD32"/>
<path d="M220.089 34.1003L220.427 38.5325C220.737 42.6149 222.85 45.836 225.528 46.3108L228.433 46.8253L225.528 47.3427C222.85 47.8175 220.737 51.0386 220.427 55.1182L220.089 59.5532L219.751 55.1154C219.438 51.0357 217.329 47.8147 214.651 47.3399L211.742 46.8225L214.651 46.3079C217.329 45.8332 219.438 42.6121 219.751 38.5296L220.089 34.1003Z" fill="#32CD32"/>
<path d="M274.56 170.903C275.197 168.54 275.299 165.959 277.247 164.19C277.491 163.979 277.774 163.817 278.08 163.713C279.34 163.183 280.693 162.907 282.06 162.9C281.642 166.678 280.923 169.694 280.164 171.318C280.649 171.981 281.231 172.566 281.892 173.055C283.402 174.209 285.019 175.178 286.617 176.239C288.624 177.585 290.713 178.805 292.872 179.892C294.142 180.526 295.535 180.87 296.837 181.441C298.828 182.325 299.314 184.304 300.104 186.041C301.136 188.247 301.945 190.551 302.518 192.918L302.361 192.961C300.868 190.632 299.228 188.4 297.452 186.28C296.883 185.603 296.243 184.895 295.37 184.648C293.341 184.065 292.468 185.999 291.749 187.34C291.18 188.361 290.751 189.475 290.375 190.235C288.596 193.709 286.444 197.166 283.103 199.65C282.857 194.55 281.571 189.555 279.325 184.969C278.316 182.846 277.099 180.85 276.172 178.715C275.288 176.696 274.353 174.772 274.341 172.702C274.328 172.095 274.402 171.489 274.56 170.903Z" fill="white"/>
<path d="M325.88 170.038C325.18 168.986 324.609 166.573 324.245 163.326C325.057 163.377 325.858 163.537 326.627 163.804C328.438 164.472 329.374 165.74 329.968 167.5C330.536 169.166 331.071 170.911 330.966 172.682C330.97 172.766 330.97 172.849 330.966 172.932C330.778 174.866 329.828 176.913 329.061 178.726C328.134 180.861 326.948 182.857 325.934 184.981C323.724 189.571 322.467 194.561 322.238 199.65C318.94 197.166 316.816 193.709 315.068 190.235C314.693 189.476 314.266 188.361 313.715 187.34C313.01 185.999 312.145 184.065 310.158 184.648C309.305 184.896 308.66 185.603 308.108 186.28C306.351 188.401 304.731 190.633 303.258 192.961L303.113 192.93C303.675 190.56 304.473 188.252 305.496 186.041C306.266 184.304 306.764 182.326 308.711 181.441C309.982 180.873 311.352 180.526 312.612 179.892C314.739 178.803 316.796 177.583 318.772 176.239C320.344 175.178 321.925 174.209 323.415 173.055C324.465 172.26 325.31 171.226 325.88 170.038Z" fill="white"/>
<path d="M82.5782 230.889C82.4332 230.701 84.318 228.816 86.419 226.829C88.6933 224.654 91.252 222.354 91.6329 221.97C94.9506 218.806 97.7083 215.383 101.08 212.262C101.225 212.137 101.364 212.011 101.518 211.898C101.664 211.787 101.83 211.706 102.007 211.659C102.575 211.503 103.172 211.815 103.619 212.199C107.855 215.801 111.192 220.327 115.045 224.333C118.706 228.139 122.618 231.918 126.396 235.474C134.604 243.227 143.19 250.616 152.347 257.223C155.207 259.284 158.704 260.99 161.728 263.133L161.865 262.946C163.946 262.249 164.424 261.064 165.464 259.179C165.687 258.691 166.009 258.255 166.411 257.899C166.741 257.68 167.085 257.482 167.44 257.305C168.061 256.869 168.599 256.328 169.032 255.705C174.718 248.523 181.123 242.627 186.994 235.665C195.014 226.132 203.287 216.819 211.466 207.423C217.72 200.256 223.69 192.554 232.037 187.716C237.541 184.523 243.088 183.736 249.095 181.828C257.482 179.164 265.806 176.29 273.848 172.714H274.337C274.337 174.783 275.284 176.708 276.168 178.726C277.095 180.861 278.312 182.857 279.321 184.981C281.567 189.566 282.853 194.562 283.099 199.662C286.44 197.177 288.592 193.72 290.372 190.246C290.747 189.487 291.185 188.372 291.745 187.352C292.464 186.01 293.337 184.077 295.367 184.66C296.239 184.907 296.873 185.615 297.448 186.291C299.224 188.412 300.864 190.643 302.357 192.972L302.514 192.93L302.545 193.075H302.784C302.9 200.671 303.296 208.236 303.352 215.818C303.458 226.243 304.393 236.637 304.33 247.065C304.291 254.005 303.27 260.924 303.645 267.864C303.989 274.209 307.025 279.392 307.483 285.553C308.535 299.662 308.077 313.814 307.785 327.944C307.526 341.209 309.024 355.06 308.504 368.419V371C273.18 370.801 236.242 368.294 236.242 364.112C236.242 337.257 235.48 310.38 233.629 283.605C233.098 275.855 233.422 268.216 233.061 260.413C233.061 261.308 226.869 266.917 225.922 267.696C223.363 269.84 220.81 271.991 218.263 274.15C213.029 278.57 207.795 282.983 202.385 287.187C197.214 291.213 191.69 294.781 186.527 298.809C181.694 302.565 177.146 305.615 170.962 306.676C161.012 308.401 151.087 305.197 143.772 298.431C121.541 277.826 101.805 254.3 82.5782 230.889Z" fill="#FFBF00"/>
<path d="M504.599 212.262C507.97 215.389 510.725 218.8 514.046 221.97C514.421 222.334 516.69 224.395 518.853 226.445C521.111 228.566 523.265 230.69 523.098 230.889C503.879 254.3 484.149 277.826 461.915 298.406C454.603 305.18 444.675 308.384 434.728 306.65C428.547 305.59 423.99 302.539 419.171 298.784C414 294.755 408.485 291.187 403.305 287.162C397.903 282.957 392.658 278.545 387.424 274.124C384.877 271.969 382.325 269.818 379.768 267.671C378.821 266.892 372.641 261.294 372.641 260.387C372.61 261.032 372.723 264.083 372.672 264.717C371.535 279.929 372.567 295.494 372.587 310.772C372.587 329.013 371.922 347.003 371.777 365.306C371.723 369.436 340.789 371.162 308.501 370.966V368.385C309.022 355.023 307.523 341.175 307.782 327.91C308.066 313.78 308.532 299.628 307.481 285.519C307.023 279.358 303.987 274.175 303.643 267.83C303.267 260.89 304.288 253.97 304.328 247.031C304.39 236.603 303.455 226.209 303.35 215.784C303.279 208.208 302.884 200.643 302.781 193.058H303.066C303.066 193.018 303.085 192.967 303.097 192.924L303.242 192.955C304.714 190.627 306.334 188.396 308.092 186.274C308.643 185.598 309.277 184.89 310.142 184.642C312.132 184.06 312.985 185.993 313.698 187.335C314.25 188.355 314.676 189.47 315.051 190.229C316.8 193.703 318.923 197.16 322.221 199.645C322.455 194.55 323.718 189.556 325.934 184.964C326.935 182.84 328.12 180.844 329.061 178.709C329.832 176.91 330.767 174.849 330.966 172.915C330.97 172.832 330.97 172.748 330.966 172.665L331.842 172.708C339.435 176.077 347.262 178.897 355.054 181.78C361.258 184.08 367.998 185.891 374.022 188.95C381.016 192.486 385.542 198.158 390.921 203.653C396.3 209.149 401.514 214.67 406.654 220.321C417.059 231.756 427.055 243.548 436.641 255.699C437.074 256.321 437.613 256.863 438.233 257.3C438.591 257.478 438.938 257.676 439.274 257.894C439.67 258.252 439.989 258.687 440.212 259.173C441.241 261.058 441.73 262.243 443.811 262.94L443.947 263.128C446.975 260.984 450.469 259.278 453.329 257.217C462.486 250.61 471.069 243.221 479.279 235.469C483.058 231.912 486.955 228.134 490.631 224.327C494.481 220.321 497.821 215.798 502.057 212.193C502.412 211.861 502.871 211.66 503.356 211.625C503.462 211.624 503.567 211.638 503.669 211.667C504.022 211.789 504.34 211.993 504.599 212.262Z" fill="#FFBF00"/>
<path d="M326.672 142.678C327.431 147.349 329.751 151.312 329.751 151.312C329.751 151.562 326.183 150.743 324.008 148.202C324.079 146.88 324.184 145.549 324.321 144.222C325.149 142.709 325.854 141.133 326.43 139.508C326.407 140.57 326.488 141.632 326.672 142.678Z" fill="#745C5F"/>
<path d="M273.594 133.632C270.285 130.706 268.133 123.818 268.133 123.818L268.173 123.778C269.421 125.199 270.981 126.243 272.585 126.621C273.011 129.273 273.375 131.397 273.887 133.58L273.594 133.632Z" fill="#745C5F"/>
<path d="M276.713 142.172C277.786 144.104 279.041 145.93 280.46 147.625C278.681 150.934 275.133 150.809 275.133 150.809C275.133 150.809 277.16 148.011 276.526 142.28L276.713 142.172Z" fill="#745C5F"/>
<path d="M338.533 120.895C338.249 121.447 337.993 121.947 337.712 122.405C335.787 125.532 333.749 126.231 331.406 127.002C330.397 127.346 329.106 128.938 328.731 131.082C328.179 133.945 327.411 136.763 326.434 139.511C325.856 141.136 325.149 142.712 324.322 144.224C324.307 144.259 324.285 144.291 324.259 144.318L324.279 144.068C324.279 144.068 319.472 150.038 314.778 153.683C313.831 154.368 312.845 155.025 311.844 155.647C311.819 155.659 311.795 155.673 311.773 155.69C311.636 155.761 311.489 155.846 311.355 155.94C311.014 156.148 310.616 156.375 310.189 156.625C306.923 158.499 303.574 159.935 300.722 160.486C296.267 161.245 290.016 157.282 284.822 152.33C284.77 152.271 284.715 152.215 284.657 152.162L284.603 152.111C283.75 151.298 282.948 150.468 282.189 149.623C281.587 148.958 281.004 148.29 280.464 147.633C279.044 145.939 277.789 144.113 276.717 142.18C276.281 141.406 275.922 140.591 275.645 139.747C274.874 137.404 274.334 135.482 273.888 133.586C273.376 131.403 273.012 129.279 272.628 126.615C272.452 125.43 272.273 124.128 272.077 122.683C271.201 116.804 271.056 116.085 269.973 110.882C269.953 110.789 269.933 110.695 269.913 110.598L269.859 110.391C271.352 110.02 272.787 109.446 274.124 108.685C277.171 107.03 280.356 105.762 283.926 98.1233L283.864 97.7196C286.11 97.3955 289.533 96.3351 292.961 92.9008C296.27 89.4666 298.82 82.8397 299.705 81.3215C300.589 79.8034 303.523 83.0984 304.293 86.6691C304.845 88.0223 306.3 88.844 307.341 88.3237C308.623 86.2825 310.152 85.1396 314.855 93.9214C315.8 95.7652 317.035 97.445 318.513 98.8966L318.297 99.1354C319.69 106.388 324.02 110.206 327.327 110.467C327.327 110.467 328.816 110.561 331.281 109.822C338.92 107.525 340.822 116.182 338.533 120.895Z" fill="#FFD6BA"/>
<path d="M272.613 126.607C270.979 126.243 269.418 125.202 268.17 123.764C266.791 122.247 265.89 120.357 265.58 118.331C265.372 116.656 265.35 114.783 266.058 113.336C266.626 112.139 267.692 111.235 269.523 110.953L269.969 110.86C271.053 116.062 271.198 116.781 272.073 122.661C272.269 124.119 272.449 125.421 272.613 126.607Z" fill="#FFD6BA"/>
<path d="M324.247 163.326C324.611 166.573 325.182 168.986 325.881 170.038C325.309 171.227 324.459 172.261 323.405 173.055C321.915 174.209 320.335 175.178 318.763 176.239C316.787 177.583 314.729 178.803 312.602 179.892C311.343 180.526 309.972 180.87 308.701 181.441C306.754 182.325 306.257 184.304 305.486 186.041C304.464 188.252 303.666 190.56 303.104 192.93C303.104 192.972 303.084 193.023 303.072 193.063H302.788C302.709 193.058 302.629 193.058 302.549 193.063L302.518 192.918C301.945 190.551 301.137 188.247 300.104 186.041C299.314 184.304 298.814 182.325 296.838 181.441C295.536 180.873 294.143 180.526 292.872 179.892C290.713 178.805 288.624 177.585 286.618 176.239C285.025 175.178 283.402 174.209 281.893 173.055C281.232 172.566 280.649 171.981 280.164 171.318C280.926 169.694 281.642 166.678 282.069 162.9C282.559 158.49 282.601 154.041 282.194 149.623C282.953 150.476 283.766 151.298 284.599 152.099C284.818 152.588 291.84 167.875 301.62 168.125C312.952 168.509 323.638 152.972 323.638 152.972L324.264 144.318C324.29 144.291 324.311 144.259 324.326 144.224C324.19 145.555 324.085 146.885 324.014 148.204C323.675 153.899 323.8 159.269 324.247 163.326Z" fill="#FFD6BA"/>
<path d="M327.324 110.459C324.017 110.197 319.687 106.379 318.294 99.1269L318.51 98.888C317.029 97.4343 315.792 95.7515 314.846 93.9044C310.144 85.1225 308.614 86.2654 307.332 88.3066C306.291 88.8269 304.836 88.0053 304.284 86.652C303.514 83.0813 300.589 79.7721 299.696 81.3045C298.803 82.8368 296.262 89.4495 292.952 92.8837C289.518 96.318 286.095 97.3784 283.855 97.7025L283.918 98.1062C280.347 105.745 277.163 107.013 274.115 108.668C272.779 109.429 271.344 110.003 269.851 110.374L269.905 110.581C269.925 110.683 269.945 110.777 269.964 110.865L269.518 110.959C267.687 111.243 266.624 112.145 266.053 113.342L265.45 113.123C262.775 109.597 261.683 105.447 263.119 99.7125L262.775 99.6272C262.775 99.6272 255.898 101.532 257.814 99.7523C258.831 98.8596 260.736 96.3095 261.757 91.2235C262.775 86.001 265.066 77.3442 270.922 73.91C272.108 73.2333 274.462 72.2668 274.669 72.1729C271.059 71.5788 269.103 69.9156 269.655 69.8304C270.539 69.7053 274.357 69.1964 276.782 68.1758C281.615 66.0123 295.116 59.0101 303.636 60.7841C304.904 61.0341 306.11 61.5335 307.184 62.2533C308.258 62.9732 309.178 63.8991 309.891 64.9775C310.391 65.6853 312.554 65.4778 314.479 64.6022C321.731 62.9504 328.475 66.507 334.209 73.6342C339.807 80.7728 339.295 85.4751 341.97 89.6798C344.643 93.7594 346.559 93.6229 347.193 94.1318C347.631 94.4758 344.458 96.1219 340.421 94.4872C340.795 95.7529 341.101 97.0379 341.336 98.3365C344.322 110.823 341.587 117.057 338.184 122.664L337.714 122.379C337.999 121.922 338.266 121.421 338.536 120.87C340.81 116.156 338.92 107.508 331.284 109.782C328.813 110.553 327.324 110.459 327.324 110.459Z" fill="black"/>
<path d="M326.816 142.678L326.671 142.698C326.488 141.651 326.407 140.588 326.43 139.525C327.407 136.777 328.176 133.959 328.73 131.096C329.105 128.952 330.395 127.36 331.405 127.016C333.747 126.246 335.786 125.561 337.71 122.419L338.179 122.703C336.076 126.189 333.713 129.427 332.3 133.774C329.875 141.413 332.934 146.627 332.934 146.627C332.934 146.627 328.607 146.232 326.816 142.678Z" fill="#745C5F"/>
<path d="M53.6801 211.898C56.3326 211.898 59.0078 211.858 61.6603 211.761C60.1848 212.253 58.715 212.773 57.2708 213.333L57.1855 213.114C55.1954 213.521 53.2054 213.916 51.2153 214.323C50.0184 214.561 48.759 214.78 47.5195 214.675C44.6481 214.416 41.3389 213.032 38.6552 211.991C37.4271 211.522 36.2074 210.994 34.9196 210.712C34.504 210.621 34.0835 210.555 33.6602 210.513L33.7028 210.141C34.587 208.952 36.1364 208.412 37.6147 208.401C39.093 208.389 40.5372 208.827 41.953 209.254C42.5671 209.441 43.1499 209.66 43.7327 209.879C44.7267 210.288 45.7527 210.616 46.8002 210.857C47.9374 211.085 49.0063 211.71 50.1322 211.898C51.258 212.085 52.5572 211.898 53.6801 211.898Z" fill="#FFD6BA"/>
<path d="M57.2784 213.333C54.4045 214.44 51.5908 215.698 48.8491 217.1C45.665 218.724 41.9521 216.444 38.8078 215.716C37.243 215.308 35.628 215.126 34.0118 215.176C33.2925 215.218 31.7857 215.383 30.7538 215.915L30.6201 215.645C29.4119 215.039 27.0096 214.863 26.3756 213.47C25.3436 211.159 29.2186 210.411 30.6713 210.411C31.675 210.394 32.6789 210.428 33.6791 210.513C34.1025 210.555 34.523 210.621 34.9386 210.712C36.2264 210.997 37.446 211.522 38.6742 211.992C41.3579 213.032 44.6671 214.417 47.5385 214.675C48.7666 214.78 50.026 214.562 51.2343 214.323C53.2244 213.916 55.2144 213.521 57.2045 213.115L57.2784 213.333Z" fill="#FFD6BA"/>
<path d="M101.086 212.262C97.7147 215.389 94.9571 218.8 91.6393 221.97C91.2442 222.354 88.7054 224.654 86.4254 226.829L86.0302 226.144C85.1574 225.643 84.5633 224.779 83.7559 224.188C80.9129 222.084 74.7153 224.208 71.5312 224.728C67.1304 225.444 62.6982 225.945 58.3172 224.842L58.2746 224.634C56.185 225.009 54.0813 225.373 51.9803 225.771C49.8169 226.178 47.5055 226.761 45.2994 226.34C43.7187 226.056 42.0954 225.08 40.6086 224.478C38.3712 223.574 36.2589 222.158 34.1466 221.004C32.9923 220.367 29.8082 218.931 29.7031 217.382C29.6519 216.716 30.1181 216.245 30.7635 215.915C31.7955 215.383 33.3022 215.218 34.0215 215.176C35.6377 215.126 37.2527 215.308 38.8175 215.716C41.9618 216.444 45.6747 218.724 48.8588 217.1C51.5968 215.698 54.4067 214.441 57.2767 213.333C58.7209 212.765 60.1907 212.253 61.6662 211.761C59.0138 211.858 56.3386 211.898 53.6861 211.898C52.5489 211.898 51.2412 212.085 50.1495 211.898C49.0578 211.71 47.9434 211.085 46.8176 210.857C45.77 210.616 44.7441 210.289 43.75 209.879C46.8488 207.65 52.0429 208.475 55.4459 209.43C56.9214 209.848 58.8887 211.002 60.4495 210.567C64.9982 209.299 68.9783 207.508 73.6634 206.604C77.9932 205.783 82.3003 204.19 86.6699 203.659C93.3707 202.857 97.7204 206.218 101.092 211.557L101.53 211.889C101.368 212.011 101.231 212.137 101.086 212.262Z" fill="#FFD6BA"/>
<path d="M552.015 211.898C553.13 211.898 554.452 212.085 555.555 211.898C556.658 211.71 557.749 211.085 558.884 210.857C559.928 210.614 560.951 210.287 561.943 209.879C562.511 209.66 563.108 209.441 563.722 209.254C565.144 208.816 566.565 208.381 568.061 208.401C569.556 208.421 571.089 208.952 571.973 210.141L572.015 210.513C571.592 210.554 571.171 210.621 570.756 210.712C569.465 210.997 568.248 211.522 567.02 211.992C564.337 213.032 561.027 214.417 558.156 214.675C556.928 214.78 555.68 214.562 554.46 214.323C552.47 213.916 550.48 213.521 548.49 213.115L548.408 213.333C546.961 212.765 545.482 212.253 544.004 211.761C546.679 211.858 549.351 211.898 552.015 211.898Z" fill="#FFD6BA"/>
<path d="M556.844 217.1C554.103 215.704 551.293 214.447 548.426 213.333L548.508 213.115C550.498 213.521 552.488 213.916 554.478 214.323C555.687 214.562 556.935 214.78 558.174 214.675C561.046 214.417 564.355 213.032 567.039 211.992C568.267 211.522 569.483 210.994 570.774 210.712C571.19 210.621 571.61 210.554 572.033 210.513C573.034 210.428 574.038 210.394 575.041 210.411C576.486 210.411 580.369 211.159 579.337 213.47C578.714 214.863 576.298 215.039 575.093 215.645L574.635 215.77C573.694 215.42 572.704 215.219 571.701 215.176C570.085 215.126 568.47 215.308 566.905 215.716C563.752 216.444 560.025 218.724 556.844 217.1Z" fill="#FFD6BA"/>
<path d="M555.554 211.909C554.451 212.085 553.129 211.909 552.014 211.909C549.351 211.909 546.678 211.869 544.023 211.773C545.501 212.265 546.98 212.785 548.427 213.345C551.294 214.459 554.104 215.716 556.845 217.112C560.026 218.735 563.753 216.455 566.886 215.727C568.451 215.32 570.066 215.138 571.682 215.187C572.685 215.231 573.675 215.431 574.616 215.781C575.437 216.114 576.063 216.634 576.009 217.393C575.907 218.943 572.711 220.378 571.557 221.015C569.445 222.169 567.332 223.574 565.095 224.489C563.608 225.092 561.982 226.061 560.401 226.351C558.195 226.769 555.887 226.186 553.723 225.783C551.619 225.388 549.518 225.024 547.426 224.646L547.386 224.853C543.005 225.956 538.573 225.456 534.181 224.739C530.977 224.219 524.773 222.095 521.933 224.199C521.123 224.791 520.529 225.655 519.659 226.155L518.857 226.457C516.694 224.407 514.425 222.346 514.05 221.982C510.729 218.818 507.974 215.395 504.603 212.273C504.346 212.001 504.028 211.795 503.676 211.67C503.574 211.641 503.469 211.627 503.363 211.628L504.603 211.577C507.983 206.229 512.324 202.877 519.025 203.679C523.395 204.21 527.702 205.803 532.031 206.624C536.734 207.528 540.697 209.319 545.245 210.587C546.806 211.025 548.774 209.871 550.249 209.45C553.661 208.495 558.843 207.67 561.945 209.899C560.953 210.307 559.93 210.634 558.886 210.877C557.749 211.096 556.666 211.733 555.554 211.909Z" fill="#FFD6BA"/>
<path d="M311.352 155.94C311.497 155.846 311.636 155.761 311.77 155.69C311.622 155.772 311.488 155.855 311.352 155.94Z" fill="black"/>
<path d="M323.45 164.216C325.013 164.29 326.694 164.523 327.839 165.691C328.88 166.749 329.286 168.395 329.642 169.788C330.574 173.43 328.959 176.802 327.367 180.023C325.818 183.15 324.186 186.155 323.103 189.476C322.026 192.769 321.404 196.194 321.255 199.656L322.676 198.849C320.283 197.001 318.483 194.556 316.991 191.943C315.728 189.711 314.961 187.065 313.383 185.035C311.961 183.19 309.687 183.289 308.067 184.876C305.858 187.045 304.064 189.896 302.409 192.495C301.758 193.512 303.379 194.454 304.027 193.439C305.517 191.02 307.197 188.723 309.05 186.57C309.755 185.771 310.793 185.018 311.714 185.939C312.402 186.633 312.851 187.727 313.258 188.594C315.416 193.1 317.69 197.35 321.724 200.466C322.327 200.93 323.106 200.287 323.146 199.656C323.338 195.65 324.183 191.702 325.647 187.969C327.069 184.299 329.158 180.932 330.654 177.291C331.336 175.633 331.936 173.879 331.905 172.074C331.873 170.269 331.319 168.344 330.631 166.647C329.377 163.559 326.651 162.499 323.487 162.348C322.284 162.291 322.287 164.165 323.487 164.222L323.45 164.216Z" fill="black"/>
<path d="M324.229 166.323C324.767 166.698 325.608 167.104 325.679 167.784C325.75 168.463 325.151 169.384 324.827 169.967C324.013 171.389 322.836 172.344 321.492 173.271C318.649 175.261 315.726 177.185 312.647 178.789C311.118 179.591 309.367 179.926 307.871 180.779C306.824 181.422 306 182.372 305.512 183.5C304.09 186.456 302.845 189.601 302.131 192.805C301.87 193.979 303.672 194.479 303.937 193.302C304.405 191.249 305.061 189.243 305.895 187.309C306.464 186.01 306.902 184.492 307.752 183.352C308.861 181.862 311.044 181.603 312.65 180.867C314.364 180.046 316.02 179.112 317.608 178.07C319.237 177.04 320.855 175.972 322.441 174.871C323.752 173.962 325 173.032 325.924 171.721C326.731 170.584 327.684 168.952 327.596 167.514C327.513 166.169 326.174 165.382 325.185 164.691C324.195 164 323.254 165.623 324.238 166.308L324.229 166.323Z" fill="black"/>
<path d="M281.998 161.964C280.335 162.007 278.416 162.283 276.977 163.187C275.704 163.983 274.95 165.527 274.509 166.905C273.996 168.479 273.627 170.097 273.409 171.738C273.185 173.583 273.694 175.366 274.373 177.06C275.9 180.799 278.069 184.219 279.559 187.974C281.049 191.703 281.914 195.652 282.117 199.662C282.146 200.293 282.922 200.933 283.539 200.472C287.615 197.362 289.918 193.112 292.122 188.6C292.534 187.747 292.974 186.743 293.603 186.041C294.495 185.075 295.527 185.615 296.309 186.442C298.299 188.54 299.957 191.022 301.517 193.439C302.168 194.448 303.792 193.51 303.135 192.495C301.469 189.916 299.672 187.195 297.515 184.998C295.883 183.335 293.534 183.113 292.019 185.035C290.458 187.025 289.694 189.583 288.448 191.775C286.919 194.456 285.065 196.964 282.595 198.849L284.016 199.656C283.86 196.192 283.226 192.766 282.131 189.475C280.994 186.078 279.288 183.013 277.699 179.827C276.89 178.285 276.208 176.68 275.661 175.028C275.092 173.16 275.377 171.645 275.777 169.785C276.079 168.412 276.323 166.942 277.114 165.76C278.157 164.185 280.281 163.886 282.038 163.844C283.24 163.809 283.246 161.939 282.038 161.97L281.998 161.964Z" fill="black"/>
<path d="M303.39 192.816C302.6 189.539 301.424 186.368 299.885 183.369C299.337 182.188 298.408 181.225 297.247 180.634C295.578 179.826 293.79 179.372 292.13 178.496C288.96 176.795 285.909 174.881 282.998 172.767C281.629 171.826 280.539 170.532 279.842 169.023C279.558 168.415 279.2 167.835 279.695 167.286C280.175 166.761 280.783 166.369 281.46 166.149C282.597 165.791 282.117 163.983 280.963 164.344C279.808 164.705 278.478 165.552 277.835 166.635C277.09 167.895 277.932 169.478 278.549 170.615C280.286 173.836 283.817 175.59 286.793 177.509C288.459 178.598 290.181 179.597 291.953 180.503C292.789 180.916 293.649 181.279 294.529 181.589C295.45 181.919 296.479 182.158 297.23 182.834C298.367 183.835 298.825 185.575 299.41 186.911C300.33 188.972 301.057 191.113 301.582 193.308C301.867 194.482 303.658 193.984 303.388 192.81L303.39 192.816Z" fill="black"/>
<path d="M331.316 173.518C340.496 177.586 349.977 181.137 359.487 184.352C364.035 185.888 368.618 187.36 372.928 189.47C376.973 191.46 380.419 194.266 383.595 197.43C386.821 200.645 389.92 203.997 393.082 207.272C396.692 211.012 400.255 214.793 403.771 218.616C410.695 226.144 417.437 233.832 423.999 241.68C427.609 246 431.165 250.359 434.665 254.758C435.464 255.764 436.203 256.921 437.224 257.732C437.71 258.121 438.361 258.3 438.802 258.755C439.154 259.108 439.37 259.653 439.612 260.086C440.57 261.857 441.576 263.122 443.521 263.824C444.658 264.233 445.144 262.425 444.019 262.019C442.122 261.334 441.667 259.688 440.658 258.127C440.121 257.297 439.467 256.99 438.668 256.475C437.628 255.79 436.9 254.57 436.138 253.612C433.014 249.67 429.845 245.766 426.628 241.899C420.148 234.102 413.49 226.458 406.654 218.968C400.038 211.721 393.224 204.657 386.409 197.601C383.464 194.547 380.342 191.63 376.715 189.39C372.783 186.974 368.351 185.382 364.007 183.886C353.32 180.207 342.611 176.463 332.271 171.88C331.177 171.397 330.224 173.018 331.324 173.498L331.316 173.518Z" fill="black"/>
<path d="M505.353 212.046C507.175 209.203 509.529 206.473 512.776 205.245C516.699 203.761 520.904 204.816 524.804 205.814C529.27 206.971 533.814 207.835 538.192 209.291C540.298 209.99 542.385 210.766 544.526 211.355C546.453 211.886 548.025 211.178 549.831 210.545C553.302 209.325 558.223 208.498 561.453 210.712C562.448 211.395 563.386 209.771 562.396 209.095C559.283 206.96 555.076 207.355 551.576 208.128C550.761 208.3 549.958 208.523 549.171 208.796C548.173 209.16 547.084 209.729 546.001 209.726C544.918 209.723 543.656 209.157 542.607 208.802C541.427 208.418 540.256 208.009 539.079 207.613C534.436 206.058 529.614 205.109 524.864 203.898C520.884 202.88 516.58 201.939 512.557 203.329C508.682 204.665 505.884 207.719 503.729 211.093C503.078 212.111 504.699 213.052 505.347 212.037L505.353 212.046Z" fill="black"/>
<path d="M521.593 210.883C525.161 210.786 528.55 209.461 532.146 209.822C535.859 210.192 539.6 211.346 543.14 212.478C546.64 213.594 550.066 214.931 553.397 216.481C554.91 217.186 556.445 218.226 558.111 218.502C559.566 218.744 561.039 218.502 562.443 218.09C565.599 217.186 568.581 215.835 571.959 216.134C572.735 216.202 574.281 216.321 574.824 216.987C575.47 217.771 573.687 218.721 573.139 219.053C572.087 219.69 570.972 220.219 569.909 220.836C568.32 221.754 566.756 222.724 565.076 223.46C563.527 224.139 561.949 225.069 560.28 225.41C558.441 225.788 556.55 225.382 554.742 225.029C546.409 223.406 537.969 222.314 529.878 219.628C528.74 219.247 528.243 221.049 529.383 221.436C537.266 224.06 545.497 225.163 553.63 226.718C555.492 227.076 557.394 227.525 559.316 227.415C561.119 227.307 562.679 226.593 564.294 225.842C567.439 224.384 570.426 222.715 573.46 221.041C575.137 220.114 578.259 217.993 576.303 215.813C574.682 214.007 571.154 214.107 569.005 214.391C567.286 214.64 565.598 215.063 563.964 215.653C562.29 216.222 560.476 216.941 558.671 216.722C557.736 216.606 556.94 216.154 556.112 215.733C555.144 215.251 554.165 214.79 553.176 214.348C551.388 213.55 549.578 212.807 547.745 212.117C543.548 210.518 539.227 209.267 534.824 208.375C532.677 207.912 530.468 207.807 528.286 208.063C526.054 208.347 523.879 208.975 521.619 209.038C520.416 209.069 520.411 210.943 521.619 210.908L521.593 210.883Z" fill="black"/>
<path d="M520.08 226.948C521.058 226.314 521.752 225.277 522.772 224.725C523.597 224.279 524.586 224.205 525.507 224.208C527.642 224.208 529.746 224.745 531.818 225.208C536.936 226.346 542.423 226.98 547.585 225.74C548.757 225.456 548.262 223.653 547.088 223.935C541.686 225.231 536.154 224.219 530.823 223.082C528.811 222.647 526.687 222.212 524.615 222.377C523.686 222.425 522.777 222.658 521.939 223.062C520.848 223.631 520.154 224.685 519.133 225.336C518.113 225.987 519.062 227.611 520.08 226.954V226.948Z" fill="black"/>
<path d="M575.496 216.458C576.804 215.855 578.385 215.781 579.476 214.752C580.329 213.95 580.656 212.645 580.065 211.602C578.834 209.427 575.388 209.424 573.242 209.507C569.091 209.66 565.478 211.781 561.586 212.984C559.547 213.612 557.605 213.95 555.473 213.586C553.199 213.2 550.953 212.685 548.696 212.227C547.519 211.992 547.016 213.797 548.198 214.036L553.742 215.153C555.448 215.494 557.091 215.775 558.822 215.54C562.171 215.082 565.31 213.632 568.44 212.432C571.09 211.417 574.47 210.763 577.253 211.77C578.163 212.1 579.09 212.802 577.927 213.592C576.957 214.254 575.624 214.365 574.558 214.854C573.492 215.343 574.416 216.972 575.505 216.472L575.496 216.458Z" fill="black"/>
<path d="M572.58 209.487C569.169 205.345 563.395 208.654 559.401 209.771C558.263 210.093 557.126 210.516 555.989 210.846C554.786 211.187 553.567 211.011 552.339 210.977C549.533 210.9 546.724 210.931 543.921 210.84C542.712 210.8 542.715 212.671 543.921 212.711C546.451 212.793 548.981 212.833 551.511 212.844C552.649 212.844 553.786 212.989 554.923 212.916C556.006 212.847 556.941 212.475 557.953 212.117C558.966 211.758 560.066 211.548 561.101 211.184C562.252 210.778 563.375 210.331 564.546 209.982C566.792 209.314 569.556 208.748 571.253 210.812C572.02 211.744 573.337 210.411 572.578 209.487H572.58Z" fill="black"/>
<path d="M301.789 192.975C301.883 199.033 302.15 205.086 302.295 211.144C302.44 217.143 302.545 223.133 302.821 229.129C303.097 235.125 303.39 241.069 303.35 247.039C303.31 253.009 302.54 259.042 302.582 265.061C302.573 267.681 302.859 270.294 303.435 272.85C304.035 275.386 304.894 277.848 305.564 280.361C307.046 285.928 306.955 291.907 307.085 297.629C307.356 309.422 306.69 321.2 306.801 332.987C306.918 345.32 308.052 357.641 307.583 369.979C307.537 371.182 309.411 371.182 309.456 369.979C309.874 358.963 309.016 347.952 308.743 336.944C308.459 325.24 309.144 313.53 309.027 301.823C308.97 295.952 309.027 289.914 308.237 284.083C307.555 278.966 305.221 274.206 304.652 269.061C304.009 263.23 304.808 257.26 305.101 251.435C305.402 245.464 305.166 239.466 304.905 233.49C304.314 219.997 303.904 206.491 303.677 192.972C303.657 191.77 301.783 191.764 301.803 192.972L301.789 192.975Z" fill="black"/>
<path fill-rule="evenodd" clip-rule="evenodd" d="M324.23 144.065C324.23 144.065 317.356 152.594 312.006 155.522C309.842 156.796 304.111 160.355 301.692 160.87C300.421 161.126 297.618 161.126 294.564 159.733C289.598 157.441 284.543 152.108 284.543 152.108C284.543 152.108 291.636 167.881 301.566 168.136C312.896 168.517 323.591 152.983 323.591 152.983L324.23 144.065Z" fill="black"/>
<path d="M331.472 110.72C332.982 110.285 334.637 110.152 336.021 111.05C337.121 111.761 337.781 112.975 338.128 114.209C339.04 117.444 338.005 120.895 335.802 123.383C334.526 124.827 332.894 125.504 331.106 126.101C329.968 126.482 330.457 128.29 331.603 127.906C333.468 127.286 335.254 126.575 336.684 125.177C338.312 123.567 339.467 121.541 340.024 119.32C340.8 116.011 340.189 111.789 337.283 109.654C335.444 108.301 333.099 108.304 330.978 108.915C329.823 109.248 330.315 111.056 331.478 110.72H331.472Z" fill="black"/>
<path d="M333.298 115.63C332.899 115.906 332.537 116.231 332.221 116.6C331.448 117.49 330.847 118.515 330.447 119.624C330.382 119.864 330.414 120.12 330.537 120.336C330.659 120.552 330.862 120.711 331.101 120.779C331.338 120.834 331.587 120.797 331.798 120.676C332.009 120.555 332.166 120.358 332.238 120.125C332.266 120.048 332.295 119.971 332.326 119.897C332.357 119.823 332.357 119.821 332.371 119.784C332.315 119.917 332.306 119.937 332.346 119.846C332.408 119.71 332.471 119.562 332.539 119.437C332.656 119.207 332.781 118.979 332.917 118.757C333.054 118.536 333.167 118.376 333.304 118.189C333.44 118.001 333.19 118.334 333.284 118.214L333.361 118.123C333.423 118.044 333.489 117.97 333.554 117.896C333.74 117.684 333.94 117.485 334.154 117.302L334.262 117.214C334.393 117.106 334.037 117.381 334.157 117.293L334.228 117.242C334.438 117.115 334.589 116.91 334.649 116.672C334.71 116.434 334.674 116.182 334.55 115.97C334.426 115.759 334.224 115.604 333.987 115.54C333.75 115.475 333.498 115.507 333.284 115.627L333.298 115.63Z" fill="black"/>
<path d="M327.773 130.828C326.755 136.458 325.004 142.74 321.061 147.033C318.502 149.805 315.477 152.151 312.33 154.192C309.132 156.273 305.675 158.172 301.982 159.212C296.012 160.893 290.084 155.986 285.993 152.193C283.488 149.904 281.233 147.357 279.264 144.594C277.447 142.004 276.395 139.397 275.525 136.349C274.257 131.929 273.618 127.406 272.984 122.86C272.398 118.646 271.63 114.484 270.761 110.32C270.513 109.143 268.708 109.64 268.952 110.817C269.734 114.553 270.425 118.283 270.988 122.055C271.653 126.482 272.156 130.925 273.285 135.266C274.138 138.53 275.102 141.643 276.944 144.489C278.86 147.387 281.089 150.066 283.591 152.477C286.149 154.979 288.958 157.31 292.068 159.09C294.508 160.486 297.416 161.754 300.29 161.464C303.921 161.097 307.574 159.17 310.684 157.384C314.259 155.351 317.589 152.915 320.609 150.124C323.597 147.337 325.592 144.196 327.045 140.375C328.166 137.44 329.014 134.408 329.578 131.317C329.791 130.138 327.986 129.632 327.773 130.817V130.828Z" fill="black"/>
<path d="M269.227 110.061C267.442 110.371 265.878 111.36 265.119 113.043C264.42 114.587 264.377 116.341 264.551 117.998C264.994 122.197 268.05 126.473 272.281 127.525C273.449 127.809 273.95 126.01 272.778 125.72C269.401 124.867 266.808 121.381 266.424 117.998C266.282 116.71 266.237 115.309 266.709 114.075C267.22 112.728 268.36 112.102 269.728 111.866C270.913 111.661 270.41 109.856 269.23 110.061H269.227Z" fill="black"/>
<path d="M296.938 113.728C298.496 117.1 299.332 120.926 296.765 123.991C295.986 124.921 294.982 125.742 294.908 127.044C294.783 129.234 296.679 131.198 298.104 132.631C298.957 133.484 300.279 132.165 299.426 131.306C298.594 130.523 297.868 129.635 297.265 128.665C296.867 127.974 296.628 127.067 297.009 126.553C297.649 125.7 298.431 124.972 299.03 124.059C301.288 120.537 300.188 116.315 298.556 112.781C298.05 111.69 296.435 112.639 296.938 113.728Z" fill="black"/>
<path fill-rule="evenodd" clip-rule="evenodd" d="M315.181 115.164C315.056 113 313.782 111.218 312.127 111.218C310.473 111.218 309.324 113.128 309.324 115.42C309.452 117.583 310.726 119.366 312.38 119.366C314.035 119.238 315.309 117.33 315.181 115.164Z" fill="black"/>
<path d="M317.467 103.568C313.172 102.143 308.531 102.143 304.236 103.568C303.099 103.949 303.588 105.759 304.734 105.373C308.701 104.047 312.991 104.047 316.958 105.373C318.095 105.748 318.598 103.951 317.458 103.568H317.467Z" fill="black"/>
<path d="M323.335 144.065C322.826 149.362 322.425 154.698 322.533 160.02C322.59 162.797 322.491 166.468 324.049 168.915C324.691 169.93 326.323 168.989 325.663 167.969C325.095 167.062 324.901 165.91 324.745 164.864C324.505 163.038 324.389 161.197 324.398 159.354C324.341 154.251 324.722 149.143 325.206 144.065C325.322 142.865 323.449 142.874 323.335 144.065Z" fill="black"/>
<path fill-rule="evenodd" clip-rule="evenodd" d="M289.211 116.182C289.083 114.018 287.809 112.236 286.155 112.236C284.5 112.236 283.354 114.146 283.354 116.437C283.316 117.468 283.681 118.472 284.372 119.238C284.59 119.582 284.891 119.867 285.247 120.065C285.603 120.264 286.003 120.37 286.41 120.375C288.065 120.256 289.339 118.476 289.211 116.182Z" fill="black"/>
<path d="M280.26 106.041C281.799 105.196 283.51 104.71 285.263 104.619C287.124 104.586 288.968 104.989 290.645 105.796C290.861 105.914 291.114 105.945 291.353 105.883C291.591 105.821 291.796 105.67 291.927 105.461C292.163 105.057 292.052 104.392 291.592 104.179C289.602 103.263 287.469 102.672 285.263 102.757C283.178 102.861 281.144 103.439 279.316 104.446C278.25 105.015 279.194 106.627 280.26 106.061V106.041Z" fill="black"/>
<path d="M305.137 86.3876C304.665 84.3748 303.684 82.2369 302.109 80.841C301.066 79.9199 299.622 79.5446 298.786 80.9149C298.041 82.1374 297.538 83.5418 296.909 84.824C296.018 86.7241 294.982 88.5527 293.811 90.2938C291.377 93.7821 287.425 96.4232 283.138 96.8496C282.752 96.8866 282.12 96.7842 281.759 96.9122C281.501 97.006 281.924 96.8126 281.825 96.9406L282.43 97.9982C282.41 98.0522 282.388 98.1033 282.368 98.1545C282.396 98.1545 282.16 98.291 282.368 98.1545C282.434 98.098 282.496 98.0362 282.553 97.9697C283.332 97.2334 284.139 96.5284 284.904 95.7721C288.014 92.6875 290.504 88.9946 291.644 84.7273C291.954 83.5617 290.149 83.0642 289.839 84.2298C288.798 88.1218 286.553 91.4622 283.732 94.2938C283.113 94.9164 279.277 97.5774 281.071 98.6406C281.816 99.0813 283.292 98.7174 284.068 98.6009C285.924 98.3088 287.712 97.6878 289.35 96.7672C293.498 94.4587 296.045 90.7117 298.132 86.5724C298.587 85.674 299.019 84.7614 299.448 83.8488C299.732 83.2206 299.985 82.4274 300.406 81.8588C300.514 81.7166 300.446 81.8161 300.338 81.8303C300.176 81.8531 300.491 81.9128 300.537 81.9753C300.821 82.3733 301.322 82.6747 301.634 83.0955C302.457 84.227 303.038 85.5161 303.34 86.8823C303.624 88.0564 305.421 87.5589 305.148 86.3847L305.137 86.3876Z" fill="black"/>
<path d="M306.826 79.809C305.137 76.9291 302.701 74.3307 299.719 72.7785C297.845 71.8005 295.488 70.9647 293.615 72.3065C291.741 73.6484 290.203 75.5873 288.549 77.222C286.328 79.4167 283.883 81.5262 280.944 82.6861C279.835 83.1267 280.318 84.9377 281.441 84.4942C286.473 82.5042 289.768 78.4018 293.578 74.7856C294.053 74.3364 294.63 73.7053 295.269 73.4949C296.043 73.2419 297.396 73.7564 298.212 74.1203C301.186 75.4451 303.585 77.981 305.211 80.7529C305.819 81.7934 307.44 80.8496 306.829 79.809H306.826Z" fill="black"/>
<path d="M283.056 97.6314C281.188 101.589 278.879 104.98 274.993 107.11C272.329 108.568 268.679 110.521 265.651 109.552C265.791 110.072 265.936 110.595 266.066 111.115C267.553 109.919 268.813 108.389 269.95 106.868C272.57 103.372 274.37 99.3307 275.218 95.0443C275.448 93.8645 273.643 93.3613 273.412 94.544C272.307 100.196 269.31 106.118 264.741 109.791C264.156 110.263 264.548 111.161 265.154 111.357C266.334 111.738 267.712 111.641 268.921 111.479C271.417 111.121 273.614 109.99 275.803 108.801C277.375 107.98 278.812 106.926 280.068 105.674C282.058 103.639 283.479 101.125 284.668 98.5667C285.179 97.4836 283.565 96.5312 283.053 97.6229L283.056 97.6314Z" fill="black"/>
<path d="M308.094 88.7729C308.266 88.4794 308.474 88.209 308.714 87.9684C308.817 87.8749 308.946 87.8145 309.084 87.795C310.252 88.0792 311.31 89.876 311.966 90.8937C313.484 93.242 314.599 95.812 316.373 98.0011C317.747 99.7243 319.471 101.137 321.43 102.146C323.614 103.241 326.579 104.076 329.03 103.394C329.865 103.164 330.57 102.322 329.828 101.532C329.445 101.117 328.765 100.915 328.288 100.634C324.376 98.3309 322.172 93.8106 320.666 89.7168C320.253 88.5938 318.442 89.08 318.86 90.2143C320.342 94.2371 322.363 98.4162 325.78 101.16C326.538 101.756 327.352 102.277 328.211 102.718C328.295 102.773 328.384 102.82 328.478 102.857C328.762 102.936 328.441 102.934 328.507 102.857L328.296 102.499C328.248 102.325 328.257 102.141 328.32 101.972C328.383 101.804 328.498 101.66 328.649 101.56C328.629 101.529 328.836 101.56 328.708 101.538C328.544 101.559 328.383 101.599 328.228 101.657C325.783 102.106 322.647 100.938 320.552 99.4226C316.381 96.4176 315.15 91.3003 311.841 87.5846C311.039 86.6834 309.897 85.6997 308.592 85.9868C307.619 86.2029 306.991 87.0444 306.488 87.8404C305.845 88.861 307.463 89.8021 308.106 88.7843L308.094 88.7729Z" fill="black"/>
<path d="M327.277 109.518L327.098 109.501C327.197 109.515 327.189 109.501 327.075 109.501L326.791 109.447C326.57 109.398 326.351 109.336 326.137 109.262C325.75 109.128 325.378 108.952 325.028 108.739C324.13 108.194 323.325 107.507 322.646 106.706C320.735 104.517 319.684 101.694 319.129 98.8794C318.896 97.6996 317.091 98.1971 317.321 99.3769C317.952 102.564 319.231 105.688 321.412 108.133C322.924 109.839 324.954 111.198 327.266 111.397C328.465 111.499 328.46 109.626 327.266 109.523L327.277 109.518Z" fill="black"/>
<path d="M310.644 64.5312C308.765 61.3329 304.975 59.7664 301.416 59.5958C296.611 59.3655 291.75 60.8865 287.306 62.561C285.063 63.4139 282.857 64.352 280.674 65.3414C279.093 66.0607 277.547 66.9107 275.903 67.5077C273.805 68.2782 271.596 68.3606 269.47 68.9292C268.227 69.2647 268.5 70.4331 269.288 71.0927C270.607 72.1986 272.503 72.7586 274.158 73.0543C277.238 73.5606 280.396 73.2949 283.349 72.281C284.486 71.9086 284 70.0976 282.851 70.4729C279.156 71.684 274.641 72.0507 271.113 70.0664C270.877 69.9328 270.499 69.5205 270.28 69.4665C270.783 69.5916 269.427 70.6037 269.91 70.7458C270.007 70.7714 270.175 70.6918 270.271 70.6918C270.691 70.6638 271.108 70.6001 271.517 70.5013C273.532 70.163 275.559 69.7366 277.436 68.9008C284.489 65.7565 291.801 61.8446 299.676 61.4807C303.139 61.3215 307.136 62.271 309.026 65.4835C309.638 66.5212 311.258 65.5802 310.644 64.5397V64.5312Z" fill="black"/>
<path d="M270.403 73.1054C264.953 76.4061 262.582 83.0756 261.229 88.9775C260.518 92.082 259.986 95.2605 258.121 97.9271C257.686 98.5526 256.876 99.0643 256.598 99.7836C256.236 100.69 256.933 101.33 257.783 101.435C259.44 101.643 261.388 100.975 262.977 100.534C264.137 100.213 263.645 98.4076 262.48 98.7288C261.219 99.1158 259.927 99.3926 258.619 99.5561C258.38 99.576 257.973 99.5902 257.971 99.5959C257.919 99.7239 258.255 100.48 258.369 100.477C258.482 100.474 258.71 100.15 258.755 100.102C259.378 99.4327 259.916 98.6888 260.356 97.8873C261.777 95.3884 262.346 92.6393 262.946 89.8702C263.498 87.197 264.326 84.5884 265.416 82.0863C266.738 79.1779 268.566 76.4004 271.347 74.723C272.379 74.1004 271.438 72.48 270.403 73.1054Z" fill="black"/>
<path d="M264.591 92.9264C262.843 96.6677 261.378 100.747 261.504 104.938C261.612 108.077 262.69 111.105 264.591 113.606C265.305 114.561 266.931 113.626 266.209 112.659C264.503 110.385 263.462 107.792 263.366 104.938C263.249 101.083 264.588 97.3159 266.209 93.8731C266.715 92.7871 265.103 91.8347 264.591 92.9264Z" fill="black"/>
<path d="M269.219 111.9C270.424 111.9 270.427 110.027 269.219 110.027C268.01 110.027 268.01 111.9 269.219 111.9Z" fill="black"/>
<path d="M314.665 65.5234C324.9 63.2973 333.997 72.517 337.562 81.2562C338.984 84.7104 339.657 88.392 341.986 91.4026C343.058 92.7872 344.309 93.9442 345.932 94.6209L346.367 94.7971C346.409 94.7971 346.495 94.8852 346.529 94.8767L346.6 94.9194C346.198 94.5403 346.117 94.1897 346.355 93.8675C346.333 93.6827 346.529 93.7452 346.324 93.7992C346.179 93.8541 346.036 93.9167 345.898 93.9869C341.764 95.4652 337.539 92.1702 335.214 89.1027C334.495 88.1532 332.869 89.0856 333.596 90.0466C336.283 93.5889 340.272 96.6678 344.968 96.0935C345.884 95.9798 347.154 95.7523 347.811 94.999C348.792 93.8618 347.399 93.2363 346.535 92.8525C342.554 91.0871 341.383 86.382 340.092 82.6606C338.203 77.1649 334.887 72.27 330.483 68.4772C325.895 64.5482 320.203 62.4189 314.176 63.7295C312.999 63.9853 313.497 65.7906 314.674 65.5347L314.665 65.5234Z" fill="black"/>
<path d="M309.023 71.0784C310.334 73.9214 310.806 77.0827 309.279 79.9342C308.711 80.9974 310.325 81.9442 310.894 80.8809C311.731 79.3517 312.159 77.632 312.136 75.8887C312.096 73.873 311.477 71.9484 310.641 70.1317C310.431 69.6712 309.765 69.5632 309.359 69.7963C309.148 69.9256 308.996 70.1311 308.934 70.37C308.871 70.6089 308.903 70.8627 309.023 71.0784Z" fill="black"/>
<path d="M290.265 142.072C293.338 143.443 296.906 143.571 300.215 143.209C303.643 142.829 307.271 141.913 310.06 139.798C311.007 139.079 310.077 137.45 309.116 138.18C306.589 140.102 303.331 140.995 300.215 141.347C297.289 141.674 293.96 141.694 291.217 140.472C290.128 139.986 289.173 141.609 290.273 142.089L290.265 142.072Z" fill="black"/>
<path d="M340.378 98.6123C341.39 102.911 342.012 107.408 341.376 111.815C340.898 114.872 339.865 117.817 338.328 120.503C335.141 126.246 330.962 131.349 330.43 138.172C330.203 141.092 330.575 144.495 332.071 147.087C332.338 146.615 332.607 146.142 332.878 145.666C332.878 145.666 332.69 145.64 332.423 145.583C331.923 145.48 331.432 145.334 330.956 145.148C329.508 144.601 328.308 143.547 327.576 142.183C327.007 141.12 325.392 142.064 325.958 143.13C327.309 145.666 330.044 147.266 332.878 147.539C333.609 147.608 334.015 146.686 333.688 146.118C332.412 143.909 332.133 141.001 332.267 138.516C332.483 134.86 333.921 131.477 335.727 128.347C338.686 123.229 342.18 118.553 343.118 112.551C343.886 107.718 343.275 102.82 342.163 98.0892C341.879 96.9179 340.079 97.4126 340.355 98.5867L340.378 98.6123Z" fill="black"/>
<path d="M324.194 149.688C325.218 150.908 326.59 151.786 328.126 152.204C328.931 152.401 330.628 152.608 330.628 151.317C330.595 151.034 330.491 150.763 330.327 150.53C330.133 150.175 329.951 149.814 329.778 149.45C329.18 148.202 328.676 146.911 328.268 145.589C327.632 143.626 327.31 141.574 327.316 139.511C327.339 138.305 325.465 138.305 325.445 139.511C325.394 142.371 326.065 145.214 327.08 147.875C327.574 149.227 328.178 150.538 328.885 151.792C328.851 151.551 328.82 151.312 328.789 151.07C329.433 150.604 329.616 150.414 329.337 150.502C329.275 150.541 329.511 150.502 329.36 150.502C329.209 150.502 329.107 150.502 328.979 150.487C329.121 150.502 328.757 150.442 328.695 150.425C328.494 150.379 328.297 150.321 328.103 150.251C327.104 149.857 326.223 149.212 325.545 148.378C324.749 147.471 323.43 148.799 324.22 149.703L324.194 149.688Z" fill="black"/>
<path d="M275.54 142.283C275.768 144.389 275.719 146.448 275.114 148.446C275.02 148.753 274.909 149.052 274.793 149.353C274.707 149.58 274.861 149.222 274.793 149.384C274.767 149.433 274.747 149.487 274.722 149.538C274.679 149.632 274.631 149.728 274.582 149.822C274.495 150.002 274.394 150.175 274.281 150.34C274.209 150.464 274.167 150.604 274.158 150.747C274.149 150.891 274.173 151.034 274.228 151.167C274.282 151.3 274.367 151.418 274.475 151.513C274.583 151.609 274.711 151.678 274.85 151.715C277.357 152.185 279.799 150.789 281.002 148.611C281.584 147.556 279.967 146.621 279.384 147.667C279.21 147.999 278.998 148.31 278.753 148.594C278.643 148.718 278.526 148.835 278.403 148.946C278.316 149.035 278.221 149.116 278.119 149.188C277.875 149.358 277.615 149.505 277.343 149.626C277.493 149.561 277.314 149.626 277.286 149.646L277.087 149.714C276.959 149.757 276.831 149.791 276.7 149.822C276.57 149.853 276.479 149.868 276.368 149.887C276.257 149.907 276.257 149.887 276.368 149.887H276.203C276.021 149.902 275.842 149.91 275.66 149.907C275.529 149.907 275.398 149.89 275.265 149.882C275.083 149.882 275.549 149.93 275.353 149.882C275.542 150.342 275.732 150.801 275.921 151.258C276.388 150.538 276.736 149.748 276.953 148.918C277.562 146.753 277.73 144.488 277.448 142.257C277.441 142.011 277.34 141.777 277.166 141.603C276.993 141.428 276.759 141.327 276.513 141.319C276.046 141.319 275.52 141.751 275.575 142.257L275.54 142.283Z" fill="black"/>
<path d="M267.171 124.071C267.529 125.296 267.975 126.493 268.507 127.653C269.439 129.751 270.651 131.846 272.379 133.396C273.272 134.197 274.602 132.878 273.701 132.071C272.086 130.624 270.997 128.659 270.125 126.706C269.672 125.692 269.292 124.647 268.987 123.579C268.663 122.419 266.855 122.911 267.179 124.077L267.171 124.071Z" fill="black"/>
<path d="M281.194 149.617C281.596 153.616 281.642 157.642 281.333 161.649C281.12 164.148 280.793 166.851 279.739 169.16C279.241 170.249 280.856 171.201 281.356 170.107C282.493 167.642 282.891 164.893 283.156 162.217C283.522 158.024 283.492 153.805 283.068 149.617C282.96 148.429 281.078 148.418 281.194 149.617Z" fill="black"/>
<path d="M372.659 365.323C372.779 350.997 373.228 336.677 373.393 322.352C373.558 308.026 372.964 293.732 373.038 279.423C373.055 275.443 373.151 271.463 373.381 267.483C373.518 265.109 373.444 262.772 373.518 260.401H371.647C371.733 261.538 372.958 262.567 373.7 263.335C374.905 264.58 376.173 265.771 377.453 266.94C381.222 270.388 385.245 273.581 389.151 276.873C394.089 281.032 399.045 285.194 404.202 289.098C409.268 292.922 414.516 296.489 419.554 300.339C423.784 303.566 428.367 306.366 433.635 307.446C438.904 308.51 444.356 308.236 449.493 306.65C454.675 305.052 459.204 302.178 463.156 298.502C467.744 294.23 472.23 289.847 476.611 285.354C485.425 276.361 493.831 267.005 502.039 257.47C506.098 252.758 510.112 248.01 514.079 243.224C516.09 240.811 518.091 238.392 520.083 235.966L522.863 232.589C523.432 231.909 524.285 231.275 523.827 230.337C523.421 229.484 522.468 228.731 521.809 228.063C520.643 226.908 519.449 225.788 518.252 224.651C515.659 222.232 513.101 219.838 510.678 217.24C509.592 216.071 508.515 214.9 507.401 213.76C506.477 212.816 505.433 211.449 504.197 210.917C503.159 210.456 502.164 210.88 501.334 211.554C500.165 212.536 499.056 213.588 498.013 214.704C495.889 216.91 493.934 219.252 491.889 221.544C489.845 223.835 487.625 226.05 485.419 228.23C476.339 237.2 466.863 245.837 456.685 253.553C454.519 255.249 452.268 256.832 449.939 258.297C447.878 259.554 445.76 260.72 443.77 262.087C441.874 263.395 440.097 264.876 438.698 266.718C437.038 268.904 436.102 271.551 435.414 274.189C434.647 277.123 434.087 280.123 433.45 283.088C433.194 284.262 434.999 284.765 435.255 283.585C435.895 280.62 436.455 277.615 437.22 274.687C437.891 272.128 438.783 269.547 440.472 267.472C443.386 263.887 447.75 261.882 451.588 259.483C456.279 256.552 460.628 252.944 464.893 249.43C469.481 245.655 473.931 241.712 478.277 237.66C482.789 233.453 487.272 229.189 491.52 224.711C493.436 222.69 495.216 220.557 497.078 218.482C498.002 217.444 498.943 216.421 499.921 215.434C500.41 214.94 500.908 214.456 501.416 213.984C501.669 213.748 501.928 213.518 502.187 213.288C502.823 212.719 503.039 212.373 503.875 212.941C504.964 213.692 505.922 214.931 506.835 215.881C507.884 216.978 508.91 218.101 509.948 219.21C511.244 220.591 512.563 221.953 513.956 223.235C516.103 225.225 518.261 227.187 520.339 229.24C520.774 229.672 521.212 230.093 521.627 230.556C521.837 230.783 522.46 231.548 522.15 230.914C522.133 230.803 522.116 230.69 522.096 230.579L521.541 231.253L520.848 232.105L519.597 233.626L516.535 237.342C512.718 241.963 508.872 246.561 504.998 251.136C497.322 260.174 489.496 269.081 481.362 277.703C477.255 282.062 473.064 286.338 468.791 290.531C464.81 294.425 460.873 298.71 456.091 301.618C447.153 307.079 435.605 307.873 426.371 302.679C421.538 299.946 417.274 296.185 412.748 292.967C407.721 289.391 402.797 285.729 398.018 281.828C393.239 277.928 388.563 273.931 383.852 269.962C381.06 267.611 378.288 265.282 375.701 262.704C375.167 262.172 374.635 261.629 374.135 261.064C373.973 260.876 373.828 260.663 373.657 260.495C373.487 260.327 373.484 260.049 373.509 260.41C373.421 259.218 371.676 259.193 371.639 260.41C371.573 262.474 371.684 264.509 371.553 266.576C371.332 270.093 371.221 273.615 371.175 277.138C371.084 284.222 371.266 291.304 371.417 298.386C371.724 312.688 371.468 326.983 371.173 341.283C371.008 349.306 370.846 357.326 370.777 365.348C370.777 366.554 372.639 366.557 372.651 365.348L372.659 365.323Z" fill="black"/>
<path d="M372.558 201.788C370.464 216.411 369.797 231.202 370.568 245.953C370.631 247.15 372.504 247.159 372.442 245.953C371.669 231.369 372.316 216.745 374.375 202.286C374.545 201.106 372.74 200.597 372.57 201.788H372.558Z" fill="black"/>
<path d="M273.318 171.9C264.006 176.032 254.395 179.453 244.567 182.135C240.152 183.332 235.712 184.509 231.706 186.789C227.882 188.961 224.465 191.815 221.352 194.908C218.148 198.092 215.24 201.552 212.297 204.972C208.982 208.833 205.611 212.648 202.259 216.475C198.817 220.409 195.386 224.356 191.967 228.316C188.638 232.185 185.403 236.134 181.949 239.889C178.253 243.918 174.398 247.815 170.844 251.98C169.903 253.078 169.013 254.215 168.095 255.329C167.723 255.821 167.266 256.244 166.748 256.577C166.242 256.887 165.761 257.112 165.363 257.561C163.964 259.133 163.76 261.237 161.573 262.027C160.436 262.434 160.934 264.242 162.071 263.833C163.59 263.307 164.852 262.221 165.596 260.796C166.102 259.909 166.449 258.934 167.342 258.385C168.291 257.812 169.123 257.064 169.795 256.182C172.905 252.276 176.317 248.634 179.745 245.001C186.799 237.504 193.332 229.55 200.098 221.794C206.58 214.365 212.917 206.772 219.569 199.491C222.591 196.185 225.824 193.009 229.483 190.428C233.417 187.656 237.71 185.962 242.327 184.685C253.204 181.677 263.933 178.084 274.27 173.507C275.368 173.021 274.418 171.406 273.324 171.889L273.318 171.9Z" fill="black"/>
<path d="M101.844 211.096C99.9335 208.105 97.5113 205.296 94.2164 203.812C90.4182 202.107 86.3898 202.57 82.4409 203.477C79.9761 204.045 77.5511 204.773 75.0862 205.345C72.7237 205.891 70.3783 206.365 68.0642 207.104C65.8239 207.815 63.6178 208.631 61.369 209.311C60.2489 209.652 59.4216 209.828 58.2759 209.481C57.2866 209.18 56.3484 208.739 55.3505 208.463C51.5296 207.409 46.654 206.715 43.1827 209.097C42.1934 209.774 43.1287 211.397 44.1266 210.715C47.1145 208.665 51.2738 209.333 54.563 210.192C56.2688 210.638 57.9376 211.659 59.7457 211.613C60.6754 211.585 61.5965 211.213 62.4721 210.94C63.6093 210.587 64.7095 210.206 65.8268 209.828C67.922 209.117 70.0229 208.407 72.175 207.889C74.4636 207.338 76.7636 206.886 79.0436 206.283C83.0635 205.22 87.4786 203.787 91.6435 204.881C95.4559 205.882 98.1823 208.833 100.226 212.048C100.875 213.06 102.501 212.122 101.844 211.104V211.096Z" fill="black"/>
<path d="M83.9832 209.012C81.9477 208.955 79.9889 208.443 77.9846 208.131C76.1023 207.831 74.1854 207.816 72.2987 208.088C68.367 208.657 64.4607 209.814 60.7024 211.076C56.9298 212.349 53.2449 213.868 49.6718 215.625C48.853 216.026 48.0541 216.523 47.1444 216.682C46.1514 216.813 45.1418 216.733 44.1821 216.446C42.536 216.031 40.9752 215.338 39.332 214.911C36.5687 214.189 33.3163 213.774 30.6013 214.945C29.6489 215.352 28.7506 216.082 28.6909 217.188C28.6255 218.362 29.521 219.272 30.3966 219.932C31.3689 220.674 32.4635 221.203 33.5239 221.783C35.2638 222.721 36.9212 223.81 38.698 224.682C40.3245 225.51 41.9948 226.248 43.7016 226.894C45.4358 227.525 47.2382 227.505 49.0463 227.25C53.5467 226.61 58.0471 225.655 62.519 224.816C67.1388 223.963 71.733 222.923 76.1992 221.439C77.3364 221.058 76.8503 219.25 75.7017 219.63C68.5318 222.019 61.0606 223.17 53.6462 224.512C51.8267 224.839 50.0044 225.296 48.165 225.487C46.3778 225.676 44.5734 225.357 42.9596 224.566C41.3306 223.815 39.6788 223.144 38.1124 222.255C36.7364 221.487 35.4002 220.651 34.0072 219.92C32.9809 219.383 31.8181 218.851 31.005 218.007C30.0953 217.06 31.1187 216.674 32.0455 216.424C34.9311 215.648 38.0157 216.375 40.7648 217.322C43.6675 218.32 46.536 219.258 49.4557 217.822C52.8044 216.146 56.2483 214.667 59.7699 213.393C63.5868 212 67.5056 210.904 71.4913 210.115C73.6771 209.684 75.9237 209.66 78.1182 210.044C80.0713 210.385 81.9988 210.829 83.9889 210.897C85.1972 210.931 85.1943 209.058 83.9889 209.026L83.9832 209.012Z" fill="black"/>
<path d="M57.9916 225.74C63.1544 226.979 68.6327 226.348 73.7586 225.208C75.7856 224.756 77.8354 224.247 79.9192 224.21C80.846 224.21 81.8496 224.245 82.6968 224.668C83.7714 225.208 84.4878 226.294 85.4999 226.943C86.512 227.591 87.4558 225.979 86.4438 225.325C85.4317 224.671 84.7892 223.673 83.7544 223.102C82.9316 222.679 82.0305 222.432 81.1076 222.374C78.9896 222.178 76.8147 222.621 74.7536 223.065C69.4231 224.202 63.8936 225.225 58.4891 223.918C57.3207 223.633 56.8203 225.441 57.9916 225.723V225.74Z" fill="black"/>
<path d="M31.0264 214.84C29.9603 214.348 28.6326 214.24 27.6603 213.578C26.5061 212.796 27.4187 212.085 28.3313 211.756C31.106 210.749 34.4862 211.4 37.1444 212.418C40.2716 213.618 43.4159 215.068 46.762 215.525C48.4991 215.761 50.1451 215.48 51.8452 215.139L57.3861 214.021C58.5688 213.783 58.0684 211.977 56.8886 212.213C54.6341 212.671 52.3825 213.183 50.1139 213.572C47.9902 213.936 46.0399 213.598 43.9987 212.969C40.0982 211.77 36.4876 209.646 32.3426 209.493C30.2019 209.41 26.7619 209.41 25.5196 211.588C24.9282 212.631 25.2694 213.936 26.1081 214.738C27.1969 215.781 28.7776 215.855 30.0882 216.444C31.1742 216.944 32.1294 215.329 31.032 214.826L31.0264 214.84Z" fill="black"/>
<path d="M34.3215 210.8C35.9647 208.81 38.6201 209.271 40.8148 209.908C41.9918 210.249 43.1261 210.684 44.2775 211.102C45.3777 211.5 46.5263 211.71 47.6236 212.105C48.5647 212.441 49.4545 212.808 50.4666 212.896C51.6038 212.992 52.7409 212.839 53.8525 212.833C56.4595 212.816 59.0636 212.785 61.6678 212.7C62.8703 212.66 62.876 210.789 61.6678 210.829C58.9243 210.917 56.1837 210.908 53.4403 210.962C52.2264 210.985 50.9755 211.196 49.7843 210.886C48.5931 210.576 47.3934 210.098 46.1823 209.749C42.2022 208.631 36.4082 205.322 33.0052 209.464C32.2433 210.388 33.5738 211.722 34.3272 210.789L34.3215 210.8Z" fill="black"/>
<path d="M172.131 283.071C170.948 277.578 170.317 271.159 166.783 266.582C163.875 262.806 159.48 260.634 155.5 258.204C150.414 255.099 145.74 251.196 141.163 247.4C136.31 243.369 131.613 239.156 127.025 234.826C122.362 230.431 117.674 226.013 113.41 221.226C111.42 218.997 109.504 216.697 107.423 214.55C106.424 213.488 105.364 212.486 104.247 211.548C103.357 210.823 102.237 210.394 101.16 211.005C100.023 211.65 99.0873 212.839 98.1804 213.766C97.066 214.903 95.9885 216.077 94.9025 217.245C93.4298 218.826 91.943 220.395 90.3538 221.862C88.0794 223.949 85.8051 226.024 83.6302 228.202C83.0133 228.816 82.1178 229.533 81.7454 230.343C81.3473 231.196 82.0552 231.764 82.5812 232.404L85.7766 236.287C89.77 241.137 93.7928 245.965 97.8449 250.769C105.922 260.327 114.166 269.746 122.749 278.855C127.006 283.371 131.351 287.802 135.784 292.148C139.92 296.185 144.009 300.572 149.032 303.52C158.235 308.922 170.007 309.721 179.52 304.64C184.637 301.905 189.072 297.931 193.783 294.576C199.002 290.863 204.108 287.051 209.069 283C214.133 278.863 219.096 274.607 224.103 270.4C226.849 268.091 229.57 265.76 232.063 263.159C232.765 262.425 233.874 261.479 233.956 260.393H232.083C232.39 267.062 232.205 273.754 232.489 280.41C232.774 287.131 233.342 293.843 233.692 300.561C234.401 314.125 234.862 327.699 235.076 341.283C235.205 348.889 235.269 356.494 235.267 364.1C235.267 365.303 237.14 365.306 237.14 364.1C237.14 350.517 236.932 336.936 236.515 323.358C236.086 309.783 235.301 296.239 234.477 282.684C234.027 275.261 234.298 267.818 233.956 260.393C233.9 259.182 232.174 259.199 232.083 260.393C232.111 260.04 232.083 260.327 231.935 260.478C231.787 260.629 231.622 260.867 231.457 261.047C230.903 261.678 230.32 262.275 229.712 262.866C228.575 264.003 227.409 265.081 226.224 266.147C222.403 269.587 218.363 272.811 214.428 276.12C209.672 280.12 204.902 284.131 199.929 287.853C195.125 291.443 190.161 294.798 185.407 298.46C181.322 301.607 176.953 304.407 171.852 305.53C166.67 306.63 161.288 306.346 156.25 304.706C151.107 303.051 146.869 300.06 142.971 296.404C138.657 292.367 134.438 288.234 130.314 284.003C121.922 275.426 113.879 266.522 106.033 257.447C102.202 253.022 98.4116 248.559 94.6608 244.06C92.6935 241.706 90.7338 239.345 88.7816 236.978C87.8984 235.909 87.0162 234.839 86.1349 233.769L84.8868 232.25L84.0538 231.235L83.6387 230.729C83.4113 230.369 83.3289 230.538 83.3914 231.235C83.3658 231.235 85.1142 229.362 85.3331 229.149C86.4703 228.012 87.6587 226.909 88.8385 225.808C91.2123 223.594 93.572 221.41 95.7923 219.034C96.7305 218.03 97.6601 217.018 98.6097 216.02C99.11 215.494 99.6161 214.971 100.131 214.456C100.526 214.064 101.788 212.489 102.419 212.574C103.05 212.66 103.77 213.589 104.179 213.967C104.689 214.439 105.186 214.923 105.672 215.417C106.649 216.404 107.591 217.427 108.514 218.465C112.495 222.928 116.515 227.278 120.81 231.457C129.382 239.781 138.269 247.787 147.787 255.02C149.902 256.629 152.023 258.243 154.283 259.639C156.193 260.816 158.158 261.914 160.037 263.128C161.916 264.342 163.818 265.8 165.248 267.614C166.954 269.769 167.807 272.447 168.475 275.076C169.18 277.882 169.726 280.737 170.337 283.568C170.59 284.745 172.398 284.248 172.142 283.071H172.131Z" fill="black"/>
<path d="M231.208 202.286C233.268 216.744 233.916 231.369 233.144 245.953C233.082 247.156 234.955 247.153 235.018 245.953C235.788 231.202 235.121 216.411 233.028 201.788C232.857 200.6 231.038 201.106 231.22 202.286H231.208Z" fill="black"/>
<path d="M109.847 96.6221C110.354 96.6182 110.851 96.7649 111.274 97.0436C111.698 97.3224 112.029 97.7206 112.225 98.1878C112.422 98.6549 112.476 99.17 112.379 99.6677C112.283 100.165 112.041 100.623 111.684 100.983C111.327 101.343 110.871 101.588 110.374 101.689C109.877 101.789 109.361 101.74 108.893 101.547C108.424 101.353 108.023 101.026 107.741 100.604C107.459 100.183 107.309 99.6877 107.309 99.1808C107.309 98.5056 107.575 97.8578 108.051 97.3786C108.527 96.8993 109.172 96.6274 109.847 96.6221Z" fill="#F3AD07"/>
<path d="M49.0314 125.128C49.5381 125.128 50.0335 125.279 50.4546 125.561C50.8758 125.843 51.2037 126.243 51.3968 126.712C51.59 127.18 51.6396 127.696 51.5395 128.192C51.4394 128.689 51.194 129.145 50.8345 129.502C50.4749 129.859 50.0174 130.102 49.52 130.198C49.0225 130.295 48.5076 130.242 48.0403 130.046C47.5731 129.85 47.1747 129.519 46.8956 129.096C46.6165 128.673 46.4693 128.177 46.4727 127.67C46.4719 127.334 46.5377 127.002 46.6663 126.692C46.7948 126.383 46.9835 126.101 47.2215 125.865C47.4594 125.629 47.7419 125.442 48.0526 125.315C48.3633 125.189 48.696 125.125 49.0314 125.128Z" fill="#F3AD07"/>
<path d="M109.848 174.451V105.72L129.273 113.023L141.032 98.1119L140.594 174.456L109.848 174.451Z" fill="#A4DBFF"/>
<path d="M109.849 174.451H77.6328V143.047L109.849 105.72V174.451Z" fill="#A4DBFF"/>
<path d="M77.6312 174.451H49.0312V134.149L77.4607 143.221L77.6085 143.045L77.6312 174.451Z" fill="#A4DBFF"/>
<path d="M9.51562 174.451L49.0325 134.149V174.459L9.51562 174.451Z" fill="#A4DBFF"/>
<path d="M4.80985 53.8331V173.632C4.80985 175.238 4.71035 176.881 4.80985 178.487C4.80985 178.556 4.80985 178.624 4.80985 178.695C4.80985 179.9 6.6805 179.9 6.6805 178.695V58.8935C6.6805 57.2873 6.78 55.644 6.6805 54.0406C6.6805 53.9724 6.6805 53.9013 6.6805 53.8331C6.6805 52.6277 4.80985 52.6249 4.80985 53.8331Z" fill="black"/>
<path d="M4.80985 53.8331V173.632C4.80985 175.238 4.71035 176.881 4.80985 178.487C4.80985 178.556 4.80985 178.624 4.80985 178.695C4.80985 179.9 6.6805 179.9 6.6805 178.695V58.8935C6.6805 57.2873 6.78 55.644 6.6805 54.0406C6.6805 53.9724 6.6805 53.9013 6.6805 53.8331C6.6805 52.6277 4.80985 52.6249 4.80985 53.8331Z" fill="black"/>
<path d="M4.84146 53.583C3.44842 57.2731 2.05444 60.9623 0.659502 64.6505C0.460496 65.1774 0.262439 65.7015 0.0653288 66.2227C-0.363955 67.3599 1.44699 67.8403 1.87059 66.723C3.26363 63.0329 4.65857 59.3428 6.0554 55.6526C6.24493 55.1295 6.44299 54.6055 6.64958 54.0805C7.07602 52.9433 5.26506 52.4657 4.84146 53.583Z" fill="black"/>
<path d="M4.84187 54.0804C6.2387 57.7705 7.63364 61.4597 9.02668 65.1479C9.22569 65.6739 9.42469 66.197 9.62085 66.7229C10.0445 67.8374 11.8554 67.3541 11.429 66.2226C10.0321 62.5343 8.6372 58.8452 7.24416 55.155C7.04515 54.6319 6.84615 54.106 6.64999 53.5829C6.22639 52.4656 4.41543 52.9517 4.84187 54.0804Z" fill="black"/>
<path d="M157.119 177.757H24.3538C18.2443 177.757 12.0979 177.555 5.99408 177.757H5.74106C4.53565 177.757 4.53281 179.63 5.74106 179.63H138.506C144.613 179.63 150.759 179.832 156.866 179.63H157.116C158.322 179.63 158.324 177.757 157.116 177.757H157.119Z" fill="black"/>
<path d="M157.119 177.757H24.3538C18.2443 177.757 12.0979 177.555 5.99408 177.757H5.74106C4.53565 177.757 4.53281 179.63 5.74106 179.63H138.506C144.613 179.63 150.759 179.832 156.866 179.63H157.116C158.322 179.63 158.324 177.757 157.116 177.757H157.119Z" fill="black"/>
<path d="M157.371 177.791L146.304 173.606L144.731 173.012C143.594 172.586 143.114 174.397 144.234 174.817L155.299 179.002L156.874 179.596C158.011 180.023 158.488 178.215 157.371 177.791Z" fill="black"/>
<path d="M156.875 177.791L145.807 181.976L144.235 182.57C143.118 182.991 143.601 184.805 144.733 184.375L155.8 180.205L157.372 179.611C158.49 179.19 158.003 177.379 156.875 177.805V177.791Z" fill="black"/>
<path d="M156.172 77.4181L146.049 83.5106L144.596 84.3976C143.564 85.0173 144.502 86.6378 145.54 86.0152L155.664 79.9199L157.119 79.0471C158.151 78.4245 157.21 76.8041 156.172 77.4295V77.4181Z" fill="black"/>
<path d="M155.743 77.9782C154.555 81.7347 153.367 85.4902 152.181 89.2448L151.669 90.8624C151.305 91.9996 153.113 92.5056 153.477 91.3599C154.662 87.6035 155.848 83.847 157.037 80.0905L157.548 78.4757C157.912 77.3215 156.107 76.8297 155.743 77.9782Z" fill="black"/>
<path d="M10.1078 175.116L23.4469 161.532L44.769 139.784C46.397 138.125 48.0251 136.466 49.6531 134.806L48.7434 135.047L73.6959 143.008L77.1785 144.122C77.3379 144.167 77.5064 144.168 77.6664 144.126C77.8265 144.083 77.9722 143.998 78.0882 143.88L89.0165 131.215L106.447 111.03C107.773 109.478 109.111 107.927 110.461 106.376L109.548 106.618L126.529 113.009L128.971 113.93C129.131 113.977 129.3 113.98 129.461 113.937C129.622 113.895 129.768 113.809 129.884 113.688L139.177 101.899L153.909 83.212L157.321 78.8993C158.057 77.9639 156.752 76.6249 155.996 77.5745L146.7 89.3641L131.968 108.051C130.83 109.489 129.693 110.927 128.556 112.364L129.469 112.125L112.491 105.72L110.049 104.801C109.889 104.754 109.72 104.752 109.559 104.794C109.398 104.836 109.252 104.921 109.136 105.04L98.2162 117.705L80.789 137.89L76.7719 142.544L77.6845 142.303L52.732 134.342L49.2437 133.231C49.0845 133.187 48.9165 133.185 48.7567 133.227C48.5969 133.269 48.451 133.353 48.334 133.469L35.0091 147.053L13.6871 168.802L8.80577 173.78C7.95288 174.632 9.28338 175.966 10.1277 175.104L10.1078 175.116Z" fill="black"/>
<path d="M48.0469 134.149V174.459C48.0469 175.665 49.9204 175.667 49.9204 174.459V134.149C49.9204 132.944 48.0469 132.944 48.0469 134.149Z" fill="black"/>
<path d="M78.518 174.456V143.042C78.518 141.836 76.6445 141.833 76.6445 143.042V174.456C76.6445 175.662 78.518 175.662 78.518 174.456Z" fill="black"/>
<path d="M110.722 174.456V105.72C110.722 104.514 108.852 104.511 108.852 105.72V174.468C108.852 175.673 110.722 175.673 110.722 174.468V174.456Z" fill="black"/>
<path d="M50.5943 127.67V127.883C50.5943 128.071 50.5943 127.852 50.5943 127.841C50.6171 127.92 50.5403 128.094 50.5176 128.173C50.5043 128.24 50.4813 128.304 50.4494 128.364C50.4494 128.364 50.546 128.173 50.4494 128.324C50.3527 128.475 50.3186 128.554 50.2447 128.668C50.1309 128.841 50.347 128.585 50.2447 128.668C50.2049 128.706 50.1678 128.747 50.1338 128.79L50.0258 128.904C49.9406 128.978 49.8447 129.04 49.7415 129.086C49.7017 129.109 49.6619 129.126 49.6249 129.148C49.4657 129.239 49.7955 129.103 49.568 129.171C49.4607 129.207 49.3516 129.237 49.2411 129.262C49.1615 129.279 49.0648 129.344 49.2411 129.262C49.1837 129.272 49.125 129.272 49.0677 129.262C48.9483 129.262 48.8317 129.262 48.7152 129.262C48.5986 129.262 48.9426 129.31 48.7152 129.262C48.6469 129.245 48.5815 129.234 48.5133 129.214C48.4451 129.194 48.3854 129.171 48.32 129.151C48.2546 129.131 48.2546 129.168 48.3569 129.168C48.2773 129.168 48.1352 129.052 48.0727 129.009C48.0101 128.966 47.9845 128.944 47.9362 128.915C47.8225 128.85 48.0954 129.066 47.9362 128.915C47.8708 128.85 47.6803 128.719 47.6519 128.631C47.6718 128.719 47.7343 128.75 47.6775 128.662C47.6206 128.574 47.6007 128.551 47.5666 128.494C47.5325 128.438 47.524 128.418 47.5012 128.378C47.4785 128.338 47.3505 128.173 47.4842 128.358C47.4314 128.257 47.3959 128.149 47.379 128.037C47.379 127.991 47.3591 127.949 47.3505 127.903C47.3079 127.715 47.3505 128.094 47.3505 127.841C47.3448 127.734 47.3448 127.628 47.3505 127.522C47.352 127.499 47.352 127.477 47.3505 127.454C47.3505 127.346 47.3505 127.36 47.3505 127.494C47.3617 127.45 47.3703 127.405 47.3761 127.36C47.4018 127.25 47.4331 127.14 47.47 127.033C47.5382 126.82 47.3733 127.204 47.47 127.01C47.5041 126.954 47.5325 126.891 47.5666 126.834C47.6007 126.777 47.6292 126.74 47.6576 126.695C47.7372 126.584 47.7287 126.595 47.6576 126.695C47.6576 126.629 47.8367 126.502 47.885 126.456C47.9333 126.411 48.0499 126.294 47.9419 126.402C47.8338 126.51 47.9902 126.368 48.0073 126.357C48.0869 126.303 48.2631 126.155 48.3541 126.16C48.3541 126.16 48.1437 126.234 48.3172 126.177C48.3825 126.155 48.4451 126.132 48.5105 126.115L48.6441 126.081C48.6583 126.081 48.8801 126.035 48.7237 126.064C48.5673 126.092 48.7919 126.064 48.809 126.064H49.0336C49.0933 126.064 49.1501 126.064 49.2098 126.064C49.4202 126.064 49.0478 126.021 49.2354 126.064C49.369 126.098 49.497 126.132 49.6306 126.175C49.8296 126.24 49.5226 126.095 49.6306 126.175C49.7386 126.254 49.7727 126.246 49.8353 126.285L49.949 126.357L50.057 126.433C49.9547 126.354 49.9433 126.348 50.0229 126.413L50.256 126.647C50.4124 126.8 50.1537 126.479 50.2731 126.664L50.384 126.831C50.4181 126.888 50.4465 126.951 50.4778 127.008C50.5716 127.17 50.4266 126.834 50.4778 127.03C50.5204 127.161 50.5545 127.289 50.5887 127.423C50.6057 127.494 50.654 127.542 50.5887 127.38C50.609 127.473 50.6147 127.569 50.6057 127.664C50.6057 127.912 50.7043 128.15 50.8797 128.326C51.0551 128.501 51.293 128.6 51.541 128.6C51.7891 128.6 52.027 128.501 52.2024 128.326C52.3778 128.15 52.4764 127.912 52.4764 127.664C52.4679 126.947 52.2418 126.25 51.828 125.665C51.4142 125.079 50.8323 124.634 50.1594 124.386C49.4979 124.152 48.7808 124.123 48.1028 124.304C47.4247 124.486 46.8175 124.868 46.3612 125.401C45.8877 125.951 45.5982 126.635 45.5334 127.358C45.4686 128.081 45.6317 128.806 45.9999 129.431C46.368 130.056 46.9227 130.551 47.5861 130.845C48.2495 131.139 48.9883 131.217 49.6988 131.07C51.3136 130.786 52.4565 129.265 52.4764 127.659C52.4764 127.411 52.3778 127.173 52.2024 126.997C52.027 126.822 51.7891 126.723 51.541 126.723C51.293 126.723 51.0551 126.822 50.8797 126.997C50.7043 127.173 50.6057 127.411 50.6057 127.659L50.5943 127.67Z" fill="black"/>
<path d="M111.403 99.1552C111.403 99.2263 111.403 99.2974 111.403 99.3685C111.403 99.5561 111.403 99.3372 111.403 99.3258C111.399 99.4409 111.372 99.5541 111.324 99.6584C111.31 99.7249 111.287 99.7891 111.255 99.8489C111.255 99.8347 111.352 99.6585 111.255 99.8091C111.159 99.9598 111.125 100.039 111.051 100.153C110.937 100.327 111.153 100.071 111.051 100.153C111.011 100.191 110.974 100.232 110.94 100.275L110.832 100.389C110.746 100.462 110.65 100.523 110.547 100.571L110.428 100.634C110.272 100.725 110.602 100.588 110.374 100.656C110.267 100.692 110.158 100.723 110.047 100.747C109.968 100.764 109.868 100.83 110.047 100.747C109.99 100.756 109.931 100.756 109.874 100.747C109.754 100.747 109.638 100.747 109.518 100.747C109.399 100.747 109.746 100.796 109.518 100.747C109.453 100.73 109.385 100.719 109.319 100.699C109.254 100.679 109.191 100.656 109.126 100.636C109.061 100.617 109.061 100.656 109.163 100.653C109.083 100.653 108.941 100.537 108.879 100.494C108.816 100.452 108.791 100.429 108.742 100.4C108.629 100.335 108.899 100.551 108.742 100.4C108.677 100.335 108.484 100.204 108.458 100.116C108.478 100.204 108.543 100.236 108.484 100.147C108.424 100.059 108.41 100.037 108.375 99.9797C108.341 99.9228 108.33 99.9029 108.31 99.8631C108.29 99.8233 108.159 99.6585 108.293 99.8432C108.239 99.7433 108.203 99.6345 108.188 99.522C108.188 99.4765 108.168 99.4339 108.157 99.3884C108.114 99.2007 108.157 99.5789 108.157 99.3258C108.149 99.2198 108.149 99.1134 108.157 99.0074V98.9392C108.157 98.8312 108.157 98.8454 108.157 98.979C108.169 98.9353 108.178 98.8906 108.182 98.8454C108.208 98.7345 108.245 98.6265 108.279 98.5184C108.347 98.3052 108.179 98.689 108.279 98.4957C108.313 98.4388 108.341 98.3763 108.375 98.3194C108.41 98.2626 108.435 98.2256 108.466 98.1801C108.543 98.0692 108.538 98.0806 108.466 98.1801C108.466 98.1119 108.646 97.984 108.694 97.9385L108.751 97.8845C108.648 97.9868 108.799 97.8503 108.819 97.839C108.899 97.785 109.072 97.6371 109.166 97.6428C109.166 97.6428 108.955 97.7167 109.129 97.6599L109.322 97.5973L109.456 97.5632C109.456 97.5632 109.692 97.5177 109.535 97.5461C109.379 97.5746 109.601 97.5461 109.618 97.5461H109.797H109.973C110.184 97.5461 109.811 97.5035 109.999 97.5461C110.132 97.5803 110.26 97.6144 110.391 97.657C110.59 97.7224 110.283 97.5774 110.391 97.657C110.457 97.6984 110.525 97.7355 110.596 97.7679L110.71 97.839L110.818 97.9157C110.715 97.8361 110.704 97.8304 110.781 97.8958C110.857 97.9612 110.937 98.0522 111.014 98.1289C111.17 98.2853 110.911 97.9612 111.034 98.146C111.071 98.2029 111.108 98.2569 111.142 98.3137C111.176 98.3706 111.204 98.4331 111.238 98.49C111.332 98.6521 111.187 98.3166 111.238 98.5128C111.281 98.6435 111.315 98.7715 111.349 98.9051C111.366 98.9762 111.412 99.0245 111.349 98.8624C111.365 98.9565 111.365 99.0526 111.349 99.1467C111.342 99.2741 111.361 99.4015 111.405 99.5213C111.449 99.641 111.517 99.7506 111.605 99.8432C111.692 99.9359 111.798 100.01 111.915 100.06C112.032 100.111 112.158 100.137 112.286 100.137C112.413 100.137 112.54 100.111 112.657 100.06C112.774 100.01 112.88 99.9359 112.967 99.8432C113.055 99.7506 113.123 99.641 113.167 99.5213C113.211 99.4015 113.23 99.2741 113.223 99.1467C113.214 98.4295 112.988 97.7317 112.574 97.1462C112.159 96.5607 111.577 96.1152 110.903 95.8688C110.246 95.6494 109.539 95.631 108.872 95.8159C108.205 96.0007 107.609 96.3805 107.159 96.9065C106.685 97.4565 106.395 98.1411 106.33 98.8642C106.265 99.5873 106.429 100.313 106.797 100.938C107.166 101.563 107.721 102.058 108.385 102.351C109.049 102.645 109.788 102.723 110.499 102.575C112.114 102.291 113.254 100.77 113.277 99.1638C113.274 98.9164 113.175 98.6798 113 98.5049C112.825 98.3299 112.589 98.2307 112.341 98.2285C112.096 98.232 111.861 98.3305 111.686 98.5032C111.511 98.6759 111.41 98.9096 111.403 99.1552Z" fill="black"/>
<path d="M523.287 122.163L523.245 122.217L483.791 131.915L479.785 132.893C477.391 123.206 478.31 112.998 482.395 103.895L486.162 105.569L523.287 122.163Z" fill="white"/>
<path d="M568.937 142.558L574.074 144.833C569.448 155.262 561.7 163.998 551.899 169.836L549.005 165.003L546.415 160.685L544.3 157.148L523.367 122.18L560.564 138.806L564.343 140.492L568.937 142.558Z" fill="#999147"/>
<path d="M523.329 122.112L523.286 122.163L486.16 105.558C489.559 97.9139 495.241 91.5095 502.425 87.2234L523.329 122.112Z" fill="#A339CF"/>
<path d="M551.827 87.4935L523.329 122.112L502.425 87.2234L500.312 83.6868C508.246 78.9392 517.452 76.757 526.672 77.4384C535.892 78.1197 544.677 81.6314 551.827 87.4935Z" fill="#FFBB34"/>
<path d="M523.36 122.186L497.719 153.879C490.8 148.277 485.906 140.562 483.789 131.914L523.235 122.209L523.36 122.186Z" fill="#8484CA"/>
<path d="M546.409 160.694C540.22 164.403 533.228 166.563 526.026 166.99C518.823 167.417 511.625 166.099 505.041 163.147C501.489 161.559 498.156 159.52 495.125 157.08L497.715 153.876L523.355 122.183L544.288 157.151L546.409 160.694Z" fill="#FF7CB1"/>
<path d="M573.188 119.135L568.153 119.448L523.359 122.186L523.328 122.123L551.826 87.4935L555.033 83.6016C560.339 87.9581 564.69 93.3622 567.814 99.4762C570.938 105.59 572.767 112.283 573.188 119.135Z" fill="#2384CA"/>
<path d="M568.153 119.448C568.607 126.667 567.297 133.888 564.335 140.486L560.556 138.8L523.359 122.175L568.153 119.448Z" fill="#F06159"/>
<path d="M494.419 157.745C505.993 166.993 521.464 170.32 535.764 166.274C539.644 165.166 543.364 163.56 546.832 161.498C547.869 160.887 546.928 159.266 545.888 159.88C534.016 166.905 519.383 168.079 506.598 162.826C502.699 161.217 499.048 159.062 495.755 156.426C494.823 155.681 493.481 156.995 494.431 157.751L494.419 157.745Z" fill="black"/>
<path d="M480.629 132.639C478.345 123.189 479.23 113.25 483.147 104.352C483.631 103.26 482.01 102.305 481.53 103.405C477.38 112.748 476.429 123.199 478.823 133.137C479.108 134.308 480.913 133.814 480.629 132.639Z" fill="black"/>
<path d="M500.735 84.4971C512.744 77.3897 527.615 76.2526 540.488 81.7395C544.314 83.3698 547.891 85.5297 551.115 88.156C552.042 88.9093 553.375 87.5874 552.44 86.8312C540.869 77.4125 525.239 74.0209 510.85 78.1062C506.972 79.213 503.254 80.8174 499.789 82.8795C498.754 83.4935 499.695 85.114 500.735 84.4971Z" fill="black"/>
<path d="M567.164 119.442C567.59 126.5 566.323 133.557 563.468 140.025C562.985 141.12 564.605 142.072 565.086 140.972C568.1 134.213 569.454 126.831 569.034 119.442C568.963 118.246 567.093 118.237 567.161 119.442H567.164Z" fill="black"/>
<path d="M552.31 170.664C562.22 164.704 570.076 155.865 574.832 145.325C575.324 144.236 573.709 143.281 573.214 144.381C568.615 154.637 560.991 163.243 551.364 169.046C550.334 169.666 551.273 171.286 552.31 170.664Z" fill="black"/>
<path d="M564.742 139.693C560.354 137.727 555.966 135.766 551.579 133.808L529.268 123.838L523.769 121.381C522.97 121.023 521.967 121.788 522.487 122.661C525.266 127.297 528.04 131.931 530.811 136.565L542.317 155.784L545.532 161.163C546.149 162.197 547.769 161.256 547.15 160.219L539.758 147.855C535.566 140.867 531.385 133.876 527.215 126.882L524.122 121.717L522.843 122.999L537.626 129.606L558.072 138.743L563.806 141.302C564.898 141.791 565.85 140.179 564.75 139.687L564.742 139.693Z" fill="black"/>
<path d="M482.833 132.159C485.025 140.952 489.995 148.803 497.005 154.547C497.932 155.303 499.279 153.978 498.33 153.222C491.558 147.702 486.754 140.138 484.638 131.661C484.354 130.493 482.54 130.988 482.833 132.159Z" fill="black"/>
<path d="M486.912 106.03C490.271 98.5493 495.83 92.27 502.847 88.028C503.879 87.4054 502.938 85.7878 501.903 86.4104C494.602 90.8069 488.81 97.3189 485.295 105.083C484.803 106.174 486.432 107.127 486.912 106.03Z" fill="black"/>
<path d="M495.744 157.745C498.761 154.008 501.781 150.272 504.804 146.539L520.179 127.528L523.968 122.846C524.719 121.916 523.4 120.571 522.643 121.521L512.451 134.123C507.755 139.929 503.057 145.735 498.359 151.542L494.419 156.421C493.668 157.35 494.987 158.695 495.744 157.745Z" fill="black"/>
<path d="M479.974 133.794L494.013 130.348L517.831 124.5C519.742 124.031 521.649 123.533 523.565 123.093C524.742 122.809 524.245 121.015 523.068 121.288C517.902 122.479 512.765 123.818 507.616 125.08L485.655 130.482C483.598 130.988 481.544 131.491 479.491 131.991C478.323 132.276 478.817 134.084 479.989 133.799L479.974 133.794Z" fill="black"/>
<path d="M554.321 84.2612C559.516 88.5523 563.781 93.8585 566.855 99.855C569.929 105.852 571.747 112.412 572.197 119.136C572.274 120.332 574.147 120.341 574.068 119.136C573.62 112.166 571.755 105.361 568.587 99.1368C565.418 92.9126 561.014 87.4001 555.643 82.9363C554.722 82.1773 553.388 83.5049 554.321 84.2612Z" fill="black"/>
<path d="M547.157 160.219L539.766 147.855C535.568 140.867 531.384 133.876 527.214 126.883L524.121 121.717L522.842 122.999L537.625 129.606L558.072 138.743L563.806 141.302C564.897 141.791 565.85 140.179 564.75 139.687C560.362 137.722 555.974 135.76 551.587 133.802L529.275 123.832L523.777 121.376C522.978 121.018 521.975 121.782 522.495 122.655C525.273 127.291 528.048 131.926 530.819 136.56L542.324 155.778L545.54 161.157C546.157 162.192 547.777 161.251 547.157 160.213V160.219Z" fill="black"/>
<path d="M554.321 82.9363C550.749 87.2765 547.176 91.6167 543.603 95.9569C537.878 102.909 532.154 109.862 526.432 116.816L522.5 121.589C521.741 122.513 523.069 123.846 523.825 122.914L534.543 109.896C540.265 102.942 545.989 95.9892 551.714 89.0372L555.643 84.2611C556.405 83.3371 555.075 82.0066 554.321 82.9363Z" fill="black"/>
<path d="M573.133 118.197L556.263 119.232L529.488 120.873L523.299 121.253C522.102 121.327 522.094 123.201 523.299 123.127L540.169 122.092L566.938 120.452L573.128 120.071C574.324 119.997 574.333 118.123 573.128 118.197H573.133Z" fill="black"/>
<path d="M574.5 144.042C569.542 141.834 564.586 139.621 559.631 137.401L536.916 127.249L526.341 122.524C525.542 122.166 524.743 121.805 523.938 121.452C523.89 121.43 523.842 121.404 523.79 121.384C523.739 121.364 523.665 121.333 523.606 121.308C522.94 121.023 523.708 121.452 523.694 121.347C523.694 121.296 523.222 121.137 523.176 121.114L501.957 111.627C496.373 109.131 490.792 106.635 485.212 104.139L482.815 103.07C481.723 102.584 480.771 104.207 481.871 104.688C487.178 107.059 492.485 109.428 497.792 111.795L521.039 122.209C521.607 122.462 522.176 122.777 522.744 122.976C523.125 123.113 523.333 123.235 522.832 123.01C522.89 123.03 522.946 123.055 523 123.084C523.277 123.227 523.562 123.354 523.853 123.465L532.902 127.491L557.067 138.294C561.879 140.445 566.691 142.596 571.504 144.748L573.559 145.663C574.651 146.152 575.606 144.526 574.506 144.045L574.5 144.042Z" fill="black"/>
<path d="M552.648 169.382C549.871 164.738 547.092 160.095 544.309 155.451C540.083 148.384 535.854 141.317 531.621 134.251C528.996 129.866 526.371 125.48 523.746 121.094C519.766 114.427 515.777 107.762 511.778 101.1C508.637 95.8555 505.498 90.6103 502.359 85.3641L501.071 83.2092C500.454 82.1772 498.834 83.1154 499.456 84.1559C502.419 89.1177 505.387 94.0787 508.36 99.0387L521.438 120.881C523.712 124.681 525.987 128.485 528.261 132.293C532.77 139.824 537.278 147.355 541.785 154.885L549.93 168.486C550.294 169.098 550.66 169.709 551.027 170.32C551.647 171.355 553.268 170.414 552.645 169.376L552.648 169.382Z" fill="black"/>
<path d="M531.538 75.5049L546.199 60.8438L548.314 58.7258L547.652 59.0101H597.653C598.859 59.0101 598.861 57.1366 597.653 57.1366H549.997C549.144 57.1366 547.697 56.8523 546.981 57.4209C545.559 58.5268 544.34 60.0649 543.072 61.33L530.213 74.1914C529.36 75.0443 530.682 76.3691 531.538 75.5162V75.5049Z" fill="black"/>
<path d="M568.97 51.5702H556.745C555.54 51.5702 555.537 53.4437 556.745 53.4437H568.97C570.175 53.4437 570.178 51.5702 568.97 51.5702Z" fill="black"/>
<path d="M597.651 51.5702H587.158C585.953 51.5702 585.953 53.4437 587.158 53.4437H597.651C598.857 53.4437 598.859 51.5702 597.651 51.5702Z" fill="black"/>
<path d="M583.429 51.5702H573.459C572.253 51.5702 572.253 53.4437 573.459 53.4437H583.429C584.632 53.4437 584.634 51.5702 583.429 51.5702Z" fill="black"/>
<path d="M553.349 51.5701H548.232C548.105 51.5631 547.977 51.5822 547.857 51.6261C547.738 51.67 547.628 51.7378 547.535 51.8255C547.443 51.9132 547.369 52.0188 547.319 52.136C547.268 52.2531 547.242 52.3793 547.242 52.5069C547.242 52.6344 547.268 52.7606 547.319 52.8778C547.369 52.995 547.443 53.1006 547.535 53.1883C547.628 53.276 547.738 53.3438 547.857 53.3877C547.977 53.4316 548.105 53.4507 548.232 53.4436H553.349C553.477 53.4507 553.604 53.4316 553.724 53.3877C553.844 53.3438 553.953 53.276 554.046 53.1883C554.138 53.1006 554.212 52.995 554.263 52.8778C554.313 52.7606 554.339 52.6344 554.339 52.5069C554.339 52.3793 554.313 52.2531 554.263 52.136C554.212 52.0188 554.138 51.9132 554.046 51.8255C553.953 51.7378 553.844 51.67 553.724 51.6261C553.604 51.5822 553.477 51.5631 553.349 51.5701Z" fill="black"/>
<path d="M569.632 93.7424L580.83 82.5469L580.167 82.8312H639.016C640.222 82.8312 640.225 80.9577 639.016 80.9577H582.772C581.919 80.9577 581.006 80.8497 580.167 80.9577C579.329 81.0657 578.701 82.038 578.177 82.5696L574.246 86.5014L568.318 92.4289C567.465 93.2818 568.79 94.6066 569.643 93.7537L569.632 93.7424Z" fill="black"/>
<path d="M601.487 75.3883H589.245C588.04 75.3883 588.037 77.2618 589.245 77.2618H601.487C602.689 77.2618 602.692 75.3883 601.487 75.3883Z" fill="black"/>
<path d="M630.166 75.3883H619.673C618.47 75.3883 618.467 77.2618 619.673 77.2618H630.166C631.371 77.2618 631.374 75.3883 630.166 75.3883Z" fill="black"/>
<path d="M639.023 75.3883H633.724C633.597 75.3812 633.469 75.4003 633.35 75.4442C633.23 75.4881 633.12 75.5559 633.028 75.6436C632.935 75.7313 632.861 75.8369 632.811 75.9541C632.76 76.0712 632.734 76.1975 632.734 76.325C632.734 76.4526 632.76 76.5788 632.811 76.6959C632.861 76.8131 632.935 76.9187 633.028 77.0064C633.12 77.0941 633.23 77.1619 633.35 77.2058C633.469 77.2497 633.597 77.2688 633.724 77.2618H639.023C639.151 77.2688 639.278 77.2497 639.398 77.2058C639.518 77.1619 639.627 77.0941 639.72 77.0064C639.813 76.9187 639.886 76.8131 639.937 76.6959C639.987 76.5788 640.013 76.4526 640.013 76.325C640.013 76.1975 639.987 76.0712 639.937 75.9541C639.886 75.8369 639.813 75.7313 639.72 75.6436C639.627 75.5559 639.518 75.4881 639.398 75.4442C639.278 75.4003 639.151 75.3812 639.023 75.3883Z" fill="black"/>
<path d="M615.942 75.3883H605.964C604.758 75.3883 604.755 77.2618 605.964 77.2618H615.931C617.136 77.2618 617.139 75.3883 615.931 75.3883H615.942Z" fill="black"/>
<path d="M585.869 75.3883H580.752C580.624 75.3812 580.497 75.4003 580.377 75.4442C580.257 75.4881 580.148 75.5559 580.055 75.6436C579.962 75.7313 579.889 75.8369 579.838 75.9541C579.788 76.0712 579.762 76.1975 579.762 76.325C579.762 76.4526 579.788 76.5788 579.838 76.6959C579.889 76.8131 579.962 76.9187 580.055 77.0064C580.148 77.0941 580.257 77.1619 580.377 77.2058C580.497 77.2497 580.624 77.2688 580.752 77.2618H585.869C586.108 77.2486 586.334 77.1441 586.499 76.9699C586.663 76.7957 586.755 76.5649 586.755 76.325C586.755 76.0851 586.663 75.8544 586.499 75.6801C586.334 75.5059 586.108 75.4015 585.869 75.3883Z" fill="black"/>
<path d="M570.647 134.433L585.646 119.434L587.79 117.29L587.13 117.575H622.906C624.111 117.575 624.111 115.701 622.906 115.701H589.999C589.072 115.701 588.057 115.585 587.136 115.701C586.135 115.832 585.146 117.299 584.489 117.953L579.127 123.315C575.858 126.584 572.59 129.852 569.322 133.12C568.469 133.973 569.794 135.298 570.647 134.445V134.433Z" fill="black"/>
<path d="M608.45 110.129H596.209C595.003 110.129 595.003 112.003 596.209 112.003H608.45C609.656 112.003 609.656 110.129 608.45 110.129Z" fill="black"/>
<path d="M622.906 110.129H612.935C611.73 110.129 611.73 112.003 612.935 112.003H622.906C624.111 112.003 624.111 110.129 622.906 110.129Z" fill="black"/>
<path d="M592.826 110.129H587.709C587.581 110.122 587.454 110.141 587.334 110.185C587.214 110.229 587.105 110.297 587.012 110.384C586.919 110.472 586.846 110.578 586.795 110.695C586.745 110.812 586.719 110.938 586.719 111.066C586.719 111.193 586.745 111.319 586.795 111.437C586.846 111.554 586.919 111.659 587.012 111.747C587.105 111.835 587.214 111.903 587.334 111.947C587.454 111.99 587.581 112.009 587.709 112.002H592.826C592.953 112.009 593.081 111.99 593.2 111.947C593.32 111.903 593.43 111.835 593.522 111.747C593.615 111.659 593.689 111.554 593.739 111.437C593.79 111.319 593.816 111.193 593.816 111.066C593.816 110.938 593.79 110.812 593.739 110.695C593.689 110.578 593.615 110.472 593.522 110.384C593.43 110.297 593.32 110.229 593.2 110.185C593.081 110.141 592.953 110.122 592.826 110.129Z" fill="black"/>
<path d="M493.84 86.8311L479.69 72.6818C478.875 71.8659 478.079 71.0272 477.24 70.2312C476.737 69.7536 476.27 69.7507 475.614 69.7507H455.054C453.848 69.7507 453.845 71.6242 455.054 71.6242H476.376L475.713 71.3399L490.397 86.0266L492.518 88.1474C493.371 89.0003 494.695 87.6755 493.843 86.8226L493.84 86.8311Z" fill="black"/>
<path d="M467.29 64.1927H455.065C453.86 64.1927 453.857 66.0663 455.065 66.0663H467.29C468.495 66.0663 468.498 64.1927 467.29 64.1927Z" fill="black"/>
<path d="M475.798 64.1928H470.681C470.554 64.1858 470.426 64.2048 470.307 64.2487C470.187 64.2926 470.077 64.3605 469.985 64.4482C469.892 64.5359 469.818 64.6415 469.768 64.7587C469.717 64.8758 469.691 65.002 469.691 65.1296C469.691 65.2571 469.717 65.3833 469.768 65.5005C469.818 65.6177 469.892 65.7233 469.985 65.811C470.077 65.8986 470.187 65.9665 470.307 66.0104C470.426 66.0543 470.554 66.0734 470.681 66.0663H475.798C475.926 66.0734 476.053 66.0543 476.173 66.0104C476.293 65.9665 476.402 65.8986 476.495 65.811C476.588 65.7233 476.661 65.6177 476.712 65.5005C476.762 65.3833 476.788 65.2571 476.788 65.1296C476.788 65.002 476.762 64.8758 476.712 64.7587C476.661 64.6415 476.588 64.5359 476.495 64.4482C476.402 64.3605 476.293 64.2926 476.173 64.2487C476.053 64.2048 475.926 64.1858 475.798 64.1928Z" fill="black"/>
<path d="M475.588 115.539L470.47 110.422L467.059 107.01C466.595 106.544 465.953 105.612 465.279 105.404C464.537 105.174 463.485 105.37 462.72 105.37H406.163C404.958 105.37 404.955 107.243 406.163 107.243H465.012L464.349 106.959C467.649 110.263 470.951 113.564 474.254 116.864C475.107 117.717 476.432 116.395 475.579 115.539H475.588Z" fill="black"/>
<path d="M455.938 99.8035H443.714C442.508 99.8035 442.505 101.674 443.714 101.674H455.938C457.144 101.674 457.147 99.8035 455.938 99.8035Z" fill="black"/>
<path d="M425.511 99.8035H415.017C413.812 99.8035 413.812 101.674 415.017 101.674H425.511C426.716 101.674 426.719 99.8035 425.511 99.8035Z" fill="black"/>
<path d="M411.464 99.8035H406.162C405.914 99.8035 405.676 99.902 405.501 100.077C405.325 100.253 405.227 100.491 405.227 100.739C405.227 100.987 405.325 101.225 405.501 101.4C405.676 101.576 405.914 101.674 406.162 101.674H411.464C411.712 101.674 411.95 101.576 412.125 101.4C412.301 101.225 412.399 100.987 412.399 100.739C412.399 100.491 412.301 100.253 412.125 100.077C411.95 99.902 411.712 99.8035 411.464 99.8035Z" fill="black"/>
<path d="M439.212 99.8035H429.245C428.04 99.8035 428.037 101.674 429.245 101.674H439.212C440.418 101.674 440.421 99.8035 439.212 99.8035Z" fill="black"/>
<path d="M464.451 99.8035H459.334C459.086 99.8035 458.848 99.902 458.672 100.077C458.497 100.253 458.398 100.491 458.398 100.739C458.398 100.987 458.497 101.225 458.672 101.4C458.848 101.576 459.086 101.674 459.334 101.674H464.451C464.699 101.674 464.937 101.576 465.112 101.4C465.288 101.225 465.386 100.987 465.386 100.739C465.386 100.491 465.288 100.253 465.112 100.077C464.937 99.902 464.699 99.8035 464.451 99.8035Z" fill="black"/>
<path d="M458.867 157.868H446.626C445.423 157.868 445.42 159.741 446.626 159.741H458.867C460.073 159.741 460.076 157.868 458.867 157.868Z" fill="black"/>
<path d="M442.136 157.868H437.152C436.913 157.881 436.687 157.985 436.522 158.16C436.358 158.334 436.266 158.564 436.266 158.804C436.266 159.044 436.358 159.275 436.522 159.449C436.687 159.623 436.913 159.728 437.152 159.741H442.136C442.263 159.748 442.391 159.729 442.51 159.685C442.63 159.641 442.74 159.573 442.832 159.486C442.925 159.398 442.999 159.292 443.049 159.175C443.1 159.058 443.126 158.932 443.126 158.804C443.126 158.677 443.1 158.551 443.049 158.433C442.999 158.316 442.925 158.211 442.832 158.123C442.74 158.035 442.63 157.967 442.51 157.924C442.391 157.88 442.263 157.861 442.136 157.868Z" fill="black"/>
<path d="M467.375 157.868H462.258C462.018 157.881 461.793 157.985 461.628 158.16C461.463 158.334 461.371 158.564 461.371 158.804C461.371 159.044 461.463 159.275 461.628 159.449C461.793 159.623 462.018 159.728 462.258 159.741H467.375C467.502 159.748 467.63 159.729 467.749 159.685C467.869 159.641 467.979 159.573 468.071 159.486C468.164 159.398 468.238 159.292 468.288 159.175C468.339 159.058 468.365 158.932 468.365 158.804C468.365 158.677 468.339 158.551 468.288 158.433C468.238 158.316 468.164 158.211 468.071 158.123C467.979 158.035 467.869 157.967 467.749 157.924C467.63 157.88 467.502 157.861 467.375 157.868Z" fill="black"/>
<path d="M484.782 146.203L469.456 161.529L467.284 163.701L467.949 163.417H437.154C435.949 163.417 435.949 165.29 437.154 165.29H466.843C467.613 165.29 468.213 165.379 468.807 164.819C471.764 162.027 474.567 159.059 477.441 156.185L486.107 147.519C486.96 146.666 485.638 145.342 484.782 146.194V146.203Z" fill="black"/>
<path d="M481.11 180.443H468.868C467.665 180.443 467.662 182.314 468.868 182.314H481.11C482.315 182.314 482.318 180.443 481.11 180.443Z" fill="black"/>
<path d="M464.384 180.443H454.417C453.211 180.443 453.209 182.314 454.417 182.314H464.384C465.59 182.314 465.592 180.443 464.384 180.443Z" fill="black"/>
<path d="M489.619 180.443H484.502C484.254 180.443 484.016 180.542 483.84 180.717C483.665 180.893 483.566 181.131 483.566 181.379C483.566 181.627 483.665 181.865 483.84 182.04C484.016 182.215 484.254 182.314 484.502 182.314H489.619C489.867 182.314 490.105 182.215 490.28 182.04C490.456 181.865 490.554 181.627 490.554 181.379C490.554 181.131 490.456 180.893 490.28 180.717C490.105 180.542 489.867 180.443 489.619 180.443Z" fill="black"/>
<path d="M507.698 168.105L491.8 184L489.526 186.274L490.185 185.99H453.796C452.59 185.99 452.587 187.863 453.796 187.863H487.627C488.463 187.863 489.617 188.08 490.444 187.829C490.848 187.704 491.172 187.275 491.459 186.976L493.247 185.188L499.035 179.397L509.028 169.404C509.881 168.551 508.556 167.229 507.704 168.082L507.698 168.105Z" fill="black"/>
<path d="M603.607 162.945H591.365C590.16 162.945 590.16 164.819 591.365 164.819H603.607C604.812 164.819 604.812 162.945 603.607 162.945Z" fill="black"/>
<path d="M616.244 162.945H608.097C606.891 162.945 606.888 164.819 608.097 164.819H616.244C617.45 164.819 617.453 162.945 616.244 162.945Z" fill="black"/>
<path d="M587.987 162.945H582.855C582.616 162.958 582.39 163.063 582.226 163.237C582.061 163.411 581.969 163.642 581.969 163.882C581.969 164.122 582.061 164.353 582.226 164.527C582.39 164.701 582.616 164.805 582.855 164.819H587.987C588.114 164.826 588.242 164.807 588.361 164.763C588.481 164.719 588.591 164.651 588.683 164.563C588.776 164.476 588.85 164.37 588.9 164.253C588.951 164.136 588.977 164.009 588.977 163.882C588.977 163.754 588.951 163.628 588.9 163.511C588.85 163.394 588.776 163.288 588.683 163.201C588.591 163.113 588.481 163.045 588.361 163.001C588.242 162.957 588.114 162.938 587.987 162.945Z" fill="black"/>
<path d="M570.056 158.533L577.712 166.186C578.929 167.403 580.126 168.637 581.36 169.834C581.883 170.343 582.329 170.377 583.017 170.377H616.246C617.451 170.377 617.454 168.503 616.246 168.503H582.29L582.952 168.787L571.381 157.219C570.528 156.367 569.204 157.691 570.056 158.544V158.533Z" fill="black"/>
</svg>
