<svg width="708" height="224" viewBox="0 0 708 224" fill="none" xmlns="http://www.w3.org/2000/svg">
<path d="M167.16 166.071C152.36 181.344 131.6 190.822 108.62 190.822C86.42 190.822 66.31 181.973 51.6 167.597L110.14 109.196L167.16 166.071Z" fill="url(#paint0_linear_2269_6718)"/>
<path d="M110.14 109.187L51.6 167.588C36.41 152.853 27 132.232 27 109.417C27 86.4612 36.5 65.7505 51.81 51.0156L110.14 109.187Z" fill="url(#paint1_linear_2269_6718)"/>
<path d="M166.95 52.5116L110.14 109.187L51.8 51.0152C66.4801 36.7591 86.5301 28 108.61 28C131.47 28 152.12 37.3876 166.95 52.5116Z" fill="url(#paint2_linear_2269_6718)"/>
<path d="M211.248 140.165C222.225 140.165 230.95 133.879 230.95 122.527C230.95 111.551 222.881 106.86 215.188 102.826C208.152 99.073 201.491 95.6018 201.491 86.8769C201.491 80.685 205.807 76.8385 211.248 76.8385C218.19 76.8385 221.38 82.186 222.412 88.0027L229.073 87.0645C227.291 77.589 220.442 72.8044 211.154 72.8044C202.054 72.8044 193.798 79.1839 193.798 87.7212C193.798 99.2606 201.866 103.67 209.559 107.798C216.502 111.551 223.069 115.116 223.069 123.653C223.069 131.252 219.129 136.131 211.342 136.131C202.992 136.131 199.052 129 198.114 121.026L191.171 122.058C192.672 133.691 200.647 140.165 211.248 140.165ZM274.598 126.374C273.097 131.815 269.625 136.131 262.589 136.131C253.77 136.131 248.892 126.374 248.892 116.054H281.352C281.54 115.116 281.728 112.583 281.728 111.644C281.728 100.293 274.222 91.5677 261.745 91.5677C249.267 91.5677 241.387 102.45 241.387 115.866C241.387 129.282 249.455 140.165 262.683 140.165C272.534 140.165 277.506 134.911 280.977 127.124L274.598 126.374ZM248.892 112.114C249.642 103.67 253.489 95.4142 261.839 95.4142C270.751 95.4142 273.753 102.45 274.598 112.114H248.892ZM319.354 92.412C317.947 91.8491 316.727 91.5677 315.226 91.5677C309.222 91.5677 304.531 95.4142 301.623 100.293L300.591 92.412H294.68V139.32H301.904V106.86C303.687 102.075 307.815 97.009 312.036 97.009C314.1 97.009 315.508 97.6658 317.102 98.4163L319.354 92.412ZM358.08 92.412L345.04 134.442L332.562 92.412H324.869L339.505 139.32H347.948L363.24 92.412H358.08ZM379.962 92.412H372.739V139.32H379.962V92.412ZM381.463 78.9963C381.463 76.1818 379.212 73.9302 376.491 73.9302C373.583 73.9302 371.331 76.1818 371.331 78.9963C371.331 81.9046 373.583 84.1562 376.491 84.1562C379.212 84.1562 381.463 81.9046 381.463 78.9963ZM425.76 124.497C424.259 131.064 421.069 136.131 413.752 136.131C404.37 136.131 400.524 125.06 400.524 115.022C400.524 104.139 404.464 95.6018 413.846 95.6018C420.694 95.6018 423.415 100.386 424.916 105.922L431.671 105.077C428.481 97.1029 423.884 91.5677 413.564 91.5677C400.993 91.5677 392.831 102.169 392.831 115.303C392.831 128.907 400.711 140.165 413.846 140.165C422.946 140.165 429.325 135.099 431.952 125.435L425.76 124.497ZM474.508 126.374C473.006 131.815 469.535 136.131 462.499 136.131C453.68 136.131 448.802 126.374 448.802 116.054H481.262C481.45 115.116 481.638 112.583 481.638 111.644C481.638 100.293 474.132 91.5677 461.655 91.5677C449.177 91.5677 441.296 102.45 441.296 115.866C441.296 129.282 449.365 140.165 462.593 140.165C472.444 140.165 477.416 134.911 480.887 127.124L474.508 126.374ZM448.802 112.114C449.552 103.67 453.399 95.4142 461.748 95.4142C470.661 95.4142 473.663 102.45 474.508 112.114H448.802Z" fill="black"/>
<path d="M525.21 73.6487H507.478V139.32H514.984V111.644H525.022C536.561 111.644 544.724 103.482 544.724 92.2244C544.724 80.9664 537.406 73.6487 525.21 73.6487ZM525.022 107.047H514.984V78.2457H525.21C533.747 78.2457 536.843 84.25 536.843 92.5997C536.843 100.949 532.996 107.047 525.022 107.047ZM572.486 91.5677C564.981 91.5677 560.196 95.4142 556.912 102.075L563.386 102.919C564.981 98.8854 567.514 95.508 572.204 95.508C579.334 95.508 581.586 100.856 581.586 107.986V113.802C578.115 111.832 574.925 110.894 570.703 110.894C562.354 110.894 553.91 117.461 553.91 126.374C553.91 135.38 559.914 140.165 567.326 140.165C573.33 140.165 578.584 136.6 581.868 131.627L582.806 139.32H588.81V107.986C588.81 97.6658 582.712 91.5677 572.486 91.5677ZM581.586 124.873C580.366 129.751 573.893 135.943 569.108 135.943C563.667 135.943 561.416 131.252 561.416 126.092C561.416 120.088 566.575 114.834 572.392 114.834C576.051 114.834 578.584 115.679 581.586 117.649V124.873ZM634.123 124.497C632.622 131.064 629.433 136.131 622.115 136.131C612.733 136.131 608.887 125.06 608.887 115.022C608.887 104.139 612.827 95.6018 622.209 95.6018C629.057 95.6018 631.778 100.386 633.279 105.922L640.034 105.077C636.844 97.1029 632.247 91.5677 621.927 91.5677C609.356 91.5677 601.194 102.169 601.194 115.303C601.194 128.907 609.074 140.165 622.209 140.165C631.309 140.165 637.688 135.099 640.315 125.435L634.123 124.497ZM686.811 139.32L665.327 112.301L684.653 92.412H677.617L659.604 111.551V68.0197H652.38V139.32H659.604V115.491L678.274 139.32H686.811Z" fill="black"/>
<defs>
<linearGradient id="paint0_linear_2269_6718" x1="109.375" y1="190.816" x2="109.375" y2="109.185" gradientUnits="userSpaceOnUse">
<stop offset="7.67202e-07" stop-color="#FF0066"/>
<stop offset="0.1497" stop-color="#EA0666"/>
<stop offset="0.4584" stop-color="#B51664"/>
<stop offset="0.896" stop-color="#5F3062"/>
<stop offset="1" stop-color="#4A3662"/>
</linearGradient>
<linearGradient id="paint1_linear_2269_6718" x1="110.139" y1="109.305" x2="26.9957" y2="109.305" gradientUnits="userSpaceOnUse">
<stop offset="5.46326e-07" stop-color="#0070C0"/>
<stop offset="0.185" stop-color="#077EAB"/>
<stop offset="0.5664" stop-color="#1AA176"/>
<stop offset="1" stop-color="#32CD32"/>
</linearGradient>
<linearGradient id="paint2_linear_2269_6718" x1="109.375" y1="28.0032" x2="109.375" y2="109.185" gradientUnits="userSpaceOnUse">
<stop offset="1.82109e-07" stop-color="#FFBF00"/>
<stop offset="0.2111" stop-color="#FFAA00"/>
<stop offset="0.6436" stop-color="#FF7500"/>
<stop offset="1" stop-color="#FF4500"/>
</linearGradient>
</defs>
</svg>
