<svg width="708" height="224" viewBox="0 0 708 224" fill="none" xmlns="http://www.w3.org/2000/svg">
<path d="M353.068 191.434C350.665 191.434 348.588 190.909 346.838 189.859C345.112 188.785 343.77 187.304 342.813 185.414C341.857 183.5 341.378 181.284 341.378 178.764C341.378 176.267 341.857 174.074 342.813 172.184C343.77 170.27 345.112 168.777 346.838 167.704C348.588 166.63 350.665 166.094 353.068 166.094C355.868 166.094 358.143 166.77 359.893 168.124C361.667 169.454 362.798 171.32 363.288 173.724H360.033C359.66 172.207 358.89 170.994 357.723 170.084C356.58 169.15 355.028 168.684 353.068 168.684C351.318 168.684 349.79 169.092 348.483 169.909C347.177 170.702 346.162 171.857 345.438 173.374C344.738 174.867 344.388 176.664 344.388 178.764C344.388 180.864 344.738 182.672 345.438 184.189C346.162 185.682 347.177 186.837 348.483 187.654C349.79 188.447 351.318 188.844 353.068 188.844C355.028 188.844 356.58 188.4 357.723 187.514C358.89 186.604 359.66 185.402 360.033 183.909H363.288C362.798 186.265 361.667 188.109 359.893 189.439C358.143 190.769 355.868 191.434 353.068 191.434ZM365.57 191.014L373.06 178.659L365.57 166.514H368.895L374.915 176.314L380.655 166.514H383.945L376.455 178.799L383.98 191.014H380.655L374.6 181.179L368.895 191.014H365.57ZM403.833 191.014C402.246 191.014 400.998 190.629 400.088 189.859C399.178 189.089 398.723 187.7 398.723 185.694V176.139H395.713V173.654H398.723L399.108 169.489H401.663V173.654H406.773V176.139H401.663V185.694C401.663 186.79 401.884 187.537 402.328 187.934C402.771 188.307 403.553 188.494 404.673 188.494H406.493V191.014H403.833ZM417.939 191.434C416.306 191.434 414.836 191.06 413.529 190.314C412.223 189.567 411.184 188.517 410.414 187.164C409.668 185.787 409.294 184.177 409.294 182.334C409.294 180.49 409.679 178.892 410.449 177.539C411.219 176.162 412.258 175.1 413.564 174.354C414.894 173.607 416.376 173.234 418.009 173.234C419.643 173.234 421.113 173.607 422.419 174.354C423.726 175.1 424.753 176.162 425.499 177.539C426.269 178.892 426.654 180.49 426.654 182.334C426.654 184.177 426.269 185.787 425.499 187.164C424.729 188.517 423.679 189.567 422.349 190.314C421.043 191.06 419.573 191.434 417.939 191.434ZM417.939 188.914C418.943 188.914 419.876 188.669 420.739 188.179C421.603 187.689 422.303 186.954 422.839 185.974C423.376 184.994 423.644 183.78 423.644 182.334C423.644 180.887 423.376 179.674 422.839 178.694C422.326 177.714 421.638 176.979 420.774 176.489C419.911 175.999 418.989 175.754 418.009 175.754C417.006 175.754 416.073 175.999 415.209 176.489C414.346 176.979 413.646 177.714 413.109 178.694C412.573 179.674 412.304 180.887 412.304 182.334C412.304 183.78 412.573 184.994 413.109 185.974C413.646 186.954 414.334 187.689 415.174 188.179C416.038 188.669 416.959 188.914 417.939 188.914ZM446.865 191.014C445.278 191.014 444.03 190.629 443.12 189.859C442.21 189.089 441.755 187.7 441.755 185.694V176.139H438.745V173.654H441.755L442.14 169.489H444.695V173.654H449.805V176.139H444.695V185.694C444.695 186.79 444.917 187.537 445.36 187.934C445.803 188.307 446.585 188.494 447.705 188.494H449.525V191.014H446.865ZM453.54 191.014V165.814H456.48V176.629C457.063 175.555 457.892 174.727 458.965 174.144C460.038 173.537 461.205 173.234 462.465 173.234C464.472 173.234 466.082 173.864 467.295 175.124C468.508 176.36 469.115 178.274 469.115 180.864V191.014H466.21V181.179C466.21 177.562 464.752 175.754 461.835 175.754C460.318 175.754 459.047 176.302 458.02 177.399C456.993 178.472 456.48 180.012 456.48 182.019V191.014H453.54ZM481.374 191.434C479.718 191.434 478.248 191.06 476.964 190.314C475.681 189.544 474.666 188.482 473.919 187.129C473.196 185.775 472.834 184.177 472.834 182.334C472.834 180.514 473.196 178.927 473.919 177.574C474.643 176.197 475.646 175.135 476.929 174.389C478.236 173.619 479.741 173.234 481.444 173.234C483.124 173.234 484.571 173.619 485.784 174.389C487.021 175.135 487.966 176.127 488.619 177.364C489.273 178.6 489.599 179.93 489.599 181.354C489.599 181.61 489.588 181.867 489.564 182.124C489.564 182.38 489.564 182.672 489.564 182.999H475.739C475.809 184.329 476.113 185.437 476.649 186.324C477.209 187.187 477.898 187.84 478.714 188.284C479.554 188.727 480.441 188.949 481.374 188.949C482.588 188.949 483.603 188.669 484.419 188.109C485.236 187.549 485.831 186.79 486.204 185.834H489.109C488.643 187.444 487.744 188.785 486.414 189.859C485.108 190.909 483.428 191.434 481.374 191.434ZM481.374 175.719C479.974 175.719 478.726 176.15 477.629 177.014C476.556 177.854 475.938 179.09 475.774 180.724H486.694C486.624 179.16 486.088 177.935 485.084 177.049C484.081 176.162 482.844 175.719 481.374 175.719ZM502.759 198.714V173.654H505.419L505.699 176.524C506.259 175.684 507.052 174.925 508.079 174.249C509.129 173.572 510.459 173.234 512.069 173.234C513.795 173.234 515.3 173.63 516.584 174.424C517.867 175.217 518.859 176.302 519.559 177.679C520.282 179.055 520.644 180.619 520.644 182.369C520.644 184.119 520.282 185.682 519.559 187.059C518.859 188.412 517.855 189.485 516.549 190.279C515.265 191.049 513.76 191.434 512.034 191.434C510.61 191.434 509.339 191.142 508.219 190.559C507.122 189.975 506.282 189.159 505.699 188.109V198.714H502.759ZM511.719 188.879C512.885 188.879 513.912 188.61 514.799 188.074C515.685 187.514 516.385 186.744 516.899 185.764C517.412 184.784 517.669 183.64 517.669 182.334C517.669 181.027 517.412 179.884 516.899 178.904C516.385 177.924 515.685 177.165 514.799 176.629C513.912 176.069 512.885 175.789 511.719 175.789C510.552 175.789 509.525 176.069 508.639 176.629C507.752 177.165 507.052 177.924 506.539 178.904C506.025 179.884 505.769 181.027 505.769 182.334C505.769 183.64 506.025 184.784 506.539 185.764C507.052 186.744 507.752 187.514 508.639 188.074C509.525 188.61 510.552 188.879 511.719 188.879ZM532.646 191.434C531.013 191.434 529.543 191.06 528.236 190.314C526.93 189.567 525.891 188.517 525.121 187.164C524.375 185.787 524.001 184.177 524.001 182.334C524.001 180.49 524.386 178.892 525.156 177.539C525.926 176.162 526.965 175.1 528.271 174.354C529.601 173.607 531.083 173.234 532.716 173.234C534.35 173.234 535.82 173.607 537.126 174.354C538.433 175.1 539.46 176.162 540.206 177.539C540.976 178.892 541.361 180.49 541.361 182.334C541.361 184.177 540.976 185.787 540.206 187.164C539.436 188.517 538.386 189.567 537.056 190.314C535.75 191.06 534.28 191.434 532.646 191.434ZM532.646 188.914C533.65 188.914 534.583 188.669 535.446 188.179C536.31 187.689 537.01 186.954 537.546 185.974C538.083 184.994 538.351 183.78 538.351 182.334C538.351 180.887 538.083 179.674 537.546 178.694C537.033 177.714 536.345 176.979 535.481 176.489C534.618 175.999 533.696 175.754 532.716 175.754C531.713 175.754 530.78 175.999 529.916 176.489C529.053 176.979 528.353 177.714 527.816 178.694C527.28 179.674 527.011 180.887 527.011 182.334C527.011 183.78 527.28 184.994 527.816 185.974C528.353 186.954 529.041 187.689 529.881 188.179C530.745 188.669 531.666 188.914 532.646 188.914ZM548.3 191.014L543.225 173.654H546.165L549.84 187.269L553.9 173.654H557.225L561.32 187.269L564.96 173.654H567.935L562.86 191.014H559.85L555.58 176.699L551.31 191.014H548.3ZM578.342 191.434C576.685 191.434 575.215 191.06 573.932 190.314C572.649 189.544 571.634 188.482 570.887 187.129C570.164 185.775 569.802 184.177 569.802 182.334C569.802 180.514 570.164 178.927 570.887 177.574C571.61 176.197 572.614 175.135 573.897 174.389C575.204 173.619 576.709 173.234 578.412 173.234C580.092 173.234 581.539 173.619 582.752 174.389C583.989 175.135 584.934 176.127 585.587 177.364C586.24 178.6 586.567 179.93 586.567 181.354C586.567 181.61 586.555 181.867 586.532 182.124C586.532 182.38 586.532 182.672 586.532 182.999H572.707C572.777 184.329 573.08 185.437 573.617 186.324C574.177 187.187 574.865 187.84 575.682 188.284C576.522 188.727 577.409 188.949 578.342 188.949C579.555 188.949 580.57 188.669 581.387 188.109C582.204 187.549 582.799 186.79 583.172 185.834H586.077C585.61 187.444 584.712 188.785 583.382 189.859C582.075 190.909 580.395 191.434 578.342 191.434ZM578.342 175.719C576.942 175.719 575.694 176.15 574.597 177.014C573.524 177.854 572.905 179.09 572.742 180.724H583.662C583.592 179.16 583.055 177.935 582.052 177.049C581.049 176.162 579.812 175.719 578.342 175.719ZM590.464 191.014V173.654H593.124L593.369 176.979C593.905 175.835 594.722 174.925 595.819 174.249C596.915 173.572 598.269 173.234 599.879 173.234V176.314H599.074C598.047 176.314 597.102 176.5 596.239 176.874C595.375 177.224 594.687 177.83 594.174 178.694C593.66 179.557 593.404 180.747 593.404 182.264V191.014H590.464ZM620.351 191.434C618.718 191.434 617.248 191.06 615.941 190.314C614.635 189.567 613.596 188.517 612.826 187.164C612.08 185.787 611.706 184.177 611.706 182.334C611.706 180.49 612.091 178.892 612.861 177.539C613.631 176.162 614.67 175.1 615.976 174.354C617.306 173.607 618.788 173.234 620.421 173.234C622.055 173.234 623.525 173.607 624.831 174.354C626.138 175.1 627.165 176.162 627.911 177.539C628.681 178.892 629.066 180.49 629.066 182.334C629.066 184.177 628.681 185.787 627.911 187.164C627.141 188.517 626.091 189.567 624.761 190.314C623.455 191.06 621.985 191.434 620.351 191.434ZM620.351 188.914C621.355 188.914 622.288 188.669 623.151 188.179C624.015 187.689 624.715 186.954 625.251 185.974C625.788 184.994 626.056 183.78 626.056 182.334C626.056 180.887 625.788 179.674 625.251 178.694C624.738 177.714 624.05 176.979 623.186 176.489C622.323 175.999 621.401 175.754 620.421 175.754C619.418 175.754 618.485 175.999 617.621 176.489C616.758 176.979 616.058 177.714 615.521 178.694C614.985 179.674 614.716 180.887 614.716 182.334C614.716 183.78 614.985 184.994 615.521 185.974C616.058 186.954 616.746 187.689 617.586 188.179C618.45 188.669 619.371 188.914 620.351 188.914ZM634.099 191.014V176.139H631.474V173.654H634.099V170.644C634.099 168.964 634.519 167.739 635.359 166.969C636.199 166.199 637.424 165.814 639.034 165.814H640.784V168.334H639.489C638.603 168.334 637.973 168.52 637.599 168.894C637.226 169.244 637.039 169.85 637.039 170.714V173.654H641.309V176.139H637.039V191.014H634.099ZM652.707 191.014L661.737 166.514H664.852L673.847 191.014H670.732L668.492 184.714H658.062L655.787 191.014H652.707ZM658.937 182.334H667.617L663.277 170.224L658.937 182.334ZM677.489 191.014V166.514H680.429V191.014H677.489Z" fill="black"/>
<path d="M167.16 166.071C152.36 181.344 131.6 190.822 108.62 190.822C86.42 190.822 66.31 181.973 51.6 167.597L110.14 109.196L167.16 166.071Z" fill="url(#paint0_linear_2269_6718)"/>
<path d="M110.14 109.187L51.6 167.588C36.41 152.853 27 132.232 27 109.417C27 86.4612 36.5 65.7505 51.81 51.0156L110.14 109.187Z" fill="url(#paint1_linear_2269_6718)"/>
<path d="M166.95 52.5116L110.14 109.187L51.8 51.0152C66.4801 36.7591 86.5301 28 108.61 28C131.47 28 152.12 37.3876 166.95 52.5116Z" fill="url(#paint2_linear_2269_6718)"/>
<path d="M211.248 140.165C222.225 140.165 230.95 133.879 230.95 122.527C230.95 111.551 222.881 106.86 215.188 102.826C208.152 99.073 201.491 95.6018 201.491 86.8769C201.491 80.685 205.807 76.8385 211.248 76.8385C218.19 76.8385 221.38 82.186 222.412 88.0027L229.073 87.0645C227.291 77.589 220.442 72.8044 211.154 72.8044C202.054 72.8044 193.798 79.1839 193.798 87.7212C193.798 99.2606 201.866 103.67 209.559 107.798C216.502 111.551 223.069 115.116 223.069 123.653C223.069 131.252 219.129 136.131 211.342 136.131C202.992 136.131 199.052 129 198.114 121.026L191.171 122.058C192.672 133.691 200.647 140.165 211.248 140.165ZM274.598 126.374C273.097 131.815 269.625 136.131 262.589 136.131C253.77 136.131 248.892 126.374 248.892 116.054H281.352C281.54 115.116 281.728 112.583 281.728 111.644C281.728 100.293 274.222 91.5677 261.745 91.5677C249.267 91.5677 241.387 102.45 241.387 115.866C241.387 129.282 249.455 140.165 262.683 140.165C272.534 140.165 277.506 134.911 280.977 127.124L274.598 126.374ZM248.892 112.114C249.642 103.67 253.489 95.4142 261.839 95.4142C270.751 95.4142 273.753 102.45 274.598 112.114H248.892ZM319.354 92.412C317.947 91.8491 316.727 91.5677 315.226 91.5677C309.222 91.5677 304.531 95.4142 301.623 100.293L300.591 92.412H294.68V139.32H301.904V106.86C303.687 102.075 307.815 97.009 312.036 97.009C314.1 97.009 315.508 97.6658 317.102 98.4163L319.354 92.412ZM358.08 92.412L345.04 134.442L332.562 92.412H324.869L339.505 139.32H347.948L363.24 92.412H358.08ZM379.962 92.412H372.739V139.32H379.962V92.412ZM381.463 78.9963C381.463 76.1818 379.212 73.9302 376.491 73.9302C373.583 73.9302 371.331 76.1818 371.331 78.9963C371.331 81.9046 373.583 84.1562 376.491 84.1562C379.212 84.1562 381.463 81.9046 381.463 78.9963ZM425.76 124.497C424.259 131.064 421.069 136.131 413.752 136.131C404.37 136.131 400.524 125.06 400.524 115.022C400.524 104.139 404.464 95.6018 413.846 95.6018C420.694 95.6018 423.415 100.386 424.916 105.922L431.671 105.077C428.481 97.1029 423.884 91.5677 413.564 91.5677C400.993 91.5677 392.831 102.169 392.831 115.303C392.831 128.907 400.711 140.165 413.846 140.165C422.946 140.165 429.325 135.099 431.952 125.435L425.76 124.497ZM474.508 126.374C473.006 131.815 469.535 136.131 462.499 136.131C453.68 136.131 448.802 126.374 448.802 116.054H481.262C481.45 115.116 481.638 112.583 481.638 111.644C481.638 100.293 474.132 91.5677 461.655 91.5677C449.177 91.5677 441.296 102.45 441.296 115.866C441.296 129.282 449.365 140.165 462.593 140.165C472.444 140.165 477.416 134.911 480.887 127.124L474.508 126.374ZM448.802 112.114C449.552 103.67 453.399 95.4142 461.748 95.4142C470.661 95.4142 473.663 102.45 474.508 112.114H448.802Z" fill="black"/>
<path d="M525.21 73.6487H507.478V139.32H514.984V111.644H525.022C536.561 111.644 544.724 103.482 544.724 92.2244C544.724 80.9664 537.406 73.6487 525.21 73.6487ZM525.022 107.047H514.984V78.2457H525.21C533.747 78.2457 536.843 84.25 536.843 92.5997C536.843 100.949 532.996 107.047 525.022 107.047ZM572.486 91.5677C564.981 91.5677 560.196 95.4142 556.912 102.075L563.386 102.919C564.981 98.8854 567.514 95.508 572.204 95.508C579.334 95.508 581.586 100.856 581.586 107.986V113.802C578.115 111.832 574.925 110.894 570.703 110.894C562.354 110.894 553.91 117.461 553.91 126.374C553.91 135.38 559.914 140.165 567.326 140.165C573.33 140.165 578.584 136.6 581.868 131.627L582.806 139.32H588.81V107.986C588.81 97.6658 582.712 91.5677 572.486 91.5677ZM581.586 124.873C580.366 129.751 573.893 135.943 569.108 135.943C563.667 135.943 561.416 131.252 561.416 126.092C561.416 120.088 566.575 114.834 572.392 114.834C576.051 114.834 578.584 115.679 581.586 117.649V124.873ZM634.123 124.497C632.622 131.064 629.433 136.131 622.115 136.131C612.733 136.131 608.887 125.06 608.887 115.022C608.887 104.139 612.827 95.6018 622.209 95.6018C629.057 95.6018 631.778 100.386 633.279 105.922L640.034 105.077C636.844 97.1029 632.247 91.5677 621.927 91.5677C609.356 91.5677 601.194 102.169 601.194 115.303C601.194 128.907 609.074 140.165 622.209 140.165C631.309 140.165 637.688 135.099 640.315 125.435L634.123 124.497ZM686.811 139.32L665.327 112.301L684.653 92.412H677.617L659.604 111.551V68.0197H652.38V139.32H659.604V115.491L678.274 139.32H686.811Z" fill="black"/>
<defs>
<linearGradient id="paint0_linear_2269_6718" x1="109.375" y1="190.816" x2="109.375" y2="109.185" gradientUnits="userSpaceOnUse">
<stop offset="7.67202e-07" stop-color="#FF0066"/>
<stop offset="0.1497" stop-color="#EA0666"/>
<stop offset="0.4584" stop-color="#B51664"/>
<stop offset="0.896" stop-color="#5F3062"/>
<stop offset="1" stop-color="#4A3662"/>
</linearGradient>
<linearGradient id="paint1_linear_2269_6718" x1="110.139" y1="109.305" x2="26.9957" y2="109.305" gradientUnits="userSpaceOnUse">
<stop offset="5.46326e-07" stop-color="#0070C0"/>
<stop offset="0.185" stop-color="#077EAB"/>
<stop offset="0.5664" stop-color="#1AA176"/>
<stop offset="1" stop-color="#32CD32"/>
</linearGradient>
<linearGradient id="paint2_linear_2269_6718" x1="109.375" y1="28.0032" x2="109.375" y2="109.185" gradientUnits="userSpaceOnUse">
<stop offset="1.82109e-07" stop-color="#FFBF00"/>
<stop offset="0.2111" stop-color="#FFAA00"/>
<stop offset="0.6436" stop-color="#FF7500"/>
<stop offset="1" stop-color="#FF4500"/>
</linearGradient>
</defs>
</svg>
