<svg width="684" height="444" viewBox="0 0 684 444" fill="none" xmlns="http://www.w3.org/2000/svg">
<path opacity="0.6" d="M230.469 100.074C217.221 96.949 202.632 99.8179 192.079 110.072C179.899 121.894 171.69 137.341 169.032 153.427C160.908 202.633 278.595 183.4 261.237 126.289C257.081 112.617 243.972 103.263 230.469 100.074Z" fill="#EDF2FF"/>
<path opacity="0.6" d="M626.972 321.851C597.534 363.799 551.313 391.954 504.263 414.042C490.788 420.359 477.165 426.324 463.394 431.937C453.827 435.857 444.211 439.644 434.546 443.299H119.387C115.854 439.595 112.43 435.808 109.116 431.937C78.4386 396.079 58.6915 353.585 70.7352 304.558C83.0402 254.486 127.409 213.605 179.163 202.732C214.203 195.369 251.743 201.005 285.09 187.961C324.085 172.714 348.649 135.696 380.031 108.393C412.583 80.0906 454.645 61.5592 497.912 59.4686C541.178 57.378 585.228 72.4099 614.985 102.201C635.892 123.118 649.287 150.489 655.536 179.156C666.069 227.473 656.059 280.391 626.972 321.851Z" fill="#EDF2FF"/>
<path d="M263.125 68.524C263.012 69.0126 262.898 69.5012 262.796 69.967C262.795 69.9758 262.793 69.9844 262.789 69.9923C262.786 70.0001 262.78 70.007 262.773 70.0124C260.864 77.9658 259.183 83.3855 256.047 88.5211L245.094 78.1135L251.082 66.7856L251.468 66.0698V66.0471L251.547 66.0698L252.797 66.3312L263.125 68.524Z" fill="#F9B384"/>
<path d="M265.172 60.1391C265.149 60.4913 265.115 60.8436 265.07 61.1958C264.925 62.3006 264.72 63.3967 264.456 64.4794C264.286 65.2066 264.093 65.9337 263.888 66.6268C263.649 67.4562 263.388 68.2516 263.138 68.9787C263.07 69.1605 263.013 69.3423 262.956 69.5128C262.9 69.6832 262.854 69.8195 262.797 69.9672C262.797 69.976 262.795 69.9846 262.791 69.9925C262.787 70.0004 262.782 70.0072 262.775 70.0127C262.695 70.2286 262.627 70.4331 262.547 70.6376C262.545 70.6617 262.537 70.685 262.525 70.7058C262.468 70.8762 262.4 71.0353 262.343 71.1943C261.945 72.251 261.661 72.8986 261.661 72.8986C257.423 72.2055 254.344 69.9445 252.151 67.0245C251.924 66.7404 251.708 66.4337 251.504 66.1269C251.504 66.1042 251.481 66.0928 251.469 66.0701C248.652 61.8889 247.379 56.6623 246.8 52.7425C246.8 52.697 246.8 52.6629 246.777 52.6175C246.572 51.1972 246.459 49.9474 246.391 49.0044C246.374 48.7521 246.41 48.4992 246.496 48.2614C246.582 48.0237 246.716 47.8062 246.89 47.6228C247.064 47.4393 247.274 47.2937 247.506 47.1951C247.739 47.0966 247.99 47.0472 248.243 47.0501L249.901 47.0728L251.719 44.0051L264.502 49.7088C264.9 51.7858 265.139 53.89 265.217 56.0034C265.28 57.3817 265.265 58.7625 265.172 60.1391Z" fill="#F9B384"/>
<path d="M257.015 61.8716L252.811 66.3141L251.471 66.0642C248.653 61.883 247.38 56.6565 246.801 52.7366L250.05 53.4978C250.198 55.6339 251.97 60.0082 251.97 60.0082L257.015 61.8716Z" fill="#E28B6D"/>
<path d="M251.333 53.3501C250.004 54.4522 247.823 53.2819 246.789 52.6002C246.584 51.18 246.471 49.9301 246.402 48.9871C246.386 48.7348 246.422 48.4819 246.508 48.2441C246.593 48.0064 246.728 47.789 246.901 47.6055C247.075 47.422 247.285 47.2764 247.518 47.1779C247.751 47.0793 248.002 47.03 248.254 47.0328L249.913 47.0556C249.913 47.0556 252.981 51.981 251.333 53.3501Z" fill="#E28B6D"/>
<path d="M265.229 55.9918L264.661 55.9208L255.051 53.7137L251.961 60.0054L256.557 62.1415C255.137 62.6329 253.324 63.7492 251.492 66.1182C253.733 69.4614 256.983 72.123 261.647 72.8871C261.647 72.8871 264.772 65.7035 265.161 60.1332C265.26 58.7551 265.283 57.3725 265.229 55.9918ZM257.954 61.7921C258.238 60.8831 258.216 59.443 256.077 58.5056L258.877 58.7073L259.252 61.741C258.82 61.6911 258.382 61.7083 257.954 61.7921Z" fill="#F9B384"/>
<path d="M264.377 78.5795C254.014 104.848 234.324 134.958 215.656 155.466C208.805 162.988 202.102 169.214 196.057 173.497L186.058 147.74L184.809 144.513L187.933 141.707L188.501 141.195L224.689 108.814L248.22 69.9216L264.377 78.5795Z" fill="#FFBF00"/>
<path d="M211.358 401.729L187.776 402.686L184.066 419.201L206.191 422.66L211.358 401.729Z" fill="#F9B384"/>
<path d="M226.558 443.288L206.191 422.66L184.067 419.201L178.695 443.109L226.558 443.288Z" fill="#D3DFFF"/>
<path d="M182.827 425.155L182.609 426.27L193.544 428.4L193.762 427.285L182.827 425.155Z" fill="#708CD5"/>
<path d="M212.607 429.641L205.645 432.619L206.091 433.664L213.054 430.685L212.607 429.641Z" fill="#708CD5"/>
<path d="M217.009 433.616L210.047 436.594L210.494 437.639L217.456 434.661L217.009 433.616Z" fill="#708CD5"/>
<path d="M159.086 239.042L200.338 315.812L178.7 407.966L218.91 407.742L241.205 335.025C244.886 323.02 244.002 310.079 238.722 298.686L214.541 246.504L159.086 239.042Z" fill="#102048"/>
<path d="M153.757 222.36C127.136 257.866 92.0957 277.863 53.0446 290.43C53.8135 289.071 54.4562 287.645 54.9648 286.169C56.4304 281.851 56.2714 277.432 53.0446 272.864L51.8516 260.502L123.637 207.481L140.793 219.048L153.757 222.36Z" fill="#8ACEFF"/>
<path d="M13.9609 206.68C27.9191 233.801 28.6662 271.427 53.0462 272.887L166.632 199.636L133.211 141.67L42.2778 177.565L13.9609 206.68Z" fill="#8ACEFF"/>
<path opacity="0.5" d="M54.9631 286.186C56.4288 281.868 56.2698 277.448 53.043 272.881C74.5114 262.036 100.059 244.811 127.248 225.013C104.959 247.572 81.3599 268.566 54.9631 286.186Z" fill="black"/>
<path d="M156.745 210.271C131.218 254.94 88.2209 275.156 32.3086 291.634L49.1329 302.763C51.8279 304.544 54.9963 305.474 58.2265 305.431C61.4567 305.388 64.5995 304.376 67.2467 302.524C102.412 277.917 134.62 253.031 159.137 227.419L156.745 210.271Z" fill="#0070C0"/>
<path d="M166.714 141.272C133.91 126.578 80.4911 151.589 27.5755 175.648C21.6193 178.355 16.4204 182.486 12.4369 187.676C8.45333 192.867 5.80742 198.957 4.73227 205.411L0 233.801C31.1091 186.34 96.29 154.393 166.714 141.272Z" fill="#0070C0"/>
<path d="M189.585 142.32C189.437 147.263 189.233 151.41 189.278 152.205L170.27 155.148L159.359 147.172C164.54 141.252 166.949 127.743 169.949 116.04L181.879 123.164L189.639 127.771C189.844 131.708 189.741 137.401 189.585 142.32Z" fill="#F9B384"/>
<path d="M189.582 142.32C183.901 138.911 176.515 133.685 173.152 121.868L181.901 123.152L189.636 127.771C189.84 131.708 189.738 137.4 189.582 142.32Z" fill="#E28B6D"/>
<path d="M200.876 113.722C201.016 116.147 200.708 118.578 199.967 120.892C196.229 132.254 182.094 135.378 171.664 120.823L170.789 98.3493L178.174 91.998L202.148 101.258L200.648 111.177C200.773 112.02 200.848 112.87 200.876 113.722Z" fill="#F9B384"/>
<path d="M227.69 226.677C223.966 201.152 207.216 163.13 189.4 147.109L181.023 163.868L205.355 232.469L227.69 226.677Z" fill="#FFBF00"/>
<path d="M215.715 226.677C210.071 200.59 202.421 173.233 189.392 147.109C182.81 154.688 163.467 139.931 163.467 139.931L153.508 148.507L179.831 238.113L215.715 226.677Z" fill="white"/>
<path d="M240.185 317.079L219.71 310.165L214.742 322.209L234.336 332.767L240.185 317.079Z" fill="#F9B384"/>
<path d="M246.297 358.559L234.333 332.767L214.739 322.209L205.883 343.669L246.297 358.559Z" fill="#D3DFFF"/>
<path d="M237.489 339.51L230.672 341.405L230.976 342.5L237.793 340.605L237.489 339.51Z" fill="#708CD5"/>
<path d="M239.95 344.625L233.133 346.519L233.437 347.614L240.254 345.719L239.95 344.625Z" fill="#708CD5"/>
<path d="M212.328 327.975L211.82 328.991L223.561 334.86L224.069 333.844L212.328 327.975Z" fill="#708CD5"/>
<path d="M180.358 211.787C208.575 213.807 237.585 218.846 263.4 230.035C277.318 236.065 281.928 255.148 275.583 268.918L250.018 324.39L212.927 312.824L236.503 263.743C165.249 265.87 157.449 239.687 157.449 239.687L180.358 211.787Z" fill="#1F3C88"/>
<path d="M193.921 228.535C184.627 245.18 171.072 254.327 154.325 260.712L152.416 243.76L148.916 212.651L143.52 164.703L147.11 147.706L163.46 139.934C181.423 158.875 187.24 201.198 193.921 228.535Z" fill="#FFBF00"/>
<path d="M172.442 110.708C172.755 104.561 174.459 101.275 179.038 99.3719C187.73 107.291 203.773 107.007 211.797 99.7042C208.9 98.6958 206.784 97.9544 204.696 95.7758C203.5 94.526 202.898 93.6909 201.347 90.6032C195.774 79.4827 174.965 78.7328 172.031 89.4244C159.155 95.6735 165.375 105.149 167.486 110.91L172.442 110.708Z" fill="black"/>
<path d="M176.767 182.769L178.222 172.066L184.815 168.675C184.815 168.675 188.075 169.226 186.703 173.444C185.331 177.662 176.762 182.766 176.762 182.766" fill="#E28B6D"/>
<path d="M172.617 185.289L176.767 182.769L182.11 173.87L189.282 170.282C189.382 170.232 189.492 170.203 189.603 170.197C189.715 170.191 189.827 170.208 189.932 170.247C190.037 170.286 190.132 170.347 190.212 170.425C190.293 170.503 190.356 170.596 190.399 170.7C191.308 171.472 191.819 172.589 191.819 174.128C193.432 175.478 193.739 176.989 193.015 178.628C195.239 179.574 196.071 180.732 195.415 182.127C196.415 183.763 197.003 185.334 196.605 187.24L185.576 195.213L174.739 199.224L172.617 185.289Z" fill="#F9B384"/>
<path opacity="0.3" d="M176.103 201.414C171.615 219.729 163.889 234.057 152.414 243.76L148.914 212.651L176.103 201.414Z" fill="#1F3C88"/>
<path d="M163.472 139.931L140.876 142.627C137 143.094 133.329 144.626 130.271 147.053C127.212 149.48 124.886 152.707 123.549 156.375C116.627 175.287 111.937 195.551 110.812 212.949C110.102 223.982 120.285 232.563 131.077 230.165C148.781 226.231 163.251 214.784 176.101 201.417L173.974 183.07L137.814 200.354L163.472 139.931Z" fill="#FFBF00"/>
<path d="M175.782 114.77C174.41 117.764 172.169 119.792 169.266 118.463C166.363 117.133 162.776 112.881 164.639 108.777C165.999 105.78 170.127 105.601 173.03 106.933C175.933 108.265 177.154 111.779 175.782 114.77Z" fill="#F9B384"/>
<path d="M149.414 172.552C148.599 174.921 147.709 177.264 146.829 179.602C145.948 181.939 144.997 184.257 144.085 186.587L141.199 193.514C140.205 195.81 139.211 198.105 138.123 200.366L137.711 200.198C138.515 197.824 139.395 195.483 140.282 193.142L143.043 186.163C144.011 183.857 144.94 181.533 145.943 179.241C146.945 176.949 147.931 174.651 149.002 172.384L149.414 172.552Z" fill="#1F3C88"/>
<path d="M137.887 200.011C140.835 198.474 143.792 196.96 146.772 195.491C149.751 194.023 152.737 192.588 155.734 191.131L164.758 186.907C167.783 185.533 170.811 184.164 173.873 182.871L174.066 183.272C171.132 184.837 168.161 186.322 165.187 187.816L156.219 192.16C153.206 193.56 150.212 195 147.186 196.369C144.161 197.738 141.128 199.102 138.077 200.423L137.887 200.011Z" fill="#1F3C88"/>
<g opacity="0.3">
<path opacity="0.3" d="M176.211 152.918C178.016 154.395 180.307 155.145 182.636 155.023C184.955 154.833 187.127 153.809 188.748 152.14L189.101 152.424C187.791 154.588 185.297 156.017 182.704 156.165C181.418 156.245 180.132 156.023 178.948 155.515C177.764 155.008 176.716 154.231 175.887 153.245L176.211 152.918Z" fill="#1F3C88"/>
<path opacity="0.3" d="M192.746 207.959C194.17 206.545 195.436 204.981 196.524 203.294C198.674 199.923 200.068 196.127 200.611 192.165C200.885 190.178 200.944 188.166 200.788 186.166L201.228 186.101C201.661 188.129 201.787 190.211 201.6 192.276C201.225 196.44 199.746 200.429 197.316 203.831C196.12 205.523 194.678 207.027 193.039 208.294L192.746 207.959Z" fill="#1F3C88"/>
<path opacity="0.3" d="M195.484 208.51C197.09 207.411 198.628 206.218 200.092 204.936C201.543 203.658 202.878 202.266 204.233 200.826L204.597 201.082C203.656 202.875 202.38 204.472 200.839 205.786C199.323 207.128 197.577 208.186 195.686 208.91L195.484 208.51Z" fill="#1F3C88"/>
</g>
<path d="M171.743 112.949C171.578 112.431 171.336 111.94 171.027 111.492C170.732 111.059 170.361 110.682 169.934 110.379C169.05 109.767 167.998 109.445 166.923 109.458L166.863 109.132C167.449 108.92 168.079 108.864 168.693 108.97C169.319 109.071 169.914 109.319 170.427 109.693C170.94 110.067 171.358 110.557 171.647 111.123C171.939 111.671 172.086 112.285 172.073 112.907L171.743 112.949Z" fill="#E28B6D"/>
<path d="M184.603 105.666C182.671 105.138 182.174 108.507 182.469 109.717C182.754 110.853 183.68 111.197 184.478 110.285C185.213 109.433 186.293 106.132 184.603 105.666Z" fill="black"/>
<path d="M197.003 107.802C196.753 106.749 195.557 106.365 194.892 107.214C194.618 107.612 194.449 108.072 194.401 108.552C194.287 109.285 194.088 110.2 194.341 110.952C194.657 111.896 195.517 112.322 196.156 111.427C196.795 110.532 197.253 108.916 197.003 107.802Z" fill="black"/>
<path d="M190.297 109.373C190.278 110.26 190.229 111.151 190.252 112.004C190.252 112.388 190.309 112.771 190.42 113.14C190.578 113.486 190.795 113.802 191.062 114.074C191.387 114.415 191.684 114.783 191.948 115.174C192.09 115.403 192.201 115.65 192.277 115.909C192.384 116.239 192.359 116.597 192.209 116.909C192.05 117.185 191.805 117.401 191.51 117.523C191.292 117.621 191.067 117.706 190.837 117.776C190.428 117.867 190.034 118.014 189.664 118.21L189.38 117.9C189.717 117.557 190.115 117.278 190.553 117.08C190.942 116.903 191.357 116.659 191.363 116.511C191.361 116.23 191.26 115.959 191.079 115.745C190.829 115.407 190.559 115.086 190.269 114.782C189.9 114.425 189.624 113.983 189.466 113.494C189.307 113.006 189.271 112.486 189.36 111.981C189.436 111.069 189.616 110.168 189.894 109.297L190.297 109.373Z" fill="black"/>
<path d="M183.793 117.506L191.675 121.341C190.326 123.968 184.29 123.684 183.793 117.506Z" fill="white"/>
<path opacity="0.4" d="M199.963 120.892C199.743 120.937 199.518 120.96 199.293 120.96C198.288 120.96 197.324 120.561 196.614 119.85C195.903 119.139 195.504 118.176 195.504 117.171C195.504 116.166 195.903 115.202 196.614 114.491C197.324 113.781 198.288 113.381 199.293 113.381C199.838 113.381 200.376 113.497 200.872 113.722C201.013 116.148 200.705 118.578 199.963 120.892Z" fill="#FC8879"/>
<path opacity="0.4" d="M178.751 118.594C180.842 118.594 182.538 116.898 182.538 114.807C182.538 112.716 180.842 111.021 178.751 111.021C176.66 111.021 174.965 112.716 174.965 114.807C174.965 116.898 176.66 118.594 178.751 118.594Z" fill="#FC8879"/>
<path d="M278.17 12.3278C275.468 9.97014 272.508 6.02754 269.48 1.68442C271.429 1.40037 273.085 0.926002 273.977 0C276.096 4.54479 278.34 7.38529 281.692 11.0382C280.325 10.5865 279.453 11.896 278.17 12.3278Z" fill="#32CD32"/>
<path d="M120.787 111.864C118.352 109.743 115.688 106.184 112.961 102.281C114.716 102.016 116.208 101.596 117.011 100.761C118.917 104.86 120.94 107.422 123.959 110.703C122.727 110.282 121.94 111.461 120.787 111.864Z" fill="#FFBF00"/>
<path d="M165.156 78.3297C166.221 75.8897 168.204 73.035 170.42 70.0752C170.854 71.5721 171.354 72.8163 172.03 73.3957C169.568 75.6681 168.15 77.8127 166.4 80.9372C166.5 79.7982 165.597 79.2841 165.156 78.3297Z" fill="#FFBF00"/>
<path d="M277.215 162.451C278.396 159.738 280.601 156.568 283.061 153.281C283.541 154.946 284.097 156.327 284.85 156.974C282.115 159.497 280.541 161.877 278.601 165.348C278.698 164.078 277.692 163.507 277.215 162.451Z" fill="#EE6F57"/>
<path d="M330.473 13.282C331.654 10.5694 333.859 7.39937 336.318 4.11575C336.801 5.77744 337.355 7.15792 338.108 7.8084C335.373 10.3308 333.799 12.7111 331.859 16.1822C331.961 14.9125 330.956 14.3415 330.473 13.282Z" fill="#0070C0"/>
<path d="M74.3857 99.6504C73.3205 97.2104 71.3379 94.3557 69.1223 91.3959C68.6877 92.8928 68.1878 94.137 67.5117 94.7164C69.9744 96.9888 71.3918 99.1334 73.1416 102.258C73.0507 101.125 73.954 100.61 74.3857 99.6504Z" fill="#0070C0"/>
<path d="M209.156 57.6675C207.974 54.9577 205.773 51.7877 203.31 48.5012C202.83 50.1629 202.276 51.5462 201.523 52.1939C204.259 54.7162 205.832 57.0966 207.773 60.5648C207.676 59.2979 208.679 58.727 209.156 57.6675Z" fill="#6B94FF"/>
<path d="M314.455 56.4746C311.072 57.287 306.346 57.6477 301.281 57.8949C302.224 56.5314 302.863 55.2873 302.701 54.3528C307.383 54.7732 310.857 54.4437 315.592 53.7165C314.436 54.4181 314.896 55.489 314.455 56.4746Z" fill="#FF67A4"/>
<path d="M111.689 31.3732C114.735 32.4923 118.992 32.9894 123.551 33.3274C122.699 31.4499 122.131 29.7342 122.273 28.4446C118.058 29.0127 114.93 28.5696 110.664 27.5669C111.707 28.5327 111.292 30.0097 111.689 31.3732Z" fill="#32CD32"/>
<path d="M215.606 17.0971C212.18 19.1281 207.207 20.696 201.844 22.1447C202.525 19.716 202.909 17.5431 202.508 16.0461C207.621 15.7621 211.26 14.5094 216.143 12.3364C215.086 13.7254 215.839 15.3843 215.606 17.0971Z" fill="#EE6F57"/>
<path d="M285.926 110.751C288.482 112.455 291.419 115.526 294.447 118.923C292.788 119.411 291.394 120.019 290.706 120.931C288.451 117.238 286.241 115.048 283 112.296C284.221 112.523 284.855 111.296 285.926 110.751Z" fill="#C6EAE9"/>
<path d="M241.926 113.438C244.482 115.142 247.416 118.213 250.447 121.61C248.788 122.099 247.394 122.704 246.709 123.615C244.451 119.923 242.244 117.733 239 114.983C240.219 115.208 240.852 113.966 241.926 113.438Z" fill="#FFBF00"/>
<path d="M129.866 60.8433C132.746 62.7748 136.047 66.2175 139.453 70.0408C137.581 70.5918 136.016 71.2736 135.24 72.299C132.684 68.1462 130.215 65.6778 126.562 62.5816C127.943 62.8344 128.659 61.4398 129.866 60.8433Z" fill="#FF67A4"/>
<path d="M316.348 94.1709C318.475 92.2025 320.674 88.7512 322.881 84.9279C321.145 84.4564 319.649 83.8457 318.774 82.8743C317.373 86.9873 315.695 89.4642 313.121 92.5888C314.28 92.299 315.18 93.6312 316.348 94.1709Z" fill="#FF67A4"/>
<path d="M389.055 88.1235C390.12 85.6807 392.103 82.826 394.321 79.8662C394.753 81.3632 395.253 82.6073 395.929 83.1896C393.469 85.462 392.051 87.6037 390.299 90.7283C390.404 89.5892 389.486 89.0751 389.055 88.1235Z" fill="#EE6F57"/>
<path d="M362.795 43.5564C361.911 47.0729 359.897 51.3933 357.602 55.9154C356.713 54.0606 355.79 52.5579 354.762 51.9785C357.528 48.2858 358.943 45.0732 360.59 40.4603C360.724 41.9885 362.028 42.4174 362.795 43.5564Z" fill="#6B94FF"/>
<path d="M335.867 119.664C336.515 122.241 337.989 125.402 339.671 128.714C340.321 127.356 341 126.254 341.744 125.831C339.716 123.135 338.679 120.775 337.483 117.398C337.387 118.517 336.435 118.829 335.867 119.664Z" fill="#6B94FF"/>
<path d="M415.907 37.7273C413.024 39.6588 409.726 43.1044 406.32 46.9277C408.189 47.4787 409.757 48.1604 410.53 49.1859C413.086 45.033 415.558 42.5647 419.208 39.4685C417.827 39.7156 417.106 38.3124 415.907 37.7273Z" fill="#FFBF00"/>
<path d="M684 442.152H32.9414V443.288H684V442.152Z" fill="black"/>
<path d="M598.332 263.425H559.57C559.57 263.425 562.871 247.896 578.942 247.896C596.4 247.896 598.332 263.425 598.332 263.425Z" fill="#D3DFFF"/>
<path d="M573.367 248.876L572.312 249.299L578.083 263.676L579.138 263.253L573.367 248.876Z" fill="black"/>
<path d="M486.958 219.227H471.293V261.053H486.958V219.227Z" fill="#FF0066"/>
<path opacity="0.6" d="M486.958 219.227H471.293V238.877H486.958V219.227Z" fill="#EE6F57"/>
<path d="M458.785 253.321H499.467C500.675 253.321 501.871 253.559 502.987 254.021C504.102 254.483 505.116 255.161 505.97 256.015C506.825 256.869 507.502 257.883 507.964 258.999C508.426 260.115 508.664 261.311 508.664 262.519V263.371H449.582V262.519C449.582 261.31 449.82 260.114 450.283 258.998C450.745 257.881 451.423 256.867 452.278 256.013C453.133 255.159 454.147 254.481 455.264 254.02C456.38 253.558 457.577 253.32 458.785 253.321Z" fill="#FF0066"/>
<path opacity="0.5" d="M567.965 119.789H393.422V229.501H567.965V119.789Z" fill="#FF0066"/>
<path d="M562.542 125.144H398.844V220.863H562.542V125.144Z" fill="white"/>
<path d="M481.979 192.424H475.789V207.683H481.979V192.424Z" fill="#D3DFFF"/>
<path d="M492.986 188.436H486.797V207.683H492.986V188.436Z" fill="#D3DFFF"/>
<path d="M503.99 179.139H497.801V207.683H503.99V179.139Z" fill="#D3DFFF"/>
<path d="M514.994 174.494H508.805V207.683H514.994V174.494Z" fill="#D3DFFF"/>
<path d="M525.998 182.121H519.809V207.686H525.998V182.121Z" fill="#D3DFFF"/>
<path d="M537.002 173.256H530.812V207.683H537.002V173.256Z" fill="#D3DFFF"/>
<path d="M548.01 165.021H541.82V207.686H548.01V165.021Z" fill="#D3DFFF"/>
<path d="M478.154 182.247L477.98 181.125L489.061 179.42L500.369 166.081L511.791 165.479L522.88 172.302L532.407 164.175L547.112 147.445L547.965 148.195L533.203 164.982L522.988 173.702L511.498 166.632L500.92 167.189L489.652 180.48L478.154 182.247Z" fill="#D3DFFF"/>
<path d="M458.49 140.107H413.371V143.172H458.49V140.107Z" fill="#D3DFFF"/>
<path d="M452.789 147.328H413.371V150.393H452.789V147.328Z" fill="#D3DFFF"/>
<path opacity="0.6" d="M455.953 154.546H413.371V157.611H455.953V154.546Z" fill="#D3DFFF"/>
<path opacity="0.6" d="M451.545 161.763H413.371V164.828H451.545V161.763Z" fill="#D3DFFF"/>
<path opacity="0.6" d="M440.168 168.984H413.371V172.049H440.168V168.984Z" fill="#D3DFFF"/>
<path d="M458.688 178.809H413.371V207.683H458.688V178.809Z" fill="#D3DFFF"/>
<path d="M371.117 230.449H322.352V263.124H371.117V230.449Z" fill="white"/>
<path d="M371.612 263.618H321.855V229.955H371.612V263.618ZM322.844 262.629H370.621V230.944H322.844V262.629Z" fill="black"/>
<path opacity="0.6" d="M370.595 230.449H322.789V244.166H370.595V230.449Z" fill="#D3DFFF"/>
<path d="M376.989 224.7H316.48V237.747H376.989V224.7Z" fill="white"/>
<path d="M377.481 238.244H315.984V224.206H377.481V238.244ZM316.979 237.252H376.487V225.2H316.973L316.979 237.252Z" fill="black"/>
<path d="M619.674 263.459H299.34V275.735H619.674V263.459Z" fill="#D3DFFF"/>
<path d="M620.235 443.083H619.099V263.626H299.867V443.083H298.73V262.49H620.235V443.083Z" fill="black"/>
<path d="M411.156 354.912L410.023 354.996L416.58 442.602L417.713 442.517L411.156 354.912Z" fill="black"/>
<path d="M385.018 349.304L348.793 442.698L349.852 443.108L386.077 349.715L385.018 349.304Z" fill="black"/>
<path d="M439.704 349.267L438.645 349.678L474.897 443.24L475.957 442.83L439.704 349.267Z" fill="black"/>
<path d="M488.59 342.339L410.573 328.878L397.348 351.296L445.838 356.346L488.729 344.984C489.058 344.937 489.357 344.769 489.568 344.512C489.779 344.256 489.887 343.93 489.869 343.598C489.852 343.266 489.711 342.953 489.474 342.72C489.237 342.487 488.922 342.352 488.59 342.339Z" fill="black"/>
<path d="M488.511 345.069C474.729 354.605 440.089 367.307 408.318 368.117C380.856 368.816 354.738 355.335 348.756 323.035C344.359 299.294 340.7 272.997 341.16 259.692C341.229 258.036 341.948 256.474 343.161 255.344C344.373 254.214 345.983 253.608 347.639 253.656L380.021 254.474C384.86 254.602 389.59 255.934 393.785 258.349C397.979 260.765 401.505 264.189 404.043 268.31C421.555 296.667 420.632 364.64 488.511 345.069Z" fill="#0070C0"/>
<path d="M582.875 324.021H528.633V442.768H582.875V324.021Z" fill="white"/>
<path d="M583.391 443.288H528.109V323.501H583.391V443.288ZM529.138 442.248H582.34V324.541H529.138V442.248Z" fill="black"/>
<path d="M555.752 355.386C559.36 355.386 562.285 352.461 562.285 348.853C562.285 345.244 559.36 342.319 555.752 342.319C552.144 342.319 549.219 345.244 549.219 348.853C549.219 352.461 552.144 355.386 555.752 355.386Z" fill="#32CD32"/>
<path d="M565.692 378.11H545.809V426.398H565.692V378.11Z" fill="#32CD32"/>
</svg>
