<svg width="34" height="34" viewBox="0 0 34 34" fill="none" xmlns="http://www.w3.org/2000/svg">
<path d="M1.89397 33.9998H0.996094C0.445984 33.9998 0 33.5538 0 33.0037V32.1058C0 29.7028 0.613527 27.32 1.77418 25.2149C2.93071 23.1175 4.61125 21.3296 6.63418 20.0445C7.02797 19.7943 7.54275 19.851 7.87259 20.181L13.8187 26.1272C14.1486 26.4571 14.2054 26.9718 13.9552 27.3656C12.6701 29.3886 10.8822 31.0691 8.78475 32.2256C6.67974 33.3863 4.29695 33.9998 1.89397 33.9998Z" fill="#3C434E"/>
<path d="M0.993434 34H1.89131C4.29429 34 6.67708 33.3865 8.78216 32.2258C10.8796 31.0693 12.6675 29.3887 13.9526 27.3658C14.2028 26.9719 14.1461 26.4572 13.8161 26.1274L10.8431 23.1543L0.289062 33.7082C0.469355 33.8885 0.718379 34 0.993434 34Z" fill="black"/>
<path d="M21.4088 32.3675C21.3557 32.3675 21.3023 32.3633 21.2492 32.3547C20.9331 32.3034 20.661 32.1033 20.5178 31.8168L17.5896 25.9606C17.3737 25.5289 17.4985 25.0046 17.8857 24.7162L26.5401 18.2721C26.831 18.0554 27.2167 18.0141 27.547 18.1642C27.8773 18.3143 28.0999 18.632 28.1281 18.9936C28.4529 23.1601 26.9451 27.2437 23.9912 30.1975L22.113 32.0758C21.9247 32.264 21.6707 32.3675 21.4088 32.3675Z" fill="#171717"/>
<path d="M8.48466 16.5133C8.33412 16.5133 8.18191 16.4792 8.03967 16.4081L2.18344 13.4799C1.89703 13.3367 1.69695 13.0646 1.64568 12.7485C1.59441 12.4325 1.69814 12.111 1.92459 11.8846L3.80289 10.0064C6.75664 7.05256 10.8406 5.54513 15.0068 5.86953C15.3684 5.89775 15.6862 6.12028 15.8362 6.45058C15.9863 6.78089 15.9449 7.16658 15.7283 7.4575L9.28413 16.112C9.09082 16.3717 8.79126 16.5133 8.48466 16.5133Z" fill="#3C434E"/>
<path d="M32.7844 10.9225C30.2426 10.7841 27.8573 9.72258 26.0682 7.93346C24.2791 6.14434 23.2175 3.7591 23.0792 1.2172L23.0611 0.885498C19.7703 1.87137 16.7227 3.66141 14.2229 6.16128L14.1735 6.21068C10.3075 10.0767 7.3738 14.6327 5.45407 19.752C5.31694 20.1178 5.40619 20.5299 5.68237 20.8061L13.1954 28.3191C13.3856 28.5094 13.6403 28.6109 13.8999 28.6109C14.0172 28.6109 14.1356 28.5901 14.2494 28.5475C19.3688 26.6277 23.9247 23.6941 27.7907 19.828L27.8403 19.7784C30.3401 17.2787 32.13 14.2312 33.1159 10.9405L32.7844 10.9225Z" fill="#E6F3FF"/>
<path d="M13.194 28.3192C13.3842 28.5095 13.639 28.611 13.8985 28.611C14.0159 28.611 14.1343 28.5903 14.2481 28.5476C19.3674 26.6279 23.9234 23.6943 27.7895 19.8281L27.8391 19.7785C30.3388 17.2788 32.1287 14.2314 33.1146 10.9407L32.7829 10.9226C30.2411 10.7842 27.8559 9.72271 26.0667 7.93359L9.4375 24.5627L13.194 28.3192Z" fill="#D2DCF0"/>
<path d="M33.6607 1.14113C33.5865 0.733001 33.267 0.413521 32.8589 0.339345C29.3031 -0.307253 25.6989 -0.0177879 22.3711 1.10494L22.4134 1.8813C22.5518 4.42313 23.6133 6.80838 25.4024 8.59756C27.1915 10.3866 29.5768 11.4482 32.1187 11.5866L32.8951 11.6289C34.0177 8.30112 34.3071 4.69692 33.6607 1.14113Z" fill="#3C434E"/>
<path d="M25.4023 8.59731C27.1915 10.3864 29.5767 11.4479 32.1186 11.5863L32.895 11.6286C34.0177 8.30087 34.3071 4.69674 33.6606 1.14088C33.6235 0.936816 33.5251 0.754863 33.3849 0.614746L25.4023 8.59731Z" fill="#171717"/>
<path d="M20.9415 17.3748C19.7885 17.3748 18.7045 16.9258 17.8893 16.1105C17.074 15.2953 16.625 14.2113 16.625 13.0584C16.625 11.9054 17.074 10.8214 17.8893 10.0062C18.7045 9.19092 19.7885 8.74194 20.9415 8.74194C22.0944 8.74194 23.1784 9.19092 23.9937 10.0062C24.8089 10.8214 25.2579 11.9054 25.2579 13.0584C25.2579 14.2113 24.8089 15.2953 23.9937 16.1105C23.1784 16.9258 22.0944 17.3748 20.9415 17.3748Z" fill="#3C434E"/>
<path d="M7.32419 27.6718C7.06925 27.6718 6.81432 27.5745 6.61988 27.38C6.23087 26.9911 6.23087 26.3604 6.61988 25.9714L15.0719 17.5192C15.4609 17.1303 16.0916 17.1303 16.4806 17.5192C16.8696 17.9082 16.8696 18.5389 16.4806 18.9279L8.02849 27.38C7.83399 27.5745 7.57905 27.6718 7.32419 27.6718Z" fill="#3C434E"/>
<path d="M17.8867 16.1106C18.7019 16.9259 19.7859 17.3749 20.9389 17.3749C22.0918 17.3749 23.1758 16.9259 23.991 16.1106C24.8063 15.2954 25.2553 14.2114 25.2553 13.0585C25.2553 11.9055 24.8063 10.8215 23.991 10.0063L17.8867 16.1106Z" fill="#171717"/>
<path d="M6.61719 27.3801C6.81169 27.5746 7.06662 27.6719 7.32149 27.6719C7.57636 27.6719 7.83136 27.5746 8.0258 27.3801L16.4779 18.928C16.8669 18.539 16.8669 17.9083 16.4779 17.5193C16.4779 17.5193 16.4779 17.5193 16.4779 17.5193L6.61719 27.3801Z" fill="#171717"/>
</svg>
