<svg width="1540" height="872" viewBox="0 0 1540 872" fill="none" xmlns="http://www.w3.org/2000/svg">
<path d="M5 835.068L25.9307 831.096C89.9145 818.953 143.946 776.349 170.678 716.962L177.872 700.98C213.206 622.482 299.535 580.391 383.14 600.898V600.898C445.118 616.1 510.496 597.055 554.614 550.947L722.895 375.074C761.438 334.793 810.443 306.048 864.412 292.066L1222.11 199.391C1301.92 178.714 1369.7 126.106 1409.53 53.9243L1481.5 -76.5" stroke="black" stroke-opacity="0.29"/>
<path d="M-1 871L43.5814 862.707C107.752 850.771 162.003 808.154 188.794 748.634L195.872 732.911C231.206 654.414 317.535 612.323 401.14 632.83V632.83C463.118 648.032 528.496 628.987 572.614 582.879L740.895 407.006C779.438 366.725 828.443 337.98 882.412 323.997L1251.58 228.35C1324.59 209.435 1387.79 163.716 1428.61 100.298L1539.5 -72" stroke="black" stroke-opacity="0.29"/>
<path d="M1433.5 -164L1332.34 27.7692C1292.95 102.441 1223.92 157.06 1142.19 178.221L820.033 261.631C766.079 275.6 717.083 304.323 678.539 344.579L523.248 506.766C481.637 550.225 419.996 568.175 361.558 553.851C282.714 534.524 201.307 574.211 167.968 648.227L161.224 663.198C136.015 719.166 85.081 759.312 24.7721 770.75L5 774.5V-164H1433.5Z" fill="url(#paint0_linear_170_14242)"/>
<defs>
<linearGradient id="paint0_linear_170_14242" x1="719.25" y1="-164" x2="719.25" y2="774.5" gradientUnits="userSpaceOnUse">
<stop stop-color="white" stop-opacity="0"/>
<stop offset="0.0001" stop-color="white" stop-opacity="0"/>
<stop offset="1" stop-color="#C6C6C6" stop-opacity="0.15"/>
</linearGradient>
</defs>
</svg>
