<svg width="1534" height="872" viewBox="0 0 1534 872" fill="none" xmlns="http://www.w3.org/2000/svg">
<path d="M-1 835.068L19.9307 831.096C83.9145 818.953 137.946 776.349 164.678 716.962L171.872 700.98C207.206 622.482 293.535 580.391 377.14 600.898V600.898C439.118 616.1 504.496 597.055 548.614 550.947L716.895 375.074C755.438 334.793 804.443 306.048 858.412 292.066L1216.11 199.391C1295.92 178.714 1363.7 126.106 1403.53 53.9243L1475.5 -76.5" stroke="black" stroke-opacity="0.29"/>
<path d="M-7 871L37.5814 862.707C101.752 850.771 156.003 808.154 182.794 748.634L189.872 732.911C225.206 654.414 311.535 612.323 395.14 632.83V632.83C457.118 648.032 522.496 628.987 566.614 582.879L734.895 407.006C773.438 366.725 822.443 337.98 876.412 323.997L1245.58 228.35C1318.59 209.435 1381.79 163.716 1422.61 100.298L1533.5 -72" stroke="black" stroke-opacity="0.29"/>
<path d="M1427.5 -164L1326.34 27.7692C1286.95 102.441 1217.92 157.06 1136.19 178.221L814.033 261.631C760.079 275.6 711.083 304.323 672.539 344.579L517.248 506.766C475.637 550.225 413.996 568.175 355.558 553.851C276.714 534.524 195.307 574.211 161.968 648.227L155.224 663.198C130.015 719.166 79.081 759.312 18.7721 770.75L-1 774.5V-164H1427.5Z" fill="url(#paint0_linear_170_14262)"/>
<defs>
<linearGradient id="paint0_linear_170_14262" x1="713.25" y1="-164" x2="713.25" y2="774.5" gradientUnits="userSpaceOnUse">
<stop stop-color="white" stop-opacity="0"/>
<stop offset="0.0001" stop-color="white" stop-opacity="0"/>
<stop offset="1" stop-color="#C6C6C6" stop-opacity="0.15"/>
</linearGradient>
</defs>
</svg>
