<svg width="1434" height="1036" viewBox="0 0 1434 1036" fill="none" xmlns="http://www.w3.org/2000/svg">
<path d="M5 999.068L25.9307 995.096C89.9145 982.953 143.946 940.349 170.678 880.962L177.872 864.98C213.206 786.482 299.535 744.391 383.14 764.898V764.898C445.118 780.1 510.496 761.055 554.614 714.947L722.895 539.074C761.438 498.793 810.443 470.048 864.412 456.066L1347.13 331" stroke="black" stroke-opacity="0.29"/>
<path d="M-1 1035L43.5814 1026.71C107.752 1014.77 162.003 972.154 188.794 912.634L195.872 896.911C231.206 818.414 317.535 776.323 401.14 796.83V796.83C463.118 812.032 528.496 792.987 572.614 746.879L740.895 571.006C779.438 530.725 828.443 501.98 882.412 487.997L1365.13 362.932" stroke="black" stroke-opacity="0.29"/>
<path d="M1433.5 0L1332.34 191.769C1292.95 266.441 1223.92 321.06 1142.19 342.221L820.033 425.631C766.079 439.6 717.083 468.323 678.539 508.579L523.248 670.766C481.637 714.225 419.996 732.175 361.558 717.851C282.714 698.524 201.307 738.211 167.968 812.227L161.224 827.198C136.015 883.166 85.081 923.312 24.7721 934.75L5 938.5V0H1433.5Z" fill="url(#paint0_linear_103_11413)"/>
<defs>
<linearGradient id="paint0_linear_103_11413" x1="719.25" y1="0" x2="719.25" y2="938.5" gradientUnits="userSpaceOnUse">
<stop stop-color="white" stop-opacity="0"/>
<stop offset="0.0001" stop-color="white" stop-opacity="0"/>
<stop offset="1" stop-color="#C6C6C6" stop-opacity="0.15"/>
</linearGradient>
</defs>
</svg>
